<svg width="120" height="120" viewBox="0 0 120 120" fill="none" xmlns="http://www.w3.org/2000/svg">
<mask id="mask0_1012_537" style="mask-type:alpha" maskUnits="userSpaceOnUse" x="0" y="0" width="120" height="120">
<path d="M0 33.4286C0 14.9665 14.9665 0 33.4286 0H86.5714C105.034 0 120 14.9665 120 33.4286V86.5714C120 105.034 105.034 120 86.5714 120H33.4286C14.9665 120 0 105.034 0 86.5714V33.4286Z" fill="white"/>
</mask>
<g mask="url(#mask0_1012_537)">
<path d="M0 33.4286C0 14.9665 14.9665 0 33.4286 0H86.5714C105.034 0 120 14.9665 120 33.4286V86.5714C120 105.034 105.034 120 86.5714 120H33.4286C14.9665 120 0 105.034 0 86.5714V33.4286Z" fill="white"/>
<path d="M70.6554 98.7144V96.4305C77.4552 93.5469 82.6103 89.1191 85.8512 83.4378C87.7003 81.6217 89.3277 79.598 90.6991 77.4079C92.1701 76.4254 93.1436 74.7508 93.1436 72.854C93.1436 72.8071 93.1305 72.7585 93.1296 72.7116C93.3306 72.2297 93.5225 71.7421 93.6996 71.2488C94.8238 70.0488 95.4696 68.474 95.4696 66.7938C95.4696 66.1975 95.3822 65.6226 95.2323 65.0724C95.444 63.5989 95.5651 62.0967 95.5651 60.568C95.5651 49.9349 90.293 40.4929 82.1342 34.5176C83.2997 32.9058 83.9742 31.0956 83.9742 29.1756C83.9742 22.5395 76.1374 17.1416 66.505 17.1416C56.8686 17.1416 49.0301 22.5398 49.0301 29.1756C49.0301 29.5017 49.0646 29.8238 49.1017 30.1425C40.1727 33.5416 33.097 40.4684 29.7382 49.1453C25.6612 49.7218 22.5215 53.2172 22.5215 57.4516C22.5215 61.0517 24.7906 64.1149 27.973 65.3083C28.5067 68.8383 29.6235 72.1847 31.2321 75.2578C33.7178 85.0178 40.9393 93.6329 49.7794 96.6294V99.1044C33.5135 101.939 22.641 110.192 22.641 119.822C22.641 120.408 23.1171 120.884 23.7035 120.884C24.29 120.884 24.766 120.408 24.766 119.822C24.766 111.462 34.988 103.922 49.7811 101.248V103.293C49.7811 109.163 54.4626 113.938 60.2181 113.938C65.9745 113.938 70.6585 109.163 70.6585 103.293V100.86C86.6246 103.098 98.0878 110.969 98.0878 119.821C98.0878 120.408 98.5639 120.884 99.1503 120.884C99.7367 120.884 100.213 120.408 100.213 119.821C100.211 109.673 88.1054 101.075 70.656 98.7152L70.6554 98.7144ZM60.4688 69.2842C60.4688 69.5271 60.4886 69.7643 60.5051 70.0032H55.8837C55.9002 69.7635 55.9191 69.523 55.9191 69.2842C55.9191 63.3878 51.1231 58.5901 45.2259 58.5901C42.704 58.5901 40.3871 59.4722 38.557 60.9375C39.2669 59.8215 39.916 57.6569 40.4447 53.7043C41.0435 49.2295 42.6314 46.3822 44.5546 44.5769C45.9029 43.638 47.3376 42.8234 48.8407 42.1374C49.0746 42.0674 49.3061 42.0072 49.5351 41.9529C50.1363 45.3109 52.1418 49.3516 57.1117 53.5569L58.0152 54.1203C59.875 55.2759 62.3096 54.9728 63.718 53.3082C65.2763 51.4674 64.9321 48.7412 63.0287 47.1318C62.5485 46.7258 62.0082 46.4326 61.4473 46.253L61.4753 46.1418C62.8129 44.7614 63.564 42.9411 63.6728 41.0353C64.5961 41.139 65.5358 41.2074 66.5019 41.2074C67.0958 41.2074 67.683 41.1852 68.2612 41.1456C71.2485 42.942 73.9822 46.4795 73.7722 53.4406C73.698 55.8975 73.7812 57.6806 73.9773 58.9788C73.0787 58.7333 72.1373 58.59 71.1614 58.59C65.2667 58.59 60.4688 63.3861 60.4688 69.2842ZM45.2268 60.9514C49.821 60.9514 53.5578 64.6898 53.5578 69.2842C53.5578 69.6276 53.5356 69.9735 53.4928 70.3186C52.2516 70.9586 51.437 72.2467 51.437 73.6766C51.437 74.011 51.4831 74.3404 51.5737 74.665C49.9965 76.5222 47.6665 77.616 45.2261 77.616C40.6319 77.616 36.8934 73.8791 36.8934 69.2849C36.8942 64.6899 40.6318 60.9514 45.2268 60.9514ZM71.1633 60.9514C75.7575 60.9514 79.4944 64.6898 79.4944 69.2842C79.4944 73.8786 75.756 77.6152 71.1633 77.6152C66.5691 77.6152 62.8305 73.8783 62.8305 69.2842C62.8305 64.69 66.5674 60.9514 71.1633 60.9514ZM68.5311 103.288C68.5311 107.985 64.8009 111.806 60.2164 111.806C55.6339 111.806 51.9035 107.985 51.9035 103.288V95.8479C51.9035 95.3793 51.5955 94.965 51.1458 94.8299C40.8199 91.7397 32.4214 79.7106 32.4214 68.0163C32.4214 67.2273 32.4617 66.4481 32.5227 65.6763C33.7243 65.4424 34.8289 64.9564 35.7874 64.2679C34.9893 65.7661 34.5322 67.4709 34.5322 69.2838C34.5322 75.1793 39.3299 79.977 45.2263 79.977C48.183 79.977 51.0073 78.7275 53.0152 76.5895C53.633 77.0598 54.394 77.3513 55.2292 77.3513H56.9308C57.5172 77.3513 57.9933 76.8753 57.9933 76.2888C57.9933 75.7024 57.5172 75.2264 56.9308 75.2264L55.23 75.2255C54.7663 75.2255 54.3619 75.0106 54.0786 74.6885C54.0596 74.5633 54.0267 74.4398 53.9665 74.3228C53.8553 74.1095 53.7985 73.8921 53.7985 73.6779C53.7985 73.0404 54.2342 72.4771 54.8577 72.3082C54.9903 72.2728 55.1064 72.2094 55.2151 72.1344C55.2201 72.1344 55.2242 72.132 55.2291 72.132H60.8637C62.1139 76.6488 66.2502 79.9796 71.1607 79.9796C77.057 79.9796 81.8539 75.1836 81.8539 69.2864C81.8539 68.5097 81.7649 67.7536 81.6084 67.0231C85.1483 67.4308 88.4709 65.5669 90.0333 62.527C91.9318 63.0261 93.3443 64.7409 93.3443 66.7941C93.3443 68.3145 92.5651 69.714 91.2605 70.5358C90.8437 70.7994 90.6634 71.3125 90.8215 71.7795C90.9541 72.1666 91.0183 72.52 91.0183 72.856C91.0183 74.7026 89.5152 76.2058 87.6686 76.2058C87.6085 76.2058 87.5269 76.1983 87.4462 76.1926C87.3597 76.1868 87.2724 76.1761 87.1843 76.1662C87.1489 76.1613 87.1143 76.158 87.078 76.1522C87.0179 76.1448 86.9603 76.1358 86.9034 76.1275C86.8384 76.1168 86.7758 76.1053 86.7148 76.0946C86.6736 76.0872 86.6325 76.0789 86.5946 76.0707C86.5023 76.0509 86.4175 76.032 86.3499 76.0106C86.3475 76.0106 86.3417 76.0097 86.3392 76.0081C86.2857 75.99 86.233 75.9999 86.1786 75.9916C86.0921 75.9784 86.0048 75.9562 85.9192 75.9653C85.6573 75.9916 85.4176 76.1209 85.2413 76.317C85.1409 76.429 85.0568 76.5575 85.0099 76.7115C84.9498 76.9075 84.9662 77.1027 85.0157 77.2864C85.1054 77.6298 85.3484 77.9272 85.7125 78.04C85.7907 78.0647 85.8755 78.0869 85.9637 78.1084C83.2861 85.651 77.5116 91.3844 69.1938 94.7382C68.7927 94.9013 68.5291 95.2909 68.5291 95.7241V103.288L68.5311 103.288Z" fill="black"/>
<path d="M63.1588 91.8871C62.8384 91.6581 62.3253 91.5815 61.8764 91.6993C61.6449 91.7619 61.0948 91.8624 60.0265 91.8624C58.9262 91.8624 58.6535 91.8031 58.1124 91.6861C57.6743 91.5873 57.1817 91.6729 56.8786 91.8978C56.5739 92.121 56.5171 92.4422 56.7345 92.7033C57.1125 93.1571 58.2211 93.9239 59.9721 93.9239H60.0462C61.8046 93.8992 62.9224 93.1505 63.3061 92.7156C63.54 92.4455 63.4825 92.1136 63.1588 91.8871Z" fill="black"/>
<path d="M85.7451 71.9957C85.75 71.9965 85.7558 71.9965 85.7615 71.9965C86.3414 71.9965 86.815 71.5303 86.8232 70.948C86.8232 70.9398 86.8644 70.0379 87.8914 69.5915C88.4301 69.3592 88.6764 68.7316 88.4424 68.1938C88.2077 67.6552 87.5801 67.4072 87.0448 67.6428C85.2179 68.4351 84.709 70.0749 84.6974 70.9183C84.6891 71.5039 85.1578 71.9874 85.7451 71.9957Z" fill="black"/>
<path d="M51.9647 56.054C50.2664 55.1258 48.6373 55.643 47.9421 56.0952C47.4554 56.4106 47.3195 57.0539 47.6267 57.5448C47.9347 58.0373 48.5879 58.1872 49.0837 57.8874C49.1727 57.8339 49.9691 57.3842 50.9467 57.9195C51.1082 58.0085 51.2819 58.0496 51.4541 58.0496C51.8305 58.0496 52.1954 57.8487 52.3881 57.4945C52.6698 56.9798 52.4803 56.334 51.9647 56.054Z" fill="black"/>
<path d="M66.2083 57.8885C66.2956 57.8349 67.0912 57.3869 68.0689 57.9206C68.2303 58.0095 68.4041 58.0507 68.5762 58.0507C68.9526 58.0507 69.3175 57.8498 69.5102 57.4956C69.7911 56.98 69.6008 56.3351 69.086 56.0543C67.3894 55.1277 65.7586 55.6433 65.066 56.0954C64.5792 56.4117 64.445 57.0542 64.7522 57.5467C65.0586 58.04 65.7149 58.1875 66.2083 57.8885Z" fill="black"/>
<path d="M63.4927 80.0139C63.3503 80.0575 63.244 80.1819 63.2168 80.3318C63.2053 80.4208 63.2176 80.5056 63.258 80.5822C63.2844 80.6365 63.3255 80.6835 63.3725 80.723L63.7176 80.9841C63.5702 81.0681 63.4334 81.1768 63.3362 81.3309C63.3272 81.3449 62.3092 82.806 59.2371 82.4156C58.6524 82.339 58.1236 82.7533 58.0495 83.3356C57.9762 83.9179 58.388 84.4491 58.9703 84.5232C59.42 84.5809 59.8409 84.6056 60.2337 84.6056C63.7465 84.6056 65.0776 82.5548 65.1377 82.4575C65.1994 82.3595 65.2283 82.2532 65.2546 82.147L65.4663 82.3076C65.589 82.3982 65.7554 82.413 65.8929 82.3438C66.0321 82.2738 66.1194 82.1313 66.1153 81.9789C66.1161 81.9517 66.1079 81.3439 65.827 80.7945C65.5717 80.302 64.9317 79.5467 63.4929 80.0138L63.4927 80.0139Z" fill="black"/>
<path d="M24.8798 69.4257C24.8831 69.0015 24.659 68.6086 24.2934 68.3945L21.8513 66.9729L20.6101 64.7236C20.4034 64.3497 20.0105 64.1157 19.5814 64.1133H19.5756C19.149 64.1133 18.7561 64.3422 18.5469 64.7145L17.239 67.0347L14.8712 68.3904C14.503 68.6021 14.2757 68.9941 14.2774 69.4175C14.2782 69.8416 14.5063 70.232 14.8745 70.4421L17.221 71.7731L18.552 74.1179C18.7612 74.4861 19.1516 74.715 19.5758 74.7167H19.5791C20.0016 74.7167 20.3912 74.491 20.6028 74.1237L21.9799 71.7301L24.2778 70.4452C24.6459 70.2385 24.8765 69.8498 24.8798 69.4257ZM20.5409 69.8284C20.354 69.9339 20.2 70.0862 20.0937 70.2716L19.5847 71.157L19.1128 70.3259C19.0073 70.1406 18.8541 69.9874 18.6688 69.8812L17.8419 69.4125L18.6952 68.9249C18.8797 68.8187 19.0329 68.6655 19.1383 68.4801L19.5666 67.7199L19.9421 68.4011C20.0451 68.588 20.1974 68.7437 20.3811 68.8508L21.3176 69.396L20.5409 69.8284Z" fill="black"/>
</g>
</svg>
