<svg width="40" height="47" viewBox="0 0 40 47" fill="none" xmlns="http://www.w3.org/2000/svg">
<path d="M8.26306 11.3447C4.6964 12.5646 -1.6895 17.9203 0.42106 28.9843C2.53162 40.0483 10.0328 44.8659 12.3525 45.6481C14.6722 46.4304 15.4196 45.3887 16.7828 45.7139C18.1459 46.0392 20.3959 46.6898 21.2827 46.3645C22.1695 46.0392 22.4406 45.5823 24.009 45.6481C25.5774 45.714 28.3037 43.9558 30.484 41.2876C32.6643 38.6194 45.2541 21.2353 31.2469 11.8636C31.2469 11.8636 29.0163 10.1132 25.1514 10.2797C21.8752 10.4191 20.8219 11.9217 17.5224 11.6584C14.9278 11.4492 12.8327 9.78403 8.26306 11.3447V11.3447Z" fill="url(#paint0_radial_938_869)"/>
<path opacity="0.2" d="M25.6674 11.4298C28.7307 11.4298 30.5237 12.7698 30.5353 12.7775C30.5585 12.7969 30.5818 12.8124 30.605 12.8279C33.9664 15.0778 35.9375 18.0055 36.4603 21.5296C36.9715 24.9607 36.166 28.9378 34.0632 33.3448C32.1424 37.3723 29.8421 40.2381 29.5865 40.5517C27.5999 42.9837 25.1872 44.4902 24.0952 44.4902H24.0564C23.9364 44.4863 23.8241 44.4824 23.7195 44.4824C22.5113 44.4824 21.8878 44.7961 21.3882 45.0478C21.214 45.1369 21.0629 45.2105 20.8887 45.2763C20.8887 45.2763 20.8189 45.2957 20.6408 45.2957C19.8973 45.2957 18.6193 44.9781 17.686 44.7458C17.4614 44.6877 17.2484 44.6373 17.0509 44.5909C16.7798 44.525 16.5088 44.494 16.2299 44.494C15.7807 44.494 15.378 44.5792 15.0255 44.6528C14.6886 44.7225 14.3711 44.7922 14.0071 44.7922C13.6159 44.7922 13.1977 44.7148 12.7252 44.556C10.8857 43.9364 3.6014 39.4403 1.56442 28.7752C0.689212 24.1939 1.23912 20.2632 3.20252 17.0916C4.80965 14.4931 7.06737 12.9905 8.63964 12.4522C9.81691 12.0495 10.8896 11.852 11.9197 11.852C13.0815 11.852 14.0225 12.0959 15.0217 12.3515C15.7885 12.549 16.5823 12.7543 17.442 12.8201C17.7286 12.8433 18.0113 12.855 18.2863 12.855C19.8547 12.855 20.9506 12.4871 22.0156 12.1308C22.976 11.8094 23.8822 11.5034 25.2105 11.4453C25.3654 11.4337 25.5164 11.4298 25.6674 11.4298M25.6674 10.2681C25.5009 10.2681 25.3305 10.2719 25.1563 10.2797C22.1434 10.4075 21.0087 11.6893 18.2785 11.6893C18.0423 11.6893 17.7906 11.6777 17.5272 11.6583C15.7381 11.515 14.1891 10.6863 11.9159 10.6863C10.878 10.6863 9.69299 10.8606 8.26013 11.3485C4.69347 12.5684 -1.69243 17.9242 0.41813 28.9882C2.53257 40.056 10.0299 44.8697 12.3496 45.6519C13.0118 45.8766 13.5462 45.9501 14.0032 45.9501C14.9171 45.9501 15.5251 45.6519 16.2261 45.6519C16.4003 45.6519 16.5862 45.6713 16.7798 45.7178C17.8835 45.9811 19.5642 46.4574 20.6369 46.4574C20.8887 46.4574 21.1094 46.4303 21.2798 46.3684C22.1085 46.0624 22.399 45.6442 23.7156 45.6442C23.8086 45.6442 23.9054 45.6481 24.0061 45.6519H24.0913C25.6713 45.6519 28.3395 43.9093 30.4811 41.2875C32.6613 38.6193 45.2511 21.2352 31.244 11.8636C31.2556 11.8636 29.2186 10.2681 25.6674 10.2681V10.2681Z" fill="#424242"/>
<path d="M13.9607 15.8875C13.6393 15.6629 13.4186 15.2098 13.6625 14.9465C13.9026 14.6948 15.3161 14.8226 16.4237 15.0472C16.6986 15.1169 18.6659 15.6552 19.7928 15.6126C20.5519 15.5893 21.4542 15.3764 22.8096 15.0704C24.2425 14.7335 24.2115 14.5631 24.8621 14.5089C25.5049 14.4469 26.14 14.4585 26.2291 14.7877C26.3027 15.0665 25.9387 15.4809 25.5514 15.721C24.0411 16.6621 21.9266 17.2003 19.8006 17.15C17.326 17.0997 15.3006 16.8286 13.9607 15.8875V15.8875Z" fill="url(#paint1_linear_938_869)"/>
<path d="M38.8263 1.83755C37.649 2.36035 36.3091 1.51613 34.9498 1.01656C34.9498 1.01656 32.1383 -0.0174202 28.9976 0.644793C26.8096 1.10563 25.2916 2.26741 24.6022 2.86766C22.3329 4.85043 21.6475 7.52252 21.4229 8.50615C21.4848 8.56812 21.7017 8.92052 21.7327 9.01346C21.7559 9.00959 21.7714 9.00959 21.7946 9.00572C23.4831 8.73077 26.8251 12.5608 32.5217 11.093C38.2183 9.62533 39.9532 1.28764 39.9532 1.28764L39.9997 1.25666C39.9958 1.25279 39.0819 1.72525 38.8263 1.83755V1.83755Z" fill="url(#paint2_linear_938_869)"/>
<path opacity="0.2" d="M31.1857 1.5817C33.0832 1.5817 34.5393 2.10063 34.5509 2.1045C34.8143 2.20131 35.0815 2.31362 35.3681 2.43367C36.2123 2.78995 37.0875 3.16172 38.0247 3.16172C38.0789 3.16172 38.1292 3.16172 38.1834 3.15784C37.3198 5.52013 35.4959 9.12551 32.2351 9.96586C31.4645 10.1634 30.6938 10.2641 29.9426 10.2641C27.7313 10.2641 26.0003 9.40821 24.61 8.72276C23.9245 8.38584 23.3359 8.09153 22.7744 7.9405C23.425 5.79508 24.5209 4.48227 25.369 3.73486C26.1552 3.04554 27.468 2.1471 29.2377 1.77533C29.8535 1.64753 30.5118 1.5817 31.1857 1.5817M31.1857 0.419922C30.5002 0.419922 29.7605 0.481883 28.9976 0.64066C26.8096 1.1015 25.2916 2.26328 24.6022 2.86353C22.3329 4.84629 21.6475 7.51838 21.4229 8.50202C21.4848 8.56398 21.7017 8.91639 21.7327 9.00933C21.7559 9.00546 21.7714 9.00546 21.7946 9.00159C21.8527 8.99384 21.9147 8.98997 21.9766 8.98997C23.425 8.98997 25.9577 11.4297 29.9387 11.4297C30.7403 11.4297 31.6 11.329 32.5217 11.0928C38.2183 9.62507 39.9532 1.28738 39.9532 1.28738L39.9997 1.2564C39.9842 1.2564 39.078 1.72499 38.8263 1.83729C38.5668 1.95347 38.2957 1.99994 38.0208 1.99994C37.0526 1.99994 36.007 1.40356 34.9498 1.01243C34.9498 1.0163 33.3349 0.419922 31.1857 0.419922V0.419922Z" fill="#424242"/>
<path d="M18.9053 13.579C18.9053 13.579 18.9091 13.5596 18.9208 13.5209C18.9285 13.486 18.9401 13.4396 18.9517 13.3737C18.9866 13.1956 19.0408 12.9129 19.1221 12.5489C19.2925 11.8286 19.583 10.7791 20.2452 9.64443C20.5782 9.08291 21.012 8.50202 21.5696 7.98696C21.8484 7.7275 22.1544 7.4874 22.4913 7.27441C22.6578 7.16597 22.8282 7.06916 23.0141 6.97234L23.2658 6.84842L23.5485 6.72062C24.2959 6.3992 25.1208 6.18621 25.9573 6.12037C26.7976 6.05067 27.6302 6.11263 28.4319 6.17072C29.2373 6.23268 30.0196 6.29077 30.7825 6.24042C31.5415 6.19008 32.2773 6.03905 32.9628 5.78346C33.6753 5.53174 34.3143 5.24517 34.9301 4.92761C35.5381 4.61393 36.1035 4.29251 36.6108 3.97108C37.6293 3.33211 38.4348 2.73185 38.9769 2.29038C39.248 2.06577 39.4532 1.88376 39.5849 1.75209C39.7205 1.62042 39.7785 1.54297 39.7785 1.54297L39.8211 1.57395C39.8211 1.57395 39.7631 1.65915 39.6391 1.80243C39.5152 1.94572 39.3216 2.14709 39.066 2.39107C38.5548 2.87901 37.7803 3.53735 36.7889 4.24217C36.2971 4.59844 35.7433 4.9586 35.1392 5.31875C34.5467 5.67502 33.869 6.02743 33.1719 6.32175C32.4632 6.64317 31.6577 6.85229 30.8406 6.94136C30.0196 7.0343 29.1909 7.0072 28.3854 6.98009C27.5838 6.94911 26.7976 6.93749 26.058 7.05367C25.3183 7.15823 24.6251 7.39058 24.0055 7.70814L23.7809 7.82431L23.5408 7.96373C23.4052 8.04505 23.2542 8.13412 23.1225 8.23094C22.8514 8.41682 22.6075 8.62594 22.3867 8.85055C21.9414 9.29203 21.6045 9.78772 21.3411 10.2718C20.8222 11.2516 20.6092 12.1849 20.4892 12.8393C20.4311 13.1685 20.3923 13.4318 20.3652 13.6255C20.3497 13.7223 20.3381 13.7997 20.3149 13.9004C20.2994 13.9585 20.2917 13.9856 20.2917 13.9856L18.9053 13.579Z" fill="#558B2F"/>
<path d="M17.1166 3.79246C16.8494 3.33549 16.6016 3.03343 16.377 2.95211C15.281 2.56097 13.976 3.89315 13.6816 4.2107C14.7776 5.07429 16.0749 4.46629 17.1166 3.79246Z" fill="#42210B"/>
<path d="M20.2606 13.6221C19.8811 11.3373 18.3398 5.90405 17.1161 3.79736C16.0744 4.47119 14.7732 5.07919 13.6811 4.2156C13.6424 4.2582 13.6191 4.28531 13.6191 4.28531C16.1905 7.30206 17.1897 8.48707 18.274 11.5735C19.3893 14.7413 19.6294 16.1006 19.5636 16.5924C19.4939 17.1036 20.3768 16.7279 20.3768 16.7279C20.3768 16.7279 20.7718 16.6737 20.2606 13.6221V13.6221Z" fill="url(#paint3_linear_938_869)"/>
<path opacity="0.2" d="M15.9592 3.69606C15.9979 3.69606 16.0328 3.69993 16.0638 3.70767C16.1102 3.75027 16.2264 3.87807 16.4123 4.20337C17.1055 5.4 17.9536 7.8436 18.5926 10.1052C17.667 7.86684 16.6563 6.58888 14.7316 4.33116C15.146 3.98263 15.6145 3.69606 15.9592 3.69606M15.9592 2.88281C14.9717 2.88281 13.9416 3.93229 13.686 4.21111C13.6473 4.25371 13.624 4.28082 13.624 4.28082C16.1954 7.29757 17.1946 8.48258 18.2789 11.569C19.3942 14.7368 19.6343 16.0961 19.5685 16.5879C19.5413 16.797 19.6691 16.8551 19.8318 16.8551C20.0719 16.8551 20.3856 16.7235 20.3856 16.7235C20.3856 16.7235 20.7767 16.6731 20.2655 13.6215C19.886 11.3367 18.3447 5.90343 17.121 3.79674C16.8538 3.33978 16.6059 3.03772 16.3813 2.95639C16.2419 2.90605 16.0986 2.88281 15.9592 2.88281V2.88281Z" fill="#424242"/>
<defs>
<radialGradient id="paint0_radial_938_869" cx="0" cy="0" r="1" gradientUnits="userSpaceOnUse" gradientTransform="translate(11.9533 22.999) rotate(29.3406) scale(21.0012 21.2327)">
<stop offset="0.1065" stop-color="#F4877F"/>
<stop offset="0.1898" stop-color="#F37B74"/>
<stop offset="0.3399" stop-color="#EF5C56"/>
<stop offset="0.5381" stop-color="#EA2927"/>
<stop offset="0.6654" stop-color="#E60505"/>
<stop offset="0.9203" stop-color="#B80404"/>
<stop offset="1" stop-color="#B71C1C"/>
</radialGradient>
<linearGradient id="paint1_linear_938_869" x1="13.4085" y1="15.8163" x2="26.0912" y2="15.8163" gradientUnits="userSpaceOnUse">
<stop stop-color="#E60505" stop-opacity="0"/>
<stop offset="0.5498" stop-color="#42210B"/>
<stop offset="1" stop-color="#E60505" stop-opacity="0"/>
</linearGradient>
<linearGradient id="paint2_linear_938_869" x1="21.6379" y1="5.32127" x2="39.6415" y2="6.5357" gradientUnits="userSpaceOnUse">
<stop offset="0.1235" stop-color="#689F38"/>
<stop offset="0.3217" stop-color="#73A743"/>
<stop offset="0.6685" stop-color="#8EBD60"/>
<stop offset="0.9927" stop-color="#AED581"/>
</linearGradient>
<linearGradient id="paint3_linear_938_869" x1="15.3866" y1="3.63278" x2="19.6701" y2="16.6129" gradientUnits="userSpaceOnUse">
<stop offset="1.5563e-05" stop-color="#8C6239"/>
<stop offset="0.992" stop-color="#603813"/>
</linearGradient>
</defs>
</svg>
