<svg width="241" height="35" viewBox="0 0 241 35" fill="none" xmlns="http://www.w3.org/2000/svg">
<path d="M44.6885 8.63031H48.6188V24.2268H44.6885V8.63031ZM57.0825 8.63031H60.9921V24.2268H57.0825V8.63031ZM46.872 14.5986H58.7462V18.0506H46.872V14.5986Z" fill="black"/>
<path d="M74.3812 24.2268L73.8613 19.9222L74.4228 18.3002L73.8613 16.6989L74.3812 12.3735H78.3947L77.6669 18.3002L78.3947 24.2268H74.3812ZM75.3378 18.3002C75.1298 19.5617 74.7347 20.6639 74.1524 21.6066C73.5702 22.5355 72.8354 23.2633 71.9481 23.7901C71.0609 24.3031 70.0627 24.5596 68.9536 24.5596C67.7891 24.5596 66.7632 24.2962 65.8759 23.7693C65.0025 23.2425 64.3162 22.5147 63.8171 21.5858C63.3181 20.6431 63.0685 19.5479 63.0685 18.3002C63.0685 17.0524 63.3181 15.9641 63.8171 15.0353C64.3162 14.0926 65.0025 13.3578 65.8759 12.831C66.7632 12.3042 67.7891 12.0408 68.9536 12.0408C70.0627 12.0408 71.0609 12.3042 71.9481 12.831C72.8354 13.3439 73.5702 14.0648 74.1524 14.9937C74.7486 15.9226 75.1437 17.0247 75.3378 18.3002ZM66.978 18.3002C66.978 18.9379 67.1097 19.5063 67.3732 20.0054C67.6366 20.4906 67.997 20.8788 68.4545 21.1699C68.9259 21.4472 69.4666 21.5858 70.0766 21.5858C70.6866 21.5858 71.2619 21.4472 71.8026 21.1699C72.3571 20.8788 72.8423 20.4906 73.2582 20.0054C73.6742 19.5063 73.9861 18.9379 74.194 18.3002C73.9861 17.6624 73.6742 17.101 73.2582 16.6157C72.8423 16.1166 72.3571 15.7285 71.8026 15.4512C71.2619 15.1601 70.6866 15.0145 70.0766 15.0145C69.4666 15.0145 68.9259 15.1601 68.4545 15.4512C67.997 15.7285 67.6366 16.1166 67.3732 16.6157C67.1097 17.101 66.978 17.6624 66.978 18.3002Z" fill="black"/>
<path d="M80.5867 12.3735H84.4338V15.9503L84.2882 16.4494V19.5271L84.4338 20.4421V27.6581H80.5867V12.3735ZM83.1653 18.3002C83.3733 17.0247 83.7684 15.9226 84.3506 14.9937C84.9329 14.0648 85.6677 13.3439 86.5549 12.831C87.4561 12.3042 88.4543 12.0408 89.5495 12.0408C90.714 12.0408 91.733 12.3042 92.6064 12.831C93.4937 13.3578 94.1869 14.0926 94.6859 15.0353C95.185 15.9641 95.4346 17.0524 95.4346 18.3002C95.4346 19.5479 95.185 20.6431 94.6859 21.5858C94.1869 22.5147 93.4937 23.2425 92.6064 23.7693C91.733 24.2962 90.714 24.5596 89.5495 24.5596C88.4404 24.5596 87.4422 24.3031 86.5549 23.7901C85.6815 23.2633 84.9468 22.5355 84.3506 21.6066C83.7684 20.6639 83.3733 19.5617 83.1653 18.3002ZM91.525 18.3002C91.525 17.6624 91.3933 17.101 91.1299 16.6157C90.8665 16.1166 90.4991 15.7285 90.0278 15.4512C89.5703 15.1601 89.0365 15.0145 88.4265 15.0145C87.8165 15.0145 87.2343 15.1601 86.6797 15.4512C86.139 15.7285 85.6607 16.1166 85.2448 16.6157C84.8428 17.101 84.5309 17.6624 84.309 18.3002C84.5309 18.9379 84.8428 19.5063 85.2448 20.0054C85.6607 20.4906 86.139 20.8788 86.6797 21.1699C87.2343 21.4472 87.8165 21.5858 88.4265 21.5858C89.0365 21.5858 89.5703 21.4472 90.0278 21.1699C90.4991 20.8788 90.8665 20.4906 91.1299 20.0054C91.3933 19.5063 91.525 18.9379 91.525 18.3002Z" fill="black"/>
<path d="M97.3814 12.3735H101.229V15.9503L101.083 16.4494V19.5271L101.229 20.4421V27.6581H97.3814V12.3735ZM99.96 18.3002C100.168 17.0247 100.563 15.9226 101.145 14.9937C101.728 14.0648 102.462 13.3439 103.35 12.831C104.251 12.3042 105.249 12.0408 106.344 12.0408C107.509 12.0408 108.528 12.3042 109.401 12.831C110.288 13.3578 110.982 14.0926 111.481 15.0353C111.98 15.9641 112.229 17.0524 112.229 18.3002C112.229 19.5479 111.98 20.6431 111.481 21.5858C110.982 22.5147 110.288 23.2425 109.401 23.7693C108.528 24.2962 107.509 24.5596 106.344 24.5596C105.235 24.5596 104.237 24.3031 103.35 23.7901C102.476 23.2633 101.741 22.5355 101.145 21.6066C100.563 20.6639 100.168 19.5617 99.96 18.3002ZM108.32 18.3002C108.32 17.6624 108.188 17.101 107.925 16.6157C107.661 16.1166 107.294 15.7285 106.822 15.4512C106.365 15.1601 105.831 15.0145 105.221 15.0145C104.611 15.0145 104.029 15.1601 103.474 15.4512C102.934 15.7285 102.455 16.1166 102.04 16.6157C101.638 17.101 101.326 17.6624 101.104 18.3002C101.326 18.9379 101.638 19.5063 102.04 20.0054C102.455 20.4906 102.934 20.8788 103.474 21.1699C104.029 21.4472 104.611 21.5858 105.221 21.5858C105.831 21.5858 106.365 21.4472 106.822 21.1699C107.294 20.8788 107.661 20.4906 107.925 20.0054C108.188 19.5063 108.32 18.9379 108.32 18.3002Z" fill="black"/>
<path d="M117.145 27.9908C116.313 27.9908 115.571 27.8868 114.92 27.6789C114.282 27.4709 113.658 27.159 113.048 26.7431V24.0189C113.672 24.4209 114.254 24.7051 114.795 24.8715C115.349 25.0517 115.952 25.1418 116.604 25.1418C117.186 25.1418 117.692 25.0171 118.122 24.7675C118.566 24.518 118.933 24.0605 119.224 23.395L123.966 12.3735H128.062L122.26 24.6012C121.872 25.433 121.408 26.0984 120.867 26.5975C120.326 27.0966 119.737 27.4501 119.099 27.6581C118.476 27.8799 117.824 27.9908 117.145 27.9908ZM117.602 23.2911L112.466 12.3735H116.708L121.325 23.2911H117.602Z" fill="black"/>
<path d="M132.961 10.3563H136.891V24.2268H132.961V10.3563ZM126.889 8.63031H142.964V12.1031H126.889V8.63031Z" fill="black"/>
<path d="M148.455 24.5596C146.958 24.5596 145.648 24.2962 144.525 23.7693C143.402 23.2425 142.529 22.5078 141.905 21.565C141.281 20.6223 140.969 19.534 140.969 18.3002C140.969 17.0524 141.281 15.9641 141.905 15.0353C142.529 14.0926 143.402 13.3578 144.525 12.831C145.662 12.3042 146.972 12.0408 148.455 12.0408C149.953 12.0408 151.263 12.3042 152.386 12.831C153.509 13.3578 154.382 14.0926 155.006 15.0353C155.644 15.9641 155.962 17.0524 155.962 18.3002C155.962 19.5479 155.644 20.6431 155.006 21.5858C154.382 22.5147 153.509 23.2425 152.386 23.7693C151.263 24.2962 149.953 24.5596 148.455 24.5596ZM148.455 21.6482C149.218 21.6482 149.862 21.5165 150.389 21.2531C150.93 20.9758 151.339 20.5877 151.616 20.0886C151.907 19.5895 152.053 18.9933 152.053 18.3002C152.053 17.607 151.907 17.0108 151.616 16.5118C151.339 15.9988 150.93 15.6106 150.389 15.3472C149.862 15.0699 149.218 14.9313 148.455 14.9313C147.721 14.9313 147.083 15.0699 146.542 15.3472C146.001 15.6106 145.586 15.9988 145.294 16.5118C145.003 17.0108 144.858 17.607 144.858 18.3002C144.858 18.9933 145.003 19.5895 145.294 20.0886C145.586 20.5877 146.001 20.9758 146.542 21.2531C147.083 21.5165 147.721 21.6482 148.455 21.6482Z" fill="black"/>
<path d="M165.578 8.63031C167.408 8.63031 169.009 8.9561 170.381 9.60769C171.754 10.2593 172.821 11.1673 173.584 12.3319C174.36 13.4964 174.748 14.862 174.748 16.4286C174.748 17.9813 174.36 19.3469 173.584 20.5253C172.821 21.6898 171.754 22.5979 170.381 23.2495C169.009 23.9011 167.408 24.2268 165.578 24.2268H157.966V8.63031H165.578ZM161.876 22.6256L159.963 20.754H165.869C166.867 20.754 167.733 20.5738 168.468 20.2133C169.203 19.8529 169.771 19.3538 170.173 18.7161C170.575 18.0645 170.776 17.302 170.776 16.4286C170.776 15.5413 170.575 14.7788 170.173 14.1411C169.771 13.5034 169.203 13.0043 168.468 12.6438C167.733 12.2834 166.867 12.1031 165.869 12.1031H159.963L161.876 10.2316V22.6256Z" fill="black"/>
<path d="M183.629 24.5596C182.131 24.5596 180.821 24.2962 179.698 23.7693C178.575 23.2425 177.702 22.5078 177.078 21.565C176.454 20.6223 176.142 19.534 176.142 18.3002C176.142 17.0524 176.454 15.9641 177.078 15.0353C177.702 14.0926 178.575 13.3578 179.698 12.831C180.835 12.3042 182.145 12.0408 183.629 12.0408C185.126 12.0408 186.436 12.3042 187.559 12.831C188.682 13.3578 189.555 14.0926 190.179 15.0353C190.817 15.9641 191.136 17.0524 191.136 18.3002C191.136 19.5479 190.817 20.6431 190.179 21.5858C189.555 22.5147 188.682 23.2425 187.559 23.7693C186.436 24.2962 185.126 24.5596 183.629 24.5596ZM183.629 21.6482C184.391 21.6482 185.036 21.5165 185.563 21.2531C186.103 20.9758 186.512 20.5877 186.79 20.0886C187.081 19.5895 187.226 18.9933 187.226 18.3002C187.226 17.607 187.081 17.0108 186.79 16.5118C186.512 15.9988 186.103 15.6106 185.563 15.3472C185.036 15.0699 184.391 14.9313 183.629 14.9313C182.894 14.9313 182.256 15.0699 181.716 15.3472C181.175 15.6106 180.759 15.9988 180.468 16.5118C180.177 17.0108 180.031 17.607 180.031 18.3002C180.031 18.9933 180.177 19.5895 180.468 20.0886C180.759 20.5877 181.175 20.9758 181.716 21.2531C182.256 21.5165 182.894 21.6482 183.629 21.6482Z" fill="black"/>
<path d="M197.07 8.63031V22.48L195.303 20.754H206.99V24.2268H193.14V8.63031H197.07Z" fill="black"/>
<path d="M208.608 12.2071L210.521 12.6022L212.455 12.2071V24.2268H208.608V12.2071ZM210.542 11.1258C209.863 11.1258 209.308 10.9525 208.879 10.6059C208.449 10.2454 208.234 9.77405 208.234 9.19178C208.234 8.59565 208.449 8.12429 208.879 7.7777C209.308 7.43111 209.863 7.25781 210.542 7.25781C211.235 7.25781 211.79 7.43111 212.206 7.7777C212.622 8.12429 212.83 8.59565 212.83 9.19178C212.83 9.77405 212.622 10.2454 212.206 10.6059C211.79 10.9525 211.235 11.1258 210.542 11.1258Z" fill="black"/>
<path d="M228.295 20.4213C228.295 21.3086 228.032 22.0641 227.505 22.688C226.992 23.298 226.236 23.7624 225.238 24.0813C224.24 24.4001 223.027 24.5596 221.599 24.5596C220.143 24.5596 218.868 24.3793 217.773 24.0189C216.677 23.6584 215.825 23.1524 215.215 22.5008C214.605 21.8492 214.279 21.0937 214.237 20.2341H218.168C218.251 20.5807 218.445 20.8857 218.75 21.1491C219.069 21.4125 219.478 21.6136 219.977 21.7522C220.476 21.877 221.065 21.9394 221.744 21.9394C222.659 21.9394 223.353 21.8423 223.824 21.6482C224.295 21.4541 224.531 21.163 224.531 20.7748C224.531 20.4837 224.358 20.2619 224.011 20.1094C223.678 19.9569 223.075 19.846 222.202 19.7766L220.039 19.6103C218.681 19.4994 217.599 19.2845 216.795 18.9656C215.991 18.6329 215.416 18.21 215.069 17.6971C214.736 17.1841 214.57 16.6088 214.57 15.9711C214.57 15.0977 214.84 14.3768 215.381 13.8084C215.936 13.2261 216.698 12.7894 217.669 12.4982C218.639 12.1932 219.776 12.0408 221.079 12.0408C222.382 12.0408 223.54 12.214 224.552 12.5606C225.578 12.9072 226.396 13.3855 227.006 13.9955C227.63 14.6055 227.983 15.3195 228.066 16.1374H224.136C224.08 15.8602 223.928 15.6037 223.678 15.368C223.443 15.1323 223.096 14.9452 222.639 14.8065C222.195 14.654 221.613 14.5778 220.892 14.5778C220.074 14.5778 219.45 14.6679 219.02 14.8481C218.59 15.0284 218.376 15.2918 218.376 15.6384C218.376 15.9018 218.507 16.1166 218.771 16.283C219.034 16.4355 219.533 16.5395 220.268 16.5949L223.075 16.8029C224.406 16.9138 225.446 17.1287 226.195 17.4476C226.957 17.7525 227.498 18.1546 227.817 18.6537C228.136 19.1528 228.295 19.742 228.295 20.4213Z" fill="black"/>
<path d="M228.91 15.2432V13.5588L231.364 12.6646L233.006 9.21258H235.232V12.3735H240.347V15.2432H235.232V19.1528C235.232 20.04 235.412 20.6639 235.772 21.0244C236.133 21.3709 236.777 21.5442 237.706 21.5442C238.288 21.5442 238.808 21.4957 239.266 21.3987C239.723 21.2878 240.153 21.1422 240.555 20.962V23.8941C240.139 24.0605 239.592 24.213 238.912 24.3516C238.247 24.4903 237.554 24.5596 236.833 24.5596C235.571 24.5596 234.531 24.3586 233.713 23.9565C232.909 23.5545 232.313 22.993 231.925 22.2721C231.551 21.5373 231.364 20.6778 231.364 19.6935V15.2432H228.91Z" fill="black"/>
<path d="M2.55666 20.0361C-0.112169 19.3027 -0.112811 15.518 2.55577 14.7837L10.658 12.5542C11.609 12.2925 12.3442 11.537 12.5801 10.5793L14.5454 2.59755C15.2258 -0.165804 19.1544 -0.165808 19.8348 2.59754L21.8002 10.5792C22.036 11.537 22.7713 12.2924 23.7224 12.5541L31.8261 14.7836C34.4948 15.5179 34.4942 19.3028 31.8252 20.0362L23.7231 22.2623C22.7716 22.5237 22.0359 23.2793 21.8 24.2375L19.8348 32.2185C19.1544 34.9819 15.2258 34.9819 14.5454 32.2185L12.5802 24.2374C12.3443 23.2793 11.6087 22.5237 10.6572 22.2623L2.55666 20.0361Z" fill="url(#paint0_linear_911_4)"/>
<defs>
<linearGradient id="paint0_linear_911_4" x1="8.5" y1="5.5" x2="30.1167" y2="18.4225" gradientUnits="userSpaceOnUse">
<stop offset="0.0875082" stop-color="#FF9476"/>
<stop offset="0.523069" stop-color="#EA69D8"/>
<stop offset="0.92591" stop-color="#57B7FF"/>
</linearGradient>
</defs>
</svg>
