<svg width="15" height="16" viewBox="0 0 15 16" fill="none" xmlns="http://www.w3.org/2000/svg">
<path fill-rule="evenodd" clip-rule="evenodd" d="M14.5619 0.857978C15.146 1.44205 15.146 2.38903 14.5619 2.9731L9.61499 7.91993L14.5619 12.8667C15.146 13.4508 15.146 14.3978 14.5619 14.9819C13.9778 15.5659 13.0308 15.5659 12.4468 14.9819L7.49982 10.0351L2.55325 14.9815C1.96916 15.5656 1.02217 15.5656 0.43808 14.9815C-0.146009 14.3974 -0.146009 13.4505 0.43808 12.8664L5.38464 7.91993L0.438067 2.97347C-0.146022 2.38939 -0.146022 1.44242 0.438067 0.858347C1.02216 0.274272 1.96915 0.274272 2.55324 0.858347L7.49982 5.8048L12.4468 0.857978C13.0308 0.273903 13.9778 0.273903 14.5619 0.857978Z" fill="url(#paint0_linear_966_475)"/>
<defs>
<linearGradient id="paint0_linear_966_475" x1="0.806962" y1="0.419922" x2="16.9163" y2="5.04746" gradientUnits="userSpaceOnUse">
<stop stop-color="#FF9476"/>
<stop offset="0.488552" stop-color="#EA69D8"/>
<stop offset="1" stop-color="#57B7FF"/>
</linearGradient>
</defs>
</svg>
