<svg width="8" height="30" viewBox="0 0 8 30" fill="none" xmlns="http://www.w3.org/2000/svg">
<path d="M8 4C8 6.20914 6.20914 8 4 8C1.79086 8 0 6.20914 0 4C0 1.79086 1.79086 0 4 0C6.20914 0 8 1.79086 8 4Z" fill="url(#paint0_linear_938_470)"/>
<path d="M8 15C8 17.2091 6.20914 19 4 19C1.79086 19 0 17.2091 0 15C0 12.7909 1.79086 11 4 11C6.20914 11 8 12.7909 8 15Z" fill="url(#paint1_linear_938_470)"/>
<path d="M8 26C8 28.2091 6.20914 30 4 30C1.79086 30 0 28.2091 0 26C0 23.7909 1.79086 22 4 22C6.20914 22 8 23.7909 8 26Z" fill="url(#paint2_linear_938_470)"/>
<defs>
<linearGradient id="paint0_linear_938_470" x1="4" y1="-0.499999" x2="12.8989" y2="2.30905" gradientUnits="userSpaceOnUse">
<stop stop-color="#FF9476"/>
<stop offset="0.488552" stop-color="#EA69D8"/>
<stop offset="1" stop-color="#57B7FF"/>
</linearGradient>
<linearGradient id="paint1_linear_938_470" x1="4" y1="-0.499999" x2="12.8989" y2="2.30905" gradientUnits="userSpaceOnUse">
<stop stop-color="#FF9476"/>
<stop offset="0.488552" stop-color="#EA69D8"/>
<stop offset="1" stop-color="#57B7FF"/>
</linearGradient>
<linearGradient id="paint2_linear_938_470" x1="4" y1="-0.499999" x2="12.8989" y2="2.30905" gradientUnits="userSpaceOnUse">
<stop stop-color="#FF9476"/>
<stop offset="0.488552" stop-color="#EA69D8"/>
<stop offset="1" stop-color="#57B7FF"/>
</linearGradient>
</defs>
</svg>
