<svg width="50" height="50" viewBox="0 0 50 50" fill="none" xmlns="http://www.w3.org/2000/svg">
<path d="M15.5171 11.7397L15.2427 11.4653C14.8266 11.0491 14.8266 10.3722 15.2427 9.95608L18.8007 6.39806C19.2169 5.9819 19.8938 5.9819 20.3099 6.39806L20.5843 6.67246C21.0005 7.08863 21.0005 7.76548 20.5843 8.18165L17.0263 11.7397C16.6147 12.1558 15.9333 12.1558 15.5171 11.7397Z" fill="#757575"/>
<path d="M23.804 12.6303L23.5296 12.3559C23.1134 11.9397 23.1134 11.2629 23.5296 10.8467L27.0876 7.28869C27.5038 6.87252 28.1806 6.87252 28.5968 7.28869L28.8712 7.56309C29.2873 7.97926 29.2873 8.6561 28.8712 9.07227L25.3132 12.6303C24.9016 13.0465 24.2201 13.0465 23.804 12.6303V12.6303Z" fill="#757575"/>
<path d="M38.2737 34.5883L38.5481 34.8627C38.9643 35.2789 39.6411 35.2789 40.0573 34.8627L43.6153 31.3047C44.0315 30.8885 44.0315 30.2117 43.6153 29.7955L43.3409 29.5211C42.9248 29.1049 42.2479 29.1049 41.8318 29.5211L38.2737 33.0791C37.8576 33.4953 37.8576 34.1721 38.2737 34.5883Z" fill="#757575"/>
<path d="M37.3821 26.3012L37.6565 26.5756C38.0726 26.9918 38.7495 26.9918 39.1657 26.5756L42.7237 23.0176C43.1398 22.6014 43.1398 21.9246 42.7237 21.5084L42.4493 21.234C42.0331 20.8178 41.3563 20.8178 40.9401 21.234L37.3821 24.792C36.9659 25.2082 36.9659 25.885 37.3821 26.3012V26.3012Z" fill="#757575"/>
<path d="M33.545 11.0085C33.545 11.0085 7.26695 8.01758 4.11138 8.01758C1.49546 8.01758 0 10.2173 0 10.2173C0 10.2173 15.0232 13.8119 19.8435 14.9598C24.6637 16.1077 27.1836 17.3608 27.1836 17.3608L33.545 11.0085Z" fill="#039BE5"/>
<path opacity="0.2" d="M4.11138 9.09687C6.65413 9.09687 25.8345 11.2143 32.4246 11.9506L28.0434 16.4004C26.7537 15.8882 23.7765 14.786 20.095 13.908C16.3541 13.0162 6.4712 10.6518 2.23176 9.63652C2.73482 9.33468 3.37051 9.09687 4.11138 9.09687M4.11138 8.01758C1.49546 8.01758 0 10.2173 0 10.2173C0 10.2173 15.0232 13.8119 19.8435 14.9598C24.6637 16.1077 28.3041 17.6764 28.3041 17.6764L34.757 11.1274C34.7615 11.1228 7.26695 8.01758 4.11138 8.01758V8.01758Z" fill="#424242"/>
<path d="M38.905 16.3633C38.905 16.3633 41.896 42.6414 41.896 45.7969C41.896 48.4129 39.6962 49.9083 39.6962 49.9083C39.6962 49.9083 36.1016 34.8851 34.9537 30.0648C33.8058 25.2446 32.5527 22.7247 32.5527 22.7247L38.905 16.3633Z" fill="#039BE5"/>
<path d="M18.188 45.9107L17.0766 47.2598C16.6788 47.74 15.9562 47.6805 15.6361 47.1363L11.575 40.2307C11.36 39.8648 11.4103 39.3892 11.6939 39.0782L15.3983 35.0857C15.9105 34.5323 16.8068 34.8296 16.9257 35.5933L18.3938 45.1424C18.4349 45.4213 18.3617 45.7003 18.188 45.9107V45.9107Z" fill="#039BE5"/>
<path opacity="0.2" d="M15.9105 36.1244L17.319 45.2664L16.4272 46.3503L12.5491 39.751L15.9105 36.1244ZM16.0339 34.8027C15.8098 34.8027 15.5766 34.8942 15.3982 35.0863L11.6939 39.0788C11.4058 39.3897 11.3555 39.8654 11.575 40.2312L15.6361 47.1369C15.8098 47.4296 16.1025 47.5851 16.3998 47.5851C16.6468 47.5851 16.8983 47.4799 17.0766 47.2604L18.1879 45.9112C18.3617 45.7009 18.4395 45.4173 18.3937 45.1429L16.9257 35.5939C16.848 35.1 16.4455 34.8027 16.0339 34.8027Z" fill="#424242"/>
<path d="M4.30803 31.912L2.95891 33.0233C2.47872 33.4212 2.53817 34.1438 3.08239 34.4639L9.98805 38.525C10.3539 38.74 10.8295 38.6897 11.1405 38.4061L15.133 34.7017C15.6864 34.1895 15.3891 33.2932 14.6254 33.1743L5.07634 31.7062C4.79737 31.6605 4.5184 31.7383 4.30803 31.912V31.912Z" fill="#039BE5"/>
<path opacity="0.2" d="M4.95286 32.7818L14.0949 34.1904L10.4682 37.5563L3.87357 33.6736L4.95286 32.7818ZM4.92543 31.6934C4.70133 31.6934 4.48182 31.7711 4.30803 31.9129L2.95891 33.0242C2.47872 33.4221 2.53817 34.1446 3.08239 34.4648L9.98805 38.5258C10.139 38.6173 10.3128 38.6585 10.482 38.6585C10.7198 38.6585 10.9576 38.5716 11.1405 38.4024L15.133 34.698C15.6864 34.1858 15.3891 33.2894 14.6254 33.1705L5.07634 31.7025C5.02604 31.6979 4.97573 31.6934 4.92543 31.6934V31.6934Z" fill="#424242"/>
<path opacity="0.2" d="M37.8622 16.6737C38.6213 23.4605 40.8119 43.2537 40.8119 45.7964C40.8119 46.5373 40.5741 47.173 40.2723 47.676C39.257 43.4366 36.8926 33.5492 36.0008 29.8128C35.1045 26.0581 33.8057 22.8111 33.2203 21.4437L37.8622 16.6737ZM38.6808 14.2773L31.9398 21.2104C31.9398 21.2104 33.8011 25.2441 34.9536 30.0643C36.1015 34.8846 39.6961 49.9078 39.6961 49.9078C39.6961 49.9078 41.8958 48.4078 41.8958 45.7964C41.8958 42.6409 38.6808 14.2773 38.6808 14.2773V14.2773Z" fill="#424242"/>
<path d="M48.9936 1.00189C47.3701 -0.621624 43.8487 -0.319787 41.2419 2.28699C38.6031 4.92577 14.5797 30.1063 14.5797 30.1063C14.5797 30.1063 10.4774 34.428 11.4835 38.512C15.5675 39.5227 19.8892 35.4159 19.8892 35.4159C19.8892 35.4159 45.1063 11.3558 47.7085 8.75361C50.3153 6.14684 50.6171 2.62998 48.9936 1.00189V1.00189Z" fill="url(#paint0_linear_1029_1499)"/>
<path d="M47.3471 7.08002C48.1612 6.17451 48.5179 4.56472 46.9767 3.02352C45.4355 1.48232 43.8211 1.83904 42.9202 2.65308C42.7876 2.77199 42.4491 3.02352 42.536 3.23389C42.6138 3.43054 42.9979 3.45798 43.1672 3.47627C44.0406 3.57231 44.8227 3.97934 45.4172 4.58301C46.0163 5.17754 46.4279 5.96414 46.5239 6.83307C46.5422 7.00228 46.5697 7.38643 46.7663 7.46418C46.9767 7.55107 47.2282 7.21265 47.3471 7.08002V7.08002Z" fill="#4FC3F7"/>
<path opacity="0.2" d="M46.2724 0.914657C47.1368 0.914657 47.8731 1.17533 48.3487 1.64638C49.5698 2.86745 49.3457 5.82179 47.0636 8.10386C44.498 10.6695 19.5141 34.5146 19.2626 34.7524C19.2306 34.7844 16.0476 37.757 12.828 37.757C12.6405 37.757 12.453 37.7479 12.27 37.725C11.8813 34.3408 15.2061 30.7736 15.2427 30.7371C15.4851 30.4855 39.289 5.53368 41.8912 2.93605C43.1534 1.66925 44.7907 0.914657 46.2724 0.914657M46.2724 0C44.6672 0 42.7922 0.736299 41.2464 2.28664C38.6076 4.92543 14.5841 30.1059 14.5841 30.1059C14.5841 30.1059 10.4819 34.4277 11.488 38.5116C11.9362 38.6214 12.3844 38.6717 12.8326 38.6717C16.4683 38.6717 19.8937 35.4155 19.8937 35.4155C19.8937 35.4155 45.1108 11.3555 47.713 8.75327C50.3198 6.1465 50.6262 2.62964 48.9981 1.00155C48.335 0.342997 47.3654 0 46.2724 0V0Z" fill="#424242"/>
<path d="M15.3215 36.4906C18.0933 33.7188 19.9551 31.0867 19.4801 30.6116C19.005 30.1366 16.3729 31.9984 13.6011 34.7703C10.8293 37.5421 8.96739 40.1742 9.44246 40.6492C9.91753 41.1243 12.5496 39.2624 15.3215 36.4906Z" fill="#616161"/>
<defs>
<linearGradient id="paint0_linear_1029_1499" x1="21.3536" y1="29.6938" x2="47.4204" y2="2.36839" gradientUnits="userSpaceOnUse">
<stop offset="0.0062124" stop-color="#BDBDBD"/>
<stop offset="0.0936" stop-color="#C4C4C4"/>
<stop offset="0.4215" stop-color="#DBDBDB"/>
<stop offset="0.7308" stop-color="#E9E9E9"/>
<stop offset="1" stop-color="#EEEEEE"/>
</linearGradient>
</defs>
</svg>
