<svg width="50" height="51" viewBox="0 0 50 51" fill="none" xmlns="http://www.w3.org/2000/svg">
<path d="M45.9147 20.172C47.5146 18.7089 51.3414 11.4276 44.2236 4.90633C41.8294 2.70978 36.414 0.357422 30.2994 0.357422C21.023 0.357422 9.19661 5.07354 4.5983 15.6344C-2.02554 30.8355 10.4811 45.9605 25.8189 45.9605C32.8836 45.9605 40.6209 41.6054 43.7675 37.1895C43.9651 36.9121 44.1818 36.6499 44.387 36.38C45.1622 35.373 46.6709 32.5722 41.5976 30.4364C39.344 29.4864 39.0666 27.2974 39.344 26.2068C40.1763 22.9119 43.0113 22.8283 45.9147 20.172V20.172ZM34.5633 36.6575C32.1045 37.4935 29.5584 36.5663 28.8743 34.5825C28.1903 32.6026 29.6268 30.3186 32.0855 29.4826C34.5443 28.6465 37.0905 29.5738 37.7745 31.5575C38.4586 33.5374 37.0221 35.8214 34.5633 36.6575Z" fill="url(#paint0_radial_1029_1316)"/>
<path opacity="0.2" d="M12.9779 36.6232C15.5818 34.4862 17.2588 32.225 16.7236 31.5728C16.1883 30.9206 13.6435 32.1243 11.0396 34.2614C8.43561 36.3984 6.75862 38.6596 7.29388 39.3118C7.82914 39.964 10.374 38.7603 12.9779 36.6232Z" fill="#FFA726"/>
<path opacity="0.2" d="M5.66998 37.5086C5.66998 37.5086 14.8096 28.3386 17.8574 29.8663C20.9052 31.394 10.2417 40.564 10.2417 40.564H8.71779L10.2417 42.0917C10.2417 42.0917 23.9492 31.394 22.4291 26.8071C20.909 22.2202 5.49517 35.4375 4.4729 36.0341L5.66998 37.5086Z" fill="#FFA726"/>
<path opacity="0.2" d="M1.83557 32.0958C1.83557 32.0958 14.5854 21.9111 27.1415 20.7026C27.1415 20.7026 31.1355 19.8133 30.2501 22.8649C29.3608 25.9203 24.7967 36.7397 13.4415 44.1844L12.1115 43.2305C12.1115 43.2305 31.5194 29.675 25.2413 23.4996C25.2413 23.4996 24.5421 22.3557 20.4226 24.0088C16.3031 25.6619 2.40561 35.022 2.40561 35.022L1.83557 32.0958V32.0958Z" fill="#FFA726"/>
<path opacity="0.2" d="M0 28.6765C0 28.6765 9.18522 22.1932 19.6169 18.7578C30.0486 15.3224 34.2517 8.60352 34.2517 8.60352C34.2517 8.60352 34.3277 14.6953 17.9828 21.1026C1.63791 27.5098 1.40229 30.7096 1.40229 30.7096L0 28.6765V28.6765Z" fill="#FFA726"/>
<path opacity="0.2" d="M26.1724 0.159611C26.1724 0.159611 11.3818 17.656 3.67488 13.5935L2.27258 16.3259C2.27258 16.3259 15.2733 17.9676 28.1143 0L26.1724 0.159611V0.159611Z" fill="#FFA726"/>
<path opacity="0.2" d="M1.42502 20.4225C1.42502 20.4225 12.556 18.8606 19.1722 14.4067C25.7885 9.95279 29.1327 1.99126 39.4884 2.37888L41.5899 3.23774C41.5899 3.23774 34.8179 1.75184 29.2125 8.39469C23.6071 15.0375 22.2086 15.581 17.2265 17.3785C12.2443 19.176 0.334351 21.8286 0.334351 21.8286L1.42502 20.4225V20.4225Z" fill="#FFA726"/>
<path opacity="0.2" d="M46.3822 6.53516C46.3822 6.53516 38.4054 11.0803 35.9429 14.1471C35.9429 14.1471 45.5955 9.30554 48.4533 9.89838L46.3822 6.53516Z" fill="#FFA726"/>
<path opacity="0.2" d="M48.4724 12.2109C48.4724 12.2109 33.5525 17.6187 29.9537 27.3664C26.3549 37.114 21.5513 40.0706 20.4569 40.6178C19.3662 41.1651 13.3618 46.4208 13.2516 46.8617L17.7283 47.7395C17.7283 47.7395 27.7686 39.1965 28.8592 33.2834C29.9499 27.3702 35.6959 19.1198 50.0001 12.8684L48.4724 12.2109Z" fill="#FFA726"/>
<path opacity="0.2" d="M32.4846 35.293C32.4846 35.293 28.445 44.9304 21.0231 50.9538C21.0231 50.9538 29.5356 47.0092 34.8864 36.167L32.4846 35.293Z" fill="#FFA726"/>
<path opacity="0.2" d="M41.9054 30.5196C41.9054 30.5196 38.7284 43.4481 32.9862 46.6441C32.9862 46.6441 40.9287 45.9486 44.5922 30.1016L41.9054 30.5196Z" fill="#FFA726"/>
<path opacity="0.2" d="M30.2994 1.4975C35.8896 1.4975 41.1492 3.63704 43.4559 5.74998C45.9717 8.05674 47.2486 10.6523 47.2448 13.4683C47.241 16.4249 45.8045 18.7355 45.147 19.3321C44.1742 20.2214 43.2127 20.7952 42.2778 21.35C40.5335 22.3913 38.8842 23.3756 38.242 25.9293C37.8467 27.5026 38.2952 30.2806 41.1606 31.4891C42.8175 32.1884 43.8093 32.9978 44.0298 33.8377C44.2274 34.5825 43.7751 35.316 43.4901 35.6846C43.4255 35.7682 43.3609 35.848 43.2963 35.9316C43.1481 36.1216 42.9923 36.3154 42.8441 36.5282C39.9977 40.5147 32.6822 44.8204 25.8189 44.8204C18.3704 44.8204 11.2259 40.9821 7.17868 34.8029C3.48103 29.1558 2.92239 22.3381 5.64337 16.0905C7.64991 11.4846 11.3096 7.66531 16.2309 5.04314C20.5214 2.75538 25.5187 1.4975 30.2994 1.4975M32.7392 38.1054C33.4764 38.1054 34.2137 37.9799 34.9319 37.7367C36.5699 37.1819 37.8999 36.0532 38.5916 34.6471C39.1426 33.5222 39.2338 32.291 38.8538 31.1851C38.1926 29.2736 36.2544 28.0347 33.9135 28.0347C33.1762 28.0347 32.439 28.1601 31.7207 28.4033C30.0828 28.9581 28.7527 30.0868 28.0611 31.4929C27.51 32.6178 27.4188 33.8491 27.7989 34.9549C28.4601 36.8703 30.3982 38.1054 32.7392 38.1054M30.2994 0.357422C21.023 0.357422 9.19661 5.07354 4.5983 15.6344C-2.02554 30.8355 10.4811 45.9605 25.8189 45.9605C32.8836 45.9605 40.6209 41.6054 43.7675 37.1895C43.9651 36.9121 44.1818 36.6499 44.387 36.38C45.1622 35.373 46.6709 32.5722 41.5976 30.4364C39.344 29.4864 39.0666 27.2974 39.344 26.2068C40.1725 22.9119 43.0075 22.8245 45.9109 20.172C47.5108 18.7089 51.3376 11.4276 44.2198 4.90633C41.8294 2.70978 36.414 0.357422 30.2994 0.357422V0.357422ZM32.7392 36.9653C30.9531 36.9653 29.3912 36.0722 28.8743 34.5863C28.1903 32.6064 29.6268 30.3224 32.0856 29.4864C32.6974 29.2774 33.3168 29.1786 33.9097 29.1786C35.6958 29.1786 37.2577 30.0716 37.7745 31.5613C38.4586 33.5412 37.0221 35.8252 34.5633 36.6613C33.9515 36.8665 33.332 36.9653 32.7392 36.9653V36.9653Z" fill="#424242"/>
<path d="M26.1917 11.603C28.7602 10.8014 30.3214 8.48194 29.6787 6.42231C29.0359 4.36267 26.4327 3.3428 23.8641 4.14436C21.2956 4.94591 19.7344 7.26537 20.3772 9.325C21.0199 11.3846 23.6232 12.4045 26.1917 11.603Z" fill="#C62828"/>
<path d="M28.9504 5.95787C29.5622 7.9606 28.0117 10.218 25.4807 10.997C22.9498 11.7761 20.3998 10.7842 19.7879 8.78146C19.1761 6.77873 20.7266 4.52137 23.2576 3.74232C25.7885 2.96327 28.3347 3.95514 28.9504 5.95787V5.95787Z" fill="url(#paint1_radial_1029_1316)"/>
<path d="M15.6844 19.8302C18.2769 19.0211 19.8546 16.6858 19.2081 14.6142C18.5616 12.5425 15.9358 11.519 13.3432 12.328C10.7506 13.1371 9.17302 15.4724 9.81951 17.544C10.466 19.6157 13.0918 20.6392 15.6844 19.8302Z" fill="#1565C0"/>
<path d="M18.5757 14.0953C19.2065 16.1513 17.6104 18.4618 15.0186 19.2637C12.4269 20.0655 9.81229 19.047 9.18145 16.9911C8.55061 14.9352 10.1467 12.6246 12.7385 11.8228C15.3303 11.0209 17.9448 12.0394 18.5757 14.0953V14.0953Z" fill="url(#paint2_radial_1029_1316)"/>
<path d="M12.8997 31.3179C15.5644 30.4863 17.1838 28.0792 16.5166 25.9414C15.8495 23.8037 13.1485 22.7448 10.4838 23.5763C7.8191 24.4079 6.19975 26.815 6.86688 28.9528C7.53401 31.0906 10.235 32.1495 12.8997 31.3179Z" fill="#F9A825"/>
<path d="M15.9002 25.6591C16.512 27.6619 14.9615 29.9192 12.4306 30.6983C9.89958 31.4773 7.34961 30.4854 6.73777 28.4827C6.12593 26.48 7.67643 24.2226 10.2074 23.4436C12.7384 22.6607 15.2883 23.6526 15.9002 25.6591V25.6591Z" fill="url(#paint3_radial_1029_1316)"/>
<path d="M20.7858 41.7768C23.326 40.9829 24.8605 38.6602 24.2131 36.5887C23.5658 34.5173 20.9817 33.4816 18.4415 34.2755C15.9013 35.0693 14.3668 37.3921 15.0142 39.4636C15.6616 41.535 18.2456 42.5707 20.7858 41.7768Z" fill="#558B2F"/>
<path d="M23.5655 36.2352C24.1773 38.2379 22.6268 40.4953 20.0958 41.2744C17.5649 42.0534 15.0149 41.0615 14.4031 39.0588C13.7912 37.0561 15.3417 34.7987 17.8727 34.0197C20.4037 33.2406 22.9536 34.2325 23.5655 36.2352Z" fill="url(#paint4_radial_1029_1316)"/>
<defs>
<radialGradient id="paint0_radial_1029_1316" cx="0" cy="0" r="1" gradientUnits="userSpaceOnUse" gradientTransform="translate(24.3125 6.73007) rotate(90) scale(40.4499 26.5513)">
<stop stop-color="#FFCC80"/>
<stop offset="0.2942" stop-color="#FFCB7D"/>
<stop offset="0.4879" stop-color="#FFC774"/>
<stop offset="0.6526" stop-color="#FFC166"/>
<stop offset="0.8012" stop-color="#FFB850"/>
<stop offset="0.9375" stop-color="#FFAD35"/>
<stop offset="1" stop-color="#FFA726"/>
</radialGradient>
<radialGradient id="paint1_radial_1029_1316" cx="0" cy="0" r="1" gradientUnits="userSpaceOnUse" gradientTransform="translate(23.7467 4.09347) rotate(90) scale(6.49806 5.06718)">
<stop stop-color="#EF5350"/>
<stop offset="0.3459" stop-color="#E94B49"/>
<stop offset="0.8869" stop-color="#D73534"/>
<stop offset="1" stop-color="#D32F2F"/>
</radialGradient>
<radialGradient id="paint2_radial_1029_1316" cx="0" cy="0" r="1" gradientUnits="userSpaceOnUse" gradientTransform="translate(13.2407 12.1822) rotate(90) scale(7.74758 6.04156)">
<stop stop-color="#42A5F5"/>
<stop offset="0.2859" stop-color="#3B9DEF"/>
<stop offset="0.7328" stop-color="#2787DE"/>
<stop offset="1" stop-color="#1976D2"/>
</radialGradient>
<radialGradient id="paint3_radial_1029_1316" cx="0" cy="0" r="1" gradientUnits="userSpaceOnUse" gradientTransform="translate(10.6987 23.7917) rotate(90) scale(7.98282 6.225)">
<stop stop-color="#FFEB3B"/>
<stop offset="0.436" stop-color="#FFEB3B"/>
<stop offset="0.6129" stop-color="#FEE238"/>
<stop offset="0.8995" stop-color="#FCCA30"/>
<stop offset="1" stop-color="#FBC02D"/>
</radialGradient>
<radialGradient id="paint4_radial_1029_1316" cx="0" cy="0" r="1" gradientUnits="userSpaceOnUse" gradientTransform="translate(18.3624 34.3693) rotate(90) scale(6.49806 5.06718)">
<stop stop-color="#8BC34A"/>
<stop offset="0.3459" stop-color="#83BB46"/>
<stop offset="0.8869" stop-color="#6DA53B"/>
<stop offset="1" stop-color="#689F38"/>
</radialGradient>
</defs>
</svg>
