<svg width="50" height="50" viewBox="0 0 50 50" fill="none" xmlns="http://www.w3.org/2000/svg">
<path d="M0.91978 39.5608C3.37003 44.7105 7.68496 44.4945 12.2532 44.2702C14.3588 44.1664 16.7467 44.046 19.4503 44.3367C31.1492 45.5992 41.3074 41.9737 46.6232 34.6395C50.4647 29.3445 51.0585 22.9281 48.2511 17.0351C45.4479 11.142 40.0906 7.55802 33.5621 7.19671C24.5211 6.69836 15.3015 12.2924 8.90178 22.1682C7.42332 24.4523 5.82443 26.2298 4.41658 27.7954C1.35584 31.2009 -1.53047 34.4153 0.91978 39.5608V39.5608Z" fill="url(#paint0_radial_1029_2289)"/>
<path opacity="0.2" d="M32.4409 8.42216C32.7897 8.42216 33.1427 8.43047 33.4874 8.45124C39.5466 8.78347 44.5135 12.11 47.1133 17.5753C49.713 23.0406 49.1649 28.9918 45.6016 33.9048C41.2618 39.8933 33.3711 43.3278 23.9605 43.3278C22.5277 43.3278 21.0534 43.2489 19.5791 43.087C18.3914 42.9582 17.1704 42.8959 15.8456 42.8959C14.5333 42.8959 13.3414 42.9541 12.1827 43.0122C11.2483 43.0579 10.3637 43.1036 9.49988 43.1036C6.0986 43.1036 3.66497 42.4225 2.04531 39.0212C-0.0436325 34.6274 2.33186 31.9861 5.33861 28.6388C6.77969 27.0358 8.41181 25.2209 9.94425 22.8537C15.8082 13.8169 24.2138 8.42216 32.4409 8.42216M32.4409 7.16797C23.7612 7.16797 15.0358 12.7039 8.8977 22.1685C7.41925 24.4526 5.82036 26.2301 4.4125 27.7957C1.35592 31.2012 -1.53039 34.4156 0.919856 39.5611C2.87175 43.6601 6.00724 44.3619 9.50819 44.3619C10.4052 44.3619 11.323 44.3162 12.2533 44.2706C13.3704 44.2166 14.5707 44.1543 15.8498 44.1543C16.9835 44.1543 18.1796 44.2 19.4462 44.337C20.9787 44.5031 22.4862 44.582 23.9605 44.582C33.7283 44.582 42.001 41.0105 46.6191 34.6398C50.4606 29.3448 51.0545 22.9285 48.2471 17.0354C45.4438 11.1424 40.0865 7.55835 33.558 7.19704C33.1842 7.17627 32.8146 7.16797 32.4409 7.16797Z" fill="#424242"/>
<path d="M18.4784 0.764345C13.2207 2.97372 13.2124 7.23467 13.2 11.7489C13.1958 13.8296 13.1917 16.1885 12.7598 18.8381C10.8992 30.321 13.9849 40.4792 21.0159 46.0109C26.0949 50.0061 32.4573 50.8491 38.4708 48.32C44.4843 45.7908 48.3341 40.6577 49.0318 34.2331C49.9953 25.3416 44.8996 16.0306 35.3934 9.32776C33.1965 7.7787 31.5063 6.13413 30.0153 4.68059C26.7843 1.52849 23.7319 -1.44503 18.4784 0.764345V0.764345Z" fill="url(#paint1_linear_1029_2289)"/>
<path opacity="0.2" d="M21.9298 1.24589C24.7081 1.24589 26.7638 3.24762 29.1476 5.56913C30.6718 7.05173 32.3952 8.73369 34.6752 10.3409C43.8034 16.778 48.7081 25.657 47.7944 34.0958C47.1466 40.0554 43.575 44.823 37.9893 47.1694C35.8796 48.0581 33.7159 48.5066 31.5563 48.5066C28.0554 48.5066 24.6749 47.3023 21.7844 45.0306C15.1189 39.7854 12.2035 30.0675 13.9893 19.0372C14.4337 16.2879 14.442 13.8792 14.4461 11.7487C14.4544 7.30922 14.4627 3.79996 18.9604 1.91036C20.0277 1.466 20.9995 1.24589 21.9298 1.24589M21.9298 0C20.8832 0 19.7453 0.232566 18.4745 0.764146C13.2168 2.97352 13.2085 7.23447 13.1961 11.7487C13.1919 13.8294 13.1878 16.1883 12.7559 18.8379C10.8953 30.3208 13.981 40.479 21.012 46.0107C24.1599 48.49 27.8062 49.7567 31.5522 49.7567C33.8488 49.7567 36.1827 49.2832 38.4669 48.3239C44.4804 45.7947 48.3302 40.6617 49.0279 34.237C49.9914 25.3455 44.8957 16.0346 35.3895 9.33171C33.1926 7.78266 31.5023 6.13808 30.0114 4.68455C27.5653 2.28828 25.2189 0 21.9298 0V0Z" fill="#424242"/>
<path d="M19.1182 2.28398C14.7078 4.1362 14.849 8.06491 14.9943 12.222C15.0608 14.1365 15.1397 16.3127 14.8656 18.7422C13.6737 29.2575 16.6597 38.7221 22.8559 44.067C27.3286 47.9251 32.7898 48.9218 37.8356 46.7996C42.8815 44.6775 45.9879 40.0801 46.3617 34.1829C46.8766 26.0223 42.2004 17.2637 33.8571 10.7602C31.926 9.25681 30.4309 7.68283 29.1061 6.29159C26.2364 3.27654 23.5287 0.431757 19.1182 2.28398V2.28398Z" fill="url(#paint2_radial_1029_2289)"/>
<path d="M37.7484 25.1702C35.402 21.1709 29.5089 16.8393 25.9415 18.2306C22.5568 19.5471 20.8375 24.9833 21.8176 29.5184C23.1216 35.5734 29.1808 39.527 33.6536 37.816C38.1014 36.051 40.8839 30.5109 37.7484 25.1702V25.1702Z" fill="#CCC465"/>
<path d="M36.8595 25.0722C34.5504 21.5754 29.027 17.9499 25.8749 19.3744C22.8847 20.7241 21.5932 25.7118 22.6895 29.7568C24.1555 35.1598 29.8119 38.4323 33.7655 36.6756C37.6984 34.8732 39.9451 29.7443 36.8595 25.0722Z" fill="url(#paint3_radial_1029_2289)"/>
<defs>
<radialGradient id="paint0_radial_1029_2289" cx="0" cy="0" r="1" gradientUnits="userSpaceOnUse" gradientTransform="translate(17.4646 21.7159) rotate(-0.353175) scale(30.1897 29.8865)">
<stop stop-color="#22B511"/>
<stop offset="0.9902" stop-color="#45590E"/>
</radialGradient>
<linearGradient id="paint1_linear_1029_2289" x1="17.946" y1="1.31665" x2="38.8495" y2="48.1082" gradientUnits="userSpaceOnUse">
<stop stop-color="#5DB111"/>
<stop offset="0.9902" stop-color="#45590E"/>
</linearGradient>
<radialGradient id="paint2_radial_1029_2289" cx="0" cy="0" r="1" gradientUnits="userSpaceOnUse" gradientTransform="translate(28.425 25.9007) rotate(-20.7512) scale(23.4768 30.1901)">
<stop stop-color="#FFF9C4"/>
<stop offset="0.1454" stop-color="#FCF7BD"/>
<stop offset="0.3507" stop-color="#F3F0AB"/>
<stop offset="0.5917" stop-color="#E4E58D"/>
<stop offset="0.8579" stop-color="#CFD663"/>
<stop offset="0.9311" stop-color="#C9D156"/>
<stop offset="0.9902" stop-color="#C9D13B"/>
</radialGradient>
<radialGradient id="paint3_radial_1029_2289" cx="0" cy="0" r="1" gradientUnits="userSpaceOnUse" gradientTransform="translate(27.6743 26.0179) scale(11.255 11.255)">
<stop offset="0.0295" stop-color="#B37F58"/>
<stop offset="0.9951" stop-color="#7E3600"/>
</radialGradient>
</defs>
</svg>
