<svg width="50" height="55" viewBox="0 0 50 55" fill="none" xmlns="http://www.w3.org/2000/svg">
<path d="M18.5315 22.951C16.3489 24.0994 14.8161 25.9755 14.3173 28.0848C13.9787 29.5261 14.3265 31.361 15.992 32.1526C17.1634 32.7108 18.5864 32.5415 19.7944 32.2212C24.2831 31.0178 27.2252 29.8876 27.9619 26.0715C28.0625 25.5408 28.7535 24.2779 28.424 23.7791C27.7468 22.7588 24.3151 21.7476 23.1941 21.7842C21.3226 21.8391 20.0414 22.1548 18.5315 22.951V22.951Z" fill="url(#paint0_linear_1029_2273)"/>
<path opacity="0.2" d="M23.2535 23.335C24.1504 23.335 26.3192 23.9619 27.0834 24.4744C27.0239 24.6665 26.9369 24.8541 26.882 25.0051C26.7722 25.3025 26.667 25.5634 26.6121 25.8333C26.0584 28.7022 24.0406 29.6677 19.4329 30.9031C18.8106 31.0678 18.2524 31.1502 17.7674 31.1502C17.3006 31.1502 16.9026 31.0678 16.5777 30.9169C15.2508 30.2854 15.6077 28.5924 15.6488 28.4002C16.0515 26.6752 17.3372 25.2202 19.1675 24.2547C20.4899 23.5638 21.5514 23.335 23.2398 23.335H23.4183M23.2535 21.7793H23.1941C21.3226 21.8388 20.0414 22.1499 18.5315 22.9461C16.3489 24.0946 14.8161 25.9706 14.3173 28.08C13.9787 29.5213 14.3265 31.3561 15.992 32.1477C16.5457 32.4085 17.1542 32.5137 17.7719 32.5137C18.4583 32.5137 19.1583 32.3856 19.7944 32.2163C24.2831 31.0129 27.2252 29.8828 27.9619 26.0667C28.0625 25.5359 28.7535 24.273 28.424 23.7743C27.7606 22.7722 24.4341 21.7793 23.2535 21.7793V21.7793Z" fill="#424242"/>
<path d="M41.4828 44.9921C41.771 48.6343 45.6146 51.5215 49.998 50.2998C50.0804 50.8901 47.4952 51.5398 46.6899 51.3477C44.004 50.6934 42.6633 50.19 41.2037 47.8336C37.5203 41.8852 39.5564 37.424 34.9488 35.2872C33.7683 34.7381 32.8257 33.6399 32.3407 32.4274C31.9929 31.5489 32.2125 30.5239 32.693 29.7095C33.0545 29.1009 33.4846 28.6342 33.9696 28.291C40.8834 30.5971 40.3618 38.8882 41.4828 44.9921Z" fill="#F5CA2C"/>
<path d="M44.5804 31.8642C49.0965 37.9361 47.614 47.9659 49.9155 50.1439C49.9705 50.1942 49.9888 50.2492 49.9979 50.2995C45.619 51.5212 42.8736 50.121 41.295 45.0421C40.1694 38.9382 40.8192 33.5893 32.4778 29.7549C35.635 27.4991 42.4847 29.0502 44.5804 31.8642V31.8642Z" fill="#F9E691"/>
<path opacity="0.2" d="M34.2166 29.6815C34.3126 29.7227 34.4087 29.7684 34.5002 29.8142C34.6924 29.9103 34.9029 29.9606 35.1134 29.9606C35.1774 29.9606 35.2415 29.956 35.3056 29.9469C35.6853 29.892 36.0926 29.8645 36.5135 29.8645C39.2452 29.8645 42.3475 31.045 43.4273 32.4909C45.8158 35.6985 46.4015 40.3153 46.8728 44.0216C47.1656 46.3277 47.4127 48.286 48.0441 49.6633C47.6918 49.7503 47.3075 49.8189 47.0146 49.8189H46.946C44.434 49.2058 43.5188 48.8397 42.3292 46.9225C40.8695 44.5706 40.3754 42.4475 39.9407 40.5807C39.3138 37.8948 38.7236 35.3599 35.484 33.8545C34.665 33.4747 33.9512 32.6785 33.576 31.7314C33.4295 31.3562 33.5073 30.8254 33.791 30.3038C33.8047 30.2763 33.8231 30.2443 33.8368 30.2168L33.9054 30.1208C34.0015 29.956 34.1067 29.8096 34.2166 29.6815M33.9237 28.0938C33.4799 28.4095 33.0818 28.835 32.7386 29.3749C32.6334 29.439 32.519 29.4939 32.4229 29.5625C32.4778 29.5854 32.5281 29.6129 32.5785 29.6403C32.1484 30.4319 31.9608 31.3974 32.2948 32.2301C32.7752 33.4427 33.7224 34.5408 34.9029 35.0899C39.506 37.2313 37.4698 41.6926 41.1578 47.6363C42.6174 49.9928 43.9581 50.4961 46.644 51.1504C46.7447 51.1733 46.8682 51.187 47.0146 51.187C48.0441 51.187 50.0208 50.6196 49.9522 50.1072C49.943 50.0522 49.9247 50.0019 49.8698 49.9516C47.5683 47.7736 49.0508 37.7392 44.5346 31.6719C43.1391 29.8005 39.6387 28.4918 36.5227 28.4918C36.0422 28.4918 35.5755 28.5239 35.1225 28.5879C34.7428 28.4003 34.3493 28.2356 33.9237 28.0938V28.0938Z" fill="#424242"/>
<path d="M38.4446 30.1543C38.4446 30.1543 38.4675 30.168 38.5087 30.1909C38.5544 30.2184 38.6139 30.255 38.6917 30.3053C38.8473 30.4014 39.0669 30.557 39.3277 30.772C39.5885 30.9871 39.8997 31.257 40.2291 31.591C40.5585 31.9296 40.9017 32.3277 41.254 32.7899C41.5972 33.252 41.9633 33.7645 42.2744 34.3456C42.6039 34.9175 42.9013 35.549 43.1804 36.2079C43.3177 36.5373 43.4366 36.8851 43.5693 37.2282C43.6746 37.5806 43.7798 37.9375 43.8896 38.2944C44.0772 39.0356 44.2374 39.7769 44.3609 40.5227C44.4844 41.2685 44.6034 42.0098 44.7224 42.7419C44.8413 43.4694 44.974 44.1832 45.1342 44.8604C45.2074 45.2036 45.3218 45.5239 45.4087 45.8487C45.5231 46.1599 45.6375 46.4665 45.7611 46.7593C45.912 47.0384 46.031 47.3267 46.1957 47.5738C46.3696 47.8117 46.5115 48.0725 46.6945 48.2738C46.8821 48.4752 47.0514 48.6856 47.2344 48.8595C47.4312 49.0197 47.6142 49.1752 47.7926 49.3171C48.1633 49.5779 48.511 49.7701 48.7993 49.9302C49.4033 50.191 49.751 50.3374 49.751 50.3374C49.751 50.3374 49.3941 50.2093 48.7764 49.9897C48.479 49.8479 48.1129 49.6694 47.7194 49.4315C47.5318 49.2942 47.3305 49.1478 47.12 48.9968C46.9187 48.8321 46.7357 48.6262 46.5252 48.4248C46.3193 48.2235 46.1637 47.9627 45.9715 47.7202C45.7885 47.4685 45.6512 47.1757 45.4865 46.892C45.3447 46.5946 45.212 46.2834 45.0839 45.9631C44.9786 45.6337 44.8505 45.3042 44.759 44.9611C44.3609 43.5884 44.1459 42.0876 43.8439 40.6188C43.6974 39.8821 43.5236 39.1592 43.3268 38.4682C43.2124 38.1205 43.098 37.7727 42.9882 37.4341C42.8601 37.1001 42.7411 36.7707 42.6039 36.4504C42.3293 35.8144 42.0411 35.2104 41.7208 34.6613C41.4096 34.1076 41.0847 33.6089 40.7599 33.1559C40.1147 32.2591 39.465 31.6002 38.9937 31.1701C38.5087 30.74 38.2158 30.5524 38.2158 30.5524L38.4446 30.1543Z" fill="#DECD7F"/>
<path d="M31.4208 0.0041342C26.9687 0.0498906 28.1447 10.9262 27.8793 13.5663C26.4151 28.2816 23.6102 31.1414 17.9822 36.623L30.675 45.152C37.4332 36.9982 42.4344 28.2175 39.9956 12.2394C38.0692 2.42007 33.8917 -0.0233196 31.4208 0.0041342V0.0041342Z" fill="url(#paint1_linear_1029_2273)"/>
<path opacity="0.2" d="M31.4574 1.37269C31.9699 1.37269 36.5181 1.68384 38.6458 12.4732C40.8009 26.644 37.1404 34.9304 30.405 43.3176L20.1465 36.4221C25.3993 31.1784 27.8839 27.4264 29.2474 13.704C29.3069 13.1046 29.3023 12.2353 29.2932 11.1417C29.2794 8.47409 29.2383 1.37269 31.4346 1.37269H31.6542M31.4574 0H31.4208C26.9687 0 28.1447 10.9266 27.8793 13.5668C26.4151 28.282 23.6102 31.1464 17.9822 36.6234L30.675 45.1524C37.4332 36.9986 42.4344 28.2134 39.9956 12.2353C38.0784 2.47085 33.9374 0 31.4574 0V0Z" fill="#424242"/>
<path d="M2.92383 53.9279C1.98125 53.5985 1.34524 53.2324 1.11188 52.8984C0.205904 51.5989 0 49.7733 0 49.7733C0 49.7733 0.205904 49.6726 0.562804 49.4941C2.45712 50.2262 3.66966 51.5669 2.92383 53.9279Z" fill="#784B27"/>
<path d="M10.0621 43.9623C24.4433 32.9807 22.6634 29.3477 22.6634 29.3477C22.6634 29.3477 27.5914 29.8647 29.5406 31.4067C31.4898 32.9487 35.0085 32.8343 36.3034 33.0219C37.5937 33.2095 38.0055 33.7448 38.0055 33.7448C38.0055 33.7448 35.1366 44.5342 23.5739 51.2192C15.4659 55.9092 6.70356 55.2366 2.92866 53.9188C3.67449 51.5578 2.46194 50.2172 0.567627 49.485C2.25604 48.6386 7.39448 45.9984 10.0621 43.9623V43.9623Z" fill="url(#paint2_linear_1029_2273)"/>
<path opacity="0.2" d="M23.9535 30.923C25.6785 31.225 27.7787 31.7695 28.6893 32.4878C30.5699 33.9749 33.329 34.1717 35.1546 34.2998C35.5482 34.3272 35.8867 34.3501 36.1064 34.3821C36.1887 34.3959 36.2619 34.405 36.3306 34.4233C35.2965 37.187 31.7458 44.9153 22.8828 50.0354C17.8999 52.9135 12.9491 53.522 9.6729 53.522C7.29815 53.522 5.00118 53.1972 3.37682 52.6298C2.57151 52.3507 2.27867 52.1311 2.21461 52.0761C1.90347 51.6186 1.68841 51.0283 1.55114 50.525C3.76118 49.404 8.34139 47.0018 10.8946 45.0525C16.9985 40.39 21.0479 36.4137 22.9377 33.2382C23.4822 32.3185 23.7933 31.5544 23.9535 30.923M22.6631 29.3535C22.6631 29.3535 24.4431 32.9866 10.0618 43.9681C7.39423 46.0043 2.26037 48.6444 0.562804 49.4955C0.21048 49.6739 0 49.7746 0 49.7746C0 49.7746 0.205904 51.6003 1.11188 52.8998C1.34524 53.2338 1.98125 53.5998 2.92383 53.9293C4.4704 54.4646 6.84516 54.8947 9.6729 54.8947C13.759 54.8947 18.7784 53.9979 23.5691 51.2251C35.1363 44.5355 38.0007 33.7507 38.0007 33.7507C38.0007 33.7507 37.5889 33.2154 36.2986 33.0278C35.0082 32.8402 31.4896 32.9545 29.5358 31.4126C27.5911 29.8706 22.6631 29.3535 22.6631 29.3535Z" fill="#424242"/>
<path d="M32.7158 32.4922C32.7158 32.4922 32.6746 32.5837 32.6014 32.7621C32.5236 32.9314 32.423 33.2106 32.2628 33.4988C31.97 34.0982 31.4895 34.9813 30.8398 35.9926C30.5195 36.5004 30.1489 37.0358 29.7508 37.5986C29.339 38.1523 28.9134 38.7425 28.4284 39.3236C27.9663 39.9185 27.4401 40.495 26.9185 41.0944C26.374 41.6709 25.8295 42.2658 25.2392 42.8148L24.3607 43.643C24.0633 43.9176 23.7521 44.1646 23.4501 44.4255C22.8553 44.9562 22.2193 45.4046 21.6107 45.8622C21.0067 46.3198 20.3707 46.6904 19.7942 47.0793C19.1948 47.4317 18.6137 47.7428 18.0875 48.0402C17.543 48.3102 17.0305 48.5298 16.5821 48.7403C16.1383 48.9645 15.7219 49.0789 15.3878 49.207C14.7198 49.4495 14.3354 49.5868 14.3354 49.5868C14.3354 49.5868 14.7244 49.4678 15.4061 49.2573C15.7447 49.1429 16.1703 49.0469 16.6233 48.8455C17.0808 48.6579 17.607 48.4566 18.1698 48.2141C18.7143 47.9396 19.3183 47.6559 19.936 47.3264C20.5354 46.9604 21.1943 46.6172 21.8258 46.1825C22.4572 45.7478 23.1253 45.3177 23.7521 44.8144C24.0678 44.5673 24.4019 44.3294 24.713 44.064L25.6464 43.2632C26.2687 42.7325 26.8498 42.1514 27.4355 41.5931C27.9937 41.012 28.5565 40.4492 29.0599 39.8635C29.5815 39.2962 30.0436 38.7105 30.492 38.1614C30.9267 37.6032 31.334 37.0724 31.6863 36.5645C32.4047 35.5533 32.94 34.6748 33.3015 34.0113C33.4937 33.6819 33.5943 33.4393 33.6858 33.2655C33.7682 33.0962 33.8139 33.0047 33.8139 33.0047L32.7158 32.4922Z" fill="url(#paint3_linear_1029_2273)"/>
<path d="M9.12851 39.4147C6.85442 40.0233 4.58032 40.6273 2.53501 39.584C2.50756 39.5245 2.48011 39.465 2.4618 39.401C2.29708 38.7192 2.77752 38.0695 3.23509 37.5387C4.42018 36.1614 5.64645 34.8162 6.90933 33.5076C9.56777 30.753 11.8327 28.5155 15.2553 26.7951C18.6779 25.0792 22.407 23.7157 26.9049 25.5963C32.931 28.1129 34.171 31.7139 34.3998 33.0042C25.0243 30.4144 17.9092 36.1706 9.12851 39.4147V39.4147Z" fill="#F9E68F"/>
<path d="M9.12841 39.415C17.9045 36.1709 25.2392 30.1082 34.4363 32.8764C34.5141 33.3111 34.4134 32.9588 34.4134 32.9588C33.0041 32.7758 31.0549 32.6476 28.7533 32.8947C27.9846 32.9771 26.3282 33.1921 24.1274 33.8602C21.4094 34.6838 20.1694 35.4937 16.9939 37.0677C11.2744 39.9046 7.65505 40.6642 4.68546 40.5772C3.84812 40.5544 2.85063 40.3073 2.53491 39.5797C4.58022 40.6276 6.85432 40.0282 9.12841 39.415V39.415Z" fill="#F5CA2C"/>
<path opacity="0.2" d="M22.5032 24.7097V26.0824H22.5215C23.8118 26.0824 25.0747 26.3341 26.365 26.874C29.8013 28.3107 31.4806 30.0769 32.295 31.413C31.9656 31.3993 31.6362 31.3901 31.3113 31.3901C30.4099 31.3901 29.4993 31.4359 28.6071 31.5366C27.0422 31.7059 25.4041 32.049 23.734 32.5524C21.5377 33.2158 20.2657 33.8701 18.3393 34.8585C17.7674 35.1513 17.1314 35.4808 16.3855 35.8468C11.6772 38.1804 8.20429 39.2191 5.12489 39.2191C4.98762 39.2191 4.85493 39.2191 4.72223 39.2145C4.27382 39.2008 3.97183 39.1092 3.83456 39.0406C3.88489 38.9354 4.00386 38.7523 4.27382 38.4366C5.44061 37.0868 6.65773 35.7462 7.89773 34.465C10.5699 31.6967 12.6838 29.6194 15.8502 28.027C17.8818 27.0067 20.2154 26.0641 22.5032 26.0641V24.7097ZM22.5444 24.6914C19.8951 24.6914 17.5111 25.6706 15.2599 26.8008C11.8374 28.5166 9.57241 30.7587 6.91396 33.5132C5.65109 34.8219 4.42482 36.1671 3.23972 37.5444C2.78216 38.0752 2.30172 38.7295 2.46644 39.4067C2.48474 39.4753 2.5122 39.5302 2.53965 39.5897C2.85537 40.3172 3.85286 40.5643 4.6902 40.5872C4.83662 40.5918 4.98304 40.5918 5.12946 40.5918C8.01669 40.5918 11.5582 39.7727 16.9987 37.0731C20.1787 35.4991 21.4142 34.6892 24.1321 33.8656C26.333 33.1975 27.9848 32.9825 28.7581 32.9001C29.6732 32.7994 30.5288 32.7628 31.3159 32.7628C32.3591 32.7628 33.288 32.8315 34.0704 32.923C34.1802 32.9504 34.29 32.9733 34.3998 33.0053C34.3953 32.9916 34.3953 32.9733 34.3907 32.9596C34.3953 32.9596 34.4044 32.9596 34.4136 32.9642C34.4136 32.9642 34.4502 33.0969 34.4639 33.0969C34.473 33.0969 34.4685 33.0465 34.4364 32.8818C34.4136 32.8772 34.3907 32.8681 34.3678 32.8635C34.075 31.4725 32.7206 28.0362 26.9049 25.602C25.3675 24.9522 23.9216 24.6914 22.5444 24.6914V24.6914Z" fill="#424242"/>
<defs>
<linearGradient id="paint0_linear_1029_2273" x1="27.6461" y1="28.5973" x2="14.7369" y2="25.9978" gradientUnits="userSpaceOnUse">
<stop stop-color="#C9A622"/>
<stop offset="0.1997" stop-color="#DEB625"/>
<stop offset="0.4514" stop-color="#F0C529"/>
<stop offset="0.7127" stop-color="#FBCE2A"/>
<stop offset="0.996" stop-color="#FFD12B"/>
</linearGradient>
<linearGradient id="paint1_linear_1029_2273" x1="39.3826" y1="24.2116" x2="26.9564" y2="21.7094" gradientUnits="userSpaceOnUse">
<stop stop-color="#F0D886"/>
<stop offset="0.1637" stop-color="#F4E196"/>
<stop offset="0.4809" stop-color="#FAEEAF"/>
<stop offset="0.769" stop-color="#FEF6BF"/>
<stop offset="1" stop-color="#FFF9C4"/>
</linearGradient>
<linearGradient id="paint2_linear_1029_2273" x1="32.7682" y1="32.8785" x2="4.25753" y2="55.4171" gradientUnits="userSpaceOnUse">
<stop stop-color="#C9A622"/>
<stop offset="0.1997" stop-color="#DEB625"/>
<stop offset="0.4514" stop-color="#F0C529"/>
<stop offset="0.7127" stop-color="#FBCE2A"/>
<stop offset="0.996" stop-color="#FFD12B"/>
</linearGradient>
<linearGradient id="paint3_linear_1029_2273" x1="33.9434" y1="33.8215" x2="14.0021" y2="50.8134" gradientUnits="userSpaceOnUse">
<stop stop-color="#B3931E"/>
<stop offset="0.996" stop-color="#FFD12B"/>
</linearGradient>
</defs>
</svg>
