<svg width="50" height="50" viewBox="0 0 50 50" fill="none" xmlns="http://www.w3.org/2000/svg">
<path d="M0 28.2812H49.9917V49.9901H0V28.2812Z" fill="url(#paint0_linear_1029_1927)"/>
<g opacity="0.3">
<path opacity="0.3" d="M40.6682 36.8925C41.6389 37.1258 42.747 37.2674 43.9302 37.2674C45.03 37.2674 46.0673 37.1549 46.988 36.9508C47.3671 36.8675 47.7462 36.83 48.1295 36.8216C48.5877 37.0758 49.2751 37.2549 49.9917 37.4007V29.1562H0V36.7675C0.370772 36.7841 0.741543 36.7966 1.12481 36.8133C2.30795 37.1008 3.69938 37.2716 5.19497 37.2716C6.67805 37.2716 8.06116 37.1049 9.24013 36.8216C9.80253 36.8133 10.3108 36.805 10.7565 36.805C19.4884 36.805 6.4031 38.5589 0.00416607 39.3546V43.0664C4.08682 43.0956 6.69888 43.4247 4.72005 44.2912C2.91618 45.0828 2.91618 45.9368 5.90735 45.8243C6.6114 45.7993 7.47792 45.7701 8.51108 45.6493C13.3853 45.0786 14.106 44.1454 9.95667 43.5747C5.80737 43.0039 5.26579 42.0708 9.65672 41.0709C12.1855 40.4919 15.0558 39.7253 16.0307 39.7253C16.7514 39.7253 16.4473 40.1419 14.2268 41.3542C12.0147 42.5623 12.4979 43.0081 14.1518 43.0081C16.4098 43.0081 20.8424 42.1832 23.5502 41.3542C28.2411 39.9211 27.9412 39.3504 22.8295 39.2087C18.2803 39.0796 24.0127 37.709 28.6369 37.709C29.2118 37.709 29.77 37.7298 30.2908 37.7756C34.9817 38.2047 37.5687 38.4922 30.3491 40.2794C23.1295 42.0666 23.6711 43.4997 27.7037 43.9996C31.7364 44.4995 31.6156 45.0744 26.8622 45.7868C24.8625 46.0868 23.2503 46.2617 22.2505 46.2617C20.8715 46.2617 20.6632 45.9285 22.2338 45.1411C23.6961 44.4079 23.7544 43.9455 22.4838 43.9455C21.4006 43.9455 19.3593 44.2829 16.3973 45.0703C12.1063 46.2159 12.9228 46.5034 14.9392 46.5034C15.9473 46.5034 17.2596 46.4325 18.3803 46.3617C18.5886 46.3492 18.7594 46.3409 18.8969 46.3409C20.959 46.3409 15.185 47.7865 15.8599 48.3239C16.1306 48.5405 16.793 48.6113 17.6512 48.6113C19.0677 48.6113 21.0173 48.4114 22.6296 48.3239C23.1961 48.2947 23.6586 48.2781 24.0168 48.2781C25.2875 48.2781 25.1875 48.478 23.4961 48.8696C22.1171 49.1904 22.3463 49.4487 23.7335 49.4487C24.5251 49.4487 25.6999 49.3654 27.1621 49.1571C31.1948 48.5863 30.9532 48.1531 26.9205 47.8698C22.8879 47.5823 32.8779 46.6533 37.0897 45.9368C41.3015 45.2202 42.143 44.9328 32.9987 44.0746C25.3333 43.3539 31.3239 42.3832 37.927 42.3832C39.1976 42.3832 40.4974 42.4207 41.7222 42.4999C49.3043 42.9998 46.8339 44.0038 45.0925 44.5745C43.5552 45.0786 42.3429 46.1409 45.0425 46.1409C45.4049 46.1409 45.8424 46.1201 46.3548 46.0784C47.1713 46.0118 47.8254 45.9784 48.3336 45.9784C50.0792 45.9784 50.0542 46.3576 48.8419 46.9575C47.5462 47.599 47.7004 48.1531 49.1668 48.1656C49.4459 48.1698 49.725 48.1656 50 48.1614V39.2587C49.9292 39.2754 49.8667 39.2921 49.7917 39.3087C49.7917 39.3087 49.071 39.3837 47.8004 39.3837C46.0507 39.3837 43.2595 39.2379 39.8642 38.5547C38.3978 38.2631 39.3351 37.6048 40.6682 36.8925V36.8925Z" fill="#D7CCC8"/>
</g>
<path d="M9.71505 37.0878C11.4064 35.9172 13.202 35.6214 14.9642 36.063C16.1098 36.3463 17.3221 36.5004 18.5802 36.5004C20.5882 36.5004 22.4879 36.1088 24.1793 35.4173C26.2373 34.5716 28.3578 34.9299 30.3658 36.2421C33.4611 38.2668 37.827 39.5291 42.6637 39.5291C45.2925 39.5291 47.7754 39.15 49.9958 38.4834V28.2976C49.9958 26.4563 48.5044 24.9648 46.6631 24.9648H3.33278C1.49142 24.9648 0 26.4563 0 28.2976V39.4499C0.520747 39.5041 1.04566 39.5333 1.58307 39.5333C4.67422 39.5333 7.50708 38.6126 9.71505 37.0878V37.0878Z" fill="url(#paint1_linear_1029_1927)"/>
<path opacity="0.8" d="M42.6596 37.8676C37.8229 37.8676 33.4569 36.6053 30.3616 34.5807C28.3578 33.2684 26.2373 32.9101 24.1751 33.7558C22.4879 34.4474 20.5882 34.839 18.5761 34.839C17.3179 34.839 16.1056 34.6848 14.96 34.4015C13.1936 33.9641 11.3981 34.2557 9.71088 35.4264C7.50708 36.947 4.67422 37.8676 1.58307 37.8676C1.04566 37.8676 0.520747 37.8385 0 37.7843V40.8171C0.520747 40.8713 1.04566 40.9005 1.58307 40.9005C4.67422 40.9005 7.50708 39.9798 9.71505 38.455C11.4064 37.2844 13.202 36.9886 14.9642 37.4302C16.1098 37.7135 17.3221 37.8676 18.5802 37.8676C20.5882 37.8676 22.4879 37.476 24.1793 36.7845C26.2373 35.9388 28.3578 36.2971 30.3658 37.6093C33.4611 39.634 37.827 40.8963 42.6637 40.8963C45.2925 40.8963 47.7754 40.5172 49.9958 39.8506V36.8178C47.7712 37.4885 45.2883 37.8676 42.6596 37.8676V37.8676Z" fill="white"/>
<path opacity="0.2" d="M46.6589 26.2107C47.7837 26.2107 48.7169 27.1272 48.7377 28.2562L48.7419 28.3937V48.6903H1.24979V28.4145L1.25396 28.2562C1.27479 27.1314 2.20797 26.2107 3.33278 26.2107H46.6589ZM46.6589 24.9609H3.33278C1.51225 24.9609 0.0374938 26.419 0.00416607 28.2312H0V49.9401H49.9917V28.2312H49.9875C49.9542 26.419 48.4794 24.9609 46.6589 24.9609V24.9609Z" fill="#424242"/>
<path d="M5.2991 42.725L8.2736 41.8419C8.45274 41.7877 8.57355 41.6419 8.57355 41.4752L8.60271 38.6882C8.60688 38.3133 9.14429 38.1591 9.39841 38.4591L11.2648 40.7004C11.3773 40.8337 11.5731 40.892 11.7522 40.842L14.7434 40.0047C15.1475 39.8922 15.4807 40.3004 15.2349 40.6046L13.4144 42.875C13.3061 43.0125 13.3061 43.1916 13.4144 43.3291L15.2349 45.5996C15.4807 45.9037 15.1475 46.3119 14.7434 46.1995L11.7522 45.3621C11.5731 45.3121 11.3773 45.3663 11.2648 45.5037L9.39841 47.745C9.14845 48.045 8.60688 47.8908 8.60271 47.5159L8.57355 44.7289C8.57355 44.5622 8.45274 44.4164 8.2736 44.3623L5.2991 43.4791C4.89916 43.3499 4.89916 42.8459 5.2991 42.725Z" fill="url(#paint2_linear_1029_1927)"/>
<path opacity="0.2" d="M9.83167 40.9295L10.3066 41.4961C10.6274 41.8835 11.1065 42.1043 11.6189 42.1043C11.7772 42.1043 11.9355 42.0835 12.0896 42.0418L12.5895 41.9002L12.4396 42.0876C11.9647 42.6834 11.9647 43.5124 12.4396 44.104L12.5895 44.2914L12.0896 44.1498C11.9355 44.1081 11.7813 44.0873 11.6189 44.0873C11.1065 44.0873 10.6274 44.3081 10.3066 44.6955L9.83167 45.2621L9.82751 44.7039C9.81918 43.9873 9.34009 43.3624 8.63604 43.15L8.44024 43.0916L8.63604 43.0333C9.34426 42.825 9.82334 42.2001 9.82751 41.4794L9.83167 40.9295ZM9.04847 38.3008C8.82351 38.3008 8.60688 38.4508 8.60271 38.6882L8.57355 41.4753C8.57355 41.6419 8.45274 41.7877 8.2736 41.8419L5.2991 42.725C4.89916 42.8459 4.89916 43.3458 5.2991 43.4666L8.2736 44.3498C8.45274 44.4039 8.57355 44.5497 8.57355 44.7164L8.60271 47.5034C8.60688 47.7409 8.82351 47.8908 9.04847 47.8908C9.17762 47.8908 9.30676 47.8409 9.39841 47.7325L11.2648 45.4912C11.3481 45.3913 11.4814 45.3329 11.6189 45.3329C11.6647 45.3329 11.7064 45.3371 11.7522 45.3496L14.7434 46.187C14.7892 46.1995 14.835 46.2078 14.8808 46.2078C15.2141 46.2078 15.4516 45.8579 15.2349 45.5871L13.4102 43.3249C13.3019 43.1875 13.3019 43.0083 13.4102 42.8709L15.2308 40.6004C15.4474 40.3296 15.2141 39.9797 14.8767 39.9797C14.8308 39.9797 14.785 39.9838 14.7392 40.0005L11.748 40.8379C11.7064 40.8504 11.6605 40.8545 11.6147 40.8545C11.4772 40.8545 11.3439 40.7962 11.2606 40.6962L9.39425 38.4549C9.30676 38.3466 9.17345 38.3008 9.04847 38.3008V38.3008Z" fill="#424242"/>
<path d="M23.6628 43.2831C23.117 43.1873 22.7504 42.6666 22.8504 42.1208L30.3825 0.82772C30.4783 0.281978 30.9991 -0.0804615 31.5448 0.0153559C32.0906 0.111173 32.4572 0.63192 32.3572 1.17766L24.8251 42.4749C24.7293 43.0165 24.2085 43.3831 23.6628 43.2831V43.2831Z" fill="url(#paint3_linear_1029_1927)"/>
<path d="M48.3253 20.3492L48.3169 20.0992H48.3128C48.5044 11.7589 41.3972 4.0019 31.3864 2.03139C31.3697 2.02723 31.3531 2.02306 31.3406 2.02306C31.3281 2.01889 31.3156 2.01889 31.3031 2.01473C31.3697 2.02723 31.4364 2.03139 31.5031 2.04389C31.4447 2.03556 31.3864 2.02723 31.3281 2.01473C31.3447 2.01889 31.3614 2.01889 31.3781 2.01889C31.3406 2.01056 31.3031 2.01056 31.2698 2.00223C31.2531 1.99806 31.2406 1.9939 31.2239 1.98973C31.2073 1.98557 31.1906 1.98557 31.1739 1.98557C31.1365 1.97723 31.099 1.9689 31.0573 1.96057C31.0781 1.96474 31.099 1.97307 31.1198 1.97723C31.0448 1.96474 30.9656 1.94391 30.8907 1.93141C30.9698 1.94391 31.0448 1.96474 31.1198 1.97723H31.1073C20.984 0.360837 11.598 5.22669 8.91098 13.1587H8.90682L8.811 13.392C8.6027 13.9044 9.70669 14.8334 11.2814 15.4708C12.6312 16.0166 13.8852 16.1665 14.3476 15.8791C14.2684 16.5873 15.8348 17.6121 17.9428 18.212C20.0675 18.8161 21.9505 18.7619 22.2421 18.1037C22.617 19.1077 24.95 20.2242 27.9037 20.7449C30.8532 21.2657 33.4319 21.0116 34.1276 20.1992C34.1776 20.9157 35.9273 21.6073 38.1311 21.7656C40.2891 21.9197 42.0888 21.5073 42.3013 20.8324C42.6762 21.2407 43.876 21.5115 45.2924 21.4615C46.988 21.399 48.3461 20.9032 48.3253 20.3492Z" fill="url(#paint4_radial_1029_1927)"/>
<path opacity="0.2" d="M27.2371 2.91971C28.4536 2.91971 29.6909 3.0197 30.9073 3.21133L30.949 3.21966L30.974 3.22383H30.9948H31.0031C31.0073 3.22383 31.0156 3.228 31.0198 3.228L31.0365 3.23216L31.0073 3.22383L31.0573 3.23633L31.0948 3.24466L31.1448 3.25716C35.7065 4.15701 39.835 6.38164 42.7595 9.52695C45.5757 12.5556 47.1005 16.23 47.063 19.9002C46.7339 20.0252 46.1131 20.1793 45.2466 20.2085C45.1466 20.2127 45.0508 20.2127 44.9508 20.2127C43.9676 20.2127 43.3552 20.0377 43.1803 19.9419L41.7597 18.3963L41.1806 20.2335C40.9015 20.3626 40.1766 20.5501 39.0268 20.5501C38.7643 20.5501 38.4936 20.5418 38.2228 20.5209C36.7438 20.4126 35.7274 20.0585 35.3566 19.8294L35.1608 17.0757L33.1903 19.3753C33.057 19.4836 32.3612 19.7669 30.8282 19.7669C29.995 19.7669 29.0576 19.6794 28.1245 19.5169C25.2999 19.0212 23.646 18.0464 23.4127 17.6548L22.3462 14.7927L21.2214 17.334C21.109 17.359 20.9215 17.384 20.634 17.384C19.9675 17.384 19.1384 17.2507 18.2886 17.0132C16.8597 16.6091 15.9306 16.0509 15.6224 15.7509L15.8807 13.4513L13.7685 14.7719C13.7435 14.7761 13.7019 14.7761 13.6435 14.7761C13.2769 14.7761 12.5895 14.6553 11.748 14.3136C10.944 13.9887 10.4149 13.6346 10.1483 13.4013C12.3646 7.12734 19.2051 2.91971 27.2371 2.91971M27.2371 1.66992C18.6719 1.66992 11.2481 6.25249 8.91098 13.1597H8.90682L8.811 13.393C8.6027 13.9054 9.70669 14.8344 11.2814 15.4718C12.1813 15.8342 13.0353 16.0217 13.6435 16.0217C13.9476 16.0217 14.1934 15.9759 14.3476 15.8759C14.2684 16.5841 15.8348 17.6089 17.9428 18.2088C18.9343 18.4921 19.8758 18.6296 20.6257 18.6296C21.4797 18.6296 22.0838 18.4505 22.2379 18.1005C22.6129 19.1045 24.9458 20.221 27.8995 20.7417C28.941 20.925 29.9367 21.0125 30.8198 21.0125C32.4362 21.0125 33.6735 20.7209 34.1235 20.196C34.1734 20.9125 35.9231 21.6041 38.1269 21.7624C38.4352 21.7832 38.7352 21.7957 39.0226 21.7957C40.764 21.7957 42.1138 21.4083 42.2971 20.8292C42.6429 21.2042 43.6844 21.4625 44.9466 21.4625C45.0591 21.4625 45.1716 21.4625 45.2841 21.4583C46.9838 21.3958 48.3419 20.9 48.3169 20.3501L48.3086 20.1002H48.3044C48.4961 11.7599 41.3889 4.00287 31.3781 2.03236C31.3614 2.0282 31.3447 2.02403 31.3322 2.02403C31.3198 2.01986 31.3073 2.01986 31.2948 2.0157C31.3614 2.0282 31.4281 2.03236 31.4947 2.04486C31.4364 2.03653 31.3781 2.0282 31.3198 2.0157C31.3364 2.01986 31.3531 2.01986 31.3697 2.01986C31.3323 2.01153 31.2948 2.01153 31.2614 2.0032C31.2448 1.99903 31.2323 1.99487 31.2156 1.9907C31.1989 1.98654 31.1823 1.98654 31.1656 1.98654C31.1281 1.9782 31.0906 1.96987 31.049 1.96154C31.0698 1.96571 31.0906 1.97404 31.1115 1.9782C31.0365 1.96571 30.9573 1.94488 30.8823 1.93238C30.9615 1.94488 31.0365 1.96571 31.1115 1.9782H31.099C29.7992 1.77407 28.5036 1.66992 27.2371 1.66992V1.66992Z" fill="#424242"/>
<path d="M42.343 20.3959C43.5303 11.564 38.6561 3.99863 31.249 2.51554C31.2365 2.51138 31.2198 2.50721 31.2073 2.50721C31.2323 2.51138 31.2615 2.51138 31.2865 2.51554C31.249 2.50721 31.2115 2.50721 31.1782 2.49888C31.1615 2.49471 31.149 2.49055 31.1323 2.48638C31.1157 2.48222 31.099 2.48222 31.0823 2.48222C31.0448 2.47388 31.0074 2.46555 30.9657 2.45722C30.9949 2.46139 31.0198 2.46972 31.0448 2.47805C31.0323 2.47805 31.024 2.47805 31.0115 2.47388C23.5419 1.32824 16.364 6.77317 14.4559 15.4842L14.3601 15.805C14.156 16.5132 15.7641 17.5922 17.947 18.2129C20.0717 18.817 21.9547 18.7628 22.2463 18.1046C22.6212 19.1086 24.9542 20.2251 27.9079 20.7458C30.8574 21.2666 33.4361 21.0125 34.1318 20.2001C34.1818 20.9166 35.9315 21.6082 38.1353 21.7665C40.4016 21.929 42.2805 21.4666 42.3305 20.7292L42.343 20.3959Z" fill="url(#paint5_linear_1029_1927)"/>
<path opacity="0.2" d="M30.9532 3.47372L30.9824 3.47788L30.999 3.48205H31.0032L30.9824 3.47788L31.0115 3.48622L31.024 3.49038L31.0573 3.49871C37.8979 4.86932 42.4679 11.9556 41.3515 20.2626L41.3431 20.3459L41.339 20.4417C40.9599 20.6417 39.8392 20.8875 38.2062 20.7708C37.8187 20.7417 37.4396 20.6958 37.0813 20.6334C35.9649 20.4376 35.3316 20.1293 35.1192 19.9668L33.2153 18.8212L33.3695 19.5502C33.107 19.8418 31.2115 20.3126 28.0828 19.7627C24.9542 19.2128 23.3336 18.1213 23.1878 17.7588L23.7669 16.9673L21.3965 17.5505C21.1423 17.6339 20.4424 17.7047 19.326 17.5089C18.9635 17.4464 18.5928 17.3589 18.222 17.2548C16.6431 16.809 15.6807 16.1924 15.3891 15.8758L15.4141 15.78L15.4266 15.7425L15.4349 15.7008C17.2305 7.50638 23.9585 2.40723 30.8615 3.46539L30.874 3.46955H30.8865L30.9324 3.47372H30.9532M31.2865 2.51554C31.249 2.50721 31.2115 2.50721 31.1782 2.49888C31.1615 2.49471 31.149 2.49055 31.1323 2.48638C31.1157 2.48222 31.099 2.48222 31.0823 2.48222C31.0448 2.47388 31.0074 2.46555 30.9657 2.45722C30.9949 2.46139 31.0198 2.46972 31.0448 2.47805C31.0323 2.47805 31.024 2.47805 31.0115 2.47388C23.5419 1.32824 16.364 6.77317 14.4559 15.4842L14.3601 15.805C14.156 16.5132 15.7641 17.5922 17.947 18.2129C18.3595 18.3296 18.7677 18.4212 19.151 18.492C20.7466 18.7712 22.013 18.6337 22.2463 18.1046C22.6212 19.1086 24.9542 20.2251 27.9079 20.7458C30.8574 21.2666 33.4361 21.0125 34.1318 20.2001C34.1735 20.775 35.315 21.3374 36.9064 21.6165C37.2938 21.6832 37.7021 21.7373 38.1312 21.7665C40.3975 21.929 42.2763 21.4666 42.3263 20.7292L42.343 20.3959C43.5303 11.564 38.6561 3.99863 31.249 2.51554C31.2365 2.51138 31.2198 2.50721 31.2073 2.50721C31.2365 2.50721 31.2615 2.50721 31.2865 2.51554V2.51554Z" fill="#424242"/>
<path d="M34.3902 19.3548C35.8941 10.2938 34.5027 2.57011 31.2199 1.99104C27.9329 1.41613 23.9794 8.19833 22.2922 17.226H22.2839L22.1964 17.7176C22.0048 18.8007 24.5585 20.1588 27.9038 20.7504C31.2491 21.3378 34.1111 20.9379 34.3027 19.8506L34.3235 19.7214C34.3277 19.7172 34.3902 19.3548 34.3902 19.3548V19.3548Z" fill="url(#paint6_radial_1029_1927)"/>
<path opacity="0.2" d="M30.8241 3.20682C30.8866 3.20682 30.9449 3.21099 31.0033 3.22349C32.9488 3.5651 34.711 9.79323 33.1612 19.15C33.1612 19.15 33.1321 19.325 33.1154 19.4291C32.8655 19.5541 32.1697 19.7707 30.8325 19.7707C29.9993 19.7707 29.0619 19.6832 28.1246 19.5166C25.4792 19.05 23.8586 18.171 23.4712 17.7377L23.5253 17.4586C24.2835 13.401 25.5417 9.67241 27.0623 6.9562C28.5995 4.18999 30.0159 3.20682 30.8241 3.20682M30.8241 1.95703C27.6247 1.95703 23.9128 8.55593 22.2922 17.2253H22.2839L22.1964 17.7169C22.0048 18.8001 24.5585 20.1582 27.9038 20.7497C28.9494 20.933 29.9451 21.0205 30.8283 21.0205C32.7738 21.0205 34.1736 20.5956 34.3027 19.8499L34.3235 19.7207L34.386 19.3583C35.8899 10.2973 34.4985 2.5736 31.2157 1.99453C31.0866 1.96953 30.9533 1.95703 30.8241 1.95703V1.95703Z" fill="#424242"/>
<defs>
<linearGradient id="paint0_linear_1029_1927" x1="24.9958" y1="36.6315" x2="24.9958" y2="47.2239" gradientUnits="userSpaceOnUse">
<stop stop-color="#FFE082"/>
<stop offset="0.3144" stop-color="#FFD965"/>
<stop offset="1" stop-color="#FFCA28"/>
</linearGradient>
<linearGradient id="paint1_linear_1029_1927" x1="24.9958" y1="24.9615" x2="24.9958" y2="37.1532" gradientUnits="userSpaceOnUse">
<stop stop-color="#00ACC1"/>
<stop offset="0.075" stop-color="#13B1C4"/>
<stop offset="0.4329" stop-color="#68CAD0"/>
<stop offset="0.6855" stop-color="#9DD9D8"/>
<stop offset="0.808" stop-color="#B2DFDB"/>
<stop offset="1" stop-color="#B2DFDB"/>
</linearGradient>
<linearGradient id="paint2_linear_1029_1927" x1="10.1575" y1="38.24" x2="10.1575" y2="45.4413" gradientUnits="userSpaceOnUse">
<stop stop-color="#FF9E80"/>
<stop offset="1" stop-color="#FF3D00"/>
</linearGradient>
<linearGradient id="paint3_linear_1029_1927" x1="27.603" y1="37.7432" x2="27.603" y2="18.3081" gradientUnits="userSpaceOnUse">
<stop stop-color="#EF5350"/>
<stop offset="1" stop-color="#E53935"/>
</linearGradient>
<radialGradient id="paint4_radial_1029_1927" cx="0" cy="0" r="1" gradientUnits="userSpaceOnUse" gradientTransform="translate(31.1752 1.34434) scale(19.9858 19.9938)">
<stop stop-color="#EF5350"/>
<stop offset="1" stop-color="#D32F2F"/>
</radialGradient>
<linearGradient id="paint5_linear_1029_1927" x1="28.4294" y1="10.4451" x2="28.4294" y2="25.3113" gradientUnits="userSpaceOnUse">
<stop stop-color="#F5F5F5"/>
<stop offset="1" stop-color="#BDBDBD"/>
</linearGradient>
<radialGradient id="paint6_radial_1029_1927" cx="0" cy="0" r="1" gradientUnits="userSpaceOnUse" gradientTransform="translate(30.6896 1.76241) scale(18.809 18.8165)">
<stop stop-color="#EF5350"/>
<stop offset="1" stop-color="#D32F2F"/>
</radialGradient>
</defs>
</svg>
