<svg width="50" height="47" viewBox="0 0 50 47" fill="none" xmlns="http://www.w3.org/2000/svg">
<path d="M24.7391 1.00402C30.9899 1.09619 31.6099 2.51646 33.4408 2.56673C36.0886 2.64214 40.1357 -2.44818 45.6199 2.15196C51.0244 6.68507 46.6212 13.799 46.6212 13.799C46.6212 13.799 49.6293 19.1281 49.9812 27.2475C50.2368 33.1254 47.9744 40.4404 37.8315 44.5881C28.4929 48.409 14.5584 47.6465 6.04102 41.1066C-0.561737 36.0414 -0.0966952 28.651 0.0834562 26.133C0.556877 19.5261 3.44349 14.2179 3.44349 14.2179C3.44349 14.2179 -0.82568 5.77594 4.38614 1.7749C10.1091 -2.61995 14.1813 2.55416 16.5359 2.36563C18.2494 2.22319 18.8108 0.916041 24.7391 1.00402V1.00402Z" fill="#855B52"/>
<path d="M13.2973 5.54545C13.2177 5.08041 10.1844 2.0723 7.04646 5.13068C4.62908 7.48941 7.04646 11.591 7.46123 11.2642C7.77964 11.0128 8.95272 9.5004 10.3227 8.19745C11.7262 6.86097 13.3266 5.7256 13.2973 5.54545V5.54545Z" fill="#B99277"/>
<path d="M36.9768 5.57453C36.9558 5.83428 38.573 6.81045 40.0435 8.1972C41.5308 9.6007 42.8715 11.4106 43.1103 11.3813C43.5837 11.3226 45.6157 7.34252 42.9637 5.10111C40.3117 2.85969 37.0354 4.80784 36.9768 5.57453Z" fill="#B99277"/>
<path d="M25.2504 22.1406C31.3839 22.1406 35.0623 29.0618 34.8445 33.3854C34.6476 37.3194 32.4061 40.5831 24.8565 40.5412C17.3069 40.5035 15.3923 37.0387 15.2624 33.3435C15.1451 30.0421 17.5039 22.1406 25.2504 22.1406V22.1406Z" fill="#F2A258"/>
<path d="M37.1527 21.8563C37.2909 23.5991 36.3567 25.187 34.5677 25.0529C32.8416 24.9189 31.5806 23.5195 31.5806 21.7683C31.5806 20.0171 32.5106 18.7769 33.91 18.5842C35.6193 18.3454 36.9558 19.3802 37.1527 21.8563V21.8563Z" fill="#171716"/>
<path d="M29.4567 29.1001C29.3142 30.8429 28.1579 32.7073 24.7979 32.59C21.9783 32.4894 20.6502 30.6125 20.6083 28.8655C20.5497 26.3978 21.8652 25.4887 25.0534 25.4426C28.69 25.3965 29.6536 26.7036 29.4567 29.1001Z" fill="#2F3030"/>
<path d="M18.4882 22.5042C18.3081 24.2429 16.6742 25.4621 15.145 25.0892C13.4649 24.6786 12.7108 22.9106 13.0627 21.1971C13.377 19.6637 14.7218 18.4697 16.2468 18.6415C17.8389 18.8174 18.7145 20.3131 18.4882 22.5042V22.5042Z" fill="#171716"/>
<path d="M25.0324 36.6604C27.3325 36.6604 28.5894 35.3909 28.9455 35.039C29.3016 34.6871 29.7792 34.0838 30.5166 34.6871C31.145 35.1982 30.5249 35.9942 30.2401 36.3001C29.7289 36.8489 28.1872 38.5247 24.8229 38.3739C21.5216 38.2273 20.2521 36.7316 19.896 36.3797C19.5441 36.0277 18.9534 35.1228 19.6195 34.6117C20.4197 34 20.6795 34.6913 21.5048 35.3574C22.3302 36.0235 22.8497 36.6604 25.0324 36.6604V36.6604Z" fill="#2F3030"/>
</svg>
