<svg width="50" height="50" viewBox="0 0 50 50" fill="none" xmlns="http://www.w3.org/2000/svg">
<path d="M45.5242 49.4899H4.81653C3.19675 49.4899 1.83272 48.339 1.53434 46.7193L0.34082 39.9844H49.9999L48.8064 46.7193C48.5506 48.339 47.144 49.4899 45.5242 49.4899Z" fill="#6D6C6B"/>
<path d="M46.5898 43.0544H3.75089C1.87535 43.0544 0.34082 41.5198 0.34082 39.6443V3.45499C0.34082 1.57945 1.87535 0.0449219 3.75089 0.0449219H46.5898C48.4654 0.0449219 49.9999 1.57945 49.9999 3.45499V39.6443C49.9999 41.5198 48.4654 43.0544 46.5898 43.0544Z" fill="#504F4F"/>
<path d="M15.5583 20.5892H6.1806C4.77394 20.5892 3.62305 19.4383 3.62305 18.0317V4.86028C3.62305 3.45363 4.77394 2.30273 6.1806 2.30273H15.5583C16.9649 2.30273 18.1158 3.45363 18.1158 4.86028V18.0317C18.1158 19.4383 16.9649 20.5892 15.5583 20.5892Z" fill="#E53A35"/>
<path d="M3.49536 37.4694V27.2392C3.49536 25.8325 4.64626 24.6816 6.05291 24.6816H27.4511C28.8577 24.6816 30.0086 25.8325 30.0086 27.2392V37.4694C30.0086 38.876 28.8577 40.0269 27.4511 40.0269H6.05291C4.64626 40.0269 3.49536 38.876 3.49536 37.4694V37.4694Z" fill="#E53A35"/>
<path d="M33.376 37.256V27.4521C33.376 26.0454 34.5269 24.8945 35.9335 24.8945H44.1603C45.567 24.8945 46.7179 26.0454 46.7179 27.4521V37.256C46.7179 38.6627 45.567 39.8136 44.1603 39.8136H35.9335C34.5269 39.8136 33.376 38.6627 33.376 37.256Z" fill="#E53A35"/>
<path d="M44.5865 20.8023H23.572C22.1653 20.8023 21.0144 19.6514 21.0144 18.2448V4.86028C21.0144 3.45363 22.1653 2.30273 23.572 2.30273H44.5439C45.9505 2.30273 47.1014 3.45363 47.1014 4.86028V18.2874C47.144 19.6941 45.9931 20.8023 44.5865 20.8023Z" fill="#E53A35"/>
<path d="M29.4968 29.6347C29.4115 29.4642 29.2836 29.3363 29.1558 29.1658C29.1131 28.2664 28.3842 27.5418 27.5317 27.4565C27.4465 27.4139 27.4038 27.3286 27.3186 27.286C27.2333 26.344 26.4618 25.5767 25.4814 25.5767C25.3962 25.5767 25.3535 25.5767 25.2683 25.5767C24.9273 25.6193 24.5394 25.4488 24.3263 25.1505C23.9852 24.7242 23.4695 24.4642 22.9153 24.4642C22.6596 24.4642 22.4038 24.5068 22.1864 24.6347C21.9307 24.7626 21.5897 24.7199 21.3723 24.5068C21.0313 24.2084 20.6008 24.0379 20.1319 24.0379C19.8335 24.0379 19.5351 24.1232 19.2751 24.2511C19.0193 24.3789 18.6357 24.3789 18.4183 24.1658C18.0773 23.8248 17.6468 23.6543 17.1353 23.6543C16.7516 23.6543 16.4064 23.7822 16.108 23.9527C15.8522 24.1232 15.4686 24.1232 15.2086 23.9527C14.9102 23.7822 14.5692 23.6543 14.2239 23.6543C13.6698 23.6543 13.1967 23.8674 12.8556 24.2511C12.6425 24.5068 12.2589 24.5921 11.9136 24.4642C11.7431 24.4216 11.5726 24.3789 11.4021 24.3789C10.9758 24.3789 10.588 24.5068 10.2896 24.7626C9.94857 25.0183 9.51805 25.1462 9.13441 25.061C9.00654 25.0183 8.87866 25.0183 8.75078 25.0183C7.894 25.0183 7.16936 25.6151 6.95623 26.4292C6.91361 26.4719 6.87098 26.4719 6.82836 26.5145C6.78573 26.5145 6.74311 26.5145 6.70048 26.5145C5.80107 26.5145 5.07644 27.1539 4.90593 28.0533C4.86331 28.0959 4.82068 28.1385 4.73543 28.2238C4.22392 28.2664 3.75077 28.4795 3.45239 28.8632V29.8478V38.2281C3.45239 38.3559 3.45239 38.4838 3.49502 38.6117V38.6969C3.49502 38.8248 3.53764 38.9527 3.58027 39.038V39.0806C3.6229 39.2085 3.66552 39.2937 3.70815 39.379V39.4216C3.75077 39.5495 3.83602 39.6347 3.87865 39.72V39.7626C4.00653 39.9757 4.21966 40.1462 4.39016 40.2741C4.81642 40.5725 5.33219 40.7856 5.92895 40.7856H27.3953C28.5931 40.7856 29.5778 39.9715 29.8761 38.9058C29.8761 38.8632 29.8761 38.8632 29.9188 38.8206C29.9614 38.6501 30.004 38.4369 30.004 38.2238V30.6151V29.8436C29.923 29.7626 29.7099 29.6773 29.4968 29.6347V29.6347Z" fill="url(#paint0_radial_1029_2614)"/>
<path d="M16.2405 30.522C17.4646 30.522 18.457 29.7204 18.457 28.7317C18.457 27.7429 17.4646 26.9414 16.2405 26.9414C15.0163 26.9414 14.0239 27.7429 14.0239 28.7317C14.0239 29.7204 15.0163 30.522 16.2405 30.522Z" fill="#B0BEC5"/>
<path d="M16.2405 29.7544C17.4646 29.7544 18.457 28.9529 18.457 27.9641C18.457 26.9754 17.4646 26.1738 16.2405 26.1738C15.0163 26.1738 14.0239 26.9754 14.0239 27.9641C14.0239 28.9529 15.0163 29.7544 16.2405 29.7544Z" fill="url(#paint1_radial_1029_2614)"/>
<path opacity="0.2" d="M8.40711 36.1506C8.46276 35.8019 7.94251 35.429 7.24509 35.3177C6.54767 35.2063 5.93718 35.3988 5.88153 35.7475C5.82588 36.0962 6.34613 36.4691 7.04355 36.5804C7.74097 36.6917 8.35146 36.4993 8.40711 36.1506Z" fill="#B0BEC5"/>
<path opacity="0.2" d="M11.2333 38.3766C11.2889 38.0279 10.8818 37.673 10.3238 37.584C9.76589 37.4949 9.26848 37.7054 9.21283 38.0542C9.15718 38.4029 9.56436 38.7577 10.1223 38.8468C10.6802 38.9358 11.1776 38.7253 11.2333 38.3766Z" fill="#B0BEC5"/>
<path opacity="0.2" d="M4.39016 34.9546C4.04915 35.1678 3.75077 35.2956 3.45239 35.2956V34.0595C3.53764 33.9742 3.6229 33.9316 3.66552 33.889C4.26228 33.5054 4.90167 33.4201 5.07217 33.7185C5.32793 34.0169 4.98692 34.571 4.39016 34.9546V34.9546Z" fill="#B0BEC5"/>
<path opacity="0.2" d="M4.94464 38.1086C4.77414 38.4069 4.22 38.4496 3.70849 38.1938C3.62324 38.1512 3.53799 38.1512 3.49536 38.0659V36.8724C3.70849 36.8298 4.00687 36.915 4.30525 37.0429C4.81676 37.2987 5.11514 37.7676 4.94464 38.1086V38.1086Z" fill="#90A4AE"/>
<path opacity="0.2" d="M7.48176 40.4528C7.99096 40.1577 8.26019 39.6707 8.0831 39.3652C7.90601 39.0597 7.34966 39.0513 6.84045 39.3464C6.33125 39.6416 6.06202 40.1285 6.23911 40.4341C6.4162 40.7396 6.97255 40.748 7.48176 40.4528Z" fill="#90A4AE"/>
<path opacity="0.2" d="M28.707 37.2527C29.4044 37.1414 29.9247 36.7684 29.869 36.4197C29.8134 36.071 29.2029 35.8786 28.5055 35.9899C27.808 36.1012 27.2878 36.4741 27.3434 36.8228C27.3991 37.1715 28.0096 37.364 28.707 37.2527Z" fill="#B0BEC5"/>
<path opacity="0.2" d="M23.5874 38.8679C24.2848 38.7566 24.805 38.3837 24.7494 38.035C24.6937 37.6863 24.0833 37.4938 23.3858 37.6051C22.6884 37.7164 22.1682 38.0893 22.2238 38.438C22.2795 38.7867 22.89 38.9792 23.5874 38.8679Z" fill="#B0BEC5"/>
<path opacity="0.2" d="M30.0087 33.2487V33.8881C29.7529 34.1013 29.1988 33.9734 28.6446 33.6324C28.0479 33.2487 27.7069 32.6946 27.92 32.3962C28.0905 32.0978 28.7299 32.1831 29.3266 32.5667C29.625 32.7799 29.8808 32.993 30.0087 33.2487V33.2487Z" fill="#B0BEC5"/>
<path opacity="0.2" d="M28.2748 40.4199C28.4518 40.1144 28.1826 39.6275 27.6734 39.3323C27.1642 39.0372 26.6079 39.0456 26.4308 39.3511C26.2537 39.6566 26.5229 40.1436 27.0321 40.4387C27.5413 40.7339 28.0977 40.7255 28.2748 40.4199Z" fill="#90A4AE"/>
<path opacity="0.2" d="M15.3425 40.1137C15.4158 39.7682 15.0085 39.3892 14.4328 39.2671C13.8571 39.145 13.3309 39.326 13.2577 39.6714C13.1844 40.0169 13.5917 40.3959 14.1674 40.518C14.7431 40.6401 15.2692 40.4591 15.3425 40.1137Z" fill="#B0BEC5"/>
<path opacity="0.2" d="M17.3399 37.9366C18.1391 37.8932 18.7715 37.5722 18.7523 37.2196C18.7332 36.867 18.0698 36.6163 17.2706 36.6597C16.4714 36.7031 15.839 37.0241 15.8581 37.3767C15.8773 37.7293 16.5407 37.98 17.3399 37.9366Z" fill="#B0BEC5"/>
<path opacity="0.2" d="M14.3688 36.9899C14.9082 36.7545 15.2309 36.3013 15.0897 35.9776C14.9484 35.654 14.3967 35.5825 13.8573 35.8179C13.3179 36.0533 12.9951 36.5065 13.1364 36.8301C13.2776 37.1538 13.8294 37.2253 14.3688 36.9899Z" fill="#B0BEC5"/>
<path opacity="0.2" d="M11.9308 35.0791C12.0614 34.751 11.724 34.3085 11.1772 34.0908C10.6304 33.8731 10.0812 33.9626 9.95062 34.2907C9.82 34.6188 10.1574 35.0612 10.7042 35.2789C11.251 35.4966 11.8002 35.4072 11.9308 35.0791Z" fill="#B0BEC5"/>
<path opacity="0.2" d="M9.24803 32.506C9.35155 31.9266 9.15368 31.4066 8.80606 31.3445C8.45845 31.2824 8.09273 31.7017 7.9892 32.2811C7.88568 32.8604 8.08356 33.3804 8.43117 33.4425C8.77879 33.5047 9.14451 33.0854 9.24803 32.506Z" fill="#D0D8DC"/>
<path opacity="0.2" d="M15.72 33.4315C15.7733 33.0824 15.3448 32.7274 14.7629 32.6387C14.1811 32.5499 13.6663 32.761 13.613 33.1101C13.5598 33.4592 13.9883 33.8141 14.5701 33.9029C15.1519 33.9916 15.6668 33.7806 15.72 33.4315Z" fill="#D0D8DC"/>
<path opacity="0.2" d="M25.7847 32.1663C26.2872 31.86 26.5456 31.3673 26.3619 31.0658C26.1781 30.7642 25.6217 30.7681 25.1192 31.0743C24.6166 31.3806 24.3582 31.8733 24.542 32.1749C24.7257 32.4764 25.2821 32.4726 25.7847 32.1663Z" fill="#B0BEC5"/>
<path opacity="0.2" d="M6.34535 31.6513C6.47597 31.3233 6.13858 30.8808 5.59177 30.6631C5.04496 30.4454 4.49579 30.5349 4.36517 30.863C4.23455 31.1911 4.57194 31.6335 5.11875 31.8512C5.66557 32.0689 6.21473 31.9794 6.34535 31.6513Z" fill="#B0BEC5"/>
<path opacity="0.2" d="M20.3236 40.4643C20.8467 40.1944 21.1394 39.7213 20.9775 39.4074C20.8156 39.0936 20.2604 39.058 19.7373 39.3278C19.2143 39.5977 18.9215 40.0708 19.0834 40.3846C19.2453 40.6985 19.8006 40.7341 20.3236 40.4643Z" fill="#90A4AE"/>
<path opacity="0.2" d="M20.9029 33.4271C21.5752 33.2108 22.0325 32.763 21.9243 32.4268C21.8162 32.0907 21.1835 31.9936 20.5112 32.2099C19.8389 32.4262 19.3816 32.8741 19.4898 33.2102C19.598 33.5463 20.2306 33.6435 20.9029 33.4271Z" fill="#D0D8DC"/>
<path opacity="0.2" d="M25.5791 28.6954C25.7467 28.3845 25.3785 27.8609 24.7568 27.5259C24.1351 27.1908 23.4953 27.1712 23.3277 27.4821C23.1602 27.7929 23.5284 28.3165 24.1501 28.6516C24.7718 28.9866 25.4116 29.0062 25.5791 28.6954Z" fill="#D0D8DC"/>
<path opacity="0.2" d="M7.81026 29.2035C8.21664 28.9219 8.38304 28.4584 8.18194 28.1681C7.98083 27.8779 7.48837 27.8708 7.082 28.1523C6.67562 28.4339 6.50922 28.8974 6.71032 29.1877C6.91143 29.478 7.40389 29.485 7.81026 29.2035Z" fill="#D0D8DC"/>
<path opacity="0.2" d="M11.9213 32.1429C12.3277 31.8614 12.4941 31.3978 12.293 31.1076C12.0919 30.8173 11.5995 30.8102 11.1931 31.0918C10.7867 31.3733 10.6203 31.8369 10.8214 32.1271C11.0225 32.4174 11.515 32.4245 11.9213 32.1429Z" fill="#D0D8DC"/>
<path opacity="0.2" d="M22.3205 30.3129C22.7269 30.0313 22.8933 29.5678 22.6922 29.2775C22.4911 28.9872 21.9986 28.9802 21.5923 29.2617C21.1859 29.5432 21.0195 30.0068 21.2206 30.2971C21.4217 30.5873 21.9141 30.5944 22.3205 30.3129Z" fill="#D0D8DC"/>
<path opacity="0.2" d="M21.5348 26.4867C21.6652 26.1586 21.3984 25.7446 20.939 25.562C20.4796 25.3795 20.0014 25.4976 19.8711 25.8257C19.7407 26.1539 20.0074 26.5679 20.4669 26.7504C20.9263 26.9329 21.4044 26.8149 21.5348 26.4867Z" fill="#D0D8DC"/>
<path opacity="0.2" d="M10.7773 28.8262C11.2463 28.6697 11.5358 28.2714 11.4241 27.9364C11.3123 27.6014 10.8415 27.4567 10.3726 27.6132C9.90361 27.7696 9.61404 28.168 9.7258 28.503C9.83757 28.838 10.3083 28.9827 10.7773 28.8262Z" fill="#D0D8DC"/>
<path opacity="0.2" d="M13.3271 25.8043C13.3635 25.453 12.9943 25.127 12.5026 25.0761C12.0108 25.0251 11.5827 25.2686 11.5463 25.6199C11.51 25.9711 11.8791 26.2971 12.3709 26.3481C12.8626 26.399 13.2907 26.1555 13.3271 25.8043Z" fill="#D0D8DC"/>
<path opacity="0.2" d="M25.3466 35.4399C26.0183 35.2215 26.4742 34.7722 26.365 34.4364C26.2558 34.1006 25.6229 34.0054 24.9512 34.2237C24.2796 34.4421 23.8236 34.8914 23.9328 35.2272C24.042 35.563 24.675 35.6582 25.3466 35.4399Z" fill="#B0BEC5"/>
<path opacity="0.2" d="M22.1637 36.6281C22.3276 36.3153 21.9532 35.7961 21.3277 35.4684C20.7021 35.1407 20.0621 35.1286 19.8982 35.4414C19.7344 35.7542 20.1087 36.2735 20.7343 36.6012C21.3599 36.9289 21.9999 36.9409 22.1637 36.6281Z" fill="#B0BEC5"/>
<path opacity="0.1" d="M13.5976 29.4132C12.9156 29.6264 12.2762 29.5411 12.191 29.2001C12.0631 28.8591 12.532 28.4328 13.214 28.2197C13.896 28.0066 14.5354 28.0918 14.6206 28.4328C14.7059 28.7312 14.2796 29.2001 13.5976 29.4132Z" fill="#D0D8DC"/>
<path d="M17.2207 6.52221C17.5617 7.41736 17.5617 9.37814 17.5617 9.37814C17.5617 9.37814 14.0238 10.3159 10.7416 10.3159C7.54468 10.3159 3.96411 9.37814 3.96411 9.37814C3.96411 9.37814 3.96411 7.54523 4.30512 6.52221C4.94451 4.5188 6.99054 2.72852 10.7416 2.72852C14.4927 2.72852 16.4535 4.56143 17.2207 6.52221V6.52221Z" fill="url(#paint2_radial_1029_2614)"/>
<path d="M17.5619 9.08081C17.5619 11.1695 15.8569 12.5761 10.7418 12.5761C5.62666 12.5761 3.92163 11.1695 3.92163 9.08081C3.92163 6.99214 6.99069 5.28711 10.7418 5.28711C14.4928 5.28711 17.5619 6.99214 17.5619 9.08081V9.08081Z" fill="url(#paint3_linear_1029_2614)"/>
<path d="M15.8143 8.22834L16.6242 7.88733L16.3258 6.99219L15.6438 7.97258L15.8143 8.22834Z" fill="#568B3E"/>
<path d="M15.0467 8.05715L15.1319 7.28988L14.7057 6.90625L14.5352 8.05715H15.0467Z" fill="#568B3E"/>
<path d="M10.5712 7.46144L10.6565 6.73681L10.2728 6.31055L10.2302 6.90731V7.50407L10.5712 7.46144Z" fill="#568B3E"/>
<path d="M9.2498 7.37664L9.54818 7.50452L9.63343 6.77988L9.16455 6.60938L9.2498 7.37664Z" fill="#568B3E"/>
<path d="M6.86253 7.71614L6.99041 7.11938L6.22314 6.90625L6.35102 7.9719L6.86253 7.71614Z" fill="#568B3E"/>
<path d="M15.4733 6.60777C15.0044 6.26676 14.6208 6.77827 14.7061 6.9914C14.7487 7.1619 14.9192 7.24715 14.8766 7.41766C14.8339 7.58816 14.7061 7.63079 14.4503 7.58816C14.1519 7.58816 14.024 7.37503 13.9814 7.1619C13.8109 6.30939 13.2994 6.09626 12.8732 6.30939C12.5321 6.47989 12.9158 6.77827 12.6174 6.90615C12.2764 7.03403 12.0633 6.94877 11.9354 6.77827C11.8075 6.65039 11.978 6.39464 11.7223 6.09626C11.3386 5.58475 10.3582 5.88313 10.2304 6.26676C10.1025 6.65039 10.4435 6.65039 10.4861 6.90615C10.5287 7.1619 9.93197 7.37503 9.63359 7.24715C9.03683 6.9914 9.67622 7.03403 9.63359 6.65039C9.54834 6.13888 8.8237 6.30939 8.6532 6.39464C8.18431 6.65039 8.35482 6.90615 8.26956 7.07665C8.01381 7.46028 7.63018 7.24716 7.41705 7.11928C7.20392 6.9914 7.16129 6.47989 6.52191 6.69302C6.09565 6.8209 6.26615 7.11928 6.43665 7.33241C6.52191 7.41766 6.47928 7.54554 6.39403 7.63079C5.96777 7.80129 5.66939 7.54554 5.45626 7.41766C5.20051 7.24715 4.77425 7.28978 4.60374 7.50291C4.39062 7.75866 5.07263 7.88654 4.81687 8.1423C4.60374 8.35543 4.30536 8.05705 4.22011 7.92917C3.87911 7.46028 3.28234 8.4833 3.75123 8.56856C4.22011 8.69643 4.13486 9.08007 4.04961 9.25057C3.87911 9.54895 3.5381 8.86694 3.66598 10.0178C3.75123 10.8277 4.30536 11.254 4.73162 11.5524C5.28576 11.936 15.7717 12.4901 17.221 11.6376C17.562 11.4245 18.585 10.0178 18.3293 9.50632C17.9456 8.73906 17.903 9.71945 17.6472 9.42107C17.0931 8.82431 17.9456 8.73906 17.7751 8.35543C17.6472 7.97179 17.5194 8.27017 17.3489 8.1423C17.1357 7.92917 17.221 7.80129 17.3062 7.63079C17.3915 7.46028 16.8374 6.94877 16.4963 6.94877C16.1127 6.94877 16.5816 7.37503 16.3258 7.50291C16.0701 7.63079 15.9422 7.50291 15.6865 7.28978C15.3881 7.03403 15.7717 6.8209 15.4733 6.60777V6.60777Z" fill="url(#paint4_linear_1029_2614)"/>
<path d="M17.2207 11.6378C17.5617 12.5329 17.5617 14.4937 17.5617 14.4937C17.5617 14.4937 14.0238 15.4315 10.7416 15.4315C7.54468 15.4315 3.96411 14.4937 3.96411 14.4937C3.96411 14.4937 3.96411 12.6608 4.30512 11.6378C4.94451 9.63438 6.99054 7.88672 10.7416 7.88672C14.4927 7.88672 16.4535 9.677 17.2207 11.6378V11.6378Z" fill="url(#paint5_radial_1029_2614)"/>
<path d="M17.5619 14.1964C17.5619 16.285 15.8569 17.6917 10.7418 17.6917C5.62666 17.6917 3.92163 16.285 3.92163 14.1964C3.92163 12.1077 6.99069 10.4453 10.7418 10.4453C14.4928 10.4453 17.5619 12.1077 17.5619 14.1964Z" fill="url(#paint6_linear_1029_2614)"/>
<path d="M8.71136 9.03558C9.05848 8.97081 9.31188 8.76823 9.27734 8.5831C9.2428 8.39797 8.9334 8.3004 8.58628 8.36516C8.23916 8.42992 7.98576 8.6325 8.0203 8.81763C8.05484 9.00276 8.36424 9.10034 8.71136 9.03558Z" fill="#FDD836"/>
<path d="M10.6399 8.69583C10.992 8.66896 11.2658 8.49494 11.2515 8.30716C11.2371 8.11937 10.9401 7.98892 10.588 8.0158C10.2359 8.04267 9.96206 8.21668 9.97639 8.40447C9.99072 8.59226 10.2878 8.7227 10.6399 8.69583Z" fill="#FDD836"/>
<path d="M10.0429 9.33646C10.395 9.30958 10.6689 9.13557 10.6545 8.94778C10.6402 8.75999 10.3431 8.62955 9.99105 8.65642C9.63895 8.68329 9.36513 8.85731 9.37947 9.0451C9.3938 9.23288 9.69085 9.36333 10.0429 9.33646Z" fill="#F9BF2C"/>
<path d="M12.6154 9.14666C12.6202 8.95838 12.3379 8.79848 11.9849 8.78951C11.6319 8.78054 11.3418 8.9259 11.337 9.11417C11.3322 9.30245 11.6145 9.46235 11.9676 9.47132C12.3206 9.48029 12.6106 9.33493 12.6154 9.14666Z" fill="#F9BF2C"/>
<path d="M10.8866 9.80515C11.2392 9.78735 11.5174 9.62045 11.5079 9.43236C11.4984 9.24428 11.2048 9.10623 10.8522 9.12402C10.4995 9.14182 10.2213 9.30873 10.2308 9.49681C10.2403 9.6849 10.5339 9.82295 10.8866 9.80515Z" fill="#FDD836"/>
<path d="M13.2894 8.57575C13.3166 8.38939 13.0554 8.19698 12.706 8.14599C12.3566 8.095 12.0513 8.20473 12.0241 8.39109C11.9969 8.57745 12.2581 8.76985 12.6075 8.82084C12.9569 8.87183 13.2622 8.7621 13.2894 8.57575Z" fill="#FDD836"/>
<path d="M7.81858 9.77071C8.13978 9.62399 8.33673 9.36617 8.25847 9.19486C8.18022 9.02356 7.8564 9.00363 7.5352 9.15035C7.214 9.29707 7.01705 9.55489 7.0953 9.72619C7.17355 9.8975 7.49737 9.91743 7.81858 9.77071Z" fill="#F9BF2C"/>
<path d="M12.0205 10.2738C12.3736 10.2738 12.6599 10.1211 12.6599 9.9328C12.6599 9.74447 12.3736 9.5918 12.0205 9.5918C11.6674 9.5918 11.3811 9.74447 11.3811 9.9328C11.3811 10.1211 11.6674 10.2738 12.0205 10.2738Z" fill="#F9BF2C"/>
<path d="M13.9529 9.23905C13.9643 9.05106 13.6878 8.88131 13.3353 8.85991C12.9828 8.83851 12.6878 8.97357 12.6764 9.16156C12.665 9.34955 12.9415 9.5193 13.294 9.5407C13.6465 9.5621 13.9415 9.42705 13.9529 9.23905Z" fill="#F9BF2C"/>
<path d="M7.51683 10.5924C7.85145 10.4797 8.07395 10.2436 8.0138 10.0651C7.95365 9.88662 7.63362 9.83338 7.299 9.94617C6.96438 10.059 6.74188 10.2951 6.80203 10.4735C6.86219 10.652 7.18221 10.7052 7.51683 10.5924Z" fill="#F9A823"/>
<path d="M14.2101 10.047C14.2404 9.86116 13.9825 9.66438 13.6339 9.60753C13.2854 9.55067 12.9783 9.65528 12.948 9.84116C12.9176 10.027 13.1756 10.2238 13.5241 10.2807C13.8727 10.3375 14.1798 10.2329 14.2101 10.047Z" fill="#F9A823"/>
<path d="M15.7304 10.668C15.8039 10.4946 15.6 10.2422 15.2749 10.1043C14.9499 9.96637 14.6267 9.99511 14.5531 10.1685C14.4796 10.3419 14.6835 10.5942 15.0085 10.7322C15.3336 10.8701 15.6568 10.8414 15.7304 10.668Z" fill="#F9A823"/>
<path d="M15.2163 9.54899C15.2726 9.36927 15.045 9.138 14.7081 9.03246C14.3711 8.92691 14.0523 8.98704 13.996 9.16677C13.9397 9.34649 14.1672 9.57775 14.5042 9.6833C14.8412 9.78885 15.16 9.72872 15.2163 9.54899Z" fill="#F9A823"/>
<path d="M6.6183 9.76729C6.92224 9.58748 7.09088 9.31031 6.99499 9.14821C6.89909 8.98611 6.57496 9.00047 6.27102 9.18028C5.96709 9.36009 5.79844 9.63727 5.89434 9.79936C5.99024 9.96146 6.31437 9.9471 6.6183 9.76729Z" fill="#F9A823"/>
<path d="M6.21962 10.7341C6.52356 10.5543 6.6922 10.2771 6.5963 10.115C6.5004 9.95291 6.17628 9.96727 5.87234 10.1471C5.56841 10.3269 5.39976 10.6041 5.49566 10.7662C5.59156 10.9283 5.91569 10.9139 6.21962 10.7341Z" fill="#F9A823"/>
<path d="M16.5816 13.5563L16.4963 12.7891L16.9226 12.8743L16.7947 13.8973L16.5816 13.5563Z" fill="#568B3E"/>
<path d="M5.62654 13.4709L4.81665 13.1299L5.11503 12.2773L5.79704 13.2577L5.62654 13.4709Z" fill="#568B3E"/>
<path d="M6.39385 13.3443L6.30859 12.577L6.73485 12.1934L6.90536 13.3443H6.39385Z" fill="#568B3E"/>
<path d="M10.8694 12.7466L10.7842 11.9793L11.1678 11.5957L11.2104 12.1925V12.7466H10.8694Z" fill="#568B3E"/>
<path d="M12.191 12.6615L11.8926 12.7467L11.8074 12.0221L12.2763 11.8516L12.191 12.6615Z" fill="#568B3E"/>
<path d="M14.5353 13.0033L14.4075 12.4065L15.1747 12.1934L15.0895 13.259L14.5353 13.0033Z" fill="#568B3E"/>
<path d="M5.92485 11.8934C6.39373 11.5524 6.77736 12.0639 6.69211 12.277C6.64948 12.4049 6.47898 12.5328 6.52161 12.7033C6.56423 12.8738 6.69211 12.9164 6.94787 12.8738C7.24625 12.8738 7.37412 12.6606 7.41675 12.4475C7.58725 11.595 8.09876 11.3819 8.52502 11.595C8.86603 11.7655 8.48239 12.0639 8.78078 12.1918C9.12178 12.3196 9.33491 12.2344 9.46279 12.0639C9.59067 11.936 9.42016 11.6802 9.67592 11.3819C10.0595 10.8704 11.0399 11.1687 11.1678 11.5097C11.2957 11.8508 10.9547 11.8508 10.9121 12.1491C10.8694 12.4475 11.4662 12.618 11.7646 12.4901C12.3613 12.2344 11.722 12.277 11.7646 11.8934C11.8498 11.3819 12.5745 11.5524 12.745 11.6376C13.2139 11.8934 13.0434 12.1491 13.1286 12.3196C13.3844 12.7033 13.768 12.4901 13.9811 12.3623C14.1943 12.2344 14.2369 11.7229 14.8763 11.936C15.3025 12.0639 15.132 12.3623 14.9615 12.5754C14.8763 12.6606 14.9189 12.7885 15.0041 12.8738C15.4304 13.0443 15.7288 12.7885 15.9419 12.6606C16.1977 12.5328 16.6239 12.5328 16.7944 12.7459C17.0076 13.0016 16.3255 13.1295 16.5813 13.3853C16.7944 13.5984 17.0928 13.3 17.1781 13.1722C17.5191 12.7033 18.0306 13.5984 17.6469 13.8115C17.1354 14.1099 17.8601 14.1525 17.8601 14.323C17.8601 15.6871 17.2207 16.3691 16.6666 16.7527C16.1124 17.1364 5.62647 17.6905 4.17719 16.838C3.5378 16.4543 3.15417 14.7067 3.58043 14.3657C3.96406 14.0247 3.49517 13.982 3.62305 13.5984C3.75093 13.2148 3.87881 13.5132 4.04931 13.3853C4.26244 13.1722 4.17719 13.0443 4.09194 12.8738C4.04931 12.7033 4.60345 12.1918 4.98708 12.1918C5.37071 12.1918 4.90183 12.618 5.15758 12.7459C5.41334 12.8738 5.54121 12.7459 5.79697 12.5328C6.05272 12.3196 5.66909 12.0639 5.92485 11.8934V11.8934Z" fill="url(#paint7_linear_1029_2614)"/>
<path opacity="0.5" d="M16.752 16.7534C16.1552 17.1371 6.05291 17.7764 4.26263 16.8387C3.53799 16.4124 3.49536 14.7074 3.49536 14.7074L3.83637 14.068C3.83637 14.068 4.30525 15.0058 4.64626 15.1336C4.98727 15.2615 4.26263 13.0024 4.26263 13.0024C4.26263 13.0024 5.58403 14.8779 6.09554 14.9205C6.60705 14.9631 6.52179 12.8745 6.52179 12.8745C6.52179 12.8745 7.28906 15.7304 7.71532 15.773C8.14158 15.8157 8.05632 12.6613 8.43996 12.3203C8.82359 11.9793 9.5056 16.1993 9.97449 16.4124C10.4007 16.6255 10.3155 12.7466 10.7418 12.3203C11.2533 11.8088 10.827 15.6452 11.6369 15.8583C12.4042 16.0714 12.2337 12.7892 13.1288 12.5761C13.5977 12.4482 12.9157 15.7304 13.5977 15.8583C14.7486 16.0288 14.9617 13.2581 15.6011 13.045C15.9847 12.9171 15.5585 15.6452 15.8142 15.8157C16.1552 16.0714 17.9881 14.4516 17.9881 14.4516C17.9881 14.4516 17.9881 15.9862 16.752 16.7534V16.7534Z" fill="url(#paint8_linear_1029_2614)"/>
<path d="M17.5617 19.6088V19.7793C17.4765 19.9072 17.3486 20.0777 17.2207 20.163C16.7092 20.2908 15.7715 20.504 14.6206 20.6745H6.94792C5.7544 20.504 4.774 20.2908 4.30512 20.163C4.17724 20.0777 4.09199 19.9498 3.96411 19.822C3.96411 19.6941 3.96411 19.5236 3.96411 19.3531C3.96411 19.2678 3.96411 19.1826 3.96411 19.0973C3.96411 18.9268 4.00674 18.7137 4.00674 18.5432C4.04936 18.0743 4.13461 17.6054 4.26249 17.2644C4.90188 15.261 6.94792 13.4707 10.699 13.4707C14.4501 13.4707 16.3682 15.261 17.1355 17.2644C17.306 17.6907 17.3912 18.2874 17.4339 18.8842V18.9694C17.5617 19.1399 17.5617 19.3957 17.5617 19.6088C17.5617 19.6088 17.5617 19.5662 17.5617 19.6088Z" fill="url(#paint9_radial_1029_2614)"/>
<path d="M17.5617 19.7804C17.5617 19.7377 17.5617 19.6525 17.5617 19.6099C17.5617 19.3967 17.4765 19.2262 17.4339 19.0131C17.4339 18.9705 17.3912 18.9279 17.3912 18.8852C17.3486 18.7573 17.2634 18.6721 17.2207 18.5442C17.0076 18.2458 16.7519 17.9475 16.4109 17.6917C15.1747 16.7113 13.1287 16.0293 10.7842 16.0293C8.14144 16.0293 5.88227 16.8392 4.73138 18.0753C4.64612 18.1606 4.56087 18.2458 4.51825 18.3311C4.433 18.459 4.34774 18.5868 4.26249 18.7147C4.17724 18.8426 4.13461 18.9705 4.09199 19.0984C4.04936 19.1836 4.04936 19.2689 4.00674 19.3115C3.96411 19.4394 3.96411 19.6099 3.96411 19.7377C3.96411 19.7377 3.96411 19.7804 4.00674 19.7804C4.09199 19.9082 4.21987 20.0361 4.34774 20.1214C4.73138 20.4624 5.20026 20.6329 5.7544 20.6329H7.03317H14.6632H15.8993C16.4109 20.6329 16.9224 20.4624 17.2634 20.1214C17.3486 20.0361 17.4765 19.9082 17.5617 19.7804V19.7804Z" fill="url(#paint10_linear_1029_2614)"/>
<path d="M15.8143 18.9279L16.6242 18.6295L16.3258 17.7344L15.6438 18.7148L15.8143 18.9279Z" fill="#568B3E"/>
<path d="M15.0467 18.7993L15.1319 18.0321L14.7057 17.6484L14.5352 18.7993H15.0467Z" fill="#568B3E"/>
<path d="M10.5712 18.2036L10.6565 17.4364L10.2728 17.0527L10.2302 17.6495V18.2036H10.5712Z" fill="#568B3E"/>
<path d="M9.2498 18.1165L9.54818 18.2018L9.63343 17.4771L9.16455 17.3066L9.2498 18.1165Z" fill="#568B3E"/>
<path d="M6.86253 18.4583L6.99041 17.8616L6.22314 17.6484L6.35102 18.7141L6.86253 18.4583Z" fill="#568B3E"/>
<path d="M17.6471 19.6513C17.6471 19.6939 17.6045 19.7365 17.5619 19.7792C17.4766 19.907 17.3487 20.0775 17.2208 20.1628C16.8372 20.4612 16.3683 20.6743 15.8568 20.6743H5.71187C5.20036 20.6743 4.68885 20.4612 4.30522 20.1628C4.17734 20.0775 4.09209 19.9497 3.96422 19.8218C3.96422 19.8218 3.96422 19.7792 3.92159 19.7792C3.87896 19.6939 3.83634 19.6513 3.79371 19.566C3.87896 19.4808 3.87896 19.3955 3.66583 19.2676C3.53796 19.1824 3.49533 19.0545 3.53796 18.9266C3.53796 18.884 3.53796 18.8414 3.58058 18.7988C3.66583 18.5856 3.87896 18.3725 4.09209 18.543C4.13472 18.543 4.13472 18.5856 4.17734 18.6283C4.17734 18.6283 4.21997 18.7135 4.2626 18.7135C4.39047 18.8414 4.6036 18.9266 4.77411 18.7988C4.98723 18.5856 4.6036 18.4578 4.56098 18.3299C4.56098 18.2873 4.56098 18.2446 4.6036 18.202C4.64623 18.1594 4.73148 18.1167 4.77411 18.0741C4.98723 17.9889 5.24299 17.9889 5.45612 18.1167C5.66925 18.2446 5.96763 18.5004 6.35126 18.3725H6.39389C6.43651 18.3299 6.47914 18.2873 6.47914 18.2446C6.47914 18.202 6.47914 18.1594 6.47914 18.1594V18.1167C6.43651 18.0315 6.35126 17.9889 6.30864 17.9036C6.22338 17.7331 6.26601 17.6052 6.56439 17.52C7.20378 17.3069 7.2464 17.8184 7.45953 17.9462C7.63004 18.0315 7.97104 18.2446 8.2268 17.9889C8.26942 17.9462 8.26942 17.9462 8.31205 17.9036C8.35468 17.8184 8.35467 17.7331 8.35467 17.6052C8.3973 17.4774 8.43993 17.3495 8.69568 17.2216C8.86618 17.1364 9.59082 16.9659 9.67608 17.4774V17.6052C9.59082 17.861 9.20719 17.861 9.63345 18.0741C9.63345 18.0741 9.67608 18.0741 9.67608 18.1167C9.84658 18.202 10.1023 18.1594 10.2728 18.0741C10.4007 18.0315 10.5286 17.9036 10.5286 17.7757C10.5286 17.5626 10.3581 17.52 10.3155 17.3495C10.2728 17.2642 10.2728 17.2216 10.3155 17.0937C10.4007 16.7527 11.3811 16.4543 11.8074 16.9659C12.0631 17.2642 11.8926 17.52 12.0205 17.6479C12.191 17.861 12.3615 17.9036 12.7025 17.7757C13.0009 17.6479 12.6599 17.3495 12.9583 17.179C13.3419 16.9659 13.896 17.179 14.0665 18.0315C14.1092 18.2446 14.2797 18.4578 14.5354 18.4578H14.7059C14.8764 18.4578 14.9617 18.4151 14.9617 18.2873C15.0043 18.1167 14.8764 18.0315 14.7912 17.861C14.7912 17.861 14.7912 17.8184 14.7912 17.7757C14.7912 17.52 15.1322 17.179 15.5584 17.4774C15.8568 17.6905 15.4732 17.9036 15.7289 18.1167C15.8568 18.2446 15.9421 18.3299 16.0699 18.3725C16.1552 18.4151 16.2831 18.4151 16.411 18.3725C16.5815 18.2873 16.411 18.0315 16.411 17.9036C16.411 17.861 16.411 17.8184 16.4962 17.8184H16.5815C16.9651 17.8184 17.5192 18.3299 17.3913 18.5004C17.3487 18.543 17.3061 18.6283 17.3061 18.6709C17.3061 18.7561 17.3061 18.8414 17.434 18.9693C17.4766 18.9693 17.4766 19.0119 17.5192 19.0119C17.5619 19.0119 17.6045 19.0119 17.6897 18.9693H17.775C17.8176 18.9693 17.8602 19.0545 17.9029 19.1824C17.8176 19.3529 17.4766 19.4381 17.6471 19.6513V19.6513Z" fill="url(#paint11_linear_1029_2614)"/>
<path opacity="0.5" d="M17.8602 19.2679C17.8176 19.3958 17.7324 19.5236 17.6471 19.6515C17.6471 19.6941 17.6045 19.7368 17.5619 19.7794C17.4766 19.9073 17.3487 20.0778 17.2208 20.163C16.8372 20.4614 16.3683 20.6745 15.8568 20.6745H5.71187C5.20036 20.6745 4.68885 20.4614 4.30522 20.163C4.17734 20.0778 4.09209 19.9499 3.96422 19.822C3.96422 19.822 3.96422 19.7794 3.92159 19.7794C3.87896 19.6941 3.83634 19.6515 3.79371 19.5663C3.87896 19.481 3.87896 19.3958 3.66583 19.2679C3.53796 19.1826 3.49533 19.0548 3.53796 18.9269H3.58058C3.70846 18.9695 3.83634 19.0121 3.96422 19.0548H4.00684C4.00684 19.0548 4.04947 19.0548 4.04947 19.0974C4.4331 19.3105 4.4331 19.8646 4.77411 19.9925C5.11511 20.1204 4.81673 18.3727 4.77411 18.2022C4.85936 18.3301 5.96763 20.504 6.47914 20.5467C6.82014 20.5893 6.64964 19.3531 6.52176 18.5859C6.47914 18.4154 6.47914 18.2449 6.43651 18.1596C6.43651 18.117 6.43651 18.0744 6.43651 18.0744C6.43651 18.0744 6.43651 18.0744 6.43651 18.0317C6.47914 18.0744 6.52176 18.2875 6.64964 18.5432C6.9054 19.0974 7.37428 19.9073 7.67266 19.9499C8.01367 19.9925 8.01367 18.5859 8.14155 17.8612C8.18417 17.6907 8.2268 17.5629 8.26942 17.4776C8.26942 17.4776 8.26942 17.4776 8.31205 17.435C8.69568 17.094 9.46295 20.3762 9.8892 20.5893C10.2302 20.7598 10.2302 19.14 10.4007 18.1596C10.4433 17.8612 10.5286 17.6481 10.6138 17.5629C11.1254 17.0513 10.7417 19.7794 11.5516 19.9925C12.3189 20.2057 12.0631 17.8186 12.9156 17.6055C13.3845 17.4776 12.8304 19.9073 13.4698 19.9925C14.6207 20.163 14.9617 18.5006 15.6011 18.3301C15.6863 18.2875 15.7289 18.3301 15.7289 18.458V18.8843C15.6863 19.3105 15.5584 19.8646 15.7289 19.9925C15.9847 20.163 16.8798 19.4384 17.3913 18.9695C17.434 18.9269 17.4766 18.8843 17.4766 18.8843L17.5192 18.8416C17.6471 18.7137 17.7324 18.6285 17.7324 18.6285L17.8602 19.2679Z" fill="url(#paint12_linear_1029_2614)"/>
<path d="M8.46889 3.92212C8.84447 3.89346 9.13586 3.69896 9.11973 3.4877C9.10361 3.27644 8.78608 3.12842 8.4105 3.15708C8.03493 3.18575 7.74354 3.38024 7.75966 3.5915C7.77579 3.80276 8.09332 3.95079 8.46889 3.92212Z" fill="#FDD836"/>
<path d="M9.40355 4.34817C9.75565 4.3213 10.0295 4.14729 10.0151 3.9595C10.0008 3.77171 9.70374 3.64127 9.35164 3.66814C8.99954 3.69501 8.72573 3.86903 8.74006 4.05681C8.75439 4.2446 9.05145 4.37505 9.40355 4.34817Z" fill="#F9BF2C"/>
<path d="M11.2589 3.58082C11.2642 3.36901 10.9633 3.18954 10.5868 3.17998C10.2102 3.17041 9.90062 3.33436 9.89524 3.54617C9.88986 3.75798 10.1908 3.93744 10.5673 3.94701C10.9439 3.95658 11.2535 3.79263 11.2589 3.58082Z" fill="#FDD836"/>
<path d="M13.2543 3.99236C13.2591 3.80408 12.9768 3.64418 12.6238 3.63521C12.2708 3.62624 11.9807 3.7716 11.9759 3.95988C11.9712 4.14815 12.2535 4.30805 12.6065 4.31702C12.9595 4.32599 13.2496 4.18063 13.2543 3.99236Z" fill="#F9BF2C"/>
<path d="M10.8866 4.64695C11.2392 4.62915 11.5174 4.46225 11.5079 4.27416C11.4984 4.08607 11.2048 3.94802 10.8522 3.96582C10.4995 3.98362 10.2213 4.15052 10.2308 4.33861C10.2403 4.5267 10.5339 4.66475 10.8866 4.64695Z" fill="#FDD836"/>
<path d="M7.81467 4.61251C8.13587 4.46578 8.33282 4.20797 8.25457 4.03666C8.17632 3.86535 7.8525 3.84542 7.53129 3.99215C7.21009 4.13887 7.01314 4.39668 7.0914 4.56799C7.16965 4.7393 7.49347 4.75923 7.81467 4.61251Z" fill="#F9BF2C"/>
<path d="M7.53026 5.47721C7.86488 5.36442 8.08738 5.12832 8.02723 4.94985C7.96707 4.77139 7.64705 4.71815 7.31243 4.83094C6.97781 4.94372 6.75531 5.17983 6.81546 5.35829C6.87561 5.53676 7.19564 5.59 7.53026 5.47721Z" fill="#F9A823"/>
<path d="M14.2509 4.90056C14.2812 4.71467 14.0233 4.5179 13.6747 4.46104C13.3262 4.40419 13.0191 4.50879 12.9887 4.69468C12.9584 4.88056 13.2164 5.07734 13.5649 5.13419C13.9134 5.19104 14.2206 5.08644 14.2509 4.90056Z" fill="#F9A823"/>
<path d="M15.2515 4.40446C15.3078 4.22473 15.0802 3.99347 14.7432 3.88792C14.4062 3.78238 14.0874 3.84251 14.0311 4.02223C13.9748 4.20196 14.2024 4.43322 14.5394 4.53877C14.8764 4.64432 15.1952 4.58419 15.2515 4.40446Z" fill="#F9A823"/>
<path d="M6.61415 4.60909C6.91809 4.42928 7.08673 4.15211 6.99083 3.99001C6.89494 3.82791 6.57081 3.84227 6.26687 4.02208C5.96294 4.20189 5.79429 4.47906 5.89019 4.64116C5.98609 4.80326 6.31022 4.7889 6.61415 4.60909Z" fill="#F9A823"/>
<path d="M6.21865 5.57589C6.52258 5.39608 6.69123 5.1189 6.59533 4.95681C6.49943 4.79471 6.1753 4.80907 5.87137 4.98888C5.56743 5.16869 5.39879 5.44586 5.49469 5.60796C5.59058 5.77006 5.91471 5.7557 6.21865 5.57589Z" fill="#F9A823"/>
<path d="M9.31834 14.4517C9.67044 14.4248 9.94425 14.2508 9.92992 14.063C9.91559 13.8752 9.61854 13.7448 9.26644 13.7717C8.91434 13.7985 8.64052 13.9725 8.65486 14.1603C8.66919 14.3481 8.96624 14.4786 9.31834 14.4517Z" fill="#FDD836"/>
<path d="M9.40355 15.1333C9.75565 15.1065 10.0295 14.9324 10.0151 14.7447C10.0008 14.5569 9.70374 14.4264 9.35164 14.4533C8.99954 14.4802 8.72573 14.6542 8.74006 14.842C8.75439 15.0298 9.05145 15.1602 9.40355 15.1333Z" fill="#F9BF2C"/>
<path d="M11.9394 14.1525C11.9442 13.9642 11.6619 13.8043 11.3089 13.7954C10.9558 13.7864 10.6658 13.9318 10.661 14.12C10.6562 14.3083 10.9385 14.4682 11.2915 14.4772C11.6446 14.4861 11.9346 14.3408 11.9394 14.1525Z" fill="#FDD836"/>
<path d="M13.2514 14.7873C13.2562 14.599 12.9739 14.4391 12.6209 14.4301C12.2679 14.4212 11.9778 14.5665 11.973 14.7548C11.9682 14.9431 12.2505 15.103 12.6036 15.1119C12.9566 15.1209 13.2466 14.9756 13.2514 14.7873Z" fill="#F9BF2C"/>
<path d="M10.8866 15.4302C11.2392 15.4124 11.5174 15.2455 11.5079 15.0574C11.4984 14.8693 11.2048 14.7312 10.8522 14.749C10.4995 14.7668 10.2213 14.9337 10.2308 15.1218C10.2403 15.3099 10.5339 15.4479 10.8866 15.4302Z" fill="#FDD836"/>
<path d="M13.2831 14.2125C13.3103 14.0261 13.0491 13.8337 12.6997 13.7827C12.3502 13.7317 12.0449 13.8415 12.0177 14.0278C11.9906 14.2142 12.2518 14.4066 12.6012 14.4576C12.9506 14.5086 13.2559 14.3988 13.2831 14.2125Z" fill="#FDD836"/>
<path d="M7.81003 15.3977C8.13123 15.2509 8.32818 14.9931 8.24993 14.8218C8.17168 14.6505 7.84786 14.6306 7.52666 14.7773C7.20545 14.924 7.0085 15.1818 7.08676 15.3531C7.16501 15.5245 7.48883 15.5444 7.81003 15.3977Z" fill="#F9BF2C"/>
<path d="M7.52977 16.2624C7.86439 16.1496 8.08689 15.9135 8.02674 15.735C7.96659 15.5565 7.64656 15.5033 7.31194 15.6161C6.97732 15.7289 6.75482 15.965 6.81497 16.1434C6.87513 16.3219 7.19515 16.3752 7.52977 16.2624Z" fill="#F9A823"/>
<path d="M14.2484 15.6955C14.2788 15.5096 14.0208 15.3128 13.6723 15.256C13.3237 15.1991 13.0166 15.3037 12.9863 15.4896C12.956 15.6755 13.2139 15.8723 13.5625 15.9291C13.911 15.986 14.2181 15.8814 14.2484 15.6955Z" fill="#F9A823"/>
<path d="M16.2262 16.319C16.295 16.1437 16.0841 15.8971 15.7553 15.7682C15.4265 15.6394 15.1043 15.6771 15.0356 15.8524C14.9668 16.0278 15.1777 16.2744 15.5065 16.4032C15.8353 16.5321 16.1575 16.4944 16.2262 16.319Z" fill="#F9A823"/>
<path d="M15.2488 15.1974C15.3051 15.0177 15.0775 14.7864 14.7405 14.6809C14.4035 14.5753 14.0847 14.6355 14.0284 14.8152C13.9721 14.9949 14.1997 15.2262 14.5367 15.3317C14.8737 15.4373 15.1925 15.3772 15.2488 15.1974Z" fill="#F9A823"/>
<path d="M6.64956 15.3767C6.95349 15.1969 7.12213 14.9197 7.02623 14.7576C6.93034 14.5955 6.60621 14.6098 6.30227 14.7897C5.99834 14.9695 5.82969 15.2466 5.92559 15.4087C6.02149 15.5708 6.34562 15.5565 6.64956 15.3767Z" fill="#F9A823"/>
<path d="M6.06606 16.6169C6.36999 16.4371 6.53864 16.1599 6.44274 15.9978C6.34684 15.8357 6.02271 15.8501 5.71878 16.0299C5.41484 16.2097 5.2462 16.4869 5.3421 16.649C5.438 16.8111 5.76213 16.7967 6.06606 16.6169Z" fill="#F9A823"/>
<path d="M46.164 28.19C46.0361 27.2437 45.1367 27.329 45.0515 27.329C44.8809 26.9411 44.4121 26.8984 43.9815 26.8984C43.7684 26.8984 43.5553 26.9411 43.3422 27.0689C43.0864 27.1968 42.8306 27.1968 42.6133 27.0689C42.4001 26.9837 42.1444 26.8984 41.9739 26.8984C41.8034 26.8984 41.5476 26.9411 41.3345 27.0689C41.0787 27.1968 40.823 27.1968 40.6056 27.0689C40.3925 26.9837 40.1367 26.8984 39.9662 26.8984C39.7957 26.8984 39.5399 26.9411 39.3268 27.0689C39.0711 27.1968 38.8153 27.1968 38.5979 27.0689C38.3848 26.9837 38.129 26.8984 37.9585 26.8984C37.788 26.8984 37.5323 26.9411 37.3191 27.0689C37.0634 27.1968 36.8076 27.1968 36.5902 27.0689C36.3771 26.9837 36.1213 26.8984 35.9508 26.8984C35.5246 26.8984 34.9236 26.9411 34.7957 27.329C34.7104 27.329 34.0242 27.4568 33.811 28.1047C33.5126 28.4926 33.3848 28.9232 33.3848 29.4389V38.5353C33.3848 39.7842 34.3694 40.7774 35.6098 40.7774H44.5058C45.7463 40.7774 46.7309 39.7842 46.7309 38.5353V29.4432C46.5476 29.0084 46.4197 28.5353 46.164 28.19V28.19Z" fill="url(#paint13_linear_1029_2614)"/>
<path opacity="0.2" d="M37.4683 30.3072C37.2552 30.3498 36.5732 30.6055 36.36 30.5629C35.5502 30.435 34.9108 29.8809 34.655 29.412C34.4419 29.0284 35.337 28.9858 35.4223 29.1136C35.8059 29.7956 36.9142 29.2841 37.4257 29.3268C38.2356 29.412 38.8323 29.9235 37.4683 30.3072V30.3072Z" fill="#434343"/>
<path d="M38.0221 29.7963C38.0221 29.7963 37.8516 30.0094 36.8712 30.0094L34.3562 27.9633C34.1857 27.7928 34.5267 27.5371 34.7399 27.4092L34.8677 27.324C34.9956 27.2813 35.1235 27.2387 35.2514 27.2813L38.4483 28.1338C38.7041 28.2191 38.7893 28.4322 38.7041 28.6027L38.1499 29.6257C38.1073 29.711 38.0647 29.7536 38.0221 29.7963V29.7963Z" fill="#F47C20"/>
<path d="M36.7433 29.9666L34.953 29.583C34.8677 29.5404 34.7825 29.4977 34.7399 29.4125L34.271 27.9632C34.1857 27.7927 34.4415 27.6222 34.6546 27.6648L37.5532 28.5173C37.7237 28.56 37.7663 28.6878 37.7237 28.8157L37.2974 29.7535C37.2122 29.924 36.999 30.0092 36.7433 29.9666V29.9666Z" fill="#F37021"/>
<path opacity="0.2" d="M37.7238 33.3786C37.9369 33.4638 37.8943 33.8049 38.9599 33.7622C40.0256 33.7196 41.006 33.4212 41.3043 32.8671C41.5175 32.4835 40.6223 32.4408 40.5371 32.5687C40.1534 33.2507 39.0452 32.7392 38.5337 32.7818C37.7664 32.8245 37.4254 33.2507 37.7238 33.3786V33.3786Z" fill="#434343"/>
<path d="M38.406 33.3336L40.921 32.6942L41.0915 31.7565L40.3668 31.1597C40.2816 31.0745 40.1537 31.0318 40.0258 31.0318L38.1076 30.8613C37.8945 30.9466 37.5109 31.4155 37.5961 31.6286L37.724 32.95L38.406 33.3336Z" fill="#F47C20"/>
<path d="M38.7472 33.3341L40.7506 32.9079C40.8785 32.8652 41.0064 32.78 41.049 32.6521L41.2195 32.2685C41.3474 31.9701 41.1342 31.6717 40.8358 31.6291L38.7046 31.4586C38.4488 31.416 38.2357 31.6291 38.2357 31.8848L38.193 32.8652C38.1504 33.1636 38.4488 33.3767 38.7472 33.3341V33.3341Z" fill="#F37021"/>
<path opacity="0.2" d="M42.9242 37.4274C43.1373 37.5127 43.0947 37.8537 44.1604 37.8111C45.226 37.7684 46.2064 37.4701 46.5048 36.9159C46.7179 36.5323 45.8228 36.4897 45.7375 36.6175C45.3539 37.2996 44.2456 36.788 43.7341 36.8307C42.9668 36.8733 42.6258 37.2995 42.9242 37.4274V37.4274Z" fill="#434343"/>
<path d="M43.5639 37.3838L46.0788 36.7444L46.2493 35.8067L45.5247 35.2099C45.4394 35.1247 45.3115 35.082 45.1837 35.082L43.0097 35.423C42.7966 35.5083 42.413 35.9772 42.4982 36.1903L42.8819 37.0002C42.9245 37.0428 43.5639 37.3838 43.5639 37.3838V37.3838Z" fill="#F47C20"/>
<path d="M43.9047 37.3847L45.9081 36.9585C46.036 36.9158 46.1639 36.8306 46.2065 36.7027L46.377 36.3191C46.5049 36.0207 46.2918 35.7223 45.9934 35.6797L43.6063 35.8502C43.3506 35.8076 43.1375 36.0207 43.1375 36.2764L43.3932 36.9158C43.3506 37.2142 43.6063 37.4273 43.9047 37.3847V37.3847Z" fill="#F37021"/>
<path opacity="0.2" d="M38.6619 39.0895C38.4487 39.1748 38.4914 39.5158 37.4257 39.4732C36.3601 39.4305 35.3797 39.1322 35.0813 38.578C34.8682 38.1944 35.7633 38.1518 35.8486 38.2796C36.2322 38.9617 37.3405 38.4501 37.852 38.4928C38.6192 38.5354 38.9602 38.9617 38.6619 39.0895V39.0895Z" fill="#434343"/>
<path d="M38.0223 39.0459L35.5074 38.4065L35.3369 37.4688L36.0616 36.872C36.1468 36.7868 36.2747 36.7441 36.4026 36.7441L38.5765 37.0851C38.7896 37.1704 39.1732 37.6393 39.088 37.8524L38.7044 38.6623C38.6617 38.7049 38.0223 39.0459 38.0223 39.0459V39.0459Z" fill="#F47C20"/>
<path d="M37.6811 39.0468L35.6776 38.6206C35.5498 38.5779 35.4219 38.4927 35.3793 38.3648L35.2088 37.9812C35.0809 37.6828 35.294 37.3844 35.5924 37.3418L37.9794 37.5123C38.2352 37.4697 38.4483 37.6828 38.4483 37.9386L38.1926 38.5779C38.2352 38.8763 37.9794 39.1321 37.6811 39.0468V39.0468Z" fill="#F37021"/>
<path d="M35.6777 30.0956C35.7629 30.2661 36.0613 30.4366 36.0613 30.4366L37.1696 30.2235C37.1696 30.2235 37.2975 30.1382 37.3401 30.0529C37.5106 29.8398 37.0417 28.7315 36.4449 28.9873C35.8482 29.2431 35.5072 29.7546 35.6777 30.0956V30.0956Z" fill="#FCB316"/>
<path d="M36.1933 30.1257C36.3969 30.0671 36.5408 29.9462 36.5147 29.8557C36.4886 29.7652 36.3024 29.7394 36.0989 29.7981C35.8953 29.8567 35.7514 29.9776 35.7774 30.0681C35.8035 30.1586 35.9897 30.1844 36.1933 30.1257Z" fill="#F78F1E"/>
<path d="M41.5603 33.0361C41.2193 32.7377 40.8783 32.9082 40.5373 33.0787C40.3241 33.2066 40.111 33.3771 40.0258 33.6754C39.9405 33.9738 40.7504 34.8263 41.2193 34.3575C41.6882 33.8886 41.8587 33.2918 41.5603 33.0361V33.0361Z" fill="#FCB316"/>
<path d="M41.3238 33.4573C41.4924 33.3291 41.583 33.1644 41.526 33.0894C41.469 33.0145 41.2861 33.0576 41.1174 33.1858C40.9487 33.314 40.8582 33.4787 40.9152 33.5537C40.9722 33.6287 41.1551 33.5855 41.3238 33.4573Z" fill="#F78F1E"/>
<path d="M43.308 39.1311C43.4785 39.5574 43.8195 39.6 44.2031 39.6C44.4589 39.6 44.7147 39.5148 44.9278 39.3443C45.1409 39.1738 44.8425 37.9802 44.2031 38.1934C43.5638 38.3212 43.1375 38.7475 43.308 39.1311Z" fill="#FCB316"/>
<path d="M43.7649 39.2194C43.9746 39.1887 44.1335 39.0883 44.1198 38.9951C44.1062 38.9019 43.9252 38.8513 43.7155 38.882C43.5059 38.9126 43.347 39.013 43.3606 39.1062C43.3743 39.1994 43.5553 39.2501 43.7649 39.2194Z" fill="#F78F1E"/>
<path d="M33.8875 36.4046C34.058 36.8308 34.3991 36.8735 34.7827 36.8735C35.0384 36.8735 35.2942 36.7882 35.5073 36.6177C35.7204 36.4472 35.4221 35.2537 34.7827 35.4668C34.1433 35.5947 33.7597 36.0209 33.8875 36.4046Z" fill="#FCB316"/>
<path d="M34.3826 36.4889C34.5922 36.4582 34.7511 36.3578 34.7375 36.2646C34.7239 36.1715 34.5429 36.1208 34.3332 36.1515C34.1236 36.1822 33.9647 36.2826 33.9783 36.3757C33.9919 36.4689 34.1729 36.5196 34.3826 36.4889Z" fill="#F78F1E"/>
<path opacity="0.2" d="M44.672 29.2426C45.0487 29.2426 45.354 29.0899 45.354 28.9016C45.354 28.7132 45.0487 28.5605 44.672 28.5605C44.2953 28.5605 43.99 28.7132 43.99 28.9016C43.99 29.0899 44.2953 29.2426 44.672 29.2426Z" fill="#434343"/>
<path d="M44.672 28.9011C45.0487 28.9011 45.354 28.5958 45.354 28.2191C45.354 27.8425 45.0487 27.5371 44.672 27.5371C44.2953 27.5371 43.99 27.8425 43.99 28.2191C43.99 28.5958 44.2953 28.9011 44.672 28.9011Z" fill="url(#paint14_radial_1029_2614)"/>
<path opacity="0.2" d="M35.8483 33.5902C36.2249 33.5902 36.5303 33.4375 36.5303 33.2492C36.5303 33.0609 36.2249 32.9082 35.8483 32.9082C35.4716 32.9082 35.1663 33.0609 35.1663 33.2492C35.1663 33.4375 35.4716 33.5902 35.8483 33.5902Z" fill="#434343"/>
<path d="M35.8058 33.2488C36.1825 33.2488 36.4878 32.9434 36.4878 32.5668C36.4878 32.1901 36.1825 31.8848 35.8058 31.8848C35.4291 31.8848 35.1238 32.1901 35.1238 32.5668C35.1238 32.9434 35.4291 33.2488 35.8058 33.2488Z" fill="url(#paint15_radial_1029_2614)"/>
<path opacity="0.2" d="M43.3502 34.6137C43.7269 34.6137 44.0322 34.461 44.0322 34.2726C44.0322 34.0843 43.7269 33.9316 43.3502 33.9316C42.9736 33.9316 42.6682 34.0843 42.6682 34.2726C42.6682 34.461 42.9736 34.6137 43.3502 34.6137Z" fill="#434343"/>
<path d="M43.3502 34.2293C43.7269 34.2293 44.0322 33.9239 44.0322 33.5472C44.0322 33.1706 43.7269 32.8652 43.3502 32.8652C42.9736 32.8652 42.6682 33.1706 42.6682 33.5472C42.6682 33.9239 42.9736 34.2293 43.3502 34.2293Z" fill="url(#paint16_radial_1029_2614)"/>
<path opacity="0.2" d="M40.8356 39.2172C41.2122 39.2172 41.5176 39.0645 41.5176 38.8762C41.5176 38.6878 41.2122 38.5352 40.8356 38.5352C40.4589 38.5352 40.1536 38.6878 40.1536 38.8762C40.1536 39.0645 40.4589 39.2172 40.8356 39.2172Z" fill="#434343"/>
<path d="M40.8356 38.8328C41.2122 38.8328 41.5176 38.5274 41.5176 38.1508C41.5176 37.7741 41.2122 37.4688 40.8356 37.4688C40.4589 37.4688 40.1536 37.7741 40.1536 38.1508C40.1536 38.5274 40.4589 38.8328 40.8356 38.8328Z" fill="url(#paint17_radial_1029_2614)"/>
<path opacity="0.2" d="M44.7569 31.4165C44.7569 31.7149 44.4159 31.8427 43.5634 31.7575C42.9666 31.6722 42.7535 31.7575 42.7535 31.5017C42.7535 31.246 42.7109 30.5213 43.606 30.3935C44.4585 30.223 44.7569 30.9902 44.7569 31.4165V31.4165Z" fill="#434343"/>
<path d="M43.6488 30.9476C44.1603 30.9476 44.6718 31.4591 44.6718 31.4591C44.7144 31.3739 44.6292 30.6066 44.5013 30.5214L43.6488 30.0099C43.5635 29.9672 43.393 29.9672 43.3504 30.0951L42.8389 30.7771L42.8815 31.5018C43.1373 31.587 43.1372 30.9476 43.6488 30.9476V30.9476Z" fill="#AF5C2B"/>
<path d="M43.4783 31.5444C43.5635 31.587 43.8193 31.6296 43.9471 31.6296C44.2029 31.587 44.2029 31.5444 44.5013 31.5444C44.757 31.587 44.6718 31.3739 44.5013 31.246L43.6488 30.7345C43.5635 30.6919 43.393 30.6919 43.3504 30.8197L42.8389 31.5017C43.2225 31.6296 43.3078 31.4591 43.4783 31.5444V31.5444Z" fill="#8B4A22"/>
<path d="M43.5209 30.6918C43.4357 30.6918 43.3931 30.6492 43.3931 30.5639V30.1376C43.3931 30.0524 43.4357 30.0098 43.5209 30.0098C43.6062 30.0098 43.6488 30.0524 43.6488 30.1376V30.5639C43.6488 30.6065 43.6062 30.6918 43.5209 30.6918Z" fill="#C56E39"/>
<path opacity="0.2" d="M41.6029 29.7528C41.6029 30.0512 41.2619 30.179 40.4093 30.0938C39.8126 30.0085 39.5994 30.0938 39.5994 29.838C39.5994 29.5823 39.5568 28.8576 40.452 28.7298C41.3045 28.6019 41.6029 29.3265 41.6029 29.7528V29.7528Z" fill="#434343"/>
<path d="M40.4945 29.3285C41.006 29.3285 41.5175 29.84 41.5175 29.84C41.5601 29.7548 41.4749 28.9875 41.347 28.9022L40.4945 28.3907C40.4092 28.3481 40.2387 28.3481 40.1961 28.476L39.6846 29.158L39.7272 29.8826C39.9403 29.9679 39.9829 29.3285 40.4945 29.3285V29.3285Z" fill="#AF5C2B"/>
<path d="M40.324 29.8823C40.4092 29.9249 40.665 29.9675 40.7928 29.9675C41.0486 29.9249 41.0486 29.8823 41.347 29.8823C41.6027 29.9249 41.5175 29.7118 41.347 29.5839L40.4945 29.0724C40.4092 29.0297 40.2387 29.0297 40.1961 29.1576L39.6846 29.8396C40.0682 30.0101 40.1108 29.8396 40.324 29.8823V29.8823Z" fill="#8B4A22"/>
<path d="M40.3669 29.0297C40.2816 29.0297 40.239 28.987 40.239 28.9018V28.4755C40.239 28.3903 40.2816 28.3477 40.3669 28.3477C40.4521 28.3477 40.4948 28.3903 40.4948 28.4755V28.9018C40.4948 28.987 40.4521 29.0297 40.3669 29.0297Z" fill="#C56E39"/>
<path opacity="0.2" d="M38.1927 35.3387C38.1927 35.6371 37.8517 35.765 36.9992 35.6797C36.4024 35.5945 36.1893 35.6797 36.1893 35.424C36.1893 35.1682 36.1467 34.4436 37.0418 34.3157C37.8943 34.1878 38.1927 34.9125 38.1927 35.3387V35.3387Z" fill="#434343"/>
<path d="M37.0843 34.9125C37.5958 34.9125 38.1073 35.424 38.1073 35.424C38.1499 35.3387 38.0647 34.5715 37.9368 34.4862L37.0843 33.9747C36.9991 33.9321 36.8285 33.9321 36.7859 34.06L36.2744 34.742L36.317 35.4666C36.5728 35.5519 36.5728 34.9125 37.0843 34.9125V34.9125Z" fill="#AF5C2B"/>
<path d="M36.9138 35.4662C36.9991 35.5089 37.2548 35.5515 37.3827 35.5515C37.6384 35.5089 37.6384 35.4662 37.9368 35.4662C38.1926 35.5089 38.1073 35.2957 37.9368 35.1679L37.0843 34.6564C36.9991 34.6137 36.8285 34.6137 36.7859 34.7416L36.2744 35.4236C36.658 35.5941 36.7433 35.381 36.9138 35.4662V35.4662Z" fill="#8B4A22"/>
<path d="M36.9567 34.6137C36.8715 34.6137 36.8289 34.571 36.8289 34.4858V34.0595C36.8289 33.9743 36.8715 33.9316 36.9567 33.9316C37.042 33.9316 37.0846 33.9743 37.0846 34.0595V34.4858C37.0846 34.571 37.042 34.6137 36.9567 34.6137Z" fill="#C56E39"/>
<path opacity="0.2" d="M42.029 15.1326C42.6683 15.9425 43.052 16.8803 43.052 17.9033C43.052 19.0116 42.6257 20.0346 41.8585 20.8445H32.4382C31.6709 20.0346 31.2446 19.0116 31.2446 17.9033C31.2446 16.5819 31.884 15.431 32.8644 14.5358C32.2676 13.9817 31.9266 13.2997 31.9266 12.6177C31.9266 10.6569 34.5694 9.03711 37.8516 9.03711C41.1338 9.03711 43.7766 10.6143 43.7766 12.6177C43.7766 13.5981 43.0946 14.4506 42.029 15.1326V15.1326Z" fill="#212121"/>
<path d="M42.4982 18.5002C42.4982 19.3527 42.1998 20.1626 41.731 20.8446H33.1205C32.609 20.1626 32.3533 19.3527 32.3533 18.5002C32.3533 18.4149 32.3533 18.3723 32.3533 18.287C32.4811 15.9853 34.6977 14.1523 37.4257 14.1523C40.1538 14.1523 42.3277 15.9853 42.4982 18.287V18.5002Z" fill="#1E5F30"/>
<path d="M42.4982 18.033V18.2462C42.4556 19.2266 42.0293 20.1217 41.3473 20.8037H33.5042C32.8222 20.0791 32.3959 19.2266 32.3533 18.2462C32.3533 18.1609 32.3533 18.0757 32.3533 18.033C32.3533 15.6034 34.6124 13.6426 37.4257 13.6426C40.239 13.6426 42.4982 15.6034 42.4982 18.033V18.033Z" fill="#4D803B"/>
<path d="M41.6027 17.9474C41.6027 19.1409 40.9207 20.2066 39.8977 20.846H34.9531C33.9301 20.2066 33.248 19.1409 33.248 17.9474C33.248 15.944 35.1236 14.3242 37.4254 14.3242C39.7272 14.3242 41.6027 15.944 41.6027 17.9474Z" fill="#B7CE7A"/>
<path d="M37.4255 20.5038C39.0734 20.5038 40.4093 19.3587 40.4093 17.9462C40.4093 16.5337 39.0734 15.3887 37.4255 15.3887C35.7775 15.3887 34.4417 16.5337 34.4417 17.9462C34.4417 19.3587 35.7775 20.5038 37.4255 20.5038Z" fill="#B3CA62"/>
<path d="M41.2706 6.92471C42.9162 5.87133 43.5609 3.94053 42.7106 2.61214C41.8603 1.28375 39.8369 1.0608 38.1913 2.11418C36.5457 3.16755 35.901 5.09836 36.7513 6.42675C37.6016 7.75514 39.625 7.97808 41.2706 6.92471Z" fill="#568B3E"/>
<path opacity="0.2" d="M43.2511 17.0566C43.7186 15.6988 41.9503 13.8589 39.3015 12.9471C36.6527 12.0352 34.1265 12.3967 33.6591 13.7544C33.1917 15.1122 34.96 16.9521 37.6088 17.864C40.2575 18.7759 42.7837 18.4144 43.2511 17.0566Z" fill="#212121"/>
<path d="M37.0407 12.8417C39.1137 12.3019 40.222 9.66656 39.516 6.95559C38.8101 4.24463 36.5572 2.4846 34.4841 3.02446C32.411 3.56431 31.3028 6.19962 32.0087 8.91058C32.7147 11.6215 34.9676 13.3816 37.0407 12.8417Z" fill="#1E5F30"/>
<path d="M37.4706 12.748C39.5437 12.2081 40.6519 9.57281 39.946 6.86184C39.24 4.15088 36.9871 2.39085 34.9141 2.93071C32.841 3.47056 31.7327 6.10587 32.4387 8.81683C33.1446 11.5278 35.3975 13.2878 37.4706 12.748Z" fill="#568B3E"/>
<path d="M37.3258 11.8397C39.0343 11.3948 39.9481 9.22425 39.3667 6.99169C38.7854 4.75914 36.929 3.30998 35.2204 3.75492C33.5118 4.19985 32.598 6.37039 33.1794 8.60295C33.7608 10.8355 35.6172 12.2847 37.3258 11.8397Z" fill="#CEE298"/>
<path d="M37.0248 10.6841C38.2322 10.3696 38.8743 8.82201 38.459 7.22733C38.0438 5.63264 36.7283 4.59478 35.5209 4.9092C34.3135 5.22363 33.6714 6.77126 34.0866 8.36595C34.5019 9.96063 35.8174 10.9985 37.0248 10.6841Z" fill="#C4DC72"/>
<path d="M45.1301 7.92205C45.9679 5.97598 44.7363 3.57588 42.3794 2.56127C40.0225 1.54666 37.4328 2.30176 36.595 4.24782C35.7573 6.19389 36.9888 8.59399 39.3457 9.6086C41.7026 10.6232 44.2924 9.86811 45.1301 7.92205Z" fill="#1E5F30"/>
<path d="M45.2737 7.56853C46.1114 5.62247 44.8799 3.22236 42.523 2.20776C40.1661 1.19315 37.5763 1.94824 36.7386 3.89431C35.9008 5.84037 37.1323 8.24047 39.4892 9.25508C41.8461 10.2697 44.4359 9.5146 45.2737 7.56853Z" fill="#568B3E"/>
<path d="M44.569 7.15215C45.2578 5.55206 44.2386 3.57579 42.2925 2.73804C40.3464 1.90029 38.2104 2.51829 37.5216 4.11839C36.8328 5.71849 37.852 7.69476 39.7981 8.53251C41.7441 9.37026 43.8801 8.75225 44.569 7.15215Z" fill="#CEE298"/>
<path d="M43.7857 6.81544C44.3163 5.58293 43.5194 4.05557 42.0058 3.40399C40.4922 2.75241 38.835 3.22334 38.3044 4.45585C37.7739 5.68836 38.5708 7.21571 40.0844 7.8673C41.598 8.51888 43.2551 8.04795 43.7857 6.81544Z" fill="#C4DC72"/>
<path d="M44.2113 15.8304C46.7306 15.3431 48.4468 13.2617 48.0445 11.1816C47.6421 9.10138 45.2736 7.81008 42.7543 8.29737C40.2349 8.78466 38.5188 10.866 38.9211 12.9462C39.3235 15.0264 41.692 16.3177 44.2113 15.8304Z" fill="#1E5F30"/>
<path d="M44.1171 15.1487C46.6364 14.6614 48.3526 12.5801 47.9502 10.4999C47.5479 8.41973 45.1794 7.12844 42.66 7.61573C40.1407 8.10302 38.4246 10.1844 38.8269 12.2645C39.2293 14.3447 41.5977 15.636 44.1171 15.1487Z" fill="#4D803B"/>
<path d="M43.9872 14.3891C46.0674 13.9868 47.4855 12.2741 47.1547 10.5637C46.8239 8.85332 44.8694 7.79296 42.7892 8.19531C40.709 8.59766 39.2909 10.3104 39.6217 12.0207C39.9525 13.7311 41.907 14.7915 43.9872 14.3891Z" fill="#B7CE7A"/>
<path d="M43.8821 13.8465C45.5924 13.5157 46.7579 12.1046 46.4852 10.6947C46.2125 9.28479 44.6049 8.41002 42.8945 8.74084C41.1841 9.07166 40.0187 10.4828 40.2914 11.8927C40.5641 13.3026 42.1717 14.1774 43.8821 13.8465Z" fill="#B3CA62"/>
<path opacity="0.2" d="M27.1955 14.0683C30.4678 14.0683 33.1205 12.5988 33.1205 10.7861C33.1205 8.97339 30.4678 7.50391 27.1955 7.50391C23.9232 7.50391 21.2705 8.97339 21.2705 10.7861C21.2705 12.5988 23.9232 14.0683 27.1955 14.0683Z" fill="#212121"/>
<path d="M42.2434 14.6971C42.9465 13.0264 41.4233 10.791 38.8412 9.70433C36.2592 8.61765 33.5959 9.09115 32.8928 10.7619C32.1896 12.4327 33.7128 14.668 36.2949 15.7547C38.877 16.8414 41.5402 16.3679 42.2434 14.6971Z" fill="#1E5F30"/>
<path d="M42.4033 13.8846C43.1064 12.2139 41.5833 9.97852 39.0012 8.89184C36.4191 7.80515 33.7558 8.27865 33.0527 9.94942C32.3496 11.6202 33.8727 13.8555 36.4548 14.9422C39.0369 16.0289 41.7001 15.5554 42.4033 13.8846Z" fill="#568B3E"/>
<path d="M41.5834 13.488C42.1678 12.0994 40.9178 10.2481 38.7914 9.35321C36.6649 8.4583 34.4674 8.85858 33.8829 10.2473C33.2985 11.636 34.5485 13.4872 36.675 14.3821C38.8014 15.277 40.999 14.8767 41.5834 13.488Z" fill="#F9EBBB"/>
<path d="M40.8366 13.173C41.3115 12.0447 40.3068 10.5452 38.5927 9.82377C36.8785 9.10236 35.1039 9.43222 34.6291 10.5605C34.1542 11.6888 35.1589 13.1883 36.8731 13.9097C38.5872 14.6312 40.3618 14.3013 40.8366 13.173Z" fill="#DEE67C"/>
<path d="M43.313 20.5711C45.6996 20.3069 47.4958 18.8409 47.3249 17.2966C47.154 15.7524 45.0807 14.7146 42.6941 14.9788C40.3075 15.2429 38.5114 16.7089 38.6823 18.2532C38.8532 19.7974 40.9264 20.8352 43.313 20.5711Z" fill="#1E5F30"/>
<path opacity="0.2" d="M44.7145 20.8458H40.793C39.6847 20.4622 38.9174 19.6949 38.7896 18.7572C38.7896 18.7145 38.7896 18.6719 38.7896 18.6293C38.7896 18.544 38.7896 18.4588 38.7896 18.3735C38.8322 17.9047 39.0453 17.4358 39.4289 17.0095C39.8126 16.5833 40.3667 16.157 41.0487 15.9012C41.5602 15.6881 42.157 15.5176 42.7964 15.4324C43.3079 15.3897 43.8194 15.3897 44.2883 15.4324C45.0129 15.5176 45.6523 15.7307 46.1638 16.0291C46.6327 16.3275 47.0163 16.6685 47.2295 17.0948C47.2721 17.18 47.3147 17.2226 47.3147 17.3079C47.3573 17.4358 47.4 17.5637 47.4 17.7342C47.5705 19.0982 46.4196 20.2917 44.7145 20.8458V20.8458Z" fill="#212121"/>
<path d="M43.2276 20.1023C45.6142 19.8382 47.4103 18.3722 47.2394 16.8279C47.0685 15.2836 44.9953 14.2459 42.6087 14.51C40.2221 14.7742 38.4259 16.2402 38.5968 17.7844C38.7677 19.3287 40.841 20.3664 43.2276 20.1023Z" fill="#568B3E"/>
<path d="M43.1805 19.5945C45.1459 19.377 46.6237 18.1574 46.4813 16.8705C46.3389 15.5836 44.6301 14.7167 42.6647 14.9343C40.6993 15.1518 39.2214 16.3714 39.3638 17.6582C39.5063 18.9451 41.215 19.812 43.1805 19.5945Z" fill="#F9EBBB"/>
<path d="M43.1289 19.1281C44.72 18.952 45.9174 17.9747 45.8035 16.9452C45.6896 15.9157 44.3074 15.2238 42.7163 15.3999C41.1253 15.576 39.9278 16.5533 40.0418 17.5828C40.1557 18.6124 41.5379 19.3042 43.1289 19.1281Z" fill="#DEE67C"/>
<path d="M22.7195 10.6998C21.185 8.9521 21.2276 6.99131 21.185 6.43717C21.0571 4.43376 22.1654 4.30588 24.4245 3.41074C27.3657 2.21722 33.5891 1.70571 33.7596 4.43376C34.0154 8.18483 32.3956 10.8276 28.9003 12.1917C26.3427 13.2147 24.1262 12.2769 22.7195 10.6998Z" fill="#CCB795"/>
<path d="M21.5687 8.22825C20.2899 5.79858 21.4835 2.94265 24.4246 1.74913C27.3658 0.555603 32.5235 1.06711 33.5466 3.58204C34.5696 6.09696 31.2021 10.1038 28.1757 10.9137C24.9361 11.7662 22.7196 10.4448 21.5687 8.22825V8.22825Z" fill="url(#paint18_radial_1029_2614)"/>
<path d="M23.4016 7.24706C22.7622 5.6699 23.359 4.00749 25.1493 3.28286C26.9396 2.55822 28.943 3.0271 29.5824 4.56163C30.2217 6.09616 29.2413 8.1422 27.4084 8.86684C25.6182 9.6341 23.9984 8.82421 23.4016 7.24706V7.24706Z" fill="url(#paint19_radial_1029_2614)"/>
<path opacity="0.2" d="M33.0777 20.2916C33.0777 20.4621 33.035 20.6752 32.9924 20.8457H23.5295C22.6343 20.8457 21.8245 20.3769 21.3982 19.6096C21.9523 18.1177 24.3394 16.9668 27.1953 16.9668C30.4349 17.0094 33.0777 18.4587 33.0777 20.2916V20.2916Z" fill="#212121"/>
<path d="M31.1168 20.8463H23.5294C23.3163 20.8463 23.1458 20.8037 22.9326 20.7611C22.8474 20.6758 22.8048 20.6332 22.7195 20.5479C21.6965 19.397 21.3981 18.1609 21.2702 17.3084C21.2276 16.8395 21.185 16.4985 21.185 16.2854C21.0571 14.2819 22.1654 14.1541 24.4245 13.2589C27.11 12.1933 32.6087 11.6391 33.6317 13.6852C33.717 13.8557 33.7596 14.0262 33.7596 14.2393C33.9727 17.1379 33.1202 19.3544 31.1168 20.8463V20.8463Z" fill="#CCB795"/>
<path d="M28.1759 20.8024C28.0907 20.8024 28.0054 20.845 27.9202 20.845H24.8511C23.3592 20.4614 22.2936 19.4384 21.5689 18.0744C21.441 17.8186 21.3132 17.5629 21.2705 17.3071C20.5885 15.0906 21.8247 12.7035 24.4675 11.6379C27.4087 10.4443 32.5664 10.9132 33.5894 13.4708C33.632 13.556 33.632 13.6413 33.6747 13.6839C34.3567 16.2841 31.1171 20.0352 28.1759 20.8024Z" fill="url(#paint20_radial_1029_2614)"/>
<path d="M23.4016 17.0947C22.7622 15.5176 23.359 13.8552 25.1493 13.1305C26.9396 12.4059 28.943 12.8748 29.5824 14.4093C30.2217 15.9438 29.2413 17.9899 27.4084 18.7145C25.6182 19.4818 23.9984 18.6719 23.4016 17.0947V17.0947Z" fill="url(#paint21_radial_1029_2614)"/>
<defs>
<radialGradient id="paint0_radial_1029_2614" cx="0" cy="0" r="1" gradientUnits="userSpaceOnUse" gradientTransform="translate(16.788 22.6356) scale(20.4011 20.4011)">
<stop offset="0.4088" stop-color="white"/>
<stop offset="0.724" stop-color="#ECEFF0"/>
<stop offset="0.9654" stop-color="#D0D8DC"/>
</radialGradient>
<radialGradient id="paint1_radial_1029_2614" cx="0" cy="0" r="1" gradientUnits="userSpaceOnUse" gradientTransform="translate(15.6258 27.4191) scale(1.92076 2.19754)">
<stop offset="0.1384" stop-color="#F47C20"/>
<stop offset="0.8823" stop-color="#E45325"/>
</radialGradient>
<radialGradient id="paint2_radial_1029_2614" cx="0" cy="0" r="1" gradientUnits="userSpaceOnUse" gradientTransform="translate(10.7629 3.82144) scale(6.87814 5.59425)">
<stop offset="0.0529" stop-color="#FFCB28"/>
<stop offset="1" stop-color="#F9A01B"/>
</radialGradient>
<linearGradient id="paint3_linear_1029_2614" x1="10.7418" y1="12.5676" x2="10.7418" y2="5.30416" gradientUnits="userSpaceOnUse">
<stop offset="0.0303" stop-color="#F37021"/>
<stop offset="1" stop-color="#F9A01B"/>
</linearGradient>
<linearGradient id="paint4_linear_1029_2614" x1="10.9741" y1="4.40316" x2="10.9741" y2="12.043" gradientUnits="userSpaceOnUse">
<stop stop-color="#BFCA33"/>
<stop offset="0.8669" stop-color="#679F42"/>
</linearGradient>
<radialGradient id="paint5_radial_1029_2614" cx="0" cy="0" r="1" gradientUnits="userSpaceOnUse" gradientTransform="translate(10.7629 8.9464) scale(6.87814 5.59425)">
<stop offset="0.0574" stop-color="#FFCB28"/>
<stop offset="1" stop-color="#F9A01B"/>
</radialGradient>
<linearGradient id="paint6_linear_1029_2614" x1="10.7418" y1="17.6917" x2="10.7418" y2="10.4283" gradientUnits="userSpaceOnUse">
<stop offset="0.0303" stop-color="#F37021"/>
<stop offset="1" stop-color="#F9A01B"/>
</linearGradient>
<linearGradient id="paint7_linear_1029_2614" x1="10.6302" y1="9.67001" x2="10.6302" y2="17.3098" gradientUnits="userSpaceOnUse">
<stop stop-color="#BFCA33"/>
<stop offset="0.8669" stop-color="#679F42"/>
</linearGradient>
<linearGradient id="paint8_linear_1029_2614" x1="10.7418" y1="16.5292" x2="10.7418" y2="11.461" gradientUnits="userSpaceOnUse">
<stop stop-color="#346A34" stop-opacity="0.6"/>
<stop offset="0.9267" stop-color="#679F42" stop-opacity="0"/>
</linearGradient>
<radialGradient id="paint9_radial_1029_2614" cx="0" cy="0" r="1" gradientUnits="userSpaceOnUse" gradientTransform="translate(10.7629 19.6325) scale(6.82192)">
<stop offset="0.0603" stop-color="#FFCB28"/>
<stop offset="1" stop-color="#F9A01B"/>
</radialGradient>
<linearGradient id="paint10_linear_1029_2614" x1="10.7629" y1="16.0189" x2="10.7629" y2="20.6694" gradientUnits="userSpaceOnUse">
<stop offset="0.0303" stop-color="#F37021"/>
<stop offset="1" stop-color="#F9A01B"/>
</linearGradient>
<linearGradient id="paint11_linear_1029_2614" x1="10.7124" y1="23.3654" x2="10.7124" y2="18.2926" gradientUnits="userSpaceOnUse">
<stop stop-color="#BFCA33"/>
<stop offset="1" stop-color="#679F42"/>
</linearGradient>
<linearGradient id="paint12_linear_1029_2614" x1="10.6911" y1="17.9699" x2="10.6911" y2="21.1767" gradientUnits="userSpaceOnUse">
<stop stop-color="#346A34" stop-opacity="0.6"/>
<stop offset="0.9267" stop-color="#679F42" stop-opacity="0"/>
</linearGradient>
<linearGradient id="paint13_linear_1029_2614" x1="40.0472" y1="39.163" x2="40.0472" y2="25.2839" gradientUnits="userSpaceOnUse">
<stop stop-color="#8D401E"/>
<stop offset="0.6486" stop-color="#BB5B27"/>
</linearGradient>
<radialGradient id="paint14_radial_1029_2614" cx="0" cy="0" r="1" gradientUnits="userSpaceOnUse" gradientTransform="translate(44.5612 28.0785) scale(0.677963)">
<stop offset="0.2043" stop-color="#8BC249"/>
<stop offset="1" stop-color="#679F42"/>
</radialGradient>
<radialGradient id="paint15_radial_1029_2614" cx="0" cy="0" r="1" gradientUnits="userSpaceOnUse" gradientTransform="translate(35.718 32.4193) scale(0.677965)">
<stop offset="0.2043" stop-color="#8BC249"/>
<stop offset="1" stop-color="#679F42"/>
</radialGradient>
<radialGradient id="paint16_radial_1029_2614" cx="0" cy="0" r="1" gradientUnits="userSpaceOnUse" gradientTransform="translate(43.2309 33.4151) scale(0.677963)">
<stop offset="0.2043" stop-color="#8BC249"/>
<stop offset="1" stop-color="#679F42"/>
</radialGradient>
<radialGradient id="paint17_radial_1029_2614" cx="0" cy="0" r="1" gradientUnits="userSpaceOnUse" gradientTransform="translate(40.729 38.0186) scale(0.677963)">
<stop offset="0.2043" stop-color="#8BC249"/>
<stop offset="1" stop-color="#679F42"/>
</radialGradient>
<radialGradient id="paint18_radial_1029_2614" cx="0" cy="0" r="1" gradientUnits="userSpaceOnUse" gradientTransform="translate(24.7124 3.68211) scale(11.2396 11.3104)">
<stop offset="0.4485" stop-color="#FFF3E1"/>
<stop offset="1" stop-color="#FFE0B2"/>
</radialGradient>
<radialGradient id="paint19_radial_1029_2614" cx="0" cy="0" r="1" gradientUnits="userSpaceOnUse" gradientTransform="translate(26.5184 6.31545) scale(3.20086 3.22102)">
<stop stop-color="#F36E21"/>
<stop offset="1" stop-color="#FAAA43"/>
</radialGradient>
<radialGradient id="paint20_radial_1029_2614" cx="0" cy="0" r="1" gradientUnits="userSpaceOnUse" gradientTransform="translate(24.7134 18.3857) scale(11.2275)">
<stop offset="0.4485" stop-color="#FFF3E1"/>
<stop offset="1" stop-color="#FFE0B2"/>
</radialGradient>
<radialGradient id="paint21_radial_1029_2614" cx="0" cy="0" r="1" gradientUnits="userSpaceOnUse" gradientTransform="translate(26.5184 16.172) scale(3.20086 3.22102)">
<stop stop-color="#F36E21"/>
<stop offset="1" stop-color="#FAAA43"/>
</radialGradient>
</defs>
</svg>
