<svg width="50" height="59" viewBox="0 0 50 59" fill="none" xmlns="http://www.w3.org/2000/svg">
<path d="M48.9198 43.1918C48.9246 43.0996 48.9295 43.0025 48.9295 42.9103C48.9295 42.818 48.9198 42.7209 48.9198 42.6287V27.2461H1.0293V43.9927H1.10696C1.97584 51.9583 12.3296 58.2492 24.9842 58.2492C37.6389 58.2492 47.9975 51.9583 48.8615 43.9927H48.9149V43.1918H48.9198Z" fill="url(#paint0_radial_1029_1136)"/>
<path opacity="0.2" d="M47.949 28.2169V42.6287V42.6578C47.949 42.7064 47.9538 42.7501 47.9538 42.7986C47.9538 42.8374 47.9587 42.8763 47.9587 42.9151C47.9587 42.9539 47.9538 42.9928 47.9538 43.0316C47.949 43.0801 47.949 43.1238 47.949 43.1724V43.2015V43.6772C47.9247 43.7452 47.9101 43.818 47.9004 43.8956C47.0801 51.3952 37.0175 57.2784 24.9842 57.2784C12.951 57.2784 2.88841 51.3952 2.06807 43.8859C2.05836 43.7888 2.03409 43.6966 1.99526 43.6092V28.2169H47.949ZM48.9198 27.2461H1.0293V43.9927H1.10696C1.97584 51.9583 12.3296 58.2492 24.9842 58.2492C37.6389 58.2492 47.9975 51.9583 48.8615 43.9927H48.9149V43.1918C48.9198 43.0996 48.9246 43.0025 48.9246 42.9103C48.9246 42.8132 48.9149 42.7209 48.9149 42.6287V27.2461H48.9198Z" fill="#434343"/>
<path d="M49.9583 25.7402H0V33.0942V33.1039V33.1136V36.5843C0 36.5843 1.41254 42.7247 5.34921 41.8995C10.446 40.8268 9.83925 47.5642 15.9845 48.4428C23.1346 49.4622 22.5036 44.5547 29.8284 47.7487C37.4396 51.0689 39.0366 42.3412 43.6723 43.3218C50.8709 44.8459 49.9632 36.5891 49.9632 36.5891V25.7402H49.9583Z" fill="url(#paint1_radial_1029_1136)"/>
<path d="M24.9792 41.6432C38.7748 41.6432 49.9583 34.7953 49.9583 26.348C49.9583 17.9006 38.7748 11.0527 24.9792 11.0527C11.1836 11.0527 0 17.9006 0 26.348C0 34.7953 11.1836 41.6432 24.9792 41.6432Z" fill="url(#paint2_radial_1029_1136)"/>
<path opacity="0.2" d="M24.9792 12.0236C31.3089 12.0236 37.2891 13.4943 41.818 16.1738C46.1964 18.761 48.7351 22.1783 48.9632 25.8092C48.9681 25.8626 48.9729 25.916 48.9875 25.9694V36.595C48.9875 36.6289 48.9875 36.6678 48.9924 36.7018C49.0894 37.5804 49.07 40.1676 47.8274 41.551C47.2255 42.2209 46.4051 42.5461 45.3178 42.5461C44.8761 42.5461 44.3858 42.4878 43.8616 42.381C43.5558 42.3179 43.2451 42.284 42.9393 42.284C40.9977 42.284 39.5512 43.5946 38.1532 44.8615C36.629 46.2401 35.1922 47.5458 33.0709 47.5458C32.2021 47.5458 31.2361 47.3177 30.207 46.8711C28.3673 46.0702 26.8868 45.6964 25.5422 45.6964C24.0375 45.6964 22.955 46.1769 21.9065 46.6381C20.7561 47.1478 19.6688 47.6283 17.8582 47.6283C17.3194 47.6283 16.7321 47.5846 16.1156 47.4973C13.4944 47.1235 12.2857 45.5168 11.1159 43.9635C9.95089 42.4247 8.75193 40.8277 6.37828 40.8277C5.98995 40.8277 5.5725 40.8714 5.14534 40.9637C4.97059 41.0025 4.79584 41.0219 4.63081 41.0219C2.30084 41.0219 1.14557 37.1386 0.970819 36.4785V33.1291V33.1194V33.1097V26.3577V26.3431V26.3334V25.9597C0.980527 25.9111 0.990235 25.8577 0.995089 25.8043C1.22323 22.1783 3.76192 18.7562 8.14031 16.1689C12.6692 13.4943 18.6494 12.0236 24.9792 12.0236M24.9792 11.0527C11.5139 11.0527 0.543659 17.5766 0.0242706 25.7412H0V26.3334V26.348V26.3625V33.1049V33.1146V33.1243V36.595C0 36.595 1.23779 41.9879 4.63081 41.9879C4.85895 41.9879 5.0968 41.9636 5.34436 41.9102C5.71812 41.8325 6.06276 41.7937 6.37828 41.7937C10.3878 41.7937 10.2858 47.638 15.9797 48.4487C16.6738 48.5457 17.3 48.5894 17.8631 48.5894C21.625 48.5894 22.7463 46.6575 25.5471 46.6575C26.6344 46.6575 27.9741 46.9488 29.8235 47.7545C31.0516 48.2885 32.1244 48.5118 33.0758 48.5118C37.7114 48.5118 39.5414 43.2499 42.9442 43.2451C43.1772 43.2451 43.415 43.2693 43.6674 43.3227C44.2742 43.4489 44.8227 43.5121 45.3227 43.5121C50.7204 43.5121 49.9583 36.5901 49.9583 36.5901V25.7412H49.9341C49.4147 17.5766 38.4444 11.0527 24.9792 11.0527V11.0527Z" fill="#434343"/>
<path d="M35.4639 16.4692C35.4639 18.5225 33.7989 19.0759 31.7505 19.0759C29.7021 19.0759 28.0371 18.5225 28.0371 16.4692C28.0371 14.416 29.7021 12.7559 31.7505 12.7559C33.7989 12.7559 35.4639 14.4208 35.4639 16.4692Z" fill="url(#paint3_radial_1029_1136)"/>
<path d="M21.9648 16.4692C21.9648 18.5225 20.2999 19.0759 18.2515 19.0759C16.203 19.0759 14.5381 18.5225 14.5381 16.4692C14.5381 14.416 16.203 12.7559 18.2515 12.7559C20.2999 12.7559 21.9648 14.4208 21.9648 16.4692Z" fill="url(#paint4_radial_1029_1136)"/>
<path d="M21.9258 12.6602H27.8575V23.9799H21.9258V12.6602Z" fill="#44B3E6"/>
<path d="M24.892 14.7381C26.5434 14.7381 27.8821 13.9188 27.8821 12.9081C27.8821 11.8974 26.5434 11.0781 24.892 11.0781C23.2406 11.0781 21.9019 11.8974 21.9019 12.9081C21.9019 13.9188 23.2406 14.7381 24.892 14.7381Z" fill="#84D2F6"/>
<path d="M24.892 25.5233C26.5434 25.5233 27.8821 24.704 27.8821 23.6933C27.8821 22.6826 26.5434 21.8633 24.892 21.8633C23.2406 21.8633 21.9019 22.6826 21.9019 23.6933C21.9019 24.704 23.2406 25.5233 24.892 25.5233Z" fill="#44B3E6"/>
<path opacity="0.2" d="M24.892 11.5635C26.2754 11.5635 27.2365 12.1751 27.3676 12.7673C27.3676 12.7722 27.3724 12.7819 27.3724 12.7868C27.3724 12.7965 27.3724 12.811 27.3773 12.8207C27.3821 12.845 27.387 12.8741 27.3918 12.9081L27.3773 12.9955C27.3724 13.0149 27.3724 13.0392 27.3724 13.0634V23.5434C27.3724 23.5677 27.3724 23.5871 27.3773 23.6114C27.3821 23.6357 27.387 23.6648 27.3918 23.6988L27.3773 23.7861C27.3724 23.8056 27.3724 23.8201 27.3724 23.8395C27.3676 23.8492 27.3676 23.8541 27.3676 23.8638C27.2171 24.4463 26.2511 25.0434 24.8968 25.0434C23.5377 25.0434 22.5717 24.4414 22.4212 23.8638C22.4212 23.8541 22.4164 23.8492 22.4164 23.8395C22.4164 23.8201 22.4164 23.8007 22.4115 23.7861C22.4067 23.7619 22.4018 23.7327 22.397 23.6988L22.4115 23.6114C22.4164 23.592 22.4164 23.5677 22.4164 23.5434V13.0586C22.4164 13.0343 22.4164 13.0149 22.4115 12.9906C22.4067 12.9664 22.4018 12.9372 22.397 12.9033L22.4115 12.8159C22.4115 12.8062 22.4164 12.7916 22.4164 12.7819C22.4164 12.7771 22.4212 12.7674 22.4212 12.7625C22.5523 12.1752 23.5134 11.5635 24.892 11.5635M24.892 11.0781C23.3775 11.0781 22.1446 11.7674 21.9407 12.6606H21.9261V12.7576C21.9213 12.811 21.9019 12.8596 21.9019 12.9081C21.9019 12.9615 21.9213 13.0101 21.9261 13.0586V23.5386C21.9213 23.592 21.9019 23.6405 21.9019 23.6891C21.9019 23.7425 21.9213 23.791 21.9261 23.8395V23.9755H21.9504C22.1737 24.8492 23.4018 25.5191 24.892 25.5191C26.3822 25.5191 27.6103 24.8492 27.8336 23.9755H27.8578V23.8395C27.8627 23.791 27.8821 23.7376 27.8821 23.6891C27.8821 23.6357 27.8627 23.5871 27.8578 23.5386V13.0586C27.8627 13.0101 27.8821 12.9567 27.8821 12.9081C27.8821 12.8547 27.8627 12.8062 27.8578 12.7576V12.6606H27.8433C27.6442 11.7674 26.4065 11.0781 24.892 11.0781Z" fill="#434343"/>
<path d="M28.8335 8.03352C28.8335 11.6207 26.6346 12.9993 24.9988 12.9993C23.3678 12.9993 21.1641 11.6207 21.1641 8.03352C21.1641 4.44635 23.3678 0 24.9988 0C26.6298 0 28.8335 4.44149 28.8335 8.03352Z" fill="url(#paint5_radial_1029_1136)"/>
<path d="M20.6494 32.5122C20.6494 34.5655 18.9845 35.1189 16.936 35.1189C14.8876 35.1189 13.2227 34.5655 13.2227 32.5122C13.2227 30.4589 14.8876 28.7988 16.936 28.7988C18.9845 28.7988 20.6494 30.4638 20.6494 32.5122Z" fill="url(#paint6_radial_1029_1136)"/>
<path d="M12.1597 25.2017C12.1597 27.2549 10.4947 27.8083 8.44629 27.8083C6.39786 27.8083 4.73291 27.2549 4.73291 25.2017C4.73291 23.1484 6.39786 21.4883 8.44629 21.4883C10.4947 21.4883 12.1597 23.1484 12.1597 25.2017Z" fill="url(#paint7_radial_1029_1136)"/>
<path d="M46.041 25.7466C46.041 27.7999 44.3761 28.3532 42.3276 28.3532C40.2744 28.3532 38.6143 27.7999 38.6143 25.7466C38.6143 23.6933 40.2792 22.0332 42.3276 22.0332C44.3809 22.0284 46.041 23.6933 46.041 25.7466Z" fill="url(#paint8_radial_1029_1136)"/>
<path d="M9.7666 16.9883H15.6983V28.308H9.7666V16.9883Z" fill="#44B3E6"/>
<path d="M12.7323 19.0662C14.3837 19.0662 15.7224 18.2469 15.7224 17.2362C15.7224 16.2256 14.3837 15.4062 12.7323 15.4062C11.0809 15.4062 9.74219 16.2256 9.74219 17.2362C9.74219 18.2469 11.0809 19.0662 12.7323 19.0662Z" fill="#84D2F6"/>
<path d="M12.7323 29.8533C14.3837 29.8533 15.7224 29.034 15.7224 28.0234C15.7224 27.0127 14.3837 26.1934 12.7323 26.1934C11.0809 26.1934 9.74219 27.0127 9.74219 28.0234C9.74219 29.034 11.0809 29.8533 12.7323 29.8533Z" fill="#44B3E6"/>
<path opacity="0.2" d="M12.7323 15.8917C14.1157 15.8917 15.0768 16.5033 15.2079 17.0955C15.2079 17.1003 15.2128 17.11 15.2128 17.1149C15.2128 17.1246 15.2127 17.1392 15.2176 17.1489C15.2225 17.1731 15.2273 17.2023 15.2322 17.2362L15.2176 17.3236C15.2127 17.343 15.2128 17.3673 15.2128 17.3916V27.8716C15.2128 27.8958 15.2127 27.9152 15.2176 27.9395C15.2225 27.9638 15.2273 27.9929 15.2322 28.0269L15.2176 28.1143C15.2127 28.1337 15.2128 28.1482 15.2128 28.1677C15.2079 28.1774 15.2079 28.1822 15.2079 28.1919C15.0574 28.7744 14.0915 29.3715 12.7372 29.3715C11.378 29.3715 10.4121 28.7696 10.2616 28.1919C10.2616 28.1822 10.2567 28.1774 10.2567 28.1677C10.2567 28.1482 10.2567 28.1288 10.2519 28.1143C10.247 28.09 10.2422 28.0609 10.2373 28.0269L10.2519 27.9395C10.2567 27.9201 10.2567 27.8958 10.2567 27.8716V17.3867C10.2567 17.3624 10.2567 17.343 10.2519 17.3188C10.247 17.2945 10.2422 17.2654 10.2373 17.2314L10.2519 17.144C10.2519 17.1343 10.2567 17.1197 10.2567 17.11C10.2567 17.1052 10.2616 17.0955 10.2616 17.0906C10.3878 16.5033 11.3489 15.8917 12.7323 15.8917M12.7323 15.4062C11.2178 15.4062 9.98489 16.0955 9.78102 16.9887H9.76646V17.0858C9.7616 17.1392 9.74219 17.1877 9.74219 17.2362C9.74219 17.2896 9.7616 17.3382 9.76646 17.3867V27.8667C9.7616 27.9201 9.74219 27.9686 9.74219 28.0172C9.74219 28.0657 9.7616 28.1191 9.76646 28.1677V28.3036H9.79073C10.014 29.1773 11.2421 29.8472 12.7323 29.8472C14.2225 29.8472 15.4506 29.1773 15.6739 28.3036H15.6982V28.1677C15.703 28.1191 15.7224 28.0657 15.7224 28.0172C15.7224 27.9638 15.703 27.9152 15.6982 27.8667V17.3867C15.703 17.3382 15.7224 17.2848 15.7224 17.2362C15.7224 17.1828 15.703 17.1343 15.6982 17.0858V16.9887H15.6787C15.4797 16.0955 14.2419 15.4062 12.7323 15.4062V15.4062Z" fill="#434343"/>
<path d="M16.669 12.3636C16.669 15.9508 14.4701 17.3293 12.8342 17.3293C11.1984 17.3293 8.99951 15.9508 8.99951 12.3636C8.99951 8.77643 11.1984 4.33008 12.8342 4.33008C14.4701 4.33008 16.669 8.77157 16.669 12.3636V12.3636Z" fill="url(#paint9_radial_1029_1136)"/>
<path d="M34.1582 16.9883H40.0899V28.308H34.1582V16.9883Z" fill="#44B3E6"/>
<path d="M37.1239 19.0662C38.7753 19.0662 40.114 18.2469 40.114 17.2362C40.114 16.2256 38.7753 15.4062 37.1239 15.4062C35.4725 15.4062 34.1338 16.2256 34.1338 17.2362C34.1338 18.2469 35.4725 19.0662 37.1239 19.0662Z" fill="#84D2F6"/>
<path d="M37.1239 29.8533C38.7753 29.8533 40.114 29.034 40.114 28.0234C40.114 27.0127 38.7753 26.1934 37.1239 26.1934C35.4725 26.1934 34.1338 27.0127 34.1338 28.0234C34.1338 29.034 35.4725 29.8533 37.1239 29.8533Z" fill="#44B3E6"/>
<path opacity="0.2" d="M37.1239 15.8917C38.5073 15.8917 39.4684 16.5033 39.5995 17.0955C39.5995 17.1003 39.6044 17.11 39.6044 17.1149C39.6044 17.1246 39.6044 17.1392 39.6092 17.1489C39.6141 17.1731 39.6189 17.2023 39.6238 17.2362L39.6092 17.3236C39.6044 17.343 39.6044 17.3673 39.6044 17.3916V27.8716C39.6044 27.8958 39.6044 27.9152 39.6092 27.9395C39.6141 27.9638 39.6189 27.9929 39.6238 28.0269L39.6092 28.1143C39.6044 28.1337 39.6044 28.1482 39.6044 28.1677C39.5995 28.1774 39.5995 28.1822 39.5995 28.1919C39.449 28.7744 38.4831 29.3715 37.1288 29.3715C35.7696 29.3715 34.8037 28.7696 34.6532 28.1919C34.6532 28.1822 34.6483 28.1774 34.6483 28.1677C34.6483 28.1482 34.6483 28.1288 34.6435 28.1143C34.6386 28.09 34.6338 28.0609 34.6289 28.0269L34.6435 27.9395C34.6483 27.9201 34.6483 27.8958 34.6483 27.8716V17.3867C34.6483 17.3624 34.6483 17.343 34.6435 17.3188C34.6386 17.2945 34.6338 17.2654 34.6289 17.2314L34.6435 17.144C34.6435 17.1343 34.6483 17.1197 34.6483 17.11C34.6483 17.1052 34.6532 17.0955 34.6532 17.0906C34.7794 16.5033 35.7405 15.8917 37.1239 15.8917M37.1239 15.4062C35.6094 15.4062 34.3765 16.0955 34.1726 16.9887H34.1581V17.0858C34.1532 17.1392 34.1338 17.1877 34.1338 17.2362C34.1338 17.2896 34.1532 17.3382 34.1581 17.3867V27.8667C34.1532 27.9201 34.1338 27.9686 34.1338 28.0172C34.1338 28.0657 34.1532 28.1191 34.1581 28.1677V28.3036H34.1823C34.4056 29.1773 35.6337 29.8472 37.1239 29.8472C38.6141 29.8472 39.8422 29.1773 40.0655 28.3036H40.0898V28.1677C40.0946 28.1191 40.114 28.0657 40.114 28.0172C40.114 27.9638 40.0946 27.9152 40.0898 27.8667V17.3867C40.0946 17.3382 40.114 17.2848 40.114 17.2362C40.114 17.1828 40.0946 17.1343 40.0898 17.0858V16.9887H40.0752C39.8713 16.0955 38.6335 15.4062 37.1239 15.4062V15.4062Z" fill="#434343"/>
<path d="M41.0606 12.3636C41.0606 15.9508 38.8617 17.3293 37.2258 17.3293C35.5949 17.3293 33.3911 15.9508 33.3911 12.3636C33.3911 8.77643 35.59 4.33008 37.2258 4.33008C38.8617 4.33008 41.0606 8.77157 41.0606 12.3636V12.3636Z" fill="url(#paint10_radial_1029_1136)"/>
<path d="M37.2842 32.2993C37.2842 34.3526 35.6192 34.906 33.5708 34.906C31.5175 34.906 29.8574 34.3526 29.8574 32.2993C29.8574 30.246 31.5224 28.5859 33.5708 28.5859C35.6241 28.5811 37.2842 30.246 37.2842 32.2993Z" fill="url(#paint11_radial_1029_1136)"/>
<defs>
<radialGradient id="paint0_radial_1029_1136" cx="0" cy="0" r="1" gradientUnits="userSpaceOnUse" gradientTransform="translate(24.6115 41.8218) scale(31.2482 20.1801)">
<stop offset="0.0816" stop-color="#F8981D"/>
<stop offset="0.2277" stop-color="#F89A20"/>
<stop offset="0.3708" stop-color="#F9A02A"/>
<stop offset="0.5121" stop-color="#FBAC3D"/>
<stop offset="0.6058" stop-color="#FCB64E"/>
</radialGradient>
<radialGradient id="paint1_radial_1029_1136" cx="0" cy="0" r="1" gradientUnits="userSpaceOnUse" gradientTransform="translate(25.183 31.816) scale(28.961 16.1515)">
<stop offset="0.0506" stop-color="#FFE0B2"/>
<stop offset="0.3205" stop-color="#FFDFAF"/>
<stop offset="0.5246" stop-color="#FFDCA7"/>
<stop offset="0.707" stop-color="#FFD69A"/>
<stop offset="0.8758" stop-color="#FFCF87"/>
<stop offset="0.927" stop-color="#FECC81"/>
</radialGradient>
<radialGradient id="paint2_radial_1029_1136" cx="0" cy="0" r="1" gradientUnits="userSpaceOnUse" gradientTransform="translate(25.2568 25.6549) scale(26.7174 15.3759)">
<stop offset="0.3445" stop-color="#FFF3E1"/>
<stop offset="0.554" stop-color="#FFF2DE"/>
<stop offset="0.7124" stop-color="#FFEFD6"/>
<stop offset="0.854" stop-color="#FFE9C8"/>
<stop offset="0.9851" stop-color="#FFE1B4"/>
<stop offset="1" stop-color="#FFE0B2"/>
</radialGradient>
<radialGradient id="paint3_radial_1029_1136" cx="0" cy="0" r="1" gradientUnits="userSpaceOnUse" gradientTransform="translate(30.7719 15.1989) scale(3.45665)">
<stop stop-color="#EF5451"/>
<stop offset="0.7844" stop-color="#E53A35"/>
<stop offset="1" stop-color="#C62828"/>
</radialGradient>
<radialGradient id="paint4_radial_1029_1136" cx="0" cy="0" r="1" gradientUnits="userSpaceOnUse" gradientTransform="translate(17.2739 15.1989) scale(3.45665)">
<stop stop-color="#EF5451"/>
<stop offset="0.7844" stop-color="#E53A35"/>
<stop offset="1" stop-color="#C62828"/>
</radialGradient>
<radialGradient id="paint5_radial_1029_1136" cx="0" cy="0" r="1" gradientUnits="userSpaceOnUse" gradientTransform="translate(25.2192 10.9073) scale(5.92313 10.136)">
<stop offset="0.2358" stop-color="#F78F1E"/>
<stop offset="0.4942" stop-color="#FCB316"/>
<stop offset="0.7611" stop-color="#FFD740"/>
</radialGradient>
<radialGradient id="paint6_radial_1029_1136" cx="0" cy="0" r="1" gradientUnits="userSpaceOnUse" gradientTransform="translate(15.9579 31.2424) scale(3.45665)">
<stop stop-color="#EF5451"/>
<stop offset="0.7844" stop-color="#E53A35"/>
<stop offset="1" stop-color="#C62828"/>
</radialGradient>
<radialGradient id="paint7_radial_1029_1136" cx="0" cy="0" r="1" gradientUnits="userSpaceOnUse" gradientTransform="translate(7.47013 23.9275) scale(3.45665)">
<stop stop-color="#EF5451"/>
<stop offset="0.7844" stop-color="#E53A35"/>
<stop offset="1" stop-color="#C62828"/>
</radialGradient>
<radialGradient id="paint8_radial_1029_1136" cx="0" cy="0" r="1" gradientUnits="userSpaceOnUse" gradientTransform="translate(41.3529 24.4724) scale(3.45665 3.45665)">
<stop stop-color="#EF5451"/>
<stop offset="0.7844" stop-color="#E53A35"/>
<stop offset="1" stop-color="#C62828"/>
</radialGradient>
<radialGradient id="paint9_radial_1029_1136" cx="0" cy="0" r="1" gradientUnits="userSpaceOnUse" gradientTransform="translate(12.8077 15.1959) scale(5.92313 10.136)">
<stop offset="0.2358" stop-color="#F78F1E"/>
<stop offset="0.4942" stop-color="#FCB316"/>
<stop offset="0.7611" stop-color="#FFD740"/>
</radialGradient>
<radialGradient id="paint10_radial_1029_1136" cx="0" cy="0" r="1" gradientUnits="userSpaceOnUse" gradientTransform="translate(37.4485 15.2377) scale(5.92313 10.136)">
<stop offset="0.2358" stop-color="#F78F1E"/>
<stop offset="0.4942" stop-color="#FCB316"/>
<stop offset="0.7611" stop-color="#FFD740"/>
</radialGradient>
<radialGradient id="paint11_radial_1029_1136" cx="0" cy="0" r="1" gradientUnits="userSpaceOnUse" gradientTransform="translate(32.5961 31.0256) scale(3.45665 3.45665)">
<stop stop-color="#EF5451"/>
<stop offset="0.7844" stop-color="#E53A35"/>
<stop offset="1" stop-color="#C62828"/>
</radialGradient>
</defs>
</svg>
