<svg width="50" height="49" viewBox="0 0 50 49" fill="none" xmlns="http://www.w3.org/2000/svg">
<path d="M36.1236 42.9741L9.45406 48.433C8.12059 48.7247 6.78711 47.8496 6.49541 46.4744L1.07817 20.1383C0.786468 18.8048 1.66156 17.4713 3.03671 17.1796L29.7062 11.7207C29.7479 11.7624 36.1236 42.9741 36.1236 42.9741V42.9741Z" fill="#424242"/>
<path d="M36.3319 38.9305L8.66225 44.5978C7.32878 44.8895 5.9953 44.0144 5.7036 42.6393L0.119669 15.3447C-0.172029 14.0112 0.703065 12.6777 2.07821 12.386L29.7478 6.71875L36.3319 38.9305Z" fill="url(#paint0_linear_1029_1246)"/>
<path d="M11.4125 44.0158L8.70388 44.5575C7.3704 44.8492 6.03693 43.9742 5.74523 42.599L0.161295 15.3461C-0.130403 14.0126 0.744691 12.6791 2.11984 12.3874L4.82846 11.8457L11.4125 44.0158Z" fill="#424242"/>
<path opacity="0.2" d="M28.7894 8.21891L34.915 37.9721C34.665 38.0554 34.4983 38.2221 34.3316 38.4305C34.1649 38.7222 34.0816 39.0556 34.1649 39.3473L34.7067 41.9725L8.8289 47.2648C8.78722 47.2648 8.70388 47.2648 8.66221 47.2648C8.28717 47.2648 7.99547 47.0147 7.91213 46.723L7.12038 42.8476L2.24486 19.4284L1.24475 14.5946C1.16141 14.2196 1.4531 13.8028 1.91149 13.7195L28.7894 8.21891ZM29.7478 6.71875L1.66146 12.511C0.536339 12.7194 -0.17207 13.8028 0.0362854 14.8446L1.03639 19.6785L5.87025 43.181L6.662 47.0147C6.87035 47.9315 7.70377 48.5982 8.66221 48.5982C8.78722 48.5982 8.95391 48.5982 9.07892 48.5566L36.1652 43.0143L35.3734 39.1389L36.3735 38.9305L29.7478 6.71875Z" fill="#424242"/>
<path d="M34.5816 42.3076L9.20392 47.5165C8.41217 47.6832 7.66209 47.1831 7.49541 46.3914V46.308C7.32872 45.5163 7.82878 44.7662 8.62053 44.5995L33.9982 39.3906L34.5816 42.3076Z" fill="url(#paint1_linear_1029_1246)"/>
<path d="M39.1239 39.6816L11.9543 37.0563C10.5791 36.9313 9.57902 35.6812 9.70403 34.306L12.3293 7.34478C12.4543 5.96963 13.7045 4.96952 15.0379 5.09453L42.2075 7.76149C42.2492 7.71982 39.1239 39.6816 39.1239 39.6816Z" fill="#424242"/>
<path d="M40.4156 35.7227L12.2459 32.9724C10.8707 32.8474 10.2873 31.5973 10.4124 30.2221L12.7043 2.26079C12.8293 0.885644 14.0794 -0.114463 15.4129 0.0105501L43.5826 2.76085C43.6243 2.76085 40.4156 35.7227 40.4156 35.7227V35.7227Z" fill="url(#paint2_linear_1029_1246)"/>
<path d="M43.6243 2.76085L18.8716 0.427262L15.6629 33.3475L12.2459 32.9724C10.8707 32.8474 10.2873 31.5973 10.4124 30.2221L12.7043 2.26079C12.8293 0.885644 14.0794 -0.114463 15.4546 0.0105501L43.6243 2.76085Z" fill="#424242"/>
<path opacity="0.2" d="M14.9129 1.38556H14.9962L42.3325 4.05251L39.3738 34.4724C39.1238 34.5141 38.8738 34.5974 38.6654 34.7641C38.4154 34.9725 38.2487 35.3059 38.207 35.6392L37.957 38.3062L11.6625 35.7226C11.4542 35.6809 11.2458 35.5976 11.1208 35.4309C11.0375 35.3475 10.9124 35.1808 10.9541 34.9308L11.3292 30.9721L13.6627 6.92782L14.1628 2.01062C14.2045 1.63558 14.5378 1.38556 14.9129 1.38556M14.9129 0.09375C13.8711 0.09375 12.9543 0.84383 12.871 1.88561L12.7876 6.8028L10.4541 30.847L9.66231 34.8058C9.5373 35.8893 10.3707 36.8894 11.5375 36.9727L39.1238 39.6397L39.4988 35.6809L40.5406 35.7642L43.7493 2.84404L15.1212 0.09375C15.0796 0.09375 14.9962 0.09375 14.9129 0.09375V0.09375Z" fill="#424242"/>
<path d="M37.8738 38.5567L12.0377 36.0564C11.2459 35.9731 10.6625 35.2647 10.7458 34.4729V34.3896C10.8292 33.5978 11.5376 33.0144 12.3293 33.0978L38.1655 35.598L37.8738 38.5567Z" fill="url(#paint3_linear_1029_1246)"/>
<path d="M49.3749 45.7651L23.9138 48.0154C22.5387 48.1404 21.3302 47.0986 21.2052 45.7651L18.8716 19.4706C18.7466 18.0955 19.7884 16.887 21.1635 16.762L46.6246 14.5118C46.6246 14.4701 49.3749 45.7651 49.3749 45.7651Z" fill="#424242"/>
<path d="M50.0001 41.8075L23.5806 44.1411C22.2054 44.2661 20.9969 43.2244 20.8719 41.8909L18.455 14.638C18.33 13.2628 19.3718 12.0543 20.7469 11.9293L47.1664 9.59574C47.1247 9.55407 50.0001 41.8075 50.0001 41.8075V41.8075Z" fill="url(#paint4_linear_1029_1246)"/>
<path d="M26.7476 43.8479L23.1222 44.1812C21.9554 44.0562 20.9969 43.1394 20.8719 41.931L18.455 14.6781C18.33 13.3029 19.3718 12.0944 20.7469 11.9694L23.9139 11.6777L26.7476 43.8479Z" fill="#424242"/>
<path opacity="0.2" d="M45.9995 10.9279L48.6248 40.7227C48.0831 40.8894 47.708 41.4312 47.7497 42.0146L47.9997 44.6398L23.2471 46.8484C23.2471 46.8484 23.2054 46.8484 23.1637 46.8484C22.8304 46.8484 22.497 46.5567 22.4553 46.2233L22.1219 42.3479L20.0384 18.8037L19.6217 13.9699C19.58 13.5948 19.8717 13.2615 20.2467 13.2198L45.9995 10.9279ZM47.1663 9.55273L20.2051 11.928C19.1216 12.0113 18.3299 12.9698 18.4549 14.0115L18.8716 18.8454L20.9552 42.3896L21.2885 46.265C21.3719 47.2651 22.2053 48.0152 23.2054 48.0152H23.3721L49.3749 45.7233L49.0415 41.8479L49.9999 41.7645L47.1663 9.55273Z" fill="#424242"/>
<path d="M47.9998 44.8896L23.6222 47.0565C22.8721 47.1399 22.2471 46.5565 22.1637 45.8481V45.598C22.0804 44.848 22.6638 44.2229 23.3722 44.1396L47.7498 41.9727C47.7498 42.0143 47.9998 44.8896 47.9998 44.8896V44.8896Z" fill="url(#paint5_linear_1029_1246)"/>
<defs>
<linearGradient id="paint0_linear_1029_1246" x1="14.6915" y1="9.8987" x2="21.3186" y2="42.1808" gradientUnits="userSpaceOnUse">
<stop offset="0.0079465" stop-color="#FF9800"/>
<stop offset="1" stop-color="#EF6C00"/>
</linearGradient>
<linearGradient id="paint1_linear_1029_1246" x1="7.51676" y1="46.3449" x2="34.3269" y2="40.8411" gradientUnits="userSpaceOnUse">
<stop offset="0.0102" stop-color="#BDBDBD"/>
<stop offset="0.9869" stop-color="#F5F5F5"/>
</linearGradient>
<linearGradient id="paint2_linear_1029_1246" x1="28.2764" y1="1.36021" x2="25.06" y2="34.3901" gradientUnits="userSpaceOnUse">
<stop offset="0.0079465" stop-color="#4480F7"/>
<stop offset="1" stop-color="#315DB3"/>
</linearGradient>
<linearGradient id="paint3_linear_1029_1246" x1="10.742" y1="34.4289" x2="38.0207" y2="37.0847" gradientUnits="userSpaceOnUse">
<stop offset="0.0102" stop-color="#BDBDBD"/>
<stop offset="0.9869" stop-color="#F5F5F5"/>
</linearGradient>
<linearGradient id="paint4_linear_1029_1246" x1="32.7044" y1="10.9161" x2="35.5682" y2="43.2588" gradientUnits="userSpaceOnUse">
<stop offset="0.0079465" stop-color="#66BB6A"/>
<stop offset="1" stop-color="#2E7D32"/>
</linearGradient>
<linearGradient id="paint5_linear_1029_1246" x1="22.1517" y1="45.7131" x2="47.8793" y2="43.4351" gradientUnits="userSpaceOnUse">
<stop offset="0.0102" stop-color="#BDBDBD"/>
<stop offset="0.9869" stop-color="#F5F5F5"/>
</linearGradient>
</defs>
</svg>
