<svg width="50" height="50" viewBox="0 0 50 50" fill="none" xmlns="http://www.w3.org/2000/svg">
<path d="M12.2043 12.425C12.0389 12.2679 11.7908 12.2389 11.5634 12.2306C11.1458 12.2224 10.7199 12.2679 10.3188 12.1645C9.91359 12.0611 9.52077 11.7634 9.47115 11.3499C9.44634 11.1597 9.49182 10.9447 9.37191 10.7958C9.24372 10.6387 9.01217 10.647 8.81369 10.618C8.37952 10.556 7.99084 10.2376 7.84198 9.8241C7.75928 9.60081 7.74274 9.34445 7.58561 9.16251C7.29203 8.81517 6.71314 8.94749 6.31618 8.72421C5.9151 8.49678 5.80759 7.97578 5.60497 7.56229C5.34447 7.02474 4.85655 6.59884 4.29006 6.41277C4.17842 6.37556 4.05851 6.35075 3.94686 6.3921C3.78146 6.45412 3.68636 6.65673 3.51269 6.67327C3.17776 6.70635 3.02064 6.05303 2.71051 6.18122C2.64436 6.20603 2.60301 6.26391 2.55339 6.31353C2.18124 6.68154 1.44109 6.50374 1.27982 6.00755C1.25088 5.92485 1.23847 5.82975 1.27569 5.75118C1.37906 5.51549 1.76775 5.56924 1.91661 5.35836C2.06546 5.14334 1.8215 4.84149 1.561 4.80014C1.3005 4.7588 1.03586 4.8539 0.775361 4.84976C0.461105 4.84149 0.13858 4.65542 0.0310713 4.35771C-0.0764372 4.05999 0.1055 3.67544 0.415621 3.61755C0.614098 3.58034 0.820845 3.6713 1.01519 3.61755C1.25501 3.55553 1.38733 3.3033 1.45763 3.0676C1.52379 2.83191 1.561 2.57555 1.70986 2.3812C1.9869 2.02973 2.62368 2.08349 2.8387 2.47217C2.97929 2.73267 2.98342 3.11309 3.26046 3.2206C3.45067 3.29503 3.66569 3.17925 3.81041 3.03452C3.95513 2.8898 4.07505 2.712 4.25698 2.61689C4.65807 2.40601 5.15427 2.70373 5.40236 3.08001C5.65046 3.45629 5.76624 3.91527 6.04328 4.27501C6.34099 4.65956 6.81651 4.89525 7.3003 4.89525C7.76755 4.89938 8.27201 4.70091 8.68551 4.92006C9.41739 5.30874 9.13622 6.5575 9.7854 7.0785C10.17 7.38862 10.7282 7.31419 11.2161 7.4217C11.7908 7.54988 12.2912 7.96338 12.5558 8.48851C12.8246 9.01365 12.8659 9.64216 12.7129 10.2128C12.5765 10.7172 12.3077 11.2961 12.6137 11.7179C12.9156 12.1355 13.602 12.1107 13.9079 12.5242C14.2842 13.0328 14.0981 14.4139 13.2588 14.265C12.1961 14.0831 12.746 12.9418 12.2043 12.425V12.425Z" fill="url(#paint0_linear_1029_2301)"/>
<path d="M10.1701 13.635C10.0833 13.3994 9.8848 13.1099 9.65738 13.2133C9.55401 13.2588 9.49612 13.3745 9.39688 13.4283C9.19013 13.5399 8.95857 13.3373 8.82212 13.1471C8.68567 12.9569 8.49133 12.7378 8.2639 12.7998C7.98273 12.8784 7.95792 13.3291 7.68088 13.42C7.39143 13.5151 7.18468 13.1513 6.9614 12.9445C6.71743 12.7171 6.33289 12.6509 6.0269 12.7874C5.72091 12.9238 5.5183 13.2546 5.52657 13.5896C5.53071 13.6764 5.54725 13.7674 5.61341 13.8253C5.70024 13.908 5.83669 13.8914 5.95661 13.8914C6.29981 13.8873 6.70089 14.1685 6.60579 14.4993C6.49828 14.8631 5.9318 14.8259 5.66302 14.5571C5.39425 14.2884 5.2702 13.8956 4.99316 13.6392C4.71612 13.3828 4.1331 13.3911 4.07107 13.7674C4.04213 13.9286 4.12069 14.1271 3.99664 14.2388C3.77336 14.4414 3.40948 13.9452 3.15725 14.1106C2.90915 14.276 3.25649 14.7019 3.09523 14.95C3.04147 15.0327 2.94637 15.0699 2.86367 15.1195C2.44604 15.3676 2.30132 15.9837 2.56595 16.3889C2.83059 16.7941 3.45497 16.9099 3.84778 16.6246C4.0628 16.4716 4.19925 16.2277 4.406 16.0623C4.61275 15.8969 4.96008 15.839 5.11308 16.054C5.24953 16.2401 5.15856 16.4964 5.16683 16.7239C5.17924 17.1084 5.66302 17.4516 5.96074 17.2118C6.15095 17.0588 6.20057 16.7445 6.43212 16.6742C6.60166 16.6246 6.77946 16.7445 6.87456 16.8934C6.96967 17.0422 7.01102 17.22 7.09371 17.3772C7.38316 17.9188 8.22255 18.0553 8.67326 17.6335C9.11984 17.2118 9.033 16.3641 8.50787 16.0416C8.18947 15.8472 7.71809 15.7728 7.63953 15.4089C7.36662 14.1478 10.8234 15.442 10.1701 13.635V13.635Z" fill="url(#paint1_linear_1029_2301)"/>
<path d="M6.428 10.9494C6.82909 10.7799 7.1971 11.1769 7.39971 10.6683C7.8008 9.67175 5.81189 9.36163 5.3157 9.90744C5.24127 9.99014 5.18751 10.0852 5.1503 10.1886C5.03452 10.4822 5.03039 10.8337 5.21232 11.0942C5.66303 11.7475 6.0145 11.1231 6.428 10.9494V10.9494Z" fill="url(#paint2_linear_1029_2301)"/>
<path d="M3.51673 9.10068C3.45057 9.09241 3.39268 9.17925 3.42989 9.23714C3.82685 9.32397 4.23621 9.34465 4.64143 9.30743C4.80269 9.29089 4.96809 9.26608 5.10041 9.17098C5.23273 9.07587 5.31956 8.90221 5.25754 8.74921C5.18724 8.57141 4.96396 8.51352 4.76961 8.50525C4.3065 8.48871 3.84339 8.62517 3.46297 8.88567L3.51673 9.10068Z" fill="url(#paint3_linear_1029_2301)"/>
<path d="M2.79325 10.709C2.90075 10.5105 2.77257 10.2335 2.55755 10.1632C2.34254 10.0929 2.0903 10.2293 2.01174 10.4402C1.95385 10.5973 2.00347 10.8082 2.15646 10.8702C2.1606 10.8744 2.68987 10.9075 2.79325 10.709V10.709Z" fill="url(#paint4_linear_1029_2301)"/>
<path d="M11.9977 15.1867C11.8778 15.0544 11.0218 15.0337 10.8275 15.1123C10.6042 15.1991 10.4181 15.348 10.2321 15.4969C10.0915 15.6085 9.94261 15.7284 9.85992 15.8938C9.77722 16.0592 9.78135 16.2784 9.91367 16.3983C10.0667 16.5389 10.323 16.4934 10.4884 16.3652C10.6538 16.237 10.7613 16.0509 10.8978 15.8938C11.0342 15.7367 11.2203 15.592 11.4312 15.6126C11.6255 15.6333 12.4153 15.6581 11.9977 15.1867Z" fill="url(#paint5_linear_1029_2301)"/>
<path d="M16.4716 11.4821C16.7776 11.3374 16.9968 11.0355 17.2366 10.7626C17.6129 10.3285 18.0057 9.84882 18.0346 9.2782C18.0388 9.16242 18.0222 9.0301 17.9313 8.95981C17.8858 8.92259 17.8279 8.91019 17.77 8.90192C17.2077 8.82335 16.7694 9.3857 16.5709 9.91911C16.4055 10.3698 16.1615 11.0686 16.4716 11.4821V11.4821Z" fill="url(#paint6_linear_1029_2301)"/>
<path d="M16.4511 8.25207C16.6372 7.96263 17.0838 7.87579 17.1872 7.54913C16.9845 7.43749 16.6992 7.51605 16.5793 7.71453C16.5256 7.80137 16.4966 7.91301 16.4057 7.96263C16.3188 8.00811 16.1989 7.97503 16.1162 8.02465C15.8226 8.20245 15.6283 9.05839 15.9839 9.28581C16.4222 9.56699 16.3106 8.47123 16.4511 8.25207Z" fill="url(#paint7_linear_1029_2301)"/>
<path d="M16.9142 6.07837C17.0093 6.14866 17.1375 6.17761 17.2408 6.13212C17.3442 6.09077 17.4104 5.9874 17.46 5.88403C17.5799 5.63179 17.6337 5.34235 17.5799 5.06944C17.522 4.79654 17.3483 4.54017 17.0961 4.42026C17.0465 4.39545 16.9969 4.37891 16.939 4.37891C16.8025 4.38304 16.7074 4.51536 16.6578 4.63941C16.4883 5.0529 16.5214 5.79306 16.9142 6.07837V6.07837Z" fill="url(#paint8_linear_1029_2301)"/>
<path d="M15.5744 4.57304C15.8721 4.46553 15.9755 3.89077 15.6984 3.71711C15.5909 3.65095 15.4421 3.72124 15.3842 3.82875C15.285 4.01896 15.2188 4.70122 15.5744 4.57304Z" fill="url(#paint9_linear_1029_2301)"/>
<path d="M13.0108 3.23663C13.0066 3.03815 12.9612 2.84381 12.9405 2.64533C12.8826 2.10779 13.0066 1.56197 13.2134 1.05751C13.2878 0.871439 13.3788 0.672962 13.3292 0.47862C13.2547 0.201579 12.9364 0.0733952 12.6552 0.019641C12.5353 -0.00103373 12.4071 -0.0175735 12.2954 0.0361807C12.1673 0.0982049 12.1011 0.238793 12.0432 0.366976C11.9274 0.623343 11.8117 0.908654 11.8861 1.17743C11.9357 1.36763 12.0763 1.52476 12.1466 1.7067C12.3781 2.31453 11.8819 2.95132 12.1424 3.56742C12.4195 4.22488 13.0191 3.81138 13.0108 3.23663V3.23663Z" fill="url(#paint10_linear_1029_2301)"/>
<path d="M15.6031 10.6623C15.6155 10.5259 15.6073 10.3853 15.537 10.2695C15.4667 10.1537 15.3137 10.0793 15.1938 10.133C15.1069 10.1703 15.0573 10.2612 15.0201 10.3481C14.9043 10.6292 14.8175 11.1213 15.1276 11.328C15.4956 11.5761 15.5825 10.9021 15.6031 10.6623V10.6623Z" fill="url(#paint11_linear_1029_2301)"/>
<path d="M10.1658 5.60987C10.2031 5.68017 10.2692 5.74219 10.3478 5.75873C10.509 5.79595 10.6496 5.65122 10.7406 5.51477C10.9515 5.20051 11.0962 4.84077 11.1293 4.46449C11.1624 4.08821 11.0755 3.69539 10.8564 3.38941C10.6703 3.12891 10.385 2.91389 10.3395 2.59963C10.3023 2.3474 10.4305 2.10344 10.5339 1.87188C10.6372 1.64033 10.7199 1.35915 10.5917 1.13586C10.538 1.03663 10.447 0.962196 10.3602 0.896037C10.3106 0.858823 10.2609 0.825743 10.2031 0.813338C10.0459 0.776124 9.89707 0.900172 9.80197 1.03249C9.50012 1.47079 9.52493 2.06209 9.69446 2.56655C9.75648 2.75676 9.83918 2.94697 9.81024 3.14545C9.76475 3.43076 9.60762 3.65818 9.83091 3.91868C9.97563 4.08408 10.2279 4.06754 10.3643 4.2164C10.6868 4.57614 9.92602 5.16743 10.1658 5.60987V5.60987Z" fill="url(#paint12_linear_1029_2301)"/>
<path d="M6.68832 2.97297C6.98604 2.62977 6.56014 2.26176 6.43609 1.95991C6.39888 1.86481 6.38234 1.76557 6.35753 1.67047C6.29137 1.4141 6.17559 1.17014 6.01019 0.963392C5.89028 0.810399 5.71661 0.665676 5.52641 0.690486C5.47679 0.694621 5.4313 0.71116 5.38168 0.71116C5.14599 0.71116 5.02608 0.35969 4.78625 0.355555C4.64153 0.35142 4.52575 0.496143 4.50921 0.640866C4.49267 0.785589 4.55056 0.926177 4.61258 1.0585C4.7449 1.33967 4.9103 1.61671 5.17907 1.77384C5.42303 1.91856 5.75383 1.96818 5.90269 2.20801C5.98125 2.33206 5.99365 2.48092 6.01846 2.62564C6.06808 2.93576 6.39888 3.31204 6.68832 2.97297Z" fill="url(#paint13_linear_1029_2301)"/>
<path d="M4.68308 12.5112C4.70375 12.3375 4.57557 12.1845 4.43912 12.0812C4.29853 11.9736 4.13313 11.8868 3.95533 11.8744C3.51289 11.8413 3.16969 12.4202 3.58732 12.6931C3.85609 12.8627 4.62932 12.9495 4.68308 12.5112Z" fill="url(#paint14_linear_1029_2301)"/>
<path d="M14.9624 17.4652C14.9087 17.5231 14.8797 17.6058 14.8715 17.6844C14.859 17.8043 14.8963 17.9407 14.9914 18.0152C15.0782 18.0813 15.2147 18.0772 15.2891 18.0028C15.4297 17.9366 15.4214 17.7588 15.3842 17.6224C15.3676 17.5479 15.3428 17.4694 15.2849 17.4239C15.2064 17.3619 15.0865 17.3701 15.0038 17.428C14.9914 17.4363 14.979 17.4528 14.9624 17.4652V17.4652Z" fill="url(#paint15_linear_1029_2301)"/>
<path opacity="0.2" d="M15.1568 17.3789C15.103 17.3789 15.0493 17.3954 15.0079 17.4285C14.9914 17.4409 14.979 17.4533 14.9666 17.4699C14.9128 17.5278 14.8839 17.6105 14.8756 17.689C14.8632 17.8089 14.9004 17.9454 14.9955 18.0198C15.0369 18.0529 15.0906 18.0653 15.1402 18.0653C15.1981 18.0653 15.2519 18.0446 15.2932 18.0074C15.4338 17.9413 15.4255 17.7635 15.3883 17.627C15.3718 17.5526 15.347 17.474 15.2891 17.4285C15.2519 17.3913 15.2023 17.3789 15.1568 17.3789V17.3789Z" fill="#424242"/>
<path d="M13.8913 10.6258C13.9947 10.3942 14.1725 10.2081 14.3214 10.0055C14.5612 9.67472 14.7266 9.26536 14.7142 8.85187C14.7059 8.55829 14.6108 8.26057 14.6894 7.97939C14.7721 7.67754 15.0243 7.47493 15.2021 7.23097C15.4171 6.93739 15.537 6.55697 15.5288 6.1807C15.5246 5.92019 15.4419 5.63488 15.2311 5.51497C15.1153 5.44467 14.9706 5.43641 14.8506 5.37438C14.6315 5.2586 14.524 4.96916 14.5157 4.70039C14.5074 4.43161 14.5777 4.15871 14.6232 3.88994C14.6439 3.75762 14.6604 3.61703 14.6149 3.49712C14.5653 3.37307 14.4578 3.2945 14.3544 3.22008C14.1766 3.08776 13.9906 2.95544 13.7797 2.89755C13.5688 2.83966 13.3248 2.86447 13.1594 3.02573C12.8865 3.29037 12.9362 3.76175 13.0561 4.12563C13.176 4.4895 13.3455 4.88232 13.2339 5.25447C13.1512 5.53151 12.9362 5.72999 12.7956 5.97808C12.5847 6.35436 12.5681 6.82575 12.6798 7.23924C12.7914 7.65273 13.0189 8.01247 13.2794 8.335C13.4282 8.52107 13.5936 8.69888 13.6846 8.92216C13.9409 9.56308 13.5523 10.295 13.4778 10.9979C13.4282 11.4858 13.6143 11.6471 13.9244 11.858C14.1518 12.011 14.0609 11.8828 14.1312 12.1764C14.1642 12.3004 14.1022 12.3955 14.1932 12.4948C14.7969 11.8001 13.5853 11.3039 13.8913 10.6258V10.6258Z" fill="url(#paint16_linear_1029_2301)"/>
<path d="M9.0657 3.52485C9.46266 3.53312 9.80172 3.22714 9.83067 2.82605L9.88856 1.97838C9.9175 1.56489 9.60325 1.20515 9.18975 1.18034L6.40693 0.990131C5.99344 0.961186 5.6337 1.27544 5.60475 1.68894L5.54687 2.5366C5.51792 2.93769 5.81564 3.28502 6.20846 3.33051L6.10095 4.88525C6.072 5.29461 6.38626 5.65435 6.79562 5.67916L8.16015 5.77013C8.56951 5.79907 8.92925 5.48481 8.95406 5.07545L9.0657 3.52485Z" fill="#A87A2F"/>
<path opacity="0.2" d="M8.85104 3.52087C8.67324 3.64905 8.45822 3.71107 8.25147 3.74829C8.04059 3.7855 7.82557 3.78964 7.61469 3.77723C7.40381 3.75656 7.19293 3.72348 6.99031 3.65732C6.7877 3.59116 6.58509 3.50433 6.42383 3.35547L7.6395 3.4299C8.04059 3.45884 8.42514 3.49606 8.85104 3.52087V3.52087Z" fill="#424242"/>
<path d="M36.7161 26.6863C34.6114 24.6767 31.8741 24.0441 29.4427 22.7374C27.0114 21.4267 22.3803 18.3916 20.0399 16.3324C17.6995 14.2732 18.2825 14.2112 17.9311 13.7646C17.5796 13.3222 16.8932 13.6323 16.8932 13.3511C16.8932 13.0699 16.2895 12.9707 16.2895 12.9707C16.2564 12.9707 14.896 14.3642 14.896 14.3642C14.896 14.3642 13.5273 15.6956 13.5273 15.7328C13.5273 15.7328 13.639 16.3241 13.9202 16.3241C14.2013 16.3241 13.8954 17.0064 14.3378 17.3579C14.7802 17.7093 14.8505 17.1263 16.9097 19.4626C18.9689 21.8029 22.0081 26.4299 23.3148 28.8654C24.6255 31.2968 25.254 34.0341 27.2678 36.1388C29.2773 38.2435 40.2556 49.106 40.2556 49.106C40.2556 49.106 41.4382 51.0122 46.487 45.9593C51.5357 40.9064 49.6585 39.7031 49.6585 39.7031C49.6585 39.7031 38.8208 28.7 36.7161 26.6863Z" fill="url(#paint17_radial_1029_2301)"/>
<path d="M29.79 38.8049L37.2247 46.2396C37.2247 46.2396 38.8125 44.9288 42.3479 41.3975C45.8832 37.8663 46.673 36.6051 46.673 36.6051L39.3335 29.2656C39.3335 29.2656 38.6926 29.3442 34.2806 33.8017C29.943 38.1888 29.79 38.8049 29.79 38.8049V38.8049Z" fill="url(#paint18_linear_1029_2301)"/>
<path opacity="0.59" d="M39.218 31.5948L44.5893 36.9661C44.2461 37.4126 43.3695 38.4712 41.3971 40.4435C39.3503 42.4903 38.1388 43.582 37.6302 44.0285L32.2134 38.6118C32.4863 38.2396 33.2802 37.2844 35.5586 34.9813C37.8948 32.6326 38.8541 31.8511 39.218 31.5948ZM39.2924 31.082C39.2924 31.082 38.8417 31.0862 35.2691 34.696C31.7586 38.2438 31.6965 38.6779 31.6965 38.6779L37.6136 44.595C37.6136 44.595 38.8334 43.5985 41.6948 40.7371C44.5521 37.8799 45.1351 36.9247 45.1351 36.9247L39.2924 31.082V31.082Z" fill="url(#paint19_linear_1029_2301)"/>
<path d="M24.6342 24.1104C25.2916 23.4529 26.2882 23.4529 26.2882 23.4529L27.5659 21.464C26.1724 20.6205 24.6052 19.6322 23.3896 18.768C20.5654 16.7626 18.9362 15.0507 18.9569 14.2527C18.9776 13.4546 17.7288 12.6152 17.7288 12.6152C16.9349 13.1362 18.2416 14.0087 18.0638 14.6538C17.886 15.2988 15.1279 15.0218 15.1279 15.0218L14.793 15.5634C14.793 15.5634 15.8681 17.3208 15.2231 17.4986C14.578 17.6764 13.6931 16.378 13.1721 17.1719C13.1721 17.1719 14.0074 18.4207 14.8096 18.4C15.6117 18.3793 17.3195 20.0085 19.3249 22.8327C20.185 24.0484 21.1732 25.6114 22.0168 27.0007L24.0139 25.7313C24.0139 25.7354 24.0181 24.7265 24.6342 24.1104V24.1104Z" fill="url(#paint20_linear_1029_2301)"/>
<path d="M25.614 29.8568C26.8173 29.7452 26.6147 29.7121 26.6147 29.7121C26.6147 29.7121 26.4245 29.2779 27.2225 29.4144C28.0164 29.555 28.7855 29.5632 29.476 28.8768C30.1666 28.1904 30.1335 27.442 29.9929 26.644C29.8523 25.8501 30.2699 26.0568 30.2699 26.0568C30.2699 26.0568 30.3072 26.2553 30.4147 25.0562C30.5263 23.8529 30.9357 23.4435 30.9357 23.4435C30.9357 23.4435 29.4057 22.5752 27.5657 21.4629L26.288 23.4518C26.288 23.4518 25.2873 23.4518 24.634 24.1093C24.0179 24.7254 24.0138 25.7302 24.0138 25.7302L22.0166 26.9996C23.133 28.8438 24.0055 30.3778 24.0055 30.3778C24.0055 30.3778 24.4149 29.9685 25.614 29.8568Z" fill="url(#paint21_linear_1029_2301)"/>
<path d="M28.1281 25.2675C28.9881 26.1275 29.1742 27.3349 28.5416 27.9676C27.913 28.5961 26.7015 28.4142 25.8414 27.5541C24.9814 26.694 24.7953 25.4866 25.4279 24.854C26.0606 24.2213 27.268 24.4074 28.1281 25.2675Z" fill="url(#paint22_linear_1029_2301)"/>
<path d="M27.8594 21.6348L26.4081 23.9255C26.4081 23.9255 25.5645 23.9255 25.0063 24.4796C24.4853 25.0006 24.4812 25.8524 24.4812 25.8524L22.1863 27.3079" stroke="url(#paint23_linear_1029_2301)" stroke-width="1.53243" stroke-miterlimit="10"/>
<path d="M23.803 30.0956C23.803 30.0956 24.8202 29.4382 25.8374 29.3472C26.8546 29.2521 26.5238 28.8552 27.1978 28.9751C27.8718 29.0908 28.5209 29.0991 29.104 28.5202C29.687 27.9413 29.6581 27.3045 29.5423 26.6347C29.4265 25.9607 29.8069 26.308 29.8979 25.2908C29.993 24.2736 30.6256 23.2812 30.6256 23.2812" stroke="url(#paint24_linear_1029_2301)" stroke-width="1.53243" stroke-miterlimit="10"/>
<defs>
<linearGradient id="paint0_linear_1029_2301" x1="14.0381" y1="13.3158" x2="-0.786492" y2="0.541197" gradientUnits="userSpaceOnUse">
<stop stop-color="#AE9869"/>
<stop offset="0.0247" stop-color="#B6A274"/>
<stop offset="0.1147" stop-color="#CFC099"/>
<stop offset="0.1986" stop-color="#E1D6B3"/>
<stop offset="0.2734" stop-color="#ECE3C3"/>
<stop offset="0.3316" stop-color="#F0E8C9"/>
<stop offset="0.5657" stop-color="#EFE7C7"/>
<stop offset="0.6868" stop-color="#ECE2BF"/>
<stop offset="0.782" stop-color="#E7D9B2"/>
<stop offset="0.8637" stop-color="#E0CD9F"/>
<stop offset="0.936" stop-color="#D8BE86"/>
<stop offset="0.9949" stop-color="#CEAD6C"/>
</linearGradient>
<linearGradient id="paint1_linear_1029_2301" x1="8.93571" y1="17.1628" x2="3.29399" y2="12.301" gradientUnits="userSpaceOnUse">
<stop stop-color="#AE9869"/>
<stop offset="0.0247" stop-color="#B6A274"/>
<stop offset="0.1147" stop-color="#CFC099"/>
<stop offset="0.1986" stop-color="#E1D6B3"/>
<stop offset="0.2734" stop-color="#ECE3C3"/>
<stop offset="0.3316" stop-color="#F0E8C9"/>
<stop offset="0.5657" stop-color="#EFE7C7"/>
<stop offset="0.6868" stop-color="#ECE2BF"/>
<stop offset="0.782" stop-color="#E7D9B2"/>
<stop offset="0.8637" stop-color="#E0CD9F"/>
<stop offset="0.936" stop-color="#D8BE86"/>
<stop offset="0.9949" stop-color="#CEAD6C"/>
</linearGradient>
<linearGradient id="paint2_linear_1029_2301" x1="6.95032" y1="11.1836" x2="5.11896" y2="9.60526" gradientUnits="userSpaceOnUse">
<stop stop-color="#AE9869"/>
<stop offset="0.0247" stop-color="#B6A274"/>
<stop offset="0.1147" stop-color="#CFC099"/>
<stop offset="0.1986" stop-color="#E1D6B3"/>
<stop offset="0.2734" stop-color="#ECE3C3"/>
<stop offset="0.3316" stop-color="#F0E8C9"/>
<stop offset="0.5657" stop-color="#EFE7C7"/>
<stop offset="0.6868" stop-color="#ECE2BF"/>
<stop offset="0.782" stop-color="#E7D9B2"/>
<stop offset="0.8637" stop-color="#E0CD9F"/>
<stop offset="0.936" stop-color="#D8BE86"/>
<stop offset="0.9949" stop-color="#CEAD6C"/>
</linearGradient>
<linearGradient id="paint3_linear_1029_2301" x1="4.86691" y1="9.42189" x2="3.6194" y2="8.3468" gradientUnits="userSpaceOnUse">
<stop stop-color="#AE9869"/>
<stop offset="0.0247" stop-color="#B6A274"/>
<stop offset="0.1147" stop-color="#CFC099"/>
<stop offset="0.1986" stop-color="#E1D6B3"/>
<stop offset="0.2734" stop-color="#ECE3C3"/>
<stop offset="0.3316" stop-color="#F0E8C9"/>
<stop offset="0.5657" stop-color="#EFE7C7"/>
<stop offset="0.6868" stop-color="#ECE2BF"/>
<stop offset="0.782" stop-color="#E7D9B2"/>
<stop offset="0.8637" stop-color="#E0CD9F"/>
<stop offset="0.936" stop-color="#D8BE86"/>
<stop offset="0.9949" stop-color="#CEAD6C"/>
</linearGradient>
<linearGradient id="paint4_linear_1029_2301" x1="2.70071" y1="10.8026" x2="2.00992" y2="10.2072" gradientUnits="userSpaceOnUse">
<stop stop-color="#AE9869"/>
<stop offset="0.0247" stop-color="#B6A274"/>
<stop offset="0.1147" stop-color="#CFC099"/>
<stop offset="0.1986" stop-color="#E1D6B3"/>
<stop offset="0.2734" stop-color="#ECE3C3"/>
<stop offset="0.3316" stop-color="#F0E8C9"/>
<stop offset="0.5657" stop-color="#EFE7C7"/>
<stop offset="0.6868" stop-color="#ECE2BF"/>
<stop offset="0.782" stop-color="#E7D9B2"/>
<stop offset="0.8637" stop-color="#E0CD9F"/>
<stop offset="0.936" stop-color="#D8BE86"/>
<stop offset="0.9949" stop-color="#CEAD6C"/>
</linearGradient>
<linearGradient id="paint5_linear_1029_2301" x1="11.4415" y1="16.2108" x2="10.1775" y2="15.1217" gradientUnits="userSpaceOnUse">
<stop stop-color="#AE9869"/>
<stop offset="0.0247" stop-color="#B6A274"/>
<stop offset="0.1147" stop-color="#CFC099"/>
<stop offset="0.1986" stop-color="#E1D6B3"/>
<stop offset="0.2734" stop-color="#ECE3C3"/>
<stop offset="0.3316" stop-color="#F0E8C9"/>
<stop offset="0.5657" stop-color="#EFE7C7"/>
<stop offset="0.6868" stop-color="#ECE2BF"/>
<stop offset="0.782" stop-color="#E7D9B2"/>
<stop offset="0.8637" stop-color="#E0CD9F"/>
<stop offset="0.936" stop-color="#D8BE86"/>
<stop offset="0.9949" stop-color="#CEAD6C"/>
</linearGradient>
<linearGradient id="paint6_linear_1029_2301" x1="17.5554" y1="10.7869" x2="16.5326" y2="9.12075" gradientUnits="userSpaceOnUse">
<stop stop-color="#AE9869"/>
<stop offset="0.0247" stop-color="#B6A274"/>
<stop offset="0.1147" stop-color="#CFC099"/>
<stop offset="0.1986" stop-color="#E1D6B3"/>
<stop offset="0.2734" stop-color="#ECE3C3"/>
<stop offset="0.3316" stop-color="#F0E8C9"/>
<stop offset="0.5657" stop-color="#EFE7C7"/>
<stop offset="0.6868" stop-color="#ECE2BF"/>
<stop offset="0.782" stop-color="#E7D9B2"/>
<stop offset="0.8637" stop-color="#E0CD9F"/>
<stop offset="0.936" stop-color="#D8BE86"/>
<stop offset="0.9949" stop-color="#CEAD6C"/>
</linearGradient>
<linearGradient id="paint7_linear_1029_2301" x1="16.7856" y1="8.59201" x2="15.9929" y2="7.90892" gradientUnits="userSpaceOnUse">
<stop stop-color="#AE9869"/>
<stop offset="0.0247" stop-color="#B6A274"/>
<stop offset="0.1147" stop-color="#CFC099"/>
<stop offset="0.1986" stop-color="#E1D6B3"/>
<stop offset="0.2734" stop-color="#ECE3C3"/>
<stop offset="0.3316" stop-color="#F0E8C9"/>
<stop offset="0.5657" stop-color="#EFE7C7"/>
<stop offset="0.6868" stop-color="#ECE2BF"/>
<stop offset="0.782" stop-color="#E7D9B2"/>
<stop offset="0.8637" stop-color="#E0CD9F"/>
<stop offset="0.936" stop-color="#D8BE86"/>
<stop offset="0.9949" stop-color="#CEAD6C"/>
</linearGradient>
<linearGradient id="paint8_linear_1029_2301" x1="17.5901" y1="5.73686" x2="16.3075" y2="4.63118" gradientUnits="userSpaceOnUse">
<stop stop-color="#AE9869"/>
<stop offset="0.0247" stop-color="#B6A274"/>
<stop offset="0.1147" stop-color="#CFC099"/>
<stop offset="0.1986" stop-color="#E1D6B3"/>
<stop offset="0.2734" stop-color="#ECE3C3"/>
<stop offset="0.3316" stop-color="#F0E8C9"/>
<stop offset="0.5657" stop-color="#EFE7C7"/>
<stop offset="0.6868" stop-color="#ECE2BF"/>
<stop offset="0.782" stop-color="#E7D9B2"/>
<stop offset="0.8637" stop-color="#E0CD9F"/>
<stop offset="0.936" stop-color="#D8BE86"/>
<stop offset="0.9949" stop-color="#CEAD6C"/>
</linearGradient>
<linearGradient id="paint9_linear_1029_2301" x1="15.8033" y1="4.35364" x2="15.2161" y2="3.84752" gradientUnits="userSpaceOnUse">
<stop stop-color="#AE9869"/>
<stop offset="0.0247" stop-color="#B6A274"/>
<stop offset="0.1147" stop-color="#CFC099"/>
<stop offset="0.1986" stop-color="#E1D6B3"/>
<stop offset="0.2734" stop-color="#ECE3C3"/>
<stop offset="0.3316" stop-color="#F0E8C9"/>
<stop offset="0.5657" stop-color="#EFE7C7"/>
<stop offset="0.6868" stop-color="#ECE2BF"/>
<stop offset="0.782" stop-color="#E7D9B2"/>
<stop offset="0.8637" stop-color="#E0CD9F"/>
<stop offset="0.936" stop-color="#D8BE86"/>
<stop offset="0.9949" stop-color="#CEAD6C"/>
</linearGradient>
<linearGradient id="paint10_linear_1029_2301" x1="13.6013" y1="2.7688" x2="11.1178" y2="0.628759" gradientUnits="userSpaceOnUse">
<stop stop-color="#AE9869"/>
<stop offset="0.0247" stop-color="#B6A274"/>
<stop offset="0.1147" stop-color="#CFC099"/>
<stop offset="0.1986" stop-color="#E1D6B3"/>
<stop offset="0.2734" stop-color="#ECE3C3"/>
<stop offset="0.3316" stop-color="#F0E8C9"/>
<stop offset="0.5657" stop-color="#EFE7C7"/>
<stop offset="0.6868" stop-color="#ECE2BF"/>
<stop offset="0.782" stop-color="#E7D9B2"/>
<stop offset="0.8637" stop-color="#E0CD9F"/>
<stop offset="0.936" stop-color="#D8BE86"/>
<stop offset="0.9949" stop-color="#CEAD6C"/>
</linearGradient>
<linearGradient id="paint11_linear_1029_2301" x1="15.6239" y1="11.0421" x2="14.7911" y2="10.3243" gradientUnits="userSpaceOnUse">
<stop stop-color="#AE9869"/>
<stop offset="0.0247" stop-color="#B6A274"/>
<stop offset="0.1147" stop-color="#CFC099"/>
<stop offset="0.1986" stop-color="#E1D6B3"/>
<stop offset="0.2734" stop-color="#ECE3C3"/>
<stop offset="0.3316" stop-color="#F0E8C9"/>
<stop offset="0.5657" stop-color="#EFE7C7"/>
<stop offset="0.6868" stop-color="#ECE2BF"/>
<stop offset="0.782" stop-color="#E7D9B2"/>
<stop offset="0.8637" stop-color="#E0CD9F"/>
<stop offset="0.936" stop-color="#D8BE86"/>
<stop offset="0.9949" stop-color="#CEAD6C"/>
</linearGradient>
<linearGradient id="paint12_linear_1029_2301" x1="11.4901" y1="4.96212" x2="8.66001" y2="0.913937" gradientUnits="userSpaceOnUse">
<stop stop-color="#AE9869"/>
<stop offset="0.0247" stop-color="#B6A274"/>
<stop offset="0.1147" stop-color="#CFC099"/>
<stop offset="0.1986" stop-color="#E1D6B3"/>
<stop offset="0.2734" stop-color="#ECE3C3"/>
<stop offset="0.3316" stop-color="#F0E8C9"/>
<stop offset="0.5657" stop-color="#EFE7C7"/>
<stop offset="0.6868" stop-color="#ECE2BF"/>
<stop offset="0.782" stop-color="#E7D9B2"/>
<stop offset="0.8637" stop-color="#E0CD9F"/>
<stop offset="0.936" stop-color="#D8BE86"/>
<stop offset="0.9949" stop-color="#CEAD6C"/>
</linearGradient>
<linearGradient id="paint13_linear_1029_2301" x1="6.89482" y1="2.64396" x2="4.08678" y2="0.224271" gradientUnits="userSpaceOnUse">
<stop stop-color="#AE9869"/>
<stop offset="0.0247" stop-color="#B6A274"/>
<stop offset="0.1147" stop-color="#CFC099"/>
<stop offset="0.1986" stop-color="#E1D6B3"/>
<stop offset="0.2734" stop-color="#ECE3C3"/>
<stop offset="0.3316" stop-color="#F0E8C9"/>
<stop offset="0.5657" stop-color="#EFE7C7"/>
<stop offset="0.6868" stop-color="#ECE2BF"/>
<stop offset="0.782" stop-color="#E7D9B2"/>
<stop offset="0.8637" stop-color="#E0CD9F"/>
<stop offset="0.936" stop-color="#D8BE86"/>
<stop offset="0.9949" stop-color="#CEAD6C"/>
</linearGradient>
<linearGradient id="paint14_linear_1029_2301" x1="4.48175" y1="12.7925" x2="3.41576" y2="11.8742" gradientUnits="userSpaceOnUse">
<stop stop-color="#AE9869"/>
<stop offset="0.0247" stop-color="#B6A274"/>
<stop offset="0.1147" stop-color="#CFC099"/>
<stop offset="0.1986" stop-color="#E1D6B3"/>
<stop offset="0.2734" stop-color="#ECE3C3"/>
<stop offset="0.3316" stop-color="#F0E8C9"/>
<stop offset="0.5657" stop-color="#EFE7C7"/>
<stop offset="0.6868" stop-color="#ECE2BF"/>
<stop offset="0.782" stop-color="#E7D9B2"/>
<stop offset="0.8637" stop-color="#E0CD9F"/>
<stop offset="0.936" stop-color="#D8BE86"/>
<stop offset="0.9949" stop-color="#CEAD6C"/>
</linearGradient>
<linearGradient id="paint15_linear_1029_2301" x1="15.3713" y1="17.9204" x2="14.8358" y2="17.4593" gradientUnits="userSpaceOnUse">
<stop stop-color="#AE9869"/>
<stop offset="0.0247" stop-color="#B6A274"/>
<stop offset="0.1147" stop-color="#CFC099"/>
<stop offset="0.1986" stop-color="#E1D6B3"/>
<stop offset="0.2734" stop-color="#ECE3C3"/>
<stop offset="0.3316" stop-color="#F0E8C9"/>
<stop offset="0.5657" stop-color="#EFE7C7"/>
<stop offset="0.6868" stop-color="#ECE2BF"/>
<stop offset="0.782" stop-color="#E7D9B2"/>
<stop offset="0.8637" stop-color="#E0CD9F"/>
<stop offset="0.936" stop-color="#D8BE86"/>
<stop offset="0.9949" stop-color="#CEAD6C"/>
</linearGradient>
<linearGradient id="paint16_linear_1029_2301" x1="16.2412" y1="9.70329" x2="10.2234" y2="4.95691" gradientUnits="userSpaceOnUse">
<stop stop-color="#AE9869"/>
<stop offset="0.0247" stop-color="#B6A274"/>
<stop offset="0.1147" stop-color="#CFC099"/>
<stop offset="0.1986" stop-color="#E1D6B3"/>
<stop offset="0.2734" stop-color="#ECE3C3"/>
<stop offset="0.3316" stop-color="#F0E8C9"/>
<stop offset="0.5657" stop-color="#EFE7C7"/>
<stop offset="0.6868" stop-color="#ECE2BF"/>
<stop offset="0.782" stop-color="#E7D9B2"/>
<stop offset="0.8637" stop-color="#E0CD9F"/>
<stop offset="0.936" stop-color="#D8BE86"/>
<stop offset="0.9949" stop-color="#CEAD6C"/>
</linearGradient>
<radialGradient id="paint17_radial_1029_2301" cx="0" cy="0" r="1" gradientUnits="userSpaceOnUse" gradientTransform="translate(28.2943 30.2933) rotate(-45) scale(27.4615)">
<stop stop-color="#8EB80C"/>
<stop offset="0.2036" stop-color="#638A12"/>
<stop offset="0.4222" stop-color="#3C5F17"/>
<stop offset="0.5931" stop-color="#23441B"/>
<stop offset="0.6939" stop-color="#1A3A1C"/>
<stop offset="0.7992" stop-color="#1C3C1C"/>
<stop offset="0.8499" stop-color="#23441B"/>
<stop offset="0.889" stop-color="#2F5119"/>
<stop offset="0.922" stop-color="#406317"/>
<stop offset="0.9513" stop-color="#567B14"/>
<stop offset="0.9776" stop-color="#719810"/>
<stop offset="1" stop-color="#8EB80C"/>
</radialGradient>
<linearGradient id="paint18_linear_1029_2301" x1="33.4488" y1="42.4637" x2="42.9902" y2="32.9223" gradientUnits="userSpaceOnUse">
<stop stop-color="#A4884C"/>
<stop offset="0.7398" stop-color="#F0E8C9"/>
</linearGradient>
<linearGradient id="paint19_linear_1029_2301" x1="34.608" y1="41.5894" x2="42.2039" y2="33.9935" gradientUnits="userSpaceOnUse">
<stop offset="0.1378" stop-color="#CCB482"/>
<stop offset="0.699" stop-color="#F0E8C9"/>
<stop offset="0.7505" stop-color="#EDE4C2"/>
<stop offset="0.8252" stop-color="#E6D7AF"/>
<stop offset="0.9137" stop-color="#DBC38F"/>
<stop offset="0.9949" stop-color="#CEAD6C"/>
</linearGradient>
<linearGradient id="paint20_linear_1029_2301" x1="17.7729" y1="22.1745" x2="22.5738" y2="17.3736" gradientUnits="userSpaceOnUse">
<stop stop-color="#A4884C"/>
<stop offset="0.2704" stop-color="#AE9869"/>
<stop offset="0.7398" stop-color="#F0E8C9"/>
<stop offset="0.9949" stop-color="#CEAD6C"/>
</linearGradient>
<linearGradient id="paint21_linear_1029_2301" x1="30.4678" y1="22.8846" x2="23.775" y2="29.962" gradientUnits="userSpaceOnUse">
<stop stop-color="#616161"/>
<stop offset="0.5029" stop-color="#212121"/>
<stop offset="1" stop-color="#616161"/>
</linearGradient>
<linearGradient id="paint22_linear_1029_2301" x1="25.8445" y1="27.551" x2="28.128" y2="25.2675" gradientUnits="userSpaceOnUse">
<stop stop-color="#A4884C"/>
<stop offset="0.699" stop-color="#F0E8C9"/>
<stop offset="0.7505" stop-color="#EDE4C2"/>
<stop offset="0.8252" stop-color="#E6D7AF"/>
<stop offset="0.9137" stop-color="#DBC38F"/>
<stop offset="0.9949" stop-color="#CEAD6C"/>
</linearGradient>
<linearGradient id="paint23_linear_1029_2301" x1="22.3838" y1="27.5317" x2="28.0832" y2="21.8323" gradientUnits="userSpaceOnUse">
<stop stop-color="#A4884C"/>
<stop offset="0.699" stop-color="#F0E8C9"/>
<stop offset="0.7505" stop-color="#EDE4C2"/>
<stop offset="0.8252" stop-color="#E6D7AF"/>
<stop offset="0.9137" stop-color="#DBC38F"/>
<stop offset="0.9949" stop-color="#CEAD6C"/>
</linearGradient>
<linearGradient id="paint24_linear_1029_2301" x1="24.7224" y1="31.0403" x2="31.5665" y2="24.1962" gradientUnits="userSpaceOnUse">
<stop stop-color="#A4884C"/>
<stop offset="0.699" stop-color="#F0E8C9"/>
<stop offset="0.7505" stop-color="#EDE4C2"/>
<stop offset="0.8252" stop-color="#E6D7AF"/>
<stop offset="0.9137" stop-color="#DBC38F"/>
<stop offset="0.9949" stop-color="#CEAD6C"/>
</linearGradient>
</defs>
</svg>
