<svg width="50" height="49" viewBox="0 0 50 49" fill="none" xmlns="http://www.w3.org/2000/svg">
<path d="M44.4833 39.6128C44.091 38.9326 44.162 38.0897 44.066 36.9379C43.8323 34.1379 43.7864 31.3504 43.6696 28.5504C43.5569 25.8422 43.8532 17.2418 43.8699 14.5294C43.874 13.7866 41.7834 20.3298 41.7709 20.7095C41.7292 22.1074 40.9864 23.1298 40.0391 24.1104C39.4591 24.7155 38.7455 25.0285 38.1822 25.621C36.851 27.0148 35.62 28.7298 34.5392 30.3322C34.2221 30.7996 33.9801 31.2878 33.5252 31.6342C32.7699 32.2142 31.7684 32.5314 30.9005 32.8777C29.7446 33.3409 28.4885 33.5162 27.3952 34.1421C26.7359 34.5177 26.2435 35.0393 25.6676 35.515C25.0834 35.999 24.541 36.3913 24.0736 37.0005C23.3475 37.9478 22.5087 38.7991 21.7201 39.6879C21.5281 39.9007 21.3487 40.1302 21.1484 40.3389C20.9606 40.5308 20.5892 40.6977 20.5892 40.6977C20.5892 40.6977 8.3584 41.5949 15.0142 42.2125C18.0354 42.4921 27.3785 42.7925 30.3997 43.093C32.2066 43.2724 33.9801 43.4686 35.7828 43.7356C36.609 43.8566 37.6814 43.7648 38.5202 44.0569C40.8278 43.1681 42.7474 41.4989 44.4833 39.6128V39.6128Z" fill="url(#paint0_linear_1029_2112)"/>
<path d="M45.7642 40.6729C45.7058 40.6437 45.6516 40.6145 45.5973 40.5895C45.0298 40.2974 44.6918 39.9802 44.4832 39.6172C42.7472 41.5033 40.8277 43.1725 38.5117 44.0655C38.9624 44.2199 39.3505 44.487 39.5925 44.9585C39.6301 45.0295 39.6593 45.1087 39.6927 45.1839C42.2047 44.3242 44.1326 42.6718 45.7642 40.6729V40.6729Z" fill="#AEEA00"/>
<path d="M47.5585 41.8673C47.0703 41.3457 46.3108 40.9534 45.7642 40.6738C44.1326 42.6727 42.2047 44.3251 39.6968 45.1806C40.0932 46.0819 40.2601 47.2128 41.103 47.7886C43.7654 49.6164 47.3791 45.6688 47.9967 43.2151C48.1261 42.6977 47.9174 42.247 47.5585 41.8673V41.8673Z" fill="url(#paint1_linear_1029_2112)"/>
<path d="M42.4384 9.99786C45.8393 14.417 43.707 27.9581 33.8631 36.041C24.0192 44.1239 10.4781 43.4563 7.08134 39.0372C3.6846 34.618 8.05781 23.3804 17.9017 15.2975C27.7456 7.21453 39.0375 5.57875 42.4384 9.99786V9.99786Z" fill="#00695C"/>
<path d="M9.48918 28.5137C13.4493 27.3578 19.6252 30.041 19.6252 30.041C19.6252 30.041 16.7167 34.9025 11.5965 36.6092C4.99912 38.8125 0.00415039 35.4867 0.00415039 35.4867C0.00415039 35.4867 2.81252 30.4583 9.48918 28.5137V28.5137Z" fill="url(#paint2_linear_1029_2112)"/>
<path d="M11.3628 32.7104C13.5076 28.5792 20.2886 25.5664 20.2886 25.5664C20.2886 25.5664 21.7992 31.6672 19.1953 37.1754C15.8403 44.2694 9.46408 45.8217 9.46408 45.8217C9.46408 45.8217 7.74901 39.675 11.3628 32.7104V32.7104Z" fill="url(#paint3_linear_1029_2112)"/>
<path d="M35.6323 7.52246C39.0458 4.43451 46.4235 4.08398 46.4235 4.08398C46.4235 4.08398 45.7558 10.3434 41.441 14.5538C35.8827 19.9703 29.3855 19.1065 29.3855 19.1065C29.3855 19.1065 29.8779 12.7261 35.6323 7.52246Z" fill="url(#paint4_linear_1029_2112)"/>
<path d="M39.818 13.0352C44.354 13.1646 49.9999 18.0803 49.9999 18.0803C49.9999 18.0803 45.3972 22.2073 39.4633 22.2699C31.8227 22.3492 27.6206 17.1581 27.6206 17.1581C27.6206 17.1581 32.1733 12.8182 39.818 13.0352V13.0352Z" fill="url(#paint5_linear_1029_2112)"/>
<path d="M37.6274 26.0923C32.549 20.1877 25.0419 20.8762 25.0419 20.8762C25.0419 20.8762 24.8124 21.6774 24.6705 22.9501C23.3811 22.441 22.5006 22.2741 22.5006 22.2741C22.5006 22.2741 22.0625 23.0002 21.5868 24.2145C20.5102 23.5594 19.7632 23.2631 19.7632 23.2631C19.7632 23.2631 14.3134 29.4515 16.7754 36.9335C18.6908 42.7422 25.4801 45.6382 25.4801 45.6382C25.4801 45.6382 26.5817 43.8564 27.5707 41.5112C29.9368 42.7673 32.0107 43.2263 32.0107 43.2263C32.0107 43.2263 33.0247 40.6683 33.5797 37.6763C36.7553 38.6152 39.6346 38.44 39.6346 38.44C39.6346 38.44 40.6445 29.5976 37.6274 26.0923V26.0923Z" fill="url(#paint6_linear_1029_2112)"/>
<path d="M34.076 8.84584C36.3806 8.84584 38.2489 6.91591 38.2489 4.53523C38.2489 2.15454 36.3806 0.224609 34.076 0.224609C31.7714 0.224609 29.9031 2.15454 29.9031 4.53523C29.9031 6.91591 31.7714 8.84584 34.076 8.84584Z" fill="#B39DDB"/>
<path d="M28.6639 11.2736C30.9685 11.2736 32.8368 9.34365 32.8368 6.96296C32.8368 4.58227 30.9685 2.65234 28.6639 2.65234C26.3592 2.65234 24.491 4.58227 24.491 6.96296C24.491 9.34365 26.3592 11.2736 28.6639 11.2736Z" fill="#B39DDB"/>
<path d="M31.0171 16.8673C33.3218 16.8673 35.1901 14.9374 35.1901 12.5567C35.1901 10.176 33.3218 8.24609 31.0171 8.24609C28.7125 8.24609 26.8442 10.176 26.8442 12.5567C26.8442 14.9374 28.7125 16.8673 31.0171 16.8673Z" fill="#B39DDB"/>
<path d="M36.4297 14.4376C38.7344 14.4376 40.6027 12.5077 40.6027 10.127C40.6027 7.74634 38.7344 5.81641 36.4297 5.81641C34.1251 5.81641 32.2568 7.74634 32.2568 10.127C32.2568 12.5077 34.1251 14.4376 36.4297 14.4376Z" fill="#B39DDB"/>
<path d="M32.5487 10.3318C33.5051 10.3318 34.2804 9.53216 34.2804 8.54577C34.2804 7.55939 33.5051 6.75977 32.5487 6.75977C31.5922 6.75977 30.8169 7.55939 30.8169 8.54577C30.8169 9.53216 31.5922 10.3318 32.5487 10.3318Z" fill="#EDE7F6"/>
<path d="M12.4727 21.2612C16.0823 22.9846 18.0728 26.469 16.921 29.0395C15.7693 31.61 11.9094 32.2986 8.2998 30.5751C2.9543 28.0255 0.700928 21.2946 0.700928 21.2946C0.700928 21.2946 7.12721 18.7074 12.4727 21.2612V21.2612Z" fill="#C62828"/>
<path d="M8.54603 25.5706C10.4322 29.1886 13.9166 31.0288 16.3327 29.6851C18.7488 28.3415 19.1786 24.3188 17.2925 20.705C14.5008 15.347 7.8575 13.4316 7.8575 13.4316C7.8575 13.4316 5.75435 20.2126 8.54603 25.5706V25.5706Z" fill="#C62828"/>
<path d="M14.7471 20.8489C17.6431 23.6615 18.4652 27.6174 16.5832 29.683C14.7012 31.7486 10.8329 31.1393 7.93691 28.3268C3.64716 24.158 3.56787 17.0307 3.56787 17.0307C3.56787 17.0307 10.4573 16.6802 14.7471 20.8489V20.8489Z" fill="#FF5252"/>
<path d="M21.8621 10.1521C25.117 13.3736 26.01 17.8637 23.8568 20.188C21.7036 22.5123 17.322 21.7779 14.0671 18.5564C9.24325 13.7826 9.22656 5.70798 9.22656 5.70798C9.22656 5.70798 17.0383 5.37832 21.8621 10.1521V10.1521Z" fill="#F06292"/>
<path d="M16.1156 13.2782C16.85 17.8726 19.9296 21.1733 23.0009 20.6517C26.0722 20.1301 27.9625 15.9822 27.2322 11.3879C26.1431 4.58186 19.7043 0 19.7043 0C19.7043 0 15.0265 6.47219 16.1156 13.2782Z" fill="#F06292"/>
<path d="M24.4449 10.5743C26.5481 14.693 26.0181 19.2456 23.2682 20.7437C20.5182 22.2418 16.5832 20.1178 14.48 15.9991C11.367 9.89415 13.8207 2.22852 13.8207 2.22852C13.8207 2.22852 21.3319 4.46937 24.4449 10.5743V10.5743Z" fill="#FF80AB"/>
<path d="M26.6648 32.5199C28.1086 32.4114 29.2437 31.1763 29.2437 29.6573C29.2437 28.1384 28.1044 26.899 26.6648 26.7947L26.4645 26.5861V26.294C27.4117 25.1631 27.37 23.4564 26.331 22.3839C25.2919 21.3115 23.6394 21.2656 22.5461 22.2462H22.2624L22.0621 22.0376C21.9578 20.5479 20.7601 19.3711 19.2913 19.3711C17.8224 19.3711 16.6248 20.5479 16.5204 22.0376L16.3201 22.2462H16.0364C14.9431 21.2698 13.2906 21.3115 12.2516 22.3839C11.2125 23.4564 11.1708 25.1631 12.118 26.294V26.5861L11.9177 26.7947C10.4739 26.9032 9.33887 28.1384 9.33887 29.6573C9.33887 31.1721 10.4781 32.4114 11.9177 32.5199L12.118 32.7286V33.0207C11.1708 34.1474 11.2167 35.8583 12.2516 36.9307C13.2864 38.0031 14.9431 38.049 16.0364 37.0684H16.3201L16.5204 37.2771C16.6248 38.7668 17.8224 39.9435 19.2913 39.9435C20.7601 39.9435 21.9578 38.7668 22.0621 37.2771L22.2624 37.0684H22.5461C23.6394 38.0449 25.2919 38.0031 26.331 36.9307C27.37 35.8583 27.4117 34.1515 26.4645 33.0207V32.7286L26.6648 32.5199Z" fill="url(#paint7_radial_1029_2112)"/>
<path d="M19.2916 32.0655C18.0064 32.0655 16.9631 30.9889 16.9631 29.6578C16.9631 28.3266 18.0064 27.25 19.2916 27.25C20.5769 27.25 21.6201 28.3266 21.6201 29.6578C21.6243 30.9848 20.581 32.0655 19.2916 32.0655Z" fill="#FFFDE7"/>
<path d="M30.0076 19.0988C31.2469 19.007 32.2234 17.9429 32.2234 16.641C32.2234 15.339 31.2469 14.2707 30.0076 14.1831L29.8365 14.0037V13.7533C30.6502 12.7852 30.6126 11.3163 29.7196 10.3941C28.8266 9.4719 27.4079 9.43434 26.4689 10.2731H26.2269L26.0558 10.0937C25.9682 8.81258 24.9375 7.80273 23.6731 7.80273C22.4129 7.80273 21.3822 8.81258 21.2904 10.0937L21.1193 10.2731H20.8772C19.9383 9.43434 18.5196 9.4719 17.6265 10.3941C16.7335 11.3163 16.696 12.7852 17.5097 13.7533V14.0037L17.3386 14.1831C16.0993 14.2749 15.1228 15.339 15.1228 16.641C15.1228 17.9429 16.1034 19.007 17.3386 19.0988L17.5097 19.2782V19.5286C16.696 20.4967 16.7335 21.9656 17.6265 22.8878C18.5196 23.81 19.9383 23.8476 20.8772 23.0088H21.1193L21.2904 23.1883C21.378 24.4693 22.4087 25.4792 23.6731 25.4792C24.9333 25.4792 25.964 24.4693 26.0558 23.1883L26.2269 23.0088H26.4689C27.4079 23.8476 28.8266 23.81 29.7196 22.8878C30.6126 21.9656 30.6502 20.4967 29.8365 19.5286V19.2782L30.0076 19.0988Z" fill="url(#paint8_radial_1029_2112)"/>
<path d="M23.6727 18.7079C22.5669 18.7079 21.6697 17.7815 21.6697 16.6381C21.6697 15.4947 22.5669 14.5684 23.6727 14.5684C24.7785 14.5684 25.6757 15.4947 25.6757 16.6381C25.6757 17.7815 24.7785 18.7079 23.6727 18.7079Z" fill="#FFFDE7"/>
<path opacity="0.2" d="M34.076 1.47721C34.4349 1.47721 34.7937 1.54815 35.1317 1.68586C36.6089 2.28676 37.3601 4.04355 36.8092 5.60005C36.6423 6.07576 36.7759 6.60572 37.1473 6.94372C37.3809 7.15654 37.6856 7.26921 37.9902 7.26921C38.1696 7.26921 38.349 7.23165 38.5201 7.15237C40.6525 6.15504 43.2522 5.69602 44.888 5.49155C44.5416 6.95624 43.8239 9.25552 42.4135 11.4046C42.209 11.7134 42.1547 12.0973 42.2591 12.4561C42.4218 12.9903 42.5387 13.5953 42.6096 14.2505C42.6597 14.6928 42.9351 15.0726 43.3399 15.2562C45.1634 16.0782 46.8701 17.2466 47.9593 18.0645C46.9286 18.7739 45.3053 19.7337 43.3357 20.368C42.8266 20.5307 42.4761 20.9981 42.4677 21.5322C42.4135 24.061 42.355 27.1531 42.4176 28.6095C42.451 29.3731 42.4761 30.1409 42.5011 30.9046C42.572 32.9117 42.643 34.9899 42.8141 37.0513C42.8349 37.3142 42.8474 37.5645 42.86 37.7982C42.9059 38.6578 42.9476 39.4716 43.3941 40.2519C43.7363 40.8486 44.2704 41.3243 45.0174 41.7124L45.1676 41.7875L45.1885 41.8C45.6308 42.0254 46.2984 42.3676 46.6406 42.739C46.7533 42.86 46.7742 42.9267 46.7742 42.9267C46.3443 44.6376 44.1536 47.0204 42.5887 47.0204C42.305 47.0204 42.0504 46.9411 41.8042 46.7742C41.5205 46.5822 41.3452 46.0689 41.1532 45.5265C41.0573 45.2552 40.9613 44.9715 40.8361 44.6919L40.8152 44.646C40.7777 44.5625 40.7401 44.4749 40.6984 44.3956C40.3312 43.682 39.7303 43.1771 38.9166 42.8933C38.2113 42.6471 37.4644 42.6138 36.8051 42.5804C36.4879 42.5637 36.1917 42.5512 35.9496 42.5136C34.0051 42.2257 32.1064 42.0254 30.5082 41.8626C29.7737 41.7917 28.6637 41.7124 27.0154 41.6248H26.9487C26.4688 41.6248 26.0264 41.9002 25.8178 42.3384C25.509 42.9893 25.2086 43.561 24.9665 44.0033C24.1069 43.536 22.805 42.739 21.5322 41.629C21.3194 41.4412 21.0523 41.3327 20.7686 41.3202C18.8365 41.2284 16.8711 41.124 15.6067 41.0281C15.5733 41.0239 15.5399 41.0239 15.5107 41.0239C15.1936 41.0239 14.8848 41.1449 14.6553 41.3619C13.0862 42.8349 11.4922 43.6945 10.4281 44.1577C10.328 43.3357 10.2528 42.1714 10.353 40.7693C10.3864 40.2811 10.1318 39.8137 9.70202 39.5801C8.98428 39.192 8.43345 38.7538 8.07041 38.2781C7.80334 37.9318 7.59052 37.4978 7.4403 36.9887C7.29008 36.4796 6.83523 36.1249 6.30944 36.0957C4.38573 35.9914 2.82506 35.4656 1.84025 35.0358C2.7416 33.8966 4.48171 32.0772 7.21496 30.7335C7.61139 30.5374 7.87428 30.1493 7.91184 29.7111C7.9494 29.273 7.7491 28.8473 7.39023 28.5886C4.7446 26.7025 3.11299 23.7105 2.36604 22.0664C2.86262 21.9286 3.48855 21.7743 4.20212 21.6491C4.53595 21.5906 4.83223 21.3987 5.02001 21.1191C5.21197 20.8395 5.27873 20.4932 5.21197 20.1635C5.06591 19.4541 4.97411 18.8198 4.91569 18.3066C5.47069 18.3399 6.17174 18.4067 6.95624 18.5444C7.02718 18.5569 7.09812 18.5611 7.16906 18.5611C7.44447 18.5611 7.71571 18.4693 7.93688 18.2982C8.21229 18.0854 8.38755 17.7641 8.41676 17.4136C8.49187 16.5039 8.62123 15.7027 8.74642 15.0892C9.33897 15.3354 10.0984 15.686 10.9163 16.1533C11.1125 16.266 11.3253 16.3203 11.5381 16.3203C11.8552 16.3203 12.1682 16.1992 12.4061 15.9697C12.8067 15.5858 12.9068 14.9808 12.6481 14.4883C11.2001 11.7008 10.716 8.65879 10.5533 6.98545C11.1584 7.02301 11.9554 7.09812 12.8484 7.24835C12.9193 7.26086 12.9861 7.26504 13.057 7.26504C13.3241 7.26504 13.5912 7.17741 13.8082 7.01466C14.0836 6.81019 14.2588 6.5014 14.3006 6.15922C14.4049 5.26204 14.5509 4.47753 14.6803 3.88081C15.2937 4.13535 16.0907 4.4984 16.9671 4.98663C17.1548 5.09095 17.3677 5.1452 17.5763 5.1452C17.714 5.1452 17.8475 5.12433 17.9811 5.07843C18.3149 4.96576 18.5861 4.71122 18.728 4.38573C19.1704 3.35502 19.6335 2.48705 20.0008 1.85695C20.973 2.70822 22.467 4.17291 23.7313 6.07993C23.965 6.43046 24.3573 6.6391 24.7746 6.6391C24.8205 6.6391 24.8705 6.63493 24.9206 6.63076C25.388 6.57651 25.7886 6.26354 25.9513 5.82121C25.9513 5.81704 25.9555 5.81287 25.9555 5.81287C26.4062 4.6528 27.4661 3.90167 28.6637 3.90584C29.0226 3.90584 29.3815 3.97678 29.7195 4.11449C29.8697 4.17708 30.0324 4.20629 30.191 4.20629C30.3621 4.20629 30.529 4.17291 30.6918 4.10197C31.0006 3.96844 31.2426 3.71389 31.3636 3.40092C31.8101 2.23251 32.8742 1.47721 34.076 1.47721M19.7045 0C19.7045 0 18.5987 1.53563 17.5846 3.89333C15.494 2.72491 13.8207 2.22416 13.8207 2.22416C13.8207 2.22416 13.3283 3.76397 13.0654 6.01316C11.4254 5.73358 10.111 5.7002 9.53927 5.7002C9.33897 5.7002 9.22631 5.70437 9.22631 5.70437C9.22631 5.70437 9.23882 10.6326 11.5423 15.0642C9.52676 13.9125 7.86176 13.4284 7.86176 13.4284C7.86176 13.4284 7.36519 15.0392 7.17323 17.3051C5.73358 17.0589 4.55682 17.0213 3.96844 17.0213C3.70972 17.0213 3.56784 17.0297 3.56784 17.0297C3.56784 17.0297 3.58453 18.461 3.9893 20.4139C2.03221 20.7561 0.701049 21.2902 0.701049 21.2902C0.701049 21.2902 2.4954 26.6315 6.66414 29.6068C2.01134 31.8936 0 35.4906 0 35.4906C0 35.4906 2.47871 37.1347 6.24267 37.3434C6.43046 37.9818 6.70587 38.5535 7.08143 39.0376C7.56549 39.6635 8.25819 40.2143 9.10946 40.6734C8.89247 43.7613 9.46416 45.8269 9.46416 45.8269C9.46416 45.8269 12.5229 45.08 15.5191 42.2632C16.7584 42.3592 18.6571 42.4594 20.7185 42.5595C23.0679 44.6168 25.4756 45.6391 25.4756 45.6391C25.4756 45.6391 26.1725 44.5083 26.957 42.8641C28.3841 42.9434 29.6068 43.0227 30.3955 43.0978C32.2024 43.2773 33.9758 43.4734 35.7785 43.7405C36.6048 43.8615 37.6772 43.7697 38.516 44.0618C38.9666 44.2162 39.3547 44.4832 39.5967 44.9548C39.6343 45.0257 39.6635 45.105 39.6969 45.1801C40.0933 46.0815 40.2602 47.2123 41.1032 47.7882C41.5789 48.1137 42.0838 48.2555 42.5971 48.2555C44.9589 48.2555 47.4919 45.2302 47.9968 43.2147C48.1262 42.6931 47.9175 42.2424 47.5587 41.8626C47.0704 41.341 46.311 40.9488 45.7643 40.6692C45.7059 40.64 45.6516 40.6108 45.5974 40.5857C45.0299 40.2936 44.6919 39.9765 44.4832 39.6134C44.091 38.9333 44.1619 38.0903 44.0659 36.9386C43.8323 34.1386 43.7864 31.3511 43.6695 28.5511C43.6153 27.199 43.6612 24.374 43.7196 21.5531C47.4585 20.3555 49.9956 18.0812 49.9956 18.0812C49.9956 18.0812 47.1372 15.5942 43.8531 14.1128C43.7738 13.3825 43.6403 12.7065 43.4567 12.0931C45.973 8.27071 46.4195 4.08945 46.4195 4.08945C46.4195 4.08945 41.6331 4.31896 37.986 6.02151C38.7622 3.83073 37.7148 1.38958 35.6033 0.529959C35.1025 0.325487 34.5851 0.22951 34.076 0.22951C32.411 0.22951 30.842 1.26439 30.191 2.95859C29.6903 2.75412 29.1728 2.65814 28.6637 2.65814C26.9987 2.65814 25.4297 3.69303 24.7787 5.38723V5.3914C22.5546 2.02803 19.7045 0 19.7045 0V0Z" fill="#424242"/>
<path d="M40.2017 23.8477C41.3701 23.7601 42.2923 22.7586 42.2923 21.5317C42.2923 20.3049 41.3701 19.2992 40.2017 19.2158L40.039 19.0488V18.811C40.8068 17.8971 40.7692 16.5159 39.9305 15.6479C39.0917 14.78 37.7522 14.7424 36.8676 15.5352H36.638L36.4753 15.3683C36.3918 14.1624 35.4196 13.2109 34.2303 13.2109C33.041 13.2109 32.0687 14.1624 31.9853 15.3683L31.8225 15.5352H31.593C30.7083 14.7424 29.3688 14.78 28.5301 15.6479C27.6913 16.5159 27.6538 17.8971 28.4216 18.811V19.0488L28.2588 19.2158C27.0904 19.3034 26.1682 20.3049 26.1682 21.5317C26.1682 22.7586 27.0904 23.7642 28.2588 23.8477L28.4216 24.0146V24.2525C27.6538 25.1663 27.6913 26.5476 28.5301 27.4155C29.3688 28.2835 30.7083 28.321 31.593 27.5282H31.8225L31.9853 27.6951C32.0687 28.9011 33.041 29.8525 34.2303 29.8525C35.4196 29.8525 36.3918 28.9011 36.4753 27.6951L36.638 27.5282H36.8676C37.7522 28.321 39.0917 28.2835 39.9305 27.4155C40.7692 26.5476 40.8068 25.1663 40.039 24.2525V24.0146L40.2017 23.8477Z" fill="url(#paint9_radial_1029_2112)"/>
<path d="M34.2304 23.4776C33.1872 23.4776 32.3442 22.6054 32.3442 21.5288C32.3442 20.4522 33.1872 19.5801 34.2304 19.5801C35.2736 19.5801 36.1166 20.4522 36.1166 21.5288C36.1166 22.6054 35.2736 23.4776 34.2304 23.4776Z" fill="#FFFDE7"/>
<defs>
<linearGradient id="paint0_linear_1029_2112" x1="25.4557" y1="24.415" x2="40.8737" y2="43.6605" gradientUnits="userSpaceOnUse">
<stop stop-color="#00897B"/>
<stop offset="1" stop-color="#4DB6AC"/>
</linearGradient>
<linearGradient id="paint1_linear_1029_2112" x1="42.0879" y1="42.0843" x2="45.8936" y2="46.8372" gradientUnits="userSpaceOnUse">
<stop stop-color="#00897B"/>
<stop offset="1" stop-color="#4DB6AC"/>
</linearGradient>
<linearGradient id="paint2_linear_1029_2112" x1="-0.348503" y1="39.5803" x2="17.4916" y2="27.733" gradientUnits="userSpaceOnUse">
<stop stop-color="#9CCC65"/>
<stop offset="1" stop-color="#00AD51"/>
</linearGradient>
<linearGradient id="paint3_linear_1029_2112" x1="2.38098" y1="44.1567" x2="20.4526" y2="32.1563" gradientUnits="userSpaceOnUse">
<stop stop-color="#9CCC65"/>
<stop offset="1" stop-color="#00AD51"/>
</linearGradient>
<linearGradient id="paint4_linear_1029_2112" x1="26.5245" y1="19.3969" x2="48.0843" y2="4.59099" gradientUnits="userSpaceOnUse">
<stop stop-color="#00AD51"/>
<stop offset="1" stop-color="#9CCC65"/>
</linearGradient>
<linearGradient id="paint5_linear_1029_2112" x1="29.6837" y1="23.8777" x2="50.9639" y2="9.26458" gradientUnits="userSpaceOnUse">
<stop stop-color="#00AD51"/>
<stop offset="1" stop-color="#9CCC65"/>
</linearGradient>
<linearGradient id="paint6_linear_1029_2112" x1="23.8243" y1="22.2641" x2="31.8646" y2="43.1679" gradientUnits="userSpaceOnUse">
<stop stop-color="#00AD51"/>
<stop offset="1" stop-color="#9CCC65"/>
</linearGradient>
<radialGradient id="paint7_radial_1029_2112" cx="0" cy="0" r="1" gradientUnits="userSpaceOnUse" gradientTransform="translate(19.2927 29.6566) scale(9.95399 10.2836)">
<stop stop-color="#FFFC1F"/>
<stop offset="1" stop-color="#FCC21B"/>
</radialGradient>
<radialGradient id="paint8_radial_1029_2112" cx="0" cy="0" r="1" gradientUnits="userSpaceOnUse" gradientTransform="translate(23.6727 16.6386) scale(8.55286 8.83608)">
<stop stop-color="#FFEE00"/>
<stop offset="1" stop-color="#FC9E1B"/>
</radialGradient>
<radialGradient id="paint9_radial_1029_2112" cx="0" cy="0" r="1" gradientUnits="userSpaceOnUse" gradientTransform="translate(34.2315 21.5293) scale(8.05937 8.32626)">
<stop stop-color="#FFFC1F"/>
<stop offset="1" stop-color="#FCC21B"/>
</radialGradient>
</defs>
</svg>
