<svg width="50" height="77" viewBox="0 0 50 77" fill="none" xmlns="http://www.w3.org/2000/svg">
<path d="M24.9617 13.4844C3.07303 13.6832 0.635254 19.6045 0.635254 19.6045C0.635254 19.6045 6.85799 63.6191 7.50592 67.9365C8.15386 72.2539 15.5506 76.6034 24.9617 76.6034C34.3727 76.6034 41.7695 72.2475 42.4174 67.9365C43.0653 63.6191 49.3651 19.8996 49.3651 19.8996C49.3651 19.8996 46.8503 13.6832 24.9617 13.4844V13.4844Z" fill="url(#paint0_linear_1029_810)"/>
<path d="M33.2691 24.9028L24.9614 76.5964C34.3725 76.5964 41.7692 72.2405 42.4172 67.9295C43.0651 63.6121 49.3648 19.8926 49.3648 19.8926L33.2691 24.9028Z" fill="url(#paint1_linear_1029_810)"/>
<path d="M3.38086 38.4908C5.05522 50.5192 7.12092 65.3448 7.50583 67.9301C8.15376 72.2475 15.5505 76.597 24.9616 76.597C34.3726 76.597 41.7694 72.2411 42.4173 67.9301C42.7958 65.3961 44.7781 51.2057 46.4332 39.2798C46.4332 39.2798 30.7481 33.4548 21.2857 34.616C11.8297 35.7707 3.38086 38.4908 3.38086 38.4908V38.4908Z" fill="url(#paint2_linear_1029_810)"/>
<path d="M46.3177 38.3246C47.4789 41.2563 41.5512 50.6867 24.5767 43.4824C8.47452 36.6438 3.38086 38.4914 3.38086 38.4914C5.74165 36.137 10.4825 32.9102 22.1517 32.9102C35.3927 32.9102 44.9128 34.7834 46.3177 38.3246Z" fill="url(#paint3_radial_1029_810)"/>
<path d="M29.17 21.8809C27.6945 27.0323 23.4155 40.9019 23.4155 40.9019C23.4155 40.9019 25.3016 42.3774 28.4386 42.3838C31.8579 42.3838 32.3968 41.043 32.3968 41.043C32.3968 41.043 36.5987 27.3979 38.0293 22.3235C38.0293 22.3235 36.6693 22.5609 33.2757 22.5352C29.8756 22.516 29.17 21.8809 29.17 21.8809Z" fill="#9575CD"/>
<path opacity="0.4" d="M32.3965 41.0429C32.3965 41.0429 36.9641 25.9672 37.1501 25.3385C37.58 23.9015 35.7131 23.5615 33.5063 22.9648C33.5063 22.9648 27.8032 42.3836 28.0534 42.39C31.6395 42.4927 32.3965 41.0429 32.3965 41.0429V41.0429Z" fill="url(#paint4_linear_1029_810)"/>
<path d="M38.4272 55.9324C40.1136 55.9324 41.4808 54.6083 41.4808 52.975C41.4808 51.3417 40.1136 50.0176 38.4272 50.0176C36.7407 50.0176 35.3735 51.3417 35.3735 52.975C35.3735 54.6083 36.7407 55.9324 38.4272 55.9324Z" fill="url(#paint5_radial_1029_810)"/>
<path d="M28.3105 55.1004C29.9969 55.1004 31.3641 53.7763 31.3641 52.143C31.3641 50.5096 29.9969 49.1855 28.3105 49.1855C26.624 49.1855 25.2568 50.5096 25.2568 52.143C25.2568 53.7763 26.624 55.1004 28.3105 55.1004Z" fill="url(#paint6_radial_1029_810)"/>
<path d="M22.2094 68.1726C23.8959 68.1726 25.263 66.8485 25.263 65.2152C25.263 63.5819 23.8959 62.2578 22.2094 62.2578C20.5229 62.2578 19.1558 63.5819 19.1558 65.2152C19.1558 66.8485 20.5229 68.1726 22.2094 68.1726Z" fill="url(#paint7_radial_1029_810)"/>
<path d="M30.9662 67.7507C32.6527 67.7507 34.0199 66.4267 34.0199 64.7933C34.0199 63.16 32.6527 61.8359 30.9662 61.8359C29.2798 61.8359 27.9126 63.16 27.9126 64.7933C27.9126 66.4267 29.2798 67.7507 30.9662 67.7507Z" fill="url(#paint8_radial_1029_810)"/>
<path d="M30.9662 67.7507C32.6527 67.7507 34.0199 66.4267 34.0199 64.7933C34.0199 63.16 32.6527 61.8359 30.9662 61.8359C29.2798 61.8359 27.9126 63.16 27.9126 64.7933C27.9126 66.4267 29.2798 67.7507 30.9662 67.7507Z" fill="url(#paint9_radial_1029_810)"/>
<path d="M28.3105 55.1004C29.9969 55.1004 31.3641 53.7763 31.3641 52.143C31.3641 50.5096 29.9969 49.1855 28.3105 49.1855C26.624 49.1855 25.2568 50.5096 25.2568 52.143C25.2568 53.7763 26.624 55.1004 28.3105 55.1004Z" fill="url(#paint10_radial_1029_810)"/>
<path d="M38.4272 55.9324C40.1136 55.9324 41.4808 54.6083 41.4808 52.975C41.4808 51.3417 40.1136 50.0176 38.4272 50.0176C36.7407 50.0176 35.3735 51.3417 35.3735 52.975C35.3735 54.6083 36.7407 55.9324 38.4272 55.9324Z" fill="url(#paint11_radial_1029_810)"/>
<path d="M11.6883 67.5193C13.2401 67.5193 14.4981 66.2986 14.4981 64.7929C14.4981 63.2871 13.2401 62.0664 11.6883 62.0664C10.1364 62.0664 8.87842 63.2871 8.87842 64.7929C8.87842 66.2986 10.1364 67.5193 11.6883 67.5193Z" fill="url(#paint12_radial_1029_810)"/>
<path d="M11.6883 67.5193C13.2401 67.5193 14.4981 66.2986 14.4981 64.7929C14.4981 63.2871 13.2401 62.0664 11.6883 62.0664C10.1364 62.0664 8.87842 63.2871 8.87842 64.7929C8.87842 66.2986 10.1364 67.5193 11.6883 67.5193Z" fill="url(#paint13_radial_1029_810)"/>
<path d="M36.823 71.49C38.3749 71.49 39.6329 70.2693 39.6329 68.7636C39.6329 67.2578 38.3749 66.0371 36.823 66.0371C35.2712 66.0371 34.0132 67.2578 34.0132 68.7636C34.0132 70.2693 35.2712 71.49 36.823 71.49Z" fill="url(#paint14_radial_1029_810)"/>
<path d="M36.823 71.49C38.3749 71.49 39.6329 70.2693 39.6329 68.7636C39.6329 67.2578 38.3749 66.0371 36.823 66.0371C35.2712 66.0371 34.0132 67.2578 34.0132 68.7636C34.0132 70.2693 35.2712 71.49 36.823 71.49Z" fill="url(#paint15_radial_1029_810)"/>
<path d="M19.1304 65.2165C19.1304 63.5806 20.3749 62.3553 22.0557 62.2591C23.7301 62.1629 25.289 63.4202 25.289 65.0561C25.289 66.692 24.2369 68.2637 22.1776 68.1803C20.4968 68.1033 19.1304 66.8459 19.1304 65.2165Z" fill="url(#paint16_radial_1029_810)"/>
<path d="M26.1098 75.3386C27.7963 75.3386 29.1634 74.0146 29.1634 72.3812C29.1634 70.7479 27.7963 69.4238 26.1098 69.4238C24.4233 69.4238 23.0562 70.7479 23.0562 72.3812C23.0562 74.0146 24.4233 75.3386 26.1098 75.3386Z" fill="url(#paint17_radial_1029_810)"/>
<path d="M23.0239 72.3825C23.0239 70.7466 24.2685 69.5213 25.9493 69.4251C27.6236 69.3289 29.1825 70.5862 29.1825 72.2221C29.1825 73.858 28.1304 75.4297 26.0711 75.3463C24.3968 75.2758 23.0239 74.0184 23.0239 72.3825V72.3825Z" fill="url(#paint18_radial_1029_810)"/>
<path d="M17.475 62.657C19.1615 62.657 20.5286 61.3329 20.5286 59.6996C20.5286 58.0663 19.1615 56.7422 17.475 56.7422C15.7885 56.7422 14.4214 58.0663 14.4214 59.6996C14.4214 61.3329 15.7885 62.657 17.475 62.657Z" fill="url(#paint19_radial_1029_810)"/>
<path d="M14.3955 59.6989C14.3955 58.063 15.6401 56.8377 17.3208 56.7415C18.9952 56.6453 20.5541 57.9027 20.5541 59.5385C20.5541 61.1744 19.502 62.7461 17.4427 62.6627C15.7619 62.5922 14.3955 61.3348 14.3955 59.6989Z" fill="url(#paint20_radial_1029_810)"/>
<path d="M25.2568 61.5671C26.9432 61.5671 28.3104 60.2431 28.3104 58.6097C28.3104 56.9764 26.9432 55.6523 25.2568 55.6523C23.5703 55.6523 22.2031 56.9764 22.2031 58.6097C22.2031 60.2431 23.5703 61.5671 25.2568 61.5671Z" fill="url(#paint21_radial_1029_810)"/>
<path d="M22.1772 58.6091C22.1772 56.9732 23.4218 55.7479 25.1026 55.6517C26.7769 55.5554 28.3358 56.8128 28.3358 58.4487C28.3358 60.0846 27.2837 61.6563 25.2245 61.5729C23.5437 61.4959 22.1772 60.2449 22.1772 58.6091V58.6091Z" fill="url(#paint22_radial_1029_810)"/>
<path d="M34.6034 64.0242C36.2899 64.0242 37.6571 62.7001 37.6571 61.0668C37.6571 59.4334 36.2899 58.1094 34.6034 58.1094C32.917 58.1094 31.5498 59.4334 31.5498 61.0668C31.5498 62.7001 32.917 64.0242 34.6034 64.0242Z" fill="url(#paint23_radial_1029_810)"/>
<path d="M31.5244 61.0661C31.5244 59.4302 32.769 58.2049 34.4497 58.1087C36.1241 58.0125 37.683 59.2698 37.683 60.9057C37.683 62.5416 36.6309 64.1133 34.5716 64.0299C32.8908 63.9529 31.5244 62.702 31.5244 61.0661V61.0661Z" fill="url(#paint24_radial_1029_810)"/>
<path d="M11.4189 57.4929C13.1053 57.4929 14.4725 56.1689 14.4725 54.5355C14.4725 52.9022 13.1053 51.5781 11.4189 51.5781C9.73239 51.5781 8.36523 52.9022 8.36523 54.5355C8.36523 56.1689 9.73239 57.4929 11.4189 57.4929Z" fill="url(#paint25_radial_1029_810)"/>
<path d="M8.3335 54.5348C8.3335 52.899 9.57804 51.6737 11.2588 51.5774C12.9332 51.4812 14.4921 52.7386 14.4921 54.3745C14.4921 56.0103 13.44 57.5821 11.3807 57.4987C9.70635 57.4281 8.3335 56.1707 8.3335 54.5348Z" fill="url(#paint26_radial_1029_810)"/>
<path d="M17.0644 73.4343C18.7508 73.4343 20.118 72.1103 20.118 70.4769C20.118 68.8436 18.7508 67.5195 17.0644 67.5195C15.3779 67.5195 14.0107 68.8436 14.0107 70.4769C14.0107 72.1103 15.3779 73.4343 17.0644 73.4343Z" fill="url(#paint27_radial_1029_810)"/>
<path d="M13.9854 70.4841C13.9854 68.8482 15.2299 67.6229 16.9107 67.5267C18.585 67.4304 20.1439 68.6878 20.1439 70.3237C20.1439 71.9596 19.0918 73.5313 17.0326 73.4479C15.3518 73.3709 13.9854 72.1135 13.9854 70.4841Z" fill="url(#paint28_radial_1029_810)"/>
<path opacity="0.55" d="M47.0491 25.5762L41.9362 64.7858C41.4743 69.1866 40.1143 71.0535 36.4127 72.9909C34.315 74.0879 31.9285 74.646 31.9991 74.6203L34.8795 26.8656L47.0491 25.5762Z" fill="url(#paint29_linear_1029_810)"/>
<path d="M48.9351 22.9717C49.0377 22.3751 49.5253 20.5917 49.3841 19.4305C49.3841 19.4305 49.0441 17.8588 47.9151 18.3014C44.0659 19.8026 34.225 24.9925 25 25.2042C15.467 24.9861 5.22196 19.5588 1.64229 18.1411C0.737747 17.7818 0.615858 19.4305 0.615858 19.4305C0.481139 20.5917 0.968694 22.3687 1.06492 22.9717C1.3921 24.9283 0 24.9027 0 24.9027C0 24.9027 0.224531 27.0453 4.07365 26.654C4.77932 26.5834 7.2235 26.4038 9.32769 27.9499C10.4824 28.7967 11.2843 29.9258 14.0236 29.7654C14.7549 29.7205 15.4221 29.3291 16.1278 29.1239C17.2633 28.7839 18.495 28.8159 19.6177 29.2073C20.6633 29.5729 21.5935 30.2337 22.6392 30.5865C23.3705 30.8303 24.166 30.9329 25 30.9329C25.834 30.9329 26.6359 30.8303 27.3608 30.5865C28.4065 30.2337 29.3431 29.5729 30.3823 29.2073C31.505 28.8159 32.7367 28.7903 33.8722 29.1239C34.5779 29.3356 35.2451 29.7269 35.9764 29.7654C38.7157 29.9258 39.5176 28.7967 40.6723 27.9499C42.7765 26.4038 45.2207 26.5834 45.9264 26.654C49.7755 27.0518 50 24.9027 50 24.9027C50 24.9027 48.6079 24.9219 48.9351 22.9717Z" fill="#33AC71"/>
<path d="M24.9484 12.2207C11.1622 12.2207 0.628418 15.5245 0.628418 19.5982C0.628418 23.6718 11.1557 26.9756 24.9484 26.9756C38.7411 26.9756 49.2684 23.6718 49.2684 19.5982C49.2684 15.5245 38.7411 12.2207 24.9484 12.2207ZM33.1855 22.0295C30.1319 22.0295 27.662 21.1442 27.662 20.0601C27.662 18.9695 30.1383 18.0906 33.1855 18.0906C36.2391 18.0906 38.709 18.9759 38.709 20.0601C38.709 21.1506 36.2391 22.0295 33.1855 22.0295Z" fill="#72E6AC"/>
<path d="M27.6626 20.0589C27.669 19.7895 27.8358 19.5329 28.0218 19.334C28.2079 19.1287 28.4324 18.9619 28.6698 18.8208C28.9071 18.6796 29.1509 18.5706 29.4011 18.4615C29.6513 18.3781 29.9079 18.2819 30.1645 18.2177C31.1974 17.9483 32.243 17.8713 33.2759 17.8842C34.3087 17.9098 35.3544 18.0253 36.3744 18.3332C36.8812 18.4808 37.3816 18.6925 37.8435 19.0004C38.068 19.1608 38.2926 19.334 38.4529 19.5713C38.6197 19.7959 38.7224 20.0974 38.6518 20.354C38.4914 19.8472 38.0103 19.6868 37.5741 19.5457C37.125 19.411 36.6439 19.3468 36.1691 19.2891C35.2133 19.1929 34.2382 19.1736 33.2566 19.1672C32.2751 19.18 31.3 19.1608 30.3377 19.2313C29.8566 19.2634 29.3819 19.3083 28.92 19.4174C28.689 19.4623 28.4581 19.5329 28.2464 19.6291C28.0283 19.7253 27.8101 19.8408 27.6626 20.0589V20.0589Z" fill="#33AC71"/>
<path d="M40.2807 0.256303C37.7467 -0.423707 35.6875 0.28838 35.1101 1.93067L29.2915 21.5098C29.2915 21.5098 30.4783 22.1257 34.0516 22.1257C36.9705 22.1257 38.5615 20.6823 38.5615 20.6823C38.5615 20.6823 43.097 4.64429 43.283 4.01561C43.7129 2.5786 42.4876 0.852916 40.2807 0.256303V0.256303Z" fill="#B39DDB"/>
<path d="M34.0516 22.1251C36.9705 22.1251 38.5615 20.6817 38.5615 20.6817C38.5615 20.6817 38.8245 19.745 39.2286 18.3145C39.1196 18.4043 38.0611 19.1869 34.7765 19.3345C31.3508 19.4884 30.0549 18.9303 30.0549 18.9303L29.2915 21.5028C29.2915 21.5092 30.4719 22.1251 34.0516 22.1251V22.1251Z" fill="url(#paint30_radial_1029_810)"/>
<path opacity="0.4" d="M43.3539 3.18752C43.341 3.0913 43.3282 3.00148 43.3025 2.90526C43.1935 2.43695 42.9369 1.98147 42.552 1.5709C42.475 1.4875 42.3916 1.41052 42.3082 1.33353C42.135 1.17957 41.9425 1.03202 41.7372 0.897301C41.6346 0.833149 41.5255 0.768998 41.4101 0.704846C41.07 0.52522 40.6915 0.371256 40.2746 0.262198C39.8576 0.153139 34.8601 18.7059 34.0454 22.1316C36.9643 22.1316 38.5553 20.6882 38.5553 20.6882C38.5553 20.6882 42.6674 6.1321 43.2191 4.21396C43.2448 4.11773 43.2705 4.04716 43.2769 4.01508C43.3667 3.74565 43.3859 3.46338 43.3539 3.18752V3.18752Z" fill="url(#paint31_linear_1029_810)"/>
<path d="M36.1047 2.14265C36.4704 0.962251 38.1896 0.41696 39.9474 0.92376C41.7052 1.43056 42.8278 2.80983 42.4622 3.99022C42.0965 5.17062 40.3772 5.71591 38.6195 5.20911C36.8617 4.70231 35.739 3.32946 36.1047 2.14265Z" fill="url(#paint32_radial_1029_810)"/>
<defs>
<linearGradient id="paint0_linear_1029_810" x1="15.1855" y1="45.6652" x2="0.624028" y2="46.6931" gradientUnits="userSpaceOnUse">
<stop stop-color="#80D3F9" stop-opacity="0.0283"/>
<stop offset="1" stop-color="#54B7E3"/>
</linearGradient>
<linearGradient id="paint1_linear_1029_810" x1="40.5377" y1="48.2981" x2="48.1385" y2="48.4165" gradientUnits="userSpaceOnUse">
<stop offset="0.2083" stop-color="#80D3F9" stop-opacity="0.0283"/>
<stop offset="1" stop-color="#54B7E3"/>
</linearGradient>
<linearGradient id="paint2_linear_1029_810" x1="24.9064" y1="42.9681" x2="24.9064" y2="57.2409" gradientUnits="userSpaceOnUse">
<stop stop-color="#EEB68E"/>
<stop offset="1" stop-color="#F5CEA7"/>
</linearGradient>
<radialGradient id="paint3_radial_1029_810" cx="0" cy="0" r="1" gradientUnits="userSpaceOnUse" gradientTransform="translate(20.8304 44.8943) rotate(13.0732) scale(25.913 16.7807)">
<stop offset="0.00134215" stop-color="#C48C63"/>
<stop offset="1" stop-color="#EEB68E"/>
</radialGradient>
<linearGradient id="paint4_linear_1029_810" x1="34.8203" y1="33.7683" x2="32.2223" y2="33.0688" gradientUnits="userSpaceOnUse">
<stop stop-color="white"/>
<stop offset="1" stop-color="#FBFEFF" stop-opacity="0"/>
</linearGradient>
<radialGradient id="paint5_radial_1029_810" cx="0" cy="0" r="1" gradientUnits="userSpaceOnUse" gradientTransform="translate(39.1519 51.2313) scale(3.63632 3.52687)">
<stop stop-color="#6D4C41"/>
<stop offset="0.9985" stop-color="#3D3832"/>
</radialGradient>
<radialGradient id="paint6_radial_1029_810" cx="0" cy="0" r="1" gradientUnits="userSpaceOnUse" gradientTransform="translate(29.0378 50.4044) scale(3.63632 3.52687)">
<stop stop-color="#6D4C41"/>
<stop offset="0.9985" stop-color="#3D3832"/>
</radialGradient>
<radialGradient id="paint7_radial_1029_810" cx="0" cy="0" r="1" gradientUnits="userSpaceOnUse" gradientTransform="translate(22.9347 63.4705) scale(3.63632 3.52687)">
<stop stop-color="#6D4C41"/>
<stop offset="0.9985" stop-color="#3D3832"/>
</radialGradient>
<radialGradient id="paint8_radial_1029_810" cx="0" cy="0" r="1" gradientUnits="userSpaceOnUse" gradientTransform="translate(31.6903 63.0484) scale(3.63632 3.52687)">
<stop stop-color="#6D4C41"/>
<stop offset="0.9985" stop-color="#3D3832"/>
</radialGradient>
<radialGradient id="paint9_radial_1029_810" cx="0" cy="0" r="1" gradientUnits="userSpaceOnUse" gradientTransform="translate(31.3772 64.6387) scale(3.61688 3.50802)">
<stop offset="0.5279" stop-color="#F5CEA7" stop-opacity="0"/>
<stop offset="1" stop-color="#F5CEA7"/>
</radialGradient>
<radialGradient id="paint10_radial_1029_810" cx="0" cy="0" r="1" gradientUnits="userSpaceOnUse" gradientTransform="translate(28.4823 52.0621) scale(3.63632 3.52687)">
<stop offset="0.5669" stop-color="#F5CEA7" stop-opacity="0"/>
<stop offset="1" stop-color="#F5CEA7"/>
</radialGradient>
<radialGradient id="paint11_radial_1029_810" cx="0" cy="0" r="1" gradientUnits="userSpaceOnUse" gradientTransform="translate(38.5965 52.889) scale(3.63632 3.52687)">
<stop offset="0.5669" stop-color="#F5CEA7" stop-opacity="0"/>
<stop offset="1" stop-color="#F5CEA7"/>
</radialGradient>
<radialGradient id="paint12_radial_1029_810" cx="0" cy="0" r="1" gradientUnits="userSpaceOnUse" gradientTransform="translate(12.3558 63.1855) scale(3.34854 3.24775)">
<stop stop-color="#6D4C41"/>
<stop offset="0.9985" stop-color="#3D3832"/>
</radialGradient>
<radialGradient id="paint13_radial_1029_810" cx="0" cy="0" r="1" gradientUnits="userSpaceOnUse" gradientTransform="translate(11.7653 64.4995) scale(3.54234 3.25151)">
<stop offset="0.5669" stop-color="#F5CEA7" stop-opacity="0"/>
<stop offset="1" stop-color="#F5CEA7"/>
</radialGradient>
<radialGradient id="paint14_radial_1029_810" cx="0" cy="0" r="1" gradientUnits="userSpaceOnUse" gradientTransform="translate(37.4939 67.1568) scale(3.34854 3.24775)">
<stop stop-color="#6D4C41"/>
<stop offset="0.9985" stop-color="#3D3832"/>
</radialGradient>
<radialGradient id="paint15_radial_1029_810" cx="0" cy="0" r="1" gradientUnits="userSpaceOnUse" gradientTransform="translate(36.9034 68.4712) scale(3.54234 3.25151)">
<stop offset="0.5669" stop-color="#F5CEA7" stop-opacity="0"/>
<stop offset="1" stop-color="#F5CEA7"/>
</radialGradient>
<radialGradient id="paint16_radial_1029_810" cx="0" cy="0" r="1" gradientUnits="userSpaceOnUse" gradientTransform="translate(22.1599 65.3964) scale(3.87362 3.5556)">
<stop offset="0.5669" stop-color="#F5CEA7" stop-opacity="0"/>
<stop offset="1" stop-color="#F5CEA7"/>
</radialGradient>
<radialGradient id="paint17_radial_1029_810" cx="0" cy="0" r="1" gradientUnits="userSpaceOnUse" gradientTransform="translate(26.8335 70.6382) scale(3.63632 3.52687)">
<stop stop-color="#6D4C41"/>
<stop offset="0.9985" stop-color="#3D3832"/>
</radialGradient>
<radialGradient id="paint18_radial_1029_810" cx="0" cy="0" r="1" gradientUnits="userSpaceOnUse" gradientTransform="translate(26.0582 72.5597) scale(3.71138 3.44565)">
<stop offset="0.5669" stop-color="#F5CEA7" stop-opacity="0"/>
<stop offset="1" stop-color="#F5CEA7"/>
</radialGradient>
<radialGradient id="paint19_radial_1029_810" cx="0" cy="0" r="1" gradientUnits="userSpaceOnUse" gradientTransform="translate(18.2042 57.9593) scale(3.63632 3.52687)">
<stop stop-color="#6D4C41"/>
<stop offset="0.9985" stop-color="#3D3832"/>
</radialGradient>
<radialGradient id="paint20_radial_1029_810" cx="0" cy="0" r="1" gradientUnits="userSpaceOnUse" gradientTransform="translate(17.429 59.8828) scale(3.87362 3.5556)">
<stop offset="0.5669" stop-color="#F5CEA7" stop-opacity="0"/>
<stop offset="1" stop-color="#F5CEA7"/>
</radialGradient>
<radialGradient id="paint21_radial_1029_810" cx="0" cy="0" r="1" gradientUnits="userSpaceOnUse" gradientTransform="translate(25.9863 56.8664) scale(3.63632 3.52687)">
<stop stop-color="#6D4C41"/>
<stop offset="0.9985" stop-color="#3D3832"/>
</radialGradient>
<radialGradient id="paint22_radial_1029_810" cx="0" cy="0" r="1" gradientUnits="userSpaceOnUse" gradientTransform="translate(25.211 58.7898) scale(3.6727 3.51293)">
<stop offset="0.5669" stop-color="#F5CEA7" stop-opacity="0"/>
<stop offset="1" stop-color="#F5CEA7"/>
</radialGradient>
<radialGradient id="paint23_radial_1029_810" cx="0" cy="0" r="1" gradientUnits="userSpaceOnUse" gradientTransform="translate(35.3294 59.3225) scale(3.63632 3.52687)">
<stop stop-color="#6D4C41"/>
<stop offset="0.9985" stop-color="#3D3832"/>
</radialGradient>
<radialGradient id="paint24_radial_1029_810" cx="0" cy="0" r="1" gradientUnits="userSpaceOnUse" gradientTransform="translate(34.4334 60.8423) scale(3.80292 3.49071)">
<stop offset="0.5067" stop-color="#F5CEA7" stop-opacity="0"/>
<stop offset="1" stop-color="#F5CEA7"/>
</radialGradient>
<radialGradient id="paint25_radial_1029_810" cx="0" cy="0" r="1" gradientUnits="userSpaceOnUse" gradientTransform="translate(12.143 52.7946) scale(3.63632 3.52687)">
<stop stop-color="#6D4C41"/>
<stop offset="0.9985" stop-color="#3D3832"/>
</radialGradient>
<radialGradient id="paint26_radial_1029_810" cx="0" cy="0" r="1" gradientUnits="userSpaceOnUse" gradientTransform="translate(11.3683 54.7165) scale(3.87362 3.75005)">
<stop offset="0.5669" stop-color="#F5CEA7" stop-opacity="0"/>
<stop offset="1" stop-color="#F5CEA7"/>
</radialGradient>
<radialGradient id="paint27_radial_1029_810" cx="0" cy="0" r="1" gradientUnits="userSpaceOnUse" gradientTransform="translate(17.7903 68.7372) scale(3.63632 3.52687)">
<stop stop-color="#6D4C41"/>
<stop offset="0.9985" stop-color="#3D3832"/>
</radialGradient>
<radialGradient id="paint28_radial_1029_810" cx="0" cy="0" r="1" gradientUnits="userSpaceOnUse" gradientTransform="translate(17.0154 70.8639) scale(3.83936 3.72495)">
<stop offset="0.5669" stop-color="#F5CEA7" stop-opacity="0"/>
<stop offset="1" stop-color="#F5CEA7"/>
</radialGradient>
<linearGradient id="paint29_linear_1029_810" x1="43.1715" y1="50.5785" x2="34.5853" y2="49.4542" gradientUnits="userSpaceOnUse">
<stop stop-color="#FFD6C4" stop-opacity="0.0285"/>
<stop offset="0.1313" stop-color="#FFD7C7"/>
<stop offset="1" stop-color="#FFD6C4" stop-opacity="0.0285"/>
</linearGradient>
<radialGradient id="paint30_radial_1029_810" cx="0" cy="0" r="1" gradientUnits="userSpaceOnUse" gradientTransform="translate(34.4175 19.16) rotate(-6.3731) scale(8.49239 3.32673)">
<stop offset="0.4512" stop-color="#9575CD" stop-opacity="0"/>
<stop offset="1" stop-color="#9575CD"/>
</radialGradient>
<linearGradient id="paint31_linear_1029_810" x1="41.1243" y1="12.2555" x2="38.6441" y2="11.5877" gradientUnits="userSpaceOnUse">
<stop stop-color="white"/>
<stop offset="1" stop-color="#FBFEFF" stop-opacity="0"/>
</linearGradient>
<radialGradient id="paint32_radial_1029_810" cx="0" cy="0" r="1" gradientUnits="userSpaceOnUse" gradientTransform="translate(38.6936 6.12501) scale(5.54856)">
<stop offset="0.3699" stop-color="#7A57B8"/>
<stop offset="0.7346" stop-color="#9474CB"/>
<stop offset="1" stop-color="#9575CD" stop-opacity="0"/>
</radialGradient>
</defs>
</svg>
