<svg width="50" height="41" viewBox="0 0 50 41" fill="none" xmlns="http://www.w3.org/2000/svg">
<path d="M28.0818 19.2006L30.0438 15.2724L34.4406 9.6206L40.0966 5.45809L45.7484 2.86436L48.7939 2.78906L49.5595 3.96461L48.2626 9.91344L46.2002 18.6903L44.9075 20.8071L41.8453 22.5181L38.7202 22.9866L41.9038 24.4592L44.2591 26.2874L45.6103 28.1699V30.7051L44.4348 34.0016L40.8998 36.8296L38.7202 37.6537L35.3066 36.8296L34.541 35.9469L32.9095 33.3532L31.7716 29.4668L29.4749 28.287L27.2577 29.5044L28.0609 34.7086L27.8852 36.3569L27.5923 37.5366L26.7682 39.1849L24.6472 40.419L21.6435 40.4817L17.7571 39.4191L15.4604 37.6537L14.0464 35.2985L14.3978 32.1776L18.4013 27.0529L15.0462 28.287L10.7457 28.4084L7.21486 24.5763L1.79314 15.8037L0.441895 11.9173L1.55887 10.7376H4.79684L11.7497 11.8587L19.3468 14.8624L24.8229 17.9833L28.0818 19.2006Z" fill="#41484A"/>
<path d="M26.3833 11.8007C26.3833 11.8007 26.8979 6.93534 27.4417 5.0277C28.2073 2.34612 30.3868 0.229308 32.2108 0.0201362C34.0348 -0.184852 33.8005 1.22915 32.6835 1.81483C31.6084 2.37959 30.4454 2.0491 30.4454 2.0491C30.4454 2.0491 28.9436 3.14516 28.4415 5.40421C27.8517 8.0565 27.3831 12.1772 27.3831 12.1772L26.3833 11.8007Z" fill="#676F72"/>
<path d="M24.7643 12.1228C24.7643 12.1228 22.7688 8.06905 20.6143 5.49625C18.4641 2.93599 15.7281 2.84395 15.3432 2.81467C14.9583 2.78539 13.3394 3.04894 13.3394 3.81451C13.3394 4.84363 14.7617 5.0277 15.5775 4.87292C16.5188 4.69721 16.9622 4.13663 16.9622 4.13663C16.9622 4.13663 18.7109 4.83108 19.8781 6.22835C21.2335 7.84733 23.7352 12.7378 23.7352 12.7378L23.9109 13.3862L24.7643 12.1228Z" fill="#676F72"/>
<path d="M21.2879 31.6479C20.5558 31.2839 18.3428 33.3547 18.3428 34.3587C18.3428 35.0155 18.8155 36.1241 19.8153 35.8313C20.8194 35.5343 22.2334 32.1164 21.2879 31.6479V31.6479Z" fill="#FF8B03"/>
<path d="M17.3429 31.6471C18.2842 32.4712 19.8404 30.8313 20.5223 29.7645C21.3465 28.4677 21.7606 25.2297 21.5222 25.3468C21.2879 25.464 18.3428 27.585 18.3428 27.585C18.3428 27.585 16.1088 30.5678 17.3429 31.6471V31.6471Z" fill="#FF8B03"/>
<path d="M21.8188 35.6506C21.8188 36.6797 22.9358 37.416 24.057 37.2403C24.6427 37.1483 25.6927 36.6044 25.5881 35.6506C25.471 34.5922 24.9983 32.9983 23.8813 32.8226C22.7601 32.6469 21.8188 33.9438 21.8188 35.6506V35.6506Z" fill="#FF8B03"/>
<path d="M28.052 27.5508C28.052 27.5508 26.5083 30.7929 26.1736 31.5836C25.7009 32.7006 25.6842 35.4909 26.9392 35.9427C27.8345 36.2649 28.0562 34.7044 28.0562 34.7044C28.0562 34.7044 28.211 31.5083 28.211 30.4499C28.2151 29.3915 28.052 27.5508 28.052 27.5508V27.5508Z" fill="#FF8B03"/>
<path d="M29.2404 23.8749C29.2404 23.8749 32.1855 27.2928 33.0682 27.937C33.9509 28.5854 35.482 30.4094 37.4859 29.054C39.4898 27.6986 34.068 23.1637 33.5995 22.8123C33.1268 22.4609 28.8848 22.4023 28.8848 22.4023L29.2404 23.8749Z" fill="#FF8B03"/>
<path d="M30.2988 27.1699C30.2988 27.1699 32.3571 29.0483 32.7712 29.4666C33.6539 30.3493 34.6538 31.1693 35.0679 32.4118C35.3022 33.1188 35.6578 34.1772 34.8922 34.5913C34.2605 34.9302 33.4699 34.0098 33.1854 33.7086C32.8967 33.4074 31.7923 30.9768 31.1481 29.5921C30.8803 29.0232 30.2988 27.1699 30.2988 27.1699V27.1699Z" fill="#FF8B03"/>
<path d="M36.3063 30.705C35.8336 31.3409 36.4402 33.533 37.0719 33.943C38.2516 34.7085 39.6615 33.3531 39.6615 32.7047C39.6656 32.0563 37.3062 29.3496 36.3063 30.705Z" fill="#FF8B03"/>
<path d="M35.5405 22.5781C35.5405 22.5781 38.1301 26.6402 39.5441 27.4644C40.9581 28.2885 42.0709 28.1965 42.4892 27.4644C43.4305 25.8161 39.3684 23.578 39.3684 23.578L35.5405 22.5781Z" fill="#FF8B03"/>
<path d="M38.7787 28.9373C38.4273 29.7028 39.8957 31.941 40.8997 31.941C41.9038 31.941 42.2635 30.5228 42.1966 30.0584C42.0795 29.2343 39.3812 27.632 38.7787 28.9373V28.9373Z" fill="#FF8B03"/>
<path d="M24.1154 23.992C24.1154 23.992 21.4004 28.4515 22.2329 30.6478C22.8813 32.3546 24.6467 32.0618 26.1778 29.1752C27.709 26.2887 28.0018 24.4647 28.0018 24.4647L27.5291 22.8164L24.1154 23.992Z" fill="#FF8B03"/>
<path d="M25.1155 17.6869C25.1155 17.6869 22.7016 15.5074 17.8112 13.4449C12.9208 11.3825 8.56585 10.0898 4.67945 10.1484C0.793047 10.207 0.203183 11.0897 0.0274795 11.7967C-0.148224 12.5037 0.546224 14.7334 1.32434 16.0972C2.26561 17.7455 5.80061 23.4601 7.0389 25.2255C8.10568 26.7524 8.84196 28.4467 11.1596 28.9947C13.7324 29.6013 16.8741 28.2877 16.8741 28.2877C16.8741 28.2877 13.8704 30.9986 13.6947 33.881C13.519 36.7675 15.0502 38.83 18.2296 39.9469C21.409 41.0639 26.0526 41.9215 27.5335 38.4158C27.9644 37.395 27.8849 36.3534 27.8849 36.3534C27.8849 36.3534 26.814 39.4115 25.1741 39.7085C23.8772 39.9428 24.0571 39.1772 22.8774 39.0601C21.6976 38.9429 21.8775 39.8256 20.6392 39.8256C19.6896 39.8256 19.9908 39.0601 18.9909 38.5288C17.9911 37.9975 17.4222 38.8551 16.8114 38.3531C15.8115 37.5289 16.7528 37.1148 16.3387 36.4705C15.9245 35.8221 14.9749 35.6255 14.749 34.8222C14.3348 33.3497 15.1631 32.2327 16.0458 30.9358C16.9285 29.639 18.5182 27.7564 19.7565 26.8737C20.9948 25.991 27.0901 23.0835 27.0901 23.0835C27.0901 23.0835 27.4122 21.9875 26.9436 22.0461C26.4709 22.1046 20.9362 25.0498 19.9322 25.6982C18.9324 26.3466 14.6025 28.5889 11.4524 27.8778C9.62844 27.4636 6.33609 21.657 5.00576 19.8498C3.67543 18.0425 1.37454 13.6081 1.55861 12.328C1.73013 11.1482 3.73818 10.914 6.80045 11.2696C9.86271 11.621 12.5736 12.5664 16.4014 14.1561C20.2292 15.7458 24.5884 18.691 25.1197 18.691C25.6468 18.691 25.1155 17.6869 25.1155 17.6869V17.6869Z" fill="#676F72"/>
<path d="M28.7092 18.394C28.7092 18.394 28.2364 17.2562 29.0606 15.8422C29.8847 14.4282 32.537 10.4455 35.2437 8.02752C37.9545 5.61368 47.0828 0.606117 49.141 2.07868C51.2034 3.55125 48.9653 9.34111 48.4926 11.3241C48.0826 13.0518 47.5513 18.6074 45.5475 20.925C43.9912 22.7281 40.6612 23.3389 40.6612 23.3389C40.6612 23.3389 46.0746 25.9368 46.313 29.3463C46.6059 33.5297 41.7196 38.3072 38.0675 38.1817C35.2604 38.0854 34.5325 35.9435 34.5325 35.9435C34.5325 35.9435 37.122 37.4161 38.1846 37.1232C39.243 36.8304 38.4775 35.8264 39.4815 35.2407C40.4855 34.655 41.3055 36.182 42.071 35.475C42.8366 34.768 42.2467 34.1195 42.778 33.4125C43.3093 32.7055 44.0749 33.4125 44.5434 32.7641C45.0162 32.1157 44.5434 31.233 44.7777 30.6431C45.012 30.0533 45.4847 29.9361 45.4261 29.0534C45.3676 28.1707 43.7193 26.1083 41.6569 25.1084C39.5944 24.1086 37.3563 23.6359 35.5323 23.2845C33.7084 22.9331 28.9936 22.6151 28.9936 22.6151C28.9936 22.6151 28.5795 21.6529 28.8179 21.6906C29.2907 21.7701 30.4662 21.8663 32.2358 21.9249C35.8084 22.042 41.5397 22.8661 44.0749 20.8665C46.61 18.8668 47.02 13.2108 47.2543 11.7382C47.4886 10.2656 49.7267 3.78552 48.434 3.14127C47.1372 2.49284 40.7616 5.06983 37.2643 7.77233C33.7669 10.4748 31.2401 14.2148 30.4746 15.7459C29.709 17.2771 28.7092 18.394 28.7092 18.394V18.394Z" fill="#676F72"/>
<path d="M28.638 16.9962C28.9601 16.5528 29.4537 16.2056 29.2404 14.0386C29.0061 11.654 26.9562 11.0516 25.3372 11.403C24.0236 11.6875 22.1704 12.9216 23.1744 15.8918C24.0613 18.5316 27.0608 17.7158 27.0608 17.7158C27.0608 17.7158 28.3117 17.4355 28.638 16.9962V16.9962Z" fill="#41484A"/>
<path d="M38.6394 9.19859C39.1679 8.84583 39.3695 8.22027 39.0899 7.80136C38.8103 7.38245 38.1552 7.32883 37.6267 7.68159C37.0983 8.03435 36.8966 8.6599 37.1763 9.07881C37.4559 9.49772 38.111 9.55134 38.6394 9.19859Z" fill="#FCFDFA"/>
<path d="M47.3796 9.7969C47.116 9.366 46.5387 9.26978 46.0534 9.67976C45.723 9.95586 45.451 10.6168 45.7313 11.0352C46.0116 11.4535 46.6266 11.5037 47.0282 11.1816C47.5218 10.7842 47.618 10.1901 47.3796 9.7969Z" fill="#FCFDFA"/>
<path d="M41.9915 7.1436C41.7112 6.72526 40.9582 6.67505 40.4311 7.02646C39.904 7.37787 39.5065 8.03467 39.9291 8.67473C40.2219 9.11818 40.8954 9.10981 41.548 8.7333C42.1672 8.38189 42.2718 7.56612 41.9915 7.1436Z" fill="#FCFDFA"/>
<path d="M49.0569 3.34562C49.0569 3.80161 48.7641 4.25761 48.1449 4.16975C47.5802 4.09027 47.3208 3.87691 47.3208 3.25777C47.3208 2.80177 47.7559 2.52148 48.2202 2.52148C48.6846 2.52148 49.0569 2.88963 49.0569 3.34562V3.34562Z" fill="#FCFDFA"/>
<path d="M48.3499 6.93934C48.3499 7.39534 47.8981 7.79276 47.4379 7.76348C46.9945 7.7342 46.6138 7.47064 46.6138 6.85149C46.6138 6.3955 47.0614 6.05664 47.5258 6.05664C47.9901 6.05664 48.3499 6.48335 48.3499 6.93934Z" fill="#FCFDFA"/>
<path d="M45.9488 15.8028C46.4455 15.8028 46.8482 15.4001 46.8482 14.9033C46.8482 14.4066 46.4455 14.0039 45.9488 14.0039C45.452 14.0039 45.0493 14.4066 45.0493 14.9033C45.0493 15.4001 45.452 15.8028 45.9488 15.8028Z" fill="#FCFDFA"/>
<path d="M7.02205 23.4881C7.4541 23.4881 7.80435 23.1323 7.80435 22.6933C7.80435 22.2543 7.4541 21.8984 7.02205 21.8984C6.58999 21.8984 6.23975 22.2543 6.23975 22.6933C6.23975 23.1323 6.58999 23.4881 7.02205 23.4881Z" fill="#FCFDFA"/>
<path d="M2.52909 11.6786C2.87632 12.143 2.60439 12.6617 2.16932 13.0173C1.73842 13.3729 1.14438 13.3645 0.847355 13.0006C0.550331 12.6366 0.6591 12.0509 1.09418 11.6954C1.52925 11.3398 2.19023 11.2184 2.52909 11.6786V11.6786Z" fill="#FCFDFA"/>
<path d="M5.34859 17.9171C5.94264 18.0343 6.10579 18.5572 6.02631 19.0634C5.94682 19.5738 5.49083 19.9252 5.00555 19.8499C4.52027 19.7746 4.18978 19.3019 4.26508 18.7915C4.34039 18.2811 4.76291 17.8042 5.34859 17.9171V17.9171Z" fill="#FCFDFA"/>
<path d="M3.55838 14.9459C3.98928 15.3726 3.83449 15.8955 3.48726 16.2762C3.14004 16.6569 2.56691 16.6987 2.20295 16.3641C1.83899 16.0336 1.82644 15.4563 2.17367 15.0756C2.52089 14.6949 3.13586 14.5233 3.55838 14.9459Z" fill="#FCFDFA"/>
<path d="M10.7995 13.2011C11.2346 13.5441 11.1091 14.0963 10.7912 14.5398C10.4732 14.9832 9.92101 15.1338 9.55287 14.8744C9.18473 14.6151 9.14708 14.0419 9.46502 13.5943C9.78296 13.1509 10.3686 12.8622 10.7995 13.2011Z" fill="#FCFDFA"/>
<path d="M9.45257 12.9345C9.43584 13.5034 8.90454 13.7377 8.34815 13.7419C7.79175 13.7503 7.33576 13.3779 7.33157 12.9178C7.32739 12.4534 7.77083 12.0727 8.32723 12.0685C8.88362 12.0602 9.4693 12.3697 9.45257 12.9345Z" fill="#FCFDFA"/>
<path d="M16.6939 33.9435C16.6939 34.4581 16.3676 34.8722 15.853 34.8722C15.3385 34.8722 14.9243 34.4539 14.9243 33.9351C14.9243 33.4206 15.3385 32.998 15.853 32.998C16.3676 32.998 16.6939 33.4248 16.6939 33.9435V33.9435Z" fill="#FCFDFA"/>
<path d="M18.2544 37.2404C17.9197 37.6378 17.2336 37.5793 16.8822 37.2864C16.535 36.9936 16.5225 36.433 16.8571 36.0356C17.1918 35.6382 17.744 35.5503 18.0954 35.8431C18.4426 36.136 18.5891 36.843 18.2544 37.2404V37.2404Z" fill="#FCFDFA"/>
<path d="M43.712 32.2896C44.1105 32.0211 44.2494 31.53 44.0222 31.1928C43.7949 30.8556 43.2876 30.7999 42.8891 31.0684C42.4906 31.337 42.3517 31.8281 42.5789 32.1653C42.8061 32.5025 43.3134 32.5582 43.712 32.2896Z" fill="#FCFDFA"/>
<path d="M44.7378 29.5988C45.1363 29.3302 45.25 28.8019 44.9918 28.4186C44.7336 28.0354 44.2012 27.9425 43.8027 28.211C43.4041 28.4796 43.2904 29.0079 43.5486 29.3911C43.8068 29.7743 44.3392 29.8673 44.7378 29.5988Z" fill="#FCFDFA"/>
<path d="M38.172 10.6425C36.712 10.0359 35.1893 10.8391 33.4615 13.3115C31.7337 15.7839 30.7925 17.5116 31.5371 18.1392C32.2818 18.7667 35.7206 15.5622 36.4443 14.9974C37.5027 14.1733 39.7827 11.3076 38.172 10.6425V10.6425Z" fill="#FF8B03"/>
<path d="M35.227 17.5498C36.1975 16.9976 39.0339 17.2361 40.565 17.1566C41.5858 17.1022 43.0793 17.2612 43.1169 17.7841C43.1964 18.8425 42.8032 19.5119 41.4687 19.9846C40.1342 20.4573 36.9924 20.5326 34.9885 20.5744C33.8088 20.5995 32.7253 20.7167 32.5914 20.1812C32.5161 19.8674 33.4992 18.5329 35.227 17.5498V17.5498Z" fill="#FF8B03"/>
<path d="M39.8618 12.9165C40.7655 13.0755 43.6688 12.996 44.4929 12.3685C44.9949 11.9836 45.2794 10.3646 44.4929 10.0132C43.7064 9.66182 41.4683 9.73712 40.6065 10.4065C40.0752 10.8123 39.0921 12.7827 39.8618 12.9165V12.9165Z" fill="#FF8B03"/>
<path d="M44.1415 5.53775C43.9909 6.46229 45.476 6.44137 46.1454 6.24475C46.8147 6.04813 47.7142 4.98972 47.2833 4.43751C46.8482 3.8853 44.3339 4.32038 44.1415 5.53775V5.53775Z" fill="#FF8B03"/>
<path d="M43.0791 7.81494C43.0791 8.48429 43.6271 8.71856 44.4136 8.71856C45.2001 8.71856 45.7105 8.22073 45.7105 7.6978C45.7105 6.9908 45.0411 6.7147 44.1793 6.87367C43.5225 6.9908 43.0791 7.26691 43.0791 7.81494V7.81494Z" fill="#FF8B03"/>
<path d="M37.8208 15.9434C37.8208 16.4454 39.2348 16.2948 41.2763 16.2948C43.3178 16.2948 43.7906 15.981 44.0248 15.1945C44.2591 14.408 44.1838 13.8977 42.9664 13.86C41.749 13.8224 39.3561 13.9395 38.6491 14.4499C38.327 14.68 37.8208 15.5501 37.8208 15.9434Z" fill="#FF8B03"/>
<path d="M10.5323 24.0671C10.4486 24.9665 11.2393 26.1086 13.5946 25.912C15.9498 25.7154 18.7402 24.3265 19.4848 23.9876C20.857 23.3601 22.1162 22.8497 22.1162 22.2222C22.1162 21.5152 20.5474 21.2809 18.4264 21.0843C16.3054 20.8877 14.7366 21.2809 12.9671 22.264C11.4903 23.084 10.5699 23.6362 10.5323 24.0671V24.0671Z" fill="#FF8B03"/>
<path d="M8.21444 20.9666C8.14332 21.5105 9.03858 22.8115 9.62844 22.8492C10.2183 22.8868 13.3182 21.2386 13.3977 20.6905C13.4772 20.1425 12.6907 19.2765 12.0632 19.1218C11.4357 18.9628 8.29393 20.3768 8.21444 20.9666Z" fill="#FF8B03"/>
<path d="M12.0634 14.9601C11.1179 15.9055 12.2223 17.6709 14.2638 18.6917C16.3054 19.7124 19.5642 19.9886 20.8611 20.1852C22.158 20.3818 23.0992 20.4194 23.2959 20.0262C23.7184 19.1853 20.585 17.6291 17.6817 16.2569C15.8703 15.3993 12.808 14.2154 12.0634 14.9601V14.9601Z" fill="#FF8B03"/>
<path d="M2.83446 13.0338C2.95159 14.2136 6.09334 13.9123 6.131 12.7577C6.17283 11.6198 2.71732 11.8583 2.83446 13.0338Z" fill="#FF8B03"/>
<path d="M4.87597 15.7824C5.36543 16.5982 7.39021 15.8619 6.72086 14.7993C6.08498 13.7911 4.16897 14.6069 4.87597 15.7824Z" fill="#FF8B03"/>
<path d="M7.07638 19.0415C7.3985 19.5895 8.46946 19.5518 9.47348 19.0791C10.1428 18.7653 11.0213 18.1211 10.8456 17.3513C10.649 16.4896 9.0384 16.3682 7.98 16.8786C7.23116 17.2426 6.40703 17.9036 7.07638 19.0415Z" fill="#FF8B03"/>
<path d="M29.3281 22.25L26.7051 22.9863C26.7051 22.9863 27.5167 26.5004 27.8221 27.814C28.1442 29.1987 30.2066 39.1803 31.8256 38.9168C33.4948 38.6448 30.7086 28.316 30.4409 27.1948C30.1899 26.1197 29.3281 22.25 29.3281 22.25V22.25Z" fill="#676F72"/>
<path d="M29.0647 26.9657C29.8386 26.7983 30.2653 26.334 30.2653 26.334L30.7799 28.5512C30.7799 28.5512 30.3908 28.911 29.6253 29.0867C28.7802 29.2833 28.1234 29.1327 28.1234 29.1327L27.6172 26.9322C27.613 26.928 28.2364 27.1414 29.0647 26.9657V26.9657Z" fill="#41484A"/>
<path d="M26.7051 22.9863L29.3239 22.25L29.713 24.0154C29.713 24.0154 29.0227 24.3626 28.4621 24.4798C27.9015 24.5969 27.0774 24.6053 27.0774 24.6053L26.7051 22.9863Z" fill="#41484A"/>
<path d="M28.5918 31.144C28.5918 31.144 29.3364 31.2318 30.0142 31.0854C30.6919 30.939 31.2566 30.5039 31.2566 30.5039L31.6917 32.4534C31.6917 32.4534 31.0475 32.9094 30.4576 33.0181C29.851 33.1311 29.0854 33.0642 29.0938 33.0642L28.5918 31.144Z" fill="#41484A"/>
<path d="M26.4707 16.1549C25.5545 16.4101 24.8685 16.979 24.8224 17.9789C24.7639 19.2757 25.0567 20.0413 25.4123 21.2754C25.6382 22.0661 25.9018 23.8775 28.2989 23.2793C29.9471 22.8651 29.7714 21.334 29.7129 20.217C29.6543 19.0917 29.42 17.6275 29.0059 16.979C28.621 16.3766 27.5333 15.862 26.4707 16.1549V16.1549Z" fill="#303031"/>
<path d="M28.6923 12.2853C29.0563 12.8249 29.0688 13.5696 28.5919 13.8875C28.1192 14.2055 27.3369 13.9796 26.9729 13.4399C26.609 12.9002 26.701 12.2058 27.1737 11.8837C27.6506 11.5657 28.3283 11.7456 28.6923 12.2853Z" fill="#303031"/>
<path d="M24.8265 14.0261C24.6508 14.6536 24.0484 15.1054 23.5004 14.9506C22.9482 14.7958 22.6595 14.1014 22.831 13.4739C23.0067 12.8463 23.5924 12.4615 24.1446 12.6163C24.6968 12.771 24.9981 13.3986 24.8265 14.0261Z" fill="#303031"/>
</svg>
