<svg width="50" height="50" viewBox="0 0 50 50" fill="none" xmlns="http://www.w3.org/2000/svg">
<path d="M14.5416 15.791H2.12495C1.71662 15.791 1.38745 15.4618 1.38745 15.0535V11.5285C1.39162 11.1202 1.72078 10.791 2.12495 10.791H14.5416C14.95 10.791 15.2791 11.1202 15.2791 11.5285V15.0535C15.2791 15.4618 14.95 15.791 14.5416 15.791Z" fill="url(#paint0_linear_1029_1088)"/>
<path d="M0.00415039 19.125H50V47.4583H0.00415039V19.125Z" fill="url(#paint1_linear_1029_1088)"/>
<path d="M48.3333 49.5404H1.66667C0.745833 49.5404 0 48.7945 0 47.8737V46.207H49.9958V47.8737C49.9958 48.7945 49.25 49.5404 48.3333 49.5404Z" fill="#BDBDBD"/>
<path d="M48.3333 9.54102H18.3333C17.4125 9.54102 16.6667 10.2868 16.6667 11.2077V13.291C16.6667 13.7493 16.2917 14.1243 15.8333 14.1243H1.66667C0.745833 14.1243 0 14.8702 0 15.791V20.791H49.9958V11.2077C49.9958 10.2868 49.25 9.54102 48.3333 9.54102Z" fill="#BDBDBD"/>
<path opacity="0.2" d="M27.6542 14.1243C28.0292 14.1243 28.3334 14.4285 28.3334 14.8035V16.7743C28.3334 17.1493 28.0292 17.4535 27.6542 17.4535H20.6792C20.3042 17.4535 20.0001 17.1493 20.0001 16.7743V14.8035C20.0001 14.4285 20.3042 14.1243 20.6792 14.1243H27.6542ZM27.6542 13.291H20.6792C19.8459 13.291 19.1667 13.9702 19.1667 14.8035V16.7743C19.1667 17.6077 19.8459 18.2868 20.6792 18.2868H27.6501C28.4834 18.2868 29.1626 17.6077 29.1626 16.7743V14.8035C29.1667 13.9702 28.4876 13.291 27.6542 13.291Z" fill="#424242"/>
<path opacity="0.2" d="M45.5001 12.9583C45.9126 12.9583 46.2501 13.2958 46.2501 13.7083V16.7083C46.2501 17.1208 45.9126 17.4583 45.5001 17.4583H39.5001C39.0876 17.4583 38.7501 17.1208 38.7501 16.7083V13.7083C38.7501 13.2958 39.0876 12.9583 39.5001 12.9583H45.5001ZM45.5001 12.125H39.5001C38.6251 12.125 37.9167 12.8333 37.9167 13.7083V16.7083C37.9167 17.5833 38.6251 18.2917 39.5001 18.2917H45.5001C46.3751 18.2917 47.0834 17.5833 47.0834 16.7083V13.7083C47.0834 12.8333 46.3709 12.125 45.5001 12.125Z" fill="#424242"/>
<path d="M45.5 17.457H39.5C39.0875 17.457 38.75 17.1195 38.75 16.707V13.707C38.75 13.2945 39.0875 12.957 39.5 12.957H45.5C45.9125 12.957 46.25 13.2945 46.25 13.707V16.707C46.25 17.1195 45.9125 17.457 45.5 17.457Z" fill="#424242"/>
<path d="M27.6542 17.4581H20.6792C20.3042 17.4581 20 17.1539 20 16.7789V14.8081C20 14.4331 20.3042 14.1289 20.6792 14.1289H27.65C28.025 14.1289 28.3292 14.4331 28.3292 14.8081V16.7789C28.3333 17.1539 28.0292 17.4581 27.6542 17.4581Z" fill="#E0E0E0"/>
<path d="M32.5001 17.4583C32.0417 17.4583 31.6667 17.0833 31.6667 16.625V14.9583C31.6667 14.5 32.0417 14.125 32.5001 14.125C32.9584 14.125 33.3334 14.5 33.3334 14.9583V16.625C33.3334 17.0833 32.9584 17.4583 32.5001 17.4583Z" fill="#E0E0E0"/>
<path d="M32.4999 15.3743C32.2708 15.3743 32.0833 15.1868 32.0833 14.9577C32.0833 14.7285 32.2708 14.541 32.4999 14.541C32.7291 14.541 32.9166 14.7285 32.9166 14.9577C32.9166 15.1868 32.7291 15.3743 32.4999 15.3743Z" fill="#757575"/>
<path d="M32.4999 17.0404C32.2708 17.0404 32.0833 16.8529 32.0833 16.6237C32.0833 16.3945 32.2708 16.207 32.4999 16.207C32.7291 16.207 32.9166 16.3945 32.9166 16.6237C32.9166 16.8529 32.7291 17.0404 32.4999 17.0404Z" fill="#FAFAFA"/>
<path d="M20.625 14.123H21.0417V17.4564H20.625V14.123Z" fill="#F5F5F5"/>
<path d="M21.4751 14.123H21.8918V17.4564H21.4751V14.123Z" fill="#F5F5F5"/>
<path d="M22.325 14.123H22.7416V17.4564H22.325V14.123Z" fill="#F5F5F5"/>
<path d="M23.175 14.123H23.5917V17.4564H23.175V14.123Z" fill="#F5F5F5"/>
<path d="M24.0249 14.123H24.4416V17.4564H24.0249V14.123Z" fill="#F5F5F5"/>
<path d="M24.875 14.123H25.2917V17.4564H24.875V14.123Z" fill="#F5F5F5"/>
<path d="M25.7207 14.123H26.1374V17.4564H25.7207V14.123Z" fill="#F5F5F5"/>
<path d="M26.5708 14.123H26.9875V17.4564H26.5708V14.123Z" fill="#F5F5F5"/>
<path d="M27.4209 14.123H27.8376V17.4564H27.4209V14.123Z" fill="#F5F5F5"/>
<path opacity="0.2" d="M16.8751 22.4583C17.5667 22.4583 18.1251 23.0167 18.1251 23.7083C18.1251 24.4 17.5667 24.9583 16.8751 24.9583C16.1834 24.9583 15.6251 24.4 15.6251 23.7083C15.6251 23.0167 16.1834 22.4583 16.8751 22.4583M16.8751 21.625C15.7251 21.625 14.7917 22.5583 14.7917 23.7083C14.7917 24.8583 15.7251 25.7917 16.8751 25.7917C18.0251 25.7917 18.9584 24.8583 18.9584 23.7083C18.9584 22.5583 18.0251 21.625 16.8751 21.625Z" fill="#424242"/>
<path opacity="0.2" d="M32.4999 14.1243C32.9583 14.1243 33.3333 14.4993 33.3333 14.9577V16.6243C33.3333 17.0827 32.9583 17.4577 32.4999 17.4577C32.0416 17.4577 31.6666 17.0827 31.6666 16.6243V14.9577C31.6666 14.4993 32.0416 14.1243 32.4999 14.1243ZM32.4999 13.291C31.5791 13.291 30.8333 14.0368 30.8333 14.9577V16.6243C30.8333 17.5452 31.5791 18.291 32.4999 18.291C33.4208 18.291 34.1666 17.5452 34.1666 16.6243V14.9577C34.1666 14.0368 33.4166 13.291 32.4999 13.291Z" fill="#424242"/>
<path d="M16.875 24.957C17.5654 24.957 18.125 24.3974 18.125 23.707C18.125 23.0167 17.5654 22.457 16.875 22.457C16.1846 22.457 15.625 23.0167 15.625 23.707C15.625 24.3974 16.1846 24.957 16.875 24.957Z" fill="#E0E0E0"/>
<path opacity="0.2" d="M11.2499 19.1243C11.7083 19.1243 12.0833 19.4993 12.0833 19.9577V21.7993C12.8166 22.1202 13.3333 22.8535 13.3333 23.7077C13.3333 24.8577 12.3999 25.791 11.2499 25.791C10.0999 25.791 9.16659 24.8577 9.16659 23.7077C9.16659 22.8535 9.68325 22.1202 10.4166 21.7993V19.9577C10.4166 19.4993 10.7916 19.1243 11.2499 19.1243M11.2499 18.291C10.3291 18.291 9.58325 19.0368 9.58325 19.9577V21.316C8.80825 21.8535 8.33325 22.7452 8.33325 23.7077C8.33325 25.316 9.64159 26.6243 11.2499 26.6243C12.8583 26.6243 14.1666 25.316 14.1666 23.7077C14.1666 22.7452 13.6916 21.8535 12.9166 21.316V19.9577C12.9166 19.0368 12.1708 18.291 11.2499 18.291Z" fill="#424242"/>
<path d="M30.8333 46.6237C38.1971 46.6237 44.1667 40.6542 44.1667 33.2904C44.1667 25.9266 38.1971 19.957 30.8333 19.957C23.4695 19.957 17.5 25.9266 17.5 33.2904C17.5 40.6542 23.4695 46.6237 30.8333 46.6237Z" fill="#8D8C8C"/>
<path d="M30.8333 44.1237C36.8164 44.1237 41.6667 39.2734 41.6667 33.2904C41.6667 27.3073 36.8164 22.457 30.8333 22.457C24.8502 22.457 20 27.3073 20 33.2904C20 39.2734 24.8502 44.1237 30.8333 44.1237Z" fill="url(#paint2_linear_1029_1088)"/>
<path d="M30.8333 42.8737C36.1261 42.8737 40.4167 38.5831 40.4167 33.2904C40.4167 27.9976 36.1261 23.707 30.8333 23.707C25.5406 23.707 21.25 27.9976 21.25 33.2904C21.25 38.5831 25.5406 42.8737 30.8333 42.8737Z" fill="url(#paint3_radial_1029_1088)"/>
<path d="M30.8334 37.4583C33.1346 37.4583 35.0001 35.5929 35.0001 33.2917C35.0001 30.9905 33.1346 29.125 30.8334 29.125C28.5322 29.125 26.6667 30.9905 26.6667 33.2917C26.6667 35.5929 28.5322 37.4583 30.8334 37.4583Z" fill="url(#paint4_radial_1029_1088)"/>
<path opacity="0.2" d="M30.8334 29.125C33.1334 29.125 35.0001 30.9917 35.0001 33.2917C35.0001 35.5917 33.1334 37.4583 30.8334 37.4583C28.5334 37.4583 26.6667 35.5917 26.6667 33.2917C26.6667 30.9917 28.5334 29.125 30.8334 29.125ZM30.8334 27.875C27.8459 27.875 25.4167 30.3042 25.4167 33.2917C25.4167 36.2792 27.8459 38.7083 30.8334 38.7083C33.8209 38.7083 36.2501 36.2792 36.2501 33.2917C36.2501 30.3042 33.8209 27.875 30.8334 27.875Z" fill="#EEEEEE"/>
<path d="M11.2625 24.125C10.8042 24.125 10.4292 23.75 10.4292 23.2917V19.9583C10.4292 19.5 10.8042 19.125 11.2625 19.125C11.7209 19.125 12.0959 19.5 12.0959 19.9583V23.2917C12.0959 23.75 11.7209 24.125 11.2625 24.125Z" fill="url(#paint5_linear_1029_1088)"/>
<path d="M11.2625 25.7917C12.4131 25.7917 13.3459 24.8589 13.3459 23.7083C13.3459 22.5577 12.4131 21.625 11.2625 21.625C10.1119 21.625 9.1792 22.5577 9.1792 23.7083C9.1792 24.8589 10.1119 25.7917 11.2625 25.7917Z" fill="#E0E0E0"/>
<path d="M11.2625 25.1667C10.4584 25.1667 9.8042 24.5125 9.8042 23.7083C9.8042 22.9042 10.4584 22.25 11.2625 22.25C12.0667 22.25 12.7209 22.9042 12.7209 23.7083C12.7209 24.5125 12.0667 25.1667 11.2625 25.1667Z" fill="#757575"/>
<path d="M11.2626 22.4577C11.9543 22.4577 12.5126 23.016 12.5126 23.7077C12.5126 24.3993 11.9543 24.9577 11.2626 24.9577C10.5709 24.9577 10.0126 24.3993 10.0126 23.7077C10.0126 23.016 10.5709 22.4577 11.2626 22.4577M11.2626 22.041C10.3418 22.041 9.59595 22.7868 9.59595 23.7077C9.59595 24.6285 10.3418 25.3743 11.2626 25.3743C12.1834 25.3743 12.9293 24.6285 12.9293 23.7077C12.9293 22.7868 12.1834 22.041 11.2626 22.041Z" fill="#9E9E9E"/>
<path d="M11.2793 21.3031H11.2501C11.0293 21.3031 10.8501 21.124 10.8501 20.9031V20.0406C10.8501 19.8198 11.0293 19.6406 11.2501 19.6406H11.2793C11.5001 19.6406 11.6793 19.8198 11.6793 20.0406V20.9031C11.6793 21.124 11.5001 21.3031 11.2793 21.3031Z" fill="#F44336"/>
<path opacity="0.2" d="M30.8334 29.9583C32.6709 29.9583 34.1667 31.4542 34.1667 33.2917C34.1667 35.1292 32.6709 36.625 30.8334 36.625C28.9959 36.625 27.5001 35.1292 27.5001 33.2917C27.5001 31.4542 28.9959 29.9583 30.8334 29.9583ZM30.8334 29.125C28.5334 29.125 26.6667 30.9917 26.6667 33.2917C26.6667 35.5917 28.5334 37.4583 30.8334 37.4583C33.1334 37.4583 35.0001 35.5917 35.0001 33.2917C35.0001 30.9917 33.1334 29.125 30.8334 29.125Z" fill="#424242"/>
<path d="M29.8542 0.0864853L27.9501 6.14065C27.9209 6.23232 27.8001 6.25732 27.7376 6.18648L23.8834 1.75732C23.7959 1.65732 23.6334 1.74482 23.6667 1.86982L24.7626 6.04898C24.7876 6.15315 24.6876 6.24065 24.5917 6.19482C23.1292 5.49065 16.7792 3.00732 16.8667 3.33232C16.9542 3.65732 20.9834 7.51148 22.0542 8.52815C22.1292 8.59898 22.0876 8.72815 21.9834 8.74065L15.7584 9.61148C15.6251 9.62815 15.6126 9.81565 15.7376 9.85315L22.4209 11.899C22.5251 11.9323 22.5459 12.0698 22.4501 12.124C21.1751 12.8615 15.3834 16.2115 15.6167 16.2115C15.8584 16.2115 23.3501 15.9032 24.5126 15.8573C24.5917 15.8532 24.6501 15.924 24.6417 16.0032L23.6084 22.524C23.5876 22.6532 23.7542 22.724 23.8334 22.6198L28.4251 16.499C28.4751 16.4282 28.5792 16.4323 28.6292 16.5032L31.6792 21.0823C31.7417 21.1781 31.8917 21.1448 31.9084 21.0282L32.5042 16.5823C32.5167 16.4865 32.6334 16.4407 32.7084 16.5032L37.1417 20.2365C37.2292 20.3115 37.3625 20.2365 37.3459 20.124L36.8917 16.5698C36.8792 16.474 36.975 16.399 37.0667 16.4407L45.025 19.9865C45.1584 20.0448 45.2667 19.8615 45.15 19.774L39.1959 14.049C39.1209 13.9907 39.1375 13.8698 39.225 13.8365L44.85 11.499C44.9625 11.4532 44.95 11.2907 44.8334 11.2615L38.75 9.74065C38.6542 9.71565 38.625 9.59898 38.6917 9.53232L43.1625 5.06148C43.2542 4.96982 43.1584 4.81148 43.0334 4.85315L36.3459 7.08232C36.2376 7.11982 36.1417 7.00315 36.1959 6.90315L39.8917 0.398985C39.9584 0.278152 39.8125 0.153152 39.7042 0.240652L32.0167 6.24065C31.9459 6.29482 31.8417 6.26148 31.8209 6.17815L30.1 0.0948186C30.0584 -0.0301814 29.8917 -0.0301814 29.8542 0.0864853V0.0864853Z" fill="url(#paint6_radial_1029_1088)"/>
<defs>
<linearGradient id="paint0_linear_1029_1088" x1="8.33328" y1="10.9468" x2="8.33328" y2="14.1763" gradientUnits="userSpaceOnUse">
<stop stop-color="#BDBDBD"/>
<stop offset="0.2106" stop-color="#B8B8B8"/>
<stop offset="0.4759" stop-color="#A8A8A8"/>
<stop offset="0.7694" stop-color="#8E8E8E"/>
<stop offset="1" stop-color="#757575"/>
</linearGradient>
<linearGradient id="paint1_linear_1029_1088" x1="25.0387" y1="19.0602" x2="24.9654" y2="47.5221" gradientUnits="userSpaceOnUse">
<stop stop-color="#616161"/>
<stop offset="1" stop-color="#212121"/>
</linearGradient>
<linearGradient id="paint2_linear_1029_1088" x1="30.8333" y1="22.4032" x2="30.8333" y2="44.019" gradientUnits="userSpaceOnUse">
<stop stop-color="#616161"/>
<stop offset="1" stop-color="#212121"/>
</linearGradient>
<radialGradient id="paint3_radial_1029_1088" cx="0" cy="0" r="1" gradientUnits="userSpaceOnUse" gradientTransform="translate(30.7803 23.5503) scale(19.5305 19.5325)">
<stop stop-color="#424242"/>
<stop offset="1" stop-color="#212121"/>
</radialGradient>
<radialGradient id="paint4_radial_1029_1088" cx="0" cy="0" r="1" gradientUnits="userSpaceOnUse" gradientTransform="translate(30.7804 33.2912) scale(4.16625 4.16667)">
<stop stop-color="#757575"/>
<stop offset="0.2031" stop-color="#6A6A6A"/>
<stop offset="0.5578" stop-color="#4D4D4D"/>
<stop offset="1" stop-color="#212121"/>
</radialGradient>
<linearGradient id="paint5_linear_1029_1088" x1="11.2625" y1="19.1637" x2="11.2625" y2="22.5357" gradientUnits="userSpaceOnUse">
<stop stop-color="#E0E0E0"/>
<stop offset="1" stop-color="#9E9E9E"/>
</linearGradient>
<radialGradient id="paint6_radial_1029_1088" cx="0" cy="0" r="1" gradientUnits="userSpaceOnUse" gradientTransform="translate(30.47 11.3673) scale(13.3637 9.62547)">
<stop stop-color="#FFFF00"/>
<stop offset="0.1609" stop-color="#FEF802"/>
<stop offset="0.4013" stop-color="#FCE307"/>
<stop offset="0.6913" stop-color="#F9C20F"/>
<stop offset="1" stop-color="#F49719"/>
</radialGradient>
</defs>
</svg>
