<svg width="52" height="46" viewBox="0 0 52 46" fill="none" xmlns="http://www.w3.org/2000/svg">
<path d="M47.7582 26.6149C46.9382 15.7506 39.2952 8.25391 26.5609 8.25391C13.8266 8.25391 6.16681 16.2149 5.4138 27.0834C4.97454 33.4171 7.3298 39.0605 12.0696 42.2775C15.1904 44.3985 19.5495 45.574 26.6153 45.574C33.8024 45.574 37.923 44.022 41.0438 41.9219C46.2438 38.4288 48.2309 32.8565 47.7582 26.6149V26.6149Z" fill="#FFC022"/>
<path d="M22.2599 15.0716C19.1558 7.03943 12.3787 1.57591 9.77244 0.760142C8.78934 0.45057 7.55524 0.421286 6.99885 1.3249C5.59322 3.60485 3.79436 10.9258 7.77278 21.3132L22.2599 15.0716Z" fill="#FFC022"/>
<path d="M14.8972 11.5638C15.5414 11.0241 15.8552 10.497 15.1482 9.40512C14.0521 7.71084 12.0818 5.73209 11.3162 5.1255C10.0612 4.12985 9.09063 3.79518 8.71831 5.39742C8.02804 8.35927 8.08243 12.3795 8.82289 14.5967C9.08226 15.379 9.88547 15.7932 10.5046 15.2535L14.8972 11.5638Z" fill="#FFD1D1"/>
<path d="M22.4273 16.0847C22.9 16.4863 23.858 16.4277 24.4144 15.7835C25.0879 15.0012 25.7907 12.3656 25.3515 8.29102C23.3978 8.36213 21.5488 8.64242 19.8252 9.11515C21.2183 11.3993 21.5529 15.34 22.4273 16.0847Z" fill="#FF9B31"/>
<path d="M30.6941 16.0847C30.2214 16.4863 29.2634 16.4277 28.707 15.7835C28.0334 15.0012 27.3306 12.3656 27.7699 8.29102C29.7235 8.36213 31.5726 8.64242 33.2962 9.11515C31.9031 11.3993 31.5684 15.34 30.6941 16.0847Z" fill="#FF9B31"/>
<path d="M33.2124 9.47539C36.5926 4.28379 41.3198 0.794831 43.2819 0.171505C44.2524 -0.138067 45.3819 -0.0878665 45.9341 0.819932C47.323 3.09989 48.4986 10.1238 45.7584 19.959L35.7475 15.1313L33.2124 9.47539Z" fill="#FFC022"/>
<path d="M40.5959 13.2442C41.6124 14.2608 42.4408 14.9427 43.039 15.5911C43.4364 16.022 44.1643 15.8254 44.2815 15.2481C45.3064 10.3116 44.9801 6.10315 44.2815 4.99873C43.9468 4.47162 43.3235 4.33357 42.7545 4.52601C41.7338 4.86486 39.1317 6.80596 37.2952 9.63812C37.0818 9.96861 37.1613 10.4121 37.4876 10.6338C38.1486 11.0814 39.3032 11.9474 40.5959 13.2442V13.2442Z" fill="#FFD1D1"/>
<path d="M23.0759 29.7776C23.0549 28.4891 24.904 27.8741 26.6485 27.8448C28.3971 27.8155 30.2797 28.3845 30.3006 29.673C30.3215 30.9615 28.1169 32.6557 26.728 32.6557C25.3433 32.6557 23.101 31.0619 23.0759 29.7776Z" fill="black"/>
<path d="M2.58984 26.9668C2.73208 27.1383 4.43472 27.1132 8.59721 29.0878" stroke="#9E9E9E" stroke-width="1.25502" stroke-miterlimit="10" stroke-linecap="round"/>
<path d="M1 31.9164C1 31.9164 3.68574 30.9793 8.30422 31.7992" stroke="#9E9E9E" stroke-width="1.25502" stroke-miterlimit="10" stroke-linecap="round"/>
<path d="M3.47217 35.8612C3.47217 35.8612 4.61842 35.2839 8.77254 34.9199" stroke="#9E9E9E" stroke-width="1.25502" stroke-miterlimit="10" stroke-linecap="round"/>
<path d="M50.3517 25.4941C50.3517 25.4941 48.9251 25.6322 44.52 28.1464" stroke="#9E9E9E" stroke-width="1.25502" stroke-miterlimit="10" stroke-linecap="round"/>
<path d="M51 30.0885C51 30.0885 48.8707 29.9379 44.2856 30.9126" stroke="#9E9E9E" stroke-width="1.25502" stroke-miterlimit="10" stroke-linecap="round"/>
<path d="M50.1757 34.5057C50.1757 34.5057 48.1552 33.7904 43.9927 33.5645" stroke="#9E9E9E" stroke-width="1.25502" stroke-miterlimit="10" stroke-linecap="round"/>
<path d="M39.9853 25.0159C39.843 27.3209 38.4123 28.5885 36.785 28.5885C35.1576 28.5885 33.8398 26.9653 33.8398 24.9657C33.8398 22.966 35.212 21.3219 37.0401 21.4223C39.1611 21.5437 40.1024 23.1333 39.9853 25.0159Z" fill="#000200"/>
<path d="M19.0302 24.7837C19.3565 27.1306 18.3692 28.5613 16.7335 28.8918C15.0978 29.2223 13.6964 28.1221 13.2906 26.114C12.8806 24.1018 13.6671 22.2151 15.5245 21.9432C17.679 21.6294 18.7625 22.8635 19.0302 24.7837V24.7837Z" fill="#000200"/>
<path d="M18.6082 32.8767C17.533 33.5753 18.8048 35.1943 19.5494 35.7423C20.2941 36.2904 21.6328 36.9639 23.5948 36.7631C25.9124 36.5288 26.5775 34.8011 26.5775 34.8011C26.5775 34.8011 27.4017 36.7254 30.2673 36.8049C33.1748 36.8844 34.0742 35.3114 34.4674 34.8429C34.8607 34.3702 35.2539 33.1528 34.5846 32.6843C33.9152 32.2115 33.4467 32.8014 32.7397 33.7845C32.0327 34.7676 30.5811 35.3156 29.1671 34.6463C27.7531 33.9769 27.6736 31.7012 27.6736 31.7012L25.6697 31.8183C25.6697 31.8183 25.356 33.7803 24.4524 34.4078C23.5488 35.0353 21.3901 35.1943 20.4865 33.818C20.0891 33.2072 19.5118 32.2869 18.6082 32.8767V32.8767Z" fill="black"/>
</svg>
