<svg width="50" height="49" viewBox="0 0 50 49" fill="none" xmlns="http://www.w3.org/2000/svg">
<path d="M44.5953 18.7385C44.5953 18.7385 48.7315 13.8792 47.12 13.0487C44.5457 11.7182 40.8972 11.5074 37.2362 12.7347C35.0793 13.4578 33.2157 14.5775 31.7695 15.9204C32.4761 14.1602 32.881 12.1025 32.881 9.90008C32.881 5.85483 31.5133 2.28888 29.439 0.185682C28.1953 -1.07872 25.0798 4.52844 25.0798 4.52844C25.0798 4.52844 21.8816 -1.04153 20.613 0.288982C18.5966 2.40458 17.2785 5.92094 17.2785 9.90008C17.2785 12.1892 17.7165 14.3255 18.4726 16.1229C16.9975 14.6602 15.0224 13.4247 12.7209 12.652C8.9979 11.4 5.29147 11.6397 2.71308 13.0322C1.16357 13.8627 5.36171 18.6559 5.36171 18.6559C5.36171 18.6559 -0.749557 20.0773 0.0768486 21.7301C1.40736 24.3704 4.22954 26.7505 7.89878 27.9818C10.1673 28.7421 12.4151 28.9487 14.415 28.6843C12.6961 29.6842 11.0474 31.1883 9.69208 33.1221C7.38641 36.3905 6.46083 40.1093 6.94428 43.0679C7.23766 44.8405 12.9481 42.2043 12.9481 42.2043C12.9481 42.2043 12.3655 48.6503 14.1464 48.3403C16.981 47.8569 20.0511 45.8198 22.3154 42.601C23.6666 40.6796 24.5467 38.6094 24.9393 36.6219C25.3318 38.6012 26.2078 40.6713 27.5548 42.5886C29.8605 45.857 32.9885 47.9189 35.8685 48.3569C37.5915 48.6213 36.9222 42.2043 36.9222 42.2043C36.9222 42.2043 42.6739 44.7579 42.9508 42.9191C43.3764 39.9854 42.4425 36.3409 40.1823 33.1138C38.8725 31.2544 37.2982 29.7834 35.6454 28.7835C37.6205 29.0272 39.8311 28.8165 42.0541 28.0686C45.7771 26.8166 48.6365 24.3704 49.9298 21.6888C50.719 20.0649 44.5953 18.7385 44.5953 18.7385V18.7385Z" fill="url(#paint0_radial_1029_2297)"/>
<path d="M32.3768 23.8248C32.2115 23.8785 32.0462 23.895 31.8851 23.8868C31.5587 23.8661 31.2488 23.7091 31.0339 23.457L28.5464 24.2876L27.9059 24.5066C27.9225 24.6347 27.9349 24.7669 27.9349 24.8991C27.9349 25.7049 27.625 26.4321 27.1291 26.9734L27.4142 27.3825L29.0671 29.7212C29.3894 29.6551 29.7199 29.7171 29.9968 29.8906C30.1372 29.9774 30.2571 30.0931 30.3604 30.2377C30.7777 30.8327 30.6496 31.6632 30.0794 32.093C29.5009 32.531 28.6993 32.3946 28.282 31.7996C28.1787 31.655 28.1126 31.498 28.0754 31.3368C27.9969 31.0063 28.0423 30.6592 28.2035 30.3658L26.563 28.0353L26.2697 27.6221C25.8895 27.8163 25.4639 27.9196 25.0135 27.9196C24.5631 27.9196 24.1375 27.8163 23.7574 27.6221L23.5053 27.9733L21.8236 30.3617C21.9848 30.655 22.0302 31.0021 21.9476 31.3327C21.9145 31.4938 21.8443 31.6508 21.7451 31.7955C21.3278 32.3905 20.5261 32.5227 19.9477 32.0888C19.3774 31.6591 19.2494 30.8286 19.6626 30.2336C19.7659 30.0889 19.8857 29.9732 20.0262 29.8865C20.303 29.7088 20.6418 29.6509 20.96 29.7171L22.6335 27.3329L22.8897 26.9693C22.3938 26.428 22.0839 25.7007 22.0839 24.895C22.0839 24.7628 22.0963 24.6305 22.1087 24.5024L21.6046 24.333L18.9808 23.4488C18.7659 23.7008 18.456 23.8578 18.1296 23.8785C17.9684 23.8909 17.8031 23.8744 17.6379 23.8165C16.9643 23.5893 16.5883 22.8414 16.8073 22.1431C17.0263 21.4406 17.7536 21.0605 18.4312 21.2877C18.5965 21.3414 18.7411 21.4323 18.8651 21.5356C19.113 21.7546 19.27 22.0645 19.3072 22.3951L21.9145 23.2711L22.431 23.4488C22.8442 22.6596 23.5838 22.0852 24.4681 21.9199V18.5234C24.1706 18.387 23.9351 18.1309 23.8111 17.8168C23.745 17.6639 23.7161 17.4904 23.7161 17.3127C23.7161 16.5772 24.2946 15.9863 25.0053 15.9863C25.716 15.9863 26.2945 16.5772 26.2945 17.3127C26.2945 17.4904 26.2614 17.6598 26.1994 17.8168C26.0755 18.1309 25.8399 18.387 25.5424 18.5234V21.9199C26.4226 22.0852 27.1663 22.6596 27.5795 23.4488L28.2654 23.2174L30.7075 22.3951C30.7447 22.0645 30.9058 21.7546 31.1496 21.5356C31.2736 21.4323 31.4182 21.3414 31.5835 21.2877C32.2611 21.0605 32.9842 21.4406 33.2032 22.1431C33.4222 22.8496 33.0462 23.5975 32.3768 23.8248V23.8248Z" fill="white"/>
<path opacity="0.2" d="M28.873 1.39663C30.6125 3.38413 31.6414 6.52034 31.6414 9.90034C31.6414 11.8672 31.2861 13.7886 30.6167 15.4579C30.4018 15.9951 30.5878 16.6108 31.0671 16.9413C31.2778 17.0859 31.5257 17.1603 31.7695 17.1603C32.0753 17.1603 32.3769 17.0488 32.6124 16.8298C33.976 15.5612 35.7115 14.553 37.6287 13.9125C39.108 13.4167 40.5955 13.1646 42.0583 13.1646C43.5954 13.1646 45.0209 13.4498 46.211 13.9869C45.9837 14.7637 44.8722 16.4992 43.6532 17.9371C43.3722 18.2677 43.2855 18.7264 43.4218 19.1354C43.5623 19.5486 43.9053 19.8585 44.335 19.9494C46.12 20.3378 48.0001 21.0196 48.6447 21.4907C47.3721 23.8377 44.7937 25.8417 41.6657 26.8912C40.1906 27.3871 38.7031 27.6391 37.2486 27.6391C36.761 27.6391 36.2734 27.6102 35.8065 27.5524C35.7569 27.5441 35.7032 27.5441 35.6536 27.5441C35.133 27.5441 34.6578 27.8747 34.4843 28.3788C34.2942 28.9325 34.5132 29.544 35.0132 29.8456C36.5585 30.7836 38.0006 32.1596 39.1741 33.8248C41.0748 36.5395 42.0335 39.6923 41.7773 42.345C40.6864 42.3368 38.5378 41.5599 37.4304 41.0724C37.2692 41.0021 37.0998 40.9649 36.9263 40.9649C36.6701 40.9649 36.4139 41.0434 36.199 41.2005C35.8396 41.4608 35.6495 41.8905 35.6949 42.3326C35.8891 44.1921 35.8437 46.2333 35.6164 47.0514C33.0959 46.5101 30.4927 44.6053 28.5713 41.8781C27.3648 40.1675 26.5301 38.2667 26.1582 36.3825C26.0425 35.804 25.5343 35.3826 24.9434 35.3826C24.3525 35.3826 23.8443 35.7999 23.7286 36.3825C23.3567 38.2585 22.5179 40.1633 21.3072 41.8905C19.4189 44.5722 16.8446 46.4688 14.3489 47.0432C14.0968 46.2457 14.0142 44.1962 14.1836 42.3244C14.2249 41.8822 14.0224 41.4566 13.663 41.2005C13.4522 41.0517 13.2002 40.9732 12.9481 40.9732C12.7704 40.9732 12.5928 41.0104 12.4275 41.0889C11.316 41.6013 9.20037 42.407 8.10951 42.4525C7.82027 39.7708 8.77064 36.5933 10.7086 33.8455C11.9151 32.1265 13.4109 30.7134 15.0389 29.7671C15.5513 29.4696 15.7786 28.854 15.5885 28.2961C15.4149 27.7879 14.9398 27.4573 14.415 27.4573C14.3613 27.4573 14.3076 27.4615 14.2497 27.4697C13.7539 27.5358 13.2374 27.5689 12.7167 27.5689C11.2581 27.5689 9.77059 27.3168 8.29132 26.821C5.21296 25.788 2.64697 23.8129 1.35365 21.5072C1.97345 21.0238 3.85352 20.3007 5.64269 19.8833C6.06829 19.7842 6.40712 19.4701 6.54347 19.0569C6.6757 18.6437 6.58479 18.1892 6.29555 17.8586C5.06008 16.4496 3.91964 14.7431 3.66345 13.958C4.86587 13.3919 6.32034 13.0944 7.89052 13.0944C9.35325 13.0944 10.8449 13.3465 12.3242 13.8464C14.3778 14.5365 16.2 15.6356 17.5967 17.0198C17.8363 17.2595 18.1503 17.3793 18.4726 17.3793C18.7123 17.3793 18.9561 17.3091 19.1668 17.1686C19.6585 16.838 19.8445 16.2058 19.6172 15.6604C18.8982 13.9539 18.5222 11.9664 18.5222 9.91687C18.5222 6.58232 19.5263 3.46677 21.2287 1.47927C21.8816 1.98751 23.0964 3.57834 24.0096 5.1609C24.2327 5.54518 24.6418 5.78071 25.0839 5.78071H25.0922C25.5384 5.77658 25.9475 5.53279 26.1665 5.14438C27.0466 3.54115 28.2242 1.93792 28.873 1.39663M29.0093 0C27.5962 0 25.0798 4.5287 25.0798 4.5287C25.0798 4.5287 22.5303 0.0826405 21.08 0.0826405C20.9064 0.0826405 20.7494 0.144621 20.613 0.289242C18.5966 2.40484 17.2785 5.9212 17.2785 9.90034C17.2785 12.1895 17.7165 14.3257 18.4726 16.1232C16.9975 14.6604 15.0224 13.425 12.7209 12.6523C11.0763 12.0986 9.43589 11.8383 7.89052 11.8383C5.9402 11.8383 4.15103 12.2556 2.71308 13.0324C1.16357 13.863 5.36171 18.6561 5.36171 18.6561C5.36171 18.6561 -0.749557 20.0775 0.0768486 21.7303C1.40736 24.3707 4.22954 26.7508 7.89878 27.9821C9.54333 28.5358 11.1796 28.7961 12.7167 28.7961C13.2993 28.7961 13.8654 28.7589 14.4109 28.6845C12.6919 29.6845 11.0433 31.1886 9.68795 33.1223C7.38228 36.3908 6.4567 40.1096 6.94015 43.0681C7.01453 43.5144 7.43186 43.6797 8.01448 43.6797C9.7458 43.6797 12.944 42.2004 12.944 42.2004C12.944 42.2004 12.3903 48.3447 14.0224 48.3447C14.0596 48.3447 14.101 48.3406 14.1423 48.3323C16.9768 47.8489 20.0469 45.8118 22.3113 42.593C23.6625 40.6716 24.5426 38.6014 24.9351 36.6139C25.3277 38.5932 26.2037 40.6633 27.5507 42.5806C29.8564 45.849 32.9843 47.9109 35.8644 48.3489C35.8974 48.353 35.9346 48.3571 35.9677 48.3571C37.5626 48.3571 36.9222 42.1963 36.9222 42.1963C36.9222 42.1963 40.0336 43.5764 41.7897 43.5764C42.4219 43.5764 42.8764 43.3987 42.9508 42.9111C43.3764 39.9774 42.4425 36.3329 40.1823 33.1058C38.8725 31.2464 37.2982 29.7754 35.6454 28.7755C36.1619 28.8416 36.6949 28.8705 37.2403 28.8705C38.7774 28.8705 40.4137 28.6102 42.0541 28.0565C45.7771 26.8045 48.6365 24.3583 49.9298 21.6766C50.7107 20.0569 44.5912 18.7305 44.5912 18.7305C44.5912 18.7305 48.7274 13.8712 47.1159 13.0407C45.6986 12.3093 43.9507 11.9126 42.0541 11.9126C40.5129 11.9126 38.8725 12.173 37.2321 12.7225C35.0751 13.4456 33.2116 14.5654 31.7654 15.9083C32.472 14.1481 32.8769 12.0903 32.8769 9.88795C32.8769 5.84269 31.5092 2.27675 29.4349 0.173545C29.3151 0.0578482 29.1705 0 29.0093 0V0Z" fill="#424242"/>
<defs>
<radialGradient id="paint0_radial_1029_2297" cx="0" cy="0" r="1" gradientUnits="userSpaceOnUse" gradientTransform="translate(25.0021 24.1791) scale(24.2228 25.0124)">
<stop offset="0.1491" stop-color="#FCE4EC"/>
<stop offset="0.3509" stop-color="#FACFDE"/>
<stop offset="0.7646" stop-color="#F59AB9"/>
<stop offset="1" stop-color="#F279A2"/>
</radialGradient>
</defs>
</svg>
