<svg width="55" height="55" viewBox="0 0 55 55" fill="none" xmlns="http://www.w3.org/2000/svg">
<path d="M29.679 3L36.678 17.6518L52.2886 3.56557L44.3088 23.7317L53 21.3855L44.7595 33.099L52.2842 35.6926L44.596 39.3468L52.0765 52.1737L37.8533 43.3765L34.8045 52.894L30.2888 42.7181L17.4751 52.3416L21.3722 41.3616L3.71138 44.9141L16.9316 35.0741L3 25.044L18.889 26.4182L4.19742 3.88812L27.7923 19.3485L29.679 3Z" fill="#FFA000" stroke="#F44336" stroke-width="1.32837" stroke-miterlimit="10"/>
<path d="M31.6056 14.6016L35.8209 25.5197L44.163 16.1039L37.8932 29.2445L45.4974 26.9602L38.4499 33.9635L44.353 35.9033L38.6973 36.7384L43.1998 43.1187L35.8827 38.4439L34.1993 43.8875L31.6056 37.6618L25.1325 42.5929L27.7924 36.5528L17.6298 38.7709L25.1192 34.2286L15.3499 29.5317L26.1708 30.5392L17.2852 16.5987L30.9296 25.8246L31.6056 14.6016Z" fill="url(#paint0_radial_1029_2994)" stroke="#FFEB3B" stroke-width="0.885583" stroke-miterlimit="10"/>
<defs>
<radialGradient id="paint0_radial_1029_2994" cx="0" cy="0" r="1" gradientUnits="userSpaceOnUse" gradientTransform="translate(33.796 32.7022) scale(11.6496)">
<stop stop-color="#FFFDE7"/>
<stop offset="1" stop-color="#FFF176"/>
</radialGradient>
</defs>
</svg>
