<svg width="50" height="39" viewBox="0 0 50 39" fill="none" xmlns="http://www.w3.org/2000/svg">
<path d="M24.8174 0.00770065C12.569 -0.30809 8.60262 9.17406 8.29946 12.732C8.06367 15.4983 6.87629 25.6162 12.6447 32.4121C15.6216 35.9194 20.3921 37.6668 25.449 37.5489C30.548 37.431 35.1543 36.4163 38.2533 32.3321C43.4702 25.4562 42.9144 15.1825 42.207 11.8604C41.5417 8.76985 38.9607 0.369808 24.8174 0.00770065V0.00770065Z" fill="#FFEAC8"/>
<path d="M38.7376 18.7272C39.1712 22.0156 37.7439 25.1525 33.9838 25.3756C30.5438 25.582 28.4217 23.3883 28.2533 20.1588C28.0807 16.8493 29.8912 13.7714 32.767 13.4556C35.8028 13.123 38.3081 15.4388 38.7376 18.7272V18.7272Z" fill="#D27856"/>
<path d="M5.9288 2.84949C5.9288 2.84949 1.78983 4.47056 0.79193 6.87899C-0.551234 10.1211 0.0677162 16.5548 0.79193 19.0517C1.50351 21.5022 3.39826 24.0328 6.32459 23.9528C9.25092 23.8728 11.8194 20.9085 12.7246 17.039C13.6341 13.1653 13.832 6.52951 14.1057 5.34214C14.3794 4.15476 14.8552 3.20739 14.8552 3.20739C14.8552 3.20739 11.2215 -0.312626 5.9288 2.84949V2.84949Z" fill="#D27856"/>
<path d="M40.5859 2.33509C40.5859 2.33509 46.1985 2.53299 47.5417 3.12667C48.8848 3.72036 50.1101 6.40669 49.9922 10.0025C49.8743 13.5983 49.6385 19.4131 47.8196 21.4215C46.3164 23.0805 43.2764 23.1984 41.5753 21.1436C39.8743 19.0889 38.809 15.6109 38.4132 13.3583C38.0174 11.1057 37.3479 8.18354 36.9101 6.87827C36.4764 5.573 35.4069 2.96667 34.8553 2.37299C34.2995 1.78351 35.4069 1.22772 40.5859 2.33509V2.33509Z" fill="#D27856"/>
<path d="M10.5898 0.993368C7.54561 0.799683 2.52664 3.20812 1.49926 5.69655C0.471891 8.18498 1.074 16.2608 1.93716 18.6187C2.84664 21.1071 4.74139 24.2314 8.0214 21.545C11.3014 18.8587 12.1688 12.1008 12.4888 9.92815C12.8046 7.75551 13.2383 5.10707 13.7141 4.55549C14.1899 4.00391 14.8593 3.21233 14.8593 3.21233C14.8593 3.21233 14.3456 1.22916 10.5898 0.993368V0.993368Z" fill="#865B51"/>
<path d="M41.2554 0.480169C44.1143 0.678065 47.2217 1.74333 48.367 4.23598C49.5123 6.72441 49.0786 12.615 48.6449 15.4192C48.2112 18.2234 47.1838 21.1497 44.6154 20.834C42.047 20.5182 40.7417 17.0402 39.9543 13.7602C39.1627 10.4802 38.3333 7.2002 37.3059 4.82966C36.6869 3.39808 34.5396 2.34123 34.5396 2.34123C34.5396 2.34123 35.4869 0.0843778 41.2554 0.480169V0.480169Z" fill="#865B51"/>
<path d="M19.2342 20.0999C19.0657 21.5399 18.3247 22.702 16.7162 22.5336C15.5752 22.4115 14.8089 21.0515 14.9773 19.6072C15.1457 18.1672 15.6468 17.1314 16.9941 17.1567C19.0868 17.1946 19.4026 18.6557 19.2342 20.0999V20.0999Z" fill="#2F2F2F"/>
<path d="M35.7565 19.6965C35.8238 21.1449 35.2512 22.3828 33.5796 22.5049C32.127 22.6102 31.3817 21.3512 31.3185 19.9028C31.2512 18.4544 31.9712 17.2923 33.3564 17.1196C35.1544 16.8881 35.6891 18.2481 35.7565 19.6965Z" fill="#2F2F2F"/>
<path d="M29.6005 26.9975C29.6679 28.4459 28.6911 29.8017 25.6468 29.7638C22.6826 29.7259 21.6047 28.5259 21.5374 27.0775C21.47 25.6291 23.1542 24.328 25.5668 24.2733C28.889 24.189 29.5332 25.5448 29.6005 26.9975Z" fill="#2F2F2F"/>
<path d="M22.8804 32.8447C22.8804 32.8447 23.2383 36.2847 23.592 37.3121C24.3414 39.4848 27.4993 39.1226 28.0593 37.0763C28.5351 35.3374 28.2193 32.3352 28.2193 32.3352L25.4151 31.9395L22.8804 32.8447Z" fill="#E94B8C"/>
<path d="M25.7437 33.9906C25.251 34.0117 25.2679 34.4664 25.2679 35.5106C25.2679 36.559 25.3268 37.1906 25.8026 37.1696C26.2784 37.1485 26.2195 36.3401 26.2195 35.5906C26.2195 34.8411 26.2574 33.9696 25.7437 33.9906Z" fill="#EF87B2"/>
<path d="M19.0867 29.5816C18.5182 30.4195 19.6214 31.1606 20.5309 31.7753C21.4404 32.3859 22.5435 33.3164 23.8488 33.2953C25.3099 33.2743 25.7057 32.289 25.7057 32.289C25.7057 32.289 26.1814 33.4553 28.253 33.2364C29.3604 33.1185 30.7246 31.8764 31.1373 31.5985C31.9288 31.0637 32.8762 30.3943 32.4594 29.8385C31.9836 29.2027 30.9773 30.0574 29.9499 30.5879C28.9225 31.1227 28.5688 31.3795 27.7983 31.3795C27.0278 31.3795 26.493 31.0637 26.4551 29.7795C26.4214 28.7311 26.4341 28.5332 26.4341 28.5332H24.6741C24.6741 28.5332 24.733 29.6406 24.733 29.9564C24.733 30.7858 24.2993 31.1437 23.4699 31.1816C22.6404 31.2195 21.7519 30.529 21.314 30.2722C20.8846 30.0195 19.5414 28.9122 19.0867 29.5816V29.5816Z" fill="#2F2F30"/>
</svg>
