<svg width="50" height="53" viewBox="0 0 50 53" fill="none" xmlns="http://www.w3.org/2000/svg">
<path d="M10.9799 25.9185C10.9799 25.9185 9.92399 28.9668 10.5425 32.2007C11.1654 35.4346 12.0357 38.4211 12.0357 38.4211C12.0357 38.4211 12.2213 44.7652 12.0357 45.45C11.8502 46.1347 10.4188 47.0051 10.4188 48.2509C10.4188 49.4968 10.8738 51.0695 13.1756 51.445C15.4773 51.8206 17.3416 51.0519 18.1103 50.1197C19.2192 48.7722 19.0028 47.818 19.0028 46.8239C19.0028 45.8299 19.0646 40.1087 19.312 39.234C19.5594 38.3637 19.9349 37.8644 20.6197 37.9263C21.3045 37.9881 22.0511 39.044 22.1129 41.0365C22.1748 43.0245 22.2366 46.5103 22.1748 47.195C22.1129 47.8798 21.49 50.1815 21.9892 51.1137C22.4885 52.0459 24.746 52.9515 26.4867 52.8544C28.7663 52.7307 30.1358 51.2993 30.2595 50.1815C30.3832 49.0638 29.6366 46.5103 29.6366 45.7636C29.6366 45.017 30.5069 39.9188 30.7543 39.6051C31.0017 39.2958 31.7616 39.3621 33.4272 38.6111C34.9425 37.9263 35.751 37.2415 35.751 37.2415C35.751 37.2415 35.7907 41.6594 35.7289 42.1542C35.667 42.6534 34.1738 44.2085 34.4212 45.3881C34.6686 46.5677 36.1265 47.2569 37.4254 47.3762C39.621 47.5838 41.7593 45.8829 42.316 44.3897C42.877 42.8964 42.6252 41.0321 42.5015 40.038C42.3778 39.044 42.3778 35.5583 42.5015 34.6261C42.6252 33.694 42.8284 33.1285 42.908 32.6381C43.0317 31.8296 43.0007 30.9284 43.0007 30.9284C43.0007 30.9284 45.1478 30.9284 46.4202 30.089C47.6925 29.2496 49.0312 27.7872 49.6232 25.9847C50.2019 24.222 50.0605 23.683 49.5613 23.6212C49.0621 23.5593 46.8266 26.696 44.9269 26.7932C41.9095 26.9478 42.2099 23.7139 39.9082 21.7568C37.3149 19.5479 33.2725 19.2695 33.2725 19.2695C33.2725 19.2695 33.9706 16.6586 33.9794 14.7279C34.0103 6.29861 29.9061 3.44024 29.9061 3.44024C29.9061 3.44024 24.9713 -0.235451 19.3739 0.0119513C13.7764 0.259353 9.67217 4.70817 9.67217 4.70817L6.5929 18.2976C6.5929 18.2976 7.37044 20.9086 8.61629 22.8083C9.92399 24.7963 10.9799 25.9185 10.9799 25.9185V25.9185Z" fill="#FFD2B1"/>
<path d="M7.0921 1.6945C2.51958 1.78728 0.102994 5.68386 0.0323076 8.06952C-0.00745341 9.46999 -0.55969 19.6488 5.0687 19.8565C7.32625 19.9404 9.00504 17.3206 9.8577 14.3518C10.9312 10.6098 10.8826 6.85901 11.0063 5.86057C11.2052 4.26571 11.5365 3.09497 11.5365 3.09497C11.5365 3.09497 10.9798 1.61498 7.0921 1.6945Z" fill="#865B52"/>
<path d="M31.5672 0.141182C36.5418 0.326733 38.2382 2.53126 38.7198 3.81245C39.2499 5.21292 39.7138 10.2096 38.9363 13.5451C38.3045 16.2665 37.3502 17.6493 35.1104 17.5565C33.0605 17.4726 32.0223 14.517 30.476 10.4967C28.9827 6.60897 27.8385 3.12768 27.6441 2.62845C27.3967 1.97461 26.8666 1.69628 26.8666 1.69628C26.8666 1.69628 27.8606 -0.000190762 31.5672 0.141182V0.141182Z" fill="#865B52"/>
<path d="M25.8769 10.2425C23.4206 10.3972 22.2454 13.1274 22.7667 15.8709C23.3278 18.8265 25.2672 20.227 27.7103 19.9133C30.3832 19.5731 31.1916 16.5248 30.8515 14.2231C30.5378 12.129 29.3538 10.0216 25.8769 10.2425V10.2425Z" fill="#D27856"/>
<path d="M28.7663 15.2503C28.7663 16.5404 28.0506 17.6183 26.9152 17.5874C25.3733 17.5432 24.9713 16.1781 25.0022 15.0294C25.0376 13.6864 25.8416 13.0502 26.9903 13.0812C28.0152 13.1032 28.7663 13.9603 28.7663 15.2503Z" fill="#060401"/>
<path d="M15.7998 15.9607C15.7998 17.3038 15.0842 18.4259 13.9488 18.3906C12.4069 18.3464 12.0049 16.9238 12.0358 15.7266C12.0711 14.3261 13.0298 13.7297 13.9311 13.796C14.9516 13.8711 15.7998 14.6177 15.7998 15.9607V15.9607Z" fill="#060401"/>
<path d="M21.7066 23.4618C21.7066 23.4618 24.4103 23.1835 24.2866 21.222C24.1629 19.2648 22.3295 19.1367 20.8981 19.1676C19.4667 19.1986 17.4168 19.9452 17.6333 21.5931C17.8497 23.2409 20.1824 23.4574 20.1824 23.4574C20.1824 23.4574 20.178 24.6768 19.3739 24.7651C18.5036 24.8579 17.2577 23.5193 16.9176 23.1791C16.5774 22.8389 16.0472 22.9626 15.8617 23.2409C15.6761 23.5193 15.7998 24.1422 16.33 24.6723C16.8601 25.2025 18.1016 26.5367 19.3474 26.413C20.5932 26.2893 20.6242 25.6354 21.119 25.6045C21.6182 25.5736 21.5873 26.3202 22.8287 26.2893C23.7034 26.2672 25.4662 24.7298 25.7843 24.4559C26.5 23.8329 26.6855 23.21 26.3763 22.808C26.067 22.406 25.1967 22.9935 24.7284 23.3381C24.2601 23.6783 23.5046 24.4824 22.7713 24.6149C21.5519 24.8314 21.7066 23.4618 21.7066 23.4618V23.4618Z" fill="#060401"/>
<path d="M32.747 20.5472C32.747 20.5472 32.1594 21.8372 31.669 22.871C31.077 24.1168 30.2288 25.2036 30.2288 25.2036C30.2288 25.2036 31.1874 31.7598 36.8909 31.1943C38.932 30.9911 40.4783 29.3918 40.6241 27.6953C40.8715 24.8325 39.7847 23.4939 38.097 22.1862C35.3623 20.0744 32.747 20.5472 32.747 20.5472Z" fill="#D27856"/>
<path d="M28.7974 30.8005C27.7857 31.7283 28.3291 33.4733 29.6678 33.6633C31.0064 33.8488 31.7265 32.7355 31.6249 31.8917C31.4747 30.584 29.9505 29.7446 28.7974 30.8005V30.8005Z" fill="#D27856"/>
<path d="M15.5835 29.0781C15.5835 29.0781 14.6911 31.5256 16.5775 34.5917C17.3816 35.8949 19.1708 36.6283 20.4343 36.5797C21.7685 36.5311 22.9746 36.0672 24.0084 34.7772C25.6563 32.7229 25.188 29.3034 25.188 29.3034C25.188 29.3034 22.577 30.377 20.1825 30.2975C17.6334 30.2179 15.5835 29.0781 15.5835 29.0781V29.0781Z" fill="#D27856"/>
<path d="M12.3275 47.8087C11.6781 47.6099 11.4174 48.6172 11.3732 49.2578C11.329 49.8984 11.3335 50.729 11.9122 50.9366C12.491 51.1442 12.3761 49.9117 12.4291 49.5052C12.5351 48.7232 13.0123 48.0164 12.3275 47.8087Z" fill="#D27856"/>
<path d="M14.8765 48.1842C14.4878 48.1665 14.0769 48.5597 14.0283 49.6995C13.9885 50.6538 14.0283 51.4401 14.5673 51.4843C15.2918 51.5418 15.0886 50.614 15.1283 49.8453C15.146 49.4079 15.685 48.2239 14.8765 48.1842V48.1842Z" fill="#D27856"/>
<path d="M24.7682 49.4277C24.1453 49.4277 24.1276 50.1346 24.1276 50.8989C24.1276 51.6676 23.9686 52.6174 24.6666 52.7014C25.5149 52.803 25.3514 51.6632 25.3514 51.0226C25.347 50.4659 25.4486 49.4277 24.7682 49.4277V49.4277Z" fill="#D27856"/>
<path d="M27.587 49.2855C27.0878 49.3871 27.1319 50.0719 27.1496 50.9025C27.1717 51.733 27.048 52.6122 27.7504 52.5415C28.3513 52.4797 28.3115 51.5033 28.2894 50.7567C28.2717 50.1117 28.3557 49.1221 27.587 49.2855V49.2855Z" fill="#D27856"/>
<path d="M36.1267 43.8828C35.6981 43.7989 35.2122 44.1611 35.0885 45.1287C34.9869 45.9592 35.0266 46.6882 35.7512 46.8472C36.1223 46.9312 36.1885 45.9769 36.2062 45.2921C36.2283 44.7001 36.6657 43.9888 36.1267 43.8828Z" fill="#D27856"/>
<path d="M38.4682 44.3849C38.0573 44.3186 37.6553 44.5704 37.5492 45.5998C37.4874 46.2006 37.2665 47.2786 38.0131 47.3184C38.5919 47.3449 38.5477 46.395 38.6007 45.9002C38.6846 45.1183 39.1441 44.4998 38.4682 44.3849Z" fill="#D27856"/>
</svg>
