<svg width="50" height="50" viewBox="0 0 50 50" fill="none" xmlns="http://www.w3.org/2000/svg">
<path d="M44.9999 22.6115H5.00008C4.54175 22.6115 4.16675 22.2406 4.16675 21.7823C4.16675 21.324 4.54175 20.9531 5.00008 20.9531H44.9999C45.4583 20.9531 45.8333 21.324 45.8333 21.7823C45.8333 22.2406 45.4583 22.6115 44.9999 22.6115Z" fill="#BDBDBD"/>
<path d="M25.0001 42.5286C24.5417 42.5286 24.1667 42.1578 24.1667 41.6995V1.86627C24.1667 1.40794 24.5417 1.03711 25.0001 1.03711C25.4584 1.03711 25.8334 1.40794 25.8334 1.86627V41.6995C25.8334 42.1578 25.4584 42.5286 25.0001 42.5286Z" fill="#BDBDBD"/>
<path d="M39.3749 36.9282C39.1624 36.9282 38.9499 36.849 38.7874 36.6865L10.0375 8.05742C9.71245 7.73242 9.71245 7.20742 10.0375 6.88242C10.3624 6.55742 10.8916 6.55742 11.2166 6.88242L39.9665 35.5115C40.2915 35.8365 40.2915 36.3615 39.9665 36.6865C39.7999 36.849 39.5874 36.9282 39.3749 36.9282V36.9282Z" fill="#BDBDBD"/>
<path d="M10.6249 36.9282C10.4124 36.9282 10.1999 36.849 10.0375 36.6865C9.71245 36.3615 9.71245 35.8365 10.0375 35.5115L38.7874 6.88242C39.1124 6.55742 39.6415 6.55742 39.9665 6.88242C40.2915 7.20742 40.2915 7.73242 39.9665 8.05742L11.2166 36.6865C11.0499 36.849 10.8374 36.9282 10.6249 36.9282V36.9282Z" fill="#BDBDBD"/>
<g opacity="0.2">
<path d="M44.9999 21.3698C45.2291 21.3698 45.4166 21.5531 45.4166 21.7823C45.4166 22.0115 45.2291 22.1948 44.9999 22.1948H5.00008C4.77091 22.1948 4.58341 22.0115 4.58341 21.7823C4.58341 21.5531 4.77091 21.3698 5.00008 21.3698H44.9999ZM44.9999 20.9531H5.00008C4.54175 20.9531 4.16675 21.324 4.16675 21.7823C4.16675 22.2406 4.54175 22.6115 5.00008 22.6115H44.9999C45.4583 22.6115 45.8333 22.2406 45.8333 21.7823C45.8333 21.324 45.4583 20.9531 44.9999 20.9531Z" fill="#424242"/>
<path d="M25.0001 1.45377C25.2292 1.45377 25.4167 1.63711 25.4167 1.86627V41.6995C25.4167 41.9286 25.2292 42.112 25.0001 42.112C24.7709 42.112 24.5834 41.9286 24.5834 41.6995V1.86627C24.5834 1.63711 24.7709 1.45377 25.0001 1.45377M25.0001 1.03711C24.5417 1.03711 24.1667 1.40794 24.1667 1.86627V41.6995C24.1667 42.1578 24.5417 42.5286 25.0001 42.5286C25.4584 42.5286 25.8334 42.1578 25.8334 41.6995V1.86627C25.8334 1.40794 25.4584 1.03711 25.0001 1.03711Z" fill="#424242"/>
<path d="M10.6249 7.05338C10.7374 7.05338 10.8416 7.09505 10.9208 7.17422L39.6707 35.8033C39.7499 35.8825 39.7915 35.9866 39.7915 36.095C39.7915 36.2033 39.7499 36.3075 39.6707 36.3866C39.5915 36.4658 39.4874 36.5075 39.3749 36.5075C39.2624 36.5075 39.1582 36.4658 39.079 36.3866L10.3291 7.75755C10.25 7.67838 10.2083 7.57422 10.2083 7.46588C10.2083 7.35755 10.25 7.25338 10.3291 7.17422C10.4083 7.09922 10.5124 7.05338 10.6249 7.05338M10.6249 6.63672C10.4124 6.63672 10.1999 6.71589 10.0375 6.87838C9.71245 7.20338 9.71245 7.72838 10.0375 8.05338L38.7874 36.6825C38.9499 36.845 39.1624 36.9241 39.3749 36.9241C39.5874 36.9241 39.7999 36.845 39.9624 36.6825C40.2874 36.3575 40.2874 35.8325 39.9624 35.5075L11.2124 6.87838C11.0499 6.72005 10.8374 6.63672 10.6249 6.63672V6.63672Z" fill="#424242"/>
<path d="M39.3749 7.05338C39.4874 7.05338 39.5915 7.09505 39.6707 7.17422C39.7499 7.25338 39.7915 7.35755 39.7915 7.46588C39.7915 7.57422 39.7499 7.67838 39.6707 7.75755L10.9208 36.3866C10.8416 36.4658 10.7374 36.5075 10.6249 36.5075C10.5124 36.5075 10.4083 36.4658 10.3291 36.3866C10.25 36.3075 10.2083 36.2033 10.2083 36.095C10.2083 35.9866 10.25 35.8825 10.3291 35.8033L39.079 7.17422C39.1582 7.09922 39.2624 7.05338 39.3749 7.05338M39.3749 6.63672C39.1624 6.63672 38.9499 6.71589 38.7874 6.87838L10.0375 35.5075C9.71245 35.8325 9.71245 36.3575 10.0375 36.6825C10.1999 36.845 10.4124 36.9241 10.6249 36.9241C10.8374 36.9241 11.0499 36.845 11.2124 36.6825L39.9624 8.05338C40.2874 7.72838 40.2874 7.20338 39.9624 6.87838C39.7999 6.72005 39.5874 6.63672 39.3749 6.63672V6.63672Z" fill="#424242"/>
</g>
<path d="M26.6 22.9756C26.3583 22.1548 25.5208 21.6339 24.6416 21.8214C24.0333 21.9506 23.5625 22.4381 23.3875 23.0339L14.5625 48.9338C14.4042 49.4672 14.8042 49.9963 15.3625 49.9963H17.1C17.4708 49.9963 17.7958 49.7547 17.9 49.4005L25 29.3256L32.1041 49.4047C32.2083 49.7588 32.5333 50.0005 32.9041 50.0005H34.6416C35.1999 50.0005 35.5999 49.4672 35.4416 48.938L26.6 22.9756Z" fill="#9575CD"/>
<path opacity="0.2" d="M25 22.6165C25.3666 22.6165 25.6958 22.8624 25.8 23.2124C25.8041 23.2249 25.8083 23.2332 25.8083 23.2457L34.6416 49.1665H32.9041C32.9 49.154 32.8958 49.1373 32.8916 49.1248L25.7875 29.0498C25.6708 28.7165 25.3541 28.4957 25 28.4957C24.6458 28.4957 24.3333 28.7165 24.2125 29.0498L17.1083 49.1248C17.1042 49.1373 17.1 49.1498 17.0958 49.1665L15.3583 49.1706L24.175 23.304C24.1792 23.2915 24.1833 23.2832 24.1833 23.2707C24.2792 22.9457 24.525 22.6957 24.8125 22.6374C24.875 22.6249 24.9375 22.6165 25 22.6165M25 21.7832C24.8833 21.7832 24.7625 21.7957 24.6375 21.8207C24.0292 21.9499 23.5583 22.4374 23.3833 23.0332L14.5583 48.9331C14.4 49.4665 14.8 49.9956 15.3583 49.9956H17.0958C17.4667 49.9956 17.7917 49.7539 17.8958 49.3998L25 29.3248L32.1041 49.4039C32.2083 49.7581 32.5333 49.9998 32.9041 49.9998H34.6416C35.2 49.9998 35.5999 49.4664 35.4416 48.9373L26.6 22.979C26.3916 22.2707 25.7375 21.7832 25 21.7832V21.7832Z" fill="#424242"/>
<path d="M24.9999 6.84583C33.2707 6.84583 39.9998 13.5458 39.9998 21.7833C39.9998 30.0208 33.2707 36.7207 24.9999 36.7207C16.7291 36.7207 9.99991 30.0208 9.99991 21.7833C9.99991 13.5458 16.7291 6.84583 24.9999 6.84583M24.9999 5.1875C15.7957 5.1875 8.33325 12.6166 8.33325 21.7833C8.33325 30.9499 15.7957 38.3791 24.9999 38.3791C34.204 38.3791 41.6665 30.9499 41.6665 21.7833C41.6665 12.6166 34.204 5.1875 24.9999 5.1875V5.1875Z" fill="#7E57C2"/>
<path d="M24.9998 2.07564C35.9123 2.07564 44.7915 10.9173 44.7915 21.7839C44.7915 32.6505 35.9123 41.4922 24.9998 41.4922C14.0874 41.4922 5.20825 32.6505 5.20825 21.7839C5.20825 10.9173 14.0874 2.07564 24.9998 2.07564M24.9998 0.208984C13.0332 0.208984 3.33325 9.86729 3.33325 21.7839C3.33325 33.7005 13.0332 43.3588 24.9998 43.3588C36.9665 43.3588 46.6664 33.7005 46.6664 21.7839C46.6664 9.86729 36.9665 0.208984 24.9998 0.208984V0.208984Z" fill="#7E57C2"/>
<path opacity="0.2" d="M24.9999 5.60417C33.9582 5.60417 41.2498 12.8625 41.2498 21.7833C41.2498 30.7041 33.9582 37.9666 24.9999 37.9666C16.0416 37.9666 8.74992 30.7083 8.74992 21.7833C8.74992 12.8583 16.0416 5.60417 24.9999 5.60417M24.9999 37.1374C33.4998 37.1374 40.4165 30.2499 40.4165 21.7833C40.4165 13.3166 33.4998 6.42916 24.9999 6.42916C16.4999 6.42916 9.58325 13.3166 9.58325 21.7833C9.58325 30.2499 16.4999 37.1374 24.9999 37.1374ZM24.9999 5.1875C15.7957 5.1875 8.33325 12.6166 8.33325 21.7833C8.33325 30.9499 15.7957 38.3791 24.9999 38.3791C34.204 38.3791 41.6665 30.9499 41.6665 21.7833C41.6665 12.6166 34.204 5.1875 24.9999 5.1875ZM24.9999 36.7207C16.7291 36.7207 9.99991 30.0208 9.99991 21.7833C9.99991 13.5458 16.7291 6.84583 24.9999 6.84583C33.2707 6.84583 39.9998 13.5458 39.9998 21.7833C39.9998 30.0208 33.2707 36.7207 24.9999 36.7207Z" fill="#424242"/>
<path opacity="0.2" d="M24.9998 0.62565C36.7165 0.62565 46.2498 10.1173 46.2498 21.7839C46.2498 33.4505 36.7165 42.9422 24.9998 42.9422C13.2832 42.9422 3.74992 33.4505 3.74992 21.7839C3.74992 10.1173 13.2832 0.62565 24.9998 0.62565ZM24.9998 41.913C36.1415 41.913 45.2081 32.8839 45.2081 21.7881C45.2081 10.6923 36.1415 1.65898 24.9998 1.65898C13.8582 1.65898 4.79158 10.6881 4.79158 21.7839C4.79158 32.8797 13.8582 41.913 24.9998 41.913ZM24.9998 0.208984C13.0332 0.208984 3.33325 9.86729 3.33325 21.7839C3.33325 33.7005 13.0332 43.3588 24.9998 43.3588C36.9665 43.3588 46.6664 33.7005 46.6664 21.7839C46.6664 9.86729 36.9665 0.208984 24.9998 0.208984ZM24.9998 41.4963C14.0874 41.4963 5.20825 32.6547 5.20825 21.7881C5.20825 10.9215 14.0874 2.07981 24.9998 2.07981C35.9123 2.07981 44.7915 10.9215 44.7915 21.7881C44.7915 32.6547 35.9123 41.4963 24.9998 41.4963Z" fill="#424242"/>
<path d="M24.9999 28.4214C28.6818 28.4214 31.6665 25.4497 31.6665 21.784C31.6665 18.1182 28.6818 15.1465 24.9999 15.1465C21.318 15.1465 18.3333 18.1182 18.3333 21.784C18.3333 25.4497 21.318 28.4214 24.9999 28.4214Z" fill="#FFEB3B"/>
<path d="M24.9999 25.9328C27.3011 25.9328 29.1666 24.0748 29.1666 21.7828C29.1666 19.4908 27.3011 17.6328 24.9999 17.6328C22.6987 17.6328 20.8333 19.4908 20.8333 21.7828C20.8333 24.0748 22.6987 25.9328 24.9999 25.9328Z" fill="#FFC107"/>
<path opacity="0.2" d="M24.9999 15.9756C28.2166 15.9756 30.8332 18.5798 30.8332 21.784C30.8332 24.9881 28.2166 27.5923 24.9999 27.5923C21.7832 27.5923 19.1666 24.9881 19.1666 21.784C19.1666 18.5798 21.7832 15.9756 24.9999 15.9756ZM24.9999 15.1465C21.3166 15.1465 18.3333 18.1173 18.3333 21.784C18.3333 25.4506 21.3166 28.4214 24.9999 28.4214C28.6832 28.4214 31.6665 25.4506 31.6665 21.784C31.6665 18.1173 28.6832 15.1465 24.9999 15.1465V15.1465Z" fill="#424242"/>
<path d="M25.2126 0.712498H25.6001C25.7917 0.712498 25.9459 0.558332 25.9459 0.366666V0.345832C25.9501 0.154166 25.7917 0 25.6001 0H24.2334C24.0417 0 23.8876 0.154166 23.8876 0.345832V0.366666C23.8876 0.558332 24.0417 0.712498 24.2334 0.712498H24.7126L24.1126 2.04999H24.1084L23.4167 3.60832L23.9084 3.82499L24.1834 3.21249H25.7417L26.0167 3.82499L26.5084 3.60832L25.2126 0.712498ZM24.9709 1.4625L25.2292 2.04166H24.7084L24.9709 1.4625ZM24.3459 2.85416L24.5459 2.40833H25.3834L25.5834 2.85416H24.3459Z" fill="#FFEB3B"/>
<path d="M28.9249 9.94971H21.0041C20.3166 9.94971 19.7583 9.38722 19.7583 8.70388V3.31224C19.7583 2.62474 20.3208 2.06641 21.0041 2.06641H28.9249C29.6124 2.06641 30.1708 2.6289 30.1708 3.31224V8.69972C30.1708 9.38722 29.6083 9.94971 28.9249 9.94971V9.94971Z" fill="url(#paint0_linear_1029_2425)"/>
<path opacity="0.2" d="M28.9249 2.48307C29.3833 2.48307 29.7541 2.8539 29.7541 3.31224V8.69972C29.7541 9.15805 29.3833 9.52888 28.9249 9.52888H21.0041C20.5458 9.52888 20.175 9.15805 20.175 8.69972V3.31224C20.175 2.8539 20.5458 2.48307 21.0041 2.48307H28.9249ZM28.9249 2.06641H21.0041C20.3166 2.06641 19.7583 2.6289 19.7583 3.31224V8.69972C19.7583 9.38722 20.3208 9.94555 21.0041 9.94555H28.9249C29.6124 9.94555 30.1708 9.38305 30.1708 8.69972V3.31224C30.1708 2.62474 29.6083 2.06641 28.9249 2.06641V2.06641Z" fill="#424242"/>
<path d="M26.4041 7.77525H23.5041C23.2416 7.77525 23.0249 7.56275 23.0249 7.29608V3.91276C23.0249 3.65026 23.2374 3.43359 23.5041 3.43359H26.4041C26.6666 3.43359 26.8832 3.64609 26.8832 3.91276V7.29608C26.8832 7.56275 26.6707 7.77525 26.4041 7.77525Z" fill="#4FC3F7"/>
<path opacity="0.2" d="M26.4041 3.85026C26.4374 3.85026 26.4666 3.87943 26.4666 3.91276V7.29608C26.4666 7.32941 26.4374 7.35858 26.4041 7.35858H23.5041C23.4707 7.35858 23.4416 7.32941 23.4416 7.29608V3.91276C23.4416 3.87943 23.4707 3.85026 23.5041 3.85026H26.4041ZM26.4041 3.43359H23.5041C23.2416 3.43359 23.0249 3.64609 23.0249 3.91276V7.29608C23.0249 7.55858 23.2374 7.77525 23.5041 7.77525H26.4041C26.6666 7.77525 26.8832 7.56275 26.8832 7.29608V3.91276C26.8832 3.65026 26.6707 3.43359 26.4041 3.43359V3.43359Z" fill="#424242"/>
<path d="M21.6833 7.77525H19.7583V3.43359H21.6833C21.9458 3.43359 22.1625 3.64609 22.1625 3.91276V7.29608C22.1583 7.56275 21.9458 7.77525 21.6833 7.77525V7.77525Z" fill="#4FC3F7"/>
<path opacity="0.2" d="M21.6833 3.85026C21.7166 3.85026 21.7458 3.87943 21.7458 3.91276V7.29608C21.7458 7.32941 21.7166 7.35858 21.6833 7.35858H20.1708V3.85026H21.6833ZM21.6833 3.43359H19.7583V7.77525H21.6833C21.9458 7.77525 22.1625 7.56275 22.1625 7.29608V3.91276C22.1583 3.65026 21.9458 3.43359 21.6833 3.43359V3.43359Z" fill="#424242"/>
<path d="M30.1706 7.77525H28.2123C27.9498 7.77525 27.7332 7.56275 27.7332 7.29608V3.91276C27.7332 3.65026 27.9457 3.43359 28.2123 3.43359H30.1706V7.77525Z" fill="#4FC3F7"/>
<path opacity="0.2" d="M29.754 3.85026V7.35858H28.2123C28.179 7.35858 28.1498 7.32941 28.1498 7.29608V3.91276C28.1498 3.87943 28.179 3.85026 28.2123 3.85026H29.754ZM30.1706 3.43359H28.2123C27.9498 3.43359 27.7332 3.64609 27.7332 3.91276V7.29608C27.7332 7.55858 27.9457 7.77525 28.2123 7.77525H30.1706V3.43359Z" fill="#424242"/>
<path d="M10.0417 7.5582H10.4292C10.6208 7.5582 10.775 7.40403 10.775 7.21237V7.19154C10.775 6.99987 10.6208 6.8457 10.4292 6.8457H9.06251C8.87085 6.8457 8.71668 6.99987 8.71668 7.19154V7.21237C8.71668 7.40403 8.87085 7.5582 9.06251 7.5582H9.54168L8.94168 8.8957H8.93751L8.24585 10.454L8.73751 10.6707L9.01251 10.0582H10.5708L10.8458 10.6707L11.3375 10.454L10.0417 7.5582ZM9.80001 8.31237L10.0583 8.89153H9.53751L9.80001 8.31237ZM9.17085 9.69986L9.37085 9.25403H10.2083L10.4083 9.69986H9.17085Z" fill="#FFEB3B"/>
<path d="M13.7541 16.77H5.82908C5.14158 16.77 4.58325 16.2075 4.58325 15.5242V10.1325C4.58325 9.44505 5.14575 8.88672 5.82908 8.88672H13.7499C14.4374 8.88672 14.9957 9.44922 14.9957 10.1325V15.52C14.9999 16.2075 14.4374 16.77 13.7541 16.77V16.77Z" fill="url(#paint1_linear_1029_2425)"/>
<path opacity="0.2" d="M13.7541 9.30338C14.2124 9.30338 14.5832 9.67422 14.5832 10.1325V15.52C14.5832 15.9784 14.2124 16.3492 13.7541 16.3492H5.82908C5.37075 16.3492 4.99992 15.9784 4.99992 15.52V10.1325C4.99992 9.67422 5.37075 9.30338 5.82908 9.30338H13.7541ZM13.7541 8.88672H5.82908C5.14158 8.88672 4.58325 9.44922 4.58325 10.1325V15.52C4.58325 16.2075 5.14575 16.7659 5.82908 16.7659H13.7499C14.4374 16.7659 14.9957 16.2034 14.9957 15.52V10.1325C14.9999 9.44505 14.4374 8.88672 13.7541 8.88672V8.88672Z" fill="#424242"/>
<path d="M11.2332 14.5956H8.33317C8.07067 14.5956 7.854 14.3831 7.854 14.1164V10.7331C7.854 10.4706 8.0665 10.2539 8.33317 10.2539H11.2332C11.4957 10.2539 11.7123 10.4664 11.7123 10.7331V14.1164C11.7123 14.3831 11.4998 14.5956 11.2332 14.5956Z" fill="#4FC3F7"/>
<path opacity="0.2" d="M11.2332 10.6706C11.2665 10.6706 11.2957 10.6997 11.2957 10.7331V14.1164C11.2957 14.1497 11.2665 14.1789 11.2332 14.1789H8.33317C8.29984 14.1789 8.27067 14.1497 8.27067 14.1164V10.7331C8.27067 10.6997 8.29984 10.6706 8.33317 10.6706H11.2332ZM11.2332 10.2539H8.33317C8.07067 10.2539 7.854 10.4664 7.854 10.7331V14.1164C7.854 14.3789 8.0665 14.5956 8.33317 14.5956H11.2332C11.4957 14.5956 11.7123 14.3831 11.7123 14.1164V10.7331C11.7123 10.4706 11.4998 10.2539 11.2332 10.2539Z" fill="#424242"/>
<path d="M6.50825 14.5956H4.58325V10.2539H6.50825C6.77075 10.2539 6.98741 10.4664 6.98741 10.7331V14.1164C6.98741 14.3831 6.77491 14.5956 6.50825 14.5956V14.5956Z" fill="#4FC3F7"/>
<path opacity="0.2" d="M6.50825 10.6706C6.54158 10.6706 6.57075 10.6997 6.57075 10.7331V14.1164C6.57075 14.1497 6.54158 14.1789 6.50825 14.1789H4.99992V10.6706H6.50825ZM6.50825 10.2539H4.58325V14.5956H6.50825C6.77075 14.5956 6.98741 14.3831 6.98741 14.1164V10.7331C6.98741 10.4706 6.77491 10.2539 6.50825 10.2539V10.2539Z" fill="#424242"/>
<path d="M15.0002 14.5956H13.0419C12.7794 14.5956 12.5627 14.3831 12.5627 14.1164V10.7331C12.5627 10.4706 12.7752 10.2539 13.0419 10.2539H15.0002V14.5956Z" fill="#4FC3F7"/>
<path opacity="0.2" d="M14.5836 10.6706V14.1789H13.0419C13.0086 14.1789 12.9794 14.1497 12.9794 14.1164V10.7331C12.9794 10.6997 13.0086 10.6706 13.0419 10.6706H14.5836ZM15.0002 10.2539H13.0419C12.7794 10.2539 12.5627 10.4664 12.5627 10.7331V14.1164C12.5627 14.3789 12.7752 14.5956 13.0419 14.5956H15.0002V10.2539Z" fill="#424242"/>
<path d="M40.4582 7.5582H40.8457C41.0373 7.5582 41.1915 7.40403 41.1915 7.21237V7.19154C41.1915 6.99987 41.0373 6.8457 40.8457 6.8457H39.479C39.2874 6.8457 39.1332 6.99987 39.1332 7.19154V7.21237C39.1332 7.40403 39.2874 7.5582 39.479 7.5582H39.9582L39.3582 8.8957H39.354L38.6624 10.454L39.154 10.6707L39.429 10.0582H40.9873L41.2623 10.6707L41.754 10.454L40.4582 7.5582ZM40.2165 8.31237L40.4748 8.89153H39.954L40.2165 8.31237ZM39.5874 9.69986L39.7873 9.25403H40.6248L40.8248 9.69986H39.5874Z" fill="#FFEB3B"/>
<path d="M44.1708 16.77H36.2458C35.5583 16.77 35 16.2075 35 15.5242V10.1325C35 9.44505 35.5625 8.88672 36.2458 8.88672H44.1666C44.8541 8.88672 45.4125 9.44922 45.4125 10.1325V15.52C45.4166 16.2075 44.8541 16.77 44.1708 16.77Z" fill="url(#paint2_linear_1029_2425)"/>
<path opacity="0.2" d="M44.1708 9.30338C44.6291 9.30338 45 9.67422 45 10.1325V15.52C45 15.9784 44.6291 16.3492 44.1708 16.3492H36.2458C35.7875 16.3492 35.4167 15.9784 35.4167 15.52V10.1325C35.4167 9.67422 35.7875 9.30338 36.2458 9.30338H44.1708ZM44.1708 8.88672H36.2458C35.5583 8.88672 35 9.44922 35 10.1325V15.52C35 16.2075 35.5625 16.7659 36.2458 16.7659H44.1666C44.8541 16.7659 45.4125 16.2034 45.4125 15.52V10.1325C45.4166 9.44505 44.8541 8.88672 44.1708 8.88672Z" fill="#424242"/>
<path d="M41.6497 14.5956H38.7497C38.4872 14.5956 38.2705 14.3831 38.2705 14.1164V10.7331C38.2705 10.4706 38.483 10.2539 38.7497 10.2539H41.6497C41.9122 10.2539 42.1288 10.4664 42.1288 10.7331V14.1164C42.1288 14.3831 41.9163 14.5956 41.6497 14.5956Z" fill="#4FC3F7"/>
<path opacity="0.2" d="M41.6497 10.6706C41.683 10.6706 41.7122 10.6997 41.7122 10.7331V14.1164C41.7122 14.1497 41.683 14.1789 41.6497 14.1789H38.7497C38.7163 14.1789 38.6872 14.1497 38.6872 14.1164V10.7331C38.6872 10.6997 38.7163 10.6706 38.7497 10.6706H41.6497ZM41.6497 10.2539H38.7497C38.4872 10.2539 38.2705 10.4664 38.2705 10.7331V14.1164C38.2705 14.3789 38.483 14.5956 38.7497 14.5956H41.6497C41.9122 14.5956 42.1288 14.3831 42.1288 14.1164V10.7331C42.1288 10.4706 41.9163 10.2539 41.6497 10.2539Z" fill="#424242"/>
<path d="M36.925 14.5956H35V10.2539H36.925C37.1875 10.2539 37.4042 10.4664 37.4042 10.7331V14.1164C37.4042 14.3831 37.1917 14.5956 36.925 14.5956V14.5956Z" fill="#4FC3F7"/>
<path opacity="0.2" d="M36.925 10.6706C36.9583 10.6706 36.9875 10.6997 36.9875 10.7331V14.1164C36.9875 14.1497 36.9583 14.1789 36.925 14.1789H35.4167V10.6706H36.925ZM36.925 10.2539H35V14.5956H36.925C37.1875 14.5956 37.4042 14.3831 37.4042 14.1164V10.7331C37.4042 10.4706 37.1917 10.2539 36.925 10.2539V10.2539Z" fill="#424242"/>
<path d="M45.4167 14.5956H43.4584C43.1959 14.5956 42.9792 14.3831 42.9792 14.1164V10.7331C42.9792 10.4706 43.1917 10.2539 43.4584 10.2539H45.4167V14.5956Z" fill="#4FC3F7"/>
<path opacity="0.2" d="M45.0001 10.6706V14.1789H43.4584C43.4251 14.1789 43.3959 14.1497 43.3959 14.1164V10.7331C43.3959 10.6997 43.4251 10.6706 43.4584 10.6706H45.0001ZM45.4167 10.2539H43.4584C43.1959 10.2539 42.9792 10.4664 42.9792 10.7331V14.1164C42.9792 14.3789 43.1917 14.5956 43.4584 14.5956H45.4167V10.2539Z" fill="#424242"/>
<path d="M9.62493 35.6285H10.0124C10.2041 35.6285 10.3583 35.4743 10.3583 35.2827V35.2618C10.3583 35.0702 10.2041 34.916 10.0124 34.916H8.64577C8.4541 34.916 8.29993 35.0702 8.29993 35.2618V35.2827C8.29993 35.4743 8.4541 35.6285 8.64577 35.6285H9.12493L8.52493 36.966H8.52077L7.8291 38.5243L8.32077 38.741L8.59577 38.1285H10.1541L10.4291 38.741L10.9208 38.5243L9.62493 35.6285ZM9.38326 36.3785L9.6416 36.9577H9.12076L9.38326 36.3785ZM8.7541 37.7702L8.9541 37.3243H9.79159L9.99159 37.7702H8.7541Z" fill="#FFEB3B"/>
<path d="M13.3376 44.758H5.41258C4.72508 44.758 4.16675 44.1955 4.16675 43.5122V38.1247C4.16675 37.4372 4.72925 36.8789 5.41258 36.8789H13.3334C14.0209 36.8789 14.5792 37.4414 14.5792 38.1247V43.5122C14.5834 44.1997 14.0209 44.758 13.3376 44.758V44.758Z" fill="url(#paint3_linear_1029_2425)"/>
<path opacity="0.2" d="M13.3376 37.2917C13.7959 37.2917 14.1667 37.6625 14.1667 38.1208V43.5083C14.1667 43.9666 13.7959 44.3375 13.3376 44.3375H5.41258C4.95425 44.3375 4.58341 43.9666 4.58341 43.5083V38.125C4.58341 37.6667 4.95425 37.2958 5.41258 37.2958H13.3376M13.3376 36.875H5.41258C4.72508 36.875 4.16675 37.4375 4.16675 38.1208V43.5083C4.16675 44.1958 4.72925 44.7541 5.41258 44.7541H13.3334C14.0209 44.7541 14.5792 44.1916 14.5792 43.5083V38.125C14.5834 37.4375 14.0209 36.875 13.3376 36.875V36.875Z" fill="#424242"/>
<path d="M10.8164 42.5877H7.91642C7.65392 42.5877 7.43726 42.3752 7.43726 42.1086V38.7253C7.43726 38.4628 7.64976 38.2461 7.91642 38.2461H10.8164C11.0789 38.2461 11.2956 38.4586 11.2956 38.7253V42.1086C11.2956 42.3711 11.0831 42.5877 10.8164 42.5877Z" fill="#4FC3F7"/>
<path opacity="0.2" d="M10.8164 38.6628C10.8497 38.6628 10.8789 38.6919 10.8789 38.7253V42.1086C10.8789 42.1419 10.8497 42.1711 10.8164 42.1711H7.91642C7.88309 42.1711 7.85392 42.1419 7.85392 42.1086V38.7253C7.85392 38.6919 7.88309 38.6628 7.91642 38.6628H10.8164ZM10.8164 38.2461H7.91642C7.65392 38.2461 7.43726 38.4586 7.43726 38.7253V42.1086C7.43726 42.3711 7.64976 42.5877 7.91642 42.5877H10.8164C11.0789 42.5877 11.2956 42.3752 11.2956 42.1086V38.7253C11.2956 38.4628 11.0831 38.2461 10.8164 38.2461Z" fill="#424242"/>
<path d="M6.09174 42.5877H4.16675V38.2461H6.09174C6.35424 38.2461 6.57091 38.4586 6.57091 38.7253V42.1086C6.57091 42.3711 6.35841 42.5877 6.09174 42.5877V42.5877Z" fill="#4FC3F7"/>
<path opacity="0.2" d="M6.09174 38.6628C6.12508 38.6628 6.15424 38.6919 6.15424 38.7253V42.1086C6.15424 42.1419 6.12508 42.1711 6.09174 42.1711H4.58341V38.6628H6.09174ZM6.09174 38.2461H4.16675V42.5877H6.09174C6.35424 42.5877 6.57091 42.3752 6.57091 42.1086V38.7253C6.57091 38.4628 6.35841 38.2461 6.09174 38.2461V38.2461Z" fill="#424242"/>
<path d="M14.5835 42.5877H12.6252C12.3627 42.5877 12.146 42.3752 12.146 42.1086V38.7253C12.146 38.4628 12.3585 38.2461 12.6252 38.2461H14.5835V42.5877Z" fill="#4FC3F7"/>
<path opacity="0.2" d="M14.1668 38.6628V42.1711H12.6252C12.5918 42.1711 12.5627 42.1419 12.5627 42.1086V38.7253C12.5627 38.6919 12.5918 38.6628 12.6252 38.6628H14.1668ZM14.5835 38.2461H12.6252C12.3627 38.2461 12.146 38.4586 12.146 38.7253V42.1086C12.146 42.3711 12.3585 42.5877 12.6252 42.5877H14.5835V38.2461Z" fill="#424242"/>
<path d="M40.8749 35.6285H41.2624C41.4541 35.6285 41.6083 35.4743 41.6083 35.2827V35.2618C41.6083 35.0702 41.4541 34.916 41.2624 34.916H39.8958C39.7041 34.916 39.5499 35.0702 39.5499 35.2618V35.2827C39.5499 35.4743 39.7041 35.6285 39.8958 35.6285H40.3749L39.7749 36.966H39.7708L39.0791 38.5243L39.5708 38.741L39.8458 38.1285H41.4041L41.6791 38.741L42.1708 38.5243L40.8749 35.6285ZM40.6333 36.3785L40.8916 36.9577H40.3708L40.6333 36.3785ZM40.0041 37.7702L40.2041 37.3243H41.0416L41.2416 37.7702H40.0041Z" fill="#FFEB3B"/>
<path d="M44.5873 44.758H36.6623C35.9748 44.758 35.4165 44.1955 35.4165 43.5122V38.1247C35.4165 37.4372 35.979 36.8789 36.6623 36.8789H44.5831C45.2706 36.8789 45.829 37.4414 45.829 38.1247V43.5122C45.8331 44.1997 45.2706 44.758 44.5873 44.758Z" fill="url(#paint4_linear_1029_2425)"/>
<path opacity="0.2" d="M44.5873 37.2917C45.0456 37.2917 45.4165 37.6625 45.4165 38.1208V43.5083C45.4165 43.9666 45.0456 44.3375 44.5873 44.3375H36.6623C36.204 44.3375 35.8332 43.9666 35.8332 43.5083V38.125C35.8332 37.6667 36.204 37.2958 36.6623 37.2958H44.5873M44.5873 36.875H36.6623C35.9748 36.875 35.4165 37.4375 35.4165 38.1208V43.5083C35.4165 44.1958 35.979 44.7541 36.6623 44.7541H44.5831C45.2706 44.7541 45.829 44.1916 45.829 43.5083V38.125C45.8331 37.4375 45.2706 36.875 44.5873 36.875Z" fill="#424242"/>
<path d="M42.0664 42.5877H39.1664C38.9039 42.5877 38.6873 42.3752 38.6873 42.1086V38.7253C38.6873 38.4628 38.8998 38.2461 39.1664 38.2461H42.0664C42.3289 38.2461 42.5456 38.4586 42.5456 38.7253V42.1086C42.5456 42.3711 42.3331 42.5877 42.0664 42.5877Z" fill="#4FC3F7"/>
<path opacity="0.2" d="M42.0664 38.6628C42.0997 38.6628 42.1289 38.6919 42.1289 38.7253V42.1086C42.1289 42.1419 42.0997 42.1711 42.0664 42.1711H39.1664C39.1331 42.1711 39.1039 42.1419 39.1039 42.1086V38.7253C39.1039 38.6919 39.1331 38.6628 39.1664 38.6628H42.0664ZM42.0664 38.2461H39.1664C38.9039 38.2461 38.6873 38.4586 38.6873 38.7253V42.1086C38.6873 42.3711 38.8998 42.5877 39.1664 42.5877H42.0664C42.3289 42.5877 42.5456 42.3752 42.5456 42.1086V38.7253C42.5456 38.4628 42.3331 38.2461 42.0664 38.2461Z" fill="#424242"/>
<path d="M37.3415 42.5877H35.4165V38.2461H37.3415C37.604 38.2461 37.8207 38.4586 37.8207 38.7253V42.1086C37.8207 42.3711 37.6082 42.5877 37.3415 42.5877V42.5877Z" fill="#4FC3F7"/>
<path opacity="0.2" d="M37.3415 38.6628C37.3748 38.6628 37.404 38.6919 37.404 38.7253V42.1086C37.404 42.1419 37.3748 42.1711 37.3415 42.1711H35.8332V38.6628H37.3415ZM37.3415 38.2461H35.4165V42.5877H37.3415C37.604 42.5877 37.8207 42.3752 37.8207 42.1086V38.7253C37.8207 38.4628 37.6082 38.2461 37.3415 38.2461V38.2461Z" fill="#424242"/>
<path d="M45.8332 42.5877H43.8749C43.6124 42.5877 43.3958 42.3752 43.3958 42.1086V38.7253C43.3958 38.4628 43.6083 38.2461 43.8749 38.2461H45.8332V42.5877Z" fill="#4FC3F7"/>
<path opacity="0.2" d="M45.4166 38.6628V42.1711H43.8749C43.8416 42.1711 43.8124 42.1419 43.8124 42.1086V38.7253C43.8124 38.6919 43.8416 38.6628 43.8749 38.6628H45.4166ZM45.8332 38.2461H43.8749C43.6124 38.2461 43.3958 38.4586 43.3958 38.7253V42.1086C43.3958 42.3711 43.6083 42.5877 43.8749 42.5877H45.8332V38.2461Z" fill="#424242"/>
<path d="M4.62493 22.3492H5.01243C5.20409 22.3492 5.35826 22.1951 5.35826 22.0034V21.9826C5.35826 21.7909 5.20409 21.6367 5.01243 21.6367H3.64577C3.4541 21.6367 3.29993 21.7909 3.29993 21.9826V22.0034C3.29993 22.1951 3.4541 22.3492 3.64577 22.3492H4.12493L3.52493 23.6867H3.52077L2.8291 25.245L3.32077 25.4617L3.59577 24.8492H5.15409L5.42909 25.4617L5.92076 25.245L4.62493 22.3492ZM4.38326 23.0992L4.6416 23.6784H4.12076L4.38326 23.0992ZM3.7541 24.4909L3.9541 24.045H4.7916L4.99159 24.4909H3.7541Z" fill="#FFEB3B"/>
<path d="M9.1708 31.5083H1.24583C0.562498 31.5083 0 30.9458 0 30.2625V24.8708C0 24.1833 0.562498 23.625 1.24583 23.625H9.16664C9.85414 23.625 10.4125 24.1875 10.4125 24.8708V30.2583C10.4166 30.9458 9.85414 31.5083 9.1708 31.5083Z" fill="url(#paint5_linear_1029_2425)"/>
<path opacity="0.2" d="M9.1708 24.0417C9.62914 24.0417 9.99997 24.4125 9.99997 24.8708V30.2583C9.99997 30.7166 9.62914 31.0875 9.1708 31.0875H1.24583C0.787497 31.0875 0.416665 30.7166 0.416665 30.2583V24.8708C0.416665 24.4125 0.787497 24.0417 1.24583 24.0417H9.1708ZM9.1708 23.625H1.24583C0.562498 23.625 0 24.1875 0 24.8708V30.2583C0 30.9458 0.562498 31.5041 1.24583 31.5041H9.16664C9.85414 31.5041 10.4125 30.9416 10.4125 30.2583V24.8708C10.4166 24.1875 9.85414 23.625 9.1708 23.625Z" fill="#424242"/>
<path d="M6.64991 29.3338H3.74992C3.48742 29.3338 3.27075 29.1213 3.27075 28.8547V25.4714C3.27075 25.2089 3.48325 24.9922 3.74992 24.9922H6.64991C6.91241 24.9922 7.12907 25.2047 7.12907 25.4714V28.8547C7.12907 29.1213 6.91657 29.3338 6.64991 29.3338Z" fill="#4FC3F7"/>
<path opacity="0.2" d="M6.64991 25.4086C6.68324 25.4086 6.71241 25.4378 6.71241 25.4711V28.8544C6.71241 28.8877 6.68324 28.9169 6.64991 28.9169H3.74992C3.71658 28.9169 3.68742 28.8877 3.68742 28.8544V25.4711C3.68742 25.4378 3.71658 25.4086 3.74992 25.4086H6.64991ZM6.64991 24.9961H3.74992C3.48742 24.9961 3.27075 25.2086 3.27075 25.4753V28.8586C3.27075 29.1211 3.48325 29.3377 3.74992 29.3377H6.64991C6.91241 29.3377 7.12907 29.1252 7.12907 28.8586V25.4753C7.12907 25.2086 6.91657 24.9961 6.64991 24.9961Z" fill="#424242"/>
<path d="M1.92499 29.3336H0V24.9961H1.92499C2.18749 24.9961 2.40416 25.2086 2.40416 25.4753V28.8586C2.40416 29.1211 2.19166 29.3336 1.92499 29.3336V29.3336Z" fill="#4FC3F7"/>
<path opacity="0.2" d="M1.92499 25.4086C1.95833 25.4086 1.98749 25.4378 1.98749 25.4711V28.8544C1.98749 28.8877 1.95833 28.9169 1.92499 28.9169H0.416665V25.4086H1.92499ZM1.92499 24.9961H0V29.3336H1.92499C2.18749 29.3336 2.40416 29.1211 2.40416 28.8544V25.4711C2.40416 25.2086 2.19166 24.9961 1.92499 24.9961V24.9961Z" fill="#424242"/>
<path d="M10.4167 29.3338H8.45841C8.19591 29.3338 7.97925 29.1213 7.97925 28.8547V25.4714C7.97925 25.2089 8.19175 24.9922 8.45841 24.9922H10.4167V29.3338Z" fill="#4FC3F7"/>
<path opacity="0.2" d="M10.0001 25.4086V28.9169H8.45841C8.42508 28.9169 8.39591 28.8877 8.39591 28.8544V25.4711C8.39591 25.4378 8.42508 25.4086 8.45841 25.4086H10.0001ZM10.4167 24.9961H8.45841C8.19591 24.9961 7.97925 25.2086 7.97925 25.4753V28.8586C7.97925 29.1211 8.19175 29.3377 8.45841 29.3377H10.4167V24.9961Z" fill="#424242"/>
<path d="M45.8749 22.3492H46.2624C46.4541 22.3492 46.6083 22.1951 46.6083 22.0034V21.9826C46.6083 21.7909 46.4541 21.6367 46.2624 21.6367H44.8958C44.7041 21.6367 44.5499 21.7909 44.5499 21.9826V22.0034C44.5499 22.1951 44.7041 22.3492 44.8958 22.3492H45.3749L44.7749 23.6867H44.7708L44.0791 25.245L44.5708 25.4617L44.8458 24.8492H46.4041L46.6791 25.4617L47.1708 25.245L45.8749 22.3492ZM45.6333 23.0992L45.8916 23.6784H45.3708L45.6333 23.0992ZM45.0041 24.4909L45.2041 24.045H46.0416L46.2416 24.4909H45.0041Z" fill="#FFEB3B"/>
<path d="M48.7538 31.5083H40.833C40.1455 31.5083 39.5872 30.9458 39.5872 30.2625V24.8708C39.5872 24.1833 40.1497 23.625 40.833 23.625H48.7538C49.4413 23.625 49.9996 24.1875 49.9996 24.8708V30.2583C49.9996 30.9458 49.4371 31.5083 48.7538 31.5083Z" fill="url(#paint6_linear_1029_2425)"/>
<path opacity="0.2" d="M48.7538 24.0417C49.2121 24.0417 49.583 24.4125 49.583 24.8708V30.2583C49.583 30.7166 49.2121 31.0875 48.7538 31.0875H40.833C40.3747 31.0875 40.0038 30.7166 40.0038 30.2583V24.8708C40.0038 24.4125 40.3747 24.0417 40.833 24.0417H48.7538ZM48.7538 23.625H40.833C40.1455 23.625 39.5872 24.1875 39.5872 24.8708V30.2583C39.5872 30.9458 40.1497 31.5041 40.833 31.5041H48.7538C49.4413 31.5041 49.9996 30.9416 49.9996 30.2583V24.8708C49.9996 24.1875 49.4371 23.625 48.7538 23.625Z" fill="#424242"/>
<path d="M46.2329 29.3338H43.3329C43.0704 29.3338 42.8538 29.1213 42.8538 28.8547V25.4714C42.8538 25.2089 43.0663 24.9922 43.3329 24.9922H46.2329C46.4954 24.9922 46.7121 25.2047 46.7121 25.4714V28.8547C46.7121 29.1213 46.4996 29.3338 46.2329 29.3338Z" fill="#4FC3F7"/>
<path opacity="0.2" d="M46.2329 25.4086C46.2662 25.4086 46.2954 25.4378 46.2954 25.4711V28.8544C46.2954 28.8877 46.2662 28.9169 46.2329 28.9169H43.3329C43.2996 28.9169 43.2704 28.8877 43.2704 28.8544V25.4711C43.2704 25.4378 43.2996 25.4086 43.3329 25.4086H46.2329ZM46.2329 24.9961H43.3329C43.0704 24.9961 42.8538 25.2086 42.8538 25.4753V28.8586C42.8538 29.1211 43.0663 29.3377 43.3329 29.3377H46.2329C46.4954 29.3377 46.7121 29.1252 46.7121 28.8586V25.4753C46.7121 25.2086 46.4996 24.9961 46.2329 24.9961Z" fill="#424242"/>
<path d="M41.5082 29.3336H39.5833V24.9961H41.5082C41.7707 24.9961 41.9874 25.2086 41.9874 25.4753V28.8586C41.9874 29.1211 41.7749 29.3336 41.5082 29.3336V29.3336Z" fill="#4FC3F7"/>
<path opacity="0.2" d="M41.5082 25.4086C41.5416 25.4086 41.5707 25.4378 41.5707 25.4711V28.8544C41.5707 28.8877 41.5416 28.9169 41.5082 28.9169H39.9999V25.4086H41.5082ZM41.5082 24.9961H39.5833V29.3336H41.5082C41.7707 29.3336 41.9874 29.1211 41.9874 28.8544V25.4711C41.9874 25.2086 41.7749 24.9961 41.5082 24.9961V24.9961Z" fill="#424242"/>
<path d="M50 29.3338H48.0417C47.7792 29.3338 47.5625 29.1213 47.5625 28.8547V25.4714C47.5625 25.2089 47.775 24.9922 48.0417 24.9922H50V29.3338Z" fill="#4FC3F7"/>
<path opacity="0.2" d="M49.5833 25.4086V28.9169H48.0417C48.0083 28.9169 47.9792 28.8877 47.9792 28.8544V25.4711C47.9792 25.4378 48.0083 25.4086 48.0417 25.4086H49.5833ZM50 24.9961H48.0417C47.7792 24.9961 47.5625 25.2086 47.5625 25.4753V28.8586C47.5625 29.1211 47.775 29.3377 48.0417 29.3377H50V24.9961Z" fill="#424242"/>
<defs>
<linearGradient id="paint0_linear_1029_2425" x1="24.9633" y1="2.44195" x2="24.9633" y2="9.10847" gradientUnits="userSpaceOnUse">
<stop offset="0.2785" stop-color="#FFEB3B"/>
<stop offset="0.4869" stop-color="#FEE539"/>
<stop offset="0.7747" stop-color="#FDD333"/>
<stop offset="1" stop-color="#FBC02D"/>
</linearGradient>
<linearGradient id="paint1_linear_1029_2425" x1="9.79157" y1="9.26172" x2="9.79157" y2="15.9284" gradientUnits="userSpaceOnUse">
<stop offset="0.2785" stop-color="#FFEB3B"/>
<stop offset="0.4869" stop-color="#FEE539"/>
<stop offset="0.7747" stop-color="#FDD333"/>
<stop offset="1" stop-color="#FBC02D"/>
</linearGradient>
<linearGradient id="paint2_linear_1029_2425" x1="40.2083" y1="9.26172" x2="40.2083" y2="15.9284" gradientUnits="userSpaceOnUse">
<stop offset="0.2785" stop-color="#FFEB3B"/>
<stop offset="0.4869" stop-color="#FEE539"/>
<stop offset="0.7747" stop-color="#FDD333"/>
<stop offset="1" stop-color="#FBC02D"/>
</linearGradient>
<linearGradient id="paint3_linear_1029_2425" x1="9.37507" y1="37.2531" x2="9.37507" y2="43.9205" gradientUnits="userSpaceOnUse">
<stop offset="0.2785" stop-color="#FFEB3B"/>
<stop offset="0.4869" stop-color="#FEE539"/>
<stop offset="0.7747" stop-color="#FDD333"/>
<stop offset="1" stop-color="#FBC02D"/>
</linearGradient>
<linearGradient id="paint4_linear_1029_2425" x1="40.6248" y1="37.2531" x2="40.6248" y2="43.9205" gradientUnits="userSpaceOnUse">
<stop offset="0.2785" stop-color="#FFEB3B"/>
<stop offset="0.4869" stop-color="#FEE539"/>
<stop offset="0.7747" stop-color="#FDD333"/>
<stop offset="1" stop-color="#FBC02D"/>
</linearGradient>
<linearGradient id="paint5_linear_1029_2425" x1="5.20832" y1="24.0012" x2="5.20832" y2="30.6679" gradientUnits="userSpaceOnUse">
<stop offset="0.2785" stop-color="#FFEB3B"/>
<stop offset="0.4869" stop-color="#FEE539"/>
<stop offset="0.7747" stop-color="#FDD333"/>
<stop offset="1" stop-color="#FBC02D"/>
</linearGradient>
<linearGradient id="paint6_linear_1029_2425" x1="44.7913" y1="24.0012" x2="44.7913" y2="30.6679" gradientUnits="userSpaceOnUse">
<stop offset="0.2785" stop-color="#FFEB3B"/>
<stop offset="0.4869" stop-color="#FEE539"/>
<stop offset="0.7747" stop-color="#FDD333"/>
<stop offset="1" stop-color="#FBC02D"/>
</linearGradient>
</defs>
</svg>
