<svg width="50" height="64" viewBox="0 0 50 64" fill="none" xmlns="http://www.w3.org/2000/svg">
<path d="M9.8947 19.5184C9.59182 22.7492 9.37927 28.4668 11.2869 30.9005C11.2869 30.9005 10.3889 24.6196 18.4392 16.7393C21.6806 13.567 22.4299 9.25223 21.298 6.01616C20.6551 4.18291 19.4807 2.66849 18.4605 1.61105C17.8653 0.989343 18.3223 -0.0362119 19.1885 0.000984409C24.4278 0.23479 32.9192 1.69076 36.5272 10.7454C38.1107 14.7201 38.2276 18.8276 37.4731 23.0042C36.9949 25.6717 35.2945 31.6019 39.1735 32.3299C41.942 32.8506 43.281 30.6507 43.8815 29.0672C44.1312 28.4083 44.9974 28.2436 45.465 28.7697C50.1411 34.0887 50.5396 40.3536 49.5725 45.7471C47.7021 56.1727 37.1436 63.7607 26.6543 63.7607C13.5506 63.7607 3.11966 56.263 0.41496 42.6917C-0.67436 37.2132 -0.121729 26.3732 8.32714 18.7213C8.95417 18.1475 9.97972 18.6576 9.8947 19.5184V19.5184Z" fill="url(#paint0_radial_1029_596)"/>
<path d="M31.4417 39.0152C26.6115 32.7982 28.7742 25.7043 29.9591 22.8774C30.1185 22.5054 29.6934 22.1547 29.3587 22.3832C27.281 23.7967 23.0247 27.1231 21.0426 31.8045C18.3592 38.1332 18.5505 41.2311 20.1393 45.0145C21.0958 47.2941 19.9852 47.7776 19.4273 47.8627C18.8853 47.9477 18.3858 47.5863 17.9872 47.2091C16.8448 46.1197 16.0211 44.701 15.6279 43.1706C15.5429 42.8412 15.1125 42.7508 14.9159 43.0218C13.428 45.0782 12.6575 48.3781 12.6203 50.7108C12.5034 57.9216 18.4602 63.7667 25.6656 63.7667C34.7468 63.7667 41.3625 53.7237 36.1443 45.328C34.6299 42.8837 33.2058 41.2842 31.4417 39.0152Z" fill="url(#paint1_radial_1029_596)"/>
<defs>
<radialGradient id="paint0_radial_1029_596" cx="0" cy="0" r="1" gradientUnits="userSpaceOnUse" gradientTransform="translate(24.0591 63.926) rotate(-179.751) scale(37.5086 61.5441)">
<stop offset="0.3144" stop-color="#FF9800"/>
<stop offset="0.6616" stop-color="#FF6D00"/>
<stop offset="0.9715" stop-color="#F44336"/>
</radialGradient>
<radialGradient id="paint1_radial_1029_596" cx="0" cy="0" r="1" gradientUnits="userSpaceOnUse" gradientTransform="translate(26.165 26.6017) rotate(90.5787) scale(39.2454 29.5351)">
<stop offset="0.2141" stop-color="#FFF176"/>
<stop offset="0.3275" stop-color="#FFF27D"/>
<stop offset="0.4868" stop-color="#FFF48F"/>
<stop offset="0.6722" stop-color="#FFF7AD"/>
<stop offset="0.7931" stop-color="#FFF9C4"/>
<stop offset="0.8221" stop-color="#FFF8BD" stop-opacity="0.804"/>
<stop offset="0.8627" stop-color="#FFF6AB" stop-opacity="0.529"/>
<stop offset="0.9101" stop-color="#FFF38D" stop-opacity="0.2088"/>
<stop offset="0.9409" stop-color="#FFF176" stop-opacity="0"/>
</radialGradient>
</defs>
</svg>
