<svg width="50" height="51" viewBox="0 0 50 51" fill="none" xmlns="http://www.w3.org/2000/svg">
<path d="M28.6423 49.771C23.6366 49.771 16.2352 49.6284 9.79452 48.399C1.19302 46.7584 0.551058 43.3807 0.63078 40.0618C0.697913 37.238 1.99024 27.7848 3.26578 23.9162C5.19587 18.0672 8.14555 12.2517 9.94138 9.75098C12.4043 6.32297 18.6478 0.813813 24.9248 0.625H24.9835C25.8143 0.625 26.6409 1.17046 27.136 2.04739L29.5906 6.37751C30.178 7.41809 30.1654 8.69782 29.557 9.72161C29.0577 10.5608 27.6059 10.7874 27.5933 10.7916L26.4395 10.9594L27.2157 11.8363C27.2115 11.8363 27.4717 12.2475 26.8591 13.137C26.3136 13.93 25.252 14.3119 23.6199 14.3119C22.0884 14.3119 20.3429 13.9636 18.9415 13.6867C18.8576 13.6699 18.7695 13.6615 18.6813 13.6615C18.1611 13.6615 17.624 13.951 17.1373 14.4965C16.5079 15.1972 14.5232 18.0462 15.3289 25.2672C15.7275 28.8505 14.54 32.0771 14.5274 32.1107L14.0281 33.445L15.3498 32.9163C15.3624 32.9079 17.3764 32.1191 20.1457 32.1191H20.4394L20.6282 31.8925C20.687 31.8212 26.4772 24.9777 33.992 24.9777C38.9012 24.9777 43.6005 26.9666 46.5628 30.2981C48.6523 32.6478 49.63 35.4296 49.3111 38.1275C48.0775 48.6088 38.1879 49.7417 33.992 49.7417C33.4046 49.7417 32.7165 49.7459 31.9486 49.7542C30.971 49.7626 29.8591 49.771 28.6423 49.771V49.771Z" fill="url(#paint0_linear_1029_1618)"/>
<path d="M24.9877 1.25876C25.5835 1.25876 26.2128 1.69093 26.5947 2.36227L29.0492 6.69239C29.5276 7.53575 29.515 8.57632 29.0241 9.4071C28.7849 9.8099 27.9751 10.1036 27.5136 10.1749L25.1933 10.5022L26.6366 12.1302C26.6324 12.2141 26.5863 12.4281 26.3429 12.7806C25.9275 13.3806 25.0128 13.6869 23.6198 13.6869C22.1513 13.6869 20.4394 13.347 19.0673 13.0743C18.9414 13.0491 18.8114 13.0365 18.6855 13.0365C18.1946 13.0365 17.4435 13.2169 16.6715 14.0813C14.8798 16.0827 14.1456 20.2911 14.7036 25.3388C15.0812 28.75 13.9484 31.8633 13.9358 31.8927L12.9456 34.5403L15.5806 33.5039C15.5931 33.4913 17.5106 32.7486 20.1456 32.7486H20.7373L21.1149 32.2955C21.1694 32.2283 26.7877 25.6073 33.9962 25.6073C38.7291 25.6073 43.2522 27.5164 46.097 30.7178C48.0648 32.9333 48.9879 35.5389 48.69 38.0564C48.2327 41.9334 46.5082 44.8453 43.5585 46.7208C40.4368 48.6971 36.6353 49.1125 33.992 49.1125C33.4045 49.1125 32.7164 49.1167 31.9444 49.125C30.9667 49.1334 29.8548 49.1418 28.6464 49.1418C23.666 49.1418 16.3022 48.9992 9.91615 47.7824C6.15247 47.0649 3.71049 45.9782 2.43914 44.4635C1.34403 43.1585 1.23074 41.5851 1.2643 40.0788C1.33144 37.2844 2.60698 27.936 3.86993 24.1178C5.71191 18.5373 8.66579 12.6211 10.4616 10.1246C12.8532 6.79309 18.9037 1.44337 24.9499 1.26295L24.9877 1.25876ZM24.9877 0H24.9121C18.2785 0.197205 11.863 6.00426 9.43783 9.38612C7.58745 11.9666 4.59581 17.9037 2.67411 23.7192C1.40696 27.5626 0.0768782 37.0494 0.00554867 40.0452C-0.0825642 43.7082 0.781781 47.3166 9.68118 49.016C16.0127 50.2244 23.3051 50.4006 28.6464 50.4006C30.8157 50.4006 32.6619 50.3712 33.992 50.3712C41.1249 50.3712 48.8411 47.5222 49.9362 38.2032C50.7754 31.0703 43.2228 24.3485 33.992 24.3485C26.0828 24.3485 20.1456 31.4899 20.1456 31.4899C17.2085 31.4899 15.1106 32.329 15.1106 32.329C15.1106 32.329 16.3694 28.9724 15.9498 25.1961C15.1148 17.6687 17.3764 14.2911 18.6813 14.2911C18.7274 14.2911 18.7736 14.2953 18.8198 14.3037C20.2715 14.5932 22.0338 14.9414 23.6198 14.9414C25.2058 14.9414 26.6156 14.5932 27.3751 13.4939C28.3192 12.1302 27.6856 11.4169 27.6856 11.4169C27.6856 11.4169 29.4353 11.1694 30.1024 10.0449C30.8283 8.82388 30.8451 7.30498 30.1444 6.0672L27.6856 1.73708C27.1275 0.751058 26.1163 0 24.9877 0V0Z" fill="#EDA600"/>
<path d="M24.6688 6.11264C23.6156 5.91544 22.361 5.87348 21.3834 6.36859C20.1708 6.98538 19.747 8.584 20.4519 9.74625C21.5093 11.4791 24.3667 11.647 26.1751 11.5756C26.9807 11.5421 26.9849 10.2833 26.1751 10.3169C24.8702 10.3672 23.2422 10.3001 22.1051 9.60779C21.2911 9.10848 21.0142 7.96721 22.017 7.45951C22.6631 7.12804 23.6324 7.19937 24.3289 7.32944C25.1261 7.4721 25.466 6.2595 24.6688 6.11264Z" fill="#EDA600"/>
<path d="M13.5162 33.0589C11.5022 35.9918 10.9819 38.9415 11.6952 42.4157C11.8589 43.2087 13.0715 42.873 12.9078 42.08C12.2617 38.9247 12.7736 36.3569 14.603 33.6925C15.0645 33.0254 13.9736 32.396 13.5162 33.0589Z" fill="#EDA600"/>
<path d="M18.3709 12.9911C17.4394 12.8568 16.1093 11.7281 15.5555 10.5365C15.3876 10.1757 15.4589 9.66378 14.8002 9.62602C13.8897 9.57567 14.5568 11.4051 14.8673 11.854C15.7191 13.075 16.8729 13.7589 18.3835 13.868C19.1933 13.9268 19.2016 13.1086 18.3709 12.9911Z" fill="#EDA600"/>
<path d="M20.7959 37.1128C21.8533 41.4807 25.8142 44.7367 30.182 45.3283C34.3989 45.8989 41.4815 44.9213 43.5584 40.4108C43.8941 39.6807 42.8116 39.0387 42.4717 39.7772C40.571 43.9101 33.7863 44.6905 29.9765 44.036C26.2463 43.394 22.9148 40.5241 22.0127 36.7814C21.8197 35.9925 20.6071 36.324 20.7959 37.1128V37.1128Z" fill="#EDA600"/>
<defs>
<linearGradient id="paint0_linear_1029_1618" x1="24.9982" y1="46.4689" x2="24.9982" y2="6.23066" gradientUnits="userSpaceOnUse">
<stop stop-color="#FFB300"/>
<stop offset="0.4007" stop-color="#FFCA28"/>
</linearGradient>
</defs>
</svg>
