<svg width="50" height="59" viewBox="0 0 50 59" fill="none" xmlns="http://www.w3.org/2000/svg">
<path d="M25.4763 0V0.250752H25.5265H25.4763V0C14.4432 0.0501504 1.85546 6.72016 2.60772 22.9187L14.1423 31.2437C14.1423 31.2437 16.8504 31.8455 25.5265 31.8455H25.4763V31.7452C34.5034 31.7452 36.8604 31.1936 36.8604 31.1936L48.3449 22.9187C49.0971 6.72016 37.0109 0.0501504 25.4763 0V0Z" fill="url(#paint0_linear_1029_1862)"/>
<path d="M0 12.137L4.31293 11.5352L11.2337 33.8521H6.4694L0 12.137Z" fill="url(#paint1_linear_1029_1862)"/>
<path d="M17.5526 32.4476L15.4463 3.66127L11.685 2.50781L9.52856 3.86187L13.34 33.4506L16.0481 34.4536L17.5526 32.4476Z" fill="url(#paint2_linear_1029_1862)"/>
<path d="M8.47551 7.52154L4.76438 7.37109H4.56378L2.60791 8.97591L11.3341 34.9037L12.6881 34.8034L15.7473 34.6028L8.47551 7.52154Z" fill="url(#paint3_linear_1029_1862)"/>
<path d="M46.4894 7.97461L45.8876 8.17521L43.7312 8.87732L42.1263 33.6015L43.9318 33.7519L45.5867 33.8522L49.9498 9.93048L46.4894 7.97461Z" fill="url(#paint4_linear_1029_1862)"/>
<path d="M40.0201 10.3802L39.8195 10.3301L37.9138 11.7343L38.5156 32.3461H41.2237H42.4274L44.6841 11.985L40.0201 10.3802Z" fill="url(#paint5_linear_1029_1862)"/>
<path d="M21.9659 5.36523L19.5587 5.76644L21.2137 33.7002L22.5176 33.7504H25.2257L24.5738 6.26794L21.9659 5.36523Z" fill="url(#paint6_linear_1029_1862)"/>
<path d="M20.7122 9.47837L16.4494 8.22461L13.8917 9.92972L17.8035 33.8013L19.8095 33.4503L22.9689 32.9488L20.7122 9.47837Z" fill="url(#paint7_linear_1029_1862)"/>
<path d="M27.2818 8.57617L24.9248 9.32843L21.8656 10.2813L23.1194 34.7045L26.1785 34.5039L29.0873 34.3033L29.1876 10.181L27.2818 8.57617Z" fill="url(#paint8_linear_1029_1862)"/>
<path d="M36.3088 5.4668L33.4502 6.01845L30.8926 6.51996L28.7863 35.7576L31.5445 35.6573L33.2998 35.6072L38.5656 6.97131L36.3088 5.4668Z" fill="url(#paint9_linear_1029_1862)"/>
<path d="M35.4061 12.6367L35.1052 12.7872L33.2998 13.6397C33.2998 13.6397 33.701 33.5996 33.701 33.9005C33.701 34.0509 35.1052 34.1512 36.359 34.2014C37.4121 34.2515 38.365 34.2515 38.365 34.2515L39.9197 15.395L35.4061 12.6367Z" fill="url(#paint10_linear_1029_1862)"/>
<path d="M27.4321 5.06578C26.7802 5.06578 26.3288 5.06578 26.2285 5.06578L27.0811 35.4068H27.382L30.8925 35.2062L31.9958 5.01562C31.9958 5.01562 28.8865 5.06578 27.4321 5.06578V5.06578Z" fill="url(#paint11_linear_1029_1862)"/>
<path d="M37.7633 30.2414C37.7633 30.2414 33.4002 31.0438 25.5266 31.0939C17.653 31.0438 13.2899 30.2414 13.2899 30.2414C13.2899 30.2414 5.51659 25.0759 2.50757 22.5684L9.52863 56.8712C9.52863 56.8712 10.9328 58.8271 25.4765 58.8773V58.9274H25.4263H25.4765V58.8773C40.0201 58.8271 41.4744 56.8211 41.4744 56.8211L48.5456 22.5684C45.4865 25.0759 37.7633 30.2414 37.7633 30.2414V30.2414Z" fill="url(#paint12_linear_1029_1862)"/>
<path d="M37.8637 30.1908L35.7072 58.4255C33.3501 58.6762 30.0903 58.927 25.4765 58.927C21.2639 58.927 18.1545 58.7264 15.8476 58.4756L13.0894 30.1406C13.1897 30.2409 13.29 30.2409 13.29 30.2409C13.29 30.2409 17.653 31.0433 25.5267 31.0935C33.4003 31.0433 37.7634 30.2409 37.7634 30.2409C37.7634 30.2409 37.7634 30.2409 37.8637 30.1908Z" fill="url(#paint13_linear_1029_1862)"/>
<path opacity="0.2" d="M25.4764 1.50451C33.0993 1.55466 39.6188 4.46339 43.33 9.47843C43.6309 9.87963 44.0822 10.0802 44.5336 10.0802C44.684 10.0802 44.8345 10.0802 44.9849 10.0301L46.2888 9.57873L48.2447 10.682L46.7402 18.8064C46.69 18.9569 46.69 19.0572 46.7402 19.2076C46.8405 20.3109 46.8405 21.4644 46.8405 22.6178C46.8405 22.7683 46.8405 22.8686 46.8906 23.019L40.1203 55.9177C39.1675 56.3189 35.7573 57.3721 25.4764 57.3721C15.1956 57.3219 11.8355 56.3189 10.8827 55.9177L4.11235 22.9187C4.11235 22.8184 4.11235 22.7181 4.11235 22.6178C4.11235 22.1163 4.11235 21.5647 4.11235 20.9629C4.11235 20.8124 4.11235 20.662 4.0622 20.5115L1.95589 13.3902L3.7613 13.1394C4.21265 13.0893 4.61386 12.8385 4.81446 12.4373C5.01506 12.0361 5.11536 11.5847 4.96491 11.1835L4.41326 9.52858L5.11536 8.92677L7.47243 9.02707H7.52258C7.97394 9.02707 8.37514 8.82647 8.62589 8.52557C9.27784 7.82346 9.9298 7.12136 10.6821 6.51955C11.0833 6.1685 11.2839 5.667 11.2337 5.16549L11.1836 4.61384L11.9358 4.16248L12.8385 4.46339C12.989 4.51354 13.1394 4.51354 13.2899 4.51354C13.5406 4.51354 13.7914 4.46339 13.992 4.31294C17.3019 2.50752 21.4142 1.55466 25.4764 1.50451M25.4764 0C21.3641 0 17.0512 0.952858 13.2397 2.95887L11.6851 2.50752L9.5286 3.86158L9.7292 5.36609C8.92679 6.01805 8.17454 6.72015 7.52258 7.52256L4.81446 7.42226H4.61386L2.65799 9.02707L3.5607 11.685L0.0501709 12.1865L2.65799 20.9629V22.7181C2.60784 22.668 2.55769 22.668 2.55769 22.6178L9.57875 56.9207C9.57875 56.9207 10.983 58.8766 25.5266 58.9267C40.0702 58.8766 41.5246 56.8706 41.5246 56.8706L48.5456 22.5677C48.4955 22.6178 48.4453 22.668 48.3952 22.7181C48.4453 21.4644 48.3952 20.2608 48.2949 19.1073L50 9.92978L46.4894 7.97391L44.5336 8.62587C40.1705 2.65797 32.6981 0.0501504 25.4764 0V0Z" fill="#424242"/>
<defs>
<linearGradient id="paint0_linear_1029_1862" x1="25.4769" y1="0.167151" x2="25.4769" y2="31.9378" gradientUnits="userSpaceOnUse">
<stop stop-color="#C62828"/>
<stop offset="1" stop-color="#6B1010"/>
</linearGradient>
<linearGradient id="paint1_linear_1029_1862" x1="1.99408" y1="11.7973" x2="8.63901" y2="33.1112" gradientUnits="userSpaceOnUse">
<stop stop-color="#FCEE21"/>
<stop offset="0.2061" stop-color="#FCE91F"/>
<stop offset="0.4493" stop-color="#FDDB19"/>
<stop offset="0.7115" stop-color="#FEC30F"/>
<stop offset="0.9853" stop-color="#FFA201"/>
<stop offset="1" stop-color="#FFA000"/>
</linearGradient>
<linearGradient id="paint2_linear_1029_1862" x1="13.5406" y1="1.07241" x2="13.5406" y2="38.0208" gradientUnits="userSpaceOnUse">
<stop stop-color="#FCEE21"/>
<stop offset="0.2061" stop-color="#FCE91F"/>
<stop offset="0.4493" stop-color="#FDDB19"/>
<stop offset="0.7115" stop-color="#FEC30F"/>
<stop offset="0.9853" stop-color="#FFA201"/>
<stop offset="1" stop-color="#FFA000"/>
</linearGradient>
<linearGradient id="paint3_linear_1029_1862" x1="5.26769" y1="7.40675" x2="13.9186" y2="33.9865" gradientUnits="userSpaceOnUse">
<stop stop-color="#FFA000"/>
<stop offset="0.0147" stop-color="#FFA201"/>
<stop offset="0.2885" stop-color="#FEC30F"/>
<stop offset="0.5507" stop-color="#FDDB19"/>
<stop offset="0.7939" stop-color="#FCE91F"/>
<stop offset="1" stop-color="#FCEE21"/>
</linearGradient>
<linearGradient id="paint4_linear_1029_1862" x1="46.0381" y1="0.878327" x2="46.0381" y2="36.3778" gradientUnits="userSpaceOnUse">
<stop stop-color="#FFA000"/>
<stop offset="0.0147" stop-color="#FFA201"/>
<stop offset="0.2885" stop-color="#FEC30F"/>
<stop offset="0.5507" stop-color="#FDDB19"/>
<stop offset="0.7939" stop-color="#FCE91F"/>
<stop offset="1" stop-color="#FCEE21"/>
</linearGradient>
<linearGradient id="paint5_linear_1029_1862" x1="41.299" y1="0.876726" x2="41.299" y2="36.3762" gradientUnits="userSpaceOnUse">
<stop stop-color="#FCEE21"/>
<stop offset="0.2061" stop-color="#FCE91F"/>
<stop offset="0.4493" stop-color="#FDDB19"/>
<stop offset="0.7115" stop-color="#FEC30F"/>
<stop offset="0.9853" stop-color="#FFA201"/>
<stop offset="1" stop-color="#FFA000"/>
</linearGradient>
<linearGradient id="paint6_linear_1029_1862" x1="22.3922" y1="0.425118" x2="22.3922" y2="36.3777" gradientUnits="userSpaceOnUse">
<stop stop-color="#FCEE21"/>
<stop offset="0.1721" stop-color="#FAE91F"/>
<stop offset="0.3753" stop-color="#F5DB1B"/>
<stop offset="0.5943" stop-color="#ECC313"/>
<stop offset="0.8228" stop-color="#DFA209"/>
<stop offset="0.9901" stop-color="#D48500"/>
</linearGradient>
<linearGradient id="paint7_linear_1029_1862" x1="17.1646" y1="8.6899" x2="20.4244" y2="32.7621" gradientUnits="userSpaceOnUse">
<stop stop-color="#FFA000"/>
<stop offset="0.0147" stop-color="#FFA201"/>
<stop offset="0.2885" stop-color="#FEC30F"/>
<stop offset="0.5507" stop-color="#FDDB19"/>
<stop offset="0.7939" stop-color="#FCE91F"/>
<stop offset="1" stop-color="#FCEE21"/>
</linearGradient>
<linearGradient id="paint8_linear_1029_1862" x1="25.5266" y1="2.8841" x2="25.5266" y2="38.3836" gradientUnits="userSpaceOnUse">
<stop stop-color="#FFA000"/>
<stop offset="0.0147" stop-color="#FFA201"/>
<stop offset="0.2885" stop-color="#FEC30F"/>
<stop offset="0.5507" stop-color="#FDDB19"/>
<stop offset="0.7939" stop-color="#FCE91F"/>
<stop offset="1" stop-color="#FCEE21"/>
</linearGradient>
<linearGradient id="paint9_linear_1029_1862" x1="33.6759" y1="1.88104" x2="33.6759" y2="37.3805" gradientUnits="userSpaceOnUse">
<stop stop-color="#FFA000"/>
<stop offset="0.0218" stop-color="#FFA203"/>
<stop offset="0.2922" stop-color="#FFB824"/>
<stop offset="0.5512" stop-color="#FFC83C"/>
<stop offset="0.7915" stop-color="#FFD24A"/>
<stop offset="0.9951" stop-color="#FFD54F"/>
</linearGradient>
<linearGradient id="paint10_linear_1029_1862" x1="36.6097" y1="1.37795" x2="36.6097" y2="36.8774" gradientUnits="userSpaceOnUse">
<stop stop-color="#FFA000"/>
<stop offset="0.0147" stop-color="#FFA201"/>
<stop offset="0.2885" stop-color="#FEC30F"/>
<stop offset="0.5507" stop-color="#FDDB19"/>
<stop offset="0.7939" stop-color="#FCE91F"/>
<stop offset="1" stop-color="#FCEE21"/>
</linearGradient>
<linearGradient id="paint11_linear_1029_1862" x1="29.1122" y1="0.825759" x2="29.1122" y2="36.3792" gradientUnits="userSpaceOnUse">
<stop stop-color="#FCEE21"/>
<stop offset="0.2061" stop-color="#FCE91F"/>
<stop offset="0.4493" stop-color="#FDDB19"/>
<stop offset="0.7115" stop-color="#FEC30F"/>
<stop offset="0.9853" stop-color="#FFA201"/>
<stop offset="1" stop-color="#FFA000"/>
</linearGradient>
<linearGradient id="paint12_linear_1029_1862" x1="25.5266" y1="30.8432" x2="25.5266" y2="59.143" gradientUnits="userSpaceOnUse">
<stop offset="0.0049261" stop-color="#E53935"/>
<stop offset="0.2149" stop-color="#E03531"/>
<stop offset="0.4726" stop-color="#D12926"/>
<stop offset="0.7541" stop-color="#B81513"/>
<stop offset="0.9852" stop-color="#9E0000"/>
</linearGradient>
<linearGradient id="paint13_linear_1029_1862" x1="25.4765" y1="52.364" x2="25.4765" y2="29.9807" gradientUnits="userSpaceOnUse">
<stop offset="0.0148" stop-color="#D50000"/>
<stop offset="0.1245" stop-color="#DD0A09"/>
<stop offset="0.4535" stop-color="#F02320"/>
<stop offset="0.7547" stop-color="#FB322E"/>
<stop offset="1" stop-color="#FF3733"/>
</linearGradient>
</defs>
</svg>
