<svg width="50" height="44" viewBox="0 0 50 44" fill="none" xmlns="http://www.w3.org/2000/svg">
<path d="M4.03249 13.1313C3.85157 15.0247 -0.175005 17.6922 0.00591736 24.4453C0.18684 31.1983 5.51353 42.9835 24.2916 43.2822C43.0696 43.5767 49.9405 31.7916 49.9994 23.6753C50.0541 16.1523 46.3894 14.6586 45.9728 12.719C45.6194 11.0612 48.8171 3.47931 41.6475 0.752849C33.1862 -2.46589 30.0348 5.6672 29.7992 5.84392C29.5636 6.02063 27.2537 6.13844 25.2383 6.13844C23.2229 6.13844 21.0308 6.13844 20.7952 5.90282C20.5595 5.6672 15.4054 -2.50796 7.94126 0.925356C0.939983 4.15251 4.1503 11.8859 4.03249 13.1313V13.1313Z" fill="#B7D019"/>
<path d="M41.4456 10.6015C41.4456 12.8273 40.1833 14.708 38.0711 14.6281C36.2493 14.5608 34.7725 12.8231 34.7725 10.6015C34.7725 8.37994 36.2493 6.60859 38.0711 6.57493C40.2212 6.53285 41.4456 8.37573 41.4456 10.6015Z" fill="#2F2F2F"/>
<path d="M15.6998 10.2873C15.8176 13.1316 14.4376 14.5537 12.3254 14.5116C10.5498 14.478 9.14452 13.1694 9.10666 10.443C9.073 8.19616 9.93553 6.45425 12.3254 6.37431C14.101 6.31961 15.6072 8.04469 15.6998 10.2873Z" fill="#2F2F2F"/>
<path d="M20.4965 19.4963C20.1557 20.2495 19.209 20.4851 18.5737 20.119C17.9426 19.753 17.7701 18.76 18.1824 18.0447C18.5947 17.3295 19.2974 17.2201 19.8107 17.422C20.4965 17.6913 21.0014 18.3813 20.4965 19.4963V19.4963Z" fill="#2F2F2F"/>
<path d="M31.8736 18.2562C32.1976 19.0388 31.8063 19.9561 31.0573 20.1791C30.3084 20.402 29.5048 19.9224 29.2649 19.1103C29.0251 18.2983 29.3238 17.5914 30.0517 17.3011C30.5272 17.116 31.3939 17.0992 31.8736 18.2562V18.2562Z" fill="#2F2F2F"/>
<path d="M9.62012 25.729L9.78 26.8734C9.78 26.8734 14.2021 31.4932 24.8639 31.6531C35.8034 31.8172 40.541 26.4821 40.541 26.4821L35.6435 24.1133C35.6435 24.1133 30.9858 26.0866 24.9817 25.9688C18.9776 25.851 13.0576 24.1133 13.0576 24.1133L9.62012 25.729Z" fill="#FF6011"/>
<path d="M42.0809 23.0397C40.7008 21.0243 39.0388 22.8588 36.4344 23.8307C34.9912 24.3693 34.0361 24.6806 34.0361 24.6806C34.0361 24.6806 36.1777 25.0972 37.1244 25.6105C38.0711 26.1238 39.7205 27.2472 39.7205 27.2472C39.7205 27.2472 43.2421 24.7395 42.0809 23.0397V23.0397Z" fill="#865B51"/>
<path d="M8.51335 22.8036C6.8556 23.9102 9.78402 26.8765 9.78402 26.8765C9.78402 26.8765 10.6886 26.0434 11.913 25.5301C13.1374 25.0168 15.1864 24.6465 15.1864 24.6465C15.1864 24.6465 12.8176 24.1122 11.4418 23.3169C10.7307 22.913 9.46004 22.1725 8.51335 22.8036V22.8036Z" fill="#865B51"/>
</svg>
