<svg width="50" height="51" viewBox="0 0 50 51" fill="none" xmlns="http://www.w3.org/2000/svg">
<path d="M13.525 13.3718L7.633 9.59657C7.12464 9.28405 7.0413 8.57985 7.46216 8.15899L9.67477 5.94638C10.0998 5.52135 10.8165 5.61303 11.1207 6.13389L14.8042 12.1217C15.2876 12.9468 14.3417 13.8718 13.525 13.3718Z" fill="#FFC107"/>
<path d="M8.37482 31.5315L1.53279 31.669C0.936921 31.6815 0.511898 32.2482 0.661906 32.8232L1.45778 35.8484C1.61196 36.4318 2.27449 36.7109 2.79952 36.4193L8.84568 33.2566C9.67905 32.7857 9.3332 31.5107 8.37482 31.5315Z" fill="#FFC107"/>
<path d="M24.2674 43.1522L22.7674 49.815C22.6299 50.3942 23.0674 50.9526 23.6632 50.9526H26.7926C27.3968 50.9526 27.8343 50.3817 27.6843 49.7984L26.055 43.1355C25.8134 42.2063 24.4925 42.2188 24.2674 43.1522V43.1522Z" fill="#FFC107"/>
<path d="M36.4763 13.3718L42.3683 9.59657C42.8767 9.28405 42.96 8.57985 42.5392 8.15899L40.3265 5.94638C39.9015 5.52135 39.1848 5.61303 38.8806 6.13389L35.1971 12.1217C34.7137 12.9468 35.6596 13.8718 36.4763 13.3718V13.3718Z" fill="#FFC107"/>
<path d="M41.6265 31.5315L48.4685 31.669C49.0644 31.6815 49.4894 32.2482 49.3394 32.8232L48.5435 35.8484C48.3894 36.4318 47.7268 36.7109 47.2018 36.4193L41.1556 33.2566C40.3223 32.7857 40.6681 31.5107 41.6265 31.5315Z" fill="#FFC107"/>
<path d="M26.6882 1.04641L32.2969 13.8388C32.7261 14.818 33.6553 15.4888 34.722 15.5847L48.3852 16.8098C49.9312 17.0348 50.5479 18.9307 49.427 20.0224L39.1347 28.6687C38.3014 29.3688 37.9222 30.4688 38.1514 31.5314L41.1432 45.5363C41.4057 47.0739 39.7931 48.2489 38.4097 47.5197L26.4841 40.536C25.5674 39.9985 24.434 39.9985 23.5172 40.536L11.5916 47.5156C10.2124 48.2406 8.59562 47.0697 8.85813 45.5321L11.85 31.5272C12.075 30.4646 11.6999 29.3646 10.8666 28.6646L0.570191 20.0266C-0.546536 18.939 0.0701639 17.0389 1.61191 16.8139L15.2751 15.5889C16.3419 15.493 17.2711 14.8221 17.7003 13.8429L23.3089 1.05058C24.0048 -0.349497 25.9965 -0.349497 26.6882 1.04641V1.04641Z" fill="#FDD835"/>
<path d="M26.28 14.6064L25.33 5.18094C25.2925 4.65591 25.1841 3.75586 26.0259 3.75586C26.6926 3.75586 27.0551 5.14343 27.0551 5.14343L29.9052 12.7105C30.9803 15.5898 30.5386 16.5774 29.501 17.1607C28.3093 17.8274 26.5509 17.3066 26.28 14.6064V14.6064Z" fill="#FFFF8D"/>
<path d="M38.0347 27.8309L46.2101 21.4514C46.6143 21.1139 47.3435 20.5763 46.7602 19.9638C46.2977 19.4804 45.0476 20.1763 45.0476 20.1763L37.893 22.9723C35.7596 23.7098 34.3429 24.8016 34.2178 26.1766C34.0553 28.0101 35.7013 29.4226 38.0347 27.8309Z" fill="#F4B400"/>
</svg>
