<svg width="50" height="40" viewBox="0 0 50 40" fill="none" xmlns="http://www.w3.org/2000/svg">
<path d="M24.841 30.8718C37.3705 30.8718 47.5276 25.1546 47.5276 18.1019C47.5276 11.0493 37.3705 5.33203 24.841 5.33203C12.3115 5.33203 2.15436 11.0493 2.15436 18.1019C2.15436 25.1546 12.3115 30.8718 24.841 30.8718Z" fill="#616161"/>
<path d="M15.6806 14.1838C15.6554 14.1586 15.6344 14.1292 15.6176 14.0998C14.9536 12.8896 14.2729 11.6878 13.6384 10.4692C12.5417 8.37241 11.1298 6.44789 8.91955 4.92256C8.68004 4.75448 8.30606 4.77549 8.10016 4.96458C6.83956 6.10753 6.84796 7.46058 7.05806 8.84304C7.29758 10.4272 7.81443 11.9609 8.42372 13.4779C8.49515 13.6585 10.0583 16.8185 10.1297 16.9823C10.344 17.4698 10.613 17.0201 11.008 17.4067C11.7139 18.0875 11.071 17.0916 11.8231 17.7471C11.9408 17.8521 12.1173 17.8984 12.298 17.89C13.6468 17.8185 14.9662 18.1043 16.3067 18.1421C16.4411 18.1463 16.5756 18.1127 16.6765 18.0496C17.2942 17.6504 16.7941 17.1336 16.7731 16.663C16.5714 15.7932 16.3781 14.9191 15.6806 14.1838V14.1838Z" fill="#37654B"/>
<path d="M29.6395 12.1332C27.4167 15.0157 23.5718 15.7931 20.2859 13.0912C17.5125 10.8095 16.8738 6.89745 19.0967 4.01487C21.3196 1.13229 25.5384 0.300296 28.3831 2.49374C31.2279 4.68299 31.8624 9.25057 29.6395 12.1332V12.1332Z" fill="#A60500"/>
<path d="M29.127 11.6519C27.0554 14.3369 23.1055 14.6689 20.4583 12.6267C17.811 10.5845 17.3866 6.97081 19.454 4.28573C21.5214 1.60065 25.3494 1.0796 27.9925 3.12177C30.6355 5.16395 31.1944 8.96677 29.127 11.6519V11.6519Z" fill="#D90500"/>
<path d="M28.7177 11.4253C30.6477 8.92192 30.2112 5.34982 27.7428 3.44676C25.2744 1.5437 21.7087 2.03033 19.7788 4.53368C17.8488 7.03704 18.2853 10.6091 20.7537 12.5122C23.2221 14.4153 26.7878 13.9286 28.7177 11.4253Z" fill="#FE5601"/>
<path d="M20.4582 4.79778C19.7607 5.68861 19.3447 6.80634 19.3237 7.91988C19.3111 8.62161 19.4414 9.30654 20.2692 9.26872C20.9079 9.23931 21.5592 8.94517 22.1348 8.68884C22.5676 8.49555 23.0005 8.28125 23.4123 8.04594C23.4123 8.04594 21.681 8.14258 21.5129 7.17192C21.3449 6.20126 21.9121 5.6718 22.8156 6.15083C23.7148 6.62986 23.9333 7.09208 23.9333 7.09208C23.8535 6.924 23.9963 6.49119 24.0005 6.3021C24.0173 5.85669 24.0804 5.4491 24.1602 5.01209C24.24 4.55827 24.2653 4.05823 24.0257 3.66324C23.5887 2.9405 22.7315 3.11698 22.1012 3.43213C21.4625 3.75569 20.9037 4.23051 20.4582 4.79778V4.79778Z" fill="#A40400"/>
<path d="M29.0135 6.54178C28.9547 6.39891 28.8875 6.25604 28.816 6.12158C28.3412 5.25176 27.6143 4.54582 26.8453 3.92393C26.4461 3.60037 25.9083 3.27682 25.4502 3.50793C25.0889 3.68861 24.9586 4.13403 24.883 4.52901C24.7233 5.41144 24.6351 6.36529 24.7359 7.25612C24.8199 6.5796 25.5973 5.84004 26.3159 6.09216C26.6268 6.20141 26.8663 6.49556 26.9041 6.81911C27.0134 7.67632 25.9923 8.00408 25.3536 8.17636C26.0175 8.61337 26.6814 9.05038 27.3495 9.49159C27.6353 9.68068 27.9546 9.87397 28.2908 9.83195C28.711 9.78153 29.0009 9.38234 29.1438 8.98315C29.4253 8.20157 29.3329 7.31915 29.0135 6.54178V6.54178Z" fill="#A40400"/>
<path d="M23.0298 12.6588C24.8787 13.6337 27.3327 12.5454 27.6226 11.6377C27.7949 11.0957 27.0301 10.457 26.694 10.1502C26.1477 9.65017 25.5468 9.19636 24.9165 8.80557C25.3157 9.13753 25.4502 9.75522 25.2191 10.2258C25.0132 10.646 24.0299 11.2427 23.6349 10.7427C23.5256 10.604 23.5256 10.4149 23.5383 10.2385C23.5761 9.7048 23.6727 9.16274 23.8492 8.6543L20.5086 9.9065C20.5086 9.9107 20.7019 11.4318 23.0298 12.6588V12.6588Z" fill="#A40400"/>
<path d="M22.7693 5.61629C22.6642 5.49443 22.5508 5.36417 22.5339 5.20449C22.5171 5.04481 22.6432 4.85992 22.8029 4.88514C22.9121 4.90194 22.9836 5.0112 23.0004 5.11625C23.0172 5.2255 22.9836 5.33475 22.9499 5.4356C22.9289 5.50283 22.9037 5.57006 22.8491 5.61208C22.7945 5.6541 22.6978 5.6457 22.6684 5.58267" fill="#FF7A42"/>
<path d="M22.1725 5.17384C22.1599 5.04357 22.0044 4.94272 21.8868 5.00155C21.7607 5.06038 21.7397 5.24527 21.8111 5.36713C21.8783 5.48899 22.0086 5.56462 22.1305 5.63185C22.2103 5.47218 22.1851 5.26628 22.0674 5.12761" fill="#FF7A42"/>
<path d="M21.5884 5.62048C21.5128 5.52384 21.433 5.42299 21.3237 5.37257C21.2103 5.32214 21.059 5.34735 21.0002 5.45661C20.9455 5.56586 21.0128 5.70452 21.1178 5.76755C21.2229 5.83058 21.3531 5.83899 21.475 5.84319" fill="#FF7A42"/>
<path d="M21.2356 6.19131C21.0927 6.15769 20.9877 6.04003 20.8574 5.9728C20.7271 5.90557 20.5296 5.91397 20.475 6.04844C20.4246 6.1745 20.5506 6.31316 20.6851 6.32997C20.8196 6.34678 20.9498 6.28375 21.0675 6.22492" fill="#FF7A42"/>
<path d="M20.891 6.7853C20.7901 6.71806 20.6809 6.65083 20.559 6.64663C20.4372 6.64243 20.3069 6.73067 20.3069 6.85253C20.3111 6.97859 20.4624 7.06263 20.5885 7.04162C20.7145 7.02061 20.8154 6.92816 20.912 6.83992" fill="#FF7A42"/>
<path d="M20.9666 7.38917C20.7187 7.36396 20.4581 7.448 20.2733 7.61608C20.3195 7.76315 20.4834 7.85979 20.6346 7.83458C20.7859 7.80937 20.9036 7.6581 20.8994 7.50683" fill="#FF7A42"/>
<path d="M21.2312 7.90625C21.1514 7.99029 21.0337 8.02811 20.9371 8.09534C20.8404 8.16257 20.7648 8.28863 20.8152 8.39368C20.8825 8.52815 21.1052 8.49033 21.1808 8.36427C21.2564 8.23821 21.2396 8.07433 21.2144 7.92726" fill="#FF7A42"/>
<path d="M22.7819 10.0997C22.7189 10.2467 22.6475 10.4064 22.5088 10.4905C22.3701 10.5745 22.1516 10.5367 22.1054 10.3812C22.076 10.2761 22.139 10.1627 22.2315 10.1039C22.3239 10.045 22.4332 10.024 22.5424 10.0114C22.6097 10.003 22.6853 9.99462 22.7483 10.0282C22.8113 10.0618 22.845 10.1501 22.7987 10.2005" fill="#FF7A42"/>
<path d="M22.6433 10.8271C22.5298 10.8943 22.5088 11.0792 22.6097 11.159C22.7189 11.2473 22.8912 11.1884 22.971 11.075C23.0509 10.9615 23.0635 10.8144 23.0719 10.6758C22.8912 10.6758 22.7189 10.785 22.6433 10.9489" fill="#FF7A42"/>
<path d="M23.2903 11.1621C23.2357 11.2714 23.1769 11.3848 23.1811 11.5067C23.1853 11.6285 23.2735 11.7588 23.3954 11.763C23.5172 11.7672 23.6139 11.6453 23.6265 11.5235C23.6391 11.4016 23.5887 11.284 23.5424 11.1705" fill="#FF7A42"/>
<path d="M23.9627 11.2383C23.9921 11.3811 23.9333 11.5282 23.9291 11.6753C23.9249 11.8224 24.0131 11.9988 24.1602 11.9862C24.2946 11.9778 24.3661 11.8056 24.3241 11.6753C24.282 11.545 24.1686 11.4568 24.0635 11.3727" fill="#FF7A42"/>
<path d="M24.6434 11.2982C24.6266 11.42 24.614 11.5461 24.6602 11.6553C24.7107 11.7646 24.8451 11.8486 24.9544 11.794C25.0678 11.7352 25.0762 11.5629 25.0048 11.4579C24.9334 11.3528 24.8073 11.3024 24.6855 11.252" fill="#FF7A42"/>
<path d="M25.1604 10.9694C25.2444 11.2047 25.4293 11.4022 25.6604 11.4988C25.7739 11.3938 25.7907 11.2047 25.7025 11.0786C25.6142 10.9526 25.4293 10.9105 25.2907 10.982" fill="#FF7A42"/>
<path d="M25.5133 10.5127C25.6226 10.5505 25.7066 10.6388 25.8116 10.6976C25.9167 10.7564 26.0596 10.7732 26.131 10.6808C26.2234 10.5631 26.0932 10.3783 25.9461 10.3615C25.799 10.3446 25.6604 10.4329 25.5385 10.5169" fill="#FF7A42"/>
<path d="M26.6267 8.3653C26.7864 8.3653 26.9587 8.3653 27.0931 8.45774C27.2234 8.55019 27.278 8.76869 27.1561 8.86954C27.0721 8.93677 26.9418 8.92417 26.8494 8.86534C26.757 8.80651 26.6981 8.70986 26.6393 8.61742C26.6057 8.55859 26.5679 8.49136 26.5721 8.42413C26.5763 8.3569 26.6477 8.28546 26.7107 8.30647" fill="#FF7A42"/>
<path d="M27.3538 8.20481C27.4588 8.28465 27.6353 8.23003 27.6731 8.10397C27.7109 7.9695 27.5849 7.83504 27.4504 7.80562C27.3117 7.77621 27.1731 7.82663 27.0428 7.87286C27.11 8.03673 27.2823 8.15439 27.463 8.15859" fill="#FF7A42"/>
<path d="M27.4042 7.47909C27.526 7.48749 27.6521 7.49169 27.7655 7.44127C27.8748 7.39084 27.9588 7.25638 27.9168 7.14293C27.8706 7.02947 27.7193 6.98745 27.6059 7.02527C27.4882 7.06309 27.4 7.15553 27.3159 7.24377" fill="#FF7A42"/>
<path d="M27.2065 6.83111C27.3284 6.74707 27.4839 6.74287 27.6183 6.68824C27.7528 6.63361 27.8789 6.48234 27.8116 6.35208C27.7486 6.23442 27.5637 6.23442 27.4629 6.32267C27.362 6.41091 27.3242 6.54957 27.2906 6.67984" fill="#FF7A42"/>
<path d="M26.9881 6.18423C27.1057 6.15061 27.2276 6.1128 27.3116 6.02456C27.3957 5.93631 27.4167 5.77664 27.32 5.701C27.2234 5.62116 27.0595 5.67999 26.9923 5.78924C26.925 5.89849 26.925 6.03296 26.9292 6.16322" fill="#FF7A42"/>
<path d="M26.4838 5.8394C26.6687 5.67132 26.7738 5.4192 26.7696 5.17128C26.6267 5.11245 26.446 5.17128 26.3662 5.30154C26.2863 5.4318 26.32 5.6209 26.4376 5.71754" fill="#FF7A42"/>
<path d="M25.9208 5.70152C25.9124 5.58386 25.9587 5.47041 25.9713 5.35695C25.9839 5.2393 25.9418 5.10063 25.8284 5.07121C25.6855 5.0334 25.5679 5.22669 25.6099 5.36956C25.6561 5.51243 25.7906 5.60487 25.9166 5.68051" fill="#FF7A42"/>
<path d="M22.2398 22.9561C22.0927 21.8846 13.071 15.5732 12.529 14.7706C12.2474 14.3504 11.8356 14.0185 11.4827 13.6445C9.70101 11.6779 7.75968 9.88368 5.41496 8.60627C4.73843 8.23649 3.92325 7.54316 3.17529 8.19867C2.41052 8.87099 2.92317 9.79964 3.1921 10.5896C3.6249 11.8712 4.47371 12.9259 5.17965 14.0563C5.13763 14.7916 5.88558 15.0311 6.1335 15.5816C7.37309 17.0397 11.3818 22.9813 13.0626 23.9352C14.3484 23.2755 21.0254 23.7503 22.2398 22.9561V22.9561Z" fill="#19432D"/>
<path d="M10.6844 7.08452C11.3357 8.19806 12.2139 10.2528 12.2979 10.2192C13.1173 9.89987 13.9283 9.1267 14.6048 9.71498C15.2141 10.2444 14.5208 10.9041 14.2477 11.4798C13.9745 12.0597 13.3862 12.5723 13.7098 13.2657C13.8905 13.501 14.1888 13.543 14.4367 13.438C14.8527 13.2615 12.5122 17.4971 14.6553 18.3879C16.4621 19.1401 21.7987 21.384 24.2821 20.7831C25.4124 20.5099 24.8619 17.2324 25.0342 17.2072C25.4544 17.1441 22.7525 13.3959 23.1727 13.3413C23.4375 13.3077 19.6683 11.9168 19.6178 11.6311C19.5632 11.421 19.5128 11.2109 19.4203 11.005C19.2901 10.7277 19.0926 10.4713 19.0253 10.173C18.9959 9.97551 19.0085 9.78221 19.0548 9.58892C19.1598 9.28638 19.2438 8.97963 19.2607 8.66448C19.2733 8.39135 19.2649 8.12242 19.2102 7.84929C19.1682 7.69381 19.0085 7.30303 18.7354 6.91224C18.4539 6.50465 18.0547 6.09705 17.8152 5.90376C17.2017 5.39952 16.5083 4.97512 16.3108 4.87847C14.2477 3.83637 12.7349 4.17253 12.466 6.10545C12.3063 7.31143 11.4827 7.51313 10.6844 7.08452V7.08452Z" fill="url(#paint0_linear_1029_1517)"/>
<path d="M42.897 11.3251C43.771 11.0016 44.187 11.3461 44.2837 12.2328C44.3215 12.5563 44.4728 12.8631 44.5736 13.1782C45.0148 14.5313 45.3048 14.6531 46.536 14.0102C46.9183 13.4387 47.2335 12.7958 47.5949 12.1991C48.2336 11.1486 48.9479 10.1276 49.095 8.86695C49.2378 7.64417 48.8176 7.287 47.6957 7.74922C45.809 8.53079 44.2711 9.82501 42.897 11.3251V11.3251Z" fill="#37654B"/>
<path d="M44.8803 19.4386C45.208 19.01 47.2082 18.6487 48.3469 16.909C48.9604 15.972 49.2756 15.6442 49.7294 14.6231C49.9269 14.1819 50.1916 13.6441 49.7924 13.2701C49.6117 13.102 49.0361 12.9465 48.452 13.2449C47.7965 13.581 47.225 14.1525 46.851 14.308C45.7879 14.5265 45.2585 14.0012 45.0315 13.0222C44.9727 12.7701 44.8845 12.5221 44.8004 12.27C44.4391 11.1733 43.46 11.0766 43.2079 11.6187C43.086 11.8204 43.0818 12.1313 42.6994 12.0767C42.3549 12.0305 42.3002 11.791 42.2456 11.5347C42.149 11.1019 42.0901 10.6564 41.9599 10.232C41.7456 9.50929 41.2329 9.24457 40.4976 9.36643C39.8 9.48408 39.7874 10.0387 39.7454 10.5556C39.7118 10.9632 39.7622 11.3792 39.7286 11.7868C39.6698 12.4801 39.3336 12.9717 38.6151 13.1314C37.4637 12.7743 38.1781 12.6146 37.0771 12.0893C35.43 12.0137 35.0055 12.6482 35.4888 14.4593C36.0518 15.2366 36.8082 15.7829 37.6696 16.1905C38.2579 16.0182 38.4974 15.4677 38.884 15.0812C39.758 14.2071 39.9933 13.6567 41.7582 14.2408C43.4432 14.7996 44.5651 14.8458 44.8467 16.7199C44.9391 17.304 44.5273 18.926 44.8803 19.4386V19.4386Z" fill="url(#paint1_linear_1029_1517)"/>
<path d="M38.8126 14.1192C38.2327 12.0308 38.2285 7.11862 39.9051 7.06399C40.4388 7.15223 40.3799 6.60597 40.5438 6.29503C40.6111 6.0303 40.6405 5.75717 40.6363 5.47984C40.6279 5.1941 40.5774 4.92517 40.4178 4.69826C40.1614 4.47135 39.8631 4.43774 39.5564 4.45034C38.9807 4.46295 38.5731 4.84954 38.1781 5.26133C37.6192 5.92525 37.4091 6.34545 36.9553 7.03878C36.3502 6.16476 36.3334 5.4042 36.1023 4.49236C35.8712 3.57212 35.5434 3.14772 34.8501 4.02594C34.2324 4.81592 34.0055 4.3579 33.8542 3.65196C33.7492 3.16033 33.7366 2.63087 33.5937 2.15605C33.371 1.4249 32.9508 0.899646 32.186 1.0215C31.4717 1.13496 31.3372 1.71484 31.3624 2.42918C31.3792 2.85358 31.3666 3.28639 31.3162 3.70659C31.1565 5.03862 30.4926 5.68994 29.3287 5.49664C28.421 5.34537 27.4924 5.15628 26.715 4.50077C26.0175 4.04275 25.4544 4.19402 25.03 4.9798C24.967 5.09745 24.925 5.22351 24.8913 5.35798C24.8199 5.68994 24.8157 6.0219 24.8913 6.35806C25.7065 7.72371 26.6856 13.5981 27.6353 14.8503C28.2403 15.6529 28.5135 15.5647 28.7908 14.5436C28.8791 14.22 29.3077 14.1696 29.4169 13.8502C30.2699 11.3584 32.455 10.5727 34.0139 12.6022C34.3291 13.0098 34.5223 13.5645 35.0938 13.6149C35.9931 13.6443 36.8755 13.7746 37.7369 14.0813C38.0857 14.199 38.447 14.3881 38.8126 14.1192V14.1192Z" fill="url(#paint2_linear_1029_1517)"/>
<path d="M3.49052 23.737C4.80995 22.4638 2.27614 19.6905 3.59557 18.4173C4.05359 18.4383 7.02441 20.3922 7.43621 20.4426C11.4954 20.9301 16.4747 24.1656 19.8321 23.2706C22.845 22.4638 19.4245 21.4637 18.0631 20.5855C16.7016 19.7073 13.8023 18.9215 15.4032 17.8668C16.2898 17.5096 17.7774 17.4466 19.0169 17.6063C26.7108 18.6021 35.1863 18.8122 43.5483 19.1484C45.3257 19.472 44.9391 19.9174 44.687 20.3544C44.4265 20.6737 44.1618 20.9973 43.7122 21.304C43.0566 21.7242 42.0818 22.1192 41.7498 22.5688C41.6027 22.8672 41.6658 23.1613 41.8969 23.4597C42.4263 23.9219 42.8423 24.3883 42.9264 24.8673C42.9978 25.2833 42.9432 25.6951 42.6659 26.1069C42.2583 26.5944 41.6322 27.0608 40.8338 27.5188C39.1866 28.1071 38.2327 28.8382 35.2787 29.1576C33.0096 29.1744 31.665 29.603 29.9422 29.8719C19.7145 31.4561 11.0541 30.6115 9.7221 27.6701C8.89431 25.8254 7.45302 23.0857 3.49052 23.737V23.737Z" fill="#6D8B14"/>
<path d="M36.0645 13.935C36.4721 14.0946 36.8293 14.4014 37.2663 14.4518C38.1655 14.5484 38.8168 13.5316 39.7076 13.3971C40.859 13.2206 41.7666 14.54 42.9348 14.5821C43.4978 14.6031 44.0231 14.3173 44.5694 14.1787C45.1156 14.0442 45.8174 14.1282 46.0611 14.6367C46.4266 15.3888 45.4938 16.1242 45.3383 16.9478C45.166 17.8512 45.977 18.7042 45.893 19.6203C45.8468 20.1203 45.5358 20.5615 45.1829 20.9145C44.2836 21.8137 43.0062 22.3222 41.7372 22.2885C40.4682 22.2549 39.2202 21.6751 38.3756 20.7212C37.9218 20.2086 37.5394 19.5614 36.8965 19.3303C36.5141 19.1917 36.0897 19.2211 35.6947 19.1202C34.993 18.9353 34.4593 18.3303 34.1736 17.6621C33.9047 17.0318 33.455 15.6914 33.6567 15.0023C33.9257 14.0778 35.2325 13.603 36.0645 13.935V13.935Z" fill="url(#paint3_linear_1029_1517)"/>
<path d="M1.20886 15.3136C0.973543 16.5196 1.40215 17.9609 1.80554 17.7886C2.15431 17.6373 3.188 21.3771 3.73847 20.4737C3.86873 20.2594 5.74703 20.6418 6.38573 20.0451C6.88997 19.5703 6.19664 18.1878 6.20504 17.4693C6.21345 17.0322 9.89441 17.6415 9.28092 16.9398C8.86492 16.4608 4.07463 14.5279 4.07883 14.5279C4.93184 14.0278 4.48222 13.1034 4.75955 12.4184C4.36456 11.9352 3.96537 11.452 3.57038 10.9688C1.36433 11.1368 1.57443 11.7335 1.86437 12.9983C2.15851 14.2589 1.36853 14.5152 1.20886 15.3136V15.3136Z" fill="url(#paint4_linear_1029_1517)"/>
<path d="M9.10441 16.883C9.11701 16.7528 9.12542 16.6267 9.13802 16.4965C7.67993 15.135 6.07896 13.9248 4.76373 12.4121C3.88551 12.9037 4.63347 13.9248 4.08301 14.5215C5.75541 15.3073 7.42781 16.0931 9.10441 16.883V16.883Z" fill="url(#paint5_linear_1029_1517)"/>
<path d="M25.5637 8.57807C24.1813 8.32175 24.0846 9.92692 24.0846 11.0447C23.572 11.9481 23.7274 12.9103 23.8451 13.8642C23.9417 14.2424 24.1813 14.5239 24.4922 14.7382C25.7738 15.6206 26.6646 16.8518 27.5429 18.0998C29.6901 18.104 34.1064 20.0496 36.2578 20.0496C36.552 19.747 36.3797 19.4361 36.241 19.1503C34.9258 16.4905 36.6654 14.9021 38.5984 14.1415C39.0816 13.9524 39.7665 14.0953 39.9766 13.3936C39.7245 11.9733 38.9009 12.2506 37.3209 10.8976C35.7494 9.54874 34.7367 8.72094 32.871 8.94785C30.9465 9.17896 29.9086 10.5488 29.5094 12.8725C29.48 13.049 29.4632 13.2297 29.4212 13.5575C27.7194 12.112 26.9462 8.8344 25.5637 8.57807V8.57807Z" fill="url(#paint6_linear_1029_1517)"/>
<path d="M29.9379 28.8345C25.7947 29.6119 21.8742 27.3134 21.1221 22.4475C20.4876 18.3379 22.9499 14.4678 27.0973 13.6905C31.2447 12.9131 35.5265 15.4511 36.2913 19.5397C37.0561 23.6282 34.0853 28.0613 29.9379 28.8345V28.8345Z" fill="#A60500"/>
<path d="M29.8622 28.0291C26.0048 28.7518 22.3364 25.9911 21.6221 22.1841C20.9078 18.3813 23.3323 14.9272 27.1898 14.2045C31.0472 13.4817 34.7534 15.9819 35.4635 19.7848C36.1736 23.5876 33.7239 27.3064 29.8622 28.0291V28.0291Z" fill="#D90500"/>
<path d="M29.6837 27.5142C33.2809 26.8408 35.6587 23.4195 34.9947 19.8725C34.3307 16.3255 30.8763 13.996 27.2791 14.6694C23.682 15.3428 21.3041 18.7641 21.9681 22.3111C22.6321 25.858 26.0865 28.1876 29.6837 27.5142Z" fill="#FE5601"/>
<path d="M27.6647 15.4223C26.3747 15.6534 25.1519 16.2963 24.2779 17.246C23.7274 17.8427 23.3114 18.5318 24.0552 19.1411C24.6308 19.6117 25.4166 19.8596 26.1141 20.0781C26.6394 20.2462 27.1731 20.3933 27.7109 20.5109C27.7109 20.5109 26.1394 19.2545 26.7444 18.2881C27.3495 17.3216 28.2488 17.3006 28.6522 18.4099C29.0598 19.5193 28.8917 20.0865 28.8917 20.0865C28.9547 19.8806 29.4085 19.6159 29.5598 19.4562C29.917 19.0823 30.2867 18.7839 30.6901 18.4646C31.1103 18.1326 31.5179 17.725 31.6146 17.1998C31.7953 16.2375 30.917 15.7291 30.1355 15.5148C29.3371 15.2962 28.4883 15.2752 27.6647 15.4223V15.4223Z" fill="#A40400"/>
<path d="M33.7071 23.5246C33.7659 23.3565 33.8163 23.1843 33.8583 23.0078C34.1231 21.89 34.0348 20.7219 33.8541 19.5873C33.7617 18.9991 33.5474 18.3057 32.9717 18.1503C32.5179 18.0284 32.0641 18.3099 31.6943 18.5957C30.8749 19.2344 30.0639 19.9907 29.463 20.8395C30.0597 20.3185 31.2993 20.2807 31.7237 21.0538C31.9086 21.3858 31.8876 21.8228 31.6691 22.138C31.1018 22.9616 29.9673 22.4573 29.2823 22.1128C29.5177 23.0036 29.7572 23.8944 29.9925 24.7852C30.0933 25.1676 30.2194 25.5836 30.543 25.8063C30.9463 26.0837 31.501 25.9618 31.9338 25.7307C32.7826 25.2769 33.3835 24.4449 33.7071 23.5246V23.5246Z" fill="#A40400"/>
<path d="M23.824 24.1963C24.6728 26.4612 27.6268 27.4151 28.5806 26.8562C29.1479 26.5242 28.9798 25.3813 28.9252 24.856C28.837 24.003 28.6689 23.1458 28.4252 22.3264C28.5134 22.9231 28.152 23.5576 27.5932 23.7845C27.0931 23.9862 25.7821 23.7425 25.8241 23.0114C25.8367 22.8097 25.9838 22.6458 26.1309 22.5029C26.5763 22.0743 27.0763 21.6751 27.6184 21.3726L23.7651 19.8809C23.7651 19.8809 22.7567 21.3432 23.824 24.1963Z" fill="#A40400"/>
<path d="M29.0344 17.9074C29.0344 17.7225 29.0386 17.5208 29.1479 17.3696C29.2571 17.2183 29.5092 17.1595 29.6269 17.3023C29.7067 17.399 29.6899 17.5502 29.6185 17.6553C29.547 17.7603 29.4378 17.8318 29.3285 17.8948C29.2571 17.9368 29.1815 17.9747 29.1016 17.9704C29.0218 17.962 28.942 17.8822 28.9672 17.8066" fill="#FF7A42"/>
<path d="M28.8538 17.068C28.9462 16.9462 28.8832 16.7403 28.7403 16.6983C28.5848 16.652 28.4251 16.7949 28.3915 16.9546C28.3579 17.1143 28.4125 17.2739 28.463 17.4294C28.6563 17.3496 28.7907 17.1521 28.7949 16.9462" fill="#FF7A42"/>
<path d="M28.0134 17.0003C28.0218 16.8574 28.0302 16.7103 27.9714 16.5843C27.9126 16.4582 27.7613 16.3574 27.631 16.4078C27.4966 16.4582 27.4503 16.6347 27.4924 16.7692C27.5344 16.9036 27.6394 17.0087 27.7403 17.1095" fill="#FF7A42"/>
<path d="M27.2611 17.2225C27.1645 17.0838 27.1603 16.8989 27.1014 16.7435C27.0384 16.5838 26.8661 16.4367 26.7148 16.5166C26.5762 16.588 26.5762 16.8023 26.677 16.9199C26.7779 17.0376 26.9376 17.0838 27.0888 17.1216" fill="#FF7A42"/>
<path d="M26.509 17.4666C26.4711 17.3322 26.4291 17.1893 26.3283 17.0927C26.2274 16.996 26.0425 16.9708 25.9543 17.0759C25.8576 17.1893 25.9291 17.3784 26.0551 17.454C26.1812 17.5339 26.3367 17.5339 26.4879 17.5297" fill="#FF7A42"/>
<path d="M26.1057 18.0472C25.9124 17.8329 25.6225 17.7068 25.3325 17.711C25.2611 17.8749 25.3283 18.085 25.4796 18.1775C25.6309 18.2699 25.8494 18.2363 25.9628 18.0976" fill="#FF7A42"/>
<path d="M25.9376 18.697C25.8031 18.7054 25.6728 18.6508 25.5384 18.634C25.4039 18.6172 25.24 18.6676 25.2022 18.7979C25.156 18.9659 25.3787 19.1046 25.5426 19.0542C25.7064 19.0038 25.8157 18.8483 25.9081 18.7012" fill="#FF7A42"/>
<path d="M25.5888 21.7927C25.4207 21.8725 25.2358 21.9524 25.0552 21.9188C24.8745 21.8851 24.7106 21.6834 24.7904 21.5154C24.8451 21.4019 24.9879 21.3557 25.114 21.3725C25.24 21.3893 25.3493 21.4607 25.4543 21.5322C25.5216 21.5784 25.5888 21.6288 25.6182 21.7045C25.6476 21.7801 25.6056 21.8851 25.5258 21.8935" fill="#FF7A42"/>
<path d="M24.9039 22.3086C24.7569 22.2792 24.593 22.422 24.6182 22.5691C24.6434 22.7288 24.8409 22.8128 24.9964 22.775C25.1518 22.7372 25.2779 22.6195 25.3956 22.5061C25.2443 22.3674 25.0048 22.3296 24.8157 22.4094" fill="#FF7A42"/>
<path d="M25.2022 23.1035C25.0719 23.1539 24.9333 23.2086 24.8408 23.3178C24.7484 23.4271 24.7274 23.6036 24.8282 23.7044C24.929 23.801 25.1097 23.7716 25.2148 23.675C25.3198 23.5783 25.3703 23.4397 25.4123 23.3052" fill="#FF7A42"/>
<path d="M25.7233 23.6875C25.6393 23.8346 25.4754 23.9144 25.3577 24.0405C25.2401 24.1623 25.1813 24.385 25.3157 24.4901C25.4376 24.5867 25.6351 24.4901 25.6981 24.3472C25.7611 24.2043 25.7359 24.0405 25.7065 23.885" fill="#FF7A42"/>
<path d="M26.2696 24.2584C26.1646 24.3508 26.0511 24.4475 26.0091 24.582C25.9671 24.7164 26.0217 24.8929 26.1562 24.9265C26.299 24.9643 26.4377 24.8215 26.4545 24.6744C26.4713 24.5273 26.4041 24.3845 26.3368 24.25" fill="#FF7A42"/>
<path d="M26.9671 24.377C26.8579 24.6459 26.8663 24.9568 26.9923 25.2174C27.1688 25.2132 27.3327 25.0619 27.3537 24.8854C27.3747 24.7089 27.2486 24.5282 27.0764 24.482" fill="#FF7A42"/>
<path d="M27.6268 24.25C27.694 24.3677 27.6982 24.5105 27.7402 24.6408C27.7822 24.771 27.8999 24.8971 28.0302 24.8719C28.2024 24.8425 28.2319 24.582 28.1142 24.4559C27.9965 24.3256 27.8117 24.2962 27.6394 24.2752" fill="#FF7A42"/>
<path d="M30.2405 23.2629C30.3792 23.3847 30.5262 23.5234 30.5725 23.7041C30.6145 23.8848 30.4926 24.1159 30.3077 24.1075C30.1817 24.1033 30.0808 23.9898 30.0472 23.868C30.0136 23.7461 30.0346 23.6159 30.0598 23.494C30.0766 23.4142 30.0934 23.3301 30.1523 23.2755C30.2111 23.2209 30.3203 23.2125 30.3624 23.2839" fill="#FF7A42"/>
<path d="M30.9885 23.6837C31.018 23.8308 31.2154 23.9233 31.3415 23.8434C31.476 23.7552 31.476 23.5409 31.3793 23.4106C31.2827 23.2804 31.1272 23.2131 30.9759 23.1543C30.9087 23.3518 30.9675 23.5829 31.1188 23.7216" fill="#FF7A42"/>
<path d="M31.5977 23.0943C31.6986 23.1951 31.8036 23.3002 31.9381 23.338C32.0726 23.3758 32.2491 23.3296 32.2953 23.1951C32.3457 23.0607 32.2449 22.9094 32.1146 22.8548C31.9843 22.7959 31.8373 22.8085 31.6944 22.8211" fill="#FF7A42"/>
<path d="M31.9256 22.3843C32.0937 22.4054 32.2324 22.523 32.3921 22.5776C32.5517 22.6365 32.7786 22.6028 32.8207 22.4348C32.8585 22.2835 32.6946 22.1448 32.5391 22.1406C32.3836 22.1406 32.245 22.2289 32.1147 22.3171" fill="#FF7A42"/>
<path d="M32.2365 21.6531C32.3626 21.7161 32.4971 21.7749 32.6357 21.7623C32.7744 21.7497 32.9173 21.6279 32.8963 21.4892C32.8752 21.3421 32.6862 21.2707 32.5475 21.3127C32.4088 21.3547 32.3038 21.4766 32.2071 21.5858" fill="#FF7A42"/>
<path d="M32.0641 20.9689C32.3541 20.9647 32.6398 20.8302 32.8289 20.6117C32.7532 20.452 32.5515 20.3596 32.3835 20.4142C32.2154 20.4646 32.0977 20.6537 32.1271 20.8302" fill="#FF7A42"/>
<path d="M31.686 20.4137C31.77 20.3045 31.8961 20.2456 31.9969 20.1532C32.0978 20.0607 32.1692 19.9053 32.0936 19.7918C31.9969 19.6489 31.749 19.7204 31.6776 19.8801C31.6061 20.0355 31.6523 20.2204 31.7028 20.3885" fill="#FF7A42"/>
<path d="M26.2487 33.5504C26.6899 37.744 20.1978 38.8617 17.4749 37.2776C14.752 35.6934 13.7561 31.1048 16.3866 27.8062C19.1389 24.3606 25.8243 23.2344 27.3832 24.6001C30.4045 27.2432 25.5512 26.949 26.2487 33.5504Z" fill="#6D8B14"/>
<path d="M7.20933 16.2455C7.61693 16.4052 7.9741 16.7119 8.41111 16.7623C9.31034 16.859 9.96165 15.8421 10.8525 15.7076C12.0038 15.5312 12.9115 16.8506 14.0796 16.8926C14.6427 16.9136 15.1679 16.6279 15.7142 16.4892C16.2605 16.3506 16.9622 16.4388 17.2059 16.9472C17.5715 17.6994 16.6386 18.4347 16.4832 19.2583C16.3109 20.1618 17.1219 21.0148 17.0378 21.9308C16.9916 22.4309 16.6807 22.8721 16.3277 23.225C15.4285 24.1243 14.151 24.6327 12.882 24.5991C11.613 24.5655 10.365 23.9856 9.52044 23.0317C9.06662 22.5191 8.68424 21.872 8.04133 21.6409C7.65894 21.5022 7.23454 21.5316 6.83955 21.4308C6.13782 21.2459 5.60416 20.6408 5.31843 19.9727C5.0495 19.3424 4.59988 18.0019 4.80158 17.3128C5.07471 16.3884 6.37733 15.9135 7.20933 16.2455V16.2455Z" fill="url(#paint7_linear_1029_1517)"/>
<path d="M46.204 25.4781C45.2796 25.3269 44.5989 25.7471 43.8803 25.995C43.2248 26.2177 42.9307 26.1126 43.1408 25.5033C43.5105 24.436 44.019 24.0999 44.3804 23.0326C44.5358 22.5703 44.7585 21.9989 44.2249 21.7299C43.7164 21.4736 43.1366 21.8224 42.6197 22.0871C41.939 22.4317 41.4011 22.8729 40.9179 23.3897C40.5145 23.8225 39.6405 24.2932 38.8001 24.3226C38.0984 24.3478 37.674 23.7217 37.4765 23.3183C37.363 23.0872 37.2159 22.8729 37.0773 22.6544C36.4638 21.6879 36.2957 21.6627 35.0855 22.3728C34.9763 22.5913 35.0267 22.8855 34.5645 22.9191C34.1485 22.9485 34.0476 22.73 33.9342 22.4989C33.7451 22.1039 33.598 21.6963 33.3753 21.3181C32.9971 20.6752 32.35 20.5324 31.5054 20.8055C30.707 21.066 30.7869 21.5997 30.8247 22.0997C30.8541 22.4947 30.9844 22.8813 31.0138 23.2763C31.0642 23.9486 30.8499 24.6335 29.9339 24.7932C29.2909 24.873 29.3288 24.394 27.9421 24.1251C27.2866 23.999 26.5848 23.999 26.1352 24.7008C25.7865 25.247 26.3075 26.2219 26.4798 26.5454C26.7739 27.0917 26.8412 27.9237 26.8244 28.4321C26.7823 29.6843 26.2487 30.8777 27.0177 31.0248C27.6816 30.739 30.0515 30.9828 30.4465 30.5331C31.8037 28.97 31.1987 30.4785 33.3753 30.6592C35.4595 30.8357 36.136 28.4111 36.7915 30.1382C36.9974 30.676 37.884 29.0582 38.3883 29.4742C39.4556 27.8481 41.8087 28.0455 43.2668 27.4951" fill="url(#paint8_linear_1029_1517)"/>
<path d="M9.9196 28.0448C8.77245 26.6119 3.96536 23.2545 3.56196 22.3217C3.38548 21.9183 3.14176 21.4224 3.68382 21.2039C4.20067 20.998 4.80576 21.3174 5.34782 21.5611C6.05796 21.8804 6.63783 22.267 7.14207 22.7377C7.44042 23.015 7.6169 23.4268 8.27242 23.4268C9.53722 23.8386 10.26 23.5276 10.676 22.7797C10.7852 22.5864 10.9323 22.4015 11.0668 22.2208C11.6676 21.4056 11.8399 21.393 13.1047 22.0401C13.2266 22.2334 13.1804 22.4855 13.6552 22.5276C14.0838 22.5654 14.1846 22.3805 14.2897 22.183C14.4704 21.851 14.609 21.5023 14.8275 21.1829C15.1973 20.6409 15.8612 20.5358 16.7353 20.7963C17.5673 21.0442 17.5 21.5023 17.479 21.9309C17.4622 22.2712 17.3403 22.599 17.3193 22.9394C17.2857 23.5192 17.6261 23.9899 18.4791 24.2798C19.933 24.242 19.0884 23.9562 20.5087 23.7671C22.5256 24.0655 22.95 24.679 22.097 26.0488C21.2944 26.5615 22.7777 29.5953 21.6684 29.7382C20.9793 29.4693 18.5463 29.6079 18.1261 29.2087C16.6806 27.8221 17.353 29.1373 15.1175 29.2256C12.9787 29.3096 12.2097 27.2044 11.5836 28.6709C11.3903 29.1247 10.428 27.7044 9.9196 28.0448V28.0448Z" fill="url(#paint9_linear_1029_1517)"/>
<path d="M17.1176 21.7762C16.1301 22.7048 17.5126 24.6377 19.5128 25.0831C19.9876 25.1882 21.1179 25.0327 22.2231 24.7596C23.2694 24.4991 24.4963 24.5957 24.5762 24.6587C24.6392 24.705 26.1309 23.7259 25.6645 23.4402C25.383 23.2679 23.7694 23.7973 22.8029 23.5284C21.8743 23.2721 21.1305 22.356 20.2271 21.9022C18.748 21.1585 17.5084 21.4106 17.1176 21.7762V21.7762Z" fill="#6E8C16"/>
<path d="M24.8661 30.306C11.0541 30.0917 2.46518 23.276 2.46518 18.4437C2.46518 30.9741 12.6214 39.5966 25.1518 39.5966C37.6822 39.5966 47.5653 30.7472 47.5653 18.2168C47.5653 23.0449 40.2622 30.5455 24.8661 30.306V30.306Z" fill="url(#paint10_radial_1029_1517)"/>
<path d="M1.73406 16.8841C1.73406 16.8841 1.30126 16.7119 0.599522 17.6195C-0.375344 18.8843 0.0196443 20.3046 0.515481 20.4895C1.01132 20.6786 2.69632 19.6491 3.49891 20.6029C4.30149 21.5568 3.97373 20.2752 4.18804 19.9684C4.40234 19.6617 4.3225 18.4137 4.3225 18.4137L2.76776 17.006L1.73406 16.8841Z" fill="url(#paint11_linear_1029_1517)"/>
<path opacity="0.2" d="M24.3114 2.53379C24.3787 2.53379 24.4459 2.5338 24.5089 2.538C26.4839 2.62204 28.4294 3.97088 29.3538 5.8954C29.5051 6.21055 29.7825 6.45007 30.1186 6.55092C30.2363 6.58873 30.3623 6.60554 30.4842 6.60554C30.7069 6.60554 30.9254 6.54671 31.1229 6.43326C31.6818 6.1055 32.3877 5.39536 32.5684 3.89104C32.5768 3.83642 32.581 3.78179 32.5852 3.72296C32.5978 3.7986 32.6104 3.87424 32.6272 3.94987C32.8793 5.13064 33.4424 5.72732 34.308 5.72732C34.5854 5.72732 34.8333 5.65169 35.0392 5.54243C35.1778 6.20635 35.3543 6.95431 35.9216 7.7695C36.1569 8.10566 36.5393 8.30736 36.9511 8.30736H36.9679C37.1948 8.30315 37.4175 8.24012 37.6066 8.12247C37.6234 8.58889 37.9007 9.0301 38.3546 9.2318C39.9975 9.95454 41.4304 10.8033 42.6196 11.7488C42.8507 11.9337 43.128 12.0219 43.4012 12.0219C43.7289 12.0219 44.0525 11.8959 44.2962 11.648C45.4433 10.484 46.5821 9.6478 47.7629 9.09733C47.5906 9.78226 47.1914 10.4252 46.7376 11.1563C46.6619 11.2782 46.5863 11.4042 46.5107 11.5261C46.351 11.7908 46.1997 12.0555 46.0568 12.3119C45.914 12.564 45.7795 12.8077 45.6366 13.0346C45.4055 13.1985 45.2374 13.4338 45.1576 13.7027C45.0568 14.0389 45.103 14.3961 45.2795 14.6986L45.3299 14.7826C45.3551 14.8289 45.3845 14.8709 45.4097 14.9171C45.6324 15.3205 46.0526 15.5684 46.5107 15.5684C46.5359 15.5684 46.5653 15.5684 46.5905 15.5642C46.7712 15.5516 46.9309 15.5306 47.0863 15.5012C47.162 15.4844 47.2376 15.4634 47.309 15.434C47.5822 15.3205 47.8343 15.1482 48.0948 14.9549C47.9856 15.1272 47.8679 15.2995 47.725 15.5012C47.5906 15.6945 47.4435 15.9088 47.2754 16.1651C47.1157 16.4088 46.9182 16.6315 46.6703 16.8458C46.3846 17.0938 46.2249 17.4593 46.2375 17.8375C46.2375 17.8795 46.2417 17.9258 46.2459 17.9678C46.2459 17.993 46.2501 18.014 46.2501 18.0392C46.2501 18.7325 46.1241 19.4343 45.8804 20.1234C45.7333 20.5394 45.8131 20.9848 46.0652 21.3084C45.4728 25.7877 43.4684 29.6746 40.1866 32.6748C36.2956 36.2255 30.8498 38.1836 24.8451 38.1836C19.3195 38.1836 14.1636 36.3726 10.3272 33.0908C6.46551 29.7838 4.11659 25.1028 3.7216 19.9175C3.69638 19.5771 3.53251 19.2662 3.27198 19.0477C3.04507 18.8586 2.75934 18.7577 2.4694 18.7577C2.42318 18.7577 2.38116 18.762 2.33493 18.7662C1.98197 18.804 1.6332 18.8964 1.31385 18.9889C1.35166 18.7998 1.43991 18.5729 1.62479 18.3333C1.80968 18.0938 1.91473 18.0308 1.91894 18.0266C2.39376 17.7451 2.63328 17.1904 2.50301 16.6525C2.41897 16.2954 2.40637 15.8584 2.4736 15.518C2.482 15.4634 2.56184 15.3457 2.63748 15.2281C2.93162 14.77 3.42746 14.0011 3.12491 12.6858L3.0997 12.5766C3.07869 12.4884 3.05348 12.3875 3.03667 12.2909C3.15012 12.2698 3.3014 12.2488 3.49889 12.2278C3.89388 12.19 4.25105 11.9631 4.45275 11.6227C4.65864 11.2824 4.68806 10.8622 4.53258 10.4924C4.49056 10.3958 4.44854 10.2865 4.41073 10.1815C4.36871 10.0554 4.32248 9.92933 4.27206 9.79907C4.21743 9.6562 4.1418 9.4503 4.09558 9.29063C4.22164 9.35786 4.36871 9.4419 4.47376 9.50493C4.59982 9.58056 4.72588 9.6562 4.84353 9.71923C5.4024 10.0218 5.95286 10.3663 6.52854 10.7739C6.74704 10.9294 6.99916 11.005 7.25549 11.005C7.495 11.005 7.73872 10.9378 7.94882 10.7949C8.38162 10.5092 8.59593 9.98816 8.48247 9.47971C8.41524 9.16456 8.36482 8.89984 8.327 8.65612C8.15051 7.50057 8.22615 6.82825 8.64215 6.27778C9.35229 6.80724 9.9952 7.41233 10.5961 8.11406C10.8356 8.3956 11.1844 8.55107 11.5499 8.55107C11.592 8.55107 11.634 8.54687 11.6802 8.54267C12.5374 8.45442 13.5291 7.81992 13.7392 6.303C13.84 5.59286 14.0711 5.58866 14.3149 5.58866H14.3191C14.5334 5.58866 15.004 5.64748 15.773 6.02987C15.8864 6.08869 16.4831 6.44587 17.0252 6.88287C17.042 6.89968 17.0588 6.91229 17.0714 6.92489C17.3025 7.12239 17.5924 7.22744 17.8866 7.22744C17.9622 7.22744 18.0336 7.21903 18.1093 7.20643L18.2101 7.18962C18.2816 7.17702 18.353 7.16441 18.4244 7.1518C18.8824 7.07197 19.2564 6.75261 19.4035 6.3114C20.1641 4.05072 22.1306 2.53379 24.3114 2.53379M39.3546 5.8912V5.8996C39.3504 5.8996 39.3462 5.90381 39.342 5.90381C39.342 5.8996 39.3462 5.8954 39.3546 5.8912ZM32.4087 1.05469C32.3415 1.05469 32.27 1.05889 32.1944 1.0715C31.4801 1.18495 31.3456 1.76063 31.3708 2.46656C31.3876 2.88676 31.375 3.31537 31.3246 3.73137C31.2279 4.52555 30.9464 5.07181 30.4884 5.34494C29.4001 3.08426 27.0932 1.38245 24.5636 1.2774C24.4795 1.27319 24.3955 1.27319 24.3114 1.27319C21.4961 1.27319 19.1009 3.26915 18.2185 5.90801C18.1093 5.92482 18.0042 5.94583 17.895 5.96684C17.8782 5.95423 17.8614 5.93322 17.8445 5.92482C17.2311 5.42478 16.5419 5.00458 16.3444 4.90373C15.5881 4.52555 14.9031 4.32805 14.3275 4.32805C13.34 4.32805 12.6719 4.90793 12.5038 6.12231C12.3987 6.88708 12.0206 7.24005 11.5583 7.28627C10.8272 6.43326 9.98259 5.64328 8.9573 4.94155C8.84805 4.86591 8.70938 4.82809 8.57492 4.82809C8.41104 4.82809 8.25136 4.88272 8.13791 4.98357C6.87731 6.11811 6.88571 7.46275 7.09581 8.83681C7.14203 9.13935 7.20086 9.4419 7.26809 9.74024C6.68822 9.32844 6.08733 8.94606 5.45703 8.60149C4.9822 8.34517 4.44014 7.92917 3.90228 7.92917C3.67117 7.92917 3.44426 8.00481 3.22156 8.1981C2.45679 8.86622 2.96944 9.78646 3.23837 10.5722C3.28459 10.7067 3.33501 10.837 3.38964 10.9672C1.4357 11.1563 1.6374 11.753 1.91473 12.959C2.20467 14.2154 1.41469 14.4675 1.25922 15.2659C1.14577 15.8374 1.18779 16.4593 1.30124 16.9383C1.12476 17.0433 0.906251 17.2282 0.649929 17.556C-0.320735 18.8124 0.0700514 20.22 0.565888 20.4091C0.599504 20.4217 0.637323 20.4259 0.687747 20.4259C1.06593 20.4259 1.86851 20.073 2.48621 20.0057C3.36863 31.5193 12.924 39.4358 24.8619 39.4358C37.8167 39.4358 47.5275 30.8721 47.5275 18.43C47.5275 19.0981 47.3763 19.8125 47.0821 20.5436C47.3721 19.7326 47.5275 18.8964 47.5275 18.035C47.5275 17.951 47.5191 17.8711 47.5149 17.7871C47.8133 17.5266 48.099 17.2198 48.3469 16.85C48.9562 15.9214 49.2756 15.5936 49.7294 14.581C49.9269 14.1397 50.1916 13.6061 49.7924 13.2363C49.6874 13.1397 49.4437 13.043 49.1411 13.043C48.931 13.043 48.6915 13.0892 48.452 13.2111C47.7965 13.5431 47.225 14.1103 46.851 14.2658C46.7376 14.291 46.6283 14.2994 46.5275 14.3078C46.4812 14.2238 46.4266 14.1355 46.3762 14.0515C46.4308 14.0263 46.4812 14.0011 46.5359 13.9717C46.9182 13.4044 47.2292 12.7657 47.5948 12.1732C48.2335 11.1311 48.9478 10.1184 49.0949 8.86622C49.1957 7.9922 49.0108 7.5636 48.4772 7.5636C48.2713 7.5636 48.0108 7.62663 47.6956 7.75689C46.04 8.43342 44.6534 9.50493 43.4138 10.7613C42.1406 9.74864 40.611 8.84101 38.8714 8.07624C39.1025 7.47536 39.4387 7.08457 39.9051 7.07196C39.9429 7.08037 39.9807 7.08037 40.0143 7.08037C40.4303 7.08037 40.3925 6.59294 40.5438 6.3072C40.611 6.04247 40.6404 5.77354 40.6362 5.49621C40.6278 5.21468 40.5774 4.94575 40.4177 4.71884C40.1908 4.51714 39.9303 4.47092 39.6572 4.47092H39.5563C38.9807 4.48353 38.5731 4.86591 38.1781 5.27771C37.6192 5.93742 37.4091 6.35342 36.9553 7.04255C36.3502 6.17273 36.3334 5.41637 36.1023 4.51294C35.9594 3.94987 35.7787 3.57169 35.5014 3.57169C35.3291 3.57169 35.119 3.71456 34.8543 4.05072C34.6232 4.34066 34.4467 4.46252 34.3122 4.46252C34.0811 4.46252 33.9551 4.11795 33.8626 3.67674C33.7576 3.18511 33.7449 2.66406 33.6021 2.19343C33.4004 1.54632 33.039 1.05469 32.4087 1.05469Z" fill="#424242"/>
<defs>
<linearGradient id="paint0_linear_1029_1517" x1="10.6835" y1="12.5955" x2="25.0804" y2="12.5955" gradientUnits="userSpaceOnUse">
<stop offset="0.0031888" stop-color="#2E7D32"/>
<stop offset="0.327" stop-color="#318235"/>
<stop offset="0.7217" stop-color="#3A913E"/>
<stop offset="0.9988" stop-color="#43A047"/>
</linearGradient>
<linearGradient id="paint1_linear_1029_1517" x1="42.6532" y1="15.2627" x2="42.6532" y2="31.2547" gradientUnits="userSpaceOnUse">
<stop stop-color="#7CB342"/>
<stop offset="0.6322" stop-color="#8FC257"/>
<stop offset="0.9853" stop-color="#9CCC65"/>
</linearGradient>
<linearGradient id="paint2_linear_1029_1517" x1="24.8405" y1="8.19349" x2="40.6405" y2="8.19349" gradientUnits="userSpaceOnUse">
<stop offset="0.0031888" stop-color="#2E7D32"/>
<stop offset="0.327" stop-color="#318235"/>
<stop offset="0.7217" stop-color="#3A913E"/>
<stop offset="0.9988" stop-color="#43A047"/>
</linearGradient>
<linearGradient id="paint3_linear_1029_1517" x1="39.8799" y1="15.2935" x2="40.7203" y2="20.7561" gradientUnits="userSpaceOnUse">
<stop offset="0.0031888" stop-color="#2E7D32"/>
<stop offset="0.327" stop-color="#318235"/>
<stop offset="0.7217" stop-color="#3A913E"/>
<stop offset="0.9988" stop-color="#43A047"/>
</linearGradient>
<linearGradient id="paint4_linear_1029_1517" x1="1.14196" y1="15.7889" x2="9.35109" y2="15.7889" gradientUnits="userSpaceOnUse">
<stop stop-color="#7CB342"/>
<stop offset="0.6322" stop-color="#8FC257"/>
<stop offset="0.9853" stop-color="#9CCC65"/>
</linearGradient>
<linearGradient id="paint5_linear_1029_1517" x1="6.60715" y1="15.2619" x2="6.60715" y2="31.2539" gradientUnits="userSpaceOnUse">
<stop stop-color="#7CB342"/>
<stop offset="0.6322" stop-color="#8FC257"/>
<stop offset="0.9853" stop-color="#9CCC65"/>
</linearGradient>
<linearGradient id="paint6_linear_1029_1517" x1="31.8508" y1="15.2643" x2="31.8508" y2="31.2563" gradientUnits="userSpaceOnUse">
<stop stop-color="#7CB342"/>
<stop offset="0.6322" stop-color="#8FC257"/>
<stop offset="0.9853" stop-color="#9CCC65"/>
</linearGradient>
<linearGradient id="paint7_linear_1029_1517" x1="11.0256" y1="17.604" x2="11.866" y2="23.0666" gradientUnits="userSpaceOnUse">
<stop offset="0.0147" stop-color="#9CCC65"/>
<stop offset="0.3678" stop-color="#8FC257"/>
<stop offset="1" stop-color="#7CB342"/>
</linearGradient>
<linearGradient id="paint8_linear_1029_1517" x1="36.1072" y1="15.4789" x2="36.104" y2="30.9632" gradientUnits="userSpaceOnUse">
<stop stop-color="#7CB342"/>
<stop offset="0.6322" stop-color="#8FC257"/>
<stop offset="0.9853" stop-color="#9CCC65"/>
</linearGradient>
<linearGradient id="paint9_linear_1029_1517" x1="12.9303" y1="15.2631" x2="12.9303" y2="31.2551" gradientUnits="userSpaceOnUse">
<stop stop-color="#7CB342"/>
<stop offset="0.6322" stop-color="#8FC257"/>
<stop offset="0.9853" stop-color="#9CCC65"/>
</linearGradient>
<radialGradient id="paint10_radial_1029_1517" cx="0" cy="0" r="1" gradientUnits="userSpaceOnUse" gradientTransform="translate(25.0132 28.9067) scale(17.6463)">
<stop stop-color="white"/>
<stop offset="0.2581" stop-color="#F9F9F9"/>
<stop offset="0.6037" stop-color="#E8E8E8"/>
<stop offset="0.9977" stop-color="#CCCCCC"/>
<stop offset="1" stop-color="#CCCCCC"/>
</radialGradient>
<linearGradient id="paint11_linear_1029_1517" x1="0.000693276" y1="18.9112" x2="4.33721" y2="18.9112" gradientUnits="userSpaceOnUse">
<stop stop-color="#7CB342"/>
<stop offset="0.6322" stop-color="#8FC257"/>
<stop offset="0.9853" stop-color="#9CCC65"/>
</linearGradient>
</defs>
</svg>
