<svg width="50" height="46" viewBox="0 0 50 46" fill="none" xmlns="http://www.w3.org/2000/svg">
<path d="M37.4838 0C28.3545 0 25.0003 9.32512 25.0003 9.32512C25.0003 9.32512 21.692 0 12.496 0C5.58759 0 -2.28751 5.47507 0.620861 17.9211C3.52923 30.3671 25.0212 45.8714 25.0212 45.8714C25.0212 45.8714 46.4339 30.3671 49.3465 17.9211C52.2549 5.47507 44.9464 0 37.4838 0V0Z" fill="#7CB342"/>
<path d="M11.0877 0.929178C18.2545 0.929178 21.8128 8.63344 22.9629 11.7543C23.1254 12.2002 23.7462 12.2127 23.9337 11.7793L24.9837 9.32929C23.5045 4.60006 19.4378 0 12.4961 0C9.62102 0 6.58348 0.950012 4.22095 2.9542C6.30847 1.58335 8.75434 0.929178 11.0877 0.929178V0.929178Z" fill="#689F38"/>
<path d="M37.4839 0C35.2797 0 33.413 0.641675 31.8463 1.60419C32.9463 1.17918 34.163 0.929178 35.513 0.929178C42.2673 0.929178 48.3132 6.05008 45.584 17.8877C43.2423 28.0504 29.5588 40.3797 25.3796 45.0839C25.1129 45.3839 25.0212 45.8673 25.0212 45.8673C25.0212 45.8673 46.434 30.3629 49.3465 17.9169C52.2549 5.47507 44.3882 0 37.4839 0V0Z" fill="#689F38"/>
<path d="M5.41675 6.60525C6.97927 4.65522 9.77098 3.0427 12.1377 4.90106C13.4169 5.90524 12.8585 7.9636 11.7127 8.83028C10.046 10.097 8.59596 10.8595 7.57928 12.8428C6.97094 14.0345 6.60427 15.3387 6.41677 16.6679C6.34177 17.1929 5.65426 17.3221 5.39592 16.8595C3.63756 13.7428 3.13756 9.45112 5.41675 6.60525V6.60525Z" fill="#AED581"/>
<path d="M30.4711 10.7043C29.7378 10.7043 29.2211 9.99593 29.4878 9.31259C29.9836 8.05424 30.6253 6.83755 31.3962 5.75421C32.5378 4.15419 34.7087 3.22084 36.0837 4.19169C37.4921 5.18337 37.3087 7.16672 36.3212 8.12507C34.1962 10.1793 31.5253 10.7043 30.4711 10.7043Z" fill="#AED581"/>
</svg>
