<svg width="50" height="50" viewBox="0 0 50 50" fill="none" xmlns="http://www.w3.org/2000/svg">
<path d="M23.4705 23.1538C23.4705 23.1538 21.8561 21.3166 20.2123 22.0565C18.0135 23.0445 19.5186 25.5123 16.5799 26.5298C13.3721 27.6397 11.0976 29.7544 12.1949 32.3231C13.3721 35.0769 18.0682 35.2324 18.291 42.2997C18.3961 45.684 20.8135 45.5999 21.8814 44.4858C23.7564 42.5309 23.5714 36.4769 25.5096 34.3201C27.4477 32.1634 32.2531 32.7141 33.9936 28.6949C33.9936 28.6949 31.0086 31.6925 27.2165 28.737C25.4213 27.3328 25.4423 24.9952 25.4423 24.9952L23.4705 23.1538Z" fill="#FFFDE7"/>
<path d="M27.1784 18.7231C27.1784 18.7231 27.376 18.9249 26.8043 18.433C25.585 17.3862 23.0751 20.7453 21.1875 18.8703C19.4343 17.1255 21.6667 14.0943 23.5334 12.2739C24.8871 10.958 23.9076 9.70093 22.8061 9.764C21.57 9.83547 18.4211 10.5292 16.3064 13.6697C13.0944 18.4372 14.6163 20.9681 11.2698 23.5201C7.92747 26.0636 0.540711 26.9633 0.0320048 33.4209C-0.258084 37.1248 1.46143 39.2353 3.66442 41.9428C5.19054 43.8179 8.85239 47.0593 11.5809 48.4215C14.3094 49.7836 17.3322 50.5404 20.1238 48.6779C26.2998 44.562 25.1941 39.8828 26.2367 37.1753C27.4349 34.0726 31.2102 35.0732 34.2583 32.1639C36.2721 30.2426 36.4487 28.5861 36.3099 27.2198C36.2132 26.2402 35.8391 25.8492 35.3261 25.6096C34.8805 25.3994 34.1279 25.6894 33.7496 26.4588C32.791 28.4054 31.2523 29.5447 29.2175 27.9387C27.5736 26.6396 28.8979 24.0877 28.8979 24.0877L27.1784 18.7231Z" fill="url(#paint0_radial_1029_2075)"/>
<path d="M22.5581 22.4686C22.2218 22.2164 20.4308 21.077 18.8752 22.5107C17.1978 24.0536 18.5641 26.1599 15.9113 26.5677C12.5564 27.0848 10.5636 29.3214 11.6609 31.8902C12.838 34.6439 18.068 35.2283 18.2909 42.2956C18.396 45.6799 20.7629 45.5412 21.8812 44.4817C24.471 42.0307 22.9743 36.6157 25.5095 34.316C27.6956 32.3316 31.0127 33.4163 32.6019 30.6374C32.8836 30.1455 32.9004 29.7166 32.2277 29.9941C30.9875 30.5112 29.4404 30.7719 27.7545 29.1196C26.3755 27.7659 26.7875 26.1389 26.7875 26.1389C26.7875 26.1389 22.8776 22.7083 22.5581 22.4686V22.4686Z" fill="#FFFDE7"/>
<path d="M20.8343 43.4932C21.4473 43.4932 21.9442 42.9963 21.9442 42.3833C21.9442 41.7704 21.4473 41.2734 20.8343 41.2734C20.2213 41.2734 19.7244 41.7704 19.7244 42.3833C19.7244 42.9963 20.2213 43.4932 20.8343 43.4932Z" fill="#424242"/>
<path d="M22.2525 39.2939C22.7881 38.7235 22.7653 37.832 22.2017 37.3027C21.638 36.7735 20.7469 36.8069 20.2113 37.3773C19.6757 37.9477 19.6984 38.8392 20.2621 39.3685C20.8257 39.8977 21.7168 39.8643 22.2525 39.2939Z" fill="#424242"/>
<path d="M44.2012 6.72845L42.3766 5.072L40.573 3.39453L22.1082 22.0401C21.919 22.2251 21.9905 22.5866 22.268 22.8515L24.2776 24.7686L26.3586 26.61C26.6445 26.8623 27.0145 26.9043 27.1784 26.6983L44.2012 6.72845V6.72845Z" fill="url(#paint1_linear_1029_2075)"/>
<path d="M38.5215 5.8369C38.904 6.18585 40.7245 7.85491 41.5022 8.56962C41.6578 8.71256 41.9605 8.99004 41.9605 8.99004C41.9605 8.99004 44.6385 9.61226 45.5088 7.37563L47.0475 3.4279C47.0475 3.4279 47.4638 3.81469 48.1532 3.87355C49.2085 3.96604 50.2848 2.71319 49.9316 1.58227C49.4902 0.169661 48.8049 -0.402108 46.2403 0.29999C45.3196 0.552242 40.489 1.86815 40.489 1.86815C37.8698 2.70058 38.0632 5.42069 38.5215 5.8369V5.8369Z" fill="url(#paint2_linear_1029_2075)"/>
<path d="M7.28845 35.1183C7.16653 35.2486 7.1371 35.4168 7.22118 35.4967L14.9232 42.7279C15.0073 42.8077 15.1755 42.7657 15.2974 42.6354L16.71 41.1345C16.8319 41.0041 16.8614 40.836 16.7773 40.7561L9.07523 33.5249C8.99114 33.445 8.82297 33.4871 8.70105 33.6174L7.28845 35.1183Z" fill="#424242"/>
<defs>
<radialGradient id="paint0_radial_1029_2075" cx="0" cy="0" r="1" gradientUnits="userSpaceOnUse" gradientTransform="translate(18.2892 30.6637) rotate(-1.80512) scale(19.105 19.105)">
<stop stop-color="#FF1744"/>
<stop offset="0.2555" stop-color="#FD1641"/>
<stop offset="0.4254" stop-color="#F81338"/>
<stop offset="0.5703" stop-color="#EF0E29"/>
<stop offset="0.7004" stop-color="#E10714"/>
<stop offset="0.7931" stop-color="#D50000"/>
<stop offset="1" stop-color="#D50000"/>
</radialGradient>
<linearGradient id="paint1_linear_1029_2075" x1="40.0581" y1="8.02286" x2="24.5946" y2="24.5499" gradientUnits="userSpaceOnUse">
<stop stop-color="#6D6C6B"/>
<stop offset="1" stop-color="#504F4F"/>
</linearGradient>
<linearGradient id="paint2_linear_1029_2075" x1="47.0748" y1="-0.0195347" x2="39.061" y2="8.70163" gradientUnits="userSpaceOnUse">
<stop stop-color="#FF1744"/>
<stop offset="0.2555" stop-color="#FD1641"/>
<stop offset="0.4254" stop-color="#F81338"/>
<stop offset="0.5703" stop-color="#EF0E29"/>
<stop offset="0.7004" stop-color="#E10714"/>
<stop offset="0.7931" stop-color="#D50000"/>
<stop offset="1" stop-color="#D50000"/>
</linearGradient>
</defs>
</svg>
