<svg width="50" height="44" viewBox="0 0 50 44" fill="none" xmlns="http://www.w3.org/2000/svg">
<path d="M5.05679 33.5286C5.05679 33.5286 5.72763 43.587 26.2171 43.4379C46.7066 43.2888 47.0047 34.0504 47.3029 32.4851C47.601 30.9198 39.6297 27.7892 24.8754 28.4601C10.1212 29.1309 4.24516 29.3504 5.05679 33.5286V33.5286Z" fill="url(#paint0_linear_1029_1049)"/>
<path d="M3.49136 25.1972C3.49136 25.1972 2.29876 26.6879 2.44784 27.7066C2.59691 28.7253 2.00061 28.1787 2.44784 29.5907C2.89506 31.0028 2.52237 31.7896 4.23673 32.4149C5.95109 33.0401 5.13118 33.5122 6.99461 34.063C8.85804 34.6137 9.9761 34.8456 11.3178 35.5537C12.6594 36.2618 13.1812 36.6511 14.7465 36.5724C16.3118 36.4937 18.1752 36.6511 18.1752 36.6511L21.0822 37.1231C21.0822 37.1231 21.5294 37.2805 23.6164 37.4378C25.7035 37.5952 26.4488 36.8871 27.4924 36.8084C28.5359 36.7297 30.1012 37.2018 30.9956 36.9658C31.8901 36.7297 33.9026 35.9471 33.9026 35.9471C33.9026 35.9471 35.766 34.6137 36.8095 34.6924C37.8531 34.7711 39.5674 34.3777 40.3873 33.9098C41.2072 33.4377 43.0707 33.2803 43.0707 33.2803C43.0707 33.2803 44.3378 32.7296 45.5304 32.1043C46.723 31.4749 47.3193 31.4749 47.8411 31.0856C48.3628 30.6922 48.5906 30.6508 49.1082 29.6735C49.543 28.8454 49.4809 27.7107 49.1082 26.5347C48.7355 25.3587 42.8471 22.2985 42.8471 22.2985L7.90148 20.6504L3.49136 25.1972V25.1972Z" fill="url(#paint1_radial_1029_1049)"/>
<path d="M5.43774 22.8541C5.43774 22.8541 2.65088 24.2331 3.02356 24.9784C3.39625 25.7238 3.624 25.6327 3.624 25.6327C3.624 25.6327 7.36743 26.4195 14.2953 28.1835C21.2231 29.9476 24.6767 31.0988 26.4117 32.3825C28.5733 33.985 29.124 34.8256 30.5403 34.5565C31.9565 34.2873 33 32.3866 35.7579 30.3534C38.5157 28.3202 39.5717 28.0386 43.3193 27.1814C46.8598 26.3698 48.6487 26.1959 48.7978 25.2476C48.9468 24.2993 48.4251 22.0839 47.7542 21.7443C47.0834 21.4048 14.0013 21.5414 14.0013 21.5414C7.06928 21.2681 5.43774 22.8541 5.43774 22.8541V22.8541Z" fill="url(#paint2_linear_1029_1049)"/>
<path d="M8.23277 19.5287L7.84766 21.8146L8.41497 24.4979C8.51021 24.9534 8.78765 25.3509 9.18105 25.5911C10.6138 26.4731 14.6844 28.3324 23.281 28.0426C34.4989 27.6657 38.4783 26.0425 41.9775 24.5103C44.7685 23.2887 45.2612 19.2596 45.3482 17.6777C34.3415 24.6097 19.7488 24.9244 8.23277 19.5287V19.5287Z" fill="url(#paint3_linear_1029_1049)"/>
<path d="M43.5466 18.7417C43.5549 18.3732 43.5466 18.1495 43.5466 18.1495L9.59899 17.9922L9.11035 21.3754C19.939 26.0132 33.4882 25.359 43.5466 18.7417Z" fill="#972F00"/>
<path d="M3.03162 17.0565C2.60096 17.4789 1.91356 17.1807 1.34625 16.9985C0.778939 16.8163 0.0791168 17.102 0.157795 17.7108C0.211628 18.1166 0.493213 18.2242 0.853477 18.394C1.21374 18.5597 1.56986 18.6963 1.32141 19.0193C1.06467 19.3547 0.745812 19.0566 0.311011 19.421C-0.517182 20.1167 0.509777 21.3797 1.06052 21.3631C1.90114 21.3382 2.08334 20.8703 2.54299 20.5597L2.55541 20.626C2.63409 21.0318 3.10616 21.2223 3.44572 20.9863L3.47471 20.9656C3.75629 20.7709 4.16625 20.8165 4.34431 21.1105C4.56792 21.4832 4.27391 21.9428 4.22836 22.3776C4.16625 22.9988 4.7584 23.5992 5.3547 23.5205C5.951 23.4419 6.38166 22.713 6.17461 22.125C6.17461 22.8 6.71708 23.4253 7.36307 23.4957C8.00906 23.5661 8.66333 23.0692 8.79584 22.4066C8.83725 22.7006 8.95734 22.9781 9.13126 23.2141C9.40042 23.5785 9.97602 23.5827 10.2452 23.2182C10.3901 23.0195 10.622 22.8911 10.8539 22.9532C10.4274 23.2597 10.6883 24.034 11.1769 24.2204C11.6655 24.4067 12.1997 24.2079 12.6842 24.0092C13.5787 23.6406 14.4772 23.2721 15.3717 22.9035C15.9887 22.6509 16.6098 22.3942 17.2517 22.2244C18.8128 21.8103 19.7942 22.2493 21.0324 22.9656C21.5956 23.2928 22.2912 23.2845 22.8461 22.9449C23.0532 22.8166 23.2188 22.7089 23.2478 22.6675C24.0015 22.4894 24.0553 23.388 23.782 23.8435C23.5998 24.1458 23.5252 24.5144 23.6743 24.8374C24.0015 25.5455 24.9746 25.268 25.4342 24.7007C25.8815 24.1541 26.221 23.8601 26.8918 23.6903C27.6082 23.5081 28.2832 23.711 28.9333 23.4874C29.4551 23.3093 29.8195 22.8704 30.3703 22.8621C31.3144 22.8456 31.3641 24.1417 32.3538 24.1293C33.2565 24.1168 33.389 23.3549 34.0598 23.1271C34.652 22.9284 34.9253 23.2431 34.9584 23.8849C34.9916 24.5268 35.1324 24.9782 35.6872 25.268C36.7639 25.8312 37.9896 23.6075 38.9545 24.357C39.559 24.8249 39.2526 26.0382 39.9234 26.3985C40.3251 26.6138 40.8179 26.3488 41.1409 26.0217C41.4639 25.6945 42.0105 24.6345 42.437 24.473C43.3646 24.1168 44.3004 25.4792 45.1535 24.9657C45.5593 24.7214 45.638 24.5102 45.816 24.0589C45.99 23.6075 46.2508 23.123 46.7022 23.0029C46.9175 22.9449 47.1494 23.0443 47.3026 23.2058C47.6546 23.5702 48.2302 23.653 48.6485 23.3632C49.7375 22.6095 50.2386 21.0732 49.8907 19.3257C49.4518 17.1227 46.8264 16.514 47.05 15.2013C45.6048 15.9633 45.1618 16.6383 43.6338 16.0834C42.9008 15.8183 42.1927 15.396 41.4142 15.3918C40.0932 15.3877 39.0663 16.5596 37.8198 17.0109C36.6479 17.4375 35.3435 17.1931 34.1841 16.7252C33.0287 16.2573 31.9645 15.574 30.8216 15.073C28.4488 14.0336 25.7448 13.8265 23.2519 14.4891C21.3844 14.986 19.5375 15.9633 17.6327 15.6569C16.2371 15.4332 15.0321 14.5429 13.7112 14.0295C10.8456 12.9238 8.1043 15.6154 5.28431 15.7687C4.34431 15.8183 3.43744 14.3897 2.4933 15.1806C2.05436 15.5492 2.11647 16.1124 2.27383 16.5265C2.32352 16.6341 2.86184 17.2221 3.03162 17.0565V17.0565Z" fill="url(#paint4_linear_1029_1049)"/>
<path d="M12.4356 2.36061C8.75015 3.52423 4.38972 7.131 3.49527 11.4003C2.60083 15.6697 4.19096 17.2639 9.25949 18.6512C14.328 20.0384 17.9017 20.0425 24.5603 20.5394C31.2149 21.0364 39.2649 21.0364 43.2402 19.1481C47.2156 17.2598 50.0935 17.5579 46.7186 9.51206C43.3437 1.46617 31.5213 0.44335 25.7488 0.0748039C17.9969 -0.422112 14.3239 1.76432 12.4356 2.36061V2.36061Z" fill="url(#paint5_linear_1029_1049)"/>
<path d="M13.5288 4.9079C13.6986 5.3427 13.4708 5.59944 13.2596 5.67812C13.0567 5.7568 12.713 5.73195 12.5391 5.28887C12.3403 4.77125 12.3776 4.10041 12.6136 4.00931C12.8497 3.91821 13.33 4.39442 13.5288 4.9079Z" fill="#FADC8B"/>
<path d="M20.3657 7.26812C19.9475 7.47517 19.6742 7.26812 19.5748 7.06522C19.4796 6.87059 19.4754 6.52275 19.9019 6.31156C20.3988 6.06724 21.0697 6.04654 21.1815 6.27429C21.2933 6.50619 20.8626 7.02381 20.3657 7.26812V7.26812Z" fill="#FADC8B"/>
<path d="M16.5561 8.43892C16.5064 8.90271 16.1917 9.02693 15.9639 9.00209C15.7486 8.98138 15.4504 8.79918 15.5001 8.32711C15.5581 7.77636 15.8977 7.19663 16.1503 7.22147C16.3987 7.24632 16.6099 7.88817 16.5561 8.43892V8.43892Z" fill="#FADC8B"/>
<path d="M22.196 3.95961C21.9807 4.3737 21.6411 4.36956 21.4382 4.26604C21.2478 4.16665 21.0366 3.88921 21.256 3.46683C21.5128 2.97406 22.0428 2.55996 22.2664 2.67591C22.49 2.796 22.4528 3.46683 22.196 3.95961Z" fill="#FADC8B"/>
<path d="M35.2814 4.35219C34.8384 4.2114 34.7804 3.87598 34.8508 3.65651C34.917 3.44946 35.1531 3.19686 35.6044 3.33766C36.1303 3.5033 36.6314 3.95466 36.5569 4.19484C36.4782 4.44329 35.8115 4.51783 35.2814 4.35219V4.35219Z" fill="#FADC8B"/>
<path d="M28.9539 3.17613C29.2645 3.52397 29.1402 3.84282 28.9705 3.9919C28.809 4.13683 28.4735 4.23208 28.1588 3.87595C27.7903 3.46186 27.5915 2.82001 27.782 2.65023C27.9684 2.48459 28.5854 2.76203 28.9539 3.17613V3.17613Z" fill="#FADC8B"/>
<path d="M38.5528 6.73389C38.3499 6.31565 38.5528 6.04235 38.7557 5.94296C38.9503 5.84772 39.2982 5.84358 39.5052 6.2701C39.7495 6.76701 39.7661 7.44199 39.5383 7.54966C39.3147 7.66146 38.7971 7.2308 38.5528 6.73389Z" fill="#FADC8B"/>
<path d="M36.1054 11.1603C35.6499 11.2514 35.4346 10.9822 35.3932 10.7627C35.3518 10.5515 35.4346 10.212 35.9025 10.1209C36.445 10.0132 37.0992 10.1664 37.1489 10.4149C37.1986 10.6592 36.6479 11.0526 36.1054 11.1603V11.1603Z" fill="#FADC8B"/>
<path d="M31.1857 7.57879C31.6495 7.56222 31.8193 7.86037 31.8276 8.08398C31.8358 8.29931 31.6992 8.61817 31.223 8.63887C30.6681 8.65958 30.0469 8.40698 30.0387 8.15438C30.0304 7.90178 30.635 7.60363 31.1857 7.57879V7.57879Z" fill="#FADC8B"/>
<path d="M26.0675 9.5112C25.9184 9.95014 25.5788 10.004 25.3635 9.92943C25.1564 9.85904 24.908 9.61886 25.0612 9.1675C25.2393 8.64159 25.6989 8.15296 25.9391 8.23578C26.1834 8.31446 26.2455 8.98529 26.0675 9.5112V9.5112Z" fill="#FADC8B"/>
<path opacity="0.2" d="M23.5294 1.29198C24.221 1.29198 24.9373 1.31683 25.6661 1.36238C30.2253 1.65638 42.3377 2.43074 45.5221 10.0128C46.8223 13.1103 47.2074 15.0234 46.694 15.864C46.371 16.3941 46.4703 17.0815 46.93 17.4956C47.0459 17.5991 47.166 17.7068 47.2944 17.8144C47.9114 18.3486 48.4953 18.8497 48.6361 19.5702C48.868 20.7379 48.6071 21.7856 47.9694 22.266C47.9611 22.2701 47.9487 22.2784 47.9404 22.2825C47.46 22.5807 47.224 23.1563 47.3648 23.7029C47.4932 24.2039 47.5346 24.6263 47.5346 24.8706C47.311 25.1025 47.1784 25.4089 47.1702 25.7361C47.1619 26.1253 47.3234 26.4939 47.6174 26.7465C47.7789 26.8831 47.8617 26.9742 47.899 27.0198C48.1599 27.8977 48.1847 28.6389 47.957 29.0654C47.6712 29.6079 47.5967 29.6617 47.3234 29.8563C47.2406 29.9143 47.1536 29.9764 47.0584 30.051C46.959 30.1255 46.7975 30.1835 46.4952 30.2911L46.3047 30.3574C45.8616 30.5147 45.5386 30.904 45.4641 31.3678C45.3896 31.8316 45.5718 32.3036 45.9444 32.5935C45.9569 32.6059 45.9693 32.6142 45.9817 32.6225C45.8202 33.6867 45.4724 35.8566 43.0706 37.8981C39.8241 40.6601 34.151 42.0929 26.2128 42.1509H25.7738C20.3864 42.1509 13.0983 41.3765 8.94909 37.6952C6.57217 35.5833 6.35684 33.5169 6.3527 33.4465C6.34856 33.3927 6.34028 33.3389 6.332 33.285C6.29887 33.107 6.28231 32.9414 6.28231 32.7923C6.29059 32.3368 6.05869 31.9103 5.67358 31.6701C5.40028 31.5003 5.07729 31.3471 4.68804 31.2063C4.08346 30.9868 4.08346 30.9868 3.95094 30.2911C3.89297 29.993 3.82257 29.6244 3.69006 29.2062C3.64037 29.053 3.61553 28.9495 3.59896 28.8791C3.73561 28.5644 3.83086 28.1668 3.73561 27.5333C3.72733 27.4049 3.87227 26.9038 4.37746 26.1916C4.64249 25.8189 4.68389 25.3427 4.50997 24.9369C4.67975 24.8044 4.94063 24.6263 5.31746 24.4027C5.68187 24.1874 5.9179 23.8064 5.95103 23.384C5.98002 23.003 5.83508 22.6304 5.56592 22.3653C5.5742 22.3405 5.57834 22.3156 5.58662 22.2908C5.69843 21.9015 5.90548 21.1727 5.47068 20.4439C5.13526 19.8849 4.53896 19.5495 3.87227 19.5495C3.72319 19.5495 3.57412 19.566 3.42918 19.5992C3.32152 19.4998 3.19315 19.417 3.05236 19.3631C2.91985 19.3093 2.78319 19.2762 2.64654 19.2679C2.7335 18.9863 2.72108 18.7337 2.68795 18.5598C3.29667 18.506 3.70663 18.2244 3.95509 17.9842C4.44372 17.5038 4.47271 16.7295 4.02962 16.216C4.18698 16.1539 4.33191 16.0586 4.452 15.9344C4.80812 15.5783 4.92407 15.0524 4.75429 14.5803C4.50169 13.8888 4.50997 12.9364 4.775 11.6692C5.54936 7.96721 9.48327 4.65444 12.8416 3.59435C13.206 3.47841 13.6035 3.32105 14.059 3.14299C15.9018 2.4059 18.7093 1.29198 23.5294 1.29198M23.5294 0C17.2766 0 14.1336 1.82202 12.4358 2.35621C8.75032 3.51982 4.38989 7.1266 3.49544 11.3959C3.18073 12.8991 3.18073 14.0627 3.52443 15.011C3.38777 14.9613 3.25112 14.9282 3.11033 14.9282C2.90742 14.9282 2.70452 14.9944 2.49747 15.1683C2.05852 15.5369 2.12064 16.1001 2.278 16.5142C2.31526 16.6177 2.7335 17.0815 2.95297 17.0815C2.98196 17.0815 3.01095 17.0732 3.03165 17.0525C2.87015 17.214 2.67139 17.272 2.4602 17.272C2.10408 17.272 1.7024 17.1146 1.34628 16.9986C1.23033 16.9614 1.11024 16.9448 0.994298 16.9448C0.53051 16.9448 0.0957089 17.2264 0.157823 17.7109C0.211656 18.1167 0.493241 18.2244 0.853505 18.3942C1.21377 18.5598 1.56989 18.6964 1.32143 19.0194C1.06469 19.3549 0.74584 19.0567 0.311039 19.417C-0.508872 20.1044 0.497382 21.3549 1.05227 21.3549H1.06469C1.90531 21.3549 2.08751 20.8622 2.54716 20.5516L2.55958 20.6178C2.61755 20.9036 2.86187 21.0816 3.12275 21.0816C3.23456 21.0816 3.34636 21.0485 3.44989 20.9781L3.47887 20.9574C3.59068 20.8787 3.72319 20.8415 3.8557 20.8415C4.05033 20.8415 4.24081 20.9284 4.34848 21.1065C4.57209 21.4792 4.27808 21.9388 4.23667 22.3736C4.20354 22.7297 4.3816 23.0734 4.65077 23.2888C3.8557 23.7567 2.77905 24.5021 3.01923 24.9824C3.13103 25.206 3.22628 25.3468 3.3091 25.4462C2.98196 25.91 2.33183 26.9452 2.44363 27.7155C2.59271 28.7341 1.99641 28.1875 2.44363 29.5996C2.89086 31.0117 2.51817 31.7984 4.23253 32.4237C4.56381 32.5438 4.79984 32.6598 4.98204 32.7716C4.9779 33.0117 5.00275 33.2643 5.05244 33.5376C5.05244 33.5376 5.71499 43.4511 25.7655 43.4511H26.2128C46.7022 43.302 47.0004 34.0636 47.2985 32.4983C47.3482 32.2291 47.1536 31.9144 46.7271 31.5831C47.1826 31.4175 47.518 31.3222 47.8203 31.0945C48.3421 30.7011 48.5698 30.6597 49.0874 29.6824C49.5222 28.8542 49.4601 27.7196 49.0874 26.5436C49.0212 26.3407 48.7893 26.0756 48.4497 25.7816C48.6402 25.6326 48.7562 25.4628 48.7893 25.2557C48.8597 24.8085 48.7769 24.0756 48.6029 23.3923C48.6195 23.384 48.6361 23.3757 48.6485 23.3674C49.7376 22.6138 50.2386 21.0775 49.8908 19.33C49.6216 17.9801 48.5367 17.2305 47.783 16.5514C48.5036 15.3754 48.3421 13.4374 46.7022 9.52835C43.3232 1.48246 31.5132 0.459646 25.7407 0.0911009C24.9663 0.0248455 24.2292 0 23.5294 0V0Z" fill="#424242"/>
<defs>
<linearGradient id="paint0_linear_1029_1049" x1="26.1496" y1="32.3194" x2="26.1496" y2="43.0528" gradientUnits="userSpaceOnUse">
<stop stop-color="#FFC044"/>
<stop offset="0.8473" stop-color="#CA4300"/>
</linearGradient>
<radialGradient id="paint1_radial_1029_1049" cx="0" cy="0" r="1" gradientUnits="userSpaceOnUse" gradientTransform="translate(25.8393 29.0539) scale(23.6234 8.9816)">
<stop stop-color="#583223"/>
<stop offset="0.1013" stop-color="#7B3915"/>
<stop offset="0.225" stop-color="#A04106"/>
<stop offset="0.2906" stop-color="#AE4400"/>
<stop offset="0.3208" stop-color="#A84302"/>
<stop offset="0.7241" stop-color="#623A15"/>
<stop offset="0.9458" stop-color="#603813"/>
</radialGradient>
<linearGradient id="paint2_linear_1029_1049" x1="25.9057" y1="21.5828" x2="25.9057" y2="34.3445" gradientUnits="userSpaceOnUse">
<stop offset="0.0049261" stop-color="#FBC02D"/>
<stop offset="0.0811" stop-color="#FCCA30"/>
<stop offset="0.2088" stop-color="#FDD534"/>
<stop offset="0.3596" stop-color="#FDD835"/>
<stop offset="0.6897" stop-color="#FFF59D"/>
<stop offset="1" stop-color="#FDD835"/>
</linearGradient>
<linearGradient id="paint3_linear_1029_1049" x1="10.568" y1="23.3124" x2="44.4037" y2="22.6728" gradientUnits="userSpaceOnUse">
<stop stop-color="#FF3D2A"/>
<stop offset="0.0408" stop-color="#F63424"/>
<stop offset="0.1741" stop-color="#DD1D14"/>
<stop offset="0.3141" stop-color="#CC0D09"/>
<stop offset="0.4638" stop-color="#C10302"/>
<stop offset="0.6404" stop-color="#BE0000"/>
<stop offset="0.9902" stop-color="#FF1500"/>
</linearGradient>
<linearGradient id="paint4_linear_1029_1049" x1="25.0048" y1="19.7117" x2="25.0048" y2="26.9857" gradientUnits="userSpaceOnUse">
<stop stop-color="#518F00"/>
<stop offset="0.1974" stop-color="#619E15"/>
<stop offset="0.404" stop-color="#6FAA27"/>
<stop offset="0.4245" stop-color="#72AD2B"/>
<stop offset="0.5468" stop-color="#80B93C"/>
<stop offset="0.6779" stop-color="#88C147"/>
<stop offset="0.8325" stop-color="#8BC34A"/>
<stop offset="1" stop-color="#8CC63F"/>
</linearGradient>
<linearGradient id="paint5_linear_1029_1049" x1="12.1569" y1="2.0459" x2="40.9668" y2="23.4928" gradientUnits="userSpaceOnUse">
<stop stop-color="#FFC044"/>
<stop offset="0.8473" stop-color="#CA4300"/>
</linearGradient>
</defs>
</svg>
