<svg width="50" height="59" viewBox="0 0 50 59" fill="none" xmlns="http://www.w3.org/2000/svg">
<path d="M41.7819 23.1195C40.494 15.697 37.3565 13.4019 34.587 11.378C32.6841 9.98843 31.0379 8.78765 30.2099 6.15369C29.3239 3.34541 31.5656 0.420941 31.5899 0.39189C31.6528 0.314421 31.6576 0.203058 31.6044 0.115905C31.5511 0.0287518 31.4591 -0.0148248 31.3526 0.00454255C31.1638 0.0384355 30.9217 0.0723284 30.636 0.106221C27.6825 0.498411 19.8435 1.52972 17.7809 12.0414C17.5098 13.4261 16.6721 14.5494 15.7958 14.7092C15.2341 14.8109 14.7063 14.501 14.2803 13.8086C12.5856 11.0585 16.1444 6.42483 16.1831 6.37641C16.2461 6.29894 16.2509 6.18758 16.1976 6.10042C16.1444 6.01327 16.0427 5.9697 15.9459 5.98906C15.8442 6.00843 5.92324 8.0759 1.89482 18.2196C0.669837 21.3038 -2.76303 32.0866 4.45132 41.3442C11.685 50.626 16.0766 51.2603 16.1734 51.3136C16.2073 51.3378 44.2803 41.199 41.7819 23.1195V23.1195Z" fill="url(#paint0_radial_1029_1069)"/>
<path opacity="0.8" d="M27.7839 16.2779C25.8617 12.54 22.7436 4.70105 30.9553 0.416016C24.782 1.5248 20.2452 5.91635 20.6132 13.3292C20.8504 18.1614 23.5667 22.4706 24.8304 27.1382C26.5299 33.4471 25.2468 37.3883 24.506 40.3661C35.0419 33.4519 30.2484 21.0616 27.7839 16.2779V16.2779Z" fill="url(#paint1_linear_1029_1069)"/>
<path d="M35.8023 18.3125C27.7407 18.3125 24.7823 26.5485 24.7823 26.5485C24.7823 26.5485 22.6616 18.3125 13.7429 18.3125C7.64218 18.3125 0.689293 23.1447 3.26031 34.1356C5.83133 45.1218 24.8017 58.8145 24.8017 58.8145C24.8017 58.8145 43.7091 45.1266 46.2801 34.1405C48.8511 23.1447 42.3921 18.3125 35.8023 18.3125Z" fill="url(#paint2_radial_1029_1069)"/>
<path d="M7.49699 24.1469C8.87692 22.4232 11.3414 21.0045 13.4283 22.6411C14.5564 23.5271 14.0625 25.3477 13.0554 26.1127C11.5835 27.2312 10.3004 27.9042 9.40952 29.6569C8.87207 30.7124 8.54767 31.86 8.38305 33.0365C8.32011 33.5013 7.71003 33.6127 7.48247 33.206C5.92339 30.4461 5.48278 26.6598 7.49699 24.1469V24.1469Z" fill="#FF7043"/>
<path d="M29.6145 27.7629C28.9657 27.7629 28.5106 27.1383 28.7478 26.533C29.1884 25.4242 29.7501 24.3445 30.4328 23.3907C31.4399 21.9769 33.3573 21.1537 34.5726 22.0107C35.8169 22.8871 35.6571 24.6399 34.7808 25.4824C32.9021 27.298 30.5442 27.7629 29.6145 27.7629Z" fill="#FF7043"/>
<path d="M23.8187 58.078C17.9601 57.2985 15.2003 55.6765 13.1715 51.4447C12.1354 49.2804 12.1305 45.5812 12.0918 43.291C12.0482 40.7539 11.2832 38.5605 11.2832 38.5605C12.8132 38.8317 15.5876 41.5189 16.8659 46.4866C19.0883 55.11 23.8187 58.078 23.8187 58.078V58.078Z" fill="url(#paint3_linear_1029_1069)"/>
<path d="M44.2802 38.5602C44.2802 38.5602 48.6814 36.0183 49.7708 29.8982C50.4826 25.9036 49.6352 21.914 45.8053 17.9969C44.4448 16.6025 39.9951 13.2083 41.7043 7.35938C41.7043 7.35938 37.5209 10.9084 38.9396 17.3094C40.5374 24.5189 47.3402 26.9931 44.2802 38.5602V38.5602Z" fill="url(#paint4_linear_1029_1069)"/>
<path d="M40.9201 30.373C42.0967 30.7894 46.8611 38.212 42.4308 46.0074C38.4895 52.9409 30.7861 54.0158 30.7861 54.0158C30.7861 54.0158 36.8675 47.9247 39.2448 42.1436C41.3946 36.9289 40.9201 30.373 40.9201 30.373V30.373Z" fill="url(#paint5_linear_1029_1069)"/>
<defs>
<radialGradient id="paint0_radial_1029_1069" cx="0" cy="0" r="1" gradientUnits="userSpaceOnUse" gradientTransform="translate(20.7117 39.2387) scale(42.349 43.0604)">
<stop offset="0.3903" stop-color="#FFD600"/>
<stop offset="0.6895" stop-color="#FF9800"/>
<stop offset="1" stop-color="#F44336"/>
</radialGradient>
<linearGradient id="paint1_linear_1029_1069" x1="25.6661" y1="25.1321" x2="26.3867" y2="2.25161" gradientUnits="userSpaceOnUse">
<stop offset="0.1645" stop-color="#FFEB3B"/>
<stop offset="1" stop-color="#FFD600"/>
</linearGradient>
<radialGradient id="paint2_radial_1029_1069" cx="0" cy="0" r="1" gradientUnits="userSpaceOnUse" gradientTransform="translate(24.7842 56.0896) scale(48.6291 48.6291)">
<stop offset="0.1189" stop-color="#FF6D00"/>
<stop offset="0.4848" stop-color="#F44336"/>
<stop offset="0.8142" stop-color="#B71C1C"/>
</radialGradient>
<linearGradient id="paint3_linear_1029_1069" x1="15.2425" y1="44.9571" x2="22.4489" y2="66.8467" gradientUnits="userSpaceOnUse">
<stop offset="0.0759" stop-color="#FFEB3B"/>
<stop offset="1" stop-color="#FFD600" stop-opacity="0"/>
</linearGradient>
<linearGradient id="paint4_linear_1029_1069" x1="39.3903" y1="20.9176" x2="51.9246" y2="28.0203" gradientUnits="userSpaceOnUse">
<stop stop-color="#FFD600"/>
<stop offset="1" stop-color="#FFD600" stop-opacity="0"/>
</linearGradient>
<linearGradient id="paint5_linear_1029_1069" x1="35.9682" y1="30.0603" x2="39.4813" y2="66.3628" gradientUnits="userSpaceOnUse">
<stop offset="0.1873" stop-color="#FFEB3B"/>
<stop offset="0.9339" stop-color="#FFD600" stop-opacity="0"/>
</linearGradient>
</defs>
</svg>
