<svg width="50" height="51" viewBox="0 0 50 51" fill="none" xmlns="http://www.w3.org/2000/svg">
<path d="M12.4539 32.389C7.86121 35.8872 3.70211 45.5735 12.6307 46.3523C14.1967 46.487 13.6452 47.1816 15.1565 47.9688C16.8024 48.8233 16.7351 47.6152 18.1158 48.596C29.7596 56.8847 35.1058 28.6466 29.8312 24.3402C25.8363 21.0778 12.1508 32.5953 12.4539 32.389V32.389Z" fill="url(#paint0_linear_1029_722)"/>
<path d="M13.2746 16.9994C8.25255 14.1537 -2.29253 14.1495 0.511071 22.6613C1.0036 24.1515 0.149044 23.9242 0.0227557 25.6207C-0.116162 27.4687 0.41846 26.9046 0.612102 28.5885C2.57378 45.7468 22.641 32.7939 26.5054 26.7615C29.1575 22.6192 12.9631 16.8015 13.2746 16.9994V16.9994Z" fill="url(#paint1_linear_1029_722)"/>
<path d="M19.6228 1.77716C18.5199 2.85483 18.3262 1.99185 16.7434 2.58962C15.0132 3.24211 15.9646 3.94933 14.3144 4.32819C0.401673 7.54434 16.554 29.969 28.0841 26.496C37.4463 23.6714 29.3217 -7.69868 19.6228 1.77716V1.77716Z" fill="url(#paint2_linear_1029_722)"/>
<path d="M18.2041 18.5605C25.6004 22.1387 29.4438 27.4681 28.0841 28.4195C26.5013 29.5266 26.6233 24.694 18.2041 18.5605Z" fill="#F8BBD0"/>
<path d="M21.5254 23.4785C22.0053 23.2512 22.2074 22.6702 21.9759 22.1777C21.7443 21.6852 21.1676 21.4705 20.6877 21.6936C20.2078 21.9209 20.0058 22.5018 20.2373 22.9944C20.4688 23.4911 21.0455 23.7058 21.5254 23.4785Z" fill="#FFD54F"/>
<path d="M19.5723 22.0468C20.0522 21.8195 20.2543 21.2386 20.0227 20.7461C19.7912 20.2535 19.2145 20.0388 18.7346 20.262C18.2547 20.4893 18.0526 21.0702 18.2842 21.5627C18.5157 22.0552 19.0924 22.2741 19.5723 22.0468V22.0468Z" fill="#FFECB3"/>
<path d="M24.4932 21.2636C24.9731 21.0363 25.1752 20.4554 24.9436 19.9629C24.7121 19.4703 24.1354 19.2556 23.6555 19.4788C23.1756 19.7061 22.9735 20.287 23.2051 20.7795C23.4366 21.2763 24.0133 21.4909 24.4932 21.2636V21.2636Z" fill="#FFD54F"/>
<path d="M22.4895 20.0878C22.9694 19.8605 23.1715 19.2796 22.94 18.7871C22.7084 18.2946 22.1317 18.0799 21.6518 18.303C21.1719 18.5303 20.9699 19.1112 21.2014 19.6037C21.4329 20.0963 22.0096 20.3152 22.4895 20.0878Z" fill="#FFECB3"/>
<path d="M20.4688 18.539C20.9487 18.3117 21.1507 17.7308 20.9192 17.2382C20.6877 16.7457 20.111 16.531 19.6311 16.7541C19.1512 16.9815 18.9491 17.5624 19.1806 18.0549C19.408 18.5474 19.9847 18.7663 20.4688 18.539V18.539Z" fill="#FFD54F"/>
<path d="M18.6248 17.1679C19.1047 16.9406 19.3067 16.3597 19.0752 15.8672C18.8437 15.3746 18.267 15.1599 17.7871 15.383C17.3072 15.6104 17.1051 16.1913 17.3366 16.6838C17.5682 17.1763 18.1449 17.3952 18.6248 17.1679V17.1679Z" fill="#AD1457"/>
<path d="M16.6758 18.1484C17.1557 17.9211 17.3578 17.3401 17.1262 16.8476C16.8947 16.3551 16.318 16.1404 15.8381 16.3635C15.3582 16.5908 15.1561 17.1718 15.3877 17.6643C15.6192 18.1568 16.1959 18.3757 16.6758 18.1484V18.1484Z" fill="#AD1457"/>
<path d="M17.641 20.506C18.1208 20.2807 18.3222 19.6988 18.091 19.2064C17.8597 18.714 17.2833 18.4975 16.8035 18.7229C16.3237 18.9482 16.1223 19.53 16.3536 20.0224C16.5848 20.5148 17.1612 20.7313 17.641 20.506Z" fill="#AD1457"/>
<path d="M42.8682 45.2883C44.3963 44.5811 45.2508 42.9394 46.1096 41.3145C47.0862 39.4706 45.9496 39.5127 47.2125 38.212C57.8754 27.2375 33.144 21.3904 28.0503 26.6019C26.2444 28.4499 26.4465 35.1011 27.9703 39.0034C30.8581 46.4081 32.723 49.9778 42.8682 45.2883V45.2883Z" fill="url(#paint3_linear_1029_722)"/>
<path d="M49.7088 15.8409C49.3763 14.0055 47.9576 13.9255 47.6251 11.9218C47.2883 9.91377 45.7855 11.3324 44.6573 9.85062C35.4551 -2.24781 23.845 19.7516 28.6145 25.9187C32.4284 30.8524 52.2515 29.8168 49.7088 15.8409V15.8409Z" fill="url(#paint4_linear_1029_722)"/>
<path opacity="0.2" d="M23.3777 1.33515C26.0003 1.33515 28.8249 5.4732 30.2478 11.3961C30.3614 11.876 30.7445 12.2423 31.2286 12.3391C31.3128 12.3559 31.3928 12.3643 31.477 12.3643C31.8769 12.3643 32.2557 12.1749 32.4999 11.8423C34.4826 9.11452 36.7221 7.61169 38.8059 7.61169C40.5234 7.61169 42.1778 8.64725 43.7311 10.6889C44.5562 11.775 45.575 11.9097 46.1854 11.9897C46.2569 11.9981 46.3495 12.0107 46.4169 12.0234C46.4295 12.0655 46.4421 12.1244 46.4548 12.2002C46.6863 13.5809 47.3472 14.3344 47.8271 14.8859C48.2102 15.3237 48.4417 15.5889 48.5427 16.1362C49.5362 21.6044 46.661 24.3786 44.0721 25.7383C43.647 25.9614 43.386 26.4034 43.3986 26.8833C43.4112 27.3632 43.6891 27.7926 44.1226 27.9988C46.72 29.2154 48.3112 30.794 48.6143 32.4358C48.8879 33.926 48.1386 35.5972 46.3874 37.3989C45.4318 38.384 45.3603 39.0575 45.3729 39.7184C45.3771 39.9963 45.3813 40.2109 45.074 40.7919L45.0361 40.8634C44.2658 42.3158 43.5375 43.6923 42.4178 44.2101C39.5131 45.5529 37.2946 46.2054 35.6319 46.2054C33.5313 46.2054 32.2389 45.1951 30.875 42.4757C30.6603 42.0463 30.2225 41.7811 29.7468 41.7811H29.6963C29.1996 41.8022 28.7618 42.1095 28.5765 42.5683C27.6125 44.9383 25.5162 48.9206 22.3084 48.9206C21.256 48.9206 20.1194 48.4913 18.9239 47.6409C18.3051 47.2031 17.7536 46.9968 17.1853 46.9968C16.9243 46.9968 16.7054 47.0389 16.5497 47.0726C16.4444 47.0937 16.3855 47.1063 16.3392 47.1063C16.234 47.1063 16.0445 47.0389 15.8172 46.9211C15.3878 46.698 15.2447 46.5254 15.0637 46.3023C14.6259 45.7676 14.1207 45.2793 12.82 45.1657C10.9214 45.0015 9.67116 44.3953 9.09865 43.3639C8.39986 42.1011 8.66506 40.0173 9.80587 37.7862C10.0079 37.3905 9.98688 36.919 9.75535 36.5444C9.52383 36.1739 9.1197 35.9508 8.6819 35.9508H8.66085H8.50931C4.66172 35.9508 2.51482 33.5177 1.94231 28.5166C1.84128 27.6368 1.65606 27.2032 1.4582 26.7991C1.35717 26.5928 1.30666 26.4876 1.35717 25.7846C1.39506 25.3047 1.49609 25.1026 1.62659 24.8501C1.94231 24.2355 2.19489 23.583 1.78655 22.3411C1.20563 20.5773 1.25193 19.2092 1.92126 18.2831C2.67899 17.2349 4.35863 16.6329 6.52658 16.6329C7.70948 16.6329 8.97237 16.8097 10.1805 17.1465C10.2942 17.1759 10.4078 17.1928 10.5173 17.1928C10.8919 17.1928 11.2498 17.0286 11.4939 16.7297C11.8096 16.3424 11.8686 15.8036 11.6413 15.3574C10.2268 12.579 9.89427 10.0911 10.7025 8.35258C11.3297 7.00971 12.6642 6.09623 14.6722 5.63317C15.9224 5.3427 16.3392 4.80387 16.6591 4.27346C16.7728 4.08824 16.8191 4.01247 17.2611 3.84408C17.6231 3.70516 17.8462 3.68832 18.0315 3.68832C18.103 3.68832 18.1704 3.69253 18.2377 3.69253C18.3261 3.69674 18.4103 3.69674 18.4945 3.69674C19.2817 3.69674 19.9047 3.4147 20.5825 2.75379C21.5465 1.81084 22.4852 1.33515 23.3777 1.33515M23.3777 0.0722656C22.2032 0.0722656 20.9656 0.611096 19.6985 1.84872C19.1723 2.3623 18.8565 2.43386 18.4945 2.43386C18.3514 2.43386 18.2041 2.42123 18.0357 2.42123C17.7284 2.42123 17.3537 2.45912 16.8191 2.65697C15.0889 3.30946 16.0403 4.01668 14.3901 4.39554C8.28199 5.80997 7.97048 10.9247 10.5173 15.9257C9.23336 15.5679 7.85261 15.3658 6.52658 15.3658C2.38853 15.3658 -1.18964 17.3401 0.582604 22.7326C1.07513 24.2228 0.220577 23.9955 0.0942889 25.692C-0.0446283 27.54 0.489993 26.9759 0.683635 28.6598C1.40769 34.9784 4.58595 37.2137 8.5051 37.2137H8.67769C6.61919 41.2381 6.62761 45.8939 12.7063 46.4243C14.2723 46.559 13.7208 47.2536 15.2321 48.0408C15.7246 48.2976 16.0656 48.3692 16.335 48.3692C16.6675 48.3692 16.8991 48.2597 17.1811 48.2597C17.4337 48.2597 17.7326 48.3439 18.1872 48.6681C19.6648 49.7205 21.0371 50.1835 22.3 50.1835C25.5625 50.1835 28.0924 47.1021 29.7384 43.044C31.136 45.8224 32.7314 47.4725 35.6234 47.4725C37.4546 47.4725 39.7994 46.8116 42.9397 45.3635C44.4678 44.6563 45.3224 43.0145 46.1811 41.3896C47.1578 39.5458 46.0212 39.5879 47.2841 38.2872C52.2682 33.1556 49.5152 29.1481 44.6531 26.8623C48.2775 24.9553 50.7823 21.4487 49.7762 15.9173C49.4436 14.0819 48.025 14.0019 47.6924 11.9981C47.3556 9.99012 45.8528 11.4088 44.7246 9.92697C42.7966 7.39279 40.7592 6.35301 38.7933 6.35301C36.0697 6.35301 33.4765 8.34416 31.4685 11.1015C30.0794 5.27956 27.0316 0.0722656 23.3777 0.0722656V0.0722656Z" fill="#424242"/>
<defs>
<linearGradient id="paint0_linear_1029_722" x1="32.2633" y1="26.6301" x2="12.0225" y2="48.0376" gradientUnits="userSpaceOnUse">
<stop offset="0.0098938" stop-color="#8A0032"/>
<stop offset="0.1821" stop-color="#8E0034"/>
<stop offset="0.4055" stop-color="#FF005D"/>
<stop offset="0.4397" stop-color="#FF1368"/>
<stop offset="0.5501" stop-color="#FF4C87"/>
<stop offset="0.6572" stop-color="#FF7CA2"/>
<stop offset="0.7583" stop-color="#FFA1B6"/>
<stop offset="0.8518" stop-color="#FFBBC5"/>
<stop offset="0.9352" stop-color="#FFCBCE"/>
<stop offset="1" stop-color="#FFD1D1"/>
</linearGradient>
<linearGradient id="paint1_linear_1029_722" x1="24.5164" y1="32.3061" x2="-1.29372" y2="22.8126" gradientUnits="userSpaceOnUse">
<stop offset="0.0098938" stop-color="#8A0032"/>
<stop offset="0.4055" stop-color="#FF005D"/>
<stop offset="0.4397" stop-color="#FF1368"/>
<stop offset="0.5501" stop-color="#FF4C87"/>
<stop offset="0.6572" stop-color="#FF7CA2"/>
<stop offset="0.7583" stop-color="#FFA1B6"/>
<stop offset="0.8518" stop-color="#FFBBC5"/>
<stop offset="0.9352" stop-color="#FFCBCE"/>
<stop offset="1" stop-color="#FFD1D1"/>
</linearGradient>
<linearGradient id="paint2_linear_1029_722" x1="21.8766" y1="27.2484" x2="19.314" y2="0.362071" gradientUnits="userSpaceOnUse">
<stop offset="0.0098938" stop-color="#8A0032"/>
<stop offset="0.3091" stop-color="#FF005D"/>
<stop offset="0.3489" stop-color="#FF1368"/>
<stop offset="0.4773" stop-color="#FF4C87"/>
<stop offset="0.6017" stop-color="#FF7CA2"/>
<stop offset="0.7191" stop-color="#FFA1B6"/>
<stop offset="0.8278" stop-color="#FFBBC5"/>
<stop offset="0.9247" stop-color="#FFCBCE"/>
<stop offset="1" stop-color="#FFD1D1"/>
</linearGradient>
<linearGradient id="paint3_linear_1029_722" x1="30.2281" y1="24.8873" x2="44.7805" y2="43.9453" gradientUnits="userSpaceOnUse">
<stop stop-color="#FF005D"/>
<stop offset="0.0218" stop-color="#FF0962"/>
<stop offset="0.1619" stop-color="#FF3D7F"/>
<stop offset="0.304" stop-color="#FF6B98"/>
<stop offset="0.4454" stop-color="#FF90AD"/>
<stop offset="0.5861" stop-color="#FFACBD"/>
<stop offset="0.7259" stop-color="#FFC1C8"/>
<stop offset="0.8643" stop-color="#FFCDCF"/>
<stop offset="1" stop-color="#FFD1D1"/>
</linearGradient>
<linearGradient id="paint4_linear_1029_722" x1="30.5143" y1="25.6118" x2="46.8631" y2="10.9485" gradientUnits="userSpaceOnUse">
<stop stop-color="#FF005D"/>
<stop offset="0.0481" stop-color="#FF1468"/>
<stop offset="0.1776" stop-color="#FF4684"/>
<stop offset="0.3102" stop-color="#FF719C"/>
<stop offset="0.4437" stop-color="#FF93AF"/>
<stop offset="0.5784" stop-color="#FFAFBE"/>
<stop offset="0.7148" stop-color="#FFC2C9"/>
<stop offset="0.8539" stop-color="#FFCDCF"/>
<stop offset="1" stop-color="#FFD1D1"/>
</linearGradient>
</defs>
</svg>
