<svg width="50" height="49" viewBox="0 0 50 49" fill="none" xmlns="http://www.w3.org/2000/svg">
<path d="M25 48.9439C38.8071 48.9439 50 43.1025 50 35.8967C50 28.691 38.8071 22.8496 25 22.8496C11.1929 22.8496 0 28.691 0 35.8967C0 43.1025 11.1929 48.9439 25 48.9439Z" fill="url(#paint0_radial_1029_1472)"/>
<path opacity="0.49" d="M39.9411 34.5923C39.9411 38.7589 33.0809 42.5468 24.6213 42.5468C16.1617 42.5468 9.30139 38.7168 9.30139 34.5923C9.30139 30.4677 16.1617 27.0586 24.6213 27.0586C33.0809 27.0586 39.9411 30.4256 39.9411 34.5923Z" fill="url(#paint1_linear_1029_1472)"/>
<path opacity="0.2" d="M25 24.1122C31.4815 24.1122 37.5421 25.4169 42.0875 27.7739C46.3805 30.0045 48.7374 32.9085 48.7374 35.8967C48.7374 38.885 46.3805 41.7469 42.0875 44.0196C37.5421 46.3765 31.4815 47.6813 25 47.6813C18.5185 47.6813 12.4579 46.3765 7.91246 44.0196C3.61953 41.789 1.26263 38.927 1.26263 35.8967C1.26263 32.8664 3.61953 30.0466 7.91246 27.8159C12.4579 25.4169 18.5185 24.1122 25 24.1122M25 22.8496C11.1953 22.8496 0 28.6998 0 35.8967C0 43.0937 11.1953 48.9439 25 48.9439C38.8047 48.9439 50 43.0937 50 35.8967C50 28.6998 38.8047 22.8496 25 22.8496Z" fill="#424242"/>
<path d="M46.0016 20.7455C44.5286 20.4088 42.1717 20.535 40.4461 21.2505C40.4882 19.3145 40.3619 18.0098 40.3619 18.0098H24.3686H8.45956C8.45956 18.0098 6.14474 39.3902 24.3686 39.3902C30.5976 39.3902 34.4276 36.9492 36.7845 33.7084C45.7912 32.1091 48.4006 28.1529 49.0319 25.5013C49.6633 22.6815 47.7693 21.1242 46.0016 20.7455V20.7455ZM46.2121 25.796C45.9596 26.2589 43.8131 29.2471 39.5202 29.5838C39.5202 29.5838 41.0353 23.0603 44.234 22.9761C47.4326 22.9761 46.4646 25.3751 46.2121 25.796Z" fill="url(#paint2_radial_1029_1472)"/>
<path d="M40.4461 18.8516C40.4461 22.9341 33.2491 26.2591 24.3686 26.2591C15.4882 26.2591 8.37537 22.9341 8.37537 18.8516C8.37537 14.7692 15.4882 11.4863 24.3686 11.4863C33.2491 11.4863 40.4461 14.7692 40.4461 18.8516V18.8516Z" fill="url(#paint3_linear_1029_1472)"/>
<path opacity="0.2" d="M24.3687 12.9169C33.0387 12.9169 38.4259 15.6526 39.1414 18.262C39.1835 18.4725 39.2256 18.725 39.2256 18.8092C39.2256 18.9354 39.1835 20.2402 39.1835 21.0398C39.1835 21.4607 39.3519 21.8816 39.7307 22.092C39.9411 22.2604 40.1936 22.3024 40.4461 22.3024C40.6145 22.3024 40.7408 22.2604 40.9091 22.2183C41.835 21.8395 43.0977 21.629 44.2761 21.629C44.8233 21.629 45.3283 21.6711 45.7492 21.7553C46.5068 21.9237 47.1802 22.3866 47.5589 22.9338C47.8956 23.4809 47.9798 24.1543 47.8115 24.954C47.3485 27.0162 45.2862 30.72 36.6162 32.2772C36.2374 32.4455 35.9428 32.6139 35.7744 32.8664C33.2913 36.3176 29.4613 38.0853 24.3687 38.0853C20.0337 38.0853 16.5825 36.8226 14.1414 34.2553C9.76433 29.7519 9.5539 22.3866 9.63807 19.3984V19.3142C9.63807 18.725 9.68016 18.3041 9.68016 18.1779C10.5219 15.1897 16.793 12.9169 24.3687 12.9169M24.3687 11.6543C16.1616 11.6543 9.38555 14.1375 8.45962 17.9674C8.45962 17.9674 8.37544 18.4725 8.37544 19.3563C8.20709 23.9018 8.75423 39.3479 24.3687 39.3479C30.5977 39.3479 34.4276 36.8647 36.7845 33.5819C45.7492 31.9826 48.4007 27.9843 48.9899 25.2907C49.6212 22.555 47.7273 20.9556 45.9596 20.5769C45.4546 20.4506 44.8653 20.4085 44.1919 20.4085C42.9293 20.4085 41.5404 20.6189 40.362 21.0819C40.4041 20.2822 40.4041 18.9354 40.4041 18.8092C40.4041 18.5146 40.3199 17.9674 40.3199 17.9674C39.436 14.2216 32.5758 11.6543 24.3687 11.6543V11.6543Z" fill="#424242"/>
<path d="M38.1314 22.2594C35.4378 24.3638 30.261 25.7106 24.4108 25.7106C18.6027 25.7106 13.426 24.4059 10.6482 22.3015C11.1112 18.9766 17.0876 16.3672 24.4108 16.3672C31.6499 16.3672 37.6263 18.9766 38.1314 22.2594Z" fill="url(#paint4_linear_1029_1472)"/>
<path opacity="0.58" d="M20.3283 15.7796C19.9074 17.2106 21.2542 18.81 22.0959 19.5675C22.1801 19.6517 22.0959 19.8201 22.0118 19.778C21.0017 19.5254 19.1498 19.0204 18.5185 17.0002C18.1397 15.7796 18.6869 14.4749 19.8232 12.581C20.4545 11.4446 20.7912 10.3924 20.8754 9.1719C20.9596 7.86719 20.665 6.89918 20.1178 6.26786C20.0337 6.18369 20.1178 6.01534 20.2441 6.05743C21.2121 6.56248 22.3064 7.53049 22.5589 9.08773C22.8114 11.7813 21.0858 13.2123 20.3283 15.7796Z" fill="#D7CCC8"/>
<path opacity="0.58" d="M25.8839 15.2321C24.8738 17.3786 26.5993 20.1984 27.6936 21.5873C27.8199 21.7557 27.6515 21.9661 27.4832 21.8819C25.9259 21.2506 23.2323 20.0301 22.7273 16.7052C22.4327 14.7271 23.6532 12.791 25.8418 10.0974C27.1465 8.49811 27.9041 6.89878 28.3249 5.00484C28.7879 3.02673 28.5354 1.4274 27.862 0.29104C27.7357 0.12269 27.9461 -0.0877476 28.1145 0.038515C29.4613 1.0907 30.9344 2.85838 30.9764 5.34155V5.38363C30.766 9.59239 27.7357 11.3601 25.8839 15.2321V15.2321Z" fill="#D7CCC8"/>
<path d="M25.042 46.4181C16.1195 46.4181 7.57571 44.8608 3.95618 41.1992C7.239 44.9871 15.4461 47.6807 25.042 47.6807C34.638 47.6807 42.8872 44.9871 46.1279 41.1992C41.2878 44.7346 33.9646 46.4181 25.042 46.4181Z" fill="white"/>
<defs>
<radialGradient id="paint0_radial_1029_1472" cx="0" cy="0" r="1" gradientUnits="userSpaceOnUse" gradientTransform="translate(25 35.8968) scale(24.6409 13.0151)">
<stop stop-color="white"/>
<stop offset="1" stop-color="#E3E3E3"/>
</radialGradient>
<linearGradient id="paint1_linear_1029_1472" x1="24.6213" y1="29.333" x2="24.6213" y2="41.9197" gradientUnits="userSpaceOnUse">
<stop stop-color="white"/>
<stop offset="0.2122" stop-color="#E2E2E2"/>
<stop offset="0.5595" stop-color="#B8B8B8"/>
<stop offset="0.8323" stop-color="#9E9E9E"/>
<stop offset="0.9947" stop-color="#949494"/>
</linearGradient>
<radialGradient id="paint2_radial_1029_1472" cx="0" cy="0" r="1" gradientUnits="userSpaceOnUse" gradientTransform="translate(24.3889 24.9277) scale(17.8384 17.5084)">
<stop offset="0.00509" stop-color="white"/>
<stop offset="0.2759" stop-color="#FBFBFB"/>
<stop offset="0.5646" stop-color="#EEEEEE"/>
<stop offset="0.8606" stop-color="#D9D9D9"/>
<stop offset="0.9998" stop-color="#CCCCCC"/>
</radialGradient>
<linearGradient id="paint3_linear_1029_1472" x1="24.4107" y1="9.03052" x2="24.4107" y2="19.4522" gradientUnits="userSpaceOnUse">
<stop offset="0.00509" stop-color="white"/>
<stop offset="0.2759" stop-color="#FBFBFB"/>
<stop offset="0.5646" stop-color="#EEEEEE"/>
<stop offset="0.8606" stop-color="#D9D9D9"/>
<stop offset="0.9998" stop-color="#CCCCCC"/>
</linearGradient>
<linearGradient id="paint4_linear_1029_1472" x1="24.3898" y1="25.4502" x2="24.3898" y2="16.7305" gradientUnits="userSpaceOnUse">
<stop offset="0.00510002" stop-color="#16110E"/>
<stop offset="0.1824" stop-color="#211611"/>
<stop offset="0.4957" stop-color="#3F241A"/>
<stop offset="0.9058" stop-color="#6F3A28"/>
<stop offset="0.9998" stop-color="#7B402B"/>
</linearGradient>
</defs>
</svg>
