<svg width="50" height="50" viewBox="0 0 50 50" fill="none" xmlns="http://www.w3.org/2000/svg">
<path d="M19.166 48.7494H8.92053V32.9541C8.92053 31.3291 10.2497 30 11.8746 30H16.2078C17.8328 30 19.1619 31.3291 19.1619 32.9541V48.7494H19.166Z" fill="#795548"/>
<path opacity="0.2" d="M16.212 31.25C17.1536 31.25 17.9161 32.0166 17.9161 32.9541V47.4995H10.1705V32.9541C10.1705 32.0124 10.9371 31.25 11.8746 31.25H16.212ZM16.212 30H11.8788C10.2538 30 8.92468 31.3291 8.92468 32.9541V48.7494H19.166V32.9541C19.166 31.3291 17.8369 30 16.212 30Z" fill="#424242"/>
<path d="M0.191602 23.1253C0.458261 17.2713 9.9288 1.12184 9.9288 1.12184C10.4371 -0.373947 13.2454 -0.373947 13.7537 1.12184C13.7537 1.12184 22.9451 17.4172 22.9242 23.2545C22.9076 29.0126 21.5076 36.9999 11.8412 36.9999C1.89155 36.9999 -0.0750562 28.8751 0.191602 23.1253V23.1253Z" fill="url(#paint0_radial_1029_969)"/>
<path opacity="0.2" d="M11.8412 1.33746C12.2371 1.33746 12.4662 1.49162 12.4871 1.54995L12.5287 1.66661L12.5912 1.77494C15.0953 6.22481 21.5993 18.7494 21.5868 23.2493C21.5618 31.7157 18.4619 35.6614 11.8412 35.6614C8.64134 35.6614 6.14558 34.7448 4.42064 32.9406C1.64572 30.0366 1.41656 25.5825 1.52489 23.1826C1.73322 18.6578 8.49551 6.20814 11.0829 1.79578L11.1496 1.67911L11.1913 1.54995C11.2121 1.49162 11.4413 1.33746 11.8412 1.33746M11.8412 0C11.0121 0 10.183 0.374988 9.9288 1.1208C9.9288 1.1208 0.458261 17.2703 0.191602 23.1243C-0.0750562 28.8741 1.89155 36.9989 11.8412 36.9989C21.5076 36.9989 22.9076 29.0116 22.9242 23.2534C22.9409 17.4161 13.7537 1.1208 13.7537 1.1208C13.4995 0.374988 12.6704 0 11.8412 0V0Z" fill="#424242"/>
<path d="M0.42089 46.9861C0.408391 46.4986 0.43339 45.6445 0.687549 44.7778C0.987539 43.757 1.65002 42.4654 3.08331 42.1154C3.31663 42.0571 3.55413 42.0279 3.78745 42.0279C3.97495 42.0279 4.16661 42.0446 4.3541 42.0821C4.3791 42.0863 4.40827 42.0904 4.43327 42.0904C4.61659 42.0904 4.77909 41.9696 4.83325 41.7904C5.20824 40.5071 6.39987 39.6113 7.73733 39.6113C8.79146 39.6113 9.74977 40.1446 10.3081 41.0405C10.3872 41.1654 10.5206 41.2363 10.6622 41.2363C10.6956 41.2363 10.7289 41.2321 10.7622 41.2238C10.9997 41.1654 11.2414 41.1363 11.483 41.1363C11.6664 41.1363 11.8497 41.1529 12.0289 41.1863C13.3497 41.4238 14.358 42.4946 14.4871 43.7945C14.5288 44.2112 14.4496 44.6195 14.2663 44.9487C14.1746 45.1112 14.1913 45.3361 14.3246 45.4695C14.6246 45.7695 14.6371 46.2695 14.4955 46.6069C14.4496 46.7194 14.3121 46.9819 14.0705 46.9819H0.42089V46.9861Z" fill="url(#paint1_radial_1029_969)"/>
<path d="M7.7372 40.0325C8.6455 40.0325 9.47464 40.495 9.9538 41.2658C10.108 41.5158 10.3788 41.6575 10.6621 41.6575C10.7288 41.6575 10.7954 41.6491 10.8621 41.6325C11.0663 41.5825 11.2746 41.5575 11.4829 41.5575C11.6412 41.5575 11.7996 41.57 11.9579 41.5991C13.0745 41.7991 13.9662 42.7408 14.0745 43.8366C14.1078 44.1699 14.0453 44.4907 13.9037 44.7449C13.6662 45.1699 13.8245 45.5574 14.0287 45.7657C14.1287 45.8657 14.1787 46.0448 14.162 46.2365C14.1453 46.4157 14.0745 46.5323 14.0412 46.5698H0.837411C0.849911 46.1115 0.908242 45.5032 1.0874 44.8949C1.47906 43.5616 2.18737 42.7616 3.18317 42.5199C3.38317 42.47 3.58733 42.445 3.79149 42.445C3.95398 42.445 4.11648 42.4616 4.27897 42.4908C4.33314 42.4991 4.38313 42.5074 4.43313 42.5074C4.79562 42.5074 5.12894 42.27 5.23311 41.9075C5.55393 40.8033 6.58307 40.0325 7.7372 40.0325M7.7372 39.1992C6.17058 39.1992 4.84979 40.245 4.43313 41.6783C4.22481 41.6408 4.00815 41.6158 3.78732 41.6158C3.52483 41.6158 3.25817 41.645 2.98318 41.7116C1.54572 42.0616 0.704082 43.2408 0.287428 44.6615C-0.120892 46.0448 0.029103 47.3948 0.029103 47.4073H14.0745C14.9495 47.4073 15.3536 45.9157 14.6203 45.1824C14.6162 45.1782 14.9911 44.6365 14.9036 43.7616C14.7578 42.27 13.5787 41.0533 12.1079 40.7867C11.8954 40.7492 11.6912 40.7325 11.4871 40.7325C11.2038 40.7325 10.9288 40.7658 10.6663 40.8325C10.0538 39.8492 8.97049 39.1992 7.7372 39.1992V39.1992Z" fill="#689F38"/>
<path d="M11.1205 43.0693C11.1205 43.0693 11.1538 42.1277 10.3914 41.1152" stroke="#689F38" stroke-width="5.34038" stroke-miterlimit="10" stroke-linecap="round" stroke-linejoin="round"/>
<path d="M4.48743 42.0703C5.37907 42.087 6.24987 42.7828 6.37903 43.6411" stroke="#689F38" stroke-width="5.34038" stroke-miterlimit="10" stroke-linecap="round" stroke-linejoin="round"/>
<path d="M5.40393 44.0374C6.18724 43.6832 7.24137 43.7374 8.04968 44.1499" stroke="#689F38" stroke-width="5.34038" stroke-miterlimit="10" stroke-linecap="round" stroke-linejoin="round"/>
<path d="M29.1782 7.5L9.74548 24.1578H11.1329V48.7279H47.2235V24.1578H48.6109L29.1782 7.5Z" fill="url(#paint2_radial_1029_969)"/>
<path opacity="0.2" d="M29.1783 9.14774L46.0861 23.639C46.0153 23.7973 45.9736 23.9723 45.9736 24.1556V47.4757H12.383V24.1598C12.383 23.9764 12.3414 23.7973 12.2705 23.6431L29.1783 9.14774ZM29.1783 7.50195L9.74561 24.1598H11.1331V48.7298H47.2236V24.1598H48.6111L29.1783 7.50195Z" fill="#424242"/>
<path opacity="0.2" d="M32.299 15.1399C32.6824 15.1399 32.9949 15.4524 32.9949 15.8358V22.0814C32.9949 22.4647 32.6824 22.7772 32.299 22.7772H26.0534C25.6701 22.7772 25.3576 22.4647 25.3576 22.0814V15.8316C25.3576 15.4483 25.6701 15.1358 26.0534 15.1358H32.299M32.299 14.3066H26.0534C25.2118 14.3066 24.5243 14.99 24.5243 15.8358V22.0814C24.5243 22.923 25.2076 23.6105 26.0534 23.6105H32.299C33.1407 23.6105 33.8282 22.9272 33.8282 22.0814V15.8316C33.8282 14.99 33.1449 14.3066 32.299 14.3066Z" fill="#424242"/>
<path opacity="0.2" d="M40.978 26.9349C41.3613 26.9349 41.6738 27.2474 41.6738 27.6307V37.347C41.6738 37.7304 41.3613 38.0429 40.978 38.0429H34.7282C34.3449 38.0429 34.0324 37.7304 34.0324 37.347V27.6307C34.0324 27.2474 34.3449 26.9349 34.7282 26.9349H40.978ZM40.978 26.1016H34.7282C33.8866 26.1016 33.1991 26.7849 33.1991 27.6307V37.347C33.1991 38.1887 33.8824 38.8762 34.7282 38.8762H40.9739C41.8155 38.8762 42.503 38.1929 42.503 37.347V27.6307C42.503 26.789 41.8197 26.1016 40.978 26.1016Z" fill="#424242"/>
<path d="M29.1783 43.5921H16.687V26.2427C16.687 25.8594 16.9995 25.5469 17.3828 25.5469H28.4866C28.87 25.5469 29.1825 25.8594 29.1825 26.2427V43.5921H29.1783Z" fill="url(#paint3_radial_1029_969)"/>
<path d="M27.7908 42.7485H18.0745C17.8828 42.7485 17.7286 42.5943 17.7286 42.4026V26.7364C17.7286 26.5448 17.8828 26.3906 18.0745 26.3906H27.7908C27.9825 26.3906 28.1366 26.5448 28.1366 26.7364V42.4026C28.1366 42.5943 27.9825 42.7485 27.7908 42.7485V42.7485Z" fill="url(#paint4_radial_1029_969)"/>
<path d="M25.8826 15.6582H32.474V22.2497H25.8826V15.6582Z" fill="#4FC3F7"/>
<path d="M25.3618 15.8306V22.0762C25.3618 22.4595 25.6743 22.772 26.0576 22.772H32.3033C32.6866 22.772 32.9991 22.4595 32.9991 22.0762V15.8306C32.9991 15.4473 32.6866 15.1348 32.3033 15.1348H26.0535C25.6701 15.1389 25.3618 15.4473 25.3618 15.8306ZM32.2991 18.6055H29.5242V15.8306H32.2991V18.6055ZM28.8325 15.8306V18.6055H26.0576V15.8306H28.8325ZM26.0535 19.3013H28.8284V22.0762H26.0535V19.3013ZM29.5242 22.0762V19.3013H32.2991V22.0762H29.5242Z" fill="#EEEEEE"/>
<path d="M34.3948 27.4551H41.3154V37.5173H34.3948V27.4551Z" fill="#4FC3F7"/>
<path d="M26.7492 33.1807H19.1161C18.9244 33.1807 18.7703 33.0265 18.7703 32.8349V27.9767C18.7703 27.785 18.9244 27.6309 19.1161 27.6309H26.7492C26.9408 27.6309 27.095 27.785 27.095 27.9767V32.8349C27.095 33.0265 26.9408 33.1807 26.7492 33.1807Z" fill="url(#paint5_radial_1029_969)"/>
<path d="M26.7492 41.5096H19.1161C18.9244 41.5096 18.7703 41.3554 18.7703 41.1637V34.9181C18.7703 34.7264 18.9244 34.5723 19.1161 34.5723H26.7492C26.9408 34.5723 27.095 34.7264 27.095 34.9181V41.1637C27.095 41.3554 26.9408 41.5096 26.7492 41.5096Z" fill="url(#paint6_radial_1029_969)"/>
<path d="M30.5741 44.7463H15.3037V43.4755C15.3037 43.0005 15.687 42.6172 16.162 42.6172H29.7116C30.1866 42.6172 30.5699 43.0005 30.5699 43.4755V44.7463H30.5741Z" fill="url(#paint7_linear_1029_969)"/>
<path opacity="0.3" d="M29.7157 43.0338C29.9616 43.0338 30.1574 43.2338 30.1574 43.4755V44.3296H15.7203V43.4755C15.7203 43.2297 15.9203 43.0338 16.162 43.0338H29.7157ZM29.7157 42.6172H16.1662C15.6912 42.6172 15.3079 43.0005 15.3079 43.4755V44.7463H30.5782V43.4755C30.5741 43.0005 30.1907 42.6172 29.7157 42.6172Z" fill="#263238"/>
<path opacity="0.2" d="M22.4246 43.4766C22.4561 43.4025 22.3599 43.2905 22.2095 43.2265C22.0592 43.1625 21.9118 43.1706 21.8803 43.2447C21.8487 43.3188 21.945 43.4308 22.0953 43.4948C22.2456 43.5588 22.393 43.5506 22.4246 43.4766Z" fill="#424242"/>
<path opacity="0.2" d="M28.9614 44.1634C29.0063 44.108 28.9588 43.9949 28.8552 43.9108C28.7516 43.8266 28.6311 43.8033 28.5862 43.8587C28.5412 43.9141 28.5888 44.0272 28.6924 44.1113C28.796 44.1954 28.9164 44.2187 28.9614 44.1634Z" fill="#424242"/>
<path opacity="0.08" d="M23.0367 44.0453C23.2346 44.0453 23.395 43.967 23.395 43.8703C23.395 43.7737 23.2346 43.6953 23.0367 43.6953C22.8388 43.6953 22.6783 43.7737 22.6783 43.8703C22.6783 43.967 22.8388 44.0453 23.0367 44.0453Z" fill="#424242"/>
<path opacity="0.08" d="M26.1159 44.0258C26.3138 44.0258 26.4742 43.9474 26.4742 43.8508C26.4742 43.7541 26.3138 43.6758 26.1159 43.6758C25.918 43.6758 25.7576 43.7541 25.7576 43.8508C25.7576 43.9474 25.918 44.0258 26.1159 44.0258Z" fill="#424242"/>
<path opacity="0.08" d="M25.3784 43.5578C25.5142 43.5578 25.6242 43.4906 25.6242 43.4078C25.6242 43.325 25.5142 43.2578 25.3784 43.2578C25.2426 43.2578 25.1326 43.325 25.1326 43.4078C25.1326 43.4906 25.2426 43.5578 25.3784 43.5578Z" fill="#424242"/>
<path opacity="0.08" d="M29.3865 43.6789C29.5821 43.6789 29.7407 43.5838 29.7407 43.4664C29.7407 43.349 29.5821 43.2539 29.3865 43.2539C29.1909 43.2539 29.0323 43.349 29.0323 43.4664C29.0323 43.5838 29.1909 43.6789 29.3865 43.6789Z" fill="#424242"/>
<path opacity="0.08" d="M20.8993 43.476C21.035 43.476 21.1451 43.4219 21.1451 43.3552C21.1451 43.2885 21.035 43.2344 20.8993 43.2344C20.7635 43.2344 20.6534 43.2885 20.6534 43.3552C20.6534 43.4219 20.7635 43.476 20.8993 43.476Z" fill="#424242"/>
<path opacity="0.08" d="M27.9846 43.7671C28.2031 43.7342 28.3671 43.6208 28.351 43.5139C28.3348 43.407 28.1447 43.3469 27.9263 43.3799C27.7078 43.4128 27.5438 43.5261 27.5599 43.6331C27.5761 43.74 27.7662 43.8 27.9846 43.7671Z" fill="#424242"/>
<path opacity="0.2" d="M21.506 44.0131C21.7143 43.9642 21.8636 43.841 21.8394 43.7379C21.8152 43.6349 21.6267 43.591 21.4184 43.6399C21.21 43.6889 21.0608 43.8121 21.085 43.9151C21.1091 44.0181 21.2977 44.062 21.506 44.0131Z" fill="#424242"/>
<path opacity="0.2" d="M26.7532 43.5341C27.0248 43.5341 27.2449 43.4539 27.2449 43.3549C27.2449 43.256 27.0248 43.1758 26.7532 43.1758C26.4817 43.1758 26.2616 43.256 26.2616 43.3549C26.2616 43.4539 26.4817 43.5341 26.7532 43.5341Z" fill="#424242"/>
<path opacity="0.2" d="M23.8734 43.3752C24.0098 43.2853 24.0886 43.1641 24.0494 43.1045C24.0101 43.045 23.8677 43.0696 23.7313 43.1595C23.5948 43.2494 23.5161 43.3706 23.5553 43.4301C23.5946 43.4897 23.737 43.4651 23.8734 43.3752Z" fill="#424242"/>
<path opacity="0.2" d="M25.1616 44.0335C25.2079 43.9332 25.0371 43.7557 24.7802 43.637C24.5233 43.5183 24.2774 43.5033 24.2311 43.6036C24.1848 43.7039 24.3555 43.8814 24.6125 44.0001C24.8694 44.1188 25.1152 44.1337 25.1616 44.0335Z" fill="#424242"/>
<path opacity="0.2" d="M19.5559 44.3235C19.6008 44.2681 19.5533 44.155 19.4497 44.0709C19.3461 43.9868 19.2256 43.9635 19.1807 44.0189C19.1357 44.0742 19.1832 44.1873 19.2868 44.2715C19.3905 44.3556 19.5109 44.3789 19.5559 44.3235Z" fill="#424242"/>
<path opacity="0.08" d="M16.712 44.184C16.9099 44.184 17.0703 44.1056 17.0703 44.009C17.0703 43.9123 16.9099 43.834 16.712 43.834C16.5141 43.834 16.3536 43.9123 16.3536 44.009C16.3536 44.1056 16.5141 44.184 16.712 44.184Z" fill="#424242"/>
<path opacity="0.08" d="M15.9745 43.7219C16.1102 43.7219 16.2203 43.6547 16.2203 43.5719C16.2203 43.489 16.1102 43.4219 15.9745 43.4219C15.8387 43.4219 15.7286 43.489 15.7286 43.5719C15.7286 43.6547 15.8387 43.7219 15.9745 43.7219Z" fill="#424242"/>
<path opacity="0.08" d="M19.9827 43.843C20.1783 43.843 20.3369 43.7478 20.3369 43.6305C20.3369 43.5131 20.1783 43.418 19.9827 43.418C19.7871 43.418 19.6285 43.5131 19.6285 43.6305C19.6285 43.7478 19.7871 43.843 19.9827 43.843Z" fill="#424242"/>
<path opacity="0.08" d="M18.5809 43.9312C18.7994 43.8983 18.9634 43.7849 18.9473 43.678C18.9312 43.571 18.741 43.511 18.5226 43.5439C18.3041 43.5768 18.1401 43.6902 18.1563 43.7972C18.1724 43.9041 18.3625 43.9641 18.5809 43.9312Z" fill="#424242"/>
<path opacity="0.2" d="M17.3494 43.6923C17.621 43.6923 17.8411 43.6121 17.8411 43.5131C17.8411 43.4142 17.621 43.334 17.3494 43.334C17.0779 43.334 16.8578 43.4142 16.8578 43.5131C16.8578 43.6121 17.0779 43.6923 17.3494 43.6923Z" fill="#424242"/>
<path d="M34.728 26.9336C34.3447 26.9336 34.0322 27.2461 34.0322 27.6294V37.3458C34.0322 37.7291 34.3447 38.0416 34.728 38.0416H40.9737C41.357 38.0416 41.6695 37.7291 41.6695 37.3458V27.6294C41.6695 27.2461 41.357 26.9336 40.9737 26.9336H34.728ZM38.1988 27.6294H40.9737V30.4043H38.1988V27.6294ZM34.728 27.6294H37.503V30.4043H34.728V27.6294ZM34.728 31.1001H37.503V33.875H34.728V31.1001ZM37.5071 37.3458H34.7322V34.5709H37.5071V37.3458ZM40.9778 37.3458H38.2029V34.5709H40.9778V37.3458ZM38.1988 33.875V31.1001H40.9737V33.875H38.1988Z" fill="#EEEEEE"/>
<path d="M26.6575 35.6783C25.8534 35.6783 25.1992 35.0241 25.1992 34.22C25.1992 33.4159 25.8534 32.7617 26.6575 32.7617C27.4616 32.7617 28.1158 33.4159 28.1158 34.22C28.1158 35.0241 27.4616 35.6783 26.6575 35.6783Z" fill="#FFC107"/>
<path d="M26.6575 33.179C27.2325 33.179 27.6992 33.6457 27.6992 34.2206C27.6992 34.7956 27.2325 35.2623 26.6575 35.2623C26.0826 35.2623 25.6159 34.7956 25.6159 34.2206C25.6159 33.6457 26.0826 33.179 26.6575 33.179ZM26.6575 32.3457C25.6242 32.3457 24.7826 33.1873 24.7826 34.2206C24.7826 35.2539 25.6242 36.0956 26.6575 36.0956C27.6908 36.0956 28.5325 35.2539 28.5325 34.2206C28.5325 33.1873 27.6908 32.3457 26.6575 32.3457Z" fill="#C62828"/>
<path d="M42.0153 39.4295H33.6906C33.3072 39.4295 32.9948 39.117 32.9948 38.7337V37.3462C32.9948 36.9629 33.3072 36.6504 33.6906 36.6504H42.0195C42.4028 36.6504 42.7153 36.9629 42.7153 37.3462V38.7337C42.7111 39.117 42.3986 39.4295 42.0153 39.4295V39.4295Z" fill="#795548"/>
<path opacity="0.2" d="M42.0153 37.3462V38.7337H33.6906V37.3462H42.0153ZM42.0153 36.6504H33.6906C33.3072 36.6504 32.9948 36.9629 32.9948 37.3462V38.7337C32.9948 39.117 33.3072 39.4295 33.6906 39.4295H42.0195C42.4028 39.4295 42.7153 39.117 42.7153 38.7337V37.3462C42.7111 36.9629 42.3986 36.6504 42.0153 36.6504V36.6504Z" fill="#424242"/>
<path d="M49.4027 23.1879L30.2866 6.53007C29.6491 5.97175 28.7033 5.97175 28.0658 6.53007L8.95394 23.1879C8.2373 23.8129 8.15396 24.9087 8.77061 25.6336C9.38309 26.3628 10.4622 26.4461 11.1789 25.8211L28.4992 10.7299C28.8908 10.3883 29.4741 10.3883 29.8658 10.7299L47.1861 25.8211C47.5069 26.1003 47.9027 26.2378 48.2944 26.2378C48.7735 26.2378 49.2527 26.0336 49.5902 25.6336C50.2027 24.9087 50.1193 23.8129 49.4027 23.1879Z" fill="url(#paint8_radial_1029_969)"/>
<path opacity="0.2" d="M29.1783 7.36324C29.2533 7.36324 29.3616 7.38408 29.47 7.47157L48.586 24.1294C48.786 24.3044 48.811 24.6252 48.636 24.8294C48.5194 24.971 48.3735 24.9919 48.2944 24.9919C48.2194 24.9919 48.1111 24.971 48.0069 24.8835L30.6824 9.78817C30.2658 9.42568 29.7325 9.22568 29.1783 9.22568C28.6242 9.22568 28.0908 9.42568 27.6742 9.78817L10.3539 24.8794C10.2497 24.971 10.1372 24.9877 10.0664 24.9877C9.99141 24.9877 9.84558 24.9669 9.72475 24.8252C9.55392 24.621 9.57475 24.3002 9.77475 24.1252L28.8908 7.46741C28.9908 7.38408 29.1033 7.36324 29.1783 7.36324M29.1783 6.11328C28.7825 6.11328 28.3867 6.25078 28.0658 6.52993L8.95394 23.1878C8.2373 23.8127 8.15396 24.9085 8.77061 25.6335C9.1081 26.0335 9.58725 26.2377 10.0664 26.2377C10.4581 26.2377 10.8539 26.1002 11.1747 25.821L28.495 10.7298C28.6908 10.559 28.9367 10.4756 29.1783 10.4756C29.42 10.4756 29.6658 10.559 29.8616 10.7298L47.1819 25.821C47.5027 26.1002 47.8986 26.2377 48.2902 26.2377C48.7694 26.2377 49.2485 26.0335 49.586 25.6335C50.1985 24.9044 50.1152 23.8127 49.4027 23.1878L30.2866 6.52993C29.97 6.25494 29.5741 6.11328 29.1783 6.11328Z" fill="#424242"/>
<path d="M31.9614 46.6866H13.9161V45.2284C13.9161 44.7284 14.3203 44.3242 14.8203 44.3242H31.0531C31.5531 44.3242 31.9572 44.7284 31.9572 45.2284V46.6866H31.9614Z" fill="url(#paint9_linear_1029_969)"/>
<path opacity="0.3" d="M31.0574 44.7409C31.3282 44.7409 31.5449 44.9617 31.5449 45.2284V46.27H14.3329V45.2284C14.3329 44.9575 14.5537 44.7409 14.8204 44.7409H31.0574ZM31.0574 44.3242H14.8245C14.3246 44.3242 13.9204 44.7284 13.9204 45.2284V46.6866H31.9657V45.2284C31.9615 44.7284 31.5574 44.3242 31.0574 44.3242V44.3242Z" fill="#263238"/>
<path opacity="0.2" d="M29.4685 45.3871C29.635 45.3266 29.7471 45.2143 29.7187 45.1365C29.6904 45.0586 29.5325 45.0446 29.366 45.1052C29.1994 45.1657 29.0874 45.278 29.1157 45.3558C29.144 45.4337 29.302 45.4477 29.4685 45.3871Z" fill="#424242"/>
<path opacity="0.2" d="M22.1874 46.0044C22.3053 45.924 22.3672 45.8095 22.3257 45.7487C22.2842 45.6879 22.155 45.7037 22.0371 45.7841C21.9193 45.8645 21.8574 45.979 21.8989 46.0398C21.9404 46.1007 22.0695 46.0848 22.1874 46.0044Z" fill="#424242"/>
<path opacity="0.08" d="M28.4407 45.9301C28.6594 45.9301 28.8366 45.8517 28.8366 45.7551C28.8366 45.6584 28.6594 45.5801 28.4407 45.5801C28.2221 45.5801 28.0449 45.6584 28.0449 45.7551C28.0449 45.8517 28.2221 45.9301 28.4407 45.9301Z" fill="#424242"/>
<path opacity="0.08" d="M25.041 45.9086C25.2596 45.9086 25.4368 45.8302 25.4368 45.7336C25.4368 45.6369 25.2596 45.5586 25.041 45.5586C24.8224 45.5586 24.6451 45.6369 24.6451 45.7336C24.6451 45.8302 24.8224 45.9086 25.041 45.9086Z" fill="#424242"/>
<path opacity="0.08" d="M25.8576 45.4406C26.0072 45.4406 26.1284 45.3735 26.1284 45.2906C26.1284 45.2078 26.0072 45.1406 25.8576 45.1406C25.708 45.1406 25.5868 45.2078 25.5868 45.2906C25.5868 45.3735 25.708 45.4406 25.8576 45.4406Z" fill="#424242"/>
<path opacity="0.08" d="M21.4368 45.5617C21.6531 45.5617 21.8285 45.4666 21.8285 45.3492C21.8285 45.2319 21.6531 45.1367 21.4368 45.1367C21.2205 45.1367 21.0452 45.2319 21.0452 45.3492C21.0452 45.4666 21.2205 45.5617 21.4368 45.5617Z" fill="#424242"/>
<path opacity="0.08" d="M30.799 45.353C30.9486 45.353 31.0698 45.2989 31.0698 45.2322C31.0698 45.1654 30.9486 45.1113 30.799 45.1113C30.6495 45.1113 30.5282 45.1654 30.5282 45.2322C30.5282 45.2989 30.6495 45.353 30.799 45.353Z" fill="#424242"/>
<path opacity="0.08" d="M23.4492 45.5169C23.4631 45.4096 23.2783 45.2973 23.0364 45.266C22.7945 45.2346 22.5871 45.2962 22.5732 45.4035C22.5594 45.5107 22.7442 45.623 22.9861 45.6544C23.228 45.6857 23.4353 45.6241 23.4492 45.5169Z" fill="#424242"/>
<path opacity="0.2" d="M30.5943 45.7996C30.6156 45.6936 30.4463 45.5701 30.2162 45.5239C29.9861 45.4777 29.7823 45.5262 29.761 45.6322C29.7397 45.7383 29.909 45.8617 30.1391 45.9079C30.3692 45.9541 30.573 45.9056 30.5943 45.7996Z" fill="#424242"/>
<path opacity="0.2" d="M24.341 45.4169C24.6401 45.4169 24.8826 45.3367 24.8826 45.2378C24.8826 45.1388 24.6401 45.0586 24.341 45.0586C24.0418 45.0586 23.7993 45.1388 23.7993 45.2378C23.7993 45.3367 24.0418 45.4169 24.341 45.4169Z" fill="#424242"/>
<path opacity="0.2" d="M27.8781 45.314C27.9147 45.2501 27.8196 45.127 27.6658 45.039C27.5119 44.9511 27.3576 44.9316 27.3211 44.9956C27.2845 45.0595 27.3796 45.1826 27.5334 45.2706C27.6873 45.3585 27.8416 45.378 27.8781 45.314Z" fill="#424242"/>
<path opacity="0.2" d="M26.692 45.8894C26.9778 45.7735 27.1751 45.5949 27.1327 45.4904C27.0904 45.3859 26.8243 45.3951 26.5386 45.5109C26.2528 45.6268 26.0555 45.8054 26.0978 45.9099C26.1402 46.0144 26.4062 46.0052 26.692 45.8894Z" fill="#424242"/>
<path opacity="0.2" d="M19.2301 45.5453C19.3966 45.4848 19.5087 45.3726 19.4803 45.2947C19.452 45.2168 19.2941 45.2028 19.1276 45.2634C18.961 45.324 18.849 45.4362 18.8773 45.514C18.9056 45.5919 19.0636 45.6059 19.2301 45.5453Z" fill="#424242"/>
<path opacity="0.08" d="M18.2036 46.0922C18.4222 46.0922 18.5994 46.0138 18.5994 45.9172C18.5994 45.8205 18.4222 45.7422 18.2036 45.7422C17.985 45.7422 17.8077 45.8205 17.8077 45.9172C17.8077 46.0138 17.985 46.0922 18.2036 46.0922Z" fill="#424242"/>
<path opacity="0.08" d="M15.6204 45.6047C15.77 45.6047 15.8913 45.5375 15.8913 45.4547C15.8913 45.3718 15.77 45.3047 15.6204 45.3047C15.4709 45.3047 15.3496 45.3718 15.3496 45.4547C15.3496 45.5375 15.4709 45.6047 15.6204 45.6047Z" fill="#424242"/>
<path opacity="0.2" d="M20.3581 45.9637C20.3794 45.8576 20.2101 45.7342 19.98 45.688C19.7499 45.6418 19.5461 45.6903 19.5248 45.7963C19.5035 45.9023 19.6727 46.0257 19.9029 46.072C20.133 46.1182 20.3368 46.0697 20.3581 45.9637Z" fill="#424242"/>
<path opacity="0.2" d="M17.638 45.4722C17.6746 45.4083 17.5795 45.2852 17.4257 45.1972C17.2718 45.1093 17.1175 45.0898 17.0809 45.1538C17.0444 45.2177 17.1395 45.3408 17.2933 45.4288C17.4471 45.5167 17.6015 45.5362 17.638 45.4722Z" fill="#424242"/>
<path opacity="0.2" d="M16.4532 46.0476C16.739 45.9317 16.9363 45.7531 16.8939 45.6486C16.8516 45.5441 16.5856 45.5533 16.2998 45.6691C16.014 45.785 15.8167 45.9636 15.8591 46.0681C15.9014 46.1726 16.1674 46.1634 16.4532 46.0476Z" fill="#424242"/>
<path d="M35.0281 48.7997C34.7406 48.7997 34.5865 48.4956 34.5323 48.3664C34.374 47.9831 34.3906 47.4206 34.7281 47.0831C34.8614 46.9498 34.8739 46.7248 34.7823 46.5623C34.5781 46.1998 34.4906 45.7457 34.5365 45.2832C34.674 43.8749 35.8156 42.6666 37.2447 42.4083C37.4447 42.3708 37.6489 42.3541 37.8489 42.3541C38.1155 42.3541 38.3822 42.3874 38.6447 42.4499C38.678 42.4583 38.7113 42.4624 38.7447 42.4624C38.8863 42.4624 39.0197 42.3916 39.0988 42.2666C39.7113 41.2791 40.7738 40.6875 41.9362 40.6875C43.4112 40.6875 44.7278 41.675 45.1403 43.0874C45.1945 43.2666 45.357 43.3874 45.5403 43.3874C45.5653 43.3874 45.5903 43.3832 45.6194 43.3791C45.8278 43.3416 46.0361 43.3208 46.2444 43.3208C46.5028 43.3208 46.7652 43.3541 47.0236 43.4166C48.4152 43.7541 49.4652 44.9832 49.5735 46.3998C49.6402 47.2873 49.3693 48.1331 48.8027 48.8039H35.0281V48.7997Z" fill="url(#paint10_radial_1029_969)"/>
<path d="M41.9362 41.1048C43.2278 41.1048 44.3778 41.9673 44.7402 43.2047C44.8444 43.5672 45.1777 43.8047 45.5402 43.8047C45.5902 43.8047 45.6444 43.8005 45.6944 43.788C45.8777 43.7547 46.061 43.7339 46.2402 43.7339C46.4652 43.7339 46.6944 43.763 46.9193 43.8172C48.1401 44.113 49.0568 45.188 49.1526 46.4255C49.2068 47.1379 49.0109 47.8213 48.5943 48.3837L35.0322 48.3879C34.9989 48.3712 34.8947 48.2546 34.8572 48.0254C34.8239 47.8254 34.8447 47.5504 35.0155 47.3796C35.2239 47.1754 35.378 46.7838 35.1405 46.3588C34.978 46.0671 34.9072 45.7005 34.9447 45.3255C35.0655 44.1005 36.0613 43.0464 37.3155 42.8172C37.4905 42.7839 37.6696 42.7714 37.8446 42.7714C38.078 42.7714 38.3113 42.8006 38.5404 42.8547C38.6071 42.8714 38.6738 42.8797 38.7404 42.8797C39.0238 42.8797 39.2946 42.7339 39.4487 42.4881C39.9946 41.6214 40.9195 41.1048 41.9362 41.1048M41.9362 40.2715C40.5904 40.2715 39.4071 40.9798 38.7446 42.0464C38.4571 41.9756 38.1571 41.9381 37.8488 41.9381C37.628 41.9381 37.403 41.9589 37.1696 42.0006C35.5614 42.2923 34.2781 43.6214 34.1197 45.2463C34.0281 46.2005 34.4364 46.7879 34.4281 46.7963C33.6281 47.5963 34.0697 49.2254 35.0239 49.2254H48.9859C49.6734 48.4879 50.0692 47.4754 49.9859 46.3713C49.8651 44.763 48.686 43.4006 47.1193 43.0172C46.8193 42.9464 46.5277 42.9131 46.2444 42.9131C46.0027 42.9131 45.7694 42.9381 45.5402 42.9797C45.0861 41.4131 43.6444 40.2715 41.9362 40.2715V40.2715Z" fill="#689F38"/>
<path d="M38.2447 44.4943C38.2447 44.4943 38.2114 43.4652 39.0363 42.3652" stroke="#689F38" stroke-width="5.34038" stroke-miterlimit="10" stroke-linecap="round" stroke-linejoin="round"/>
<path d="M45.4777 43.4004C44.5069 43.4171 43.557 44.1795 43.4111 45.1128" stroke="#689F38" stroke-width="5.34038" stroke-miterlimit="10" stroke-linecap="round" stroke-linejoin="round"/>
<path d="M44.482 45.5463C43.6279 45.1588 42.4779 45.2171 41.5946 45.6671" stroke="#689F38" stroke-width="5.34038" stroke-miterlimit="10" stroke-linecap="round" stroke-linejoin="round"/>
<path d="M0 46.666H49.9984V49.9992H0V46.666Z" fill="#689F38"/>
<path opacity="0.2" d="M0 48.75H49.9984V50H0V48.75Z" fill="#424242"/>
<defs>
<radialGradient id="paint0_radial_1029_969" cx="0" cy="0" r="1" gradientUnits="userSpaceOnUse" gradientTransform="translate(8.64551 11.9278) scale(20.5898 20.5898)">
<stop stop-color="#8BC34A"/>
<stop offset="0.7888" stop-color="#558B2F"/>
<stop offset="1" stop-color="#558B2F"/>
</radialGradient>
<radialGradient id="paint1_radial_1029_969" cx="0" cy="0" r="1" gradientUnits="userSpaceOnUse" gradientTransform="translate(4.74293 39.4488) rotate(90) scale(8.4839 10.1756)">
<stop stop-color="#9CCC65"/>
<stop offset="0.3004" stop-color="#96C660"/>
<stop offset="0.3827" stop-color="#93C35E"/>
<stop offset="0.4872" stop-color="#86B854"/>
<stop offset="0.8182" stop-color="#639739"/>
<stop offset="0.9952" stop-color="#558B2F"/>
</radialGradient>
<radialGradient id="paint2_radial_1029_969" cx="0" cy="0" r="1" gradientUnits="userSpaceOnUse" gradientTransform="translate(29.1778 7.62875) scale(44.5486)">
<stop stop-color="#FFD54F"/>
<stop offset="0.179" stop-color="#FFD34B"/>
<stop offset="0.3526" stop-color="#FFCE3F"/>
<stop offset="0.524" stop-color="#FFC62C"/>
<stop offset="0.693" stop-color="#FFBA11"/>
<stop offset="0.7785" stop-color="#FFB300"/>
<stop offset="1" stop-color="#FFB300"/>
</radialGradient>
<radialGradient id="paint3_radial_1029_969" cx="0" cy="0" r="1" gradientUnits="userSpaceOnUse" gradientTransform="translate(22.7147 25.461) scale(18.219)">
<stop stop-color="#D32F2F"/>
<stop offset="0.4374" stop-color="#CA2929"/>
<stop offset="0.9957" stop-color="#B71C1C"/>
</radialGradient>
<radialGradient id="paint4_radial_1029_969" cx="0" cy="0" r="1" gradientUnits="userSpaceOnUse" gradientTransform="translate(22.8881 26.4131) scale(16.3545 16.3545)">
<stop stop-color="#EF5350"/>
<stop offset="1" stop-color="#E53935"/>
</radialGradient>
<radialGradient id="paint5_radial_1029_969" cx="0" cy="0" r="1" gradientUnits="userSpaceOnUse" gradientTransform="translate(22.7581 27.8909) scale(14.4408)">
<stop stop-color="#E53935"/>
<stop offset="0.4072" stop-color="#DC3431"/>
<stop offset="1" stop-color="#C62828"/>
</radialGradient>
<radialGradient id="paint6_radial_1029_969" cx="0" cy="0" r="1" gradientUnits="userSpaceOnUse" gradientTransform="translate(22.7581 27.8908) scale(14.4408 14.4408)">
<stop stop-color="#E53935"/>
<stop offset="0.4072" stop-color="#DC3431"/>
<stop offset="1" stop-color="#C62828"/>
</radialGradient>
<linearGradient id="paint7_linear_1029_969" x1="22.9397" y1="42.7838" x2="22.9397" y2="45.0504" gradientUnits="userSpaceOnUse">
<stop offset="0.0042918" stop-color="#BDBDBD"/>
<stop offset="0.2153" stop-color="#B5B5B5"/>
<stop offset="0.5502" stop-color="#9E9E9E"/>
<stop offset="0.9652" stop-color="#787878"/>
<stop offset="1" stop-color="#757575"/>
</linearGradient>
<radialGradient id="paint8_radial_1029_969" cx="0" cy="0" r="1" gradientUnits="userSpaceOnUse" gradientTransform="translate(29.0041 6.02758) scale(23.4718)">
<stop stop-color="#F44336"/>
<stop offset="0.34" stop-color="#EE3F35"/>
<stop offset="0.8027" stop-color="#DC3531"/>
<stop offset="0.9957" stop-color="#D32F2F"/>
</radialGradient>
<linearGradient id="paint9_linear_1029_969" x1="22.9396" y1="44.3992" x2="22.9396" y2="46.6491" gradientUnits="userSpaceOnUse">
<stop offset="0.0042918" stop-color="#BDBDBD"/>
<stop offset="0.3969" stop-color="#BABABA"/>
<stop offset="0.7025" stop-color="#B0B0B0"/>
<stop offset="0.9786" stop-color="#A0A0A0"/>
<stop offset="1" stop-color="#9E9E9E"/>
</linearGradient>
<radialGradient id="paint10_radial_1029_969" cx="0" cy="0" r="1" gradientUnits="userSpaceOnUse" gradientTransform="translate(41.7156 41.1554) rotate(90) scale(10.3905 12.0707)">
<stop stop-color="#9CCC65"/>
<stop offset="0.2538" stop-color="#96C760"/>
<stop offset="0.5994" stop-color="#84B851"/>
<stop offset="0.9952" stop-color="#689F38"/>
</radialGradient>
</defs>
</svg>
