<svg width="50" height="37" viewBox="0 0 50 37" fill="none" xmlns="http://www.w3.org/2000/svg">
<path d="M45.2877 27.1465H4.67056L0 35.0698H50L45.2877 27.1465Z" fill="url(#paint0_linear_1029_1381)"/>
<path opacity="0.2" d="M6.29691 26.0215H43.6614L48.5405 34.2367H1.45955L6.29691 26.0215ZM5.7965 25.1875L0 35.0707H50L44.1201 25.1875H5.7965Z" fill="#424242"/>
<path d="M9.508 28.3574H6.83911L7.17272 27.6484H9.88332L9.508 28.3574Z" fill="#F5F5F5"/>
<path d="M13.7198 28.3574H11.0092L11.3428 27.6484H14.0951L13.7198 28.3574Z" fill="#F5F5F5"/>
<path d="M17.7231 28.3574H15.0125L15.3878 27.6484H18.0984L17.7231 28.3574Z" fill="#F5F5F5"/>
<path d="M21.6848 28.3574H19.0159L19.4329 27.6484H21.935L21.6848 28.3574Z" fill="#F5F5F5"/>
<path d="M25.6047 28.3574H22.9358L23.1443 27.6484H25.3962L25.6047 28.3574Z" fill="#F5F5F5"/>
<path d="M29.608 28.3574H26.9391L26.6055 27.6484H29.1493L29.608 28.3574Z" fill="#F5F5F5"/>
<path d="M33.6948 28.3574H31.0259L30.5255 27.6484H33.1944L33.6948 28.3574Z" fill="#F5F5F5"/>
<path d="M37.6564 28.3574H34.9875L34.4871 27.6484H37.1977L37.6564 28.3574Z" fill="#F5F5F5"/>
<path d="M43.0359 28.3574H39.0325L38.4904 27.6484H42.6606L43.0359 28.3574Z" fill="#F5F5F5"/>
<path d="M40.9925 29.3996H43.6614L43.2027 28.7324H40.4921L40.9925 29.3996Z" fill="#F5F5F5"/>
<path d="M36.6138 29.3996H39.2827L38.7823 28.7324H36.0717L36.6138 29.3996Z" fill="#F5F5F5"/>
<path d="M32.6106 29.3996H35.2795L34.8207 28.7324H32.1519L32.6106 29.3996Z" fill="#F5F5F5"/>
<path d="M28.2736 29.3996H30.9842L30.4838 28.7324H27.9817L28.2736 29.3996Z" fill="#F5F5F5"/>
<path d="M24.4371 29.3996H27.1477L26.8141 28.7324H24.5622L24.4371 29.3996Z" fill="#F5F5F5"/>
<path d="M20.6005 29.3996H23.2694L23.4362 28.7324H20.8507L20.6005 29.3996Z" fill="#F5F5F5"/>
<path d="M16.3887 29.3996H19.0576L19.3912 28.7324H16.8057L16.3887 29.3996Z" fill="#F5F5F5"/>
<path d="M11.7181 29.3996H14.387L14.804 28.7324H12.1352L11.7181 29.3996Z" fill="#F5F5F5"/>
<path d="M6.21356 29.3996H10.2586L10.6756 28.7324H6.63058L6.21356 29.3996Z" fill="#F5F5F5"/>
<path d="M31.6514 30.4843H34.362L33.9033 29.7754H31.1927L31.6514 30.4843Z" fill="#F5F5F5"/>
<path d="M27.3979 30.4843H30.0668L29.6915 29.7754H27.1894L27.3979 30.4843Z" fill="#F5F5F5"/>
<path d="M22.352 30.4843H25.0209L24.9375 29.7754H22.5605L22.352 30.4843Z" fill="#F5F5F5"/>
<path d="M17.5563 30.4843H20.2252L20.4754 29.7754H17.8899L17.5563 30.4843Z" fill="#F5F5F5"/>
<path d="M12.4688 30.4843H15.1793L15.5964 29.7754H12.9275L12.4688 30.4843Z" fill="#F5F5F5"/>
<path d="M5.7132 30.4843H11.051L11.5097 29.7754H6.08851L5.7132 30.4843Z" fill="#F5F5F5"/>
<path d="M36.1969 30.485H44.2452L43.7865 29.7344H35.7382L36.1969 30.485Z" fill="#F5F5F5"/>
<path d="M42.327 31.5273H44.9959L44.4538 30.8184H41.7849L42.327 31.5273Z" fill="#F5F5F5"/>
<path d="M37.3228 31.5273H39.9917L39.4913 30.8184H36.7807L37.3228 31.5273Z" fill="#F5F5F5"/>
<path d="M15.8883 31.5273H34.1535L33.7365 30.8184H16.3053L15.8883 31.5273Z" fill="#F5F5F5"/>
<path d="M10.1752 31.5273H12.8441L13.1777 30.8184H10.5505L10.1752 31.5273Z" fill="#F5F5F5"/>
<path d="M5.0459 31.5273H7.71479L8.0484 30.8184H5.42121L5.0459 31.5273Z" fill="#F5F5F5"/>
<path d="M15.5964 33.3619H34.2786L33.4863 31.9023H16.3887L15.5964 33.3619Z" fill="#F5F5F5"/>
<path d="M49.0826 36.7377H0.87573C0.375313 36.7377 0 36.3207 0 35.862V35.1113H50V35.862C50 36.3207 49.583 36.7377 49.0826 36.7377V36.7377Z" fill="#9E9E9E"/>
<path opacity="0.2" d="M49.583 35.4873V35.8209C49.583 36.0711 49.3745 36.2797 49.1243 36.2797H0.87573C0.625521 36.2797 0.417014 36.0711 0.417014 35.8209V35.4873H49.583ZM50 35.0703H0V35.8209C0 36.3214 0.417014 36.6967 0.87573 36.6967H49.0826C49.583 36.6967 49.9583 36.2797 49.9583 35.8209V35.0703H50Z" fill="#424242"/>
<path d="M45.2877 27.1476H4.67053V1.16764C4.67053 0.500417 5.21265 0 5.83817 0H44.0784C44.7456 0 45.246 0.542118 45.246 1.16764L45.2877 27.1476Z" fill="url(#paint1_linear_1029_1381)"/>
<path opacity="0.2" d="M44.0784 0.834028C44.2869 0.834028 44.412 1.00083 44.412 1.16764V26.3136H5.50456V1.16764C5.50456 0.959132 5.67137 0.834028 5.83817 0.834028H44.0784ZM44.0784 0H5.83817C5.17095 0 4.67053 0.542118 4.67053 1.16764V27.1476H45.2877V1.16764C45.2877 0.500417 44.7456 0 44.0784 0V0Z" fill="#424242"/>
<path d="M8.34027 3.00195H41.5763V23.811H8.34027V3.00195Z" fill="#616161"/>
<defs>
<linearGradient id="paint0_linear_1029_1381" x1="25" y1="35.0593" x2="25" y2="27.19" gradientUnits="userSpaceOnUse">
<stop stop-color="#E0E0E0"/>
<stop offset="1" stop-color="#9E9E9E"/>
</linearGradient>
<linearGradient id="paint1_linear_1029_1381" x1="24.9791" y1="0.0470809" x2="24.9791" y2="26.9687" gradientUnits="userSpaceOnUse">
<stop offset="0.0056401" stop-color="#E0E0E0"/>
<stop offset="0.9988" stop-color="#9E9E9E"/>
</linearGradient>
</defs>
</svg>
