<svg width="50" height="50" viewBox="0 0 50 50" fill="none" xmlns="http://www.w3.org/2000/svg">
<path d="M49.0833 44.6664L26.6541 22.2331C26.0625 21.6414 25.2791 21.3164 24.4458 21.3164C23.6125 21.3164 22.825 21.6414 22.2375 22.2331C21.6458 22.8247 21.3208 23.6081 21.3208 24.4414C21.3208 25.2747 21.6458 26.0622 22.2375 26.6497L44.6666 49.0789C45.2583 49.6706 46.0417 49.9956 46.875 49.9956C47.7083 49.9956 48.4958 49.6706 49.0833 49.0789C49.675 48.4873 50 47.7039 50 46.8706C50 46.0373 49.675 45.2539 49.0833 44.6664V44.6664Z" fill="url(#paint0_linear_1029_2009)"/>
<path opacity="0.2" d="M24.4458 22.5703C24.9458 22.5703 25.4166 22.7661 25.7708 23.1203L48.2 45.5495C48.5542 45.9037 48.75 46.3745 48.75 46.8745C48.75 47.3745 48.5542 47.8453 48.2 48.1995C47.8458 48.5537 47.375 48.7495 46.875 48.7495C46.375 48.7495 45.9041 48.5537 45.55 48.1995L23.1166 25.7703C22.7625 25.4161 22.5666 24.9453 22.5666 24.4453C22.5666 23.9453 22.7625 23.4745 23.1166 23.1203C23.4708 22.7661 23.9416 22.5703 24.4458 22.5703M24.4458 21.3203C23.6125 21.3203 22.825 21.6453 22.2375 22.237C21.6458 22.8286 21.3208 23.612 21.3208 24.4453C21.3208 25.2786 21.6458 26.0662 22.2375 26.6537L44.6666 49.0828C45.2583 49.6745 46.0417 49.9995 46.875 49.9995C47.7083 49.9995 48.4958 49.6745 49.0833 49.0828C49.675 48.4912 50 47.7078 50 46.8745C50 46.0412 49.675 45.2537 49.0833 44.6662L26.6541 22.2328C26.0625 21.6453 25.2791 21.3203 24.4458 21.3203V21.3203Z" fill="#434343"/>
<path d="M18.75 37.5C29.1054 37.5 37.5 29.1054 37.5 18.75C37.5 8.39467 29.1054 0 18.75 0C8.39467 0 0 8.39467 0 18.75C0 29.1054 8.39467 37.5 18.75 37.5Z" fill="url(#paint1_linear_1029_2009)"/>
<path opacity="0.2" d="M18.75 1.25C28.4 1.25 36.25 9.10001 36.25 18.75C36.25 28.4 28.4 36.25 18.75 36.25C9.10001 36.25 1.25 28.4 1.25 18.75C1.25 9.10001 9.10001 1.25 18.75 1.25ZM18.75 0C8.39584 0 0 8.39584 0 18.75C0 29.1042 8.39584 37.5 18.75 37.5C29.1042 37.5 37.5 29.1042 37.5 18.75C37.5 8.39584 29.1042 0 18.75 0Z" fill="#434343"/>
<path d="M31.0583 8.30791C27.2041 3.88707 16.9958 -0.425429 8.25412 6.25374C5.05829 8.69541 2.38745 14.2746 2.38745 19.5371C2.38745 22.2996 3.01245 24.9121 4.12495 27.2496C3.35829 25.3163 2.93745 23.2246 2.93745 21.0537C2.93745 13.2287 9.20829 5.32457 17.5916 5.17041C27.4083 4.99124 31.7625 11.6871 31.7625 17.9454C31.7625 22.5829 29.7708 25.9663 26.7666 27.8704C24.9166 29.0454 22.6791 29.6538 20.2875 29.6454C14.9916 29.6246 10.975 25.9538 10.975 20.5496C10.975 15.6079 14.9875 12.7329 18.85 12.5704C23.8041 12.3621 25.5583 16.3662 25.525 18.9329C25.4833 22.1662 22.5916 24.0288 20 23.8329C17.7416 23.6621 16.3791 22.2163 16.4541 19.8162C16.5083 18.1996 18.0208 16.9996 19.425 16.9996C20.9875 16.9996 22.0375 18.0996 22.1875 19.1371C22.3291 20.0954 22.0333 21.5871 19.9458 21.5871C19.1 21.5871 18.4541 20.8829 18.3541 20.3454C18.2583 19.8121 18.3333 18.8371 19.2291 18.8371C19.2291 18.8371 18.3916 19.3162 18.8083 20.1162C19.0333 20.5454 19.3583 20.6412 19.7375 20.6496C20.375 20.5954 20.875 20.1037 20.875 19.4954C20.875 18.6912 20.175 18.0371 19.3125 18.0371C18.2333 18.0371 17.3625 18.8537 17.3625 19.8579C17.3625 21.1162 18.35 22.6287 20.0833 22.6996C22.1083 22.7829 24.175 20.8829 23.8041 18.6079C23.4875 16.6704 22.475 14.7496 19.1 14.7496C16.4666 14.7496 13.4208 16.3954 13.4208 20.1787C13.4208 24.3204 16.8125 26.9579 20.1 26.9579C25.1583 26.9579 29.1708 24.3038 29.1708 18.5621C29.1708 17.1871 28.9625 15.7871 28.4708 14.4871C27.6083 12.2037 24.8791 8.35791 18.1416 8.27874C11.6833 8.19958 6.44579 13.5162 6.44579 19.9746C6.44579 27.5788 12.4416 33.2871 20.7041 33.3246C30.6958 33.3746 41.0291 19.7371 31.0583 8.30791V8.30791Z" fill="url(#paint2_linear_1029_2009)"/>
<defs>
<linearGradient id="paint0_linear_1029_2009" x1="10.8562" y1="10.8564" x2="44.2333" y2="44.2331" gradientUnits="userSpaceOnUse">
<stop stop-color="#FAA629"/>
<stop offset="1" stop-color="#FECC81"/>
</linearGradient>
<linearGradient id="paint1_linear_1029_2009" x1="0" y1="18.75" x2="37.5" y2="18.75" gradientUnits="userSpaceOnUse">
<stop offset="0.2047" stop-color="#F48FB1"/>
<stop offset="0.8442" stop-color="#EC407A"/>
</linearGradient>
<linearGradient id="paint2_linear_1029_2009" x1="6.9062" y1="7.07583" x2="32.5" y2="32.6696" gradientUnits="userSpaceOnUse">
<stop stop-color="#FCE4EB"/>
<stop offset="1" stop-color="#F48FB1"/>
</linearGradient>
</defs>
</svg>
