<svg width="50" height="34" viewBox="0 0 50 34" fill="none" xmlns="http://www.w3.org/2000/svg">
<path d="M48.3333 33.3333H1.66667C0.475 33.3333 0 32.5875 0 31.6667V1.66667C0 0.745833 0.745833 0 1.66667 0H48.3333C49.2542 0 50 0.745833 50 1.66667V31.6667C50 32.5875 49.2542 33.3333 48.3333 33.3333Z" fill="#E0E0E0"/>
<path d="M49.9585 1.29167C49.9585 0.591667 49.2543 0 48.3335 0H1.66683C0.745996 0 0.145996 0.633334 0.145996 1.37083L24.9627 21.7292C24.9627 21.7292 48.2668 2.1 48.9627 1.48333C49.6585 0.870833 49.9585 1.29167 49.9585 1.29167Z" fill="#F5F5F5"/>
<path d="M0.445663 32.7344C0.28733 32.6177 0.320663 32.3969 0.553996 32.1385L15.6707 14.5469C15.904 14.2885 16.4873 14.6219 16.7415 14.851C16.9957 15.0844 17.0165 15.476 16.7873 15.7344L1.24566 32.5344C0.953996 32.8135 0.703996 32.9219 0.445663 32.7344V32.7344Z" fill="#BDBDBD"/>
<path d="M49.5541 32.7344C49.7124 32.6177 49.6791 32.3969 49.4458 32.1385L34.3291 14.5469C34.0958 14.2885 33.5124 14.6219 33.2583 14.851C33.0041 15.0844 32.9833 15.476 33.2124 15.7344L48.7583 32.5302C49.0458 32.8135 49.2958 32.9219 49.5541 32.7344V32.7344Z" fill="#BDBDBD"/>
<path d="M49.9586 1.29043C49.9586 1.29043 49.3544 0.632098 48.5586 1.25293L24.9127 20.0113L1.10856 0.977931C0.841896 0.757098 0.450229 0.794598 0.229396 1.06126C0.00856268 1.32793 0.0460626 1.7196 0.312729 1.94043L25.0002 23.3321L49.1752 1.6321C49.4377 1.41126 49.9586 1.29043 49.9586 1.29043Z" fill="#9E9E9E"/>
<path d="M31.0542 6.04492C26.5626 6.04492 24.9126 11.3491 24.9126 11.3491C24.9126 11.3491 23.2834 6.04492 18.7584 6.04492C15.3584 6.04492 11.4792 8.70742 12.9126 14.7616C14.3459 20.8158 24.9209 28.3574 24.9209 28.3574C24.9209 28.3574 35.4626 20.8158 36.8959 14.7616C38.3292 8.71159 34.4542 6.04492 31.0542 6.04492Z" fill="#B71C1C"/>
<path d="M30.3414 6.04492C26.3664 6.04492 24.9081 10.7949 24.9081 10.7949C24.9081 10.7949 23.4664 6.04492 19.4623 6.04492C16.4539 6.04492 13.0248 8.42826 14.2914 13.8449C15.5581 19.2658 24.9164 26.0158 24.9164 26.0158C24.9164 26.0158 34.2414 19.2658 35.5123 13.8449C36.7789 8.43242 33.3498 6.04492 30.3414 6.04492Z" fill="#F44336"/>
</svg>
