<svg width="50" height="51" viewBox="0 0 50 51" fill="none" xmlns="http://www.w3.org/2000/svg">
<path d="M47.9333 28.9794C47.3333 27.8627 46.6875 26.9627 46.0125 26.3794V26.3752C45.9875 26.3502 45.9583 26.3335 45.9333 26.3085C45.8791 26.2627 45.825 26.2169 45.7708 26.1794C45.675 26.1085 45.5791 26.0419 45.4833 25.9835C45.3 25.8752 45.1208 25.7544 44.9458 25.6294C44.8958 25.596 44.8458 25.5585 44.8 25.521C41.8416 23.3294 39.5916 18.8794 37.9166 15.9961C37.1541 14.4211 36.3958 13.3044 35.65 13.3044C35.4958 13.3044 35.3125 13.3836 35.1125 13.5044C34.6708 13.7669 34.1166 14.3127 33.475 15.0794C31.2791 13.7086 31.2083 6.34189 29.275 6.34189C28.3166 6.34189 27.5708 3.76273 26.6291 1.89606C26.625 1.8919 26.625 1.88773 26.6208 1.88356C26.55 1.97106 26.55 1.97106 26.6208 1.88356C26.4875 1.62106 26.3541 1.37523 26.2125 1.15023C25.9333 0.700231 25.6333 0.346065 25.3041 0.154398C25.1416 0.0585651 24.9708 0.00439849 24.7875 0.000231827C24.4458 -0.0081015 24.0583 0.208565 23.6375 0.596065C23.3208 0.887731 22.9833 1.27106 22.6375 1.73356C22.4041 2.0419 22.1666 2.3794 21.925 2.74606C21.8041 2.9294 21.6833 3.1169 21.5625 3.31273C21.3166 3.70023 21.0708 4.11273 20.8208 4.54189C18.3417 8.82522 15.7792 14.7002 15.0417 15.4836C14.8292 15.7086 14.6167 15.8794 14.3958 16.0127C13.7417 16.4169 13.0583 16.4794 12.4083 16.5336C12.1167 16.5586 11.8333 16.5752 11.5625 16.6252C11.1333 16.7002 10.7208 16.8669 10.3375 17.1169C10.1458 17.2419 9.96249 17.3877 9.79166 17.5544C9.70416 17.6377 9.62083 17.7252 9.54166 17.8211C9.46249 17.9127 9.38333 18.0127 9.30833 18.1169C9.22916 18.2252 9.14999 18.3377 9.07083 18.4544C9.04999 18.4836 9.02916 18.5169 9.00833 18.5502C8.94583 18.6419 8.88333 18.7336 8.82083 18.8336L8.75833 18.9335C8.69166 19.0377 8.62083 19.1502 8.54999 19.2586C8.53333 19.2836 8.52083 19.3044 8.50416 19.3294C8.42916 19.4544 8.34999 19.5794 8.27499 19.7127C8.26666 19.7294 8.25833 19.7419 8.24999 19.7585C8.17916 19.8752 8.10833 19.996 8.04166 20.1169C6.19583 23.321 3.98333 28.2752 2.00417 33.0544C0.683333 36.2127 0 39.6044 0 43.0335V46.6669H50V37.446C50 34.5002 49.3333 31.571 47.9333 28.9794V28.9794ZM34.9208 25.4502C34.8791 25.521 34.8458 25.5835 34.8041 25.6502C34.8458 25.5835 34.8791 25.521 34.9208 25.4502ZM34.7583 42.7585C34.425 43.1419 34.0958 43.5377 33.7666 43.9252C34.1 43.5335 34.425 43.1419 34.7583 42.7585C34.9166 42.5794 35.0666 42.4002 35.2166 42.2252C35.0708 42.4002 34.9166 42.5752 34.7583 42.7585ZM34.7833 30.0294C34.9208 30.1419 35.075 30.246 35.2375 30.346C35.075 30.246 34.9208 30.1419 34.7833 30.0294ZM36.8666 16.9752C36.8291 16.8211 36.7916 16.6669 36.75 16.5169C36.7916 16.6669 36.8291 16.8211 36.8666 16.9752L36.9166 17.1877L36.8666 16.9752ZM39.6083 35.1294C39.6541 34.9085 39.6791 34.7044 39.6875 34.5085C39.6791 34.7044 39.65 34.9085 39.6083 35.1294Z" fill="url(#paint0_linear_1029_2024)"/>
<path d="M31.5 46.6674C32.2458 45.7466 33 44.8299 33.7708 43.9258C33 44.8299 32.2417 45.7466 31.5 46.6674Z" fill="url(#paint1_linear_1029_2024)"/>
<path d="M31.5 46.6674C32.2458 45.7466 33 44.8299 33.7708 43.9258C33 44.8299 32.2417 45.7466 31.5 46.6674Z" fill="url(#paint2_linear_1029_2024)"/>
<path d="M8.24154 19.7502C8.24987 19.7336 8.2582 19.721 8.26654 19.7044C8.3457 19.5752 8.4207 19.446 8.4957 19.321C8.51237 19.296 8.52487 19.2752 8.54154 19.2502C8.61237 19.1377 8.67904 19.0294 8.74987 18.9252L8.81237 18.8252C8.87487 18.7294 8.93737 18.6336 8.99987 18.5419C9.0207 18.5127 9.04154 18.4794 9.06237 18.4461C9.14154 18.3294 9.2207 18.2169 9.29987 18.1086C9.37487 18.0044 9.45403 17.9086 9.5332 17.8127C9.61237 17.7211 9.69987 17.6294 9.7832 17.5461C9.95403 17.3794 10.1374 17.2336 10.329 17.1086C10.7124 16.8586 11.1249 16.6919 11.554 16.6169C11.829 16.5711 12.1124 16.5502 12.3999 16.5252C13.054 16.4752 13.7332 16.4086 14.3874 16.0044C14.604 15.8711 14.8207 15.6961 15.0332 15.4752C15.7707 14.6919 18.3332 8.81689 20.8124 4.53356C21.0624 4.1044 21.3082 3.6919 21.554 3.3044C21.6749 3.10856 21.7999 2.92106 21.9165 2.73773C22.1582 2.37106 22.3957 2.03356 22.629 1.72523C22.979 1.2669 23.3124 0.879398 23.629 0.587731C24.0624 0.208565 24.4499 -0.00810145 24.7874 0.00023188C24.9665 0.00439854 25.1374 0.0585651 25.304 0.154398C25.6332 0.346065 25.9332 0.704398 26.2124 1.15023C26.354 1.37523 26.4874 1.62106 26.6207 1.88356C26.5499 1.97106 26.5499 1.97106 26.6207 1.88356C26.6249 1.88773 26.6249 1.8919 26.629 1.89606C27.5707 3.7669 28.3165 6.34189 29.2749 6.34189C31.2082 6.34189 31.279 13.7127 33.4748 15.0794C34.1123 14.3127 34.6665 13.7669 35.1123 13.5044C35.3123 13.3836 35.4957 13.3044 35.6498 13.3044C36.3957 13.3044 37.154 14.4211 37.9165 15.9961C39.7207 19.096 42.1832 24.0169 45.4873 25.9835C45.6665 26.0919 45.8415 26.221 46.0165 26.371C45.3832 27.6335 44.2873 28.971 42.6082 28.421C39.6915 27.4627 38.254 28.4669 36.7707 30.3835C36.604 30.596 36.4248 30.7544 36.2332 30.8794C34.7207 31.8794 32.5499 30.3085 31.6999 29.7127C30.7582 29.0544 27.4999 28.2585 24.5707 29.4669C24.5624 29.471 24.4665 29.5044 24.429 29.521C21.4624 30.8127 19.5957 26.6502 19.7874 22.0585C19.979 17.4669 17.5374 17.9461 16.0082 19.0919C14.829 19.9752 10.1915 20.2919 8.0332 20.1085C8.09987 19.9877 8.1707 19.871 8.24154 19.7502V19.7502Z" fill="url(#paint3_linear_1029_2024)"/>
<path d="M33.7667 43.9252C34.0958 43.5377 34.425 43.1419 34.7583 42.7586C35.3875 42.0377 35.9417 41.3669 36.4333 40.7377C37.7458 39.0669 38.6 37.7169 39.1 36.6127C39.2875 36.2002 39.4292 35.8211 39.5208 35.4711C39.5542 35.3544 39.5792 35.2419 39.6042 35.1336C39.65 34.9127 39.675 34.7086 39.6833 34.5127C39.6875 34.4169 39.6875 34.3211 39.6833 34.2294C39.675 34.0461 39.6542 33.8752 39.6167 33.7127C39.5417 33.3919 39.4125 33.1086 39.2417 32.8586C39.1542 32.7336 39.0583 32.6169 38.95 32.5044C38.6292 32.1711 38.2333 31.9002 37.7958 31.6586C37.5792 31.5377 37.3542 31.4211 37.125 31.3127C36.825 31.1669 36.5208 31.0252 36.225 30.8836C36.075 30.8127 35.925 30.7377 35.7833 30.6627C35.6458 30.5919 35.5083 30.5169 35.3792 30.4377C35.3292 30.4086 35.2833 30.3794 35.2333 30.3461C35.075 30.2461 34.9167 30.1419 34.7792 30.0294C34.6083 29.8877 34.4542 29.7377 34.325 29.5711C34.2375 29.4586 34.1625 29.3419 34.1 29.2169C34.0375 29.0919 33.9875 28.9586 33.95 28.8169C33.9333 28.7461 33.9167 28.6711 33.9042 28.5961C33.8583 28.2919 33.875 27.9502 33.9667 27.5586C34 27.4211 34.0417 27.2794 34.0917 27.1294C34.1333 27.0002 34.1917 26.8669 34.2458 26.7294C34.2542 26.7127 34.2583 26.6961 34.2667 26.6752C34.4042 26.3586 34.5833 26.0169 34.8 25.6502C34.8417 25.5836 34.8708 25.5211 34.9167 25.4503C35.15 25.0711 35.3625 24.7003 35.5542 24.3336C35.8417 23.7878 36.0833 23.2628 36.2792 22.7544C36.4125 22.4169 36.525 22.0836 36.6208 21.7628C36.6583 21.6336 36.6958 21.5044 36.7292 21.3794C36.7792 21.1919 36.825 21.0044 36.8625 20.8211C36.9583 20.3628 37.0167 19.9211 37.05 19.5003C37.0708 19.2169 37.075 18.9461 37.0708 18.6794C37.0667 18.5461 37.0625 18.4169 37.0542 18.2878C37.0375 18.0294 37.0083 17.7836 36.9708 17.5419C36.95 17.4211 36.9292 17.3044 36.9083 17.1878L36.8583 16.9753C36.8208 16.8211 36.7833 16.6669 36.7417 16.5169C36.6458 16.1919 36.5333 15.8878 36.4083 15.6003C36.325 15.4086 36.2375 15.2253 36.1458 15.0503C36.0542 14.8753 35.9583 14.7086 35.8583 14.5503C35.7583 14.3919 35.6583 14.2419 35.5583 14.0961C35.4083 13.8836 35.2542 13.6878 35.1042 13.5086C35.3042 13.3878 35.4875 13.3086 35.6417 13.3086C36.3875 13.3086 37.1458 14.4253 37.9083 16.0003C39.5833 18.8836 41.8333 23.3336 44.7917 25.5253C44.8417 25.5628 44.8875 25.5961 44.9375 25.6336C45.1167 25.7586 45.2917 25.8794 45.475 25.9878C45.5708 26.0461 45.6667 26.1127 45.7625 26.1836C45.8167 26.2252 45.8708 26.2711 45.925 26.3128C45.95 26.3336 45.9792 26.3544 46.0042 26.3794V26.3836C46.6833 26.9711 47.325 27.8711 47.925 28.9836C49.3333 31.5711 50 34.5002 50 37.4461V46.6669H31.5C32.2417 45.7461 33 44.8294 33.7667 43.9252V43.9252Z" fill="url(#paint4_radial_1029_2024)"/>
<path d="M1.99583 33.046C3.975 28.271 6.1875 23.3127 8.03333 20.1085C8.10416 19.9877 8.17499 19.8669 8.24166 19.7502C8.24999 19.7336 8.25833 19.721 8.26666 19.7044C8.34583 19.5752 8.42083 19.446 8.49583 19.321C8.51249 19.296 8.52499 19.2752 8.54166 19.2502C8.61249 19.1377 8.67916 19.0294 8.74999 18.9252L8.81249 18.8252C8.87499 18.7294 8.93749 18.6336 8.99999 18.5419C9.02083 18.5127 9.04166 18.4794 9.06249 18.4461C9.14166 18.3294 9.22083 18.2169 9.29999 18.1086C9.37499 18.0044 9.45416 17.9086 9.53333 17.8127C9.61249 17.7211 9.69999 17.6294 9.78333 17.5461C9.95416 17.3794 10.1375 17.2336 10.3292 17.1086C10.7125 16.8586 11.125 16.6919 11.5542 16.6169C11.8292 16.5711 12.1125 16.5502 12.4 16.5252C13.0542 16.4752 13.7333 16.4086 14.3875 16.0044C14.6042 15.8711 14.8208 15.6961 15.0333 15.4752C15.7708 14.6919 18.3333 8.81689 20.8125 4.53356C21.0625 4.1044 21.3083 3.6919 21.5541 3.3044C21.675 3.10856 21.8 2.92106 21.9166 2.73773C22.1583 2.37106 22.3958 2.03356 22.6291 1.72523C22.9791 1.2669 23.3125 0.879398 23.6291 0.587731C24.0625 0.208565 24.45 -0.00810145 24.7875 0.00023188C24.9666 0.00439854 25.1375 0.0585651 25.3041 0.154398C25.6333 0.346065 25.9333 0.704398 26.2125 1.15023C26.3541 1.37523 26.4875 1.62106 26.6208 1.88356C26.55 1.97106 26.55 1.97106 26.6208 1.88356C26.625 1.88773 26.625 1.8919 26.6291 1.89606C21.825 7.63356 22.8125 13.4336 24.325 18.0419C24.4958 18.2502 24.6583 18.4586 24.8083 18.6794C25.5666 19.7919 26.0958 21.0585 27.1083 21.9835C27.4625 22.3085 27.8583 22.571 28.275 22.8002C30.8 18.7711 33.425 15.1502 33.475 15.0794C34.1125 14.3127 34.6666 13.7669 35.1125 13.5044C35.2625 13.6836 35.4166 13.8794 35.5666 14.0919C35.6666 14.2336 35.7666 14.3836 35.8666 14.5461C35.9666 14.7044 36.0625 14.8711 36.1541 15.0461C36.2458 15.2211 36.3333 15.4044 36.4166 15.5961C36.5416 15.8836 36.6541 16.1877 36.75 16.5127C36.7916 16.6627 36.8333 16.8127 36.8666 16.9711L36.9166 17.1836C36.9416 17.3002 36.9625 17.4169 36.9791 17.5377C37.0166 17.7794 37.0458 18.0252 37.0625 18.2836C37.0708 18.4127 37.075 18.5419 37.0791 18.6752C37.0833 18.9419 37.0791 19.2127 37.0583 19.496C37.0291 19.9169 36.9666 20.3585 36.8708 20.8169C36.8333 21.0002 36.7875 21.1877 36.7375 21.3752C36.7041 21.5002 36.6708 21.6294 36.6291 21.7585C36.5333 22.0794 36.4166 22.4127 36.2875 22.7502C36.0875 23.2585 35.85 23.7835 35.5625 24.3294C35.3708 24.6919 35.1583 25.0627 34.925 25.446C34.8833 25.5169 34.85 25.5794 34.8083 25.646C34.5916 26.0127 34.4125 26.3544 34.275 26.671C34.2666 26.6877 34.2625 26.7044 34.2541 26.7252C34.1958 26.8627 34.1416 26.996 34.1 27.1252C34.05 27.2752 34.0083 27.4169 33.975 27.5544C33.8833 27.946 33.8666 28.2877 33.9125 28.5919C33.925 28.6669 33.9375 28.7419 33.9583 28.8127C33.9958 28.9544 34.0458 29.0877 34.1083 29.2127C34.1708 29.3377 34.2458 29.4544 34.3333 29.5669C34.4625 29.7335 34.6166 29.8835 34.7875 30.0252C34.925 30.1377 35.0833 30.2419 35.2416 30.3419C35.2916 30.371 35.3375 30.4044 35.3875 30.4335C35.5166 30.5127 35.6541 30.5835 35.7916 30.6585C35.9375 30.7335 36.0833 30.8085 36.2333 30.8794C36.5291 31.021 36.8333 31.1627 37.1333 31.3085C37.3625 31.421 37.5875 31.5335 37.8041 31.6544C38.2375 31.896 38.6375 32.1669 38.9583 32.5002C39.0666 32.6127 39.1625 32.7294 39.25 32.8544C39.425 33.1044 39.5541 33.3877 39.625 33.7085C39.6625 33.871 39.6833 34.0419 39.6916 34.2252C39.6958 34.3169 39.6958 34.4085 39.6916 34.5085C39.6833 34.7044 39.6541 34.9085 39.6125 35.1294C39.5916 35.2377 39.5625 35.3502 39.5291 35.4669C39.4333 35.8169 39.2958 36.196 39.1083 36.6085C38.6083 37.7127 37.7541 39.0627 36.4416 40.7335C35.95 41.3585 35.3916 42.0335 34.7666 42.7544C34.4333 43.1377 34.1041 43.5335 33.775 43.921C33.0083 44.8252 32.25 45.7419 31.5041 46.6627H0V43.0294C0 39.6044 0.683333 36.2127 1.99583 33.046V33.046Z" fill="url(#paint5_radial_1029_2024)"/>
<path d="M25.3626 27.1465C25.1834 27.3881 24.8001 27.2215 24.8626 26.9256C25.2501 24.9798 25.8126 22.1923 24.8959 19.684C23.1376 14.859 21.2334 8.33815 26.6251 1.89648C27.5668 3.76732 28.3126 6.34231 29.2709 6.34231C31.2043 6.34231 31.2751 13.7131 33.4709 15.0798C33.4126 15.1673 27.4293 24.3215 25.3626 27.1465Z" fill="url(#paint6_linear_1029_2024)"/>
<path opacity="0.7" d="M47.9333 28.9794C47.3333 27.8627 46.6875 26.9627 46.0125 26.3794V26.3752C45.9875 26.3502 45.9583 26.3335 45.9333 26.3085C45.8791 26.2627 45.825 26.2169 45.7708 26.1794C45.675 26.1085 45.5791 26.0419 45.4833 25.9835C45.3 25.8752 45.1208 25.7544 44.9458 25.6294C44.8958 25.596 44.8458 25.5585 44.8 25.521C41.8416 23.3294 39.5916 18.8794 37.9166 15.9961C37.1541 14.4211 36.3958 13.3044 35.65 13.3044C35.4958 13.3044 35.3125 13.3836 35.1125 13.5044C34.6708 13.7669 34.1166 14.3127 33.475 15.0794C33.425 15.1502 30.8 18.7669 28.275 22.8002C27.8625 22.5669 27.4666 22.3085 27.1083 21.9835C26.0958 21.0585 25.5666 19.7919 24.8083 18.6794C24.6583 18.4586 24.4916 18.2461 24.325 18.0419C22.8083 13.4336 21.825 7.63356 26.6291 1.89606C26.625 1.8919 26.625 1.88773 26.6208 1.88356C26.55 1.97106 26.55 1.97106 26.6208 1.88356C26.4875 1.62106 26.3541 1.37523 26.2125 1.15023C25.9333 0.700231 25.6333 0.346065 25.3041 0.154398C25.1416 0.0585651 24.9708 0.00439849 24.7875 0.000231827C24.4458 -0.0081015 24.0583 0.208565 23.6375 0.596065C23.3208 0.887731 22.9833 1.27106 22.6375 1.73356C22.4041 2.0419 22.1666 2.3794 21.925 2.74606C21.8041 2.9294 21.6833 3.1169 21.5625 3.31273C21.3166 3.70023 21.0708 4.11273 20.8208 4.54189C18.3417 8.82522 15.7792 14.7002 15.0417 15.4836C14.8292 15.7086 14.6167 15.8794 14.3958 16.0127C13.7417 16.4169 13.0583 16.4794 12.4083 16.5336C12.1167 16.5586 11.8333 16.5752 11.5625 16.6252C11.1333 16.7002 10.7208 16.8669 10.3375 17.1169C10.1458 17.2419 9.96249 17.3877 9.79166 17.5544C9.70416 17.6377 9.62083 17.7252 9.54166 17.8211C9.46249 17.9127 9.38333 18.0127 9.30833 18.1169C9.22916 18.2252 9.14999 18.3377 9.07083 18.4544C9.04999 18.4836 9.02916 18.5169 9.00833 18.5502C8.94583 18.6419 8.88333 18.7336 8.82083 18.8336L8.75833 18.9335C8.69166 19.0377 8.62083 19.1502 8.54999 19.2586C8.53333 19.2836 8.52083 19.3044 8.50416 19.3294C8.42916 19.4544 8.34999 19.5794 8.27499 19.7127C8.26666 19.7294 8.25833 19.7419 8.24999 19.7585C8.17916 19.8752 8.10833 19.996 8.04166 20.1169C6.19583 23.321 3.98333 28.2752 2.00417 33.0544C0.683333 36.2127 0 39.6044 0 43.0335V46.6669H50V37.446C50 34.5002 49.3333 31.571 47.9333 28.9794V28.9794ZM34.9208 25.4502C34.8791 25.521 34.8458 25.5835 34.8041 25.6502C34.8458 25.5835 34.8791 25.521 34.9208 25.4502ZM34.7583 42.7585C34.425 43.1419 34.0958 43.5377 33.7666 43.9252C34.1 43.5335 34.425 43.1419 34.7583 42.7585C34.9166 42.5794 35.0666 42.4002 35.2166 42.2252C35.0708 42.4002 34.9166 42.5752 34.7583 42.7585ZM34.7833 30.0294C34.9208 30.1419 35.075 30.246 35.2375 30.346C35.075 30.246 34.9208 30.1419 34.7833 30.0294ZM36.8666 16.9752C36.8291 16.8211 36.7916 16.6669 36.75 16.5169C36.7916 16.6669 36.8291 16.8211 36.8666 16.9752L36.9166 17.1877L36.8666 16.9752ZM39.6083 35.1294C39.6541 34.9085 39.6791 34.7044 39.6875 34.5085C39.6791 34.7044 39.65 34.9085 39.6083 35.1294Z" fill="url(#paint7_linear_1029_2024)"/>
<path opacity="0.2" d="M24.7583 1.3C24.8375 1.375 24.9708 1.52083 25.1458 1.8C25.1666 1.8375 25.2166 1.95 25.2458 2.01667C25.325 2.19166 25.4333 2.4375 25.6083 2.65416C25.8166 3.08333 26.0166 3.55416 26.2166 4.01666C27.0041 5.84583 27.6875 7.43749 29.0666 7.58333C29.4083 8.03749 29.8291 9.62499 30.0875 10.6C30.6791 12.8333 31.2916 15.1417 32.7541 16.1042L32.7666 16.1167L32.825 16.15L32.8375 16.1583L32.8416 16.1625L33.7458 16.7125L34.4333 15.8833C35.0541 15.1333 35.4375 14.8 35.6375 14.6542C35.8333 14.8542 36.2125 15.35 36.7875 16.5417L36.8083 16.5833L36.8333 16.625C37.0625 17.0167 37.3 17.4375 37.55 17.8792C39.2166 20.8208 41.2875 24.4791 44.0541 26.525C44.1083 26.5666 44.1666 26.6083 44.2208 26.6458C44.4541 26.8125 44.6541 26.9416 44.8416 27.0541C44.8916 27.0833 44.95 27.125 45.025 27.1791C45.0541 27.2 45.0791 27.225 45.1083 27.2458L45.1333 27.2666C45.1416 27.275 45.15 27.2833 45.1583 27.2875L45.1916 27.3166C45.7208 27.775 46.2708 28.5333 46.8333 29.5666C48.0875 31.8916 48.75 34.6125 48.75 37.4375V45.4166H1.25V43.0333C1.25 39.7666 1.8875 36.5708 3.15 33.5291C5.54166 27.7583 7.54999 23.4541 9.11666 20.7375L9.29166 20.4375C9.29999 20.4208 9.30833 20.4083 9.32083 20.3916L9.37916 20.2917C9.44166 20.1875 9.50416 20.0833 9.56666 19.9833L9.59583 19.9375L9.61249 19.9125C9.67916 19.8083 9.74166 19.7042 9.80833 19.6042L9.81249 19.5833L9.85833 19.5125C9.91666 19.4208 9.97499 19.3333 10.0333 19.25L10.0625 19.2083L10.0958 19.1625C10.1708 19.0542 10.2417 18.9542 10.3125 18.8542C10.3667 18.7792 10.425 18.7083 10.4833 18.6417C10.5417 18.575 10.6 18.5125 10.6583 18.4542C10.775 18.3417 10.8958 18.2417 11.025 18.1583C11.2625 18 11.5167 17.9 11.775 17.8542C11.975 17.8208 12.2083 17.8 12.4542 17.7833L12.5083 17.7792C13.1917 17.725 14.125 17.65 15.0542 17.075C15.375 16.875 15.675 16.6292 15.95 16.3375C16.425 15.8333 17.0417 14.6125 18.3833 11.9042C19.4042 9.84583 20.675 7.28333 21.9 5.16666C22.15 4.7375 22.3916 4.3375 22.6166 3.975C22.7333 3.7875 22.85 3.60833 22.9666 3.43333C23.2 3.08333 23.425 2.7625 23.6333 2.4875C23.95 2.07083 24.2333 1.74583 24.4833 1.51667C24.6041 1.40833 24.6916 1.34167 24.7583 1.3M24.7708 0C24.4333 0 24.0541 0.216666 23.6375 0.595833C23.3208 0.887499 22.9833 1.27083 22.6375 1.73333C22.4041 2.04166 22.1666 2.37916 21.925 2.74583C21.8041 2.92916 21.6833 3.11666 21.5625 3.3125C21.3166 3.7 21.0708 4.1125 20.8208 4.54166C18.3417 8.82499 15.7792 14.7 15.0417 15.4833C14.8292 15.7083 14.6167 15.8792 14.3958 16.0125C13.7417 16.4167 13.0583 16.4792 12.4083 16.5333C12.1167 16.5583 11.8333 16.575 11.5625 16.625C11.1333 16.7 10.7208 16.8667 10.3375 17.1167C10.1458 17.2417 9.96249 17.3875 9.79166 17.5542C9.70416 17.6375 9.62083 17.725 9.54166 17.8208C9.46249 17.9125 9.38333 18.0125 9.30833 18.1167C9.22916 18.225 9.14999 18.3375 9.07083 18.4542C9.04999 18.4833 9.02916 18.5167 9.00833 18.55C8.94583 18.6417 8.88333 18.7333 8.82083 18.8333L8.75833 18.9333C8.69166 19.0375 8.62083 19.15 8.54999 19.2583C8.53333 19.2833 8.52083 19.3042 8.50416 19.3292C8.42916 19.4542 8.34999 19.5792 8.27499 19.7125C8.26666 19.7292 8.25833 19.7416 8.24999 19.7583C8.17916 19.875 8.10833 19.9958 8.04166 20.1166C6.19583 23.3208 3.98333 28.275 2.00417 33.0541C0.683333 36.2125 0 39.6041 0 43.0333V46.6666H50V37.4458C50 34.5 49.3333 31.5708 47.9333 28.9791C47.3333 27.8625 46.6875 26.9625 46.0125 26.3791V26.375C45.9875 26.35 45.9583 26.3333 45.9333 26.3083C45.8791 26.2625 45.825 26.2166 45.7708 26.1791C45.675 26.1083 45.5791 26.0416 45.4833 25.9833C45.3 25.875 45.1208 25.7541 44.9458 25.6291C44.8958 25.5958 44.8458 25.5583 44.8 25.5208C41.8416 23.3291 39.5916 18.8792 37.9166 15.9958C37.1541 14.4208 36.3958 13.3042 35.65 13.3042C35.4958 13.3042 35.3125 13.3833 35.1125 13.5042C34.6708 13.7667 34.1166 14.3125 33.475 15.0792C31.2791 13.7083 31.2083 6.34166 29.275 6.34166C28.3166 6.34166 27.5708 3.7625 26.6291 1.89583C26.625 1.89167 26.625 1.8875 26.6208 1.88333C26.6166 1.8875 26.6125 1.89167 26.6041 1.89167C26.525 1.89167 26.3416 1.35833 26.2125 1.15C25.9333 0.7 25.6333 0.345833 25.3041 0.154166C25.1416 0.0583332 24.9708 0.00416666 24.7875 0H24.7708Z" fill="#424242"/>
<path opacity="0.2" d="M13.8832 20.7622C13.9124 20.5706 13.6457 20.4872 13.5624 20.6622C12.4541 23.0122 7.82491 29.9081 6.15825 32.8497C5.99575 33.1372 6.34158 33.4414 6.60408 33.2456C7.40825 32.6497 8.98741 31.2539 9.07491 30.8372C9.19991 30.2414 10.3082 28.5706 10.6624 28.0456C10.7332 27.9456 10.8041 27.8456 10.8791 27.7497L12.3332 25.9206C12.6166 25.5622 12.8207 25.1497 12.9249 24.7039L13.8832 20.7622Z" fill="#EEEEEE"/>
<path opacity="0.2" d="M18.9374 15.93C19.0041 15.7884 18.8374 15.6509 18.7124 15.7425L17.1874 16.8342C17.0791 16.9467 16.9999 17.0842 16.9666 17.2384L15.7708 21.9967C15.7708 22.1842 16.0333 22.2217 16.0874 22.0425L18.9374 15.93Z" fill="#EEEEEE"/>
<path opacity="0.2" d="M24.0166 28.6134C24.0791 28.4425 23.8541 28.3217 23.7458 28.4676C22.3208 30.3842 16.8958 35.7592 14.8625 38.1092C14.6625 38.3384 14.9208 38.6759 15.1958 38.5467C16.0291 38.155 17.7041 37.1842 17.8583 36.8217C18.0791 36.305 19.3791 35.005 19.7958 34.5967C19.875 34.5175 19.9583 34.4425 20.0458 34.3717L21.6875 32.9884C22.0083 32.7175 22.2666 32.38 22.4416 32.0009L24.0166 28.6134Z" fill="#EEEEEE"/>
<path opacity="0.2" d="M17.1666 32.5541C17.2791 32.4666 17.2041 32.2875 17.0625 32.3083L15.3541 32.55C15.2166 32.5958 15.0958 32.675 15.0041 32.7875L12.0041 36.1583C11.925 36.3083 12.125 36.4541 12.2416 36.3291L17.1666 32.5541Z" fill="#EEEEEE"/>
<path opacity="0.2" d="M43.8292 34.1916C43.9292 34.2958 44.1 34.175 44.0333 34.0458C43.1292 32.3333 41.0917 26.4875 40.0833 24.175C39.9833 23.95 39.65 24.0208 39.65 24.2666C39.6458 25.0125 39.7708 26.5791 39.9792 26.8166C40.2792 27.1583 40.7792 28.5666 40.9333 29.0125C40.9625 29.1 40.9875 29.1833 41.0125 29.275L41.4542 30.9583C41.5417 31.2875 41.6958 31.5916 41.9125 31.8541L43.8292 34.1916Z" fill="#424242"/>
<path opacity="0.2" d="M43.8833 28.2412C43.8542 28.1287 43.9542 28.1287 44.05 28.237L45.6792 30.2245C45.8083 30.3328 45.9208 30.4912 45.9792 30.6412L47.2958 34.1412L46.0958 32.2953C46.0417 32.212 45.9583 32.187 45.9667 32.2578L46.2833 34.9078C46.2917 35.0245 46.125 34.9287 45.8333 34.7953L43.8833 28.2412Z" fill="#424242"/>
<path opacity="0.2" d="M34.3374 17.5636C34.4041 17.4844 34.529 17.5177 34.5499 17.6177L34.8457 19.3552C34.9124 19.4636 34.9166 19.5969 34.8541 19.7052L33.4082 22.2594L33.5291 20.7469C33.5332 20.6761 33.4541 20.6386 33.3999 20.6844L31.4374 22.4011C31.3416 22.4719 31.2166 22.3636 30.9666 22.1844L34.3374 17.5636Z" fill="#424242"/>
<path opacity="0.2" d="M25.6416 6.04115C25.6125 5.92449 25.7124 5.92449 25.8124 6.03699L27.4916 8.08698C27.625 8.19948 27.7416 8.36198 27.7999 8.51615L29.1583 12.1245L27.9208 10.2203C27.8625 10.1328 27.7791 10.1078 27.7875 10.1828L28.1166 12.9161C28.125 13.0328 27.9541 12.937 27.6499 12.7995L25.6416 6.04115Z" fill="#424242"/>
<path d="M50 36.9052C50 36.1136 49.1666 35.5886 48.4583 35.9386C46.7666 36.7719 45.3708 38.1094 44.4625 39.7594C44.2166 40.0469 44.0166 40.3927 43.8708 40.8052C43.8625 40.8344 43.85 40.8636 43.8416 40.8927C43.7708 41.1052 43.55 41.2177 43.3291 41.1636C43.1958 41.1302 43.0625 41.1136 42.9208 41.1136C42.3625 41.1136 41.85 41.3761 41.4333 41.8219C41.1375 42.1386 40.6375 42.1511 40.2958 41.8844C39.4 41.1927 38.2916 40.7844 37.0916 40.7844C36.175 40.7844 35.3125 41.0261 34.5583 41.4427C34.1958 41.6427 33.7458 41.5177 33.5 41.1844C32.0166 39.1677 29.675 37.8594 27.0333 37.8594C25.0333 37.8594 23.2083 38.6094 21.7916 39.8469C21.6333 39.9886 21.4 39.9886 21.2375 39.8511C20.8625 39.5261 20.425 39.3386 19.9542 39.3386C19.4958 39.3386 19.0667 39.5177 18.7 39.8261C18.5583 39.9469 18.3583 39.9511 18.2 39.8511C17.2875 39.2636 16.2125 38.9219 15.0583 38.9219C13.4333 38.9219 11.9667 39.5969 10.8958 40.6844C10.7333 40.8511 10.4708 40.8386 10.3 40.6761C9.90416 40.2927 9.42499 40.0636 8.90833 40.0636C8.34166 40.0636 7.82083 40.3344 7.40416 40.7886C7.24166 40.9677 6.96249 40.9844 6.79999 40.8094C5.3125 39.2094 3.22083 38.2094 0.904166 38.2177C0.4 38.2344 0 38.6552 0 39.1594V50.0011H50V36.9052Z" fill="url(#paint8_linear_1029_2024)"/>
<path opacity="0.2" d="M48.75 37.1926V48.7509H1.25V39.4884C3.0125 39.5717 4.65 40.3384 5.88749 41.6717C6.19583 42.0051 6.63333 42.1967 7.08749 42.1967C7.55416 42.1967 8.00833 41.9967 8.32499 41.6509C8.45833 41.5051 8.67083 41.3301 8.90833 41.3301C9.07499 41.3301 9.25416 41.4176 9.42916 41.5884C9.74583 41.8967 10.1667 42.0676 10.6042 42.0676C11.05 42.0676 11.4708 41.8926 11.7833 41.5759C12.6667 40.6801 13.8292 40.1842 15.0542 40.1842C15.925 40.1842 16.775 40.4384 17.5167 40.9134C17.7917 41.0884 18.1083 41.1842 18.4292 41.1842C18.8208 41.1842 19.1958 41.0467 19.4958 40.7967C19.65 40.6676 19.8042 40.6009 19.9458 40.6009C20.0958 40.6009 20.2542 40.6717 20.4125 40.8092C20.7167 41.0717 21.1041 41.2176 21.5041 41.2176C21.9083 41.2176 22.3 41.0717 22.6083 40.8009C23.8458 39.7176 25.4166 39.1217 27.025 39.1217C29.1791 39.1217 31.1708 40.1467 32.4833 41.9342C32.8833 42.4759 33.5166 42.8009 34.1791 42.8009C34.5208 42.8009 34.8625 42.7134 35.1583 42.5467C35.7583 42.2134 36.4041 42.0467 37.0833 42.0467C37.9708 42.0467 38.8125 42.3384 39.525 42.8842C39.9 43.1717 40.3666 43.3301 40.8375 43.3301C41.4083 43.3301 41.9583 43.0926 42.3416 42.6842C42.475 42.5426 42.6833 42.3717 42.9166 42.3717C42.9541 42.3717 42.9916 42.3759 43.0291 42.3842C43.1625 42.4176 43.2958 42.4301 43.4291 42.4301C44.15 42.4301 44.7875 41.9717 45.0166 41.2926L45.0416 41.2176C45.1291 40.9676 45.25 40.7509 45.4041 40.5717L45.4875 40.4717L45.55 40.3592C46.3 39.0092 47.4 37.9217 48.75 37.1926ZM48.925 35.8301C48.7708 35.8301 48.6083 35.8634 48.4583 35.9426C46.7666 36.7759 45.3708 38.1134 44.4625 39.7634C44.2166 40.0509 44.0166 40.3967 43.8708 40.8092C43.8625 40.8384 43.85 40.8676 43.8416 40.8967C43.7833 41.0759 43.6208 41.1842 43.4375 41.1842C43.4 41.1842 43.3666 41.1801 43.3291 41.1717C43.1958 41.1384 43.0625 41.1217 42.9208 41.1217C42.3625 41.1217 41.85 41.3842 41.4333 41.8301C41.275 41.9967 41.0625 42.0801 40.8416 42.0801C40.65 42.0801 40.4541 42.0176 40.2958 41.8926C39.4 41.2009 38.2916 40.7926 37.0916 40.7926C36.175 40.7926 35.3125 41.0342 34.5583 41.4509C34.4416 41.5176 34.3125 41.5467 34.1833 41.5467C33.9208 41.5467 33.6625 41.4176 33.4958 41.1926C32.0125 39.1759 29.6708 37.8676 27.0291 37.8676C25.0291 37.8676 23.2041 38.6176 21.7875 39.8551C21.7083 39.9259 21.6083 39.9634 21.5083 39.9634C21.4125 39.9634 21.3125 39.9301 21.2333 39.8592C20.8583 39.5342 20.4208 39.3467 19.95 39.3467C19.4917 39.3467 19.0625 39.5259 18.6958 39.8342C18.6208 39.8967 18.5292 39.9301 18.4333 39.9301C18.35 39.9301 18.2708 39.9051 18.1958 39.8592C17.2833 39.2717 16.2083 38.9301 15.0542 38.9301C13.4292 38.9301 11.9625 39.6051 10.8917 40.6926C10.8125 40.7717 10.7083 40.8134 10.6042 40.8134C10.4958 40.8134 10.3833 40.7717 10.2958 40.6884C9.89999 40.3051 9.42083 40.0759 8.90416 40.0759C8.33749 40.0759 7.81666 40.3467 7.39999 40.8009C7.31249 40.8926 7.19583 40.9426 7.07916 40.9426C6.97499 40.9426 6.87083 40.9009 6.79583 40.8176C5.31666 39.2217 3.2375 38.2259 0.929166 38.2259H0.895833C0.4 38.2342 0 38.6551 0 39.1592V50.0009H50V36.9051C50 36.2842 49.4875 35.8301 48.925 35.8301V35.8301Z" fill="#424242"/>
<path opacity="0.2" d="M19.2498 42.8804C20.5082 43.2679 21.1415 44.3679 20.9707 45.6471C20.854 46.5388 22.2498 46.5638 22.3665 45.6804C22.4457 45.0929 22.3832 44.5263 22.2123 44.0096C24.1873 44.0054 25.8873 45.0638 26.7457 46.8721C27.1332 47.6846 28.3582 47.0221 27.9748 46.2096C26.8832 43.9096 24.5207 42.4888 21.979 42.6179C21.7957 42.6263 21.6498 42.6971 21.5373 42.7971C21.0582 42.2221 20.404 41.7763 19.6332 41.5388C18.779 41.2721 18.3915 42.6138 19.2498 42.8804V42.8804Z" fill="#424242"/>
<path opacity="0.2" d="M42.5208 44.7627C43.3958 45.0586 43.8166 45.8377 43.6749 46.7294C43.5749 47.3502 44.5499 47.3919 44.6499 46.7794C44.7166 46.371 44.6833 45.9752 44.5749 45.6085C45.9541 45.6419 47.1249 46.4127 47.6916 47.6919C47.9458 48.2669 48.8166 47.8252 48.5624 47.2544C47.8416 45.6252 46.2166 44.5877 44.4374 44.6336C44.3083 44.6377 44.2041 44.6836 44.1249 44.7502C43.7999 44.3377 43.3499 44.0169 42.8166 43.8377C42.2208 43.6336 41.9249 44.5627 42.5208 44.7627Z" fill="#424242"/>
<path opacity="0.2" d="M8.34585 44.0748C6.45002 44.1164 4.98335 45.2998 4.51252 47.1456C4.31669 47.9123 3.12502 47.6289 3.31669 46.8623C3.92085 44.4956 5.86252 42.9039 8.31252 42.8498C9.10418 42.8331 9.13752 44.0581 8.34585 44.0748Z" fill="#424242"/>
<defs>
<linearGradient id="paint0_linear_1029_2024" x1="16.4171" y1="13.0786" x2="26.2275" y2="44.5627" gradientUnits="userSpaceOnUse">
<stop stop-color="#607D8B"/>
<stop offset="0.4004" stop-color="#57727F"/>
<stop offset="1" stop-color="#455A64"/>
</linearGradient>
<linearGradient id="paint1_linear_1029_2024" x1="40.2983" y1="20.3866" x2="31.4096" y2="49.2758" gradientUnits="userSpaceOnUse">
<stop stop-color="#78909C"/>
<stop offset="0.427" stop-color="#6C8490"/>
<stop offset="1" stop-color="#546E7A"/>
</linearGradient>
<linearGradient id="paint2_linear_1029_2024" x1="29.9983" y1="22.8933" x2="32.915" y2="47.6841" gradientUnits="userSpaceOnUse">
<stop stop-color="#546E7A"/>
<stop offset="0.3702" stop-color="#4C636E"/>
<stop offset="1" stop-color="#37474F"/>
</linearGradient>
<linearGradient id="paint3_linear_1029_2024" x1="27.0215" y1="-0.416434" x2="27.0215" y2="29.3298" gradientUnits="userSpaceOnUse">
<stop stop-color="#E1F5FE"/>
<stop offset="0.3507" stop-color="#D5F1FD"/>
<stop offset="0.9908" stop-color="#B4E5FC"/>
<stop offset="1" stop-color="#B3E5FC"/>
</linearGradient>
<radialGradient id="paint4_radial_1029_2024" cx="0" cy="0" r="1" gradientUnits="userSpaceOnUse" gradientTransform="translate(38.5417 19.1669) scale(15.7633)">
<stop stop-color="#546E7A"/>
<stop offset="0.3702" stop-color="#4C636E"/>
<stop offset="1" stop-color="#37474F"/>
</radialGradient>
<radialGradient id="paint5_radial_1029_2024" cx="0" cy="0" r="1" gradientUnits="userSpaceOnUse" gradientTransform="translate(19.7917 2.81273) scale(34.8179 34.8179)">
<stop stop-color="#90A4AE"/>
<stop offset="0.2263" stop-color="#849AA5"/>
<stop offset="0.6332" stop-color="#65818E"/>
<stop offset="0.6858" stop-color="#607D8B"/>
<stop offset="0.6966" stop-color="#5F7C8A"/>
<stop offset="0.8475" stop-color="#57717E"/>
<stop offset="1" stop-color="#546E7A"/>
</radialGradient>
<linearGradient id="paint6_linear_1029_2024" x1="24.8618" y1="7.25023" x2="29.3409" y2="21.6252" gradientUnits="userSpaceOnUse">
<stop stop-color="#607D8B"/>
<stop offset="0.4004" stop-color="#57727F"/>
<stop offset="1" stop-color="#455A64"/>
</linearGradient>
<linearGradient id="paint7_linear_1029_2024" x1="25" y1="42.1544" x2="25" y2="32.9485" gradientUnits="userSpaceOnUse">
<stop stop-color="#37474F"/>
<stop offset="1" stop-color="#37474F" stop-opacity="0"/>
</linearGradient>
<linearGradient id="paint8_linear_1029_2024" x1="25" y1="39.5844" x2="25" y2="49.8011" gradientUnits="userSpaceOnUse">
<stop stop-color="#4CAF50"/>
<stop offset="0.2673" stop-color="#48A84C"/>
<stop offset="0.6672" stop-color="#3B933F"/>
<stop offset="1" stop-color="#2E7D32"/>
</linearGradient>
</defs>
</svg>
