<svg width="50" height="51" viewBox="0 0 50 51" fill="none" xmlns="http://www.w3.org/2000/svg">
<path d="M22.7651 13.7752C31.128 28.6748 27.3861 49.6161 27.3861 49.6161C27.3861 49.6161 28.1285 50.8066 31.2987 50.9132C33.9313 51.0028 35.2796 49.7655 35.2796 49.7569C36.965 31.4482 30.2661 16.8302 25.7519 12.9219C25.7689 12.9219 23.2942 13.1821 22.7651 13.7752V13.7752Z" fill="url(#paint0_linear_1029_1943)"/>
<path opacity="0.2" d="M25.3252 14.2744C29.3146 18.2553 35.4929 31.6999 34.0593 49.0529C33.6241 49.2961 32.7878 49.6417 31.5718 49.6417C31.495 49.6417 31.4224 49.6417 31.3414 49.6375C29.9419 49.5905 29.161 49.3132 28.7642 49.1041C29.016 47.4017 29.5792 42.9386 29.4896 37.2681C29.3914 30.9874 28.4399 22.0784 24.5572 14.4152C24.7705 14.3683 25.0223 14.3171 25.3252 14.2744M25.7519 12.9219C25.7391 12.9261 23.2899 13.1864 22.7651 13.7752C31.128 28.6748 27.3861 49.6161 27.3861 49.6161C27.3861 49.6161 28.1285 50.8066 31.2987 50.9132C31.3926 50.9175 31.4822 50.9175 31.5718 50.9175C34.0252 50.9175 35.2796 49.7655 35.2839 49.7569C36.965 31.4482 30.2661 16.8302 25.7519 12.9219V12.9219Z" fill="#424242"/>
<path d="M26.9594 10.3611C37.6349 1.2686 50 12.3878 50 12.3878C50 9.93442 45.5711 0.807786 36.1842 0.867521C27.9194 0.922989 26.6735 5.59511 24.8986 7.80103C22.7652 -5.21263 7.8144 1.61421 9.03897 3.24838C10.1227 4.69482 18.3192 2.69797 21.5193 8.59892C19.2622 6.95621 13.8775 4.83135 7.33226 7.10555C0.577954 9.45654 -0.463139 18.3869 0.151277 19.3939C0.151277 19.3939 9.12004 8.47091 20.9859 11.2144C-6.15928 15.1612 5.73222 35.4284 5.73222 35.4284C8.18561 24.6548 17.5213 16.5479 22.586 13.8257C10.2635 25.346 16.0237 39.853 25.6794 40.0152C24.3482 35.4839 20.8793 25.4015 25.8927 13.9879C26.4261 14.2012 38.373 17.1879 47.2266 31.375C47.2266 31.375 54.2668 7.85223 26.9594 10.3611Z" fill="url(#paint1_linear_1029_1943)"/>
<path opacity="0.2" d="M16.557 1.28199C20.5209 1.28199 22.9017 3.54764 23.6313 8.01069C23.7124 8.5099 24.0793 8.91098 24.5658 9.04325C24.6724 9.07312 24.7834 9.08592 24.8943 9.08592C25.274 9.08592 25.6453 8.91524 25.8927 8.60804C26.2469 8.16856 26.5626 7.67361 26.8997 7.1488C28.3845 4.82341 30.0699 2.19081 36.197 2.14814H36.2823C40.8435 2.14814 43.907 4.54607 45.6778 6.55572C46.3775 7.35361 46.9493 8.16856 47.3973 8.93658C44.7305 7.3152 40.7624 5.50609 36.3421 5.50609C32.5916 5.50609 29.1568 6.81173 26.1317 9.38886C25.705 9.75153 25.5642 10.3446 25.7818 10.8609C25.9823 11.3345 26.4474 11.6417 26.9594 11.6417C26.9978 11.6417 27.0362 11.6417 27.0789 11.6374C28.3931 11.518 29.6603 11.454 30.8465 11.454C37.221 11.454 41.7438 13.182 44.2868 16.5912C46.9877 20.2094 46.9535 25.0351 46.5652 28.0816C39.1197 17.6963 30.1808 13.9884 26.4901 12.8364C26.4261 12.8151 26.3749 12.8023 26.345 12.7895C26.1957 12.734 26.0421 12.7084 25.8927 12.7084C25.3978 12.7084 24.9284 12.9943 24.7194 13.4722C20.1326 23.913 22.3854 33.3212 23.8916 38.5011C21.1353 37.8184 18.8355 35.7021 17.6621 32.6556C16.6808 30.104 16.5826 27.2026 17.3805 24.2714C18.2979 20.9134 20.3971 17.628 23.4564 14.765C23.9257 14.3255 23.9983 13.6044 23.6228 13.0839C23.3753 12.7383 22.9828 12.5505 22.5817 12.5505C22.3769 12.5505 22.1678 12.6017 21.9758 12.7041C16.9069 15.4263 8.91523 22.4879 5.49328 31.7425C4.52045 28.9606 3.66283 24.7151 5.48048 20.9433C7.60533 16.5357 12.8833 13.6898 21.1609 12.4865C21.771 12.3969 22.2318 11.8892 22.2574 11.2748C22.283 10.6604 21.8649 10.1142 21.2675 9.97341C19.9022 9.65766 18.5112 9.49979 17.1245 9.49979C10.1526 9.49979 4.58445 13.4252 1.58065 16.1218C2.19933 13.4508 3.8719 9.67046 7.74613 8.32643C9.50831 7.71628 11.2961 7.40481 13.0668 7.40481C16.4717 7.40481 19.2707 8.5611 20.7598 9.64486C20.9859 9.807 21.2505 9.89234 21.515 9.89234C21.818 9.89234 22.1166 9.78567 22.3598 9.5766C22.8121 9.18405 22.9273 8.53124 22.6414 8.00216C20.1667 3.43671 15.1149 2.97589 12.0982 2.69855C11.8337 2.67295 11.535 2.64735 11.2449 2.61749C12.4225 1.986 14.3938 1.28199 16.557 1.28199M16.557 0.00195312C12.3799 0.00195312 8.38188 2.37428 9.03897 3.25324C10.1227 4.69967 18.3192 2.70282 21.5193 8.60377C19.9704 7.47307 16.941 6.11624 13.0753 6.11624C11.3132 6.11624 9.38031 6.39785 7.33226 7.1104C0.577954 9.45713 -0.463139 18.3875 0.151277 19.3944C0.151277 19.3944 7.22986 10.7756 17.133 10.7756C18.3789 10.7756 19.6632 10.9121 20.9902 11.2193C-6.15501 15.1661 5.73648 35.4332 5.73648 35.4332C8.18561 24.6554 17.5213 16.5485 22.586 13.8263C10.2635 25.3466 16.0237 39.8536 25.6794 40.0158C24.3482 35.4844 20.8793 25.4021 25.8927 13.9884C26.4261 14.2018 38.373 17.1885 47.2266 31.3755C47.2266 31.3755 53.5713 10.1739 30.8465 10.1739C29.6347 10.1739 28.3419 10.2337 26.9594 10.3617C30.0571 7.72482 33.2998 6.78613 36.3378 6.78613C43.7705 6.78613 50 12.3884 50 12.3884C50 9.94354 45.601 0.868108 36.2781 0.868108H36.1842C27.9194 0.923576 26.6735 5.59569 24.8986 7.80162C23.9087 1.77266 20.1667 0.00195312 16.557 0.00195312V0.00195312Z" fill="#424242"/>
<path d="M27.6377 22.0922L30.3386 22.0879L28.7257 23.1034L27.6377 22.0922Z" fill="#A1887F"/>
<path d="M28.3929 26.7892L31.593 26.6484L29.7284 27.9285L28.3929 26.7892Z" fill="#A1887F"/>
<path d="M30.168 31.6326L32.711 30.7109L31.5333 32.2171L30.168 31.6326Z" fill="#A1887F"/>
<path d="M29.2462 35.2295L31.9513 35.1484L30.3598 36.2109L29.2462 35.2295Z" fill="#A1887F"/>
<path d="M31.2133 38.865L33.752 37.9434L32.5786 39.4495L31.2133 38.865Z" fill="#A1887F"/>
<path d="M31.5377 43.3298L34.0807 42.4082L32.9031 43.9144L31.5377 43.3298Z" fill="#6D4C41"/>
<path d="M29.2378 42.9424L32.0027 42.7461L30.3002 44.0261L29.2378 42.9424Z" fill="#A1887F"/>
<path d="M31.2262 46.069L33.9953 45.877L32.2929 47.157L31.2262 46.069Z" fill="#A1887F"/>
<defs>
<linearGradient id="paint0_linear_1029_1943" x1="26.8472" y1="17.7604" x2="32.5006" y2="49.9745" gradientUnits="userSpaceOnUse">
<stop stop-color="#8D6E63"/>
<stop offset="0.9977" stop-color="#5D4037"/>
</linearGradient>
<linearGradient id="paint1_linear_1029_1943" x1="5.50181" y1="2.19154" x2="43.8473" y2="36.1098" gradientUnits="userSpaceOnUse">
<stop stop-color="#9CCC65"/>
<stop offset="0.9952" stop-color="#689F38"/>
</linearGradient>
</defs>
</svg>
