<svg width="50" height="41" viewBox="0 0 50 41" fill="none" xmlns="http://www.w3.org/2000/svg">
<path d="M25 40.2888C38.8071 40.2888 50 34.5114 50 27.3846C50 20.2579 38.8071 14.4805 25 14.4805C11.1929 14.4805 0 20.2579 0 27.3846C0 34.5114 11.1929 40.2888 25 40.2888Z" fill="url(#paint0_radial_1029_1842)"/>
<path opacity="0.2" d="M25 34.4206C35.3875 34.4206 43.8083 30.6336 43.8083 25.9622C43.8083 21.2908 35.3875 17.5039 25 17.5039C14.6124 17.5039 6.19165 21.2908 6.19165 25.9622C6.19165 30.6336 14.6124 34.4206 25 34.4206Z" fill="#424242"/>
<path opacity="0.2" d="M25 15.7344C31.4833 15.7344 37.5583 17.026 42.1042 19.376C46.3917 21.5844 48.75 24.4302 48.75 27.3844C48.75 30.3385 46.3917 33.1844 42.1042 35.3969C37.5542 37.7427 31.4833 39.0385 25 39.0385C18.5167 39.0385 12.4417 37.7469 7.89583 35.3969C3.60833 33.1885 1.25 30.3427 1.25 27.3844C1.25 24.426 3.60833 21.5844 7.89583 19.3719C12.4417 17.026 18.5167 15.7344 25 15.7344M25 14.4844C11.1917 14.4844 0 20.2594 0 27.3885C0 34.5177 11.1917 40.2927 25 40.2927C38.8083 40.2927 50 34.5177 50 27.3885C50 20.2594 38.8083 14.4844 25 14.4844Z" fill="#424242"/>
<path d="M43.8083 20.1016C43.8083 20.1016 44.3958 21.2057 44.3958 22.5016C44.3958 24.6599 42.5124 27.0849 41.8999 27.6766C38.7999 30.6557 32.1749 32.8432 24.4833 32.8432C16.2166 32.8432 9.15412 30.3599 6.42495 27.0432C5.64578 26.0932 4.69995 24.8516 4.69995 22.6932C4.69995 20.9641 5.56245 20.1016 5.56245 20.1016" fill="url(#paint1_linear_1029_1842)"/>
<path d="M24.1375 12.7539C28.7625 12.7539 32.4042 13.6164 35.8 14.8289C37.4542 15.4206 39.5 16.0956 40.7167 16.7789C43.1458 18.1497 43.9542 19.6206 43.75 21.2247C43.2708 24.9914 35.2958 29.7414 24.4833 29.7414C16.7958 29.7414 10.5 27.1164 8.99584 26.2164C6.62084 24.7914 5.21667 23.0539 5.21667 21.2289C5.21667 19.0789 6.85834 16.9081 10.1917 15.5331C13.7292 14.0664 17.225 12.7539 24.1375 12.7539V12.7539Z" fill="url(#paint2_radial_1029_1842)"/>
<path d="M42.3834 13.4214C42.3834 13.4214 43.1042 14.9422 43.2501 16.2297C43.5001 18.4005 41.1292 21.0005 40.5042 21.5797C37.3459 24.5005 30.6792 26.5547 22.9876 26.4047C14.7251 26.2422 7.70839 23.6255 5.04589 20.2505C4.28339 19.288 3.40006 17.5505 3.44173 15.3922C3.47506 13.663 4.69589 12.3672 4.69589 12.3672" fill="url(#paint3_linear_1029_1842)"/>
<path d="M23.0375 6.31314C27.6625 6.40481 31.2834 7.33814 34.6584 8.61731C36.3 9.23814 38.3334 9.95481 39.5334 10.6631C41.9334 12.084 42.9625 13.6256 42.4792 15.1673C41.375 18.7215 37.0959 23.3381 23.05 23.309C13.6 23.2881 9.12087 20.4131 7.63754 19.4798C5.29171 18.009 3.92087 16.2423 3.95421 14.4173C3.99587 12.2673 5.67921 10.1298 9.03754 8.81731C12.6084 7.42147 16.125 6.17564 23.0375 6.31314V6.31314Z" fill="url(#paint4_radial_1029_1842)"/>
<path opacity="0.78" d="M33.4292 22.0504C34.1292 21.4962 34.6376 20.7046 34.8542 19.8337C34.9542 19.4296 34.9917 18.9921 34.8667 18.5962C34.7417 18.1962 34.4292 17.8421 34.0209 17.7462C33.7626 17.6879 33.4959 17.7337 33.2334 17.7796C31.5334 18.0879 29.7126 18.7087 27.9917 18.8212C26.4501 18.9212 25.0126 18.8046 23.4709 19.2254C23.2001 19.3004 22.9209 19.3879 22.7209 19.5879C22.4209 19.8879 22.3834 20.3837 22.5376 20.7796C22.6917 21.1754 23.0001 21.4921 23.3292 21.7629C23.6917 22.0629 24.0876 22.3254 24.5042 22.5421C24.8459 22.7212 25.2042 22.8712 25.5709 22.9879C26.3751 23.2462 27.2292 23.3546 27.9876 23.7296C28.7459 24.1046 29.4126 24.8462 29.3459 25.6879C29.2209 27.2754 27.6292 26.6921 26.9584 27.8129C26.7084 28.2296 26.7501 28.7962 27.0501 29.1754C27.5834 29.8421 28.7084 29.4962 29.0876 29.8504C29.4626 30.2004 30.3751 31.2462 29.2959 32.1671C28.5792 32.7754 24.4501 32.7379 23.4667 33.7129C22.4834 34.6879 25.0251 35.4337 25.8167 35.5546C29.8917 36.1629 34.1959 35.3421 37.3917 33.9587C38.4459 33.5004 42.8292 31.1129 41.1542 30.1962C40.5667 29.8754 39.9042 29.9629 37.8626 30.6004C36.5792 31.0004 35.2459 31.2921 33.9042 31.3962C33.1084 31.4587 32.0709 30.6337 32.2459 30.0504C32.5042 29.1796 33.3167 28.8754 33.8292 28.1796C34.1959 27.6796 34.3042 26.8921 33.8251 26.4962C33.5251 26.2462 33.1001 26.2379 32.7084 26.1962C32.1001 26.1296 31.4584 25.9212 31.0959 25.4296C29.8792 23.7921 32.5126 22.7796 33.4292 22.0504V22.0504Z" fill="url(#paint5_linear_1029_1842)"/>
<path opacity="0.78" d="M22.725 19.5922C22.45 19.8755 22.4084 20.3172 22.5209 20.6797C22.6375 21.0505 22.9 21.3505 23.1875 21.6047C23.7709 22.113 24.4459 22.513 25.1625 22.7922C25.8792 23.0755 26.6542 23.1797 27.4042 23.4172C28.15 23.638 28.8959 24.0839 29.2709 24.8214C29.4625 25.1839 29.5084 25.6297 29.4042 26.0255C29.35 26.2255 29.2667 26.4255 29.1209 26.588C28.975 26.7464 28.7959 26.863 28.6125 26.9505C28.2459 27.1214 27.8667 27.213 27.5584 27.4047C27.4 27.4964 27.2667 27.6172 27.1625 27.7589C27.05 27.9005 26.9792 28.0547 26.95 28.2297C26.8875 28.5714 26.9959 28.9464 27.2417 29.1755C27.4875 29.4089 27.8625 29.4672 28.2417 29.4964C28.4334 29.513 28.6292 29.5214 28.8417 29.5714C28.9459 29.6005 29.0584 29.6297 29.1625 29.7172C29.2542 29.7922 29.3167 29.8589 29.3875 29.938C29.6542 30.238 29.9 30.5964 29.9584 31.038C29.9875 31.2547 29.9584 31.488 29.8709 31.6922C29.775 31.8922 29.65 32.0755 29.4959 32.213C29.4292 32.2922 29.325 32.3547 29.225 32.413C29.125 32.4589 29.0292 32.4964 28.9292 32.5339C28.7334 32.5922 28.5417 32.6422 28.3459 32.6797C27.5709 32.838 26.8042 32.9255 26.0417 33.0547C25.6625 33.1214 25.2834 33.188 24.9125 33.2797C24.5459 33.3714 24.175 33.4797 23.8667 33.6547C23.7125 33.738 23.5875 33.8505 23.4959 33.9714C23.425 34.0964 23.4167 34.2005 23.4875 34.3255C23.65 34.5755 24 34.7714 24.3375 34.9172C24.6792 35.0672 25.0459 35.1839 25.4125 35.2714C25.775 35.3714 26.1542 35.3922 26.5375 35.4464C27.3 35.5214 28.0709 35.563 28.8375 35.5547C30.375 35.5339 31.9125 35.3464 33.4125 35.013C34.9084 34.6714 36.4 34.2172 37.7709 33.5547C38.4542 33.2089 39.125 32.8214 39.7584 32.3922C40.075 32.1755 40.3792 31.9464 40.6625 31.7005C40.9334 31.4547 41.2084 31.1672 41.3125 30.8714C41.3584 30.7255 41.3459 30.6089 41.2584 30.5047C41.1709 30.4047 41.0042 30.313 40.8459 30.263C40.5292 30.1589 40.1542 30.1964 39.7875 30.2672C39.0417 30.4089 38.3084 30.6547 37.5584 30.8797C36.8084 31.1005 36.0417 31.2797 35.2667 31.4047C34.8792 31.4672 34.4917 31.513 34.1 31.5464C33.9167 31.5672 33.675 31.5755 33.4709 31.5214C33.2625 31.4714 33.0667 31.388 32.8875 31.2839C32.5417 31.063 32.1959 30.7839 32.0792 30.313C32.0584 30.1964 32.075 30.0464 32.1125 29.9505C32.1459 29.8505 32.1875 29.7547 32.2375 29.6589C32.3375 29.4714 32.4667 29.3089 32.6084 29.1589C32.8917 28.8672 33.2084 28.638 33.4709 28.3714C33.7375 28.1089 33.9334 27.8005 33.9917 27.4422C34.0584 27.0922 33.9625 26.7214 33.675 26.5339C33.3917 26.3422 32.9959 26.3422 32.6042 26.2922C32.2084 26.238 31.8125 26.1297 31.4625 25.9047C31.1084 25.6839 30.85 25.3297 30.7375 24.9297C30.6125 24.5214 30.7459 24.0672 31.0042 23.7547C31.2542 23.4339 31.5667 23.188 31.8917 22.9672C32.5292 22.513 33.2584 22.2047 33.7959 21.6505C34.3334 21.1047 34.7209 20.4047 34.8792 19.6505C34.9584 19.2755 34.9709 18.8755 34.8375 18.513C34.7042 18.1547 34.4125 17.838 34.0334 17.7422C34.4167 17.8297 34.7167 18.1422 34.8625 18.5047C35.0084 18.8714 35.0042 19.2797 34.9334 19.663C34.7875 20.4297 34.4125 21.1547 33.875 21.7255C33.6084 22.013 33.2834 22.2505 32.9542 22.4589C32.625 22.6714 32.2959 22.8714 31.9834 23.0964C31.6709 23.3214 31.375 23.5672 31.1542 23.8672C30.925 24.163 30.8292 24.538 30.9417 24.8797C31.05 25.2214 31.2792 25.538 31.5917 25.7214C31.9042 25.913 32.2709 26.013 32.6459 26.0589C33.0125 26.1089 33.4417 26.088 33.825 26.3255C34.2167 26.5714 34.3417 27.0797 34.2625 27.4797C34.2042 27.8964 33.9625 28.2755 33.6834 28.5589C33.4042 28.8505 33.0875 29.0839 32.8334 29.3505C32.7084 29.4839 32.5959 29.6297 32.5167 29.788C32.4792 29.8672 32.4417 29.9505 32.4167 30.0339C32.3834 30.1214 32.3875 30.1672 32.3959 30.2464C32.4667 30.5422 32.7584 30.8214 33.0625 30.9964C33.2209 31.0839 33.3875 31.1547 33.5584 31.1922C33.7334 31.2339 33.8834 31.2255 34.0875 31.2047C34.4709 31.1672 34.85 31.1172 35.2292 31.0505C35.9875 30.9214 36.7375 30.7464 37.475 30.5255C38.2125 30.3047 38.9542 30.0505 39.7375 29.8964C40.125 29.8255 40.5542 29.7672 40.9834 29.9005C41.1917 29.9714 41.3875 30.063 41.5625 30.2505C41.7417 30.438 41.7792 30.7589 41.6959 30.9755C41.5375 31.4172 41.2334 31.7005 40.9417 31.9755C40.6417 32.2422 40.325 32.4797 40 32.7047C39.35 33.1505 38.6709 33.5422 37.9709 33.9005C36.5459 34.5922 35.05 35.0589 33.5209 35.4089C31.9917 35.7422 30.425 35.9255 28.8584 35.9422C28.075 35.9464 27.2917 35.9047 26.5084 35.8214C26.125 35.7672 25.725 35.738 25.3334 35.6297C24.9459 35.5297 24.5709 35.4089 24.2 35.2464C23.8375 35.0755 23.4542 34.9047 23.1834 34.5005C23.1292 34.3922 23.0667 34.2672 23.0834 34.1255C23.0792 34.0547 23.0875 33.988 23.1167 33.9297C23.1417 33.8714 23.1625 33.8047 23.1959 33.7589C23.3292 33.563 23.5125 33.4214 23.6959 33.3214C24.0667 33.113 24.4542 33.0089 24.8375 32.913C25.2209 32.8172 25.6084 32.7505 25.9959 32.6839C26.7667 32.5589 27.5417 32.4672 28.2917 32.3255C28.6584 32.2464 29.0625 32.1797 29.2792 31.9589C29.5459 31.7214 29.7042 31.4005 29.6584 31.063C29.6209 30.7255 29.4209 30.4005 29.1792 30.1255C29.1209 30.0589 29.05 29.9839 28.9917 29.9339C28.95 29.8922 28.8667 29.8672 28.7875 29.8422C28.6209 29.8005 28.425 29.788 28.2334 29.7672C27.85 29.7297 27.4042 29.6714 27.0709 29.3547C26.75 29.0422 26.6334 28.5797 26.7125 28.163C26.75 27.9505 26.85 27.7464 26.9792 27.5839C27.1084 27.4172 27.2709 27.2755 27.45 27.1714C27.8084 26.9589 28.1959 26.8714 28.5334 26.7172C29.25 26.4672 29.4375 25.5339 29.1084 24.8922C28.7834 24.2172 28.1 23.7755 27.375 23.5422C26.65 23.2964 25.8709 23.1714 25.1459 22.8672C24.4209 22.5714 23.75 22.1505 23.175 21.6255C22.8917 21.363 22.6292 21.0505 22.5209 20.6672C22.3875 20.313 22.4417 19.8714 22.725 19.5922V19.5922Z" fill="#823315"/>
<path d="M43.8249 7.30859C43.8249 7.30859 44.5374 9.08359 44.5374 10.3794C44.5374 12.5378 42.6124 14.3419 41.9999 14.9336C38.8958 17.9128 32.2708 20.1003 24.5791 20.1003C16.3124 20.1003 9.24994 17.6169 6.52078 14.3003C5.74161 13.3503 4.79578 12.1086 4.79578 9.95026C4.79578 8.22109 5.65828 7.35859 5.65828 7.35859" fill="url(#paint6_linear_1029_1842)"/>
<path d="M24.2333 0.0136719C28.8583 0.0136719 32.5 0.876172 35.8958 2.08867C37.55 2.68034 39.5958 3.35117 40.8125 4.03867C43.2417 5.40951 44.2958 6.93034 43.8458 8.4845C42.8083 12.0553 37.3125 14.4845 35.8958 14.9637C32.6292 16.0762 28.6958 17.0553 24.5792 16.997C15.1292 16.872 10.5958 14.372 9.09167 13.472C6.71667 12.047 5.3125 10.3095 5.3125 8.4845C5.3125 6.3345 6.95417 4.16367 10.2875 2.78867C13.8292 1.32617 17.3208 0.0136719 24.2333 0.0136719V0.0136719Z" fill="url(#paint7_radial_1029_1842)"/>
<path opacity="0.78" d="M15.9375 3.53935C15.4458 3.94769 14.225 4.58102 13.6125 4.76435C9.64582 5.95185 8.79999 6.63519 8.97916 7.96852C9.06666 8.61435 10.1667 9.19352 13.8625 9.71435C15.25 9.91019 16.6458 10.4352 17.6208 11.4394C18.7625 12.6102 18.1042 13.5935 19.1917 14.8185C20.9667 16.8227 23.8792 16.3769 27.1625 18.8602C28.5625 19.9185 30.3333 19.0852 31.0042 18.5394C31.65 18.0144 32.7958 16.3977 33.8875 15.7394C38.425 13.0019 35.7875 9.92685 35.4292 9.57269C34.8333 8.98102 33.4833 8.47269 32.8792 7.89352C31.225 6.29769 35.4 6.04769 37.225 4.80602C37.3958 4.68935 37.5875 4.55602 37.625 4.35185C37.6833 4.04352 37.3792 3.78935 37.0958 3.64769C36.2208 3.21019 35.2292 3.06435 34.2542 2.94769C31.6917 2.63519 29.1083 2.45185 26.5292 2.40602C25.6583 2.38935 24.7708 2.38519 23.9292 2.16435C22.7333 1.84769 21.6875 1.10602 20.5 0.78102C19.6583 0.551854 17.5042 0.151854 16.7333 0.706021C16.2458 1.05602 16.4708 1.44769 16.5208 1.93102C16.6 2.67269 16.55 3.03519 15.9375 3.53935V3.53935Z" fill="url(#paint8_linear_1029_1842)"/>
<path d="M24.7791 6.1543H24.3291L20.3457 3.5918L19.6416 4.47513C18.9874 5.26263 19.0999 5.7043 19.6541 6.00013L23.6124 8.1918C24.5999 8.6418 25.7124 8.60013 26.5541 8.11263L29.6499 6.37513C30.0791 6.15013 30.3332 5.73346 29.9166 5.0793C29.5749 4.55013 29.0332 3.6793 29.0332 3.6793L24.7791 6.1543Z" fill="#EDC23A"/>
<path d="M24.3291 6.1543L20.3457 3.5918L19.6416 4.47513C18.9874 5.26263 19.0999 5.7043 19.6541 6.00013L23.6124 8.1918C24.1416 8.43346 24.7082 8.5293 25.2499 8.49596C25.2416 8.08346 25.1166 7.65013 25.1999 7.2418C25.2707 6.8918 25.5124 6.5793 25.8291 6.42096L25.3916 5.80013L24.7749 6.15846H24.3291V6.1543Z" fill="#FFD54F"/>
<path d="M28.8543 4.59194L26.0001 6.31277C25.7626 6.45444 24.8584 7.10027 23.3876 6.14194L20.5334 4.3586C19.9584 4.0086 20.2418 3.61277 20.5668 3.38777L23.8209 1.4586C24.2668 1.19194 24.8918 1.16277 25.2709 1.3961L28.9001 3.57527C29.4209 3.8836 29.0918 4.4961 28.8543 4.59194V4.59194Z" fill="#F9E295"/>
<path opacity="0.78" d="M8.9834 7.96823C9.03757 8.2224 9.26673 8.3724 9.4709 8.4974C9.68757 8.61823 9.91673 8.7099 10.1501 8.79323C10.6209 8.95156 11.1042 9.0724 11.5876 9.18073C12.5626 9.3974 13.5376 9.51406 14.5459 9.68073C15.5417 9.8724 16.5376 10.2307 17.3709 10.8766C17.7751 11.1974 18.1792 11.5849 18.4209 12.0932C18.6709 12.5974 18.7209 13.1349 18.8584 13.5682C19.1001 14.4391 19.8459 15.0849 20.6667 15.5182C21.5042 15.9516 22.4667 16.2057 23.4251 16.5266C24.3834 16.8391 25.3501 17.2307 26.2376 17.7557C26.4626 17.8849 26.6792 18.0224 26.8959 18.1682C27.0042 18.2391 27.1084 18.3141 27.2126 18.3891C27.3167 18.4641 27.4292 18.5474 27.5084 18.5974C27.8542 18.8349 28.2626 18.9599 28.6917 18.9557C29.5417 18.9432 30.4792 18.5682 31.0667 17.9224C31.7334 17.2266 32.3709 16.4182 33.1959 15.7474C33.3959 15.5849 33.6626 15.4182 33.8542 15.3016C34.0626 15.1766 34.2542 15.0391 34.4501 14.9016C34.8292 14.6182 35.1834 14.3016 35.4709 13.9432C36.0542 13.2349 36.3167 12.3266 36.1042 11.4391C36.0042 10.9974 35.8042 10.5724 35.5459 10.1849C35.4126 9.99323 35.2751 9.8099 35.1126 9.6724C34.9417 9.52656 34.7459 9.39323 34.5417 9.26406C34.1292 9.00156 33.6876 8.76406 33.2584 8.47656C33.0459 8.33073 32.8292 8.16823 32.6417 7.9599C32.5501 7.85573 32.4626 7.74323 32.3917 7.60156C32.3251 7.46406 32.2751 7.28906 32.3084 7.1099C32.3876 6.73906 32.6626 6.56406 32.8792 6.42656C33.1126 6.28906 33.3501 6.19323 33.5876 6.10573C34.0667 5.93073 34.5459 5.79323 35.0251 5.6474C35.5001 5.50156 35.9751 5.35156 36.4334 5.16406C36.6626 5.0724 36.8917 4.96823 37.1042 4.8474C37.3084 4.71823 37.5626 4.60573 37.6292 4.35156C37.5834 4.6099 37.3292 4.75573 37.1376 4.90156C36.9292 5.04323 36.7084 5.16823 36.4834 5.28073C36.0292 5.50156 35.5626 5.6849 35.0917 5.8599C34.6251 6.0349 34.1542 6.20573 33.7042 6.40156C33.4792 6.50156 33.2626 6.6099 33.0709 6.73906C32.8834 6.86406 32.7209 7.03073 32.7126 7.1724C32.6917 7.3099 32.8042 7.48906 32.9626 7.6474C33.1209 7.80573 33.3084 7.9349 33.5126 8.06406C33.9251 8.31406 34.3709 8.53073 34.8167 8.7849C35.0417 8.91406 35.2626 9.0474 35.4792 9.2224C35.7042 9.40156 35.8792 9.61823 36.0376 9.83073C36.3501 10.2599 36.6001 10.7474 36.7417 11.2766C36.8792 11.8057 36.9042 12.3807 36.7709 12.9266C36.6417 13.4724 36.3751 13.9682 36.0459 14.3974C35.7167 14.8266 35.3251 15.1891 34.9084 15.5099C34.7001 15.6641 34.4876 15.8224 34.2667 15.9599C34.0334 16.1099 33.8792 16.2141 33.6917 16.3641C32.9626 16.9557 32.3542 17.7349 31.6501 18.4849C31.4751 18.6682 31.2584 18.8766 31.0209 19.0307C30.7876 19.1849 30.5501 19.3182 30.2959 19.4266C29.7959 19.6432 29.2459 19.7849 28.6751 19.7766C28.1042 19.7766 27.5167 19.5974 27.0376 19.2682C26.9084 19.1849 26.8209 19.1141 26.7209 19.0432C26.6251 18.9682 26.5251 18.9016 26.4251 18.8349C26.2251 18.6974 26.0209 18.5682 25.8167 18.4474C24.9876 17.9516 24.0917 17.5807 23.1626 17.2474C22.2376 16.9099 21.2542 16.6432 20.3209 16.1349C19.8584 15.8807 19.4167 15.5557 19.0542 15.1557C18.6834 14.7682 18.3876 14.2557 18.2584 13.7266C18.1209 13.2016 18.0876 12.7224 17.9001 12.3182C17.7334 11.9057 17.4126 11.5599 17.0542 11.2474C16.3292 10.6307 15.4126 10.2432 14.4667 9.98906C13.9959 9.8599 13.5001 9.7849 13.0084 9.68073C12.5167 9.57656 12.0292 9.46823 11.5417 9.33906C11.0584 9.20989 10.5751 9.06406 10.1084 8.8724C9.87507 8.7724 9.6459 8.66823 9.43757 8.52656C9.24173 8.40156 9.01673 8.22656 8.9834 7.96823V7.96823Z" fill="#823315"/>
<path d="M25.7251 16.8049C26.8501 16.6966 27.9459 16.5966 29.0501 16.4633C30.1543 16.3383 31.2459 16.1799 32.3709 16.0508C31.3334 16.5008 30.2168 16.7383 29.1001 16.8758C27.9793 17.0008 26.8376 17.0216 25.7251 16.8049V16.8049Z" fill="#FEF6E0"/>
<path d="M29.3333 34.8634C30.4499 34.6967 31.5416 34.5426 32.6374 34.3509C33.7333 34.1676 34.8166 33.9551 35.9291 33.7676C34.9124 34.2717 33.8166 34.5676 32.7041 34.7634C31.5958 34.9426 30.4541 35.0217 29.3333 34.8634V34.8634Z" fill="#FEF6E0"/>
<path opacity="0.36" d="M24.2334 0.875644C28.1709 0.875644 31.6793 1.50064 35.6043 2.90064C35.8543 2.99231 36.1168 3.08398 36.3834 3.17564C37.8084 3.67564 39.4209 4.24648 40.3834 4.78814L40.4084 4.80064C42.3001 5.86731 44.1668 8.35064 43.4084 11.3715C42.7876 13.6715 41.5168 15.3506 41.5168 15.3506C43.2459 16.2173 42.1168 19.6173 42.1168 19.6173C42.5418 20.0631 43.7043 20.5756 43.5293 22.4923C43.5293 24.2048 41.9543 26.4131 41.2959 27.0423C38.1834 30.034 31.5834 31.9673 24.4751 31.9673C16.8918 31.9673 9.74177 29.7131 7.08344 26.4798C5.00427 24.7006 5.59594 22.2173 5.79594 21.884L6.12094 21.3465C6.12094 21.3465 3.94594 19.584 4.29594 15.4131C4.4001 13.409 5.44594 12.7423 5.44594 12.7423C5.44594 12.7423 3.8251 6.03398 10.6043 3.57564C14.5168 1.94231 18.3376 1.26731 18.3376 1.26731C20.1334 1.00898 22.0584 0.875644 24.2334 0.875644M24.2334 0.0131446C17.7668 -0.174355 12.8251 1.68814 10.2876 2.78814C3.44177 5.57148 4.6626 11.409 4.79594 11.8965C4.45427 12.3381 3.5126 13.7048 3.44177 15.3881C3.29594 18.9673 4.9876 21.3631 5.0626 21.4465C4.8126 21.859 4.12094 24.7048 6.42094 27.0381C9.1501 30.359 16.2168 32.8381 24.4793 32.8381C32.1709 32.8381 38.8001 30.6506 41.8959 27.6715C42.5084 27.0798 44.3918 24.6548 44.3918 22.4965C44.4834 20.134 43.4376 19.0173 42.8959 18.4465C43.2084 17.7465 43.3251 16.9131 43.2459 16.2215C43.1668 15.5256 43.0251 15.0881 42.8126 14.534C42.8126 14.534 44.5251 12.6965 44.5251 10.5131C44.3876 6.18398 42.7793 5.15481 40.8043 4.03814C39.5918 3.35064 37.5418 2.67564 35.8876 2.08814C32.4959 0.875644 28.8584 0.0131446 24.2334 0.0131446V0.0131446Z" fill="#823315"/>
<defs>
<radialGradient id="paint0_radial_1029_1842" cx="0" cy="0" r="1" gradientUnits="userSpaceOnUse" gradientTransform="translate(25 27.388) scale(19.5275 21.4763)">
<stop stop-color="white"/>
<stop offset="0.4795" stop-color="#FAFAFA"/>
<stop offset="1" stop-color="#EDEDED"/>
</radialGradient>
<linearGradient id="paint1_linear_1029_1842" x1="4.69745" y1="26.4716" x2="44.3958" y2="26.4716" gradientUnits="userSpaceOnUse">
<stop stop-color="#FFF1C0"/>
<stop offset="0.2424" stop-color="#FDEDBB"/>
<stop offset="0.5352" stop-color="#F5E1AC"/>
<stop offset="0.8527" stop-color="#EACE94"/>
<stop offset="1" stop-color="#E3C386"/>
</linearGradient>
<radialGradient id="paint2_radial_1029_1842" cx="0" cy="0" r="1" gradientUnits="userSpaceOnUse" gradientTransform="translate(15.9091 18.9819) rotate(1.52432) scale(31.2036 22.8346)">
<stop offset="0.00040064" stop-color="#FFAD2E"/>
<stop offset="0.2486" stop-color="#E7971C"/>
<stop offset="1" stop-color="#A5551B"/>
</radialGradient>
<linearGradient id="paint3_linear_1029_1842" x1="3.368" y1="19.1802" x2="43.2017" y2="19.9571" gradientUnits="userSpaceOnUse">
<stop stop-color="#FFF1C0"/>
<stop offset="0.2424" stop-color="#FDEDBB"/>
<stop offset="0.5352" stop-color="#F5E1AC"/>
<stop offset="0.8527" stop-color="#EACE94"/>
<stop offset="1" stop-color="#E3C386"/>
</linearGradient>
<radialGradient id="paint4_radial_1029_1842" cx="0" cy="0" r="1" gradientUnits="userSpaceOnUse" gradientTransform="translate(11.6039 12.3792) rotate(1.11735) scale(26.7972 17.7138)">
<stop offset="0.00040064" stop-color="#FFAD2E"/>
<stop offset="0.2486" stop-color="#E7971C"/>
<stop offset="1" stop-color="#A5551B"/>
</radialGradient>
<linearGradient id="paint5_linear_1029_1842" x1="26.3042" y1="33.4337" x2="36.228" y2="19.4754" gradientUnits="userSpaceOnUse">
<stop stop-color="#DB7C34"/>
<stop offset="0.2505" stop-color="#C45D12"/>
<stop offset="0.4359" stop-color="#B4520F"/>
<stop offset="0.6263" stop-color="#994105"/>
<stop offset="0.8168" stop-color="#913B02"/>
</linearGradient>
<linearGradient id="paint6_linear_1029_1842" x1="4.79453" y1="13.7036" x2="44.5333" y2="13.7036" gradientUnits="userSpaceOnUse">
<stop stop-color="#FFF1C0"/>
<stop offset="0.2424" stop-color="#FDEDBB"/>
<stop offset="0.5352" stop-color="#F5E1AC"/>
<stop offset="0.8527" stop-color="#EACE94"/>
<stop offset="1" stop-color="#E3C386"/>
</linearGradient>
<radialGradient id="paint7_radial_1029_1842" cx="0" cy="0" r="1" gradientUnits="userSpaceOnUse" gradientTransform="translate(13.83 5.52269) scale(33.0925 18.4292)">
<stop offset="0.00040064" stop-color="#FFAD2E"/>
<stop offset="0.2486" stop-color="#E7971C"/>
<stop offset="1" stop-color="#A5551B"/>
</radialGradient>
<linearGradient id="paint8_linear_1029_1842" x1="8.95874" y1="9.90019" x2="37.6375" y2="9.90019" gradientUnits="userSpaceOnUse">
<stop stop-color="#DB7C34"/>
<stop offset="0.2505" stop-color="#C45D12"/>
<stop offset="0.4359" stop-color="#B4520F"/>
<stop offset="0.6263" stop-color="#994105"/>
<stop offset="0.8168" stop-color="#913B02"/>
</linearGradient>
</defs>
</svg>
