<svg width="50" height="46" viewBox="0 0 50 46" fill="none" xmlns="http://www.w3.org/2000/svg">
<path d="M25.0389 2.00743C20.2948 1.88675 16.487 3.94253 16.487 3.94253C16.487 3.94253 11.6514 -3.286 4.8265 1.83265C-2.20227 7.10527 4.41451 14.6625 4.41451 14.6625C4.41451 14.6625 -0.379533 20.5386 0.0241326 28.021C0.456928 36.0443 4.70998 45.5076 25.5674 45.158C46.4248 44.8084 50.0454 35.6948 49.9996 27.7879C49.9538 20.1724 46.3666 15.7196 46.3666 15.7196C46.3666 15.7196 52.871 8.63254 47.4194 3.06445C41.9679 -2.50364 35.7589 4.99955 35.7589 4.99955C35.7589 4.99955 31.8929 2.18221 25.0389 2.00743V2.00743Z" fill="#4D4D4D"/>
<path d="M24.8226 3.53906C20.89 3.53906 16.0752 4.35055 9.5749 10.676C3.07464 17.0015 -0.0339968 24.4464 1.9011 31.7124C3.8362 38.9784 9.69143 43.9555 25.5093 43.7808C41.3271 43.606 46.5831 38.9284 48.2977 30.8926C48.9385 27.888 48.7055 22.682 46.0713 17.7714C42.6172 11.3252 34.8519 3.53906 24.8226 3.53906V3.53906Z" fill="white"/>
<path d="M20.6861 15.7572C17.4526 13.7846 14.0859 15.8737 11.5474 19.3111C9.33349 22.3074 7.08628 23.2895 6.89901 26.4189C6.74087 29.0365 8.69678 32.786 12.7584 32.786C16.4705 32.786 17.2903 29.2695 19.009 26.8892C20.7235 24.5046 25.5217 18.7077 20.6861 15.7572V15.7572Z" fill="#4D4D4D"/>
<path d="M28.5762 16.4608C26.4705 18.3751 26.895 21.5378 28.4597 23.5312C30.0244 25.5245 30.9941 26.6357 31.6641 27.8675C32.5422 29.4863 35.6633 35.4872 40.6862 31.5379C45.8007 27.5137 41.9471 22.6032 40.7653 21.3838C40.3034 20.9094 36.1377 16.5399 35.3345 15.8782C34.2983 15.0167 31.5808 13.7267 28.5762 16.4608V16.4608Z" fill="#4D4D4D"/>
<path d="M37.3609 22.9021C37.4941 24.9787 36.7742 26.7682 34.9389 26.9263C33.1537 27.0761 31.5432 25.5072 31.2269 23.4515C30.9148 21.3957 31.8927 19.7019 33.8445 19.6229C35.6381 19.5521 37.207 20.4801 37.3609 22.9021V22.9021Z" fill="#040301"/>
<path d="M17.9892 25.4418C17.0071 26.9025 14.8972 27.2312 13.3408 26.066C12.2463 25.2462 12.0008 22.8908 12.9913 21.1846C14.0358 19.3827 16.1623 19.1288 17.7478 20.2524C19.0046 21.1471 19.3583 23.411 17.9892 25.4418V25.4418Z" fill="#040301"/>
<path d="M32.2465 21.4205C31.8012 22.5025 32.0884 23.9215 32.9123 23.8799C33.9652 23.83 33.6156 22.9436 33.9652 22.5149C34.3148 22.0863 34.9431 21.1874 34.2773 20.6797C33.4408 20.0347 32.5211 20.7546 32.2465 21.4205V21.4205Z" fill="#E0E0E0"/>
<path d="M13.8903 21.183C13.1538 22.3482 13.3119 23.3636 13.7322 23.7215C14.3772 24.2666 15.1596 23.5051 15.6673 22.5687C16.175 21.6324 16.82 20.8292 16.0377 20.2466C15.4842 19.8346 14.3564 20.4422 13.8903 21.183Z" fill="#E0E0E0"/>
<path d="M24.9059 28.8775C22.5629 28.9066 19.7914 30.4797 19.7498 31.262C19.7123 32.0444 20.9233 32.9433 21.7431 33.5675C22.3549 34.0336 23.6949 34.7785 23.5783 35.1697C23.4618 35.5609 22.5588 35.9978 21.585 36.106C20.2949 36.2517 18.6012 35.1114 18.185 34.816C17.6857 34.4664 16.5454 34.9616 17.0739 35.9895C17.5983 37.0091 18.6178 37.6791 19.7123 37.9537C20.8942 38.2492 21.5475 38.1785 21.5475 38.1785C21.5475 38.1785 22.6878 39.8014 24.8268 39.9762C27.2488 40.1718 28.4182 38.0245 28.4182 38.0245C28.4182 38.0245 29.8872 38.2534 30.8402 37.908C32.1302 37.4377 32.6254 36.6096 32.95 35.9562C33.3246 35.1947 32.8127 34.1168 31.5851 34.9034C30.6071 35.5276 30.141 36.2309 28.2059 36.1435C27.0074 36.0894 26.508 35.332 26.508 35.0199C26.508 34.7078 27.9521 33.8463 28.8135 33.2221C29.6791 32.5896 30.3366 31.8946 30.3741 31.3078C30.4115 30.7127 27.9895 28.8401 24.9059 28.8775V28.8775Z" fill="#030200"/>
<path d="M25.039 36.3691C25.039 36.3691 24.4731 37.0808 24.24 37.2389C24.007 37.397 23.2246 37.834 23.2246 37.834C23.2246 37.834 23.8239 38.504 24.6021 38.5955C26.096 38.7703 26.7119 37.9214 26.7119 37.9214C26.7119 37.9214 26.3707 37.6467 25.9795 37.3637C25.6216 37.1057 25.039 36.3691 25.039 36.3691Z" fill="#FDA4A5"/>
</svg>
