<svg width="50" height="51" viewBox="0 0 50 51" fill="none" xmlns="http://www.w3.org/2000/svg">
<path d="M1.02184 50.5675C1.98428 51.6105 5.94851 49.7916 9.07749 48.3331C11.4221 47.2434 20.8048 43.3937 25.4686 41.3967C26.7278 40.8583 28.5594 40.1545 29.878 38.4204C31.0482 36.8771 34.1518 30.3223 27.9023 23.6828C21.5595 16.9415 15.026 18.8028 12.5838 20.5326C11.1465 21.5502 9.97633 23.8439 9.45059 25.0098C7.22893 29.9365 4.06179 38.9631 2.77288 42.5118C1.8274 45.1278 0.0678799 49.5329 1.02184 50.5675V50.5675Z" fill="#FFC107"/>
<path d="M8.82334 26.4961C8.88269 27.2338 9.03109 28.4337 9.53986 30.7444C9.88753 32.3301 10.4557 33.9921 10.9178 35.0902C12.3042 38.393 14.2503 39.7243 16.2218 40.7928C19.5713 42.6074 21.8481 42.9466 21.8481 42.9466L19.1176 44.0617C19.1176 44.0617 17.4641 43.7182 15.2085 42.6074C13.0589 41.5474 10.8203 39.754 9.18372 36.2434C8.47567 34.7213 8.06441 33.2459 7.82698 32.0757C7.53443 30.6257 7.48779 29.8032 7.48779 29.8032L8.82334 26.4961Z" fill="#FF8F00"/>
<path d="M5.46967 35.0938C5.46967 35.0938 5.80886 37.8454 8.0814 41.3178C10.744 45.3795 14.4623 46.0452 14.4623 46.0452L11.9905 47.0628C11.9905 47.0628 9.23039 46.219 6.60594 42.6364C4.96938 40.402 4.51147 37.7309 4.51147 37.7309L5.46967 35.0938Z" fill="#FF8F00"/>
<path d="M3.11658 41.6152C3.11658 41.6152 3.73559 43.9895 5.09233 45.7618C6.7077 47.8774 8.76401 48.4922 8.76401 48.4922L6.86881 49.3317C6.86881 49.3317 5.43152 49.0307 3.85854 47.038C2.66292 45.5243 2.32373 43.786 2.32373 43.786L3.11658 41.6152Z" fill="#FF8F00"/>
<path opacity="0.44" d="M2.08603 47.6426C2.00123 47.4518 2.00123 47.2356 2.09027 47.049L12.8891 24.6543L14.6656 31.332L3.30285 47.7443C2.99759 48.2022 2.31074 48.1429 2.08603 47.6426V47.6426Z" fill="#FFFDE7"/>
<path d="M15.5218 33.575C20.5672 39.4769 26.3122 38.7391 28.2243 37.2467C30.1407 35.7501 31.6543 30.6072 26.6301 24.8029C21.3643 18.723 15.4031 20.457 14.0252 21.7714C12.6472 23.0857 10.8919 28.1608 15.5218 33.575V33.575Z" fill="url(#paint0_linear_1029_610)"/>
<path d="M32.8501 36.0046C31.01 34.4613 30.0306 34.7369 28.7162 35.2838C27.0203 35.9877 24.3535 36.5092 20.7327 35.2838L21.8223 32.6594C23.9719 33.3844 25.5279 33.0325 26.8719 32.2397C28.6018 31.2221 30.9676 29.8272 34.6477 32.918C36.1826 34.2069 37.7555 35.0634 38.9088 34.6733C39.7482 34.3935 40.1934 33.1427 40.4181 32.1464C40.4393 32.0573 40.4733 31.803 40.4987 31.5782C40.7022 30.0222 41.0414 26.6643 43.5429 24.9472C46.2182 23.1113 49.0292 23.1113 49.0292 23.1113L49.538 28.1652C48.2448 27.9744 47.346 28.2373 46.5871 28.657C43.7294 30.2469 46.2182 36.3523 41.7706 38.4043C37.4927 40.3928 33.9948 36.9628 32.8501 36.0046V36.0046Z" fill="#03A9F4"/>
<path d="M17.1119 29.56L15.2718 27.9107C18.6509 24.1373 17.7606 21.3644 17.1119 19.3463C16.9804 18.9393 16.8575 18.5534 16.7769 18.1846C16.4886 16.8787 16.4293 15.7424 16.5183 14.7503C15.2209 13.135 14.6485 11.4433 14.6104 11.3288C13.8218 8.94177 14.4153 6.61411 15.7763 4.43061C18.528 0 23.5097 0 23.5097 0L25.1718 4.44757C23.9083 4.39669 19.766 4.46029 18.494 6.46572C16.8872 8.99265 17.9429 10.5529 18.0192 10.731C18.3287 10.3282 18.6424 10.006 18.9223 9.75582C20.9531 7.9539 22.7169 7.69527 23.8405 7.79702C25.1039 7.9115 26.2487 8.54747 27.067 9.59047C27.9616 10.7352 28.3304 12.2234 28.0464 13.5759C27.7708 14.8945 26.8931 16.0095 25.5745 16.7176C23.2723 17.9556 21.3559 17.786 20.0713 17.3578C20.0797 17.3875 20.084 17.4214 20.0925 17.4511C20.1391 17.6631 20.2324 17.9599 20.3426 18.3033C21.0931 20.6267 22.488 24.3154 17.1119 29.56V29.56ZM20.2281 13.648C20.474 13.826 20.7327 13.9744 20.9998 14.0804C21.8901 14.4366 22.8611 14.3179 23.9634 13.7243C24.6121 13.3766 24.6884 13.0035 24.7139 12.8806C24.7902 12.5117 24.663 12.0411 24.3874 11.6892C24.1457 11.3797 23.8659 11.2186 23.5309 11.1846C22.895 11.1295 22.0343 11.5323 21.1736 12.2997C20.7623 12.6686 20.4486 13.1222 20.2281 13.648Z" fill="#F44336"/>
<path d="M24.4764 30.2516L21.8435 30.1795C21.8435 30.1795 23.0943 23.116 27.1433 21.9289C27.9022 21.7084 28.7332 21.4837 29.5685 21.3607C30.0645 21.2844 30.8489 21.1699 31.2347 21.0258C31.3237 20.3601 31.0439 19.5122 30.7302 18.5497C30.4843 17.8035 30.2299 17.0361 30.0942 16.1966C29.8313 14.5601 30.268 13.1143 31.3237 12.1179C32.6126 10.9096 34.6944 10.5237 37.0432 11.058C38.383 11.3632 39.3709 12.0204 40.2401 12.597C41.4823 13.4238 42.2073 13.8435 43.7252 12.8217C45.561 11.5837 43.1613 6.73759 41.8851 3.93931L46.6464 1.95508C47.2866 3.35422 50.3775 10.5534 48.3381 14.6618C47.6513 16.044 46.4684 16.9598 44.9166 17.3032C41.5417 18.0579 39.5659 16.7436 38.1244 15.7854C37.4418 15.3317 36.844 14.9756 36.1953 14.789C31.6884 13.5043 37.9802 20.1354 35.0336 23.116C33.2656 24.901 28.9452 25.3716 28.6654 25.4394C25.8841 26.1093 24.4764 30.2516 24.4764 30.2516V30.2516Z" fill="#F48FB1"/>
<path d="M16.5142 14.75C16.4336 15.6828 16.3954 16.2382 16.6371 17.4508C17.8031 18.3072 20.3427 18.3072 20.3427 18.3072C20.2325 17.9638 20.135 17.667 20.0926 17.455C20.0841 17.4253 20.0798 17.3914 20.0714 17.3617C17.4893 16.0728 16.5142 14.75 16.5142 14.75V14.75Z" fill="#C92B27"/>
<path d="M11.2314 18.9271L6.84741 16.7775L9.03092 13.623L12.4694 15.8998L11.2314 18.9271Z" fill="#FFC107"/>
<path d="M4.76979 12.9734C2.53117 12.6723 0.250149 10.7729 0 10.5567L2.20046 7.97461C2.86612 8.53851 4.27798 9.48398 5.22345 9.61118L4.76979 12.9734Z" fill="#FB8C00"/>
<path d="M8.72128 7.3222L5.49902 6.26649C5.86789 5.1387 5.9654 3.92187 5.77461 2.74744L9.12407 2.20898C9.39965 3.91339 9.25974 5.68139 8.72128 7.3222V7.3222Z" fill="#03A9F4"/>
<path d="M28.8447 4.80078L32.1582 4.07594L33.115 8.44976L29.8015 9.1746L28.8447 4.80078Z" fill="#FB8C00"/>
<path d="M37.0646 5.83692L34.7327 3.37359C35.9537 2.21612 36.2336 0.702506 36.2336 0.685547L39.583 1.23248C39.5406 1.49959 39.1124 3.89933 37.0646 5.83692V5.83692Z" fill="#FFC107"/>
<path d="M38.3601 18.9023L41.3224 17.9766L42.3342 21.2141L39.3719 22.1399L38.3601 18.9023Z" fill="#FB8C00"/>
<path d="M39.2225 46.2261L35.8518 45.8276C35.996 44.6277 35.1014 43.1565 34.8555 42.83L37.569 40.7949C37.7725 41.062 39.5405 43.5084 39.2225 46.2261V46.2261Z" fill="#F44336"/>
<path d="M48.8977 41.9274C47.63 41.7366 46.3326 41.6603 45.0522 41.7069L44.9377 38.3151C46.4259 38.2642 47.9311 38.349 49.4023 38.5737L48.8977 41.9274Z" fill="#FB8C00"/>
<path d="M44.3374 46.5957L46.7205 44.1821L50.0001 47.4201L47.6169 49.8338L44.3374 46.5957Z" fill="#F48FB1"/>
<path d="M37.3354 25.1562L39.786 27.9582L36.984 30.4088L34.5335 27.6068L37.3354 25.1562Z" fill="#F44336"/>
<defs>
<linearGradient id="paint0_linear_1029_610" x1="29.4006" y1="24.5224" x2="16.7798" y2="32.0949" gradientUnits="userSpaceOnUse">
<stop offset="0.0235" stop-color="#8F4700"/>
<stop offset="1" stop-color="#703E2D"/>
</linearGradient>
</defs>
</svg>
