<svg width="50" height="51" viewBox="0 0 50 51" fill="none" xmlns="http://www.w3.org/2000/svg">
<path d="M14.602 0.171262C8.53119 0.629594 4.4437 1.80876 2.13121 2.68792C0.718716 3.22542 -0.139615 4.65458 0.0187182 6.15458C2.93121 34.2795 17.0228 31.9045 17.0228 31.9045C17.0228 31.9045 31.3103 32.1295 29.927 3.89208C29.852 2.38792 28.7895 1.10459 27.3103 0.78376C24.8895 0.262928 20.6728 -0.28707 14.602 0.171262V0.171262ZM8.14369 15.067C6.77703 15.1337 5.18537 15.5837 4.3937 15.8295C4.15621 15.9045 3.91037 15.7504 3.93537 15.542C4.43954 11.4921 7.37286 10.6962 9.35202 10.6337C10.627 10.5921 11.9187 11.1046 12.3562 12.0921C13.202 14.0212 10.152 14.9712 8.14369 15.067ZM22.4645 25.1503C20.6437 24.717 18.5603 24.6295 17.3895 24.6212C16.752 24.617 16.1187 24.6629 15.4895 24.7587C14.2895 24.942 12.2145 25.3337 10.6395 26.0378C10.252 26.2128 9.76452 26.017 9.82702 25.7045C10.002 24.8379 10.6229 23.3962 12.7228 22.3212C14.777 21.267 17.502 21.0462 19.7103 21.7545C22.027 22.4962 22.8728 23.8545 23.1853 24.6962C23.2936 24.9837 22.8728 25.2462 22.4645 25.1503ZM27.0645 14.1171C26.2436 13.9879 24.602 13.7837 23.2395 13.9254C21.2395 14.1296 18.0812 13.6546 18.627 11.6212C18.9062 10.5754 20.1062 9.87956 21.3728 9.7254C23.3395 9.49207 26.3603 9.8379 27.4728 13.7629C27.5311 13.9671 27.3103 14.1546 27.0645 14.1171Z" fill="url(#paint0_radial_1029_2141)"/>
<path d="M14.602 0.171262C8.53119 0.629594 4.4437 1.80876 2.13121 2.68792C0.718716 3.22542 -0.139615 4.65458 0.0187182 6.15458C2.93121 34.2795 17.0228 31.9045 17.0228 31.9045C17.0228 31.9045 31.3103 32.1295 29.927 3.89208C29.852 2.38792 28.7895 1.10459 27.3103 0.78376C24.8895 0.262928 20.6728 -0.28707 14.602 0.171262V0.171262ZM8.14369 15.067C6.77703 15.1337 5.18537 15.5837 4.3937 15.8295C4.15621 15.9045 3.91037 15.7504 3.93537 15.542C4.43954 11.4921 7.37286 10.6962 9.35202 10.6337C10.627 10.5921 11.9187 11.1046 12.3562 12.0921C13.202 14.0212 10.152 14.9712 8.14369 15.067ZM22.4645 25.1503C20.6437 24.717 18.5603 24.6295 17.3895 24.6212C16.752 24.617 16.1187 24.6629 15.4895 24.7587C14.2895 24.942 12.2145 25.3337 10.6395 26.0378C10.252 26.2128 9.76452 26.017 9.82702 25.7045C10.002 24.8379 10.6229 23.3962 12.7228 22.3212C14.777 21.267 17.502 21.0462 19.7103 21.7545C22.027 22.4962 22.8728 23.8545 23.1853 24.6962C23.2936 24.9837 22.8728 25.2462 22.4645 25.1503ZM27.0645 14.1171C26.2436 13.9879 24.602 13.7837 23.2395 13.9254C21.2395 14.1296 18.0812 13.6546 18.627 11.6212C18.9062 10.5754 20.1062 9.87956 21.3728 9.7254C23.3395 9.49207 26.3603 9.8379 27.4728 13.7629C27.5311 13.9671 27.3103 14.1546 27.0645 14.1171Z" fill="url(#paint1_radial_1029_2141)"/>
<path d="M13.252 10.9869C12.752 9.66194 11.3062 8.96195 9.8812 8.99528C7.67704 9.04528 4.42288 10.0578 3.92705 15.4369C3.92288 15.4744 3.92705 15.5119 3.93538 15.5494V15.5453C4.43955 11.4953 7.37287 10.6994 9.35203 10.6369C10.627 10.5953 11.9187 11.1078 12.3562 12.0953C12.7895 13.0828 12.1979 13.8119 11.2479 14.3036C12.7312 13.7036 13.8687 12.6203 13.252 10.9869V10.9869Z" fill="url(#paint2_radial_1029_2141)"/>
<path d="M4.39371 15.8342C4.36871 15.8426 4.34788 15.8467 4.32288 15.8467C4.36038 15.8467 4.40204 15.8384 4.44371 15.8259C4.49371 15.8092 4.55621 15.7884 4.61037 15.7676C4.53538 15.7884 4.45621 15.8134 4.39371 15.8342Z" fill="url(#paint3_radial_1029_2141)"/>
<path d="M27.0645 14.1173C26.9978 14.109 26.9186 14.0965 26.8436 14.084C26.902 14.0965 26.9645 14.1048 27.0186 14.1173C27.0603 14.1257 27.102 14.1257 27.1395 14.1215C27.1145 14.1215 27.0895 14.1215 27.0645 14.1173Z" fill="url(#paint4_radial_1029_2141)"/>
<path d="M18.6312 11.6221C18.9104 10.5763 20.1104 9.88044 21.3771 9.72627C23.3437 9.49294 26.3645 9.83877 27.477 13.7638V13.7679C27.4812 13.7304 27.477 13.6929 27.4687 13.6554C26.1646 8.41378 22.7937 7.90128 20.6062 8.18461C19.1979 8.36378 17.8729 9.27628 17.5771 10.6596C17.2146 12.3679 18.5021 13.2721 20.0604 13.6388C19.0437 13.2971 18.3479 12.6638 18.6312 11.6221V11.6221Z" fill="url(#paint5_radial_1029_2141)"/>
<path d="M16.9769 21.3421C17.9227 21.3421 18.8602 21.4754 19.7185 21.7504C22.0352 22.4921 22.881 23.8504 23.1935 24.692C23.2852 24.942 22.9894 25.167 22.6477 25.167C22.5894 25.167 22.531 25.1587 22.4727 25.1462C20.6519 24.7129 18.5685 24.6254 17.3977 24.617H17.2894C16.6894 24.617 16.0894 24.6629 15.4977 24.7545C14.2977 24.9379 12.2227 25.3295 10.6477 26.0337C10.5477 26.0795 10.4394 26.1004 10.3394 26.1004C10.0436 26.1004 9.7894 25.9337 9.8394 25.7004C10.0144 24.8337 10.6352 23.392 12.7352 22.3171C13.9852 21.6754 15.4894 21.3421 16.9769 21.3421M16.9769 20.0879C15.2727 20.0879 13.5602 20.4837 12.1561 21.2046C9.54357 22.542 8.80607 24.442 8.6019 25.4545C8.51024 25.9045 8.6269 26.3629 8.91857 26.7212C9.24773 27.1254 9.7644 27.3545 10.3311 27.3545C10.6144 27.3545 10.8977 27.2962 11.1519 27.1795C12.6144 26.5254 14.6144 26.1545 15.6769 25.9962C16.2144 25.9129 16.756 25.8754 17.281 25.8754H17.3769C18.4269 25.8837 20.4519 25.9629 22.1727 26.3712C22.3269 26.4087 22.481 26.4254 22.6394 26.4254C23.2685 26.4254 23.8435 26.142 24.1769 25.6629C24.4685 25.2462 24.5352 24.7337 24.3644 24.2629C24.0019 23.2754 22.9644 21.4796 20.0977 20.5587C19.1269 20.2462 18.0769 20.0879 16.9769 20.0879V20.0879Z" fill="url(#paint6_radial_1029_2141)"/>
<path opacity="0.2" d="M19.0103 1.25C22.752 1.25 25.4436 1.66249 27.0478 2.00416C27.9603 2.19999 28.6311 2.99999 28.677 3.94999C29.0561 11.675 28.4145 22.0291 23.2186 27.4874C20.2395 30.6166 17.1603 30.6499 17.0437 30.6499H16.927L16.8228 30.6666C16.8187 30.6666 16.5978 30.6999 16.2145 30.6999C15.0145 30.6999 11.8895 30.3582 8.80619 27.1999C4.83537 23.1291 2.29371 16.0041 1.26038 6.02498C1.16455 5.07915 1.70205 4.18749 2.57288 3.85832C4.85204 2.99166 8.80619 1.86666 14.6937 1.42083C16.1728 1.30833 17.6228 1.25 19.0103 1.25M19.0103 0C17.6687 0 16.1978 0.0499998 14.602 0.170833C8.53119 0.629165 4.4437 1.80833 2.13121 2.68749C0.718716 3.22499 -0.139615 4.65415 0.0187182 6.15415C2.51038 30.2166 13.1853 31.9541 16.2187 31.9541C16.7312 31.9541 17.0228 31.9041 17.0228 31.9041C17.0228 31.9041 17.027 31.9041 17.0353 31.9041C17.4728 31.9041 31.2895 31.6832 29.927 3.89165C29.852 2.38749 28.7895 1.10416 27.3103 0.783331C25.527 0.399999 22.7686 0 19.0103 0V0Z" fill="#424242"/>
<path d="M35.4021 18.2219C29.3313 17.7553 25.1146 18.3011 22.6938 18.8219C21.2147 19.1386 20.1522 20.4219 20.0772 21.9261C18.6605 50.1635 32.9521 49.951 32.9521 49.951C32.9521 49.951 47.0396 52.3385 49.9812 24.2177C50.1396 22.7219 49.2854 21.2886 47.8729 20.7511C45.5562 19.8719 41.4729 18.6886 35.4021 18.2219ZM23.4938 29.5886C23.2647 29.5011 23.173 29.2802 23.323 29.1719C26.2771 27.1261 29.0355 28.2761 30.598 29.3261C31.6063 30.0011 32.273 31.0052 31.9813 31.8136C31.4146 33.3844 28.4688 32.2552 26.8605 31.2094C25.7688 30.4927 24.2605 29.8802 23.4938 29.5886ZM40.4104 40.3677C40.0979 41.2094 39.2521 42.5635 36.9354 43.3052C34.7271 44.0135 32.0021 43.7843 29.948 42.7302C27.848 41.651 27.2271 40.2135 27.0521 39.3427C26.9896 39.0302 27.4771 38.8344 27.8646 39.0094C29.4396 39.7177 31.5146 40.1094 32.7146 40.2927C33.3438 40.3885 33.9771 40.4344 34.6146 40.4302C35.7854 40.4219 37.8688 40.3344 39.6896 39.9052C40.0938 39.8135 40.5146 40.076 40.4104 40.3677V40.3677ZM45.4229 31.2677C44.6187 31.4386 43.0354 31.8177 41.8438 32.3552C40.0938 33.1427 37.0104 33.8094 36.6896 32.1719C36.5229 31.3302 37.3396 30.4427 38.4396 29.9261C40.1479 29.1261 43.0479 28.4094 45.6521 30.8844C45.7896 31.0094 45.6646 31.2177 45.4229 31.2677Z" fill="url(#paint7_radial_1029_2141)"/>
<path d="M30.6477 27.1413C28.8811 25.7747 25.6852 24.2622 21.9644 28.4122C21.7727 28.6247 21.8644 28.9747 22.1269 29.0622C22.4227 29.1622 22.8519 29.3122 23.3394 29.4913C23.2311 29.3872 23.2061 29.2455 23.3186 29.1705C26.2727 27.1247 29.0311 28.2747 30.5935 29.3247C31.4935 29.9288 32.1227 30.7955 32.0352 31.5497C32.0894 31.433 32.1394 31.308 32.181 31.1705C32.6144 29.7455 31.7894 28.0205 30.6477 27.1413V27.1413Z" fill="url(#paint8_radial_1029_2141)"/>
<path d="M47.1144 30.3374C44.0727 25.6666 40.6852 26.6791 38.7269 27.7583C37.4644 28.4541 36.3852 30.0374 36.5894 31.5041C36.6102 31.6499 36.6394 31.7791 36.6727 31.8999C36.7061 31.1416 37.4561 30.3833 38.4394 29.9249C40.1477 29.1249 43.0477 28.4083 45.6519 30.8833C45.7519 30.9791 45.706 31.1124 45.581 31.1999C46.0894 31.0958 46.5352 31.0124 46.8477 30.9583C47.1269 30.9124 47.2727 30.5791 47.1144 30.3374V30.3374Z" fill="url(#paint9_radial_1029_2141)"/>
<path d="M27.5519 38.9456C27.6561 38.9456 27.7602 38.9664 27.8644 39.0122C29.4394 39.7206 31.5144 40.1122 32.7144 40.2956C33.3144 40.3872 33.9144 40.4331 34.5185 40.4331H34.6144C35.7852 40.4247 37.8685 40.3372 39.6894 39.9081C39.7477 39.8956 39.806 39.8872 39.8643 39.8872C40.206 39.8872 40.5018 40.1164 40.4143 40.3664C40.1018 41.2081 39.256 42.5622 36.9394 43.3039C36.0852 43.5789 35.1519 43.7122 34.2102 43.7122C32.7227 43.7122 31.2102 43.3789 29.9519 42.7289C27.8519 41.6497 27.2311 40.2122 27.0561 39.3414C27.0061 39.1122 27.2602 38.9456 27.5519 38.9456M27.5519 37.6914C26.9852 37.6914 26.4686 37.9206 26.1394 38.3247C25.8477 38.6789 25.7311 39.1414 25.8227 39.5872C26.0269 40.5997 26.7602 42.4997 29.3727 43.8414C30.7769 44.5622 32.4935 44.9622 34.2019 44.9622C35.2977 44.9622 36.3435 44.8039 37.3144 44.4956C40.181 43.5789 41.2227 41.7831 41.5852 40.7956C41.7602 40.3247 41.6935 39.8122 41.4018 39.3956C41.0685 38.9206 40.4935 38.6331 39.8643 38.6331C39.706 38.6331 39.5519 38.6497 39.4019 38.6872C37.6769 39.0956 35.656 39.1706 34.606 39.1789H34.5227C33.9935 39.1789 33.4477 39.1372 32.906 39.0539C31.8435 38.8914 29.8435 38.5206 28.3811 37.8664C28.1186 37.7539 27.8352 37.6914 27.5519 37.6914V37.6914Z" fill="url(#paint10_radial_1029_2141)"/>
<path opacity="0.2" d="M30.9353 19.2969C32.3395 19.2969 33.8103 19.3552 35.3061 19.4677C41.1936 19.9177 45.1436 21.051 47.4228 21.9177C48.2936 22.251 48.8352 23.1427 48.7353 24.0885C47.6936 34.0593 45.1478 41.1801 41.1728 45.251C38.0895 48.4093 34.9603 48.7509 33.7603 48.7509C33.3811 48.7509 33.1561 48.7176 33.1561 48.7176L33.0436 48.7009H32.9395C32.8103 48.7009 29.7353 48.6634 26.7603 45.5343C21.5645 40.0718 20.9353 29.7135 21.3228 21.9885C21.3687 21.0385 22.0395 20.2385 22.9562 20.0427C24.5478 19.701 27.2228 19.2969 30.9353 19.2969ZM30.9353 18.0469C27.2062 18.0469 24.4645 18.4427 22.6937 18.8219C21.2145 19.1385 20.152 20.4219 20.077 21.926C18.6853 49.7426 32.5311 49.9509 32.9436 49.9509H32.952C32.952 49.9509 33.2478 50.0009 33.7645 50.0009C36.8061 50.0009 47.4644 48.2551 49.9811 24.2177C50.1394 22.7219 49.2852 21.2885 47.8728 20.751C45.5603 19.8719 41.4769 18.6885 35.4061 18.2219C33.7811 18.0969 32.2936 18.0469 30.9353 18.0469V18.0469Z" fill="#424242"/>
<defs>
<radialGradient id="paint0_radial_1029_2141" cx="0" cy="0" r="1" gradientUnits="userSpaceOnUse" gradientTransform="translate(14.6163 0.382971) rotate(85.6413) scale(31.6984 18.8319)">
<stop stop-color="#29B6F6"/>
<stop offset="0.6577" stop-color="#03A9F4"/>
<stop offset="1" stop-color="#0288D1"/>
</radialGradient>
<radialGradient id="paint1_radial_1029_2141" cx="0" cy="0" r="1" gradientUnits="userSpaceOnUse" gradientTransform="translate(27.529 30.0232) scale(19.1491)">
<stop stop-color="#2196F3"/>
<stop offset="1" stop-color="#2196F3" stop-opacity="0"/>
</radialGradient>
<radialGradient id="paint2_radial_1029_2141" cx="0" cy="0" r="1" gradientUnits="userSpaceOnUse" gradientTransform="translate(7.52827 13.6453) scale(6.80636 6.77789)">
<stop stop-color="#03A9F4"/>
<stop offset="1" stop-color="#0277BD"/>
</radialGradient>
<radialGradient id="paint3_radial_1029_2141" cx="0" cy="0" r="1" gradientUnits="userSpaceOnUse" gradientTransform="translate(4.47617 15.8177) rotate(-4.32341) scale(0.15397 0.153331)">
<stop stop-color="#03A9F4"/>
<stop offset="1" stop-color="#0277BD"/>
</radialGradient>
<radialGradient id="paint4_radial_1029_2141" cx="0" cy="0" r="1" gradientUnits="userSpaceOnUse" gradientTransform="translate(26.9917 14.122) rotate(-4.32348) scale(0.181877 0.181124)">
<stop stop-color="#03A9F4"/>
<stop offset="1" stop-color="#0277BD"/>
</radialGradient>
<radialGradient id="paint5_radial_1029_2141" cx="0" cy="0" r="1" gradientUnits="userSpaceOnUse" gradientTransform="translate(20.7084 12.5013) scale(6.48878 6.46165)">
<stop stop-color="#03A9F4"/>
<stop offset="1" stop-color="#0277BD"/>
</radialGradient>
<radialGradient id="paint6_radial_1029_2141" cx="0" cy="0" r="1" gradientUnits="userSpaceOnUse" gradientTransform="translate(16.5152 23.7206) scale(6.17665 6.15071)">
<stop stop-color="#03A9F4"/>
<stop offset="1" stop-color="#0277BD"/>
</radialGradient>
<radialGradient id="paint7_radial_1029_2141" cx="0" cy="0" r="1" gradientUnits="userSpaceOnUse" gradientTransform="translate(35.3166 18.1654) rotate(94.422) scale(31.7729 21.2393)">
<stop stop-color="#F48FB1"/>
<stop offset="0.4192" stop-color="#F06292"/>
<stop offset="1" stop-color="#EC407A"/>
</radialGradient>
<radialGradient id="paint8_radial_1029_2141" cx="0" cy="0" r="1" gradientUnits="userSpaceOnUse" gradientTransform="translate(28.3443 29.2705) scale(7.03649 7.00706)">
<stop stop-color="#F06292"/>
<stop offset="1" stop-color="#EC407A"/>
</radialGradient>
<radialGradient id="paint9_radial_1029_2141" cx="0" cy="0" r="1" gradientUnits="userSpaceOnUse" gradientTransform="translate(40.8968 29.1666) scale(6.8026 6.77414)">
<stop stop-color="#F06292"/>
<stop offset="1" stop-color="#EC407A"/>
</radialGradient>
<radialGradient id="paint10_radial_1029_2141" cx="0" cy="0" r="1" gradientUnits="userSpaceOnUse" gradientTransform="translate(33.736 41.3292) scale(6.17706 6.15112)">
<stop stop-color="#F06292"/>
<stop offset="0.5669" stop-color="#EC407A"/>
<stop offset="1" stop-color="#EC407A"/>
</radialGradient>
</defs>
</svg>
