<svg width="50" height="72" viewBox="0 0 50 72" fill="none" xmlns="http://www.w3.org/2000/svg">
<path d="M23.5051 20.051C23.5051 20.051 24.188 22.6848 21.2616 23.3676C18.701 23.9712 18.1644 21.3862 18.1644 21.3862C18.1644 21.3862 17.5975 18.7768 16.4269 18.5207C15.9818 18.4232 15.8843 18.5329 14.6101 18.3439C12.4336 18.0147 11.8605 16.96 11.6776 16.0028C11.6166 15.7102 11.5922 15.4236 11.5739 15.1737C11.5435 14.8262 11.513 14.5457 11.391 14.3872C11.2935 14.2592 9.94003 13.7409 10.1229 13.0886C10.3668 12.2229 11.9641 11.5339 11.8971 10.7292C11.9032 10.5219 11.769 9.84517 11.7507 9.75372C11.6227 8.98554 11.6654 7.91252 11.9093 6.8517C12.5799 3.9253 14.4881 1.7122 17.7621 1.40127C20.6946 1.13302 24.0477 3.31563 25.4195 5.91891C26.2974 7.5894 25.0232 11.8997 23.5234 14.1799C21.5725 17.1551 23.5051 20.051 23.5051 20.051Z" fill="#FFCA28"/>
<path d="M13.1895 15.6799C12.7261 15.9787 12.2018 16.064 11.6775 16.0031C11.6165 15.7104 11.5921 15.4239 11.5739 15.1739C11.9884 15.2593 12.5127 15.2349 12.8237 15.1312C13.3968 14.9361 13.7016 15.3629 13.1895 15.6799Z" fill="#795548"/>
<path d="M14.9153 11.3659C14.938 10.7737 14.6455 10.2817 14.2619 10.2669C13.8783 10.2522 13.5489 10.7203 13.5262 11.3125C13.5034 11.9047 13.7959 12.3967 14.1795 12.4115C14.5631 12.4262 14.8925 11.9581 14.9153 11.3659Z" fill="#404040"/>
<path d="M13.8357 9.84488C13.1651 10.0644 12.9882 9.6254 13.2077 9.2535C13.3662 8.98525 13.7686 8.74748 14.5673 8.87551C15.3172 8.99744 15.6403 9.41811 15.8476 9.67417C16.0549 9.93023 16.0427 10.1924 15.872 10.2168C15.6342 10.2655 14.6648 9.57663 13.8357 9.84488V9.84488Z" fill="#6D4C41"/>
<path d="M42.6851 48.3712L31.3636 50.633L28.2116 39.7383L20.6334 44.8168L26.157 55.9128L26.1814 55.8945C26.6204 56.6809 27.3642 57.3089 28.3091 57.6015C28.5835 57.6869 28.8578 57.7357 29.1383 57.754V57.7662L29.2297 57.7601C29.5712 57.7783 29.9065 57.754 30.2296 57.6869L44.2032 52.3767L42.6851 48.3712Z" fill="#616161"/>
<path d="M45.1116 46.0489C44.9165 45.7197 44.4958 45.6161 44.1666 45.8112L42.7217 46.6769C41.7401 47.2622 41.2097 48.9266 41.2097 48.9266L43.3557 52.5297L46.3614 55.1391C47.1357 55.7426 48.2026 55.8097 49.05 55.3159L49.7024 54.9318C49.9889 54.7611 50.0865 54.3892 49.9158 54.1026L45.1116 46.0489Z" fill="#325599"/>
<path d="M9.76307 67.3665L16.7194 54.0758C16.7194 54.0758 25.3828 46.9061 26.1387 46.4001C28.9615 44.5101 29.5224 41.8824 29.242 39.9742C29.0225 38.4927 28.0409 36.5234 28.0409 36.5234L16.6706 39.9132L17.2071 41.9983C17.2071 41.9983 13.7259 46.4976 12.9151 47.4365C12.1042 48.3754 10.7142 49.6862 9.63504 53.3868C8.49496 57.2887 5.63562 66.6959 5.63562 66.6959L9.76307 67.3665Z" fill="#7C7C7C"/>
<path d="M9.75699 71.5077C10.135 71.5687 10.4886 71.3126 10.5496 70.9407L10.8178 69.2763C11.0068 68.1485 10.074 66.6731 10.074 66.6731L5.93437 65.9902L2.00202 66.606C1.03874 66.8133 0.301043 67.5815 0.136433 68.5508L0.00840302 69.3007C-0.0464671 69.63 0.173013 69.9409 0.502233 69.9958L9.75699 71.5077Z" fill="#4568AD"/>
<path d="M12.9333 27.8736L7.47065 23.7157L4.8125 26.5568L10.3239 31.8974L10.33 31.8913C11.4091 33.0192 13.9392 33.7874 16.0426 31.8731C18.0423 30.0502 20.5114 26.1666 20.5114 26.1666L16.2377 22.7402L12.9333 27.8736Z" fill="url(#paint0_linear_1029_1900)"/>
<path d="M13.0614 25.3852C14.6282 29.7687 18.4692 29.9029 18.4692 29.9029L21.5297 24.6597C22.3527 23.2514 21.8772 21.4346 20.4689 20.6115L19.9628 20.3128C18.5545 19.4897 17.3596 19.8921 15.4635 22.66C13.7625 25.1536 13.0614 25.3852 13.0614 25.3852V25.3852Z" fill="#ED6D23"/>
<path d="M16.6706 39.908C15.1586 33.9089 14.8782 29.6961 15.2196 26.3185C15.6586 22.0631 17.6887 19.5208 19.9689 18.716C22.7856 17.7222 24.7365 19.155 25.523 21.7034C26.0595 23.4409 25.9558 24.7761 25.9132 25.6052C25.9132 25.6052 25.523 30.1594 29.1444 35.8598C29.1444 35.8598 28.7969 38.3351 23.0172 39.6947C20.4444 40.2982 16.6706 39.908 16.6706 39.908Z" fill="url(#paint1_linear_1029_1900)"/>
<path d="M25.9803 34.3298C25.9803 34.3298 23.3344 33.013 23.3039 33.0008C22.9686 32.824 22.554 32.9459 22.3772 33.2812L21.8102 34.342C21.7187 34.5188 21.7126 34.7139 21.7736 34.8907C21.4688 35.0675 20.7189 35.5309 20.5604 35.8418C20.3775 36.1954 20.5848 36.5673 20.7798 36.6527C21.0054 36.7502 21.1091 37.0672 21.042 37.305C20.9688 37.5489 20.9749 37.7988 21.0908 38C21.2066 38.2012 21.3529 38.2805 21.6334 38.3354C21.7675 38.3597 21.9077 38.5305 21.9077 38.6646C21.9016 38.8719 21.9016 39.2316 22.0053 39.3657C22.2126 39.64 22.554 39.5547 22.7308 39.7559C22.7978 39.8351 22.8039 40.1826 22.9442 40.3107C23.3587 40.7009 24.7061 39.9815 24.7061 39.9815L27.2789 37.5977L25.9803 34.3298Z" fill="#EDA600"/>
<path d="M25.1266 33.916L26.7544 34.3733L27.8701 37.4521C27.8701 37.4521 24.3889 40.8784 23.7975 39.9212C23.6085 39.6225 23.956 39.2994 23.45 39.1104C23.0903 38.9763 22.822 38.8056 22.9257 38.2508C22.9683 38.0435 22.8037 37.7874 22.6574 37.7691C21.999 37.6899 21.8283 37.3241 22.0233 36.8607C22.1331 36.6046 22.1087 36.1718 21.7368 35.9767C21.6027 35.9035 21.4137 35.6048 21.499 35.178C21.6393 34.5135 25.1266 33.916 25.1266 33.916V33.916Z" fill="url(#paint2_linear_1029_1900)"/>
<path d="M27.3641 37.8353L33.3937 33.7688V33.7628C34.1192 33.0433 34.3753 32.5434 34.5216 31.9398C34.985 30.0499 33.7534 28.733 33.7534 28.733L28.175 22.4961L24.7365 26.0505L29.6382 30.9522L25.9741 34.3358L27.3641 37.8353Z" fill="url(#paint3_linear_1029_1900)"/>
<path d="M27.4861 29.6958C27.4861 29.6958 31.1806 26.0439 31.0831 23.2333C31.0831 23.2333 29.3212 23.2272 26.6996 21.2458C25.0474 20.0021 22.8526 19.8984 21.9686 21.3495C21.1821 22.6298 21.3101 24.2088 22.8221 26.0195C23.9561 27.3669 27.4861 29.6958 27.4861 29.6958V29.6958Z" fill="#ED6D23"/>
<path d="M4.53826 24.4417L4.51997 24.4539C4.25781 24.7831 3.80666 24.8745 3.51402 24.649L2.32517 23.7528C2.03253 23.5333 2.00814 23.0821 2.2703 22.7529C2.53245 22.4237 2.98361 22.3322 3.27625 22.5578L4.4651 23.454C4.76384 23.6796 4.80652 24.1125 4.53826 24.4417V24.4417Z" fill="url(#paint4_linear_1029_1900)"/>
<path d="M5.53808 20.6923C5.55637 20.7045 5.56247 20.7166 5.56247 20.7166C6.10507 21.2958 6.58671 21.7775 6.794 21.9055C7.3427 22.253 7.85482 22.692 8.17184 23.3077C8.76322 24.46 8.00723 25.594 7.12322 26.4292C6.24529 27.2706 5.6905 27.4535 4.73332 27.295C3.95295 27.1669 2.30074 25.4172 2.30074 25.4172C2.13004 25.216 1.93495 25.0087 1.73985 24.8136C1.66669 24.7405 1.58743 24.6673 1.51427 24.588L1.50818 24.5819C1.2826 24.3625 1.25212 24.0698 1.50208 23.765C1.8313 23.3626 2.15442 23.5699 2.191 23.6004L2.1971 23.6065C2.34952 23.7467 2.51413 23.9357 2.63606 24.0271C2.98967 24.2893 3.18476 24.3381 3.18476 24.3381L4.85525 22.2164L4.28826 21.4604C4.28826 21.4604 4.28217 21.4482 4.26388 21.43C4.20291 21.3324 3.96514 20.9849 4.41629 20.5764C4.91622 20.1497 5.43444 20.5947 5.53808 20.6923V20.6923Z" fill="url(#paint5_linear_1029_1900)"/>
<path d="M5.4832 23.5678C5.19056 23.8788 4.73331 23.9275 4.45896 23.6837L3.19695 22.5558C2.9226 22.3119 2.93479 21.8608 3.22743 21.5498C3.52007 21.2389 3.97732 21.1901 4.25167 21.434L5.51369 22.5619C5.78194 22.8118 5.76975 23.2569 5.4832 23.5678Z" fill="url(#paint6_linear_1029_1900)"/>
<path d="M3.84316 23.7526C4.11751 23.3563 4.45282 22.8686 4.82472 22.4479C4.87959 22.387 4.92837 22.3321 4.98324 22.2772C5.49536 21.7468 6.16599 21.6554 7.00733 22.1126C7.03781 22.1309 7.0622 22.1431 7.09268 22.1614C7.14146 22.1919 7.19023 22.2224 7.2451 22.2528L7.2512 22.2589C7.32436 22.3077 7.39752 22.3565 7.47068 22.4114C7.72064 22.5943 7.90964 22.8198 8.02547 23.0393C8.48882 23.777 8.3547 24.4781 8.3547 24.4781C8.3547 24.4781 7.81819 26.112 7.02562 25.8255C6.23305 25.539 5.82458 24.4111 5.82458 24.4111L6.03186 23.5941C5.79409 23.5697 5.58681 23.6734 5.30636 23.9904C5.21491 24.094 5.11126 24.2221 4.98933 24.3745C4.97714 24.3928 4.82472 24.5818 4.81253 24.594C4.62963 24.7952 4.42234 24.8927 4.17238 24.8744C3.84925 24.8561 3.5749 24.5452 3.42249 24.4233C3.53832 24.2769 3.69074 23.966 3.84316 23.7526V23.7526Z" fill="url(#paint7_linear_1029_1900)"/>
<path d="M3.48352 25.6367L4.47118 24.8258L4.9955 24.2283L5.67832 23.6309L5.91609 23.7345L5.76977 24.5149L6.28189 25.2831L6.60502 25.5574L4.92843 26.7463L3.48352 25.6367Z" fill="url(#paint8_radial_1029_1900)"/>
<path d="M3.55067 25.1903C3.53238 25.5683 3.16658 25.7755 3.19097 25.7816C3.29461 25.8243 3.80673 25.6963 4.37373 25.0622C4.81269 24.5684 5.23336 23.9282 5.74548 23.7758C5.56867 24.6416 5.95276 25.3061 6.65998 25.5683C6.11737 25.0622 5.67841 24.2087 6.17225 23.5259C5.76986 23.282 5.30042 23.6844 5.06265 23.977C4.7883 24.3062 4.54443 24.8184 4.03841 24.7513C3.6909 24.7086 3.56287 24.4891 3.6848 24.1599C3.98963 23.3552 4.70294 22.5321 5.43455 22.0749C5.7028 21.9102 6.2515 21.8676 6.95871 22.0078C6.4405 21.6054 5.55648 21.7334 5.22116 21.892C4.93462 22.0261 5.00778 21.9712 4.75172 21.8066C4.62369 21.7213 4.49566 21.6359 4.37373 21.5566C4.47737 21.7273 4.66027 21.9346 4.69075 22.1358C4.72733 22.3858 4.48956 22.5992 4.34324 22.776C3.96525 23.2271 3.63603 22.8369 3.24584 22.5931C3.508 22.904 3.56896 23.0016 3.70309 23.221C3.87989 23.5198 3.61164 23.7636 3.41655 23.9953C3.02026 24.4709 2.20331 23.5015 2.14844 23.5624C2.08747 23.6356 3.56896 24.7757 3.55067 25.1903V25.1903Z" fill="#EDA600"/>
<path d="M27.2787 5.80331C26.5105 3.76702 24.8827 3.12687 24.3523 2.96835C24.1145 2.23066 22.9013 -0.567718 18.2983 0.102916C17.1765 0.267526 16.3534 0.785744 15.6218 1.24299C15.3109 1.43809 15.0122 1.62709 14.7378 1.74902C14.5122 1.85266 14.116 1.94411 13.7928 1.82828C13.0551 1.57222 13.3173 0.456523 13.3173 0.456523C13.3173 0.456523 10.5982 0.944258 11.72 3.58412C10.8055 3.96821 10.3665 4.92539 10.1897 5.82769C9.94584 7.05922 10.5311 8.25417 11.7078 8.80287C11.7078 8.80287 11.5066 6.80926 14.3781 6.97997C15.2682 7.03484 16.1949 7.18725 17.0302 6.87023C17.3472 6.74829 17.6459 6.5532 17.9569 6.40688H18.0666C19.1457 7.01045 17.6642 9.54667 18.847 11.0708C19.0787 11.3696 19.2859 11.2659 19.2859 11.2659L19.7859 10.5648C20.1639 10.0832 20.5053 9.6625 20.9625 9.77224C22.3099 10.0954 22.0234 12.5036 20.4077 13.0096C20.2492 13.0584 20.5723 15.7592 23.9011 15.8201C25.6204 15.8506 26.2545 14.4362 26.2545 14.4362C26.2545 14.4362 25.5167 14.6069 25.3704 13.979C25.2912 13.6558 25.596 13.223 26.1447 12.7535C27.7177 11.4001 27.1872 9.80882 26.9678 9.3089C27.1994 8.85774 27.8762 7.39454 27.2787 5.80331V5.80331Z" fill="#543930"/>
<path d="M26.9558 9.31423C26.9863 9.25936 26.4559 10.5275 24.2611 10.2775C23.3588 10.2592 22.0602 12.4174 23.3527 13.8806C24.4989 15.1731 26.2425 14.4415 26.2425 14.4415C26.2425 14.4415 26.0047 14.5086 25.6572 14.3806C25.4316 14.2952 25.3585 14.0026 25.3585 13.9904C25.2792 13.6673 25.5841 13.2344 26.1328 12.765C27.7057 11.3993 27.1753 9.80806 26.9558 9.31423V9.31423Z" fill="url(#paint9_radial_1029_1900)"/>
<path d="M27.2789 5.80347C26.8765 4.73045 26.1144 3.82205 25.1023 3.28554C24.956 3.20628 24.5963 3.02338 24.3464 2.97461C24.4561 3.45015 24.4378 3.95617 24.2244 4.46829C24.2183 4.48658 23.9745 5.25477 23.2977 5.86443C23.7672 6.54116 23.9988 7.35812 24.2122 8.16288C24.4012 8.864 24.578 9.63218 24.261 10.2845C24.6817 10.2662 25.3523 10.3943 26.0961 10.0772C26.8094 9.7724 27.1935 8.96154 27.3825 8.23604C27.5837 7.43128 27.5715 6.58384 27.2789 5.80347V5.80347Z" fill="url(#paint10_radial_1029_1900)"/>
<path d="M24.2182 4.46931C24.773 3.11585 24.0475 1.84774 22.9318 0.988111C21.621 -0.0178402 19.8773 -0.12758 18.2983 0.104093C17.1765 0.268704 16.3534 0.786921 15.6218 1.24417C15.3109 1.43927 15.0122 1.62826 14.7378 1.7502C14.5122 1.85384 14.116 1.94529 13.7928 1.82945C13.0551 1.57339 13.3173 0.457701 13.3173 0.457701C13.3173 0.457701 10.5982 0.945435 11.72 3.5853C10.8055 3.96939 10.3665 4.92656 10.1897 5.82887C9.94584 7.0604 10.5311 8.25535 11.7078 8.80405C11.7078 8.80405 11.5066 6.81044 14.3781 6.98114C15.2682 7.03601 16.1949 7.18843 17.0302 6.8714C17.7679 6.59096 18.0239 6.20077 18.8409 6.26174C19.7249 6.3288 20.8955 6.68241 21.8039 6.56047C23.6451 6.31051 24.2121 4.4937 24.2182 4.46931V4.46931Z" fill="url(#paint11_radial_1029_1900)"/>
<path d="M23.3527 13.8805C22.7735 13.2404 22.6333 12.2039 21.7188 11.6309C21.5359 12.2283 21.0909 12.7953 20.4019 13.0087C20.2434 13.0575 20.5665 15.7583 23.8953 15.8193C25.6146 15.8498 26.2486 14.4353 26.2486 14.4353C26.2486 14.4353 24.5233 15.1669 23.3527 13.8805Z" fill="url(#paint12_radial_1029_1900)"/>
<defs>
<linearGradient id="paint0_linear_1029_1900" x1="4.93608" y1="27.3518" x2="15.1445" y2="27.919" gradientUnits="userSpaceOnUse">
<stop offset="0.5979" stop-color="#FFCA28"/>
<stop offset="1" stop-color="#FFB300"/>
</linearGradient>
<linearGradient id="paint1_linear_1029_1900" x1="14.5905" y1="27.7894" x2="30.1897" y2="32.188" gradientUnits="userSpaceOnUse">
<stop stop-color="#F78C1F"/>
<stop offset="0.482" stop-color="#F47F12"/>
<stop offset="1" stop-color="#EF6C00"/>
</linearGradient>
<linearGradient id="paint2_linear_1029_1900" x1="27.1916" y1="35.479" x2="23.2217" y2="37.4072" gradientUnits="userSpaceOnUse">
<stop offset="0.5979" stop-color="#FFCA28"/>
<stop offset="1" stop-color="#FFB300"/>
</linearGradient>
<linearGradient id="paint3_linear_1029_1900" x1="31.9838" y1="34.7596" x2="26.993" y2="29.3151" gradientUnits="userSpaceOnUse">
<stop offset="0.5979" stop-color="#FFCA28"/>
<stop offset="1" stop-color="#FFB300"/>
</linearGradient>
<linearGradient id="paint4_linear_1029_1900" x1="3.99949" y1="22.9984" x2="2.77673" y2="24.2329" gradientUnits="userSpaceOnUse">
<stop offset="0.5" stop-color="#FFCA28"/>
<stop offset="1" stop-color="#FFB300"/>
</linearGradient>
<linearGradient id="paint5_linear_1029_1900" x1="3.23729" y1="26.342" x2="7.04961" y2="22.0595" gradientUnits="userSpaceOnUse">
<stop stop-color="#FFB300"/>
<stop offset="0.1375" stop-color="#FFCA28"/>
<stop offset="0.831" stop-color="#FFCA28"/>
</linearGradient>
<linearGradient id="paint6_linear_1029_1900" x1="4.94173" y1="21.9891" x2="3.74946" y2="23.14" gradientUnits="userSpaceOnUse">
<stop offset="0.5" stop-color="#FFCA28"/>
<stop offset="1" stop-color="#FFB300"/>
</linearGradient>
<linearGradient id="paint7_linear_1029_1900" x1="4.95112" y1="23.0518" x2="7.97386" y2="25.3564" gradientUnits="userSpaceOnUse">
<stop offset="0.5" stop-color="#FFCA28"/>
<stop offset="1" stop-color="#FFB300"/>
</linearGradient>
<radialGradient id="paint8_radial_1029_1900" cx="0" cy="0" r="1" gradientUnits="userSpaceOnUse" gradientTransform="translate(5.17541 24.533) scale(1.89405)">
<stop stop-color="#FFB300"/>
<stop offset="1" stop-color="#FFCA28"/>
</radialGradient>
<radialGradient id="paint9_radial_1029_1900" cx="0" cy="0" r="1" gradientUnits="userSpaceOnUse" gradientTransform="translate(22.7919 12.4072) rotate(21.3098) scale(4.34631 6.25948)">
<stop offset="0.45" stop-color="#6D4C41" stop-opacity="0"/>
<stop offset="1" stop-color="#6D4C41"/>
</radialGradient>
<radialGradient id="paint10_radial_1029_1900" cx="0" cy="0" r="1" gradientUnits="userSpaceOnUse" gradientTransform="translate(23.3694 8.05503) rotate(-6.6787) scale(4.40564 5.55936)">
<stop offset="0.45" stop-color="#6D4C41" stop-opacity="0"/>
<stop offset="1" stop-color="#6D4C41"/>
</radialGradient>
<radialGradient id="paint11_radial_1029_1900" cx="0" cy="0" r="1" gradientUnits="userSpaceOnUse" gradientTransform="translate(18.458 6.38536) rotate(-7.776) scale(9.06773 6.81545)">
<stop offset="0.45" stop-color="#6D4C41" stop-opacity="0"/>
<stop offset="1" stop-color="#6D4C41"/>
</radialGradient>
<radialGradient id="paint12_radial_1029_1900" cx="0" cy="0" r="1" gradientUnits="userSpaceOnUse" gradientTransform="translate(23.8112 12.984) rotate(15.3024) scale(4.88131 3.13835)">
<stop offset="0.45" stop-color="#6D4C41" stop-opacity="0"/>
<stop offset="1" stop-color="#6D4C41"/>
</radialGradient>
</defs>
</svg>
