<svg width="50" height="53" viewBox="0 0 50 53" fill="none" xmlns="http://www.w3.org/2000/svg">
<path d="M49.1386 31.0404C48.4966 29.6553 47.4149 28.5209 46.0606 27.8173C45.2427 27.3073 44.3545 26.9159 43.4223 26.6609C44.0951 24.1985 43.1409 22.2374 41.7998 20.7731C39.8166 18.6273 37.7544 18.3151 37.7544 18.3151C38.4667 16.9652 38.6822 15.4086 38.3524 13.918C38.0138 12.2954 36.9981 10.9015 35.5558 10.0836C34.1927 9.27897 32.513 8.88323 30.7893 8.55784C29.9626 8.40833 26.4757 7.92025 25.029 5.91955C23.8638 4.297 23.8286 1.3773 23.512 0.502268C23.1954 -0.372763 22.0258 -0.00340314 20.7726 0.836451C19.3084 1.83021 16.2743 4.96537 15.1047 8.11812C14.3308 10.0573 14.1373 12.1767 14.5419 14.2258C13.6009 14.3797 12.6819 14.6523 11.8112 15.0392C11.7409 15.0392 11.6705 15.0832 11.5958 15.114C10.2766 15.6592 7.44926 18.192 7.19863 22.0835C7.10629 23.4598 7.28217 24.8361 7.71309 26.1464C6.75012 26.3971 5.82232 26.7752 4.96048 27.2765C3.95353 27.7074 3.03453 28.323 2.25624 29.0925C1.39879 30.1522 0.774397 31.379 0.43142 32.6982C-0.364463 35.6047 -0.052266 38.7047 1.31085 41.3913C2.10233 42.9171 3.09609 44.3242 4.27452 45.5774C8.03408 49.4425 14.5243 50.9023 19.6645 51.7334C25.9041 52.7623 32.4382 52.4018 38.2776 49.9745C47.0368 46.3601 49.3672 40.5471 49.7102 38.9069C50.4709 35.2793 49.5387 31.8627 49.1386 31.0404V31.0404Z" fill="#885742"/>
<path d="M35.3139 38.8496C34.6235 39.2014 33.92 39.518 33.2121 39.7994C32.7372 39.9885 32.2579 40.16 31.7742 40.3139C31.2905 40.4722 30.8024 40.6085 30.3099 40.7536C29.325 40.9998 28.3224 41.1801 27.3111 41.2857C26.546 41.3692 25.7721 41.4088 25.0026 41.4088C22.9711 41.4088 20.9484 41.123 18.9917 40.5689L18.3497 40.3755C17.2724 40.0325 16.2215 39.6147 15.2057 39.1267L14.5945 38.8233C15.3245 41.8089 17.3867 44.2889 20.1877 45.5553C21.6959 46.2544 23.3405 46.6106 25.0026 46.6018C26.6823 46.615 28.3444 46.272 29.879 45.5861C32.7064 44.3417 34.7642 41.8177 35.4106 38.7969L35.3139 38.8496Z" fill="#35220B"/>
<path d="M34.3202 37.5784C31.2422 38.1193 28.1246 38.3787 25.0026 38.3567C21.8806 38.3743 18.7631 38.1149 15.6851 37.5784C15.1706 37.4773 14.6737 37.8159 14.5726 38.3303C14.5506 38.4491 14.5506 38.5766 14.5726 38.6953V38.8052C17.7913 40.4893 21.3706 41.3732 25.0026 41.3863C25.7721 41.3863 26.546 41.3468 27.3111 41.2632C28.3225 41.1577 29.325 40.9774 30.31 40.7312C30.8024 40.608 31.2905 40.4717 31.7742 40.2915C32.2579 40.1112 32.7372 39.9661 33.2121 39.777C33.9244 39.4824 34.6236 39.1658 35.3139 38.8272L35.4106 38.7744L35.437 38.6557C35.5118 38.1325 35.1468 37.6488 34.6192 37.574C34.5224 37.5608 34.4213 37.5608 34.3202 37.5784V37.5784Z" fill="white"/>
<path d="M32.0953 34.0123C35.1066 34.0123 37.5478 31.5712 37.5478 28.5599C37.5478 25.5486 35.1066 23.1074 32.0953 23.1074C29.084 23.1074 26.6429 25.5486 26.6429 28.5599C26.6429 31.5712 29.084 34.0123 32.0953 34.0123Z" fill="white"/>
<path d="M32.0953 31.1202C33.4868 31.1202 34.6149 29.9745 34.6149 28.5611C34.6149 27.1477 33.4868 26.002 32.0953 26.002C30.7038 26.002 29.5757 27.1477 29.5757 28.5611C29.5757 29.9745 30.7038 31.1202 32.0953 31.1202Z" fill="#35220B"/>
<path d="M17.91 34.0123C20.9213 34.0123 23.3625 31.5712 23.3625 28.5599C23.3625 25.5486 20.9213 23.1074 17.91 23.1074C14.8987 23.1074 12.4576 25.5486 12.4576 28.5599C12.4576 31.5712 14.8987 34.0123 17.91 34.0123Z" fill="white"/>
<path d="M17.91 31.1202C19.3015 31.1202 20.4296 29.9745 20.4296 28.5611C20.4296 27.1477 19.3015 26.002 17.91 26.002C16.5185 26.002 15.3904 27.1477 15.3904 28.5611C15.3904 29.9745 16.5185 31.1202 17.91 31.1202Z" fill="#35220B"/>
</svg>
