<svg width="50" height="51" viewBox="0 0 50 51" fill="none" xmlns="http://www.w3.org/2000/svg">
<path d="M29.192 46.4461C33.9341 51.1882 41.6972 51.1882 46.4434 46.4461C51.1855 41.7041 51.1855 33.9409 46.4434 29.1947L33.6257 16.377L16.3743 33.6284L29.192 46.4461Z" fill="url(#paint0_radial_1029_1483)"/>
<path d="M33.6257 16.3762L20.808 3.5585C16.0659 -1.18356 8.30278 -1.18356 3.55655 3.5585C-1.18552 8.30056 -1.18552 16.0637 3.55655 20.8099L16.3743 33.6277L33.6257 16.3762Z" fill="url(#paint1_radial_1029_1483)"/>
<path opacity="0.2" d="M12.1823 1.2501C15.1158 1.2501 17.8661 2.38353 19.9246 4.44204L45.56 30.0775C47.6186 32.136 48.752 34.8862 48.752 37.8198C48.752 40.7534 47.6186 43.5036 45.56 45.5621C43.5015 47.6206 40.7513 48.7541 37.8177 48.7541C34.8842 48.7541 32.1339 47.6206 30.0754 45.5621L4.43995 19.9267C2.38145 17.8682 1.24802 15.1179 1.24802 12.1843C1.24802 9.25077 2.38145 6.50054 4.43995 4.44204C6.49846 2.38353 9.24869 1.2501 12.1823 1.2501M12.1823 0C9.05701 0 5.92758 1.1876 3.55655 3.55863C-1.18552 8.30069 -1.18552 16.0638 3.55655 20.8101L29.192 46.4455C31.563 48.8166 34.6925 50.0042 37.8177 50.0042C40.943 50.0042 44.0724 48.8166 46.4435 46.4455C51.1855 41.7035 51.1855 33.9403 46.4435 29.1941L20.808 3.55863C18.437 1.1876 15.3075 0 12.1823 0V0Z" fill="#424242"/>
<path opacity="0.2" d="M34.509 17.2617L17.2573 34.5134L16.3734 33.6295L33.6251 16.3778L34.509 17.2617Z" fill="#424242"/>
<defs>
<radialGradient id="paint0_radial_1029_1483" cx="0" cy="0" r="1" gradientUnits="userSpaceOnUse" gradientTransform="translate(26.6665 25.2805) rotate(49.339) scale(28.5657 18.8913)">
<stop stop-color="#EF5350"/>
<stop offset="0.6263" stop-color="#D83534"/>
<stop offset="0.7356" stop-color="#D32F2F"/>
<stop offset="1" stop-color="#D32F2F"/>
</radialGradient>
<radialGradient id="paint1_radial_1029_1483" cx="0" cy="0" r="1" gradientUnits="userSpaceOnUse" gradientTransform="translate(5.27567 4.86178) rotate(45) scale(27.8962 21.9548)">
<stop stop-color="#FFEB3B"/>
<stop offset="0.349" stop-color="#FEE439"/>
<stop offset="0.6698" stop-color="#FDD835"/>
<stop offset="0.9954" stop-color="#FBC02D"/>
</radialGradient>
</defs>
</svg>
