<svg width="50" height="63" viewBox="0 0 50 63" fill="none" xmlns="http://www.w3.org/2000/svg">
<path d="M39.5447 40.1019C39.5447 40.1019 42.2411 37.4055 45.0824 38.2077C47.9237 39.0099 49.7455 40.4642 49.9629 43.4556C50.1802 46.447 49.466 48.6828 47.194 50.1578C44.2802 52.052 40.7816 50.8151 40.7816 50.8151L39.5447 40.1019Z" fill="#ECF0F2"/>
<path d="M22.1293 20.1408C22.1293 20.1408 24.2409 15.5502 24.096 9.35518C23.9511 3.16016 22.564 -0.115903 19.4588 0.00313269C16.0585 0.137694 15.0027 5.6185 15.0648 10.1574C15.1373 15.6951 17.1557 19.8717 17.1557 19.8717L22.1293 20.1408Z" fill="#A8A8A8"/>
<path d="M15.1373 38.3268L9.94116 38.7615C9.94116 38.7615 10.1119 39.2946 10.0602 39.7811C10.0136 40.2676 9.8894 41.4786 9.8894 41.4786L16.4467 46.6282L28.9299 39.6828L25.5762 37.4004L15.1373 38.3268Z" fill="#A8A8A8"/>
<path d="M1.04961 31.7073C0.796014 31.7073 0.57347 31.5209 0.537242 31.2622C0.495838 30.9775 0.692506 30.7187 0.977155 30.6773C1.03409 30.667 2.3797 30.4807 3.84953 30.4289C5.47462 30.3772 5.90936 30.3616 7.31708 30.6308C7.59656 30.6825 7.78288 30.9568 7.72595 31.2363C7.66902 31.5158 7.39989 31.6969 7.12042 31.6451C5.83173 31.3967 5.4591 31.4071 3.88576 31.4588C2.47286 31.5054 1.13759 31.6969 1.12207 31.6969C1.09619 31.7021 1.07549 31.7073 1.04961 31.7073V31.7073Z" fill="#8E9395"/>
<path d="M0.516668 35.3006C0.283773 35.3006 0.0715784 35.1401 0.0146484 34.9072C-0.0526325 34.6277 0.118158 34.3483 0.397633 34.281C0.470089 34.2603 2.21939 33.8359 3.29589 33.6444C4.3672 33.4477 6.30283 33.2148 6.38563 33.2045C6.67028 33.1631 6.92905 33.3701 6.96011 33.6548C6.99634 33.9394 6.79449 34.1982 6.50984 34.2292C6.48914 34.2292 4.52247 34.4725 3.4822 34.664C2.44194 34.8555 0.661581 35.285 0.646054 35.2902C0.5943 35.2954 0.558072 35.3006 0.516668 35.3006V35.3006Z" fill="#8E9395"/>
<path d="M32.8631 42.9908L14.5524 54.5062C14.5524 54.5062 10.7639 58.7811 11.6127 59.6816C12.063 60.1578 13.833 60.5822 15.3753 60.2406C17.5852 59.7541 19.5053 55.0651 19.5053 55.0651C19.5053 55.0651 18.5323 61.7207 20.0384 62.0106C21.5444 62.3004 23.7285 61.9381 24.7014 60.1422C25.6744 58.3464 26.0108 56.1571 26.8855 55.2359C27.7601 54.3147 28.5364 53.6315 28.5364 53.6315C28.5364 53.6315 29.0229 54.2163 29.3128 54.6045C29.6026 54.9927 30.1408 55.5257 30.1408 55.5257C30.1408 55.5257 27.8688 56.9335 27.0821 58.0514C26.28 59.1951 26.4456 60.5459 27.6152 61.0169C29.3128 61.6949 36.6516 58.7345 36.6516 58.7345L35.1921 42.4629L32.8631 42.9908Z" fill="#A8A8A8"/>
<path d="M30.0478 32.0127C30.0478 32.0127 30.2911 30.2634 29.9495 28.659C29.6079 27.0546 28.6401 25.2121 28.6401 25.2121C28.6401 25.2121 32.237 23.851 34.8092 21.522C37.6661 18.9343 41.8996 14.0901 42.2878 10.105C42.6759 6.11987 40.2952 2.5281 34.0277 6.31654C27.7603 10.105 23.2007 19.4829 23.2007 19.4829C23.2007 19.4829 18.2478 17.392 14.2161 19.5812C10.1844 21.7704 8.04696 27.4013 7.85029 27.7895C7.65362 28.1777 5.15906 29.3111 4.83818 32.7424C4.52248 36.1427 6.42187 38.0628 9.25801 38.8132C11.235 39.3359 13.0464 38.9115 13.0464 38.9115C13.0464 38.9115 14.5525 40.6091 18.4393 40.5625C22.326 40.5159 25.5296 38.4716 25.5296 38.4716C25.5296 38.4716 24.7999 41.2405 21.3013 42.7466C18.6773 43.8748 15.4737 43.7195 13.1396 42.7C10.8055 41.6804 9.98258 40.5159 9.98258 40.5159C9.98258 40.5159 9.15451 44.3044 9.98258 46.5867C10.8107 48.8691 12.4099 52.0261 12.3115 54.4068C12.2132 56.7876 10.6864 58.5369 11.4369 59.5047C11.8561 60.0481 13.5847 60.5035 14.9355 59.0699C17.2179 56.6426 17.1299 53.8945 17.9476 53.7754C19.6451 53.5322 18.8223 58.4851 18.7757 59.5047C18.7291 60.5242 18.5842 61.8129 19.6969 61.9837C22.0776 62.346 22.4658 61.4506 23.4853 59.0699C24.5049 56.6892 24.3859 55.4523 25.4261 54.0187C26.2749 52.8542 27.7085 52.0779 27.7085 52.0779C27.7085 52.0779 27.4394 48.8484 28.5107 47.1457C29.5768 45.4481 31.6936 44.1077 33.2462 44.6925C34.7989 45.2773 31.3779 45.6862 30.26 48.1187C29.4423 49.899 29.6027 51.7363 30.7724 52.9991C31.9368 54.2619 33.3446 55.3281 33.3446 55.3281C33.3446 55.3281 27.7758 57.3362 27.2738 59.3856C26.9115 60.8658 27.517 61.549 30.9173 61.2074C34.3176 60.8658 38.6391 59.7013 40.3418 57.5639C42.0393 55.4264 44.213 48.4188 42.4068 43.3055C40.9473 39.1755 39.907 37.3537 36.1652 34.6832C32.4285 32.0127 30.0478 32.0127 30.0478 32.0127V32.0127Z" fill="#DFDFDF"/>
<path d="M27.1341 20.8454C26.2232 19.9034 27.8121 16.5704 31.409 12.7354C35.0059 8.90041 37.4798 7.68417 38.696 8.55883C39.9123 9.43348 38.163 13.1753 34.7109 16.8188C31.8541 19.831 28.6401 22.398 27.1341 20.8454Z" fill="#FFB0B1"/>
<path d="M15.6446 20.6488C16.9902 20.9386 15.8257 22.9053 14.6975 24.7995C13.5692 26.6937 12.7308 27.6771 12.9844 28.588C13.238 29.4988 15.2047 31.2481 15.096 33.3235C14.9873 35.3988 13.238 37.7692 9.96194 37.5104C6.68588 37.2517 5.37131 34.7416 5.91991 32.0089C6.35465 29.8456 8.58009 28.8416 9.15974 27.7806C9.74457 26.7248 10.7072 24.9496 11.7112 23.4798C13.1345 21.4148 14.2938 20.359 15.6446 20.6488Z" fill="white"/>
<path d="M22.1548 28.7101C22.2875 27.3589 21.5925 26.1848 20.6026 26.0876C19.6127 25.9904 18.7027 27.007 18.57 28.3581C18.4374 29.7093 19.1323 30.8835 20.1222 30.9807C21.1122 31.0778 22.0222 30.0613 22.1548 28.7101Z" fill="#2F3030"/>
<path d="M8.89586 30.8241C8.89586 30.8241 10.521 29.4888 11.1524 30.1461C11.7838 30.8034 9.23227 32.3819 9.23227 32.3819C9.23227 32.3819 8.98902 33.5723 9.71876 33.6913C10.4485 33.8103 10.5468 32.2577 11.3439 32.6717C12.146 33.0858 11.4163 35.1508 10.0086 35.1715C9.17016 35.187 8.67332 34.5659 8.67332 34.5659C8.67332 34.5659 8.45078 35.0266 7.70034 34.9541C6.4634 34.8351 5.87858 32.325 6.79981 32.356C7.52954 32.3819 7.08963 33.5464 7.77279 33.5464C8.54911 33.5464 8.23341 32.1645 8.23341 32.1645C8.23341 32.1645 6.53586 30.3893 7.2863 29.7579C8.04709 29.1265 8.89586 30.8241 8.89586 30.8241Z" fill="#2F3030"/>
<path d="M20.2353 33.9382C20.1732 33.9382 20.1162 33.9278 20.0541 33.9071C20.0334 33.9019 18.1806 33.2136 16.9903 32.9548L14.1748 32.3493C13.8953 32.2872 13.7194 32.0129 13.7763 31.7334C13.8332 31.4539 14.1127 31.278 14.3922 31.3349L17.2076 31.9404C18.4704 32.2147 20.3336 32.9031 20.4112 32.9341C20.6804 33.0325 20.8149 33.3326 20.7166 33.6018C20.6441 33.8088 20.4475 33.9382 20.2353 33.9382V33.9382Z" fill="#8E9395"/>
<path d="M19.6505 37.3901C19.5574 37.3901 19.4642 37.3643 19.3762 37.3125C19.3607 37.3022 17.7667 36.3136 16.2917 35.5063C14.8322 34.7041 13.471 34.1555 13.4555 34.1503C13.1916 34.0416 13.0622 33.7414 13.1709 33.4775C13.2796 33.2135 13.5797 33.0842 13.8437 33.1928C13.9006 33.2135 15.2721 33.7725 16.7885 34.6057C18.2894 35.4286 19.9041 36.4327 19.9197 36.443C20.1629 36.5931 20.2354 36.914 20.0853 37.1572C19.9973 37.3022 19.8265 37.3901 19.6505 37.3901V37.3901Z" fill="#8E9395"/>
</svg>
