<svg width="50" height="50" viewBox="0 0 50 50" fill="none" xmlns="http://www.w3.org/2000/svg">
<path d="M37.4376 49.7504C37.5208 42.9284 43.0948 37.4376 49.9168 37.4376H50V0C49.9584 0 49.9584 0 49.9168 0C22.3794 0 0.0831947 22.2546 0 49.7504H37.4376Z" fill="#F44336"/>
<path d="M37.4376 49.751C37.5208 42.9291 43.0948 37.4382 49.9168 37.4382H50V6.24023C49.8336 6.24023 49.6672 6.24023 49.5008 6.24023C25.416 6.24023 5.90682 25.7078 5.82363 49.751H37.4376Z" fill="#FF9800"/>
<path d="M37.4376 49.7497C37.5208 42.9278 43.0948 37.4369 49.9168 37.4369H50V12.4785C49.9584 12.4785 49.9584 12.4785 49.9168 12.4785C29.2845 12.4785 12.5624 29.159 12.4792 49.7497H37.4376Z" fill="#FFEB3B"/>
<path d="M37.4376 49.7504C37.5208 42.9284 43.0948 37.4376 49.9168 37.4376H50V18.7188C49.9584 18.7188 49.9584 18.7188 49.9168 18.7188C32.7371 18.7188 18.802 32.6123 18.7188 49.7504H37.4376Z" fill="#8BC34A"/>
<path d="M37.4376 49.751C37.5208 42.929 43.0948 37.4382 49.9168 37.4382H50V24.959C49.9584 24.959 49.9584 24.959 49.9168 24.959C36.1897 24.959 25.0416 36.0239 24.9584 49.751H37.4376Z" fill="#2196F3"/>
<path d="M37.4376 49.7497C37.5208 42.9277 43.0948 37.4369 49.9168 37.4369H50V31.1973C49.9584 31.1973 49.9584 31.1973 49.9168 31.1973C39.6423 31.1973 31.2812 39.4751 31.198 49.7497H37.4376Z" fill="#673AB7"/>
<path opacity="0.2" d="M1.66389 49.7504C1.70549 36.9384 6.73877 24.8752 15.807 15.807C24.9168 6.69717 37.0216 1.66389 49.9168 1.66389H50V0C49.9584 0 49.9584 0 49.9168 0C22.3794 0 0.0831947 22.2546 0 49.7504H1.66389Z" fill="#424242"/>
<path opacity="0.2" d="M37.8535 49.7502C37.9367 43.1778 43.3028 37.8533 49.8752 37.8533H49.9584V36.1895C49.9168 36.1895 49.9168 36.1895 49.8752 36.1895C42.3461 36.1895 36.2728 42.2211 36.148 49.7502H37.8535Z" fill="#424242"/>
</svg>
