<svg width="50" height="58" viewBox="0 0 50 58" fill="none" xmlns="http://www.w3.org/2000/svg">
<path d="M10.3301 13.6557C5.87173 15.1806 -2.11066 21.8753 0.527546 35.7053C3.16575 49.5353 12.5423 55.5572 15.4419 56.5351C18.3415 57.5129 19.2758 56.2107 20.9797 56.6174C22.6836 57.024 25.4961 57.8372 26.6047 57.4306C27.7132 57.024 28.052 56.4528 30.0125 56.5351C31.973 56.6174 35.3809 54.4197 38.1063 51.0844C40.8316 47.7491 56.5689 26.019 39.0599 14.3044C39.0599 14.3044 36.2716 12.1164 31.4406 12.3245C27.3453 12.4988 26.0286 14.377 21.9043 14.0478C18.661 13.7864 16.0421 11.7049 10.3301 13.6557V13.6557Z" fill="url(#paint0_radial_1029_1078)"/>
<path opacity="0.2" d="M32.0843 13.7628C35.9134 13.7628 38.1546 15.4377 38.1692 15.4474C38.1982 15.4716 38.2272 15.4909 38.2563 15.5103C42.4581 18.3228 44.922 21.9824 45.5755 26.3874C46.2145 30.6763 45.2076 35.6478 42.5791 41.1566C40.1781 46.1909 37.3027 49.7731 36.9832 50.1652C34.4999 53.2052 31.4841 55.0882 30.119 55.0882H30.0706C29.9205 55.0834 29.7801 55.0786 29.6494 55.0786C28.1391 55.0786 27.3598 55.4707 26.7353 55.7853C26.5175 55.8966 26.3287 55.9886 26.1109 56.0709C26.1109 56.0709 26.0237 56.0951 25.8011 56.0951C24.8716 56.0951 23.2742 55.6982 22.1076 55.4077C21.8268 55.3351 21.5606 55.2722 21.3137 55.2141C20.9748 55.1318 20.636 55.0931 20.2874 55.0931C19.7259 55.0931 19.2225 55.1996 18.782 55.2915C18.3608 55.3787 17.9639 55.4658 17.5088 55.4658C17.0199 55.4658 16.4971 55.369 15.9066 55.1705C13.6072 54.396 4.50176 48.7759 1.95553 35.4445C0.861516 29.7179 1.5489 24.8045 4.00316 20.8399C6.01207 17.5918 8.83423 15.7136 10.7996 15.0407C12.2712 14.5373 13.612 14.2904 14.8997 14.2904C16.3519 14.2904 17.5282 14.5954 18.7771 14.9149C19.7356 15.1617 20.7279 15.4183 21.8026 15.5006C22.1608 15.5296 22.5142 15.5442 22.8579 15.5442C24.8184 15.5442 26.1883 15.0843 27.5195 14.6389C28.72 14.2372 29.8528 13.8547 31.5131 13.7821C31.7068 13.7676 31.8956 13.7628 32.0843 13.7628M32.0843 12.3105C31.8762 12.3105 31.6632 12.3154 31.4454 12.3251C27.6793 12.4848 26.2609 14.0871 22.8482 14.0871C22.5529 14.0871 22.2383 14.0726 21.9091 14.0484C19.6727 13.8693 17.7364 12.8333 14.8948 12.8333C13.5975 12.8333 12.1163 13.0512 10.3252 13.6611C5.86685 15.186 -2.11554 21.8807 0.522664 35.7107C3.16571 49.5456 12.5374 55.5626 15.437 56.5405C16.2648 56.8212 16.9328 56.9132 17.504 56.9132C18.6464 56.9132 19.4064 56.5405 20.2826 56.5405C20.5004 56.5405 20.7328 56.5647 20.9748 56.6227C22.3544 56.9519 24.4553 57.5473 25.7962 57.5473C26.1109 57.5473 26.3868 57.5134 26.5998 57.436C27.6357 57.0536 27.9987 56.5308 29.6446 56.5308C29.7608 56.5308 29.8818 56.5356 30.0077 56.5405H30.1142C32.0892 56.5405 35.4245 54.3621 38.1014 51.0849C40.8267 47.7497 56.564 26.0195 39.055 14.3049C39.0695 14.3049 36.5233 12.3105 32.0843 12.3105V12.3105Z" fill="#424242"/>
<path d="M17.4507 19.3343C17.0489 19.0535 16.773 18.4871 17.0779 18.158C17.3781 17.8433 19.1449 18.0031 20.5294 18.2838C20.8731 18.371 23.3322 19.0438 24.7408 18.9906C25.6896 18.9615 26.8175 18.6953 28.5118 18.3129C30.3028 17.8917 30.2641 17.6787 31.0774 17.611C31.8809 17.5335 32.6748 17.548 32.7862 17.9595C32.8781 18.308 32.4231 18.826 31.939 19.1261C30.0511 20.3024 27.4081 20.9753 24.7505 20.9124C21.6573 20.8494 19.1256 20.5106 17.4507 19.3343V19.3343Z" fill="url(#paint1_linear_1029_1078)"/>
<path d="M48.5334 1.77167C47.0618 2.42517 45.3869 1.36989 43.6878 0.745435C43.6878 0.745435 40.1734 -0.547045 36.2476 0.280723C33.5125 0.856772 31.615 2.309 30.7533 3.05931C27.9166 5.53778 27.0598 8.87789 26.7791 10.1074C26.8565 10.1849 27.1276 10.6254 27.1663 10.7416C27.1954 10.7367 27.2147 10.7367 27.2438 10.7319C29.3543 10.3882 33.5319 15.1757 40.6526 13.3411C47.7734 11.5064 49.942 1.08429 49.942 1.08429L50.0001 1.04556C49.9953 1.04072 48.8529 1.63129 48.5334 1.77167V1.77167Z" fill="url(#paint2_linear_1029_1078)"/>
<path opacity="0.2" d="M38.9826 1.45222C41.3545 1.45222 43.1747 2.10088 43.1892 2.10573C43.5184 2.22674 43.8524 2.36713 44.2106 2.51719C45.2659 2.96254 46.3599 3.42725 47.5313 3.42725C47.5991 3.42725 47.662 3.42725 47.7298 3.42241C46.6503 6.37526 44.3703 10.882 40.2944 11.9324C39.3311 12.1793 38.3678 12.3052 37.4287 12.3052C34.6646 12.3052 32.5008 11.2354 30.763 10.3786C29.9062 9.95742 29.1704 9.58952 28.4685 9.40073C29.2817 6.71896 30.6517 5.07794 31.7118 4.14368C32.6944 3.28203 34.3355 2.15897 36.5477 1.69426C37.3174 1.53452 38.1403 1.45222 38.9826 1.45222M38.9826 0C38.1258 0 37.2012 0.077452 36.2476 0.275923C33.5125 0.851972 31.615 2.3042 30.7533 3.05451C27.9166 5.53297 27.0598 8.87309 26.7791 10.1026C26.8565 10.1801 27.1276 10.6206 27.1663 10.7368C27.1954 10.7319 27.2147 10.7319 27.2438 10.7271C27.3164 10.7174 27.3938 10.7126 27.4713 10.7126C29.2817 10.7126 32.4476 13.7622 37.4239 13.7622C38.4259 13.7622 39.5005 13.6364 40.6526 13.3411C47.7734 11.5065 49.942 1.08433 49.942 1.08433L50.0001 1.0456C49.9808 1.0456 48.848 1.63133 48.5334 1.77171C48.209 1.91694 47.8702 1.97503 47.5265 1.97503C46.3163 1.97503 45.0093 1.22955 43.6878 0.740635C43.6878 0.745475 41.6692 0 38.9826 0V0Z" fill="#424242"/>
<path d="M23.6326 16.4493C23.6326 16.4493 23.6374 16.4251 23.6519 16.3767C23.6616 16.3332 23.6761 16.2751 23.6907 16.1928C23.7342 15.9701 23.802 15.6167 23.9037 15.1617C24.1166 14.2613 24.4797 12.9495 25.3075 11.5311C25.7238 10.8292 26.2659 10.1031 26.963 9.4593C27.3115 9.13497 27.694 8.83485 28.1151 8.5686C28.3233 8.43306 28.5362 8.31204 28.7686 8.19103L29.0833 8.03612L29.4366 7.87638C30.3709 7.47459 31.402 7.20835 32.4476 7.12606C33.498 7.03893 34.5388 7.11638 35.5408 7.18899C36.5477 7.26644 37.5255 7.33905 38.4791 7.27612C39.4279 7.21319 40.3477 7.02441 41.2045 6.70492C42.0952 6.39027 42.8939 6.03205 43.6636 5.63511C44.4236 5.24301 45.1303 4.84123 45.7645 4.43945C47.0376 3.64072 48.0445 2.89041 48.7222 2.33856C49.061 2.0578 49.3176 1.83028 49.4822 1.6657C49.6516 1.50111 49.7242 1.4043 49.7242 1.4043L49.7774 1.44302C49.7774 1.44302 49.7048 1.54952 49.5499 1.72863C49.395 1.90773 49.153 2.15945 48.8335 2.46442C48.1945 3.07436 47.2264 3.89728 45.9871 4.7783C45.3724 5.22365 44.6801 5.67384 43.925 6.12403C43.1843 6.56938 42.3372 7.00988 41.4659 7.37778C40.58 7.77956 39.5732 8.04096 38.5518 8.1523C37.5255 8.26848 36.4896 8.23459 35.4827 8.20071C34.4807 8.16198 33.498 8.14746 32.5734 8.29268C31.6488 8.42338 30.7824 8.71383 30.0078 9.11077L29.7271 9.25599L29.4269 9.43026C29.2575 9.53191 29.0687 9.64325 28.9041 9.76427C28.5653 9.99663 28.2603 10.258 27.9844 10.5388C27.4277 11.0906 27.0066 11.7102 26.6774 12.3153C26.0287 13.5401 25.7625 14.7067 25.6124 15.5248C25.5398 15.9362 25.4914 16.2654 25.4575 16.5074C25.4382 16.6285 25.4236 16.7253 25.3946 16.8511C25.3752 16.9237 25.3656 16.9576 25.3656 16.9576L23.6326 16.4493Z" fill="#558B2F"/>
<path d="M21.396 4.21567C21.062 3.64447 20.7522 3.26689 20.4715 3.16523C19.1015 2.67632 17.4702 4.34153 17.1023 4.73847C18.4722 5.81796 20.0939 5.05796 21.396 4.21567Z" fill="#42210B"/>
<path d="M25.3265 16.5017C24.8521 13.6456 22.9255 6.85407 21.3959 4.2207C20.0937 5.06299 18.4672 5.82299 17.1021 4.7435C17.0537 4.79675 17.0247 4.83064 17.0247 4.83064C20.2389 8.60158 21.4878 10.0828 22.8432 13.9409C24.2374 17.9007 24.5375 19.5998 24.4552 20.2145C24.3681 20.8535 25.4718 20.384 25.4718 20.384C25.4718 20.384 25.9655 20.3162 25.3265 16.5017V16.5017Z" fill="url(#paint3_linear_1029_1078)"/>
<path opacity="0.2" d="M19.9485 4.09468C19.9969 4.09468 20.0405 4.09952 20.0792 4.1092C20.1373 4.16245 20.2825 4.3222 20.5149 4.72882C21.3814 6.22461 22.4415 9.27912 23.2402 12.1061C22.0833 9.30817 20.8198 7.71072 18.414 4.88857C18.932 4.4529 19.5177 4.09468 19.9485 4.09468M19.9485 3.07812C18.7141 3.07812 17.4265 4.38997 17.107 4.7385C17.0586 4.79175 17.0295 4.82564 17.0295 4.82564C20.2438 8.59658 21.4927 10.0778 22.8481 13.9359C24.2423 17.8957 24.5424 19.5948 24.4601 20.2095C24.4262 20.4709 24.5859 20.5435 24.7893 20.5435C25.0894 20.5435 25.4815 20.379 25.4815 20.379C25.4815 20.379 25.9704 20.316 25.3314 16.5015C24.857 13.6455 22.9304 6.85391 21.4007 4.22054C21.0667 3.64933 20.7569 3.27176 20.4762 3.1701C20.3019 3.10717 20.1228 3.07812 19.9485 3.07812V3.07812Z" fill="#424242"/>
<defs>
<radialGradient id="paint0_radial_1029_1078" cx="0" cy="0" r="1" gradientUnits="userSpaceOnUse" gradientTransform="translate(14.9429 28.2236) rotate(29.3406) scale(26.2516 26.5409)">
<stop offset="0.1065" stop-color="#F4877F"/>
<stop offset="0.1898" stop-color="#F37B74"/>
<stop offset="0.3399" stop-color="#EF5C56"/>
<stop offset="0.5381" stop-color="#EA2927"/>
<stop offset="0.6654" stop-color="#E60505"/>
<stop offset="0.9203" stop-color="#B80404"/>
<stop offset="1" stop-color="#B71C1C"/>
</radialGradient>
<linearGradient id="paint1_linear_1029_1078" x1="16.7604" y1="19.2452" x2="32.6138" y2="19.2452" gradientUnits="userSpaceOnUse">
<stop stop-color="#E60505" stop-opacity="0"/>
<stop offset="0.5498" stop-color="#42210B"/>
<stop offset="1" stop-color="#E60505" stop-opacity="0"/>
</linearGradient>
<linearGradient id="paint2_linear_1029_1078" x1="27.0479" y1="6.12632" x2="49.5524" y2="7.64437" gradientUnits="userSpaceOnUse">
<stop offset="0.1235" stop-color="#689F38"/>
<stop offset="0.3217" stop-color="#73A743"/>
<stop offset="0.6685" stop-color="#8EBD60"/>
<stop offset="0.9927" stop-color="#AED581"/>
</linearGradient>
<linearGradient id="paint3_linear_1029_1078" x1="19.234" y1="4.01497" x2="24.5883" y2="20.2402" gradientUnits="userSpaceOnUse">
<stop offset="1.5563e-05" stop-color="#8C6239"/>
<stop offset="0.992" stop-color="#603813"/>
</linearGradient>
</defs>
</svg>
