<svg width="50" height="46" viewBox="0 0 50 46" fill="none" xmlns="http://www.w3.org/2000/svg">
<path d="M37.4791 0C28.35 0 24.9958 9.32915 24.9958 9.32915C24.9958 9.32915 21.6875 0 12.4958 0C5.58751 0 -2.28748 5.47499 0.620852 17.9208C3.52918 30.3666 25.0208 45.8707 25.0208 45.8707C25.0208 45.8707 46.4333 30.3666 49.3458 17.9208C52.2541 5.47499 44.9458 0 37.4791 0V0Z" fill="#F44336"/>
<path d="M11.0874 0.929165C18.254 0.929165 21.8123 8.63332 22.9623 11.7541C23.1248 12.2 23.7457 12.2125 23.9332 11.7791L24.9832 9.32498C23.504 4.59999 19.4373 0 12.4957 0C9.62069 0 6.5832 0.949998 4.2207 2.95416C6.3082 1.58333 8.75403 0.929165 11.0874 0.929165V0.929165Z" fill="#CC3333"/>
<path d="M37.4793 0C35.2751 0 33.2668 0.479166 31.7002 1.44583C32.8002 1.02083 34.1626 0.929165 35.5126 0.929165C42.2668 0.929165 48.3126 6.04999 45.5835 17.8875C43.2418 28.0499 29.5585 40.3791 25.3793 45.0832C25.1127 45.3832 25.021 45.8666 25.021 45.8666C25.021 45.8666 46.4335 30.3624 49.346 17.9166C52.2543 5.47499 44.9585 0 37.4793 0V0Z" fill="#CC3333"/>
<path d="M5.41698 6.60521C6.97947 4.65521 9.77113 3.04272 12.1378 4.90105C13.417 5.90521 12.8586 7.96354 11.7128 8.83021C10.0461 10.0969 8.59614 10.8594 7.57947 12.8427C6.97114 14.0344 6.60447 15.3385 6.41697 16.6677C6.34197 17.1927 5.65447 17.3219 5.39614 16.8594C3.63781 13.7427 3.13781 9.45104 5.41698 6.60521Z" fill="#FF8A80"/>
<path d="M30.4671 10.7042C29.7338 10.7042 29.2171 9.99584 29.4838 9.3125C29.9796 8.05417 30.6213 6.83751 31.3921 5.75418C32.5338 4.15418 34.7046 3.22085 36.0796 4.19168C37.4879 5.18335 37.3046 7.16667 36.3171 8.12501C34.1963 10.1792 31.5213 10.7042 30.4671 10.7042Z" fill="#FF8A80"/>
</svg>
