<svg width="50" height="50" viewBox="0 0 50 50" fill="none" xmlns="http://www.w3.org/2000/svg">
<path d="M47.2641 17.2641C46.0186 21.1325 45.0824 29.2487 32.0339 31.9376L21.8845 44.6604C48.5549 43.6005 49.0168 25.1659 48.4807 17.4209C48.4271 16.728 47.4785 16.6002 47.2641 17.2641V17.2641Z" fill="url(#paint0_linear_1029_1206)"/>
<path d="M30.4006 2.84454C30.4006 2.84454 23.8062 -0.0546873 13.4712 4.50241C6.91397 7.39339 3.90752 12.8743 3.18993 17.584C3.11982 18.0376 3.56522 18.1861 4.02712 17.584C6.41496 14.4785 9.14097 11.6041 16.0034 10.1441C25.2702 7.95426 30.4006 11.3979 30.4006 11.3979V2.84454Z" fill="url(#paint1_linear_1029_1206)"/>
<path d="M25.4889 18.1133C19.2822 18.1133 17.0015 24.4561 17.0015 24.4561C17.0015 24.4561 14.7498 18.1133 8.49771 18.1133C3.80039 18.1133 -1.55679 21.8373 0.42277 30.2999C2.40233 38.7625 17.0139 49.3078 17.0139 49.3078C17.0139 49.3078 31.576 38.7625 33.5556 30.2999C35.5351 21.8373 30.5615 18.1133 25.4889 18.1133Z" fill="#EF5592"/>
<path d="M7.53686 18.7443C12.4115 18.7443 14.8323 23.9818 15.6118 26.1057C15.7231 26.4068 16.1438 26.4192 16.2716 26.1222L16.9851 24.4561C15.9788 21.2435 13.2157 18.1133 8.49364 18.1133C6.53883 18.1133 4.47267 18.7608 2.86841 20.1217C4.28709 19.1897 5.95322 18.7443 7.53686 18.7443V18.7443Z" fill="#DA2E75"/>
<path d="M25.4889 18.1133C23.9878 18.1133 22.7217 18.5504 21.6576 19.2062C22.4041 18.9175 23.233 18.7443 24.1527 18.7443C28.7469 18.7443 32.8545 22.225 31.0028 30.2752C29.4109 37.1871 20.1029 45.5714 17.2614 48.7716C17.0799 48.9737 17.0181 49.3036 17.0181 49.3036C17.0181 49.3036 31.5802 38.7584 33.5597 30.2958C35.5352 21.8373 30.1862 18.1133 25.4889 18.1133V18.1133Z" fill="#DA2E75"/>
<path d="M3.68081 22.6093C4.74482 21.2814 6.64189 20.1885 8.25028 21.4505C9.12046 22.1309 8.74105 23.5331 7.9616 24.1229C6.82748 24.9848 5.84182 25.5044 5.1531 26.853C4.73657 27.6654 4.48913 28.548 4.36128 29.4553C4.31179 29.81 3.84165 29.9007 3.66843 29.5873C2.47245 27.4634 2.13428 24.5435 3.68081 22.6093V22.6093Z" fill="#F386AB"/>
<path d="M20.7174 25.3966C20.2183 25.3966 19.8678 24.9141 20.0493 24.4522C20.3874 23.5985 20.8246 22.7696 21.3483 22.0314C22.1237 20.9426 23.6001 20.3075 24.5362 20.9674C25.493 21.6437 25.3693 22.9923 24.6971 23.6439C23.2537 25.0378 21.4349 25.3966 20.7174 25.3966Z" fill="#F386AB"/>
<path d="M43.643 0C39.0117 0 37.3085 4.73444 37.3085 4.73444C37.3085 4.73444 35.63 0 30.9656 0C27.4602 0 23.4598 2.77963 24.9404 9.09358C26.4168 15.4075 37.325 23.2804 37.325 23.2804C37.325 23.2804 48.1919 15.4117 49.6683 9.09771C51.1447 2.77963 47.4331 0 43.643 0V0Z" fill="#EF5592"/>
<path d="M30.248 0.474269C33.8855 0.474269 35.6918 4.38389 36.2733 5.96754C36.3558 6.19436 36.6733 6.20261 36.7682 5.97991L37.3002 4.73444C36.5496 2.33423 34.4876 0 30.9615 0C29.5016 0 27.9633 0.482517 26.7632 1.49704C27.8231 0.804195 29.0644 0.474269 30.248 0.474269V0.474269Z" fill="#DA2E75"/>
<path d="M43.643 0C42.5254 0 41.5768 0.325802 40.7809 0.816567C41.3376 0.602115 41.9563 0.474268 42.6409 0.474268C46.068 0.474268 49.1363 3.07243 47.7506 9.08121C46.567 14.2363 39.622 20.4966 37.5023 22.8804C37.3662 23.0329 37.3208 23.2804 37.3208 23.2804C37.3208 23.2804 48.1877 15.4117 49.6642 9.09771C51.1447 2.77963 47.1485 0 43.643 0V0Z" fill="#DA2E75"/>
<path d="M27.3735 3.35347C28.1653 2.3637 29.584 1.54713 30.7841 2.48742C31.4316 2.9988 31.1512 4.04219 30.5697 4.48347C29.7242 5.12682 28.986 5.51449 28.4746 6.52076C28.1653 7.127 27.9797 7.78685 27.8849 8.4632C27.8478 8.73126 27.4972 8.79313 27.3653 8.56218C26.4703 6.97441 26.2146 4.7969 27.3735 3.35347V3.35347Z" fill="#F386AB"/>
<path d="M40.0839 5.43622C39.7128 5.43622 39.4488 5.07743 39.5849 4.73101C39.8365 4.09177 40.1623 3.47316 40.5541 2.92466C41.1314 2.11222 42.2367 1.63795 42.9337 2.12872C43.6471 2.63185 43.5564 3.63813 43.0532 4.12477C41.9769 5.16816 40.62 5.43622 40.0839 5.43622Z" fill="#F386AB"/>
<defs>
<linearGradient id="paint0_linear_1029_1206" x1="30.358" y1="28.6912" x2="48.12" y2="36.6576" gradientUnits="userSpaceOnUse">
<stop offset="0.1093" stop-color="#FFBFD6" stop-opacity="0.0378"/>
<stop offset="0.6002" stop-color="#FFBFD6"/>
</linearGradient>
<linearGradient id="paint1_linear_1029_1206" x1="29.8779" y1="8.01386" x2="1.99511" y2="11.3056" gradientUnits="userSpaceOnUse">
<stop offset="0.1178" stop-color="#FFBFD6" stop-opacity="0.0378"/>
<stop offset="0.5329" stop-color="#FFBFD6"/>
</linearGradient>
</defs>
</svg>
