<svg width="50" height="50" viewBox="0 0 50 50" fill="none" xmlns="http://www.w3.org/2000/svg">
<path d="M4.25151 38.2045C0.217014 42.239 0 49.5929 0 49.5929C0 49.5929 7.3489 49.3759 11.3883 45.3414C15.4278 41.3069 17.0998 36.4388 15.1269 34.4709C13.154 32.498 8.28601 34.17 4.25151 38.2045V38.2045Z" fill="url(#paint0_linear_1029_739)"/>
<path opacity="0.2" d="M12.8236 34.629C13.5289 34.629 14.0665 34.8115 14.4265 35.1666C15.7829 36.523 14.5794 40.7498 10.688 44.6462C7.87664 47.4575 3.19603 48.2861 1.07521 48.5229C1.31195 46.402 2.14055 41.7214 4.94694 38.9101C7.54619 36.3059 10.6386 34.629 12.8236 34.629ZM12.8236 33.6426C10.4512 33.6426 7.13682 35.3195 4.25151 38.2097C0.217014 42.2442 0 49.5981 0 49.5981C0 49.5981 7.3489 49.3811 11.3883 45.3466C15.4278 41.3121 17.0998 36.444 15.1269 34.4761C14.5646 33.904 13.7706 33.6426 12.8236 33.6426Z" fill="#424242"/>
<path d="M5.47454 39.6268C2.93449 42.1668 2.79639 46.7932 2.79639 46.7932C2.79639 46.7932 7.42274 46.6551 9.9628 44.115C12.5029 41.575 13.5583 38.5072 12.3154 37.2692C11.0725 36.0312 8.01953 37.0818 5.47454 39.6268V39.6268Z" fill="url(#paint1_linear_1029_739)"/>
<path d="M10.6828 39.6704C13.0995 42.25 16.2709 41.9787 16.5323 41.5545L18.7419 37.9639C18.8751 37.7469 18.7518 37.4017 18.6581 37.3129L12.6951 31.3499C12.6014 31.2562 12.2709 31.1477 12.0539 31.2809L8.46333 33.4905C8.0441 33.7519 7.57061 36.3412 10.6828 39.6704V39.6704Z" fill="#546E7A"/>
<path d="M26.9196 46.2307C26.4264 46.6302 25.7655 46.5414 25.6817 45.9496C25.4499 44.3121 25.6028 41.0224 23.5411 38.9607C21.5288 36.9484 18.2588 36.6525 18.2588 36.6525L30.5694 30.5859C30.5694 30.5859 32.8875 34.1617 31.6101 39.2517C30.5448 43.4588 28.7248 44.756 26.9196 46.2307V46.2307Z" fill="#0288D1"/>
<path opacity="0.2" d="M29.874 32.5736C29.9628 32.8153 30.0565 33.0915 30.1404 33.3973C30.4758 34.6204 30.7569 36.5686 30.17 38.8867C29.4252 41.8559 28.3106 43.1284 27.0035 44.2431C26.8358 42.359 26.4709 39.7943 24.5819 37.9102C23.8914 37.2197 23.0825 36.6969 22.2884 36.3072L29.874 32.5736ZM30.5645 30.5859L18.2539 36.6525C18.2539 36.6525 21.5289 36.9533 23.5362 38.9607C25.5979 41.0224 25.445 44.3121 25.6768 45.9496C25.7261 46.2998 25.9826 46.4773 26.2834 46.4773C26.4906 46.4773 26.7175 46.3935 26.9148 46.2307C28.7199 44.756 30.5399 43.4588 31.6003 39.2517C32.8876 34.1568 30.5645 30.5859 30.5645 30.5859V30.5859Z" fill="#424242"/>
<path d="M3.51177 23.5271C3.02842 23.9414 3.20104 24.6812 3.7929 24.765C5.43037 24.9968 8.72012 24.844 10.7818 26.9056C12.7941 28.9179 13.2133 31.7687 13.2133 31.7687L19.1615 19.1769C19.1615 19.1769 16.0148 17.7022 11.4377 18.8908C8.28115 19.7145 5.14924 22.1165 3.51177 23.5271V23.5271Z" fill="#0288D1"/>
<path opacity="0.2" d="M14.9888 19.9074C15.8125 19.9074 16.5227 19.9962 17.085 20.1047L13.3859 27.9468C12.9913 27.2415 12.4833 26.5165 11.8273 25.8654C10.0764 24.1145 7.74843 23.6755 5.91367 23.4881C7.50676 22.2748 9.67197 20.8839 11.8027 20.3266C12.868 20.0455 13.9383 19.9074 14.9888 19.9074M14.9888 18.4277C13.9481 18.4277 12.7496 18.551 11.4377 18.8914C8.2811 19.715 5.15412 22.117 3.51665 23.5276C3.0333 23.9419 3.20592 24.6817 3.79778 24.7655C5.43525 24.9974 8.725 24.8445 10.7866 26.9061C12.799 28.9184 13.2182 31.7692 13.2182 31.7692L19.1614 19.1774C19.1614 19.1774 17.5634 18.4277 14.9888 18.4277V18.4277Z" fill="#424242"/>
<path opacity="0.2" d="M12.1922 32.9381L17.0849 37.8308L15.5412 40.3413C15.4918 40.3462 15.4376 40.3462 15.3784 40.3462C14.9 40.3462 13.2329 40.2229 11.7631 38.6545C9.90371 36.6668 9.61271 35.1132 9.63737 34.5065L12.1922 32.9381ZM12.2958 31.2168C12.212 31.2168 12.1281 31.2365 12.0541 31.276L8.46352 33.4856C8.03935 33.747 7.56587 36.3364 10.6781 39.6656C12.2613 41.3573 14.17 41.8258 15.3735 41.8258C16.0048 41.8258 16.4388 41.6976 16.5276 41.5497L18.7372 37.959C18.8704 37.742 18.747 37.3968 18.6533 37.308L12.6953 31.35C12.6361 31.2908 12.4684 31.2168 12.2958 31.2168V31.2168Z" fill="#424242"/>
<path d="M34.7814 2.73242C36.779 3.6498 39.4719 5.22809 42.0416 7.79774C42.9491 8.70525 43.7234 9.6325 44.3942 10.54C45.6913 12.2909 46.5791 13.9629 47.1611 15.2699C45.864 18.6781 43.4176 22.6435 41.0255 25.0356C31.2549 34.8062 20.4634 40.3844 14.8802 36.4338C14.5547 36.202 14.2341 35.9899 13.9431 35.7285C9.15399 31.4227 14.6385 19.0973 24.6015 9.13435C27.1021 6.63375 31.2697 4.0789 34.7814 2.73242V2.73242Z" fill="url(#paint2_radial_1029_739)"/>
<path d="M32.1826 21.2734C34.6069 21.2734 36.5722 19.3081 36.5722 16.8838C36.5722 14.4594 34.6069 12.4941 32.1826 12.4941C29.7583 12.4941 27.793 14.4594 27.793 16.8838C27.793 19.3081 29.7583 21.2734 32.1826 21.2734Z" fill="#455A64"/>
<path opacity="0.2" d="M32.1821 13.4806C33.0897 13.4806 33.9479 13.8357 34.589 14.4769C35.2302 15.118 35.5853 15.9762 35.5853 16.8838C35.5853 17.7913 35.2302 18.6495 34.589 19.2906C33.9479 19.9318 33.0897 20.2869 32.1821 20.2869C31.2746 20.2869 30.4164 19.9318 29.7753 19.2906C28.4485 17.9639 28.4485 15.8036 29.7753 14.4769C30.4164 13.8357 31.2697 13.4806 32.1821 13.4806M32.1821 12.4941C31.0576 12.4941 29.9331 12.9232 29.0749 13.7814C27.3585 15.4978 27.3585 18.2746 29.0749 19.991C29.9331 20.8492 31.0576 21.2783 32.1821 21.2783C33.3067 21.2783 34.4312 20.8492 35.2894 19.991C37.0058 18.2746 37.0058 15.4978 35.2894 13.7814C34.4312 12.9232 33.3067 12.4941 32.1821 12.4941V12.4941Z" fill="#424242"/>
<path d="M23.127 29.6729C24.8812 29.6729 26.3033 28.2508 26.3033 26.4966C26.3033 24.7424 24.8812 23.3203 23.127 23.3203C21.3728 23.3203 19.9507 24.7424 19.9507 26.4966C19.9507 28.2508 21.3728 29.6729 23.127 29.6729Z" fill="#455A64"/>
<path d="M34.7816 2.73333C33.8691 7.23638 41.8197 16.0551 47.1613 15.2708C48.8234 10.9749 49.504 8.06005 49.9578 3.04405C50.1896 0.503997 49.4449 -0.221029 47.0922 0.0551711C40.853 0.785129 38.387 1.25862 34.7816 2.73333Z" fill="#E53935"/>
<path opacity="0.2" d="M47.9355 1.4816C48.2314 1.4816 48.3794 1.51612 48.4336 1.53585C48.4731 1.62463 48.5717 1.96988 48.4879 2.91192C48.0489 7.77009 47.4176 10.5321 45.7851 14.7441C44.5323 18.024 42.1451 21.8267 39.9799 23.9919C32.4288 31.543 24.4979 36.2384 19.2797 36.2384C17.874 36.2384 16.6804 35.8981 15.7335 35.2274L15.5707 35.1139C15.3192 34.9413 15.1071 34.7884 14.9295 34.6306C14.1305 33.9105 13.7064 32.8106 13.6669 31.3606C13.5288 26.0832 18.4511 17.373 25.6422 10.1819C27.8962 7.92791 31.8715 5.43225 35.3042 4.1203L35.3338 4.1055C38.8209 2.68011 41.2475 2.23128 47.2548 1.52599C47.5162 1.49639 47.7431 1.4816 47.9355 1.4816M47.9355 0.00195312C47.679 0.00195312 47.4028 0.021682 47.0921 0.0562071C40.8529 0.786165 38.3868 1.25965 34.7814 2.73436C31.2697 4.07591 27.1021 6.63076 24.6015 9.13136C14.6385 19.0943 9.15399 31.4197 13.9431 35.7255C14.2292 35.982 14.5498 36.199 14.8802 36.4308C16.1133 37.3038 17.6028 37.7132 19.2797 37.7132C25.1884 37.7132 33.4152 32.6478 41.0305 25.0375C43.4226 22.6454 45.8689 18.68 47.1661 15.2719C48.8282 10.976 49.5088 8.06108 49.9626 3.04509C50.1549 0.840419 49.6223 0.00195312 47.9355 0.00195312V0.00195312Z" fill="#424242"/>
<path opacity="0.2" d="M23.1267 24.3067C23.7136 24.3067 24.2611 24.5336 24.6754 24.9479C25.0897 25.3622 25.3166 25.9097 25.3166 26.4966C25.3166 27.0835 25.0897 27.631 24.6754 28.0453C24.2611 28.4596 23.7136 28.6865 23.1267 28.6865C22.5398 28.6865 21.9923 28.4596 21.578 28.0453C21.1637 27.631 20.9368 27.0835 20.9368 26.4966C20.9368 25.9097 21.1637 25.3622 21.578 24.9479C21.9972 24.5336 22.5447 24.3067 23.1267 24.3067M23.1267 23.3203C22.3129 23.3203 21.504 23.631 20.8826 24.2525C19.6446 25.4905 19.6446 27.5028 20.8826 28.7407C21.504 29.3622 22.3129 29.6729 23.1267 29.6729C23.9405 29.6729 24.7494 29.3622 25.3708 28.7407C26.6088 27.5028 26.6088 25.4905 25.3708 24.2525C24.7543 23.631 23.9405 23.3203 23.1267 23.3203V23.3203Z" fill="#424242"/>
<defs>
<linearGradient id="paint0_linear_1029_739" x1="15.9476" y1="41.6166" x2="-0.00493204" y2="41.6166" gradientUnits="userSpaceOnUse">
<stop stop-color="#FF6D00"/>
<stop offset="0.2487" stop-color="#FF9B00"/>
<stop offset="0.5135" stop-color="#FFC600"/>
<stop offset="0.721" stop-color="#FFE000"/>
<stop offset="0.8439" stop-color="#FFEA00"/>
</linearGradient>
<linearGradient id="paint1_linear_1029_739" x1="10.5374" y1="38.9688" x2="2.27851" y2="47.4787" gradientUnits="userSpaceOnUse">
<stop offset="0.0044475" stop-color="#C62828"/>
<stop offset="0.2711" stop-color="#D75327"/>
<stop offset="0.5983" stop-color="#E98126"/>
<stop offset="0.8504" stop-color="#F59D25"/>
<stop offset="0.9953" stop-color="#F9A825"/>
</linearGradient>
<radialGradient id="paint2_radial_1029_739" cx="0" cy="0" r="1" gradientUnits="userSpaceOnUse" gradientTransform="translate(33.7407 9.64236) rotate(180) scale(17.989)">
<stop offset="0.0112" stop-color="#F5F5F5"/>
<stop offset="0.9995" stop-color="#BDBDBD"/>
</radialGradient>
</defs>
</svg>
