<svg width="50" height="50" viewBox="0 0 50 50" fill="none" xmlns="http://www.w3.org/2000/svg">
<path d="M46.6667 50H3.33333C1.49167 50 0 48.5083 0 46.6667V3.33333C0 1.49167 1.49167 0 3.33333 0H46.6667C48.5083 0 50 1.49167 50 3.33333V46.6667C50 48.5083 48.5083 50 46.6667 50Z" fill="url(#paint0_linear_1029_2054)"/>
<path d="M12.5625 27.1424L29.425 36.6924C34.95 22.3424 43.1458 12.7383 50 6.70078V3.33411C50 2.08411 49.3125 0.996615 48.2917 0.425781C35.8333 3.51328 18.7792 10.6758 12.5625 27.1424V27.1424Z" fill="url(#paint1_linear_1029_2054)"/>
<path d="M46.0126 3.70053C24.3376 10.9547 15.4167 28.9839 15.4167 28.9839L23.8459 35.9172C23.8459 35.9172 25.7209 27.4797 31.3667 18.513C35.9417 11.2505 43.1584 6.61303 46.3626 4.40469C46.7417 4.14636 46.4501 3.55469 46.0126 3.70053Z" fill="url(#paint2_linear_1029_2054)"/>
<path d="M29.6833 26.4124C29.8083 24.3124 30.9792 19.1457 30.9792 19.1457C31.2833 17.4374 29.7292 17.0207 28.675 17.554C25.6792 19.0707 22.4958 21.204 20.5375 21.3707C18.2042 21.5707 17.9292 19.0624 17.9625 17.7207C15.7625 20.4624 13.9083 23.5832 12.5625 27.1415L29.425 36.6915C34.775 22.7915 42.6375 13.3457 49.3542 7.27904L50 6.70404V5.7207C40.3708 12.529 35.5625 20.304 32.7625 24.3749C30.9917 26.9457 29.5833 28.0832 29.6833 26.4124V26.4124Z" fill="url(#paint3_linear_1029_2054)"/>
<path d="M10.6583 19.1174L17.65 23.6258C18.1875 23.9716 18.8666 23.9966 19.4291 23.6966L26.6166 19.8133C27.4583 19.4174 28.3875 20.1549 28.1916 21.0633L25.9166 28.7424C25.7333 29.3633 25.9083 30.0341 26.3708 30.4883L32.4583 36.4591C33.0958 37.1383 32.6791 38.2507 31.7541 38.3424L23.5375 38.7966C22.9083 38.8299 22.3416 39.2049 22.0625 39.7716L18.4333 47.1591C17.9875 47.9758 16.8 47.9216 16.425 47.0716L13.3083 39.1341C13.0708 38.5299 12.5208 38.1091 11.8791 38.0341L3.92496 37.1257C3.01246 36.9507 2.6958 35.8091 3.38746 35.1882L9.7708 30.0883C10.2708 29.6883 10.5125 29.0508 10.4041 28.4216L8.9833 20.2258C8.86246 19.3049 9.85413 18.6508 10.6583 19.1174V19.1174Z" fill="#FDD835"/>
<path d="M14.9126 25.9841L11.3418 21.6133C11.1501 21.3633 10.8001 20.955 11.2209 20.6758C11.5543 20.455 12.1876 21.0258 12.1876 21.0258L16.0876 23.8466C17.5709 24.9216 17.6709 25.5591 17.3501 26.1883C16.9751 26.9175 15.9334 27.2341 14.9126 25.9841V25.9841Z" fill="#FFFF8D"/>
<path d="M25.0957 28.6864L27.0582 22.8322C27.1499 22.5322 27.3332 22.0239 26.8416 21.9114C26.4541 21.8239 26.0582 22.578 26.0582 22.578L23.4249 26.3197C22.6082 27.3864 22.2624 28.3947 22.6541 29.1197C23.1791 30.0822 24.4582 30.2447 25.0957 28.6864Z" fill="#F4B400"/>
<path fill-rule="evenodd" clip-rule="evenodd" d="M47.5374 24.8968C46.2333 24.4635 45.2208 23.3968 44.8499 22.0718C44.7999 21.8885 44.5541 21.8843 44.4958 22.0635C44.0666 23.376 43.0083 24.3926 41.6791 24.7676C41.5083 24.8176 41.5041 25.051 41.6708 25.1051C42.9791 25.5385 43.9916 26.601 44.3583 27.9218C44.4083 28.1051 44.6541 28.1093 44.7124 27.9301C45.1416 26.6218 46.1999 25.6051 47.5249 25.2343C47.6999 25.1885 47.7041 24.9551 47.5374 24.8968Z" fill="#FFF176"/>
<path fill-rule="evenodd" clip-rule="evenodd" d="M16.1292 11.1792C15.1876 10.8667 14.4584 10.1 14.1959 9.14586C14.1584 9.01669 13.9834 9.01253 13.9417 9.14169C13.6334 10.0875 12.8709 10.8167 11.9126 11.0875C11.7917 11.1209 11.7876 11.2917 11.9084 11.3334C12.8501 11.6459 13.5792 12.4125 13.8459 13.3625C13.8834 13.4959 14.0584 13.5 14.1001 13.3667C14.4084 12.425 15.1709 11.6917 16.1251 11.425C16.2459 11.3875 16.2501 11.2167 16.1292 11.1792Z" fill="#FFF9C4"/>
<path d="M3.48341 16.7759C4.038 16.7759 4.48758 16.3263 4.48758 15.7717C4.48758 15.2172 4.038 14.7676 3.48341 14.7676C2.92883 14.7676 2.47925 15.2172 2.47925 15.7717C2.47925 16.3263 2.92883 16.7759 3.48341 16.7759Z" fill="#7BAAF7"/>
<path d="M23.0124 6.6C24.1101 6.6 24.9999 5.71017 24.9999 4.6125C24.9999 3.51483 24.1101 2.625 23.0124 2.625C21.9147 2.625 21.0249 3.51483 21.0249 4.6125C21.0249 5.71017 21.9147 6.6 23.0124 6.6Z" fill="#5C6BC0"/>
<path d="M43.9249 39.0177C44.6589 39.0177 45.254 38.4226 45.254 37.6885C45.254 36.9545 44.6589 36.3594 43.9249 36.3594C43.1908 36.3594 42.5957 36.9545 42.5957 37.6885C42.5957 38.4226 43.1908 39.0177 43.9249 39.0177Z" fill="#7986CB"/>
<path d="M39.5418 32.8872C40.0964 32.8872 40.5459 32.4377 40.5459 31.8831C40.5459 31.3285 40.0964 30.8789 39.5418 30.8789C38.9872 30.8789 38.5376 31.3285 38.5376 31.8831C38.5376 32.4377 38.9872 32.8872 39.5418 32.8872Z" fill="#FFF176"/>
<path d="M6.52931 6.62161C7.0839 6.62161 7.53348 6.17203 7.53348 5.61745C7.53348 5.06286 7.0839 4.61328 6.52931 4.61328C5.97473 4.61328 5.52515 5.06286 5.52515 5.61745C5.52515 6.17203 5.97473 6.62161 6.52931 6.62161Z" fill="#FFF176"/>
<path d="M27.3543 46.6158C27.9089 46.6158 28.3584 46.1662 28.3584 45.6116C28.3584 45.057 27.9089 44.6074 27.3543 44.6074C26.7997 44.6074 26.3501 45.057 26.3501 45.6116C26.3501 46.1662 26.7997 46.6158 27.3543 46.6158Z" fill="#7BAAF7"/>
<defs>
<linearGradient id="paint0_linear_1029_2054" x1="25" y1="63.1491" x2="25" y2="-1.76825" gradientUnits="userSpaceOnUse">
<stop stop-color="#3367D6"/>
<stop offset="0.5213" stop-color="#352893"/>
<stop offset="1" stop-color="#1A237E"/>
</linearGradient>
<linearGradient id="paint1_linear_1029_2054" x1="17.7602" y1="33.9758" x2="50.2058" y2="-3.20959" gradientUnits="userSpaceOnUse">
<stop stop-color="#FFF7AF"/>
<stop offset="1" stop-color="#FFF7AF" stop-opacity="0.1"/>
</linearGradient>
<linearGradient id="paint2_linear_1029_2054" x1="17.9735" y1="32.1589" x2="48.7057" y2="3.9089" gradientUnits="userSpaceOnUse">
<stop offset="0.2537" stop-color="#FFFDE7"/>
<stop offset="1" stop-color="#FFFDE7" stop-opacity="0"/>
</linearGradient>
<linearGradient id="paint3_linear_1029_2054" x1="34.0241" y1="3.4685" x2="26.9522" y2="38.1546" gradientUnits="userSpaceOnUse">
<stop offset="0.00522122" stop-color="#4453AB" stop-opacity="0"/>
<stop offset="1" stop-color="#3949AB"/>
</linearGradient>
</defs>
</svg>
