<svg width="50" height="51" viewBox="0 0 50 51" fill="none" xmlns="http://www.w3.org/2000/svg">
<path d="M20.0308 13.2852H50V49.9702H20.0308V13.2852Z" fill="#F06292"/>
<path d="M28.3807 13.2852H33.3832V49.9702H28.3807V13.2852Z" fill="#F48FB1"/>
<path d="M36.7018 13.2852H41.7043V49.9702H36.7018V13.2852Z" fill="#F48FB1"/>
<path d="M44.9933 13.2852H49.9958V49.9702H44.9933V13.2852Z" fill="#F48FB1"/>
<path d="M20.0308 13.2852H25.0333V49.9702H20.0308V13.2852Z" fill="#F48FB1"/>
<path opacity="0.2" d="M48.7452 14.5358V48.7196H21.2814V14.5358H48.7452ZM49.9958 13.2852H20.0308V49.9702H50V13.2852H49.9958Z" fill="#424242"/>
<path d="M44.6265 19.0518C45.5474 19.0518 46.294 18.3052 46.294 17.3843C46.294 16.4634 45.5474 15.7168 44.6265 15.7168C43.7056 15.7168 42.959 16.4634 42.959 17.3843C42.959 18.3052 43.7056 19.0518 44.6265 19.0518Z" fill="#AD1457"/>
<path d="M25.4502 19.0518C26.3712 19.0518 27.1177 18.3052 27.1177 17.3843C27.1177 16.4634 26.3712 15.7168 25.4502 15.7168C24.5293 15.7168 23.7827 16.4634 23.7827 17.3843C23.7827 18.3052 24.5293 19.0518 25.4502 19.0518Z" fill="#AD1457"/>
<path d="M45.8771 10.8346C45.8771 4.84827 41.0247 0 35.0425 0C29.0561 0 24.2079 4.85243 24.2079 10.8346V17.0711C24.2079 17.7631 24.7665 18.3217 25.4585 18.3217C26.1505 18.3217 26.7091 17.7631 26.7091 17.0711V15.8204H26.705V11.0389C26.705 6.52411 30.2067 2.67634 34.7173 2.50542C39.4572 2.32617 43.3717 6.13224 43.3717 10.8346V15.8204H43.3425V17.0544C43.3425 17.7547 43.9094 18.3217 44.6098 18.3217C45.3101 18.3217 45.8771 17.7547 45.8771 17.0544V10.8346Z" fill="url(#paint0_linear_1029_1879)"/>
<path opacity="0.2" d="M35.0425 0.416876C40.787 0.416876 45.4602 5.09005 45.4602 10.8346V17.0544C45.4602 17.5213 45.0809 17.9048 44.6098 17.9048C44.1387 17.9048 43.7594 17.5255 43.7594 17.0544V15.9747C43.7802 15.9247 43.7885 15.8746 43.7885 15.8204V10.8346C43.7885 6.00718 39.8616 2.08438 35.0383 2.08438C34.9258 2.08438 34.8132 2.08855 34.7006 2.09272C30.065 2.2678 26.2923 6.28232 26.2923 11.0389V15.8204C26.2923 15.8371 26.2923 15.8538 26.2964 15.8705V17.0669C26.2964 17.5255 25.9212 17.9006 25.4627 17.9006C25.0041 17.9006 24.6289 17.5255 24.6289 17.0669V10.8346C24.6248 5.09005 29.2979 0.416876 35.0425 0.416876M35.0425 0C29.0561 0 24.2079 4.85243 24.2079 10.8346V17.0711C24.2079 17.7631 24.7665 18.3217 25.4585 18.3217C26.1505 18.3217 26.7091 17.7631 26.7091 17.0711V15.8204H26.705V11.0389C26.705 6.52411 30.2067 2.67634 34.7173 2.50542C34.8257 2.50125 34.9341 2.50125 35.0383 2.50125C39.6365 2.50125 43.3717 6.24063 43.3717 10.8346V15.8204H43.3425V17.0544C43.3425 17.7547 43.9094 18.3217 44.6098 18.3217C45.3101 18.3217 45.8771 17.7547 45.8771 17.0544V10.8346C45.8771 4.85243 41.0288 0 35.0425 0V0Z" fill="#424242"/>
<path opacity="0.4" d="M41.896 49.9712H29.8066V28.1895L41.896 49.9712Z" fill="url(#paint1_linear_1029_1879)"/>
<path d="M0 28.3398H30.0151V50.0174H0V28.3398Z" fill="#C5E1A5"/>
<path d="M30.0151 31.7148V36.7174H2.16961e-05V31.7148H30.0151Z" fill="#AED581"/>
<path d="M30.0151 41.7188V46.7213H1.85156e-05V41.7188H30.0151Z" fill="#AED581"/>
<path d="M23.3658 33.6416C24.2867 33.6416 25.0333 32.8951 25.0333 31.9741C25.0333 31.0532 24.2867 30.3066 23.3658 30.3066C22.4449 30.3066 21.6983 31.0532 21.6983 31.9741C21.6983 32.8951 22.4449 33.6416 23.3658 33.6416Z" fill="#7CB342"/>
<path d="M6.69076 33.6416C7.61169 33.6416 8.35826 32.8951 8.35826 31.9741C8.35826 31.0532 7.61169 30.3066 6.69076 30.3066C5.76982 30.3066 5.02325 31.0532 5.02325 31.9741C5.02325 32.8951 5.76982 33.6416 6.69076 33.6416Z" fill="#7CB342"/>
<path d="M5.41115 33.7595C5.41115 39.0622 9.67579 43.3602 14.9326 43.3602C20.1894 43.3602 24.454 39.0622 24.454 33.7595V31.9295C24.454 31.3167 23.9621 30.8206 23.3535 30.8206C22.7448 30.8206 22.2529 31.3167 22.2529 31.9295V33.0342H22.2571V33.5761C22.2571 37.574 19.1806 40.984 15.2161 41.1382C11.0473 41.2967 7.60809 37.9241 7.60809 33.7595V33.0342H7.6331V31.9378C7.6331 31.3167 7.13702 30.8164 6.52004 30.8164C5.90723 30.8164 5.40698 31.3167 5.40698 31.9378V33.7595H5.41115Z" fill="#F06292"/>
<path opacity="0.2" d="M23.3535 31.2374C23.7287 31.2374 24.0372 31.5501 24.0372 31.9295V33.7595C24.0372 38.8246 19.9518 42.9433 14.9326 42.9433C9.91341 42.9433 5.82803 38.8246 5.82803 33.7595V31.942C5.82803 31.5543 6.14068 31.2374 6.52421 31.2374C6.90774 31.2374 7.22039 31.5543 7.22039 31.942V32.8883C7.20372 32.9341 7.19538 32.9842 7.19538 33.0342V33.7595C7.19538 38.0617 10.668 41.5593 14.9368 41.5593C15.0368 41.5593 15.1369 41.5593 15.2369 41.5551C19.339 41.3967 22.6781 37.8199 22.6781 33.5803V33.0384C22.6781 33.0217 22.6781 33.005 22.674 32.9883V31.9295C22.6698 31.5501 22.9741 31.2374 23.3535 31.2374M23.3535 30.8206C22.7448 30.8206 22.2529 31.3167 22.2529 31.9295V33.0342H22.2571V33.5761C22.2571 37.574 19.1806 40.984 15.2161 41.1382C15.1202 41.1424 15.0285 41.1424 14.9326 41.1424C10.8931 41.1424 7.60809 37.8283 7.60809 33.7595V33.0342H7.6331V31.9378C7.6331 31.3167 7.13702 30.8164 6.52004 30.8164C5.90723 30.8164 5.40698 31.3167 5.40698 31.9378V33.7554C5.40698 39.058 9.67162 43.356 14.9284 43.356C20.1852 43.356 24.4499 39.058 24.4499 33.7554V31.9253C24.454 31.3167 23.9621 30.8206 23.3535 30.8206Z" fill="#424242"/>
<path opacity="0.2" d="M28.7644 29.5905V48.7668H1.25063V29.5905H28.7644ZM30.0151 28.3398H0V50.0174H30.0151V28.3398Z" fill="#424242"/>
<defs>
<linearGradient id="paint0_linear_1029_1879" x1="35.0429" y1="0.779558" x2="35.0429" y2="18.3746" gradientUnits="userSpaceOnUse">
<stop offset="0.4739" stop-color="#AED581"/>
<stop offset="1" stop-color="#8BC34A"/>
</linearGradient>
<linearGradient id="paint1_linear_1029_1879" x1="29.0408" y1="39.0803" x2="40.437" y2="39.0803" gradientUnits="userSpaceOnUse">
<stop offset="0.3169" stop-color="#E91E63"/>
<stop offset="0.8143" stop-color="#F06292" stop-opacity="0.3"/>
</linearGradient>
</defs>
</svg>
