<svg width="50" height="50" viewBox="0 0 50 50" fill="none" xmlns="http://www.w3.org/2000/svg">
<path d="M1.66664 9.99219C0.745823 9.99219 0 10.738 0 11.6588V13.3255C0 14.1088 0.545826 14.763 1.27498 14.9421C1.39998 14.9713 1.53331 14.9921 1.66664 14.9921H3.33745C3.33745 15.1088 7.29157 35.346 7.29157 35.346C7.44156 36.1127 8.06239 36.6626 8.78321 36.6626H35.0245L39.2745 14.9921H41.1369V14.9421L41.6619 13.3255V9.99219H1.66664Z" fill="url(#paint0_linear_1029_902)"/>
<path d="M0 13.3262C0 14.1095 0.545826 14.7637 1.27498 14.9428H41.1411L41.6661 13.3262H0Z" fill="#F57C00"/>
<path d="M6.8916 18.5086L9.85406 31.8459C9.93739 32.2292 10.2749 32.5001 10.6665 32.5001H12.4999C12.9582 32.5001 13.3332 32.1251 13.3332 31.6667V18.3294C13.3332 17.8711 12.9582 17.4961 12.4999 17.4961H7.70409C7.17077 17.4961 6.77494 17.9878 6.8916 18.5086V18.5086Z" fill="#F57C00"/>
<path d="M33.1078 18.5086L30.1454 31.8459C30.062 32.2292 29.7246 32.5001 29.3329 32.5001H27.4996C27.0413 32.5001 26.6663 32.1251 26.6663 31.6667V18.3294C26.6663 17.8711 27.0413 17.4961 27.4996 17.4961H32.2953C32.8245 17.4961 33.2245 17.9878 33.1078 18.5086Z" fill="#F57C00"/>
<path d="M17.5954 17.4961H22.3995C22.8954 17.4961 23.2829 17.9294 23.2287 18.4211L21.7496 31.7542C21.7037 32.1751 21.3454 32.4959 20.9204 32.4959H19.0788C18.6538 32.4959 18.2954 32.1751 18.2496 31.7542L16.7663 18.4169C16.7121 17.9253 17.0996 17.4961 17.5954 17.4961V17.4961Z" fill="#F57C00"/>
<path opacity="0.2" d="M40.4161 11.2422V13.1296L40.2161 13.7463H39.2786C38.6828 13.7463 38.1661 14.1713 38.0536 14.7546L33.9995 35.4168H8.78321C8.68321 35.4168 8.55405 35.3002 8.51655 35.1085C7.45823 29.6961 4.7041 15.5921 4.57077 14.8255C4.48744 14.213 3.96661 13.7463 3.33329 13.7463H1.66664C1.65831 13.7463 1.62914 13.7463 1.57081 13.7296C1.41665 13.6921 1.24998 13.5505 1.24998 13.3255V11.6588C1.24998 11.4297 1.43748 11.2422 1.66664 11.2422H40.4161ZM41.6661 9.99219H1.66664C0.745823 9.99219 0 10.738 0 11.6588V13.3255C0 14.1088 0.545826 14.763 1.27498 14.9421C1.39998 14.9713 1.53331 14.9921 1.66664 14.9921H3.33745C3.33745 15.1088 7.29157 35.346 7.29157 35.346C7.44156 36.1127 8.06239 36.6626 8.78321 36.6626H35.0245L39.2786 14.9921H41.1411V14.9421L41.6661 13.3255V9.99219Z" fill="#424242"/>
<path opacity="0.2" d="M12.4999 18.3294V31.6667H10.6665L7.70409 18.3294H12.4999ZM12.4999 17.4961H7.70409C7.17077 17.4961 6.77494 17.9919 6.8916 18.5086L9.85406 31.8459C9.93739 32.2292 10.2749 32.5001 10.6665 32.5001H12.4999C12.9582 32.5001 13.3332 32.1251 13.3332 31.6667V18.3294C13.3332 17.8669 12.9582 17.4961 12.4999 17.4961Z" fill="#424242"/>
<path opacity="0.2" d="M32.2953 18.3294L29.3329 31.6667H27.4996V18.3294H32.2953ZM32.2953 17.4961H27.4996C27.0413 17.4961 26.6663 17.8711 26.6663 18.3294V31.6667C26.6663 32.1251 27.0413 32.5001 27.4996 32.5001H29.3329C29.7246 32.5001 30.062 32.2292 30.1454 31.8459L33.1078 18.5086C33.2245 17.9878 32.8245 17.4961 32.2953 17.4961V17.4961Z" fill="#424242"/>
<path opacity="0.2" d="M22.3995 18.3294L20.9162 31.6667H19.0746L17.5913 18.3294H22.3995ZM22.3995 17.4961H17.5954C17.0996 17.4961 16.7121 17.9294 16.7663 18.4211L18.2496 31.7584C18.2954 32.1792 18.6538 32.5001 19.0788 32.5001H20.9204C21.3454 32.5001 21.7037 32.1792 21.7496 31.7584L23.2329 18.4211C23.2829 17.9253 22.8995 17.4961 22.3995 17.4961V17.4961Z" fill="#424242"/>
<path d="M43.5536 1.49635C42.5702 1.82552 41.8078 2.61301 41.5119 3.60466L31.7371 36.1875C31.6162 36.5959 31.6537 37.0334 31.8412 37.4125L33.3662 40.4625C33.6454 41.0166 33.2412 41.6708 32.6204 41.6708H3.33329C2.3583 41.6708 1.57915 42.5083 1.67498 43.4999C1.75831 44.3666 2.5333 45.0041 3.40412 45.0041H36.6037C37.0078 45.0041 37.4161 44.8832 37.7286 44.6249C38.3453 44.1083 38.4953 43.2666 38.1578 42.5916L35.8037 37.8875C35.362 37.0084 35.2745 35.9917 35.5578 35.0501L44.5535 5.05464C44.616 4.83797 44.766 4.66714 44.9619 4.56298L43.5786 1.49219L43.5536 1.49635V1.49635Z" fill="url(#paint1_linear_1029_902)"/>
<path d="M49.7702 0.812747C49.3743 0.12109 48.5202 -0.16224 47.766 0.0919236L43.5828 1.48774L44.9661 4.55853C45.0077 4.5377 45.0452 4.5127 45.0911 4.5002L48.8577 3.24188C49.841 2.91272 50.316 1.76273 49.7702 0.812747V0.812747Z" fill="#F57C00"/>
<path opacity="0.2" d="M48.3202 0.833322C48.6285 0.833322 48.9077 0.98332 49.0452 1.22498C49.2243 1.53748 49.1618 1.81247 49.1076 1.95414C49.016 2.18747 48.8285 2.3708 48.591 2.44997L44.8244 3.70828C44.716 3.74578 44.6369 3.78745 44.5702 3.82495C44.1702 4.03744 43.8827 4.38744 43.7536 4.81243L34.762 34.8037C34.4162 35.9537 34.5245 37.1786 35.0578 38.2536L37.412 42.9577C37.587 43.3036 37.4953 43.7244 37.1912 43.9786C37.0495 44.0994 36.837 44.166 36.6037 44.166H3.40412C2.93746 44.166 2.54163 43.8369 2.50413 43.4161C2.47913 43.1744 2.5583 42.9452 2.71663 42.7702C2.87496 42.5952 3.09579 42.4994 3.33329 42.4994H32.6204C33.2037 42.4994 33.7329 42.2036 34.037 41.7077C34.3412 41.2119 34.3704 40.6078 34.112 40.0869L32.587 37.037C32.4912 36.8453 32.4745 36.6287 32.5329 36.4245L42.3077 3.84161C42.5286 3.10829 43.0911 2.52913 43.8161 2.28747L43.8411 2.27913L48.0243 0.883321C48.1243 0.849988 48.2202 0.833322 48.3202 0.833322M48.3202 0C48.1327 0 47.9452 0.0291662 47.7618 0.0916653L43.5786 1.48748L43.5536 1.49581C42.5702 1.82497 41.8078 2.61246 41.5119 3.60412L31.7371 36.187C31.6162 36.5953 31.6537 37.0328 31.8412 37.412L33.3662 40.4619C33.6454 41.0161 33.2412 41.6703 32.6204 41.6703H3.33329C2.3583 41.6703 1.57915 42.5077 1.67498 43.4994C1.75831 44.366 2.5333 45.0035 3.40412 45.0035H36.6037C37.0078 45.0035 37.4161 44.8827 37.7286 44.6244C38.3453 44.1077 38.4953 43.2661 38.1578 42.5911L35.8037 37.887C35.362 37.0078 35.2745 35.9912 35.5578 35.0495L44.5535 5.0541C44.616 4.83743 44.766 4.6666 44.9619 4.56244C45.0035 4.5416 45.041 4.5166 45.0869 4.5041L48.8535 3.24579C49.8326 2.91663 50.3076 1.76664 49.766 0.816655C49.4701 0.287496 48.9077 0 48.3202 0V0Z" fill="#424242"/>
<path d="M9.99979 49.9986C11.8407 49.9986 13.3331 48.5062 13.3331 46.6653C13.3331 44.8244 11.8407 43.332 9.99979 43.332C8.15887 43.332 6.6665 44.8244 6.6665 46.6653C6.6665 48.5062 8.15887 49.9986 9.99979 49.9986Z" fill="#37474F"/>
<path d="M31.6663 49.9986C33.5072 49.9986 34.9996 48.5062 34.9996 46.6653C34.9996 44.8244 33.5072 43.332 31.6663 43.332C29.8254 43.332 28.333 44.8244 28.333 46.6653C28.333 48.5062 29.8254 49.9986 31.6663 49.9986Z" fill="#37474F"/>
<path d="M10.8332 48.332H9.16657C8.70825 48.332 8.33325 47.957 8.33325 47.4986V43.332H11.6665V47.4986C11.6665 47.957 11.2915 48.332 10.8332 48.332Z" fill="#B0BEC5"/>
<path d="M9.99983 46.6666C10.4601 46.6666 10.8331 46.2936 10.8331 45.8333C10.8331 45.3731 10.4601 45 9.99983 45C9.53959 45 9.1665 45.3731 9.1665 45.8333C9.1665 46.2936 9.53959 46.6666 9.99983 46.6666Z" fill="#FAFAFA" stroke="#757575" stroke-width="2.13394" stroke-miterlimit="10"/>
<path d="M32.4995 48.332H30.8328C30.3745 48.332 29.9995 47.957 29.9995 47.4986V43.332H33.3328V47.4986C33.3328 47.957 32.9578 48.332 32.4995 48.332Z" fill="#B0BEC5"/>
<path d="M31.6663 46.6666C32.1266 46.6666 32.4997 46.2936 32.4997 45.8333C32.4997 45.3731 32.1266 45 31.6663 45C31.2061 45 30.833 45.3731 30.833 45.8333C30.833 46.2936 31.2061 46.6666 31.6663 46.6666Z" fill="#FAFAFA" stroke="#757575" stroke-width="2.13394" stroke-miterlimit="10"/>
<defs>
<linearGradient id="paint0_linear_1029_902" x1="20.8326" y1="9.31761" x2="20.8326" y2="38.9884" gradientUnits="userSpaceOnUse">
<stop stop-color="#FFA726"/>
<stop offset="1" stop-color="#FB8C00"/>
</linearGradient>
<linearGradient id="paint1_linear_1029_902" x1="23.3155" y1="-6.41937" x2="23.3155" y2="52.104" gradientUnits="userSpaceOnUse">
<stop stop-color="#90A4AE"/>
<stop offset="1" stop-color="#607D8B"/>
</linearGradient>
</defs>
</svg>
