<svg width="50" height="52" viewBox="0 0 50 52" fill="none" xmlns="http://www.w3.org/2000/svg">
<path d="M12.8235 14.3664C12.8235 14.3664 12.9443 7.74105 12.2753 5.49662C11.6063 3.24787 8.20511 2.94574 8.20511 2.94574C8.20511 2.94574 9.11583 -0.334578 12.094 0.0279833C15.0722 0.390545 16.803 3.39894 17.895 6.13542C20.325 12.2126 20.7825 20.4437 20.7825 20.4437L13.5529 37.8207L6.26282 35.6928L12.8235 14.3664Z" fill="#855C54"/>
<path d="M24.1233 28.5277L25.034 27.3105C25.034 27.3105 27.4036 28.3421 29.0437 28.2213C30.6839 28.1004 34.8749 27.3105 34.8749 27.3105L35.0562 34.1776L23.6917 32.1706L24.1233 28.5277Z" fill="#606468"/>
<path d="M38.6473 21.4799C38.6473 21.4799 38.3452 16.3134 38.3452 14.2503C38.3452 12.1871 37.1927 5.07403 41.8068 5.19488C45.3288 5.28552 44.4181 10.4822 44.4181 10.4822L43.1405 12.0015C43.1405 12.0015 45.0569 22.0195 45.8122 24.6394C47.3315 29.8836 45.4497 31.4461 45.4497 31.4461L38.22 32.3568L38.6473 21.4799Z" fill="#865B52"/>
<path d="M2.00703 1.18046C-0.0690626 1.76315 0.246021 3.67091 0.306448 4.46078C0.366875 5.25064 0.794179 5.3715 1.7049 5.43192C2.61562 5.49235 9.48271 6.70952 11.002 7.13251C12.5213 7.55981 16.4707 8.41011 19.8114 8.71224C23.1521 9.01438 32.8161 10.5337 33.7269 10.7797C34.6376 11.0214 36.4633 11.7509 40.7752 12.299C45.0914 12.8472 47.2754 13.391 47.5819 13.0889C47.884 12.7867 47.7632 9.19997 47.4006 8.65181C47.038 8.10366 40.9608 7.19294 38.8934 7.13251C36.8259 7.07208 35.613 7.25336 35.613 7.25336C35.613 7.25336 30.753 6.28222 28.2625 5.67363C25.7721 5.06504 21.3954 4.58163 18.4173 4.33561C15.4391 4.0939 9.42228 3.2436 9.42228 3.2436C9.42228 3.2436 6.6858 2.0696 5.77508 1.7243C5.26146 1.53439 3.95364 0.636615 2.00703 1.18046V1.18046Z" fill="#727F39"/>
<path d="M26.0699 5.79883L22.181 29.4344C22.181 29.4344 25.0987 29.8617 25.7677 29.0718C26.4368 28.282 27.5115 25.8088 27.6496 21.7817C27.7187 19.8395 27.5892 13.9435 27.5892 13.9435C27.5892 13.9435 30.2005 20.5042 30.8695 22.5112C31.5385 24.5182 33.0578 31.6874 33.0578 31.6874L37.0071 27.859L28.8064 7.13685L26.0699 5.79883Z" fill="#865B52"/>
<path d="M9.29715 0.937979C10.1431 1.19695 8.96481 2.276 8.74899 2.63856C8.53318 3.00113 8.3519 3.5795 8.3519 3.5795C8.3519 3.5795 9.21946 2.57814 9.81078 2.12062C10.4798 1.60267 11.4466 1.30917 11.8782 1.78827C12.4566 2.42707 11.8178 2.66878 11.1186 3.18672C10.8855 3.35937 10.5575 3.63993 10.2597 3.99817C9.84963 4.49022 9.45685 5.06427 9.26262 5.34483C8.93028 5.83256 8.41233 6.28576 7.89439 6.10448C7.56204 5.98794 7.7131 4.91752 7.7131 4.91752C7.7131 4.91752 7.68289 5.4959 7.19516 5.21966C6.70743 4.94774 6.73764 3.40685 7.16495 2.45297C7.60088 1.49909 8.50729 0.696271 9.29715 0.937979V0.937979Z" fill="#F8EAC0"/>
<path d="M11.2135 5.4058C12.4307 4.15841 14.6147 3.61457 13.7946 2.91535C12.9745 2.21612 11.3948 2.97577 10.3632 4.1023C9.33162 5.22883 8.99495 6.71361 9.54311 6.86899C10.087 7.01574 10.4927 6.14387 11.2135 5.4058V5.4058Z" fill="#F8EAC0"/>
<path d="M40.7537 6.54907C39.912 6.6656 40.5551 7.71876 40.7321 8.15038C40.9738 8.73738 41.1378 9.674 41.2198 10.6624C41.3407 12.1429 41.9363 12.0997 42.2514 11.4739C42.4759 11.0293 42.5147 10.3214 42.5147 9.81212C42.5147 8.97909 42.3118 8.57768 42.4241 8.57768C42.6053 8.57768 42.8384 9.66969 42.8816 10.3819C42.9291 11.2106 42.7953 12.0436 43.2441 12.104C43.8527 12.186 44.198 11.4134 44.2369 10.4423C44.2671 9.67832 44.1721 8.9014 44.2369 8.9014C44.2973 8.9014 44.5606 9.66969 44.5822 10.684C44.5951 11.271 44.4613 12.3242 44.9275 12.2853C45.5231 12.2335 45.8813 10.3603 45.6569 9.087C45.4756 8.04679 44.7678 6.89868 44.198 6.79941C43.6326 6.70013 43.7923 7.52885 43.7923 7.52885C43.7923 7.52885 43.4686 6.5577 42.6399 6.49727C41.8802 6.44116 41.9104 7.15765 41.9104 7.15765C41.9104 7.15765 41.4831 6.44979 40.7537 6.54907V6.54907Z" fill="#F8EAC0"/>
<path d="M47.0553 26.9057C45.6612 27.0913 43.9778 29.7026 43.9778 29.7026C43.9778 29.7026 41.7507 25.0022 39.9249 22.2097C38.0992 19.4171 33.8089 12.0407 33.2823 10.2969C32.7557 8.55317 32.8248 7.18493 33.4247 7.11587C33.9729 7.05545 33.6492 6.79216 33.6492 6.79216C33.6492 6.79216 33.8995 4.84986 32.0694 4.09884C30.4897 3.45141 29.1517 4.50457 29.1517 4.50457C29.1517 4.50457 28.4222 3.57227 26.4368 3.57227C24.4513 3.57227 22.4486 4.44414 21.4127 7.66403C20.5452 10.366 20.4804 15.4418 20.4372 17.2244C20.3984 19.007 19.7078 23.0168 18.1712 25.6928C16.6304 28.3646 14.4464 31.2003 14.2003 32.6204C13.9543 34.0404 14.4852 35.8618 13.3112 35.7798C12.1372 35.6978 11.3257 34.4418 12.258 32.4995C13.1903 30.5572 14.9729 28.3689 14.9729 28.3689L17.6878 19.5379L19.2676 20.2674C19.7121 18.4028 20.1999 15.4462 15.2578 13.0981C10.3157 10.7501 2.33939 12.5629 0.608585 18.8646C0.043162 20.9321 0 22.9607 0 24.5749C0 27.3114 0.794182 30.9198 1.57973 33.5699C2.75374 37.5408 4.68309 40.4629 5.3262 41.5722C6.66423 43.8813 9.11152 46.5013 9.49997 46.3502C9.9316 46.1819 10.0266 45.215 10.0266 45.215C10.0266 45.215 10.9589 46.4322 12.8623 47.8091C14.7657 49.186 17.6015 51.1714 18.2101 50.9297C18.8187 50.688 17.9684 49.4708 17.9684 49.4708C17.9684 49.4708 20.1351 50.6448 22.3019 51.2146C24.0024 51.6591 27.7316 51.78 27.6885 51.2146C27.6453 50.6492 26.3116 50.0794 26.4713 49.6737C26.6353 49.268 27.2396 50.4074 31.1328 50.1053C33.9729 49.8809 39.0272 48.422 41.8629 44.1274C44.6987 39.8327 46.3172 36.5913 47.3704 34.4461C48.4235 32.301 49.7141 30.4148 49.9213 29.4652C50.1328 28.5286 50.1328 26.5 47.0553 26.9057V26.9057ZM32.9974 28.8091C32.8075 29.3789 31.012 29.9831 29.1474 30.0263C27.2828 30.0652 25.621 29.4997 25.1376 28.6494C24.6499 27.7991 25.785 26.4611 26.1908 23.8282C26.5965 21.1953 26.3936 16.2921 26.4325 13.2535C26.4713 10.2149 27.3648 7.21946 27.3648 7.21946C27.3648 7.21946 27.4468 10.0552 27.6496 11.3112C27.8309 12.4334 28.2151 13.6592 28.7848 15.239C29.2035 16.4 31.094 19.8573 31.9831 22.7751C32.8766 25.6928 33.2823 27.9588 32.9974 28.8091V28.8091Z" fill="#AE9580"/>
<path d="M11.4466 16.6149C8.85254 16.4509 9.50429 15.4409 7.19511 15.32C4.88594 15.1992 2.00703 18.1126 1.96819 21.3973C1.92934 24.8804 4.27736 29.4168 10.5143 29.7016C12.9011 29.8096 14.1615 29.4384 14.1615 29.4384C15.8232 27.0903 17.2994 25.1869 18.2921 23.2791C18.9136 22.0879 19.1208 21.1124 19.3237 20.0981C19.5049 19.1917 19.41 18.3457 18.1281 17.1415C15.4995 14.6683 13.5874 16.7487 11.4466 16.6149V16.6149Z" fill="#FEEAC7"/>
<path d="M5.53343 18.5605L7.02253 21.0985C7.02253 21.0985 5.87873 21.5776 5.14929 22.307C4.41985 23.0365 2.74085 24.9917 2.74085 24.9917C2.74085 24.9917 2.20564 23.7875 2.0632 22.8552C1.92077 21.9229 1.97256 21.1546 1.97256 21.1546C1.97256 21.1546 2.66315 20.3863 3.59114 19.7389C4.51912 19.0914 5.53343 18.5605 5.53343 18.5605V18.5605Z" fill="#5C6268"/>
<path d="M15.9009 19.0059L14.3212 21.1942C14.3212 21.1942 15.3959 22.0661 16.1253 22.8732C16.8548 23.6803 17.5626 24.5522 17.5626 24.5522C17.5626 24.5522 18.0072 24.0645 18.4734 23.0717C18.8748 22.2171 19.0215 21.4316 19.0215 21.4316C19.0215 21.4316 17.9899 20.4604 17.4202 20.0763C16.8505 19.6921 15.9009 19.0059 15.9009 19.0059V19.0059Z" fill="#5C6268"/>
<path d="M6.31461 21.2988C7.13463 21.2988 7.79939 20.636 7.79939 19.8184C7.79939 19.0007 7.13463 18.3379 6.31461 18.3379C5.49459 18.3379 4.82983 19.0007 4.82983 19.8184C4.82983 20.636 5.49459 21.2988 6.31461 21.2988Z" fill="#010605"/>
<path d="M15.2707 21.5842C16.0717 21.5842 16.721 20.9484 16.721 20.1642C16.721 19.3799 16.0717 18.7441 15.2707 18.7441C14.4698 18.7441 13.8205 19.3799 13.8205 20.1642C13.8205 20.9484 14.4698 21.5842 15.2707 21.5842Z" fill="#010605"/>
<path d="M10.9589 19.3089C9.43097 19.1319 8.56773 20.198 8.56773 20.198C8.56773 20.198 8.91302 20.7634 9.35759 21.3936C9.53024 21.6396 9.90575 22.2051 9.90575 22.3863C9.90575 22.5676 9.09862 22.7403 8.55046 22.7101C7.49731 22.6496 7.05274 21.8209 6.58659 22.1619C6.12044 22.5072 6.68586 23.3359 7.23402 23.5992C7.78218 23.8625 8.42961 24.0136 9.07704 23.9445C9.82806 23.8625 10.6352 23.4179 10.6352 23.4179C10.6352 23.4179 11.5761 24.0869 11.9905 24.1862C13.0825 24.4495 13.7731 24.225 14.3601 23.7805C14.727 23.4999 15.1413 22.7489 14.8478 22.5633C14.2004 22.1576 13.8939 23.1719 12.9659 23.1719C12.0336 23.1719 11.4251 22.4425 11.4251 22.4425C11.4251 22.4425 11.8998 21.8857 12.1329 21.6914C12.4782 21.4066 13.1041 20.6771 13.1041 20.6771C13.1041 20.6771 12.7027 19.5117 10.9589 19.3089V19.3089Z" fill="#010605"/>
<path d="M12.2753 42.2784C11.8394 42.818 9.68128 40.7591 8.99501 39.8873C8.30873 39.0154 7.21241 37.6601 7.96343 37.0515C8.71445 36.4429 9.70718 38.3464 10.333 39.1967C10.9589 40.047 12.5386 41.9547 12.2753 42.2784V42.2784Z" fill="#CDAC93"/>
<path d="M14.5845 41.7912C13.6479 42.7883 15.4736 44.3853 17.0361 45.5161C18.5986 46.647 21.0459 47.2383 21.2876 46.893C21.5293 46.5477 19.587 45.6154 17.9468 44.299C16.3067 42.9825 15.2147 41.1222 14.5845 41.7912V41.7912Z" fill="#CDAC93"/>
<path d="M19.6475 43.1884C19.3151 43.9567 21.0459 45.4156 23.558 45.8213C26.07 46.2271 28.7158 45.5753 28.6425 44.9495C28.582 44.4229 27.2052 44.9106 23.8428 44.1812C21.2617 43.6201 20.0532 42.2561 19.6475 43.1884Z" fill="#CDAC93"/>
<path d="M23.4371 40.8574C23.3421 41.4789 24.7319 42.1738 26.8598 42.0746C28.9877 41.9753 30.425 41.0214 30.343 40.5941C30.261 40.1668 28.3187 40.6934 26.7994 40.715C25.2801 40.7366 23.6399 39.541 23.4371 40.8574V40.8574Z" fill="#CDAC93"/>
<path d="M25.4225 47.7475C25.401 48.8093 28.5691 48.6626 30.5675 47.9504C33.0191 47.0785 34.3139 45.0758 33.9514 44.7089C33.5888 44.3464 32.2896 46.0254 29.7603 46.6512C28.5906 46.9404 25.4441 46.6944 25.4225 47.7475Z" fill="#CDAC93"/>
</svg>
