<svg width="50" height="49" viewBox="0 0 50 49" fill="none" xmlns="http://www.w3.org/2000/svg">
<path d="M25 48.1897C12.9741 48.1897 0 40.6466 0 24.0948C0 7.5431 12.9741 0 25 0C31.681 0 37.8448 2.19828 42.4138 6.2069C47.3707 10.6034 50 16.8103 50 24.0948C50 31.3793 47.3707 37.5431 42.4138 41.9397C37.8448 45.9483 31.6379 48.1897 25 48.1897Z" fill="url(#paint0_radial_1029_632)"/>
<path d="M45.6422 9.77148C47.9396 13.4784 49.1378 17.8922 49.1378 22.8017C49.1378 30.0861 46.5085 36.2499 41.5516 40.6465C36.9827 44.6551 30.7758 46.8965 24.1378 46.8965C16.3534 46.8965 8.18957 43.7284 3.37061 37.0086C8.00854 44.6206 16.7327 48.1896 24.9999 48.1896C31.6378 48.1896 37.8447 45.9482 42.4137 41.9396C47.3706 37.543 49.9999 31.3792 49.9999 24.0948C49.9999 18.6034 48.5042 13.7241 45.6422 9.77148V9.77148Z" fill="#EB8F00"/>
<path d="M25.3448 32.8877C23.8017 32.8877 22.2715 32.6291 20.8189 32.1119C19.0301 31.4955 17.0862 32.4481 16.4698 34.2326C16.1206 35.2412 16.2629 36.3532 16.8534 37.2412C18.7068 40.086 21.6379 41.6377 25.3448 41.6377C29.0517 41.6377 31.9827 40.086 33.8362 37.2412C34.8836 35.6679 34.4525 33.5429 32.8793 32.4955C31.9913 31.905 30.8793 31.7627 29.8706 32.1119C28.418 32.6291 26.8879 32.8877 25.3448 32.8877Z" fill="#422B0D"/>
<path opacity="0.8" d="M12.3275 35.4312C16.4935 35.4312 19.8706 32.247 19.8706 28.3191C19.8706 24.3912 16.4935 21.207 12.3275 21.207C8.16159 21.207 4.78442 24.3912 4.78442 28.3191C4.78442 32.247 8.16159 35.4312 12.3275 35.4312Z" fill="url(#paint1_radial_1029_632)"/>
<path opacity="0.8" d="M38.362 35.4312C42.5279 35.4312 45.9051 32.247 45.9051 28.3191C45.9051 24.3912 42.5279 21.207 38.362 21.207C34.196 21.207 30.8188 24.3912 30.8188 28.3191C30.8188 32.247 34.196 35.4312 38.362 35.4312Z" fill="url(#paint2_radial_1029_632)"/>
<path d="M43.9613 11.7963C40.4225 10.8006 37.8234 13.6928 37.8234 13.6928C37.8234 13.6928 37.5217 10.4126 34.4958 9.38247C30.8665 8.13678 27.0346 10.1195 26.8061 15.2618C26.5475 21.1195 34.2975 28.8092 34.2975 28.8092C34.2975 28.8092 43.9182 26.223 47.0691 20.7402C49.6337 16.279 46.638 12.5463 43.9613 11.7963V11.7963Z" fill="#F44336"/>
<path d="M43.9612 11.7971C43.5259 11.6807 43.0776 11.629 42.6293 11.6376C43.8965 12.4868 44.9009 13.6721 45.5259 15.0601C46.1336 16.5213 46.2931 18.4092 45.1379 20.6635C42.6336 25.5644 34.9224 28.5988 34.3621 28.8101C35.0646 28.6118 44.056 26.0256 47.0862 20.754C49.6336 16.2799 46.6379 12.5471 43.9612 11.7971V11.7971Z" fill="#C62828"/>
<path d="M37.8189 14.2233C37.793 13.775 37.724 13.3267 37.6206 12.8871C37.3706 11.6198 36.5861 10.5207 35.4654 9.86981C34.6982 9.42154 33.849 9.13706 32.9697 9.0293C32.9697 9.0293 34.2628 9.42154 35.1852 11.2103C35.6551 12.15 35.9352 13.1758 36.0042 14.2233C35.9999 14.6069 36.0689 14.9819 36.2068 15.3396C36.362 15.6974 36.7413 15.9086 37.1292 15.8483C37.7197 15.6974 37.849 14.9603 37.8189 14.2233Z" fill="#C62828"/>
<path d="M29.4398 12.1683C30.2458 11.1683 31.5691 10.2157 32.8363 11.095C33.5088 11.5648 33.5174 12.8967 32.6941 13.4959C31.3062 14.5131 31.2415 15.1812 31.0863 15.7416C30.8967 16.4097 30.776 17.2071 30.1682 17.5433C29.5605 17.8795 29.026 17.5433 28.707 16.5821C28.1639 15.0821 28.4398 13.4097 29.4398 12.1683Z" fill="#FF847A"/>
<path d="M15.1379 9.29782C11.6422 10.4314 11.0818 14.2806 11.0818 14.2806C11.0818 14.2806 9.01288 11.6944 5.90943 12.5306C2.20684 13.5047 0.116323 17.2806 2.75856 21.6814C5.81891 26.7245 16.5258 28.8151 16.5258 28.8151C16.5258 28.8151 23.0991 21.3323 22.6853 15.022C22.3448 9.88403 17.7801 8.44007 15.1379 9.29782V9.29782Z" fill="#F44336"/>
<path d="M15.138 9.29785C14.7112 9.43578 14.3018 9.63405 13.9268 9.88405C15.4526 9.88837 16.944 10.3194 18.2371 11.1297C19.5561 11.9918 20.7328 13.4918 21.0259 16.0134C21.6595 21.4832 16.9181 28.2806 16.5518 28.7763C17.0302 28.2246 23.0776 21.0866 22.6811 15.0177C22.3449 9.88405 17.7802 8.44009 15.138 9.29785V9.29785Z" fill="#C62828"/>
<path d="M11.3792 14.7325C11.112 14.3661 10.8103 14.0299 10.474 13.7282C9.56887 12.8058 8.31456 12.3144 7.02577 12.3833C6.14215 12.4351 5.27577 12.6635 4.48267 13.0644C4.48267 13.0644 5.77577 12.6721 7.53439 13.6549C8.45249 14.1851 9.24991 14.8963 9.88784 15.7411C10.0947 16.0644 10.362 16.3402 10.6766 16.5601C11.0042 16.7713 11.4353 16.7325 11.724 16.4696C12.1077 16.004 11.8103 15.323 11.3792 14.7325V14.7325Z" fill="#C62828"/>
<path d="M3.27587 17.6721C3.29311 17.31 3.35777 16.9523 3.46553 16.6075C3.64225 15.8833 4.15518 15.2842 4.84053 14.9954C5.50001 14.7885 6.4138 14.935 6.76725 15.5945C7.0819 16.1807 6.85346 16.8876 6.68104 17.5342C6.52587 18.2756 6.43966 19.0342 6.42242 19.7928C6.42673 20.4135 5.93104 20.9178 5.31035 20.9264C4.72415 20.9264 4.26725 20.4178 3.93966 19.9307C3.48277 19.2669 3.25001 18.4781 3.27587 17.6721V17.6721Z" fill="#FF847A"/>
<defs>
<radialGradient id="paint0_radial_1029_632" cx="0" cy="0" r="1" gradientUnits="userSpaceOnUse" gradientTransform="translate(25 24.0948) scale(24.5516 24.5516)">
<stop offset="0.5" stop-color="#FDE030"/>
<stop offset="0.92" stop-color="#F7C02B"/>
<stop offset="1" stop-color="#F4A223"/>
</radialGradient>
<radialGradient id="paint1_radial_1029_632" cx="0" cy="0" r="1" gradientUnits="userSpaceOnUse" gradientTransform="translate(12.3275 25.0478) scale(8.22064 7.3818)">
<stop stop-color="#ED7770"/>
<stop offset="0.9" stop-color="#ED7770" stop-opacity="0"/>
</radialGradient>
<radialGradient id="paint2_radial_1029_632" cx="0" cy="0" r="1" gradientUnits="userSpaceOnUse" gradientTransform="translate(50.6551 1086.46) scale(8.38793)">
<stop stop-color="#ED7770"/>
<stop offset="0.9" stop-color="#ED7770" stop-opacity="0"/>
</radialGradient>
</defs>
</svg>
