<svg width="50" height="47" viewBox="0 0 50 47" fill="none" xmlns="http://www.w3.org/2000/svg">
<path d="M24.8417 46.5678C13.2206 46.5678 0.683105 39.2786 0.683105 23.2839C0.683105 7.28924 13.2206 0 24.8417 0C31.2979 0 37.2542 2.12429 41.6694 5.998C46.4595 10.2466 49.0003 16.2446 49.0003 23.2839C49.0003 30.3232 46.4595 36.2796 41.6694 40.5282C37.2542 44.4019 31.2562 46.5678 24.8417 46.5678Z" fill="url(#paint0_radial_1029_685)"/>
<path d="M44.7893 9.44336C47.0094 13.0255 48.1674 17.2907 48.1674 22.035C48.1674 29.0743 45.6265 35.0307 40.8365 39.2792C36.4213 43.153 30.4233 45.3189 24.0087 45.3189C16.4862 45.3189 8.59721 42.2574 3.94043 35.7638C8.42227 43.1196 16.8528 46.5685 24.8418 46.5685C31.2563 46.5685 37.2543 44.4025 41.6695 40.5288C46.4596 36.2802 49.0004 30.3239 49.0004 23.2846C49.0004 17.978 47.5551 13.2629 44.7893 9.44336V9.44336Z" fill="#EB8F00"/>
<path d="M25.0084 36.1584C20.2142 36.1584 16.7903 33.6592 15.7615 32.1014C15.3741 31.5974 15.295 30.9226 15.5532 30.3436C15.749 29.9729 16.1364 29.7439 16.5571 29.7563C16.7112 29.7563 16.8653 29.7813 17.0111 29.8272C19.6061 30.6102 22.301 31.0018 25.0084 30.9851C27.7159 31.0018 30.415 30.6102 33.0058 29.8272C33.1516 29.7813 33.3057 29.7563 33.4598 29.7563C33.8805 29.7439 34.2678 29.9729 34.4636 30.3436C34.7219 30.9226 34.6427 31.5974 34.2553 32.1014C33.2265 33.6675 29.8027 36.1584 25.0084 36.1584Z" fill="#422B0D"/>
<path d="M50 16.003C50 16.003 48.2256 16.0405 48.2256 17.4608C48.2256 20.968 48.2672 28.4946 39.062 28.4946C31.7061 28.4946 28.1948 24.6959 27.6033 20.5015C27.3617 18.7562 26.7702 16.8568 24.9917 16.8568C23.2131 16.8568 22.6383 18.7437 22.3967 20.5015C21.8052 24.6959 18.2939 28.4946 10.938 28.4946C1.74942 28.4946 1.77441 20.968 1.77441 17.4608C1.77441 16.0405 0 16.003 0 16.003V12.5291C2.85322 12.1542 5.72726 11.9793 8.6013 12.0043C13.7996 12.0043 15.8697 12.0043 20.0058 12.4208C22.4508 12.6624 25.0042 12.6916 25.0042 12.6916C25.0042 12.6916 27.545 12.6624 30.0025 12.4208C34.1386 12.0043 36.2088 12.0043 41.407 12.0043C44.2811 11.9793 47.1509 12.1584 50 12.5291V16.003Z" fill="#422B0D"/>
<path d="M7.14773 18.7449C7.10608 19.4113 6.8395 20.0278 6.18555 20.1527C6.11058 20.1652 6.03977 20.1735 5.9648 20.1735C5.37749 20.1694 4.87349 19.7445 4.78186 19.1614C4.52777 18.0118 4.80685 16.808 5.53994 15.8875C6.21471 15.0711 7.22271 14.6004 8.28069 14.6046C8.90965 14.5463 9.46779 15.0086 9.52611 15.6376C9.52611 15.6501 9.53027 15.6626 9.53027 15.6792C9.53027 16.4623 8.90548 16.7955 8.28069 17.0121C7.59758 17.3203 7.15606 17.9951 7.14773 18.7449V18.7449Z" fill="#896024"/>
<path d="M33.6307 18.7449C33.5932 19.4113 33.3224 20.0278 32.6727 20.1527C32.5977 20.1652 32.5227 20.1735 32.4477 20.1735C31.8563 20.1735 31.3523 19.7445 31.2565 19.1614C31.0024 18.0118 31.2815 16.808 32.0145 15.8875C32.6935 15.0711 33.6973 14.6004 34.7595 14.6046C35.3884 14.5463 35.9466 15.0086 36.0049 15.6376C36.0049 15.6501 36.009 15.6626 36.009 15.6792C36.009 16.4623 35.3843 16.7955 34.7595 17.0121C34.0805 17.3203 33.639 17.9951 33.6307 18.7449Z" fill="#896024"/>
<defs>
<radialGradient id="paint0_radial_1029_685" cx="0" cy="0" r="1" gradientUnits="userSpaceOnUse" gradientTransform="translate(24.8417 23.2839) scale(23.7253 23.7253)">
<stop offset="0.5" stop-color="#FDE030"/>
<stop offset="0.92" stop-color="#F7C02B"/>
<stop offset="1" stop-color="#F4A223"/>
</radialGradient>
</defs>
</svg>
