<svg width="50" height="49" viewBox="0 0 50 49" fill="none" xmlns="http://www.w3.org/2000/svg">
<path d="M25 48.1897C12.9741 48.1897 0 40.6466 0 24.0948C0 7.5431 12.9741 0 25 0C31.681 0 37.8448 2.19828 42.4138 6.2069C47.3707 10.6034 50 16.8103 50 24.0948C50 31.3793 47.3707 37.5431 42.4138 41.9397C37.8448 45.9483 31.6379 48.1897 25 48.1897Z" fill="url(#paint0_radial_1029_1607)"/>
<path d="M45.6422 9.77148C47.9396 13.4784 49.1379 17.8922 49.1379 22.8017C49.1379 30.0861 46.5086 36.2499 41.5517 40.6465C36.9827 44.6551 30.7758 46.8965 24.1379 46.8965C16.3534 46.8965 8.17234 43.7284 3.37062 37.0086C8.00855 44.6206 16.7284 48.1896 24.9999 48.1896C31.6379 48.1896 37.8448 45.9482 42.4137 41.9396C47.3706 37.543 49.9999 31.3792 49.9999 24.0948C49.9999 18.6034 48.5042 13.7241 45.6422 9.77148V9.77148Z" fill="#EB8F00"/>
<path opacity="0.8" d="M9.33186 34.6253C13.4978 34.6253 16.875 31.2481 16.875 27.0822C16.875 22.9162 13.4978 19.5391 9.33186 19.5391C5.16592 19.5391 1.78876 22.9162 1.78876 27.0822C1.78876 31.2481 5.16592 34.6253 9.33186 34.6253Z" fill="url(#paint1_radial_1029_1607)"/>
<path opacity="0.8" d="M41.0129 34.6253C45.1788 34.6253 48.556 31.2481 48.556 27.0822C48.556 22.9162 45.1788 19.5391 41.0129 19.5391C36.847 19.5391 33.4698 22.9162 33.4698 27.0822C33.4698 31.2481 36.847 34.6253 41.0129 34.6253Z" fill="url(#paint2_radial_1029_1607)"/>
<path d="M17.9224 12.3305C18.9181 12.3434 19.2069 10.9813 18.1509 10.7572C17.3621 10.5977 16.4957 10.5762 15.638 10.6839C13.2371 10.9469 11.1681 12.1839 9.819 13.796C9.14659 14.6236 10.2457 15.4943 10.9785 14.8779C12.8535 13.3563 15.3276 12.352 17.9224 12.3305V12.3305Z" fill="#422B0D"/>
<path d="M32.0863 12.6226C31.0993 12.7346 30.6768 11.4071 31.7027 11.0795C32.4743 10.8467 33.332 10.739 34.1941 10.7605C36.6079 10.7864 38.7889 11.8122 40.2932 13.2864C41.0432 14.045 40.0346 15.0191 39.2458 14.476C37.2286 13.1441 34.6682 12.3898 32.0863 12.6226V12.6226Z" fill="#422B0D"/>
<path d="M25.1725 38.446C29.8277 38.446 32.845 35.0408 33.6639 33.446C33.9656 32.8425 33.9656 32.3253 33.707 32.1098C33.4915 31.9374 33.1898 31.9374 32.8019 32.1098C32.6725 32.1529 32.5432 32.2391 32.4139 32.3253C30.345 33.7908 27.8019 34.696 25.1725 34.696C22.5432 34.696 20.0001 33.7908 17.9312 32.3684C17.8019 32.2822 17.6725 32.196 17.5432 32.1529C17.1553 31.9805 16.8536 31.9805 16.6381 32.1529C16.3794 32.4115 16.3794 32.8856 16.6812 33.4891C17.5001 35.0408 20.5174 38.446 25.1725 38.446Z" fill="#422B0D"/>
<path d="M19.8276 23.4604L19.7414 23.3742C19.6983 23.3311 19.569 23.2018 19.5259 23.1587C19.4397 23.0725 19.3535 23.0294 19.2241 22.9001C19.0948 22.8138 18.9655 22.6845 18.7931 22.5983C18.6207 22.5121 18.4483 22.3828 18.2759 22.2966C18.1035 22.2104 17.8879 22.1242 17.6724 22.038C17.4569 21.9518 17.2414 21.9087 17.0259 21.8656C16.8104 21.8225 16.5948 21.8225 16.3362 21.8225H16.3793H16.3362H16.25H16.1207C15.9914 21.8225 15.9914 21.8225 15.9483 21.8225C15.8621 21.8225 15.7328 21.8656 15.6466 21.8656C15.431 21.9087 15.2155 21.9518 15 22.038C14.7845 22.1242 14.569 22.1673 14.3966 22.2966C14.2241 22.3828 14.0517 22.469 13.8793 22.5983C13.5776 22.8138 13.319 23.0294 13.1466 23.1587C12.9741 23.3311 12.8879 23.4173 12.8879 23.4173L12.8017 23.5035C12.2845 24.0207 11.4224 24.0207 10.819 23.5897C10.3879 23.2449 10.2586 22.6414 10.4741 22.2104L10.5172 22.0811C10.5604 21.9949 10.6035 21.8656 10.6897 21.7363C10.8621 21.4345 11.1638 21.0035 11.6379 20.5294C11.8535 20.3138 12.1552 20.0552 12.4569 19.8397C12.7586 19.6242 13.1466 19.4087 13.5345 19.2363C13.9224 19.0638 14.3966 18.8914 14.8276 18.8052C15.0431 18.7621 15.3017 18.719 15.5604 18.6759C15.6897 18.6759 15.8621 18.6328 15.9052 18.6328H16.25C16.7241 18.6328 17.1983 18.6759 17.6724 18.7621C18.1466 18.8483 18.5776 19.0207 18.9655 19.1932C19.3535 19.3656 19.7414 19.5811 20.0431 19.7966C20.3879 20.0121 20.6466 20.2276 20.8621 20.4863C21.0776 20.7018 21.2931 20.9173 21.4224 21.1328C21.5086 21.219 21.5517 21.3483 21.6379 21.4345C21.681 21.5207 21.7672 21.607 21.8104 21.6932C21.9397 21.8656 21.9397 21.9518 21.9828 22.038C22.0259 22.1242 22.0259 22.1242 22.0259 22.1242C22.3276 22.7707 21.9828 23.5035 21.25 23.7621C20.8621 23.9776 20.2155 23.8483 19.8276 23.4604V23.4604Z" fill="#422B0D"/>
<path d="M37.4612 23.304C37.4612 23.304 37.4311 23.2738 37.375 23.2178C37.3276 23.1704 37.2198 23.0497 37.1552 23.0023C37.0733 22.9333 36.9742 22.8514 36.8578 22.7566C36.7328 22.6618 36.5905 22.5583 36.4354 22.4506C36.2759 22.3514 36.1035 22.248 35.9181 22.1575C35.7371 22.0583 35.5302 21.9894 35.3233 21.9118C35.1164 21.8385 34.8966 21.7997 34.6767 21.7523C34.4569 21.7178 34.2285 21.7006 34 21.7006H34.0604H34.0561H34.0474H34.0302H33.9957H33.9267L33.7931 21.7049C33.6811 21.7049 33.6638 21.7135 33.6207 21.7178C33.5517 21.7178 33.4267 21.7394 33.319 21.7566C33.0992 21.804 32.8793 21.8428 32.6724 21.9161C32.4698 21.9937 32.2629 22.0626 32.0819 22.1618C31.8966 22.2566 31.7242 22.3557 31.5647 22.4549C31.2543 22.6618 31 22.8687 30.8319 23.0238C30.6595 23.179 30.5604 23.2738 30.5604 23.2738L30.4526 23.3816C29.9311 23.8859 29.0517 23.9161 28.4828 23.4549C28.0345 23.0885 27.9224 22.5238 28.1466 22.054C28.1466 22.054 28.1681 22.0109 28.2112 21.9247C28.2543 21.8428 28.3061 21.7135 28.4009 21.5626C28.5776 21.2566 28.8707 20.8256 29.3362 20.373C29.569 20.1488 29.8405 19.9118 30.1638 19.6963C30.4785 19.4721 30.8448 19.2695 31.25 19.0928C31.6552 18.9204 32.0948 18.7695 32.5604 18.6747C32.7974 18.6316 33.0173 18.5885 33.3061 18.5626C33.4397 18.5497 33.5992 18.5368 33.6681 18.5325L34 18.5195C34.4871 18.5282 34.9698 18.5799 35.4397 18.6704C35.9052 18.7652 36.3448 18.9161 36.75 19.0885C37.1509 19.2652 37.5216 19.4678 37.8362 19.6919C38.1595 19.9075 38.4267 20.1402 38.6595 20.3687C38.8923 20.5928 39.0776 20.8169 39.2328 21.0195C39.3061 21.123 39.375 21.2178 39.4397 21.3083C39.5 21.4075 39.5604 21.498 39.6078 21.5799C39.7242 21.7609 39.7328 21.8299 39.7759 21.9118C39.8061 21.9807 39.8233 22.0195 39.8233 22.0195C40.1121 22.6618 39.7629 23.3902 39.0431 23.6488C38.4785 23.8514 37.8448 23.6963 37.4612 23.304V23.304Z" fill="#422B0D"/>
<defs>
<radialGradient id="paint0_radial_1029_1607" cx="0" cy="0" r="1" gradientUnits="userSpaceOnUse" gradientTransform="translate(25 24.0948) scale(24.5516 24.5516)">
<stop offset="0.5" stop-color="#FDE030"/>
<stop offset="0.9188" stop-color="#F7C02B"/>
<stop offset="1" stop-color="#F4A223"/>
</radialGradient>
<radialGradient id="paint1_radial_1029_1607" cx="0" cy="0" r="1" gradientUnits="userSpaceOnUse" gradientTransform="translate(9.3321 27.0816) scale(8.20604 7.79536)">
<stop stop-color="#ED7770"/>
<stop offset="0.9" stop-color="#ED7770" stop-opacity="0"/>
</radialGradient>
<radialGradient id="paint2_radial_1029_1607" cx="0" cy="0" r="1" gradientUnits="userSpaceOnUse" gradientTransform="translate(41.0139 27.0816) scale(8.20604 7.79536)">
<stop stop-color="#ED7770"/>
<stop offset="0.9" stop-color="#ED7770" stop-opacity="0"/>
</radialGradient>
</defs>
</svg>
