<svg width="50" height="49" viewBox="0 0 50 49" fill="none" xmlns="http://www.w3.org/2000/svg">
<path d="M25 48.1897C12.9741 48.1897 0 40.6466 0 24.0948C0 7.5431 12.9741 0 25 0C31.681 0 37.8448 2.19828 42.4138 6.2069C47.3707 10.6034 50 16.8103 50 24.0948C50 31.3793 47.3707 37.5431 42.4138 41.9397C37.8448 45.9483 31.6379 48.1897 25 48.1897Z" fill="url(#paint0_radial_1029_667)"/>
<path d="M45.6422 9.77148C47.9396 13.4784 49.1378 17.8922 49.1378 22.8017C49.1378 30.0861 46.5085 36.2499 41.5516 40.6465C36.9827 44.6551 30.7758 46.8965 24.1378 46.8965C16.3534 46.8965 8.17233 43.7284 3.37061 37.0086C8.00854 44.6206 16.7284 48.1896 24.9999 48.1896C31.6378 48.1896 37.8447 45.9482 42.4137 41.9396C47.3706 37.543 49.9999 31.3792 49.9999 24.0948C49.9999 18.6034 48.5042 13.7241 45.6422 9.77148V9.77148Z" fill="#EB8F00"/>
<path opacity="0.8" d="M9.33192 35.4866C13.4979 35.4866 16.875 32.1094 16.875 27.9435C16.875 23.7776 13.4979 20.4004 9.33192 20.4004C5.16598 20.4004 1.78882 23.7776 1.78882 27.9435C1.78882 32.1094 5.16598 35.4866 9.33192 35.4866Z" fill="url(#paint1_radial_1029_667)"/>
<path opacity="0.8" d="M41.0128 35.4866C45.1788 35.4866 48.5559 32.1094 48.5559 27.9435C48.5559 23.7776 45.1788 20.4004 41.0128 20.4004C36.8469 20.4004 33.4697 23.7776 33.4697 27.9435C33.4697 32.1094 36.8469 35.4866 41.0128 35.4866Z" fill="url(#paint2_radial_1029_667)"/>
<path d="M18.6897 21.5037C18.6897 21.5037 18.6681 21.4735 18.6207 21.4175C18.5776 21.3615 18.5173 21.2839 18.4397 21.1847C18.375 21.1158 18.2975 21.0339 18.2069 20.939C18.1164 20.8356 18.0043 20.7278 17.8923 20.6158C17.7759 20.508 17.6552 20.3959 17.5302 20.3054C17.4095 20.2063 17.2759 20.133 17.1681 20.0727C17.0561 20.0037 16.9526 19.9865 16.888 19.9649C16.8535 19.952 16.8233 19.952 16.7975 19.9477C16.7845 19.952 16.7716 19.9434 16.7587 19.9477L16.7414 19.952H16.7328H16.7285C16.7802 19.952 16.6121 19.9563 16.8449 19.9477L16.6078 19.9563C16.5475 19.9563 16.5862 19.9606 16.5906 19.9606C16.6035 19.9606 16.6121 19.9606 16.6207 19.9563C16.6552 19.9434 16.6207 19.9563 16.6121 19.9563C16.5992 19.9563 16.5819 19.9606 16.5647 19.9692C16.4957 19.9908 16.3923 20.008 16.2845 20.077C16.1768 20.1373 16.0431 20.2106 15.9225 20.3097C15.8018 20.4046 15.6768 20.5123 15.5604 20.6201C15.3362 20.8399 15.138 21.0597 15 21.2192C14.8578 21.383 14.7802 21.4778 14.7802 21.4778L14.6811 21.5942C14.0906 22.2839 13.0043 22.4003 12.2587 21.8572C11.75 21.4865 11.5302 20.9089 11.625 20.3572C11.625 20.3572 11.6552 20.1804 11.7414 19.8744C11.8319 19.5684 11.9828 19.133 12.2802 18.6201C12.5776 18.1115 13.0087 17.5123 13.7371 16.9649C14.0949 16.6977 14.5302 16.4304 15.0475 16.2494C15.1725 16.202 15.3061 16.1589 15.444 16.1244C15.5862 16.0899 15.6983 16.0511 15.8923 16.0253L16.1595 15.9865C16.2414 15.9778 16.3621 15.9649 16.3793 15.9649L16.6164 15.9477L16.75 15.9434H16.763H16.7888L16.8449 15.9477H16.9483L17.1681 15.9606C17.3147 15.9735 17.4569 15.9994 17.5992 16.0209C17.8793 16.0727 18.1595 16.1459 18.4138 16.2408C18.9311 16.4218 19.3664 16.6847 19.7242 16.9563C20.4526 17.5037 20.8837 18.1028 21.1811 18.6115C21.3319 18.8658 21.444 19.1072 21.5259 19.3184C21.6164 19.5209 21.6811 19.7365 21.7328 19.8959C21.7802 20.0511 21.7802 20.133 21.8018 20.2063C21.8147 20.2753 21.819 20.314 21.819 20.314C21.9785 21.1847 21.3362 22.008 20.3923 22.1503C19.7156 22.258 19.0647 21.9865 18.6897 21.5037V21.5037Z" fill="#422B0D"/>
<path d="M35.7156 21.5037C35.7156 21.5037 35.6941 21.4735 35.6466 21.4175C35.6035 21.3615 35.5432 21.2839 35.4656 21.1847C35.401 21.1158 35.3234 21.0339 35.2329 20.939C35.1423 20.8356 35.0303 20.7278 34.9182 20.6158C34.8018 20.508 34.6811 20.3959 34.5561 20.3054C34.4354 20.2063 34.3018 20.133 34.1941 20.0727C34.082 20.0037 33.9785 19.9865 33.9139 19.9649C33.8794 19.952 33.8492 19.952 33.8234 19.9477C33.8104 19.952 33.7975 19.9434 33.7846 19.9477L33.7673 19.952H33.7587H33.7544H33.7501C33.8018 19.952 33.6337 19.9563 33.8665 19.9477L33.6294 19.9563C33.5691 19.9563 33.6079 19.9606 33.6122 19.9606C33.6251 19.9606 33.6337 19.9606 33.6423 19.9563C33.6768 19.9434 33.6423 19.9563 33.6337 19.9563C33.6208 19.9563 33.6035 19.9606 33.5863 19.9692C33.5173 19.9908 33.4139 20.008 33.3061 20.077C33.1984 20.1373 33.0647 20.2106 32.9441 20.3097C32.8234 20.4046 32.6984 20.5123 32.582 20.6201C32.3579 20.8399 32.1596 21.0597 32.0216 21.2192C31.8794 21.383 31.8018 21.4778 31.8018 21.4778L31.7027 21.5942C31.1122 22.2839 30.026 22.4003 29.2803 21.8572C28.7716 21.4865 28.5518 20.9089 28.6466 20.3572C28.6466 20.3572 28.6768 20.1804 28.763 19.8744C28.8535 19.5684 29.0044 19.133 29.3018 18.6201C29.5992 18.1115 30.0303 17.5123 30.7587 16.9649C31.1165 16.6977 31.5518 16.4304 32.0691 16.2494C32.1941 16.202 32.3277 16.1589 32.4656 16.1244C32.6079 16.0899 32.7199 16.0511 32.9139 16.0253L33.1811 15.9865C33.263 15.9778 33.3837 15.9649 33.401 15.9649L33.638 15.9477L33.7716 15.9434H33.7846H33.8104L33.8665 15.9477H33.9699L34.1897 15.9606C34.3363 15.9735 34.4785 15.9994 34.6208 16.0209C34.901 16.0727 35.1811 16.1459 35.4354 16.2408C35.9527 16.4218 36.388 16.6847 36.7458 16.9563C37.4742 17.5037 37.9053 18.1028 38.2027 18.6115C38.3535 18.8658 38.4656 19.1072 38.5475 19.3184C38.638 19.5209 38.7027 19.7365 38.7544 19.8959C38.8018 20.0511 38.8018 20.133 38.8234 20.2063C38.8363 20.2753 38.8406 20.314 38.8406 20.314C39.0001 21.1847 38.3579 22.008 37.4139 22.1503C36.7372 22.258 36.0863 21.9865 35.7156 21.5037V21.5037Z" fill="#422B0D"/>
<path d="M25.1811 37.4958C19.763 37.4958 15.4785 34.9312 13.1164 32.1855C12.8794 31.9096 12.8233 31.5389 12.9742 31.2157C13.125 30.8838 13.4526 30.6682 13.8061 30.6682C13.9656 30.6682 14.1294 30.7113 14.2716 30.7932C16.7069 32.1984 20.7975 33.9355 25.1681 33.9355H25.2371C29.6121 33.9355 33.6983 32.1941 36.1337 30.7932C36.2802 30.7113 36.4397 30.6639 36.5992 30.6682C36.9526 30.6682 37.2802 30.8838 37.4311 31.2157C37.5776 31.5389 37.5259 31.9139 37.2888 32.1855C34.9268 34.9269 30.638 37.4958 25.2242 37.4958" fill="#422B0D"/>
<defs>
<radialGradient id="paint0_radial_1029_667" cx="0" cy="0" r="1" gradientUnits="userSpaceOnUse" gradientTransform="translate(25 24.0948) scale(24.5516 24.5516)">
<stop offset="0.5" stop-color="#FDE030"/>
<stop offset="0.9188" stop-color="#F7C02B"/>
<stop offset="1" stop-color="#F4A223"/>
</radialGradient>
<radialGradient id="paint1_radial_1029_667" cx="0" cy="0" r="1" gradientUnits="userSpaceOnUse" gradientTransform="translate(9.33216 27.9429) scale(8.20604 7.79536)">
<stop stop-color="#ED7770"/>
<stop offset="0.9" stop-color="#ED7770" stop-opacity="0"/>
</radialGradient>
<radialGradient id="paint2_radial_1029_667" cx="0" cy="0" r="1" gradientUnits="userSpaceOnUse" gradientTransform="translate(41.0139 27.9429) scale(8.20604 7.79536)">
<stop stop-color="#ED7770"/>
<stop offset="0.9" stop-color="#ED7770" stop-opacity="0"/>
</radialGradient>
</defs>
</svg>
