<svg width="50" height="50" viewBox="0 0 50 50" fill="none" xmlns="http://www.w3.org/2000/svg">
<path d="M25 44.918C11.2918 44.918 0.166362 46.9143 0 49.9088H49.9958C49.8336 46.9143 38.7082 44.918 25 44.918Z" fill="#CFD8DC"/>
<path d="M41.0125 32.1042C43.1419 39.9108 40.9293 49.9091 24.9461 49.9091C8.96287 49.9091 6.63381 39.8733 8.87553 32.1042C11.0757 24.4932 14.5401 20.4922 24.9419 20.4922C35.3437 20.4922 38.9371 24.4932 41.0125 32.1042Z" fill="url(#paint0_radial_1029_1163)"/>
<path opacity="0.2" d="M24.9462 21.7399C29.7249 21.7399 33.023 22.5925 35.3271 24.4225C37.3567 26.032 38.7376 28.5067 39.8106 32.4328C40.4552 34.7993 41.5241 40.7426 37.4898 44.7602C37.153 45.0971 37.0365 45.6003 37.1904 46.0495C37.3443 46.5028 37.7477 46.8231 38.2218 46.8813C42.4474 47.3929 45.0635 48.0666 46.6314 48.6614H3.38154C4.93286 48.0708 7.51147 47.4053 11.6663 46.8979C12.1405 46.8397 12.5397 46.5153 12.6936 46.062C12.8475 45.6086 12.7269 45.1054 12.3859 44.7727C11.0092 43.421 8.0355 39.5073 10.0734 32.4536C12.0823 25.508 15.0476 21.7399 24.9462 21.7399M24.9462 20.4922C14.5444 20.4922 11.0758 24.4932 8.87979 32.1042C7.56137 36.675 7.82755 42.0235 11.5166 45.6585C4.67084 46.4987 0.108371 48.0001 0.00439453 49.9091H50.0002C49.8921 47.9876 45.2756 46.482 38.3674 45.6461C42.0107 42.0194 42.2644 36.6875 41.0125 32.1084C38.9372 24.4932 35.3479 20.4922 24.9462 20.4922V20.4922Z" fill="#424242"/>
<path d="M33.738 18.7148H16.2076C15.2261 18.7148 14.2944 21.4515 14.2944 22.4289C14.2944 22.7907 14.5523 23.4977 14.9682 24.0384V33.9411C14.9682 35.4092 16.2034 36.6029 17.6716 36.6029C19.1397 36.6029 20.375 35.4134 20.375 33.9411V25.6771C21.6227 25.8102 23.1158 25.8892 24.8293 25.8892C34.2162 25.8892 35.464 23.4104 35.464 22.433C35.464 21.4515 34.7195 18.7148 33.738 18.7148Z" fill="#F44336"/>
<path opacity="0.2" d="M33.4884 19.9626C33.817 19.9626 34.2495 21.7967 34.2495 22.4289C34.2287 22.878 32.5734 24.604 24.8917 24.604C23.357 24.604 22.0386 24.5583 20.6162 24.421C20.5746 24.4169 20.533 24.4252 20.4914 24.4252C20.1836 24.4252 19.826 24.5458 19.5972 24.7538C19.3352 24.9867 19.1272 25.3236 19.1272 25.6771V33.9411C19.1272 34.7188 18.4493 35.3552 17.6716 35.3552C16.8938 35.3552 16.2159 34.723 16.2159 33.9411V24.0426C16.2159 23.7556 16.2159 23.4728 16.0329 23.2524C15.7376 22.8947 15.6336 22.4996 15.5921 22.3748C15.617 21.7343 16.1161 20.3785 16.4488 19.9626H33.6839M33.738 18.7148H16.2076C15.2261 18.7148 14.2944 21.4515 14.2944 22.4289C14.2944 22.7907 14.5523 23.4977 14.9682 24.0384V33.9411C14.9682 35.4092 16.2034 36.6029 17.6716 36.6029C19.1397 36.6029 20.375 35.4134 20.375 33.9411V25.6771C21.6227 25.8102 23.1158 25.8892 24.8293 25.8892C34.2162 25.8892 35.464 23.4104 35.464 22.433C35.464 21.4515 34.7195 18.7148 33.738 18.7148V18.7148Z" fill="#424242"/>
<path d="M24.9253 23.0547C29.8592 23.0547 33.8589 19.055 33.8589 14.1211C33.8589 9.18722 29.8592 5.1875 24.9253 5.1875C19.9914 5.1875 15.9917 9.18722 15.9917 14.1211C15.9917 19.055 19.9914 23.0547 24.9253 23.0547Z" fill="url(#paint1_radial_1029_1163)"/>
<path opacity="0.2" d="M24.9253 6.43521C29.1634 6.43521 32.6112 9.88306 32.6112 14.1211C32.6112 16.4335 32.6112 18.434 31.717 19.7317C30.7521 21.1291 28.5312 21.8112 24.9253 21.8112C21.3194 21.8112 19.0985 21.1333 18.1336 19.7317C17.2394 18.434 17.2394 16.4377 17.2394 14.1211C17.2394 9.88306 20.6873 6.43521 24.9253 6.43521M24.9253 5.1875C19.9927 5.1875 15.9917 9.1885 15.9917 14.1211C15.9917 19.0537 15.9917 23.0547 24.9253 23.0547C33.8589 23.0547 33.8589 19.0537 33.8589 14.1211C33.8589 9.1885 29.8621 5.1875 24.9253 5.1875Z" fill="#424242"/>
<path d="M33.0476 14.4643H16.8523C16.3449 14.4643 15.9248 14.0484 15.9248 13.5369V1.70854C15.9248 0.793549 16.6734 0.0449219 17.5884 0.0449219H32.3031C33.2181 0.0449219 33.9667 0.793549 33.9667 1.70854V13.5369C33.9709 14.0484 33.555 14.4643 33.0476 14.4643V14.4643Z" fill="#424242"/>
<path d="M15.9292 8.36719H33.9711V11.2452H15.9292V8.36719Z" fill="#F44336"/>
<path d="M36.6829 14.6321H13.2176C12.7601 14.6321 12.3857 14.2578 12.3857 13.8003V11.8123C12.3857 11.3548 12.7601 10.9805 13.2176 10.9805H36.6787C37.1362 10.9805 37.5105 11.3548 37.5105 11.8123V13.8003C37.5147 14.2578 37.1404 14.6321 36.6829 14.6321Z" fill="#424242"/>
<path d="M24.9251 33.7212C25.9036 33.7212 26.6968 32.928 26.6968 31.9495C26.6968 30.971 25.9036 30.1777 24.9251 30.1777C23.9466 30.1777 23.1533 30.971 23.1533 31.9495C23.1533 32.928 23.9466 33.7212 24.9251 33.7212Z" fill="#424242"/>
<path d="M20.9366 17.5393C21.5499 17.5393 22.0471 17.0421 22.0471 16.4288C22.0471 15.8155 21.5499 15.3184 20.9366 15.3184C20.3233 15.3184 19.8262 15.8155 19.8262 16.4288C19.8262 17.0421 20.3233 17.5393 20.9366 17.5393Z" fill="#424242"/>
<path d="M28.9181 17.5393C29.5314 17.5393 30.0285 17.0421 30.0285 16.4288C30.0285 15.8155 29.5314 15.3184 28.9181 15.3184C28.3048 15.3184 27.8076 15.8155 27.8076 16.4288C27.8076 17.0421 28.3048 17.5393 28.9181 17.5393Z" fill="#424242"/>
<path d="M24.9251 19.5348C25.6602 19.5348 26.256 18.939 26.256 18.2039C26.256 17.4689 25.6602 16.873 24.9251 16.873C24.1901 16.873 23.5942 17.4689 23.5942 18.2039C23.5942 18.939 24.1901 19.5348 24.9251 19.5348Z" fill="#EF6C00"/>
<path d="M24.9251 40.8169C25.9036 40.8169 26.6968 40.0237 26.6968 39.0452C26.6968 38.0667 25.9036 37.2734 24.9251 37.2734C23.9466 37.2734 23.1533 38.0667 23.1533 39.0452C23.1533 40.0237 23.9466 40.8169 24.9251 40.8169Z" fill="#424242"/>
<path d="M20.9283 19.1146C22.0513 22.0092 27.9321 21.9885 29.0384 19.0771C29.2506 18.5115 28.348 18.2703 28.1359 18.8276C27.4081 20.7449 22.5878 20.8114 21.8308 18.865C21.6146 18.3077 20.7079 18.5531 20.9283 19.1146Z" fill="#424242"/>
<path d="M12.728 29.254C13.1114 28.6242 13.1424 27.9432 12.7971 27.733C12.4518 27.5227 11.861 27.8628 11.4776 28.4925C11.0941 29.1223 11.0631 29.8033 11.4084 30.0135C11.7537 30.2238 12.3445 29.8837 12.728 29.254Z" fill="#B0BEC5"/>
<path d="M5.199 21.2405C6.43839 24.2558 8.7217 26.9716 11.1755 29.0886C11.7786 29.6126 12.6645 28.7309 12.0573 28.2068C9.78226 26.2396 7.51142 23.6111 6.40096 20.9077C6.10151 20.1757 4.89539 20.496 5.199 21.2405V21.2405Z" fill="#8D6E63"/>
<path d="M1.83012 20.0802C1.89667 18.4498 2.86572 17.6804 3.49374 17.5016C4.76641 17.1439 5.51503 17.5016 6.29693 18.2211C7.07883 18.9406 7.14538 19.6726 7.28679 19.6684C7.39076 19.6684 6.83761 18.5455 7.64446 18.2336C8.23089 18.0048 8.74245 18.6869 8.85059 18.9531C9.14588 19.6726 9.47028 21.7563 9.24153 22.3468C9.01279 22.9374 6.0765 24.7882 5.32788 24.73C4.58341 24.6634 1.76774 21.7105 1.83012 20.0802V20.0802Z" fill="#43A047"/>
<path d="M9.80299 24.1299L6.79184 26.1138C6.33019 26.4174 5.70633 26.2926 5.39856 25.8268L5.3237 25.7145C5.02009 25.2529 5.14486 24.629 5.61068 24.3212L8.62182 22.3374C9.08348 22.0338 9.70733 22.1585 10.0151 22.6243L10.09 22.7366C10.3936 23.1983 10.2646 23.8222 9.80299 24.1299V24.1299Z" fill="#2E7D32"/>
<path d="M38.4905 30.0131C38.8358 29.8028 38.8048 29.1219 38.4213 28.4921C38.0378 27.8624 37.447 27.5223 37.1018 27.7326C36.7565 27.9428 36.7874 28.6238 37.1709 29.2535C37.5544 29.8833 38.1452 30.2234 38.4905 30.0131Z" fill="#B0BEC5"/>
<path d="M43.4953 20.9077C42.3849 23.6111 40.114 26.2396 37.839 28.2068C37.2318 28.735 38.1177 29.6126 38.7207 29.0886C41.1704 26.9675 43.4579 24.2558 44.6973 21.2405C45.0051 20.496 43.7989 20.1757 43.4953 20.9077V20.9077Z" fill="#8D6E63"/>
<path d="M48.0701 20.0802C48.0036 18.4498 47.0345 17.6804 46.4065 17.5016C45.1339 17.1439 44.3852 17.5016 43.6033 18.2211C42.8214 18.9406 42.7549 19.6726 42.6135 19.6684C42.5095 19.6684 43.0627 18.5455 42.2558 18.2336C41.6694 18.0048 41.1578 18.6869 41.0497 18.9531C40.7544 19.6726 40.43 21.7563 40.6587 22.3468C40.8875 22.9333 43.8238 24.7882 44.5724 24.73C45.3169 24.6634 48.1325 21.7105 48.0701 20.0802V20.0802Z" fill="#43A047"/>
<path d="M40.0974 24.1299L43.1086 26.1138C43.5702 26.4174 44.1941 26.2926 44.5018 25.8268L44.5767 25.7145C44.8803 25.2529 44.7555 24.629 44.2897 24.3212L41.2786 22.3374C40.8169 22.0338 40.1931 22.1585 39.8853 22.6243L39.8104 22.7366C39.5068 23.1983 39.6357 23.8222 40.0974 24.1299V24.1299Z" fill="#2E7D32"/>
<path opacity="0.2" d="M4.41683 18.6071C4.70796 18.6071 4.97414 18.6944 5.45659 19.1394C5.76435 19.4223 5.88913 19.6427 5.98894 19.8673C6.09708 20.1127 6.42564 20.7947 7.29072 20.7947H7.31568C7.5569 20.7947 7.78981 20.7739 7.98944 20.645C8.0643 21.1732 8.10589 21.7222 8.0643 21.9302C7.9936 22.2712 8.06846 22.6414 8.27226 22.9242C8.39287 23.0947 8.55507 23.2361 8.74223 23.3276L6.5421 24.7791C6.55457 24.5628 6.50882 24.3466 6.40901 24.1469C6.2468 23.8308 5.95983 23.6021 5.62295 23.5106C5.39836 23.3858 4.74123 22.8368 4.07162 21.9884C3.32716 21.0443 3.0693 20.358 3.07761 20.1293C3.12336 18.9357 3.82624 18.7069 3.83456 18.7027C4.05499 18.6404 4.25046 18.6071 4.41683 18.6071M4.41683 17.3594C4.13817 17.3594 3.83872 17.4051 3.49768 17.5008C2.86966 17.6796 1.90061 18.4449 1.83406 20.0794C1.77167 21.6848 4.50001 24.5712 5.29854 24.7126C5.1405 25.0411 5.14882 25.4404 5.36509 25.769C5.57304 26.0809 5.91408 26.2514 6.25928 26.2514C6.46307 26.2514 6.66687 26.1932 6.84986 26.0726L9.74872 24.1636C10.2436 23.8392 10.3809 23.1737 10.0523 22.6788C9.87349 22.4043 9.58651 22.2462 9.28706 22.2088C9.43679 21.4893 9.13318 19.6177 8.85868 18.9481C8.76718 18.7194 8.37207 18.1829 7.89378 18.1829C7.81476 18.1829 7.73574 18.1371 7.65256 18.1704C6.84155 18.4865 7.39886 19.547 7.29072 19.547C7.14516 19.547 7.08277 18.8774 6.30087 18.1579C5.72692 17.6339 5.16961 17.3594 4.41683 17.3594V17.3594Z" fill="#424242"/>
<path opacity="0.2" d="M45.4831 18.6071C45.6495 18.6071 45.8449 18.6404 46.0654 18.7027C46.0737 18.7027 46.7724 18.9357 46.8223 20.1293C46.8306 20.358 46.5728 21.0443 45.8283 21.9884C45.1629 22.8327 44.5057 23.3858 44.277 23.5106C43.9359 23.6021 43.649 23.835 43.4909 24.1511C43.3911 24.3507 43.3454 24.567 43.3578 24.7833L41.1577 23.3318C41.3407 23.2403 41.5029 23.1072 41.6235 22.9366C41.8273 22.6538 41.9022 22.2962 41.8356 21.9593C41.794 21.7513 41.8356 21.1732 41.9105 20.645C42.1101 20.7781 42.343 20.7947 42.5842 20.7947H42.6092C43.4743 20.7947 43.8028 20.1085 43.911 19.8673C44.0108 19.6427 44.1356 19.3931 44.4433 19.1103C44.9258 18.6653 45.192 18.6071 45.4831 18.6071M45.4831 17.3594C44.7262 17.3594 44.173 17.6339 43.5991 18.1579C42.8172 18.8733 42.7506 19.547 42.6092 19.547C42.5052 19.547 43.0584 18.4865 42.2515 18.1704C42.1683 18.1371 42.0893 18.1538 42.0103 18.1538C41.5278 18.1538 41.1369 18.7027 41.0454 18.9315C40.7709 19.6011 40.4673 21.481 40.617 22.2005C40.3176 22.2379 40.0306 22.4001 39.8518 22.6746C39.5274 23.1696 39.6646 23.835 40.1554 24.1594L43.0542 26.0726C43.2372 26.1932 43.441 26.2514 43.6448 26.2514C43.9942 26.2514 44.3352 26.0809 44.539 25.769C44.7553 25.4404 44.7636 25.0411 44.6055 24.7126C45.4041 24.5712 48.1324 21.6848 48.07 20.0794C48.0035 18.449 47.0344 17.6796 46.4064 17.5008C46.0654 17.4051 45.7618 17.3594 45.4831 17.3594V17.3594Z" fill="#424242"/>
<path opacity="0.2" d="M32.3076 1.24771C32.5322 1.24771 32.8524 1.48478 32.8524 1.70937V10.9799C32.8524 11.6703 33.2808 12.0612 33.9712 12.0612H36.1797V13.3089H13.7209V12.0612H15.9293C16.6197 12.0612 17.0481 11.6703 17.0481 10.9799V1.70937C17.0481 1.48478 17.3683 1.24771 17.5929 1.24771H32.4365M32.3076 0H17.5929C16.6779 0 15.8004 0.794377 15.8004 1.70937V10.8135H13.2176C12.7601 10.8135 12.4731 11.3542 12.4731 11.8117V13.7997C12.4731 14.2572 12.7601 14.5566 13.2176 14.5566H36.6788C37.1363 14.5566 37.4232 14.2572 37.4232 13.7997V11.8117C37.4232 11.3542 37.1363 10.8135 36.6788 10.8135H34.1002V1.70937C34.1002 0.794377 33.2226 0 32.3076 0V0Z" fill="#EEEEEE"/>
<defs>
<radialGradient id="paint0_radial_1029_1163" cx="0" cy="0" r="1" gradientUnits="userSpaceOnUse" gradientTransform="translate(24.921 34.6845) rotate(90) scale(15.5203 17.1499)">
<stop offset="0.671" stop-color="#FAFAFA"/>
<stop offset="0.8856" stop-color="#CFD8DC"/>
</radialGradient>
<radialGradient id="paint1_radial_1029_1163" cx="0" cy="0" r="1" gradientUnits="userSpaceOnUse" gradientTransform="translate(25.0247 22.9724) scale(12.5973)">
<stop offset="0.6208" stop-color="white"/>
<stop offset="0.8308" stop-color="#CFD8DC"/>
</radialGradient>
</defs>
</svg>
