<svg width="50" height="50" viewBox="0 0 50 50" fill="none" xmlns="http://www.w3.org/2000/svg">
<path d="M25 50C38.8071 50 50 38.8071 50 25C50 11.1929 38.8071 0 25 0C11.1929 0 0 11.1929 0 25C0 38.8071 11.1929 50 25 50Z" fill="url(#paint0_linear_1029_1626)"/>
<path d="M25 50C38.8071 50 50 38.8071 50 25C50 11.1929 38.8071 0 25 0C11.1929 0 0 11.1929 0 25C0 38.8071 11.1929 50 25 50Z" fill="url(#paint1_radial_1029_1626)"/>
<path d="M49.9417 26.6331L42.6251 19.5039C41.9834 18.8789 41.6917 17.9789 41.8417 17.0956L43.3917 8.07057C40.8251 5.28307 37.6334 3.08724 34.0417 1.69141L26.2667 5.77891C25.4751 6.19557 24.5292 6.19557 23.7334 5.77891L15.9626 1.69141C12.3709 3.08724 9.17923 5.28307 6.61256 8.07057L8.16256 17.0956C8.31256 17.9789 8.02089 18.8789 7.37923 19.5039L0.0583916 26.6331C0.279225 30.0831 1.20422 33.3372 2.68339 36.2664L13.3251 37.8122C14.2126 37.9414 14.9792 38.4956 15.3751 39.2997L20.4459 49.5747C21.9251 49.8456 23.4459 49.9956 25.0001 49.9956C26.5542 49.9956 28.0792 49.8456 29.5542 49.5747L34.6251 39.3039C35.0209 38.4997 35.7876 37.9456 36.6751 37.8164L47.3167 36.2706C48.7959 33.3414 49.7167 30.0831 49.9417 26.6331Z" fill="url(#paint2_radial_1029_1626)"/>
<path d="M18.9917 30.1338C18.6667 29.9546 18.2584 30.0755 18.0834 30.4005L13.8875 37.9921C13.8875 37.9921 14.25 38.1171 14.5417 38.313C14.8334 38.5088 14.9792 38.7796 14.9792 38.7796L19.2584 31.0421C19.4375 30.7171 19.3167 30.313 18.9917 30.1338Z" fill="#424242"/>
<path d="M30.9625 29.9788C30.6375 30.1538 30.5166 30.5621 30.6958 30.8871L35.0041 38.7746C35.0041 38.7746 35.1875 38.4829 35.5 38.2788C35.8125 38.0746 36.1083 38.0038 36.1083 38.0038L31.8708 30.2454C31.6916 29.9246 31.2875 29.8038 30.9625 29.9788V29.9788Z" fill="#424242"/>
<path d="M34.525 18.9063C34.5459 19.2604 34.8417 19.5354 35.1917 19.5354H35.2334L42.2667 19.0854C42.2667 19.0854 42.0417 18.6813 41.9375 18.3688C41.8375 18.0563 41.8084 17.7812 41.8084 17.7812L35.1459 18.1979C34.7834 18.2188 34.5 18.5354 34.525 18.9063V18.9063Z" fill="#4E4545"/>
<path d="M25.0874 11.951C25.4583 11.951 25.7583 11.651 25.7583 11.2802V5.98438C25.7583 5.98438 25.3624 6.08021 25.0583 6.09271C24.7541 6.10521 24.4208 6.03021 24.4208 6.03021V11.2802C24.4208 11.651 24.7166 11.951 25.0874 11.951V11.951Z" fill="#4E4545"/>
<path d="M14.7833 19.573H14.8291C15.1791 19.573 15.475 19.3022 15.4958 18.948C15.5208 18.5772 15.2416 18.2605 14.8708 18.2355L8.15829 17.748C8.15829 17.748 8.14996 18.2147 8.03746 18.473C7.94579 18.6814 7.67496 19.0439 7.67496 19.0439L14.7833 19.573Z" fill="#4E4545"/>
<path d="M18.1209 30.2676L14.6084 19.4509C14.4417 18.9342 14.6251 18.3676 15.0626 18.0509L24.2626 11.3676C24.7001 11.0467 25.2959 11.0467 25.7334 11.3676L34.9334 18.0509C35.3709 18.3717 35.5542 18.9342 35.3876 19.4509L31.8751 30.2676C31.7084 30.7842 31.2251 31.1342 30.6834 31.1342H19.3126C18.7709 31.1342 18.2917 30.7842 18.1209 30.2676Z" fill="url(#paint3_linear_1029_1626)"/>
<defs>
<linearGradient id="paint0_linear_1029_1626" x1="0" y1="25" x2="50" y2="25" gradientUnits="userSpaceOnUse">
<stop offset="0.6333" stop-color="#424242"/>
<stop offset="1" stop-color="#655C5A"/>
</linearGradient>
<radialGradient id="paint1_radial_1029_1626" cx="0" cy="0" r="1" gradientUnits="userSpaceOnUse" gradientTransform="translate(25.149 25.932) scale(25.8173 25.7166)">
<stop offset="0.7992" stop-color="#655C5A" stop-opacity="0"/>
<stop offset="0.9674" stop-color="#655C5A"/>
</radialGradient>
<radialGradient id="paint2_radial_1029_1626" cx="0" cy="0" r="1" gradientUnits="userSpaceOnUse" gradientTransform="translate(25.5687 22.0266) scale(23.9968)">
<stop offset="0.6026" stop-color="#FCFCFC"/>
<stop offset="1" stop-color="#E3E1DB"/>
</radialGradient>
<linearGradient id="paint3_linear_1029_1626" x1="25.0001" y1="28.039" x2="25.0001" y2="13.171" gradientUnits="userSpaceOnUse">
<stop offset="0.2127" stop-color="#424242"/>
<stop offset="0.8635" stop-color="#655C5A"/>
</linearGradient>
</defs>
</svg>
