<svg width="50" height="49" viewBox="0 0 50 49" fill="none" xmlns="http://www.w3.org/2000/svg">
<path d="M49.3695 23.1494L43.5 21.2575C39.7457 20.0187 37.5462 16.9807 36.5139 13.1632L33.9309 0.581474C33.8635 0.332873 33.6992 0 33.1936 0C32.768 0 32.5236 0.332873 32.4562 0.581474L29.8733 13.1674C28.8367 16.9849 26.6414 20.0229 22.8871 21.2617L17.0176 23.1536C16.1876 23.4233 16.1749 24.5947 17.0008 24.877L22.9124 26.9121C26.6541 28.1551 28.8367 31.1889 29.8733 34.9895L32.4604 47.4322C32.5278 47.6808 32.6669 48.1275 33.1978 48.1275C33.7582 48.1275 33.8677 47.6808 33.9351 47.4322L36.5223 34.9895C37.5588 31.1847 39.7415 28.1509 43.4831 26.9121L49.3948 24.877C50.2122 24.5904 50.1996 23.4191 49.3695 23.1494V23.1494Z" fill="#FDD835"/>
<path d="M49.9257 23.6765C49.833 23.4448 49.6518 23.2425 49.3695 23.1498L43.5 21.2579C39.7457 20.0191 37.5462 16.9812 36.5139 13.1637L33.931 0.58191C33.893 0.438649 33.7582 0.177407 33.6023 0.101562L34.4366 12.7297C35.056 18.4938 35.5869 21.2074 40.1881 21.9995C44.1405 22.6821 48.7122 23.4659 49.9257 23.6765V23.6765Z" fill="#FFEE58"/>
<path d="M49.9383 24.334L39.7583 26.6683C36.1725 27.5784 34.1964 29.6557 34.1964 35.0912L33.1978 48.1281C33.5391 48.0944 33.8171 47.909 33.9351 47.4328L36.5223 34.9901C37.5588 31.1853 39.7414 28.1515 43.4831 26.9127L49.3947 24.8775C49.6728 24.7764 49.8498 24.5699 49.9383 24.334V24.334Z" fill="#F4B400"/>
<path d="M15.7535 34.0972C12.2436 32.9385 11.9234 31.6323 11.3335 29.4286L9.86296 24.2711C9.77447 23.9383 8.90648 23.9383 8.81378 24.2711L7.81516 29.0367C7.22105 31.232 5.95697 32.9764 3.79962 33.6885L0.361342 35.1801C-0.114792 35.336 -0.123219 36.0102 0.352915 36.1703L3.81648 37.3964C5.9654 38.1085 7.22105 39.8529 7.81937 42.0398L8.81799 46.5989C8.91069 46.9318 9.77447 46.9318 9.86296 46.5989L11.0343 42.0609C11.6284 39.8614 12.5386 38.1127 15.4586 37.3964L18.7115 36.1703C19.1876 36.006 19.1834 35.3318 18.703 35.1759L15.7535 34.0972Z" fill="#FDD835"/>
<path d="M10.1411 29.352C10.4992 32.6639 10.6804 33.5825 13.3644 34.2693L18.9559 35.3606C18.8969 35.2805 18.8126 35.2131 18.6988 35.1794L15.7493 34.0965C12.6692 33.0431 11.8181 31.7032 11.2408 29.0234C10.6635 26.3435 10.0484 24.5949 10.0484 24.5949C9.83347 24.0176 9.52588 24.0471 9.52588 24.0471L10.1411 29.352Z" fill="#FFEE58"/>
<path d="M10.2423 40.9137C10.2423 37.7914 11.9488 36.245 14.6623 36.245L18.8843 36.0723C18.8843 36.0723 18.64 36.3967 18.2144 36.4978L15.4587 37.3953C13.1202 38.335 12.0541 38.8069 11.3294 42.005C11.3294 42.005 10.394 45.7256 10.217 46.1174C9.97262 46.6652 9.68188 46.779 9.68188 46.779L10.2423 40.9137Z" fill="#F4B400"/>
<path d="M23.3086 9.37433C23.5446 9.29427 23.5362 8.95719 23.296 8.88977L20.0431 8.01335C19.3605 7.82795 18.8296 7.30125 18.6358 6.62287L17.3548 1.33483C17.2916 1.0778 16.9251 1.0778 16.8619 1.33904L15.6568 6.60601C15.4714 7.30546 14.9236 7.8448 14.2242 8.02599L10.9923 8.86449C10.7522 8.92769 10.7353 9.26478 10.9713 9.34905L14.3801 10.5289C14.991 10.7395 15.463 11.2367 15.6483 11.8561L16.8661 16.7397C16.9293 16.9925 17.2916 16.9967 17.3548 16.7397L18.6147 11.8393C18.8043 11.2199 19.2805 10.7269 19.8956 10.5204L23.3086 9.37433Z" fill="#F4B400" stroke="#F4B400" stroke-width="2.15778" stroke-miterlimit="10"/>
</svg>
