<svg width="50" height="50" viewBox="0 0 50 50" fill="none" xmlns="http://www.w3.org/2000/svg">
<path d="M6.25 8.33203H7.91666V18.332H6.25V8.33203Z" fill="#BDBDBD"/>
<path d="M14.5833 8.33203H16.2499V18.332H14.5833V8.33203Z" fill="#BDBDBD"/>
<path d="M33.7498 8.33203H35.4164V18.332H33.7498V8.33203Z" fill="#BDBDBD"/>
<path d="M42.083 8.33203H43.7497V18.332H42.083V8.33203Z" fill="#BDBDBD"/>
<path d="M49.9998 22.4993C49.9998 16.516 38.8082 11.666 24.9999 11.666C11.1916 11.666 0 16.516 0 22.4993C0 22.5951 0.0124999 22.691 0.0166666 22.7868H0L0.904164 34.3034L48.954 32.1201L49.9998 22.7868H49.9832C49.9873 22.691 49.9998 22.5951 49.9998 22.4993V22.4993Z" fill="url(#paint0_linear_1029_2508)"/>
<g opacity="0.2">
<path d="M7.5 8.7487V17.9153H6.66667V8.7487H7.5ZM7.91666 8.33203H6.25V18.332H7.91666V8.33203Z" fill="#424242"/>
<path d="M15.8332 8.7487V17.9153H14.9999V8.7487H15.8332ZM16.2499 8.33203H14.5833V18.332H16.2499V8.33203Z" fill="#424242"/>
</g>
<g opacity="0.2">
<path d="M34.9998 8.7487V17.9153H34.1664V8.7487H34.9998ZM35.4164 8.33203H33.7498V18.332H35.4164V8.33203Z" fill="#424242"/>
<path d="M43.333 8.7487V17.9153H42.4997V8.7487H43.333ZM43.7497 8.33203H42.083V18.332H43.7497V8.33203Z" fill="#424242"/>
</g>
<path d="M24.9664 33.7037C37.8715 33.7037 48.333 28.8535 48.333 22.8704C48.333 16.8873 37.8715 12.0371 24.9664 12.0371C12.0614 12.0371 1.59985 16.8873 1.59985 22.8704C1.59985 28.8535 12.0614 33.7037 24.9664 33.7037Z" fill="url(#paint1_linear_1029_2508)"/>
<path d="M13.2708 13.7035C13.2708 13.7035 12.7499 13.391 8.26245 15.3702L23.2832 25.3702H24.9541L13.2708 13.7035Z" fill="url(#paint2_linear_1029_2508)"/>
<path d="M36.6125 13.6879C36.6125 13.6879 37.1333 13.3754 41.6208 15.3546L26.6 25.3546H24.9292L36.6125 13.6879Z" fill="url(#paint3_linear_1029_2508)"/>
<path d="M24.929 40.3548C35.0542 40.3548 43.2623 36.2507 43.2623 31.1881C43.2623 26.1255 35.0542 22.0215 24.929 22.0215C14.8038 22.0215 6.5957 26.1255 6.5957 31.1881C6.5957 36.2507 14.8038 40.3548 24.929 40.3548Z" fill="#E0E0E0"/>
<path d="M24.9668 38.705C34.1853 38.705 41.6584 35.3472 41.6584 31.2051C41.6584 27.0629 34.1853 23.7051 24.9668 23.7051C15.7482 23.7051 8.27515 27.0629 8.27515 31.2051C8.27515 35.3472 15.7482 38.705 24.9668 38.705Z" fill="url(#paint4_linear_1029_2508)"/>
<path d="M24.7915 23.7051H25.2082V34.605H24.7915V23.7051Z" fill="#FAFAFA"/>
<path d="M13.3584 32.9875H12.9417V28.5417H9.3584C9.3584 28.5417 9.49173 28.3708 9.52923 28.3333C9.6709 28.1875 9.73756 28.125 9.73756 28.125H13.3584V32.9875Z" fill="#FAFAFA"/>
<path d="M36.6333 32.9911H37.05V28.5495H40.575C40.575 28.5495 40.4416 28.3786 40.4041 28.3411C40.2625 28.1953 40.1958 28.1328 40.1958 28.1328H36.6292V32.9911H36.6333Z" fill="#FAFAFA"/>
<path d="M18.2168 33.6465C18.1751 33.434 18.1418 33.2173 18.1418 32.9923C18.1418 30.3798 21.2168 28.2506 25.0001 28.2506C28.7834 28.2506 31.8584 30.3756 31.8584 32.9923C31.8584 33.2131 31.8292 33.4298 31.7834 33.6465H32.2084C32.2459 33.434 32.2751 33.2131 32.2751 32.9923C32.2751 30.1506 29.0126 27.834 25.0001 27.834C20.9876 27.834 17.7251 30.1465 17.7251 32.9923C17.7251 33.2131 17.7501 33.4298 17.7918 33.6465H18.2168Z" fill="#FAFAFA"/>
<path opacity="0.5" d="M24.9999 42.112C14.2375 42.1036 3.94165 38.1328 0 33.9453V35.637C4.47499 39.5411 14.1916 43.3244 24.9999 43.3328C35.8082 43.3244 45.5249 39.5411 49.9998 35.637V33.9453C46.0582 38.1328 35.7624 42.1036 24.9999 42.112Z" fill="#E0E0E0"/>
<path d="M24.7915 23.7051H25.2082V34.605H24.7915V23.7051Z" fill="#FAFAFA"/>
<path d="M13.3584 32.9875H12.9417V28.5417H9.3584C9.3584 28.5417 9.49173 28.3708 9.52923 28.3333C9.6709 28.1875 9.73756 28.125 9.73756 28.125H13.3584V32.9875Z" fill="#FAFAFA"/>
<path d="M36.6333 32.9911H37.05V28.5495H40.575C40.575 28.5495 40.4416 28.3786 40.4041 28.3411C40.2625 28.1953 40.1958 28.1328 40.1958 28.1328H36.6292V32.9911H36.6333Z" fill="#FAFAFA"/>
<path d="M18.2168 33.6465C18.1751 33.434 18.1418 33.2173 18.1418 32.9923C18.1418 30.3798 21.2168 28.2506 25.0001 28.2506C28.7834 28.2506 31.8584 30.3756 31.8584 32.9923C31.8584 33.2131 31.8292 33.4298 31.7834 33.6465H32.2084C32.2459 33.434 32.2751 33.2131 32.2751 32.9923C32.2751 30.1506 29.0126 27.834 25.0001 27.834C20.9876 27.834 17.7251 30.1465 17.7251 32.9923C17.7251 33.2131 17.7501 33.4298 17.7918 33.6465H18.2168Z" fill="#FAFAFA"/>
<path opacity="0.5" d="M24.9999 42.112C14.2375 42.1036 3.94165 38.1328 0 33.9453V35.637C4.47499 39.5411 14.1916 43.3244 24.9999 43.3328C35.8082 43.3244 45.5249 39.5411 49.9998 35.637V33.9453C46.0582 38.1328 35.7624 42.1036 24.9999 42.112Z" fill="#E0E0E0"/>
<path d="M24.9458 33.7037C37.9751 33.7037 48.5374 28.8535 48.5374 22.8704C48.5374 16.8873 37.9751 12.0371 24.9458 12.0371C11.9166 12.0371 1.35425 16.8873 1.35425 22.8704C1.35425 28.8535 11.9166 33.7037 24.9458 33.7037Z" fill="url(#paint5_linear_1029_2508)"/>
<path d="M13.2708 13.7035C13.2708 13.7035 12.7499 13.391 8.26245 15.3702L23.2832 25.3702H24.9541L13.2708 13.7035Z" fill="url(#paint6_linear_1029_2508)"/>
<path d="M36.6125 13.6879C36.6125 13.6879 37.1333 13.3754 41.6208 15.3546L26.6 25.3546H24.9292L36.6125 13.6879Z" fill="url(#paint7_linear_1029_2508)"/>
<path d="M24.929 40.3548C35.0542 40.3548 43.2623 36.2507 43.2623 31.1881C43.2623 26.1255 35.0542 22.0215 24.929 22.0215C14.8038 22.0215 6.5957 26.1255 6.5957 31.1881C6.5957 36.2507 14.8038 40.3548 24.929 40.3548Z" fill="#EEEEEE"/>
<path d="M24.9668 38.705C34.1853 38.705 41.6584 35.3472 41.6584 31.2051C41.6584 27.0629 34.1853 23.7051 24.9668 23.7051C15.7482 23.7051 8.27515 27.0629 8.27515 31.2051C8.27515 35.3472 15.7482 38.705 24.9668 38.705Z" fill="url(#paint8_linear_1029_2508)"/>
<path d="M24.9668 38.705C34.1853 38.705 41.6584 35.3472 41.6584 31.2051C41.6584 27.0629 34.1853 23.7051 24.9668 23.7051C15.7482 23.7051 8.27515 27.0629 8.27515 31.2051C8.27515 35.3472 15.7482 38.705 24.9668 38.705Z" fill="url(#paint9_linear_1029_2508)"/>
<path d="M49.9207 23.3329C48.9374 28.9246 38.1457 33.3329 24.9666 33.3329C11.7875 33.3329 0.99583 28.9246 0.0125 23.3329L0 22.8704V39.9829C0.98333 45.5745 11.7875 49.9995 24.9666 49.9995C38.1457 49.9995 49.0165 45.5912 49.9998 39.9996V22.7871L49.9207 23.3329Z" fill="url(#paint10_linear_1029_2508)"/>
<path d="M0.0249999 22.9458C0.0124999 22.7958 0 22.65 0 22.5C0 22.65 0.0124999 22.7958 0.0249999 22.9458Z" fill="url(#paint11_linear_1029_2508)"/>
<path d="M49.9751 22.9458C49.9918 22.8 50.0001 22.65 50.0001 22.5C50.0001 22.65 49.9876 22.7958 49.9751 22.9458Z" fill="url(#paint12_linear_1029_2508)"/>
<path d="M24.7915 23.7051H25.2082V34.605H24.7915V23.7051Z" fill="#FAFAFA"/>
<path d="M13.3584 32.9875H12.9417V28.5417H9.3584C9.3584 28.5417 9.49173 28.3708 9.52923 28.3333C9.6709 28.1875 9.73756 28.125 9.73756 28.125H13.3584V32.9875Z" fill="#FAFAFA"/>
<path d="M36.6333 32.9911H37.05V28.5495H40.575C40.575 28.5495 40.4416 28.3786 40.4041 28.3411C40.2625 28.1953 40.1958 28.1328 40.1958 28.1328H36.6292V32.9911H36.6333Z" fill="#FAFAFA"/>
<path d="M18.2168 33.6465C18.1751 33.434 18.1418 33.2173 18.1418 32.9923C18.1418 30.3798 21.2168 28.2506 25.0001 28.2506C28.7834 28.2506 31.8584 30.3756 31.8584 32.9923C31.8584 33.2131 31.8292 33.4298 31.7834 33.6465H32.2084C32.2459 33.434 32.2751 33.2131 32.2751 32.9923C32.2751 30.1506 29.0126 27.834 25.0001 27.834C20.9876 27.834 17.7251 30.1465 17.7251 32.9923C17.7251 33.2131 17.7501 33.4298 17.7918 33.6465H18.2168Z" fill="#FAFAFA"/>
<path opacity="0.2" d="M24.9668 23.7051C15.7501 23.7051 8.27515 27.0634 8.27515 31.2051C8.27515 31.2676 8.28348 31.3301 8.28765 31.3884H9.12514C9.12098 31.3259 9.11264 31.2634 9.11264 31.2051C9.11264 27.9842 15.4835 24.5384 24.9709 24.5384C34.4542 24.5384 40.8292 27.9842 40.8292 31.2051C40.8292 31.4051 40.8042 31.6051 40.7542 31.8051H41.6042C41.6375 31.6051 41.6625 31.4051 41.6625 31.2051C41.6542 27.0634 34.1834 23.7051 24.9668 23.7051V23.7051Z" fill="#424242"/>
<path d="M24.9999 11.6992C11.1916 11.6992 0 16.5492 0 22.5325C0 25.7783 3.29582 28.6867 8.50831 30.67C4.09999 28.7033 1.35416 25.9533 1.35416 22.9034C1.35416 16.92 11.9166 12.0701 24.9458 12.0701C37.9749 12.0701 48.5374 16.92 48.5374 22.9034C48.5374 26.0867 45.5499 28.945 40.7915 30.9283C46.4124 28.945 49.9998 25.92 49.9998 22.5325C49.9998 16.5492 38.8082 11.6992 24.9999 11.6992V11.6992Z" fill="url(#paint13_linear_1029_2508)"/>
<g opacity="0.2">
<path d="M48.7499 27.7496V39.8829C47.8665 44.1662 38.5874 48.7495 24.9666 48.7495C11.3875 48.7495 2.13333 44.1579 1.25 39.8621V27.8163C2.72916 29.2496 4.82498 30.5329 7.44998 31.5871C12.2375 33.5204 18.4583 34.5829 24.9666 34.5829C31.4749 34.5829 37.6957 33.5204 42.4832 31.5912C45.1457 30.5163 47.2665 29.2079 48.7499 27.7496ZM49.9998 22.7871L49.9207 23.3329C48.9374 28.9246 38.1457 33.3329 24.9666 33.3329C11.7875 33.3329 0.99583 28.9246 0.0125 23.3329L0 22.8704V39.9829C0.98333 45.5745 11.7875 49.9995 24.9666 49.9995C38.1457 49.9995 49.0165 45.5912 49.9998 39.9996V22.7871Z" fill="#424242"/>
<path d="M0 22.5039C0 22.6539 0.00833328 22.7997 0.0249999 22.9456C0.0124999 22.7956 0 22.6497 0 22.5039V22.5039Z" fill="#424242"/>
<path d="M50.0001 22.5039C50.0001 22.6539 49.9876 22.7997 49.9751 22.9456C49.9918 22.7956 50.0001 22.6497 50.0001 22.5039Z" fill="#424242"/>
</g>
<path opacity="0.5" d="M24.9999 44.1959C14.2375 44.1876 3.94165 40.2168 0 36.0293V37.721C4.47499 41.6209 14.1916 45.4084 24.9999 45.4168C35.8082 45.4084 45.5249 41.6251 49.9998 37.721V36.0293C46.0582 40.2168 35.7624 44.1876 24.9999 44.1959Z" fill="#BDBDBD"/>
<path opacity="0.5" d="M24.9999 39.3092C14.2375 39.3009 3.94165 35.3301 0 31.1426V32.8342C4.47499 36.7342 14.1916 40.5217 24.9999 40.53C35.8082 40.5217 45.5249 36.7384 49.9998 32.8342V31.1426C46.0582 35.3301 35.7624 39.3009 24.9999 39.3092Z" fill="#BDBDBD"/>
<path d="M49.9207 23.3342C48.9374 28.9259 38.1457 33.3342 24.9666 33.3342C11.8041 33.3342 1.02083 28.9384 0.0166666 23.3551L0 22.8717V24.0259V24.1634C0 30.1467 11.1375 34.9967 24.9666 34.9967C38.7749 34.9967 49.9707 30.1592 49.9998 24.1842V22.7051C50.004 22.7634 49.9207 23.3384 49.9207 23.3342V23.3342Z" fill="url(#paint14_radial_1029_2508)"/>
<path d="M30 49.7798C30 49.7798 27.2041 50.0048 24.9667 50.0006C21.075 49.9881 20 49.7881 20 49.7881V43.334C20 40.5715 22.2375 38.334 25 38.334C27.7625 38.334 30 40.5715 30 43.334V49.7798Z" fill="#455A64"/>
<path d="M47.9165 37.7376H47.0832C46.854 37.7376 46.6665 37.5501 46.6665 37.321V34.821C46.6665 34.5918 46.854 34.4043 47.0832 34.4043H47.9165C48.1457 34.4043 48.3332 34.5918 48.3332 34.821V37.321C48.3332 37.5501 48.1457 37.7376 47.9165 37.7376Z" fill="#546E7A"/>
<path d="M43.4707 40.3411H42.6374C42.4082 40.3411 42.2207 40.1536 42.2207 39.9245V37.4245C42.2207 37.1953 42.4082 37.0078 42.6374 37.0078H43.4707C43.6999 37.0078 43.8874 37.1953 43.8874 37.4245V39.9245C43.8874 40.1536 43.704 40.3411 43.4707 40.3411Z" fill="#546E7A"/>
<path d="M39.029 41.8704H38.1957C37.9666 41.8704 37.7791 41.6829 37.7791 41.4538V38.9538C37.7791 38.7246 37.9666 38.5371 38.1957 38.5371H39.029C39.2582 38.5371 39.4457 38.7246 39.4457 38.9538V41.4538C39.4457 41.6829 39.2582 41.8704 39.029 41.8704Z" fill="#546E7A"/>
<path d="M34.5832 42.9173H33.7499C33.5208 42.9173 33.3333 42.7298 33.3333 42.5006V40.0006C33.3333 39.7715 33.5208 39.584 33.7499 39.584H34.5832C34.8124 39.584 34.9999 39.7715 34.9999 40.0006V42.5006C34.9999 42.7298 34.8124 42.9173 34.5832 42.9173Z" fill="#546E7A"/>
<path d="M2.08341 37.7376H2.91674C3.14591 37.7376 3.33341 37.5501 3.33341 37.321V34.821C3.33341 34.5918 3.14591 34.4043 2.91674 34.4043H2.08341C1.85425 34.4043 1.66675 34.5918 1.66675 34.821V37.321C1.66675 37.5501 1.85425 37.7376 2.08341 37.7376Z" fill="#546E7A"/>
<path d="M6.52897 40.3411H7.3623C7.59147 40.3411 7.77897 40.1536 7.77897 39.9245V37.4245C7.77897 37.1953 7.59147 37.0078 7.3623 37.0078H6.52897C6.2998 37.0078 6.1123 37.1953 6.1123 37.4245V39.9245C6.1123 40.1536 6.29564 40.3411 6.52897 40.3411Z" fill="#546E7A"/>
<path d="M10.9709 41.8704H11.8042C12.0334 41.8704 12.2209 41.6829 12.2209 41.4538V38.9538C12.2209 38.7246 12.0334 38.5371 11.8042 38.5371H10.9709C10.7417 38.5371 10.5542 38.7246 10.5542 38.9538V41.4538C10.5542 41.6829 10.7417 41.8704 10.9709 41.8704Z" fill="#546E7A"/>
<path d="M15.4167 42.9173H16.25C16.4792 42.9173 16.6667 42.7298 16.6667 42.5006V40.0006C16.6667 39.7715 16.4792 39.584 16.25 39.584H15.4167C15.1875 39.584 15 39.7715 15 40.0006V42.5006C15 42.7298 15.1875 42.9173 15.4167 42.9173Z" fill="#546E7A"/>
<path d="M17.4999 9.16664H4.99991C4.07908 9.16664 3.33325 8.42081 3.33325 7.49998V1.66666C3.33325 0.745831 4.07908 0 4.99991 0H17.4999C18.4207 0 19.1665 0.745831 19.1665 1.66666V7.49998C19.1665 8.42081 18.4207 9.16664 17.4999 9.16664Z" fill="url(#paint15_linear_1029_2508)"/>
<path d="M6.25008 4.16666C7.05549 4.16666 7.70841 3.51374 7.70841 2.70833C7.70841 1.90292 7.05549 1.25 6.25008 1.25C5.44466 1.25 4.79175 1.90292 4.79175 2.70833C4.79175 3.51374 5.44466 4.16666 6.25008 4.16666Z" fill="#FFFF00"/>
<path d="M6.24991 1.45768C6.94158 1.45768 7.49991 2.01601 7.49991 2.70768C7.49991 3.39934 6.94158 3.95767 6.24991 3.95767C5.55825 3.95767 4.99992 3.39934 4.99992 2.70768C4.99992 2.01601 5.55825 1.45768 6.24991 1.45768ZM6.24991 1.04102C5.32908 1.04102 4.58325 1.78685 4.58325 2.70768C4.58325 3.62851 5.32908 4.37434 6.24991 4.37434C7.17074 4.37434 7.91658 3.62851 7.91658 2.70768C7.91658 1.78685 7.17074 1.04102 6.24991 1.04102Z" fill="#9E9E9E"/>
<path d="M6.25008 7.91666C7.05549 7.91666 7.70841 7.26374 7.70841 6.45833C7.70841 5.65292 7.05549 5 6.25008 5C5.44466 5 4.79175 5.65292 4.79175 6.45833C4.79175 7.26374 5.44466 7.91666 6.25008 7.91666Z" fill="#FFFF00"/>
<path d="M6.24991 5.20768C6.94158 5.20768 7.49991 5.76601 7.49991 6.45768C7.49991 7.14934 6.94158 7.70767 6.24991 7.70767C5.55825 7.70767 4.99992 7.14934 4.99992 6.45768C4.99992 5.76601 5.55825 5.20768 6.24991 5.20768ZM6.24991 4.79102C5.32908 4.79102 4.58325 5.53685 4.58325 6.45768C4.58325 7.37851 5.32908 8.12434 6.24991 8.12434C7.17074 8.12434 7.91658 7.37851 7.91658 6.45768C7.91658 5.53685 7.17074 4.79102 6.24991 4.79102Z" fill="#9E9E9E"/>
<path d="M9.58333 4.16666C10.3887 4.16666 11.0417 3.51374 11.0417 2.70833C11.0417 1.90292 10.3887 1.25 9.58333 1.25C8.77792 1.25 8.125 1.90292 8.125 2.70833C8.125 3.51374 8.77792 4.16666 9.58333 4.16666Z" fill="#FFFF00"/>
<path d="M9.58341 1.45768C10.2751 1.45768 10.8334 2.01601 10.8334 2.70768C10.8334 3.39934 10.2751 3.95767 9.58341 3.95767C8.89175 3.95767 8.33341 3.39934 8.33341 2.70768C8.33341 2.01601 8.89175 1.45768 9.58341 1.45768ZM9.58341 1.04102C8.66258 1.04102 7.91675 1.78685 7.91675 2.70768C7.91675 3.62851 8.66258 4.37434 9.58341 4.37434C10.5042 4.37434 11.2501 3.62851 11.2501 2.70768C11.2501 1.78685 10.5042 1.04102 9.58341 1.04102Z" fill="#9E9E9E"/>
<path d="M9.58333 7.91666C10.3887 7.91666 11.0417 7.26374 11.0417 6.45833C11.0417 5.65292 10.3887 5 9.58333 5C8.77792 5 8.125 5.65292 8.125 6.45833C8.125 7.26374 8.77792 7.91666 9.58333 7.91666Z" fill="#FFFF00"/>
<path d="M9.58341 5.20768C10.2751 5.20768 10.8334 5.76601 10.8334 6.45768C10.8334 7.14934 10.2751 7.70767 9.58341 7.70767C8.89175 7.70767 8.33341 7.14934 8.33341 6.45768C8.33341 5.76601 8.89175 5.20768 9.58341 5.20768ZM9.58341 4.79102C8.66258 4.79102 7.91675 5.53685 7.91675 6.45768C7.91675 7.37851 8.66258 8.12434 9.58341 8.12434C10.5042 8.12434 11.2501 7.37851 11.2501 6.45768C11.2501 5.53685 10.5042 4.79102 9.58341 4.79102Z" fill="#9E9E9E"/>
<path d="M12.9166 4.16666C13.722 4.16666 14.3749 3.51374 14.3749 2.70833C14.3749 1.90292 13.722 1.25 12.9166 1.25C12.1112 1.25 11.4583 1.90292 11.4583 2.70833C11.4583 3.51374 12.1112 4.16666 12.9166 4.16666Z" fill="#FFFF00"/>
<path d="M12.9167 1.45768C13.6083 1.45768 14.1667 2.01601 14.1667 2.70768C14.1667 3.39934 13.6083 3.95767 12.9167 3.95767C12.225 3.95767 11.6667 3.39934 11.6667 2.70768C11.6667 2.01601 12.225 1.45768 12.9167 1.45768ZM12.9167 1.04102C11.9958 1.04102 11.25 1.78685 11.25 2.70768C11.25 3.62851 11.9958 4.37434 12.9167 4.37434C13.8375 4.37434 14.5833 3.62851 14.5833 2.70768C14.5833 1.78685 13.8375 1.04102 12.9167 1.04102Z" fill="#9E9E9E"/>
<path d="M12.9166 7.91666C13.722 7.91666 14.3749 7.26374 14.3749 6.45833C14.3749 5.65292 13.722 5 12.9166 5C12.1112 5 11.4583 5.65292 11.4583 6.45833C11.4583 7.26374 12.1112 7.91666 12.9166 7.91666Z" fill="#FFFF00"/>
<path d="M12.9167 5.20768C13.6083 5.20768 14.1667 5.76601 14.1667 6.45768C14.1667 7.14934 13.6083 7.70767 12.9167 7.70767C12.225 7.70767 11.6667 7.14934 11.6667 6.45768C11.6667 5.76601 12.225 5.20768 12.9167 5.20768ZM12.9167 4.79102C11.9958 4.79102 11.25 5.53685 11.25 6.45768C11.25 7.37851 11.9958 8.12434 12.9167 8.12434C13.8375 8.12434 14.5833 7.37851 14.5833 6.45768C14.5833 5.53685 13.8375 4.79102 12.9167 4.79102Z" fill="#9E9E9E"/>
<path d="M16.2501 4.16666C17.0555 4.16666 17.7084 3.51374 17.7084 2.70833C17.7084 1.90292 17.0555 1.25 16.2501 1.25C15.4447 1.25 14.7917 1.90292 14.7917 2.70833C14.7917 3.51374 15.4447 4.16666 16.2501 4.16666Z" fill="#FFFF00"/>
<path d="M16.2499 1.45768C16.9416 1.45768 17.4999 2.01601 17.4999 2.70768C17.4999 3.39934 16.9416 3.95767 16.2499 3.95767C15.5582 3.95767 14.9999 3.39934 14.9999 2.70768C14.9999 2.01601 15.5582 1.45768 16.2499 1.45768ZM16.2499 1.04102C15.3291 1.04102 14.5833 1.78685 14.5833 2.70768C14.5833 3.62851 15.3291 4.37434 16.2499 4.37434C17.1707 4.37434 17.9166 3.62851 17.9166 2.70768C17.9166 1.78685 17.1707 1.04102 16.2499 1.04102Z" fill="#9E9E9E"/>
<path d="M16.2501 7.91666C17.0555 7.91666 17.7084 7.26374 17.7084 6.45833C17.7084 5.65292 17.0555 5 16.2501 5C15.4447 5 14.7917 5.65292 14.7917 6.45833C14.7917 7.26374 15.4447 7.91666 16.2501 7.91666Z" fill="#FFFF00"/>
<path d="M16.2499 5.20768C16.9416 5.20768 17.4999 5.76601 17.4999 6.45768C17.4999 7.14934 16.9416 7.70767 16.2499 7.70767C15.5582 7.70767 14.9999 7.14934 14.9999 6.45768C14.9999 5.76601 15.5582 5.20768 16.2499 5.20768ZM16.2499 4.79102C15.3291 4.79102 14.5833 5.53685 14.5833 6.45768C14.5833 7.37851 15.3291 8.12434 16.2499 8.12434C17.1707 8.12434 17.9166 7.37851 17.9166 6.45768C17.9166 5.53685 17.1707 4.79102 16.2499 4.79102Z" fill="#9E9E9E"/>
<path d="M44.9999 9.16664H32.4999C31.5791 9.16664 30.8333 8.42081 30.8333 7.49998V1.66666C30.8333 0.745831 31.5791 0 32.4999 0H44.9999C45.9207 0 46.6665 0.745831 46.6665 1.66666V7.49998C46.6665 8.42081 45.9207 9.16664 44.9999 9.16664Z" fill="url(#paint16_linear_1029_2508)"/>
<path d="M33.7498 4.16666C34.5552 4.16666 35.2082 3.51374 35.2082 2.70833C35.2082 1.90292 34.5552 1.25 33.7498 1.25C32.9444 1.25 32.2915 1.90292 32.2915 2.70833C32.2915 3.51374 32.9444 4.16666 33.7498 4.16666Z" fill="#FFFF00"/>
<path d="M33.7499 1.45768C34.4416 1.45768 34.9999 2.01601 34.9999 2.70768C34.9999 3.39934 34.4416 3.95767 33.7499 3.95767C33.0582 3.95767 32.4999 3.39934 32.4999 2.70768C32.4999 2.01601 33.0582 1.45768 33.7499 1.45768ZM33.7499 1.04102C32.8291 1.04102 32.0833 1.78685 32.0833 2.70768C32.0833 3.62851 32.8291 4.37434 33.7499 4.37434C34.6707 4.37434 35.4166 3.62851 35.4166 2.70768C35.4166 1.78685 34.6707 1.04102 33.7499 1.04102Z" fill="#9E9E9E"/>
<path d="M33.7498 7.91666C34.5552 7.91666 35.2082 7.26374 35.2082 6.45833C35.2082 5.65292 34.5552 5 33.7498 5C32.9444 5 32.2915 5.65292 32.2915 6.45833C32.2915 7.26374 32.9444 7.91666 33.7498 7.91666Z" fill="#FFFF00"/>
<path d="M33.7499 5.20768C34.4416 5.20768 34.9999 5.76601 34.9999 6.45768C34.9999 7.14934 34.4416 7.70767 33.7499 7.70767C33.0582 7.70767 32.4999 7.14934 32.4999 6.45768C32.4999 5.76601 33.0582 5.20768 33.7499 5.20768ZM33.7499 4.79102C32.8291 4.79102 32.0833 5.53685 32.0833 6.45768C32.0833 7.37851 32.8291 8.12434 33.7499 8.12434C34.6707 8.12434 35.4166 7.37851 35.4166 6.45768C35.4166 5.53685 34.6707 4.79102 33.7499 4.79102Z" fill="#9E9E9E"/>
<path d="M37.0833 4.16666C37.8887 4.16666 38.5417 3.51374 38.5417 2.70833C38.5417 1.90292 37.8887 1.25 37.0833 1.25C36.2779 1.25 35.625 1.90292 35.625 2.70833C35.625 3.51374 36.2779 4.16666 37.0833 4.16666Z" fill="#FFFF00"/>
<path d="M37.0832 1.45768C37.7748 1.45768 38.3332 2.01601 38.3332 2.70768C38.3332 3.39934 37.7748 3.95767 37.0832 3.95767C36.3915 3.95767 35.8332 3.39934 35.8332 2.70768C35.8332 2.01601 36.3915 1.45768 37.0832 1.45768ZM37.0832 1.04102C36.1623 1.04102 35.4165 1.78685 35.4165 2.70768C35.4165 3.62851 36.1623 4.37434 37.0832 4.37434C38.004 4.37434 38.7498 3.62851 38.7498 2.70768C38.7498 1.78685 38.004 1.04102 37.0832 1.04102Z" fill="#9E9E9E"/>
<path d="M37.0833 7.91666C37.8887 7.91666 38.5417 7.26374 38.5417 6.45833C38.5417 5.65292 37.8887 5 37.0833 5C36.2779 5 35.625 5.65292 35.625 6.45833C35.625 7.26374 36.2779 7.91666 37.0833 7.91666Z" fill="#FFFF00"/>
<path d="M37.0832 5.20768C37.7748 5.20768 38.3332 5.76601 38.3332 6.45768C38.3332 7.14934 37.7748 7.70767 37.0832 7.70767C36.3915 7.70767 35.8332 7.14934 35.8332 6.45768C35.8332 5.76601 36.3915 5.20768 37.0832 5.20768ZM37.0832 4.79102C36.1623 4.79102 35.4165 5.53685 35.4165 6.45768C35.4165 7.37851 36.1623 8.12434 37.0832 8.12434C38.004 8.12434 38.7498 7.37851 38.7498 6.45768C38.7498 5.53685 38.004 4.79102 37.0832 4.79102Z" fill="#9E9E9E"/>
<path d="M40.4166 4.16666C41.222 4.16666 41.8749 3.51374 41.8749 2.70833C41.8749 1.90292 41.222 1.25 40.4166 1.25C39.6112 1.25 38.9583 1.90292 38.9583 2.70833C38.9583 3.51374 39.6112 4.16666 40.4166 4.16666Z" fill="#FFFF00"/>
<path d="M40.4167 1.45768C41.1083 1.45768 41.6667 2.01601 41.6667 2.70768C41.6667 3.39934 41.1083 3.95767 40.4167 3.95767C39.725 3.95767 39.1667 3.39934 39.1667 2.70768C39.1667 2.01601 39.725 1.45768 40.4167 1.45768ZM40.4167 1.04102C39.4958 1.04102 38.75 1.78685 38.75 2.70768C38.75 3.62851 39.4958 4.37434 40.4167 4.37434C41.3375 4.37434 42.0833 3.62851 42.0833 2.70768C42.0833 1.78685 41.3375 1.04102 40.4167 1.04102Z" fill="#9E9E9E"/>
<path d="M40.4166 7.91666C41.222 7.91666 41.8749 7.26374 41.8749 6.45833C41.8749 5.65292 41.222 5 40.4166 5C39.6112 5 38.9583 5.65292 38.9583 6.45833C38.9583 7.26374 39.6112 7.91666 40.4166 7.91666Z" fill="#FFFF00"/>
<path d="M40.4167 5.20768C41.1083 5.20768 41.6667 5.76601 41.6667 6.45768C41.6667 7.14934 41.1083 7.70767 40.4167 7.70767C39.725 7.70767 39.1667 7.14934 39.1667 6.45768C39.1667 5.76601 39.725 5.20768 40.4167 5.20768ZM40.4167 4.79102C39.4958 4.79102 38.75 5.53685 38.75 6.45768C38.75 7.37851 39.4958 8.12434 40.4167 8.12434C41.3375 8.12434 42.0833 7.37851 42.0833 6.45768C42.0833 5.53685 41.3375 4.79102 40.4167 4.79102Z" fill="#9E9E9E"/>
<path d="M43.7498 4.16666C44.5552 4.16666 45.2082 3.51374 45.2082 2.70833C45.2082 1.90292 44.5552 1.25 43.7498 1.25C42.9444 1.25 42.2915 1.90292 42.2915 2.70833C42.2915 3.51374 42.9444 4.16666 43.7498 4.16666Z" fill="#FFFF00"/>
<path d="M43.7499 1.45768C44.4416 1.45768 44.9999 2.01601 44.9999 2.70768C44.9999 3.39934 44.4416 3.95767 43.7499 3.95767C43.0582 3.95767 42.4999 3.39934 42.4999 2.70768C42.4999 2.01601 43.0582 1.45768 43.7499 1.45768ZM43.7499 1.04102C42.8291 1.04102 42.0833 1.78685 42.0833 2.70768C42.0833 3.62851 42.8291 4.37434 43.7499 4.37434C44.6707 4.37434 45.4166 3.62851 45.4166 2.70768C45.4166 1.78685 44.6707 1.04102 43.7499 1.04102Z" fill="#9E9E9E"/>
<path d="M43.7498 7.91666C44.5552 7.91666 45.2082 7.26374 45.2082 6.45833C45.2082 5.65292 44.5552 5 43.7498 5C42.9444 5 42.2915 5.65292 42.2915 6.45833C42.2915 7.26374 42.9444 7.91666 43.7498 7.91666Z" fill="#FFFF00"/>
<path d="M43.7499 5.20768C44.4416 5.20768 44.9999 5.76601 44.9999 6.45768C44.9999 7.14934 44.4416 7.70767 43.7499 7.70767C43.0582 7.70767 42.4999 7.14934 42.4999 6.45768C42.4999 5.76601 43.0582 5.20768 43.7499 5.20768ZM43.7499 4.79102C42.8291 4.79102 42.0833 5.53685 42.0833 6.45768C42.0833 7.37851 42.8291 8.12434 43.7499 8.12434C44.6707 8.12434 45.4166 7.37851 45.4166 6.45768C45.4166 5.53685 44.6707 4.79102 43.7499 4.79102Z" fill="#9E9E9E"/>
<path opacity="0.2" d="M24.9997 39.1673C27.2956 39.1673 29.1664 41.0381 29.1664 43.334V49.0048C28.2081 49.0673 26.5122 49.1673 25.0581 49.1673H24.9664C22.7956 49.1631 21.5206 49.0923 20.8331 49.0381V43.334C20.8331 41.0381 22.7039 39.1673 24.9997 39.1673ZM24.9997 38.334C22.2372 38.334 19.9998 40.5715 19.9998 43.334V49.7881C19.9998 49.7881 21.0748 49.9923 24.9664 50.0006H25.0581C27.2831 50.0006 29.9997 49.7798 29.9997 49.7798V43.334C29.9997 40.5715 27.7622 38.334 24.9997 38.334Z" fill="#424242"/>
<path opacity="0.2" d="M47.9163 34.821V37.321H47.0829V34.821H47.9163ZM47.9163 34.4043H47.0829C46.8538 34.4043 46.6663 34.5918 46.6663 34.821V37.321C46.6663 37.5501 46.8538 37.7376 47.0829 37.7376H47.9163C48.1454 37.7376 48.3329 37.5501 48.3329 37.321V34.821C48.3329 34.5918 48.1454 34.4043 47.9163 34.4043Z" fill="#424242"/>
<path opacity="0.2" d="M43.4707 37.4245V39.9245H42.6374V37.4245H43.4707ZM43.4707 37.0078H42.6374C42.4082 37.0078 42.2207 37.1953 42.2207 37.4245V39.9245C42.2207 40.1536 42.4082 40.3411 42.6374 40.3411H43.4707C43.6999 40.3411 43.8874 40.1536 43.8874 39.9245V37.4245C43.8874 37.1953 43.704 37.0078 43.4707 37.0078Z" fill="#424242"/>
<path opacity="0.2" d="M39.029 38.9538V41.4538H38.1957V38.9538H39.029ZM39.029 38.5371H38.1957C37.9666 38.5371 37.7791 38.7246 37.7791 38.9538V41.4538C37.7791 41.6829 37.9666 41.8704 38.1957 41.8704H39.029C39.2582 41.8704 39.4457 41.6829 39.4457 41.4538V38.9538C39.4457 38.7204 39.2582 38.5371 39.029 38.5371Z" fill="#424242"/>
<path opacity="0.2" d="M34.583 40.0006V42.5006H33.7497V40.0006H34.583ZM34.583 39.584H33.7497C33.5205 39.584 33.333 39.7715 33.333 40.0006V42.5006C33.333 42.7298 33.5205 42.9173 33.7497 42.9173H34.583C34.8122 42.9173 34.9997 42.7298 34.9997 42.5006V40.0006C34.9997 39.7715 34.8122 39.584 34.583 39.584Z" fill="#424242"/>
<path opacity="0.2" d="M2.9165 34.821V37.321H2.08317V34.821H2.9165ZM2.9165 34.4043H2.08317C1.854 34.4043 1.6665 34.5918 1.6665 34.821V37.321C1.6665 37.5501 1.854 37.7376 2.08317 37.7376H2.9165C3.14567 37.7376 3.33317 37.5501 3.33317 37.321V34.821C3.33317 34.5918 3.14567 34.4043 2.9165 34.4043Z" fill="#424242"/>
<path opacity="0.2" d="M7.3623 37.4245V39.9245H6.52897V37.4245H7.3623ZM7.3623 37.0078H6.52897C6.2998 37.0078 6.1123 37.1953 6.1123 37.4245V39.9245C6.1123 40.1536 6.2998 40.3411 6.52897 40.3411H7.3623C7.59147 40.3411 7.77897 40.1536 7.77897 39.9245V37.4245C7.77897 37.1953 7.59147 37.0078 7.3623 37.0078Z" fill="#424242"/>
<path opacity="0.2" d="M11.8042 38.9538V41.4538H10.9709V38.9538H11.8042ZM11.8042 38.5371H10.9709C10.7417 38.5371 10.5542 38.7246 10.5542 38.9538V41.4538C10.5542 41.6829 10.7417 41.8704 10.9709 41.8704H11.8042C12.0334 41.8704 12.2209 41.6829 12.2209 41.4538V38.9538C12.2209 38.7204 12.0375 38.5371 11.8042 38.5371Z" fill="#424242"/>
<path opacity="0.2" d="M16.2498 40.0006V42.5006H15.4164V40.0006H16.2498ZM16.2498 39.584H15.4164C15.1873 39.584 14.9998 39.7715 14.9998 40.0006V42.5006C14.9998 42.7298 15.1873 42.9173 15.4164 42.9173H16.2498C16.4789 42.9173 16.6664 42.7298 16.6664 42.5006V40.0006C16.6664 39.7715 16.4789 39.584 16.2498 39.584Z" fill="#424242"/>
<path opacity="0.2" d="M17.4999 0.833331C17.9582 0.833331 18.3332 1.20833 18.3332 1.66666V7.49998C18.3332 7.95831 17.9582 8.33331 17.4999 8.33331H4.99991C4.54158 8.33331 4.16658 7.95831 4.16658 7.49998V1.66666C4.16658 1.20833 4.54158 0.833331 4.99991 0.833331H17.4999ZM17.4999 0H4.99991C4.07908 0 3.33325 0.745831 3.33325 1.66666V7.49998C3.33325 8.42081 4.07908 9.16664 4.99991 9.16664H17.4999C18.4207 9.16664 19.1665 8.42081 19.1665 7.49998V1.66666C19.1665 0.745831 18.4207 0 17.4999 0Z" fill="#424242"/>
<path opacity="0.2" d="M44.9999 0.833331C45.4582 0.833331 45.8332 1.20833 45.8332 1.66666V7.49998C45.8332 7.95831 45.4582 8.33331 44.9999 8.33331H32.4999C32.0416 8.33331 31.6666 7.95831 31.6666 7.49998V1.66666C31.6666 1.20833 32.0416 0.833331 32.4999 0.833331H44.9999ZM44.9999 0H32.4999C31.5791 0 30.8333 0.745831 30.8333 1.66666V7.49998C30.8333 8.42081 31.5791 9.16664 32.4999 9.16664H44.9999C45.9207 9.16664 46.6665 8.42081 46.6665 7.49998V1.66666C46.6665 0.745831 45.9207 0 44.9999 0Z" fill="#424242"/>
<defs>
<linearGradient id="paint0_linear_1029_2508" x1="24.9999" y1="11.666" x2="24.9999" y2="34.3047" gradientUnits="userSpaceOnUse">
<stop stop-color="#DD2C00"/>
<stop offset="0.0607" stop-color="#E03200"/>
<stop offset="0.451" stop-color="#F15200"/>
<stop offset="0.778" stop-color="#FB6600"/>
<stop offset="1" stop-color="#FF6D00"/>
</linearGradient>
<linearGradient id="paint1_linear_1029_2508" x1="24.9652" y1="26.1858" x2="24.9652" y2="10.8721" gradientUnits="userSpaceOnUse">
<stop stop-color="#DD2C00"/>
<stop offset="0.0607" stop-color="#E03200"/>
<stop offset="0.451" stop-color="#F15200"/>
<stop offset="0.778" stop-color="#FB6600"/>
<stop offset="1" stop-color="#FF6D00"/>
</linearGradient>
<linearGradient id="paint2_linear_1029_2508" x1="19.6541" y1="22.7735" x2="11.1124" y2="14.8569" gradientUnits="userSpaceOnUse">
<stop stop-color="#FFAB91"/>
<stop offset="1" stop-color="#FF7043"/>
</linearGradient>
<linearGradient id="paint3_linear_1029_2508" x1="31.5246" y1="22.6291" x2="37.7746" y2="14.5042" gradientUnits="userSpaceOnUse">
<stop stop-color="#FFAB91"/>
<stop offset="1" stop-color="#FF7043"/>
</linearGradient>
<linearGradient id="paint4_linear_1029_2508" x1="24.9655" y1="24.2372" x2="24.9655" y2="32.343" gradientUnits="userSpaceOnUse">
<stop stop-color="#C6FF00"/>
<stop offset="0.4064" stop-color="#C1FA00"/>
<stop offset="0.9047" stop-color="#B2ED00"/>
<stop offset="1" stop-color="#AEEA00"/>
</linearGradient>
<linearGradient id="paint5_linear_1029_2508" x1="24.9467" y1="26.1858" x2="24.9467" y2="10.8721" gradientUnits="userSpaceOnUse">
<stop stop-color="#DD2C00"/>
<stop offset="0.0607" stop-color="#E03200"/>
<stop offset="0.451" stop-color="#F15200"/>
<stop offset="0.778" stop-color="#FB6600"/>
<stop offset="1" stop-color="#FF6D00"/>
</linearGradient>
<linearGradient id="paint6_linear_1029_2508" x1="19.6541" y1="22.7735" x2="11.1124" y2="14.8569" gradientUnits="userSpaceOnUse">
<stop stop-color="#FFAB91"/>
<stop offset="1" stop-color="#FF7043"/>
</linearGradient>
<linearGradient id="paint7_linear_1029_2508" x1="31.5246" y1="22.6291" x2="37.7746" y2="14.5042" gradientUnits="userSpaceOnUse">
<stop stop-color="#FFAB91"/>
<stop offset="1" stop-color="#FF7043"/>
</linearGradient>
<linearGradient id="paint8_linear_1029_2508" x1="24.9655" y1="24.2372" x2="24.9655" y2="32.343" gradientUnits="userSpaceOnUse">
<stop stop-color="#C6FF00"/>
<stop offset="0.4064" stop-color="#C1FA00"/>
<stop offset="0.9047" stop-color="#B2ED00"/>
<stop offset="1" stop-color="#AEEA00"/>
</linearGradient>
<linearGradient id="paint9_linear_1029_2508" x1="24.9655" y1="34.8488" x2="24.9655" y2="26.3913" gradientUnits="userSpaceOnUse">
<stop stop-color="#D4E157"/>
<stop offset="1" stop-color="#D4E157" stop-opacity="0"/>
</linearGradient>
<linearGradient id="paint10_linear_1029_2508" x1="24.9999" y1="24.2771" x2="24.9999" y2="52.6912" gradientUnits="userSpaceOnUse">
<stop stop-color="#E0E0E0"/>
<stop offset="0.2232" stop-color="#D8D8D8"/>
<stop offset="0.5696" stop-color="#C2C2C2"/>
<stop offset="0.994" stop-color="#9F9F9F"/>
<stop offset="1" stop-color="#9E9E9E"/>
</linearGradient>
<linearGradient id="paint11_linear_1029_2508" x1="0.0135003" y1="24.7917" x2="0.0135003" y2="52.6374" gradientUnits="userSpaceOnUse">
<stop stop-color="#E0E0E0"/>
<stop offset="0.2232" stop-color="#D8D8D8"/>
<stop offset="0.5696" stop-color="#C2C2C2"/>
<stop offset="0.994" stop-color="#9F9F9F"/>
<stop offset="1" stop-color="#9E9E9E"/>
</linearGradient>
<linearGradient id="paint12_linear_1029_2508" x1="49.9876" y1="24.7917" x2="49.9876" y2="52.6374" gradientUnits="userSpaceOnUse">
<stop stop-color="#E0E0E0"/>
<stop offset="0.2232" stop-color="#D8D8D8"/>
<stop offset="0.5696" stop-color="#C2C2C2"/>
<stop offset="0.994" stop-color="#9F9F9F"/>
<stop offset="1" stop-color="#9E9E9E"/>
</linearGradient>
<linearGradient id="paint13_linear_1029_2508" x1="24.9999" y1="11.7005" x2="24.9999" y2="30.9304" gradientUnits="userSpaceOnUse">
<stop stop-color="#DD2C00"/>
<stop offset="0.0704" stop-color="#E03306"/>
<stop offset="0.4566" stop-color="#F15326"/>
<stop offset="0.7803" stop-color="#FB6739"/>
<stop offset="1" stop-color="#FF6E40"/>
</linearGradient>
<radialGradient id="paint14_radial_1029_2508" cx="0" cy="0" r="1" gradientUnits="userSpaceOnUse" gradientTransform="translate(24.9999 28.8563) scale(18.2037 18.2037)">
<stop stop-color="#FF6E40"/>
<stop offset="0.4889" stop-color="#FE6C3E"/>
<stop offset="0.665" stop-color="#FB6538"/>
<stop offset="0.7905" stop-color="#F45A2C"/>
<stop offset="0.892" stop-color="#EC491C"/>
<stop offset="0.9779" stop-color="#E13307"/>
<stop offset="1" stop-color="#DD2C00"/>
</radialGradient>
<linearGradient id="paint15_linear_1029_2508" x1="11.2499" y1="0.15625" x2="11.2499" y2="9.96789" gradientUnits="userSpaceOnUse">
<stop stop-color="#9E9E9E"/>
<stop offset="1" stop-color="#616161"/>
</linearGradient>
<linearGradient id="paint16_linear_1029_2508" x1="38.7499" y1="0.15625" x2="38.7499" y2="9.96789" gradientUnits="userSpaceOnUse">
<stop stop-color="#9E9E9E"/>
<stop offset="1" stop-color="#616161"/>
</linearGradient>
</defs>
</svg>
