<svg width="50" height="49" viewBox="0 0 50 49" fill="none" xmlns="http://www.w3.org/2000/svg">
<path d="M25 48.1896C12.9741 48.1896 0 40.6465 0 24.0948C0 7.5431 12.9741 0 25 0C31.681 0 37.8448 2.19827 42.4138 6.20689C47.3707 10.6034 50 16.8103 50 24.0948C50 31.3793 47.3707 37.5431 42.4138 41.9396C37.8448 45.9483 31.6379 48.1896 25 48.1896Z" fill="url(#paint0_radial_1029_1360)"/>
<path d="M45.6423 9.77148C47.9397 13.4784 49.1379 17.8922 49.1379 22.8016C49.1379 30.0861 46.5086 36.2499 41.5517 40.6465C36.9828 44.6551 30.7759 46.8965 24.138 46.8965C16.3535 46.8965 8.18969 43.7284 3.37073 37.0085C8.00866 44.6206 16.7328 48.1896 25 48.1896C31.638 48.1896 37.8448 45.9482 42.4138 41.9396C47.3707 37.543 50 31.3792 50 24.0948C50 18.6034 48.5043 13.7241 45.6423 9.77148V9.77148Z" fill="#EB8F00"/>
<path d="M38.931 4.36637L35.4568 8.97843C35.2844 9.20257 35.0172 9.33188 34.7327 9.31895L28.9654 9.07326C28.4913 9.05171 28.0861 9.4224 28.0646 9.89653C28.056 10.0862 28.112 10.2715 28.2198 10.4267L31.5344 15.1681C31.6939 15.3965 31.7327 15.6853 31.6379 15.9483L29.6206 21.362C29.4568 21.8103 29.6853 22.306 30.1292 22.4698C30.306 22.5345 30.4956 22.5388 30.6767 22.487L36.1982 20.7974C36.4698 20.7155 36.7629 20.7715 36.987 20.9483L41.5085 24.5388C41.8835 24.8319 42.4223 24.7715 42.7198 24.3965C42.8361 24.2457 42.9008 24.0646 42.9051 23.875L43.0042 18.1034C43.0085 17.8189 43.1551 17.556 43.3922 17.4008L48.2025 14.2241C48.5991 13.9612 48.7111 13.4267 48.4482 13.0302C48.3447 12.8707 48.1896 12.75 48.0085 12.6896L42.5473 10.8103C42.2715 10.7198 42.0603 10.4957 41.9827 10.2155L40.4482 4.65085C40.3189 4.19395 39.8404 3.92671 39.3835 4.05602C39.2025 4.10775 39.043 4.2155 38.931 4.36637Z" fill="url(#paint1_radial_1029_1360)"/>
<path d="M40.6077 4.26366L41.9008 10.2637C42 10.7249 42.3405 11.0955 42.7931 11.2292L48.5603 12.9533C48.9913 13.1085 49.2155 13.5826 49.0603 14.0136C49 14.1861 48.8836 14.3283 48.7284 14.4274L43.556 17.2378C43.1207 17.4576 42.8448 17.9059 42.8448 18.393L42.8965 24.6817C42.8836 25.1343 42.5043 25.4921 42.0474 25.4792C41.8664 25.4749 41.6896 25.4102 41.5517 25.2938L37.0345 21.2378C36.6853 20.9188 36.1896 20.8197 35.7414 20.9749L30.0086 22.9274C29.5689 23.0524 29.112 22.7981 28.9827 22.3585C28.931 22.1861 28.9396 22.0007 29.0086 21.8326L31.5345 16.0697C31.7241 15.63 31.6595 15.1257 31.362 14.7507L27.6939 10.1257C27.4396 9.7421 27.5431 9.22917 27.9224 8.97055C28.0689 8.87141 28.2457 8.824 28.4267 8.83262L34.4138 9.51365C34.8836 9.56538 35.3405 9.35848 35.612 8.97486L39.1551 3.96624C39.4353 3.60417 39.9569 3.53952 40.3146 3.824C40.4612 3.93607 40.5603 4.08693 40.6077 4.26366V4.26366Z" fill="#F44336"/>
<path d="M39.237 10.0599L39.6681 5.92195C39.6982 5.6935 39.7327 5.29695 40.0991 5.37023C40.3879 5.43057 40.4181 6.05557 40.4181 6.05557L40.9784 9.56419C41.1853 10.8961 40.9094 11.2883 40.4094 11.4435C39.8276 11.6375 39.1163 11.2452 39.237 10.0599V10.0599Z" fill="#FF847A"/>
<path d="M43.125 16.8102L47.2069 14.7886C47.4095 14.6765 47.7716 14.5084 47.5776 14.1938C47.4181 13.9481 46.819 14.1334 46.819 14.1334L43.4957 14.7067C42.513 14.836 41.8061 15.1809 41.6293 15.7628C41.4009 16.5128 41.9828 17.2671 43.125 16.8102Z" fill="#C62828"/>
<path d="M11.5947 3.23353L15.043 8.29387C15.3103 8.68181 15.7628 8.89301 16.2327 8.84991L22.2327 8.25939C22.6896 8.24646 23.0732 8.60422 23.0861 9.06112C23.0904 9.23784 23.043 9.41025 22.9439 9.55249L19.224 14.1344C18.9223 14.5051 18.849 15.0094 19.0344 15.449L21.4697 21.2465C21.6292 21.6732 21.4137 22.1516 20.987 22.3111C20.8146 22.3758 20.6292 22.3801 20.4525 22.3283L14.7327 20.2896C14.2887 20.1301 13.793 20.2206 13.4396 20.5309L8.87923 24.518C8.52578 24.8025 8.00854 24.7465 7.71974 24.393C7.60337 24.2508 7.53871 24.0697 7.53871 23.8887L7.68095 17.5999C7.69388 17.1215 7.43957 16.6818 7.02578 16.4447L1.89647 13.5568C1.50854 13.324 1.37923 12.8154 1.6163 12.4275C1.71544 12.2594 1.87492 12.1301 2.06027 12.0697L7.85768 10.4232C8.30595 10.2982 8.65078 9.93612 8.76285 9.48353L10.1378 3.50508C10.2628 3.06543 10.7197 2.81112 11.1594 2.93612C11.3318 2.98353 11.487 3.09129 11.5947 3.23353Z" fill="#F44336"/>
<path d="M12.5258 9.11689L11.3448 5.12551C11.2887 4.90138 11.168 4.52207 11.5301 4.4531C11.8189 4.39707 12.0904 4.96603 12.0904 4.96603L13.9353 7.98327C14.6379 9.13844 14.5258 9.59965 14.1249 9.93586C13.7241 10.2721 12.862 10.2591 12.5258 9.11689V9.11689Z" fill="#FF847A"/>
<path d="M18.6811 13.8618L21.6983 10.4394C21.8449 10.2626 22.1293 9.96953 21.8104 9.75401C21.5733 9.5816 21.0905 9.98246 21.0905 9.98246L18.2328 11.7756C17.3707 12.2669 16.8492 12.8531 16.9095 13.4609C16.9828 14.2626 17.8018 14.7368 18.6811 13.8618V13.8618Z" fill="#C62828"/>
<path d="M41.5819 27.853C40.9785 26.7625 39.6681 26.284 38.5043 26.7237C34.0819 28.0125 29.4957 28.6547 24.888 28.6332C20.2802 28.6547 15.694 28.0125 11.2716 26.7237C10.1121 26.284 8.80176 26.7582 8.19831 27.8444C7.61211 28.9263 8.03452 30.1806 8.53021 31.2625C11.2974 37.34 17.3966 40.978 24.8535 40.9995H24.9224C32.3793 40.9995 38.4785 37.34 41.25 31.2625C41.7414 30.1719 42.1681 28.9349 41.5819 27.853V27.853Z" fill="#422B0D"/>
<path d="M31.7888 39.2844C31.6293 39.1378 31.4655 39.0042 31.3017 38.8533C29.5431 37.3059 27.2672 36.474 24.9224 36.5215C22.5086 36.4827 20.1595 37.2844 18.2759 38.793C18.1121 38.9266 17.9396 39.0559 17.7802 39.224C17.6207 39.3921 17.5345 39.5128 17.431 39.6551C19.8017 40.5818 22.3276 41.0559 24.875 41.043H24.944C27.3836 41.043 29.8017 40.6077 32.0862 39.7499C32 39.5861 31.9008 39.4309 31.7888 39.2844Z" fill="#ED7770"/>
<path d="M38.5043 26.7235C34.0819 28.0123 29.4957 28.6546 24.8879 28.633C20.2802 28.6546 15.694 28.0123 11.2715 26.7235C10.1121 26.2839 8.80172 26.758 8.19828 27.8442C8.11207 28.008 8.0431 28.1804 8 28.3572C8.14224 28.4304 8.30603 28.5037 8.5 28.5813C13.6897 31.1804 19.4267 32.4994 25.2284 32.4304C30.7931 32.4951 36.2931 31.2839 41.3189 28.8959C41.5215 28.8097 41.6896 28.7278 41.8405 28.6503C41.806 28.3701 41.7155 28.0942 41.5819 27.8442C40.9784 26.758 39.6681 26.2796 38.5043 26.7235V26.7235Z" fill="white"/>
<path d="M41.5992 27.8573C40.9871 26.7668 39.6724 26.284 38.5 26.7237C34.0776 28.0125 29.4914 28.6547 24.888 28.6332C20.2802 28.6547 15.694 28.0125 11.2716 26.7237C10.1121 26.284 8.80176 26.7582 8.19831 27.8444C7.61211 28.9263 8.03452 30.1806 8.53021 31.2625C8.75004 31.7495 8.99573 32.228 9.26728 32.6892C9.26728 32.6892 8.3621 29.3357 9.14659 28.3616C9.41383 27.9478 9.8621 27.6892 10.3535 27.6633C10.5561 27.6633 10.7543 27.6978 10.9483 27.7582C15.4483 29.0814 20.1164 29.7495 24.8104 29.7409H24.9612C29.6552 29.7495 34.3233 29.0814 38.8233 27.7582C39.0173 27.6978 39.2155 27.6633 39.4181 27.6633C39.9095 27.6892 40.3621 27.9478 40.6293 28.3616C41.4267 29.3357 40.5086 32.7021 40.5086 32.7021C40.7759 32.2409 41.0431 31.7668 41.2673 31.2754C41.7586 30.1935 42.1854 28.9435 41.5992 27.8573V27.8573Z" fill="#EB8F00"/>
<defs>
<radialGradient id="paint0_radial_1029_1360" cx="0" cy="0" r="1" gradientUnits="userSpaceOnUse" gradientTransform="translate(25 24.0948) scale(24.5516 24.5516)">
<stop offset="0.5" stop-color="#FDE030"/>
<stop offset="0.92" stop-color="#F7C02B"/>
<stop offset="1" stop-color="#F4A223"/>
</radialGradient>
<radialGradient id="paint1_radial_1029_1360" cx="0" cy="0" r="1" gradientUnits="userSpaceOnUse" gradientTransform="translate(38.3276 14.3741) scale(10.3064 10.3064)">
<stop offset="0.2" stop-color="#FF4081"/>
<stop offset="0.88" stop-color="#CC1775"/>
</radialGradient>
</defs>
</svg>
