<svg width="51" height="49" viewBox="0 0 51 49" fill="none" xmlns="http://www.w3.org/2000/svg">
<path d="M45.2876 24.1277C45.2755 24.1156 45.2594 24.1035 45.2473 24.0914C45.3521 23.6358 45.4207 22.9666 45.0014 22.5837C44.4169 22.0475 43.3324 22.1362 42.8769 22.628C42.8406 22.6683 42.8084 22.7127 42.7761 22.757C42.7076 22.8014 42.6471 22.8538 42.5947 22.9102C42.5141 22.9989 42.4536 23.0997 42.4053 23.2045C42.1392 23.2327 41.8973 23.3456 41.7159 23.5431C41.6837 23.5794 41.6595 23.6197 41.6312 23.66C41.5587 23.7084 41.4942 23.7608 41.4337 23.8253C40.9782 24.3212 41.087 25.1556 41.6716 25.6958C42.1271 26.111 42.7358 26.228 43.1954 26.0264C43.2438 26.0869 43.3002 26.1473 43.3607 26.2038C43.9452 26.7399 44.953 26.5384 45.4086 26.0425C45.4408 26.0062 45.469 25.97 45.4972 25.9337C45.5698 25.8813 45.6343 25.8248 45.6907 25.7644C46.1463 25.2604 45.8762 24.6638 45.2876 24.1277V24.1277Z" fill="#346A34"/>
<path d="M40.9622 22.8854C40.9461 22.8934 40.934 22.9055 40.9179 22.9176C40.5107 22.7201 39.9625 22.7644 39.5069 23.0748C38.874 23.5102 38.6563 24.2963 39.0232 24.8325C39.1401 25.0058 39.3054 25.1308 39.4989 25.2074C39.4102 25.5259 39.4465 25.8564 39.6319 26.1225C39.9987 26.6587 40.809 26.7393 41.446 26.3079C41.9378 25.9693 42.1797 25.4211 42.091 24.9454C42.1595 24.9131 42.228 24.8728 42.2925 24.8285C42.9255 24.3931 43.1431 23.607 42.7763 23.0708C42.4095 22.5306 41.5951 22.45 40.9622 22.8854V22.8854Z" fill="#568B3E"/>
<path d="M44.1267 22.4623C44.1146 22.4502 44.0985 22.4422 44.0823 22.4301C44.1509 21.9826 44.1347 21.3416 43.7034 20.999C43.1027 20.5193 42.2884 20.5394 41.8812 21.0474C41.7522 21.2126 41.4942 21.5351 41.4741 21.7407C41.1435 21.7488 40.8371 21.8818 40.6356 22.1358C40.2284 22.6437 40.3897 23.4419 40.9903 23.9217C41.458 24.2925 42.0506 24.3611 42.4819 24.1393C42.5343 24.1958 42.5908 24.2482 42.6512 24.2966C43.2519 24.7763 44.0662 24.7561 44.4734 24.2482C44.8886 23.7402 44.7314 22.9421 44.1267 22.4623V22.4623Z" fill="url(#paint0_linear_1029_2998)"/>
<path d="M25.1877 29.436C38.5462 29.436 49.3754 25.7956 49.3754 21.3049C49.3754 16.8142 38.5462 13.1738 25.1877 13.1738C11.8292 13.1738 1 16.8142 1 21.3049C1 25.7956 11.8292 29.436 25.1877 29.436Z" fill="url(#paint1_radial_1029_2998)"/>
<path d="M25.1716 48.2496C30.7376 48.2496 35.2498 46.7299 35.2498 44.8553C35.2498 42.9806 30.7376 41.4609 25.1716 41.4609C19.6055 41.4609 15.0934 42.9806 15.0934 44.8553C15.0934 46.7299 19.6055 48.2496 25.1716 48.2496Z" fill="url(#paint2_radial_1029_2998)"/>
<g opacity="0.2">
<path d="M25.1716 42.2731C31.1701 42.2731 34.4435 43.9823 34.4435 44.8611C34.4435 45.2723 33.7018 45.9375 32.0409 46.4978C30.2187 47.1066 27.7798 47.4452 25.1716 47.4452C19.173 47.4452 15.8996 45.7359 15.8996 44.8571C15.8996 44.4459 16.6414 43.7808 18.3023 43.2204C20.1244 42.6076 22.5633 42.2731 25.1716 42.2731ZM25.1716 41.4668C19.6044 41.4668 15.0934 42.9866 15.0934 44.8611C15.0934 46.7357 19.6044 48.2514 25.1716 48.2514C30.7388 48.2514 35.2498 46.7317 35.2498 44.8571C35.2498 42.9826 30.7388 41.4668 25.1716 41.4668Z" fill="#434343"/>
</g>
<path d="M25.1877 31.4578C37.0011 31.4578 46.5777 28.238 46.5777 24.266C46.5777 20.2941 37.0011 17.0742 25.1877 17.0742C13.3743 17.0742 3.7977 20.2941 3.7977 24.266C3.7977 28.238 13.3743 31.4578 25.1877 31.4578Z" fill="url(#paint3_radial_1029_2998)"/>
<path d="M10.3404 20.3448C18.5803 18.8089 29.4809 21.5462 34.6531 28.5566C34.8788 28.8629 35.6367 28.6573 35.3626 28.2824C29.9929 21.006 18.7174 18.1558 10.155 19.7522C9.63492 19.849 9.88889 20.4295 10.3404 20.3448V20.3448Z" fill="#FECC81"/>
<path d="M9.00195 21.4149C15.8551 20.0241 26.3445 22.1083 28.7633 29.7193C28.8802 30.0862 29.6784 30.0056 29.5454 29.5944C27.0057 21.6084 16.0204 19.3589 8.81248 20.8263C8.29647 20.9311 8.54641 21.5076 9.00195 21.4149V21.4149Z" fill="#FECC81"/>
<path d="M13.7307 19.4166C18.0804 18.6345 22.6962 19.0699 26.9734 20.0818C31.7465 21.2105 36.7896 23.3108 39.7082 27.4469C39.9421 27.7775 40.6475 27.3864 40.4178 27.0639C37.5878 23.0568 32.8873 20.9122 28.2715 19.6867C23.6597 18.4612 18.5722 17.917 13.8395 18.7676C13.4404 18.8361 13.2147 19.5093 13.7307 19.4166V19.4166Z" fill="#FECC81"/>
<path d="M16.0164 18.9722C24.7683 17.3033 36.7735 19.4358 42.6995 26.6357C42.9736 26.9703 43.5622 26.4382 43.3243 26.1439C37.2371 18.7425 25.0666 16.5414 16.0567 18.2587C15.6738 18.3313 15.5246 19.065 16.0164 18.9722V18.9722Z" fill="#FCB64E"/>
<path d="M15.3069 20.8086C10.2799 20.8892 5.46656 24.6666 5.38996 29.875C5.3819 30.3789 6.07528 30.0967 6.08334 29.7057C6.15591 24.9608 10.546 21.6108 15.1013 21.5383C15.4762 21.5342 15.7705 20.8046 15.3069 20.8086V20.8086Z" fill="#FECC81"/>
<path d="M19.7896 21.2946C15.2061 21.8509 7.34909 25.4589 7.61113 31.014C7.63532 31.5179 8.32063 31.2398 8.30451 30.8447C8.06263 25.7653 15.5769 22.512 19.7574 22.0081C20.1444 21.9598 20.2855 21.2341 19.7896 21.2946V21.2946Z" fill="#FECC81"/>
<path d="M22.6801 23.1836C17.9837 23.2481 10.3686 27.0053 10.6346 32.5201C10.6588 33.024 11.3441 32.7458 11.328 32.3507C11.0861 27.352 18.2094 23.9697 22.4745 23.9133C22.8534 23.9092 23.1437 23.1796 22.6801 23.1836Z" fill="#FECC81"/>
<path d="M24.8409 25.113C20.3218 25.6531 13.2308 28.9306 13.5009 34.3567C13.5251 34.8606 14.2144 34.5824 14.1943 34.1874C13.9403 29.2047 20.6766 26.3183 24.8087 25.8225C25.1957 25.7781 25.3368 25.0525 24.8409 25.113V25.113Z" fill="#FCB64E"/>
<path d="M27.0058 26.9723C22.4868 27.5125 15.3957 30.79 15.6658 36.2161C15.69 36.72 16.3794 36.4418 16.3592 36.0467C16.1093 31.0641 22.8455 28.1777 26.9776 27.6818C27.3646 27.6375 27.5057 26.9119 27.0058 26.9723Z" fill="#FCB64E"/>
<path d="M3.76541 24.2174C3.51144 23.4838 3.68881 22.7944 3.68881 22.7944C3.68881 22.7944 5.03526 21.1416 7.99019 20.8634C10.3485 20.6417 14.408 21.061 15.436 22.7017C15.6617 23.0605 15.3916 24.3263 15.1256 24.5803C13.1744 26.4185 11.7756 27.0192 8.1716 26.9184C5.10783 26.8337 4.47895 26.2815 3.76541 24.2174V24.2174Z" fill="#CDA997"/>
<path d="M3.67668 22.98C3.35418 21.5811 5.27307 20.3395 8.15544 20.1903C11.0378 20.0412 15.319 21.057 15.3916 22.476C15.4642 23.8951 11.3482 25.3826 8.48197 25.31C5.43029 25.2334 3.97097 24.2458 3.67668 22.98V22.98Z" fill="url(#paint4_radial_1029_2998)"/>
<path d="M5.5352 22.755C5.49085 21.8842 6.5148 21.1344 8.2805 21.0417C10.0462 20.949 11.6345 21.4811 11.6789 22.3519C11.7232 23.2226 10.2518 24.0893 8.48207 24.1821C6.71233 24.2748 5.57954 23.6257 5.5352 22.755Z" fill="url(#paint5_radial_1029_2998)"/>
<path d="M35.7376 17.1821C42.6311 19.746 34.25 23.8861 28.7957 23.7611C25.3893 23.6845 22.6601 22.9428 23.9219 21.169C25.3167 19.2139 32.7826 16.0856 35.7376 17.1821Z" fill="url(#paint6_radial_1029_2998)"/>
<path d="M35.7013 16.7988C42.5948 19.3627 34.2138 23.5028 28.7594 23.3779C25.353 23.3013 22.6238 22.5595 23.8856 20.7857C25.2764 18.8265 32.7464 15.6983 35.7013 16.7988Z" fill="url(#paint7_radial_1029_2998)"/>
<path d="M35.6329 17.1402C41.8935 19.4703 33.9438 23.0985 28.9853 22.9856C25.8893 22.9171 23.3576 22.4252 24.5025 20.8127C25.7683 19.0349 32.948 16.1405 35.6329 17.1402V17.1402Z" fill="url(#paint8_linear_1029_2998)"/>
<path d="M40.8735 19.6163C47.8718 21.8818 39.6762 26.3767 34.2178 26.4856C30.8114 26.5541 28.054 25.9293 29.2392 24.1031C30.5493 22.0915 37.8742 18.6447 40.8735 19.6163V19.6163Z" fill="url(#paint9_radial_1029_2998)"/>
<path d="M40.8211 19.2335C47.8194 21.499 39.6238 25.9939 34.1654 26.1028C30.759 26.1713 28.0016 25.5464 29.1868 23.7203C30.4929 21.7087 37.8218 18.2619 40.8211 19.2335Z" fill="url(#paint10_radial_1029_2998)"/>
<path d="M40.7646 19.5808C47.1179 21.6367 39.3295 25.6075 34.371 25.7043C31.275 25.7647 28.7232 25.3858 29.7995 23.7249C30.9928 21.8947 38.0435 18.6979 40.7646 19.5808V19.5808Z" fill="url(#paint11_linear_1029_2998)"/>
<path d="M43.8646 21.5255C50.9758 23.4041 43.0382 28.3424 37.596 28.7496C34.1976 29.0035 31.4079 28.5359 32.4924 26.6452C33.6897 24.5611 40.817 20.7193 43.8646 21.5255V21.5255Z" fill="url(#paint12_radial_1029_2998)"/>
<path d="M43.788 21.1436C50.8992 23.0222 42.9616 27.9605 37.5194 28.3677C34.121 28.6217 31.3314 28.154 32.4158 26.2634C33.6131 24.1832 40.7404 20.3414 43.788 21.1436V21.1436Z" fill="url(#paint13_radial_1029_2998)"/>
<path d="M43.7518 21.4941C50.2099 23.1994 42.6512 27.5894 37.7048 27.9603C34.6169 28.1941 32.0489 27.9523 33.0326 26.2349C34.121 24.3402 40.9823 20.7605 43.7518 21.4941Z" fill="url(#paint14_linear_1029_2998)"/>
<path d="M38.9385 18.0323C46.0497 19.9109 38.1121 24.8492 32.6699 25.2564C29.2715 25.5103 26.4819 25.0427 27.5663 23.152C28.7636 21.0719 35.8909 17.2301 38.9385 18.0323V18.0323Z" fill="url(#paint15_radial_1029_2998)"/>
<path d="M38.8659 17.6543C45.9771 19.5329 38.0395 24.4712 32.5972 24.8784C29.1989 25.1324 26.4092 24.6647 27.4936 22.7741C28.6909 20.6939 35.8182 16.8481 38.8659 17.6543V17.6543Z" fill="url(#paint16_radial_1029_2998)"/>
<path d="M38.8296 18.001C45.2877 19.7062 37.7291 24.0963 32.7827 24.4671C29.6947 24.701 27.1268 24.4591 28.1104 22.7418C29.1948 20.8511 36.0601 17.2713 38.8296 18.001Z" fill="url(#paint17_linear_1029_2998)"/>
<path opacity="0.5" d="M41.6758 19.9315C41.6758 19.9315 51.8507 23.3218 43.9978 26.5387C39.0353 28.5705 33.0166 31.1788 17.7541 29.663C14.6258 29.3526 6.50683 28.8608 9.09492 26.4501C11.683 24.0394 22.3054 20.1129 24.5388 19.8428C26.0465 19.6614 24.6879 21.0119 24.8048 21.6286C25.0185 22.7534 25.7683 23.2694 28.0178 22.6123C33.1939 21.0965 30.7913 23.0033 33.464 23.1484C40.156 23.5032 41.6758 19.9315 41.6758 19.9315V19.9315Z" fill="#F9A01B"/>
<path d="M44.1629 20.5996C50.8427 23.6755 42.1755 27.1706 36.7413 26.6345C33.351 26.2999 30.6863 25.3565 32.0771 23.6836C33.6171 21.8372 41.3007 19.2814 44.1629 20.5996Z" fill="url(#paint18_radial_1029_2998)"/>
<path d="M44.1548 20.2129C50.8347 23.2888 42.1674 26.7839 36.7333 26.2477C33.3429 25.9131 30.6783 24.9698 32.0691 23.2968C33.609 21.4505 41.2926 18.8947 44.1548 20.2129V20.2129Z" fill="url(#paint19_radial_1029_2998)"/>
<path d="M44.0621 20.5468C50.1292 23.3404 41.9255 26.3599 36.9912 25.8721C33.9113 25.5697 31.42 24.8884 32.6858 23.3646C34.0806 21.6916 41.4579 19.3495 44.0621 20.5468V20.5468Z" fill="url(#paint20_linear_1029_2998)"/>
<path d="M5.33353 26.4879C4.98281 24.5973 6.88155 22.9606 9.76391 22.8114C12.6422 22.6622 16.9517 24.1014 17.0484 26.0122C17.1492 27.9231 13.0575 29.8581 10.1872 29.7089C7.13149 29.5477 5.64797 28.1932 5.33353 26.4879V26.4879Z" fill="url(#paint21_radial_1029_2998)"/>
<path d="M7.18787 26.2145C7.1274 25.0414 8.13925 24.0497 9.90495 23.957C11.6707 23.8643 13.267 24.61 13.3275 25.7831C13.388 26.9563 11.9287 28.0971 10.163 28.1898C8.39725 28.2825 7.24834 27.3876 7.18787 26.2145V26.2145Z" fill="url(#paint22_radial_1029_2998)"/>
<path d="M23.4058 28.7765C23.3131 30.6429 20.7532 32.0337 17.6854 31.8846C14.6176 31.7354 12.2029 30.1028 12.2916 28.2363C12.3843 26.3698 14.9441 24.979 18.0119 25.1281C21.0798 25.2773 23.4985 26.914 23.4058 28.7765Z" fill="url(#paint23_radial_1029_2998)"/>
<path d="M36.1891 25.0787C36.169 25.0907 36.1528 25.1069 36.1327 25.123C35.5804 24.8569 34.8427 24.9134 34.2299 25.3367C33.3713 25.9212 33.081 26.9855 33.5728 27.7071C33.7341 27.9409 33.9558 28.1102 34.2138 28.211C34.0969 28.6423 34.1453 29.0858 34.3912 29.4486C34.887 30.1702 35.9835 30.283 36.8382 29.6985C37.5033 29.243 37.8258 28.5052 37.7089 27.8562C37.8016 27.8119 37.8944 27.7595 37.983 27.699C38.8417 27.1145 39.132 26.0502 38.6401 25.3286C38.1403 24.603 37.0478 24.4941 36.1891 25.0787Z" fill="#568B3E"/>
<path d="M41.8611 26.1591C41.8369 26.151 41.8167 26.147 41.7925 26.1389C41.6837 25.5383 41.1999 24.9779 40.4944 24.728C39.5148 24.3813 38.4869 24.7723 38.1926 25.5987C38.0999 25.8648 38.0958 26.147 38.1644 26.4131C37.7491 26.5703 37.4186 26.8767 37.2735 27.2879C36.9832 28.1143 37.5395 29.0657 38.5191 29.4083C39.277 29.6744 40.0671 29.501 40.5186 29.0213C40.6114 29.0697 40.7041 29.114 40.8089 29.1463C41.7885 29.493 42.8165 29.1019 43.1108 28.2755C43.397 27.4531 42.8407 26.5058 41.8611 26.1591V26.1591Z" fill="#346A34"/>
<path d="M39.3335 23.427C39.3093 23.419 39.2891 23.4149 39.2649 23.4109C39.1319 22.8143 38.9505 22.2458 38.237 22.0282C37.2453 21.7258 36.2294 22.1572 35.9754 22.9957C35.8908 23.2658 35.5723 23.5721 35.6529 23.8382C35.2417 24.0115 34.9273 24.33 34.7983 24.7493C34.5403 25.5878 35.1369 26.515 36.1326 26.8173C36.9026 27.0552 37.6847 26.8455 38.116 26.3497C38.2087 26.394 38.3055 26.4344 38.4103 26.4626C39.402 26.7649 40.4179 26.3336 40.6719 25.4951C40.9218 24.6566 40.3252 23.7334 39.3335 23.427V23.427Z" fill="url(#paint24_radial_1029_2998)"/>
<path d="M43.26 22.4046C43.2398 22.4167 43.2237 22.4328 43.2035 22.4489C42.6513 22.1828 41.9135 22.2393 41.3008 22.6626C40.4421 23.2471 40.1519 24.3114 40.6437 25.033C40.8049 25.2668 41.0267 25.4361 41.2847 25.5369C41.1677 25.9682 41.2161 26.4117 41.462 26.7745C41.9579 27.4961 43.0544 27.6089 43.909 27.0244C44.5742 26.5689 44.8967 25.8312 44.7798 25.1821C44.8725 25.1378 44.9652 25.0854 45.0539 25.0249C45.9126 24.4404 46.2028 23.3761 45.711 22.6545C45.2111 21.9289 44.1186 21.816 43.26 22.4046V22.4046Z" fill="#568B3E"/>
<path d="M46.5092 22.2085C46.485 22.2165 46.4648 22.2246 46.4407 22.2327C45.9892 21.8215 45.2635 21.6683 44.554 21.8981C43.5664 22.2165 42.9859 23.1558 43.2559 23.9863C43.3446 24.2564 43.5099 24.4821 43.7276 24.6514C43.4938 25.0304 43.4132 25.4738 43.5502 25.889C43.8203 26.7235 44.8402 27.1387 45.8279 26.8162C46.5938 26.5663 47.1139 25.9495 47.1824 25.2964C47.2832 25.2803 47.388 25.2561 47.4888 25.2239C48.4765 24.9054 49.057 23.9661 48.7869 23.1357C48.5168 22.3012 47.4969 21.886 46.5092 22.2085V22.2085Z" fill="#346A34"/>
<path d="M46.4044 20.7532C46.3802 20.7451 46.36 20.7411 46.3358 20.7371C46.2028 20.1404 46.0214 19.572 45.3079 19.3543C44.3162 19.052 43.3003 19.4833 43.0463 20.3218C42.9616 20.5919 42.6432 20.8983 42.7238 21.1644C42.3126 21.3377 41.9982 21.6562 41.8692 22.0754C41.6112 22.914 42.2078 23.8411 43.2035 24.1435C43.9735 24.3813 44.7556 24.1717 45.1869 23.6759C45.2796 23.7202 45.3764 23.7605 45.4812 23.7887C46.4729 24.0911 47.4888 23.6597 47.7427 22.8212C47.9927 21.9827 47.3961 21.0596 46.4044 20.7532V20.7532Z" fill="url(#paint25_radial_1029_2998)"/>
<path d="M34.0767 27.9802C34.121 29.8467 31.67 31.4189 28.5982 31.4955C25.5263 31.5721 22.9987 30.1168 22.9544 28.2503C22.91 26.3838 25.3611 24.8116 28.4329 24.735C31.5047 24.6625 34.0324 26.1137 34.0767 27.9802Z" fill="url(#paint26_radial_1029_2998)"/>
<path d="M31.0493 27.0775L29.0538 27.525C29.0014 27.529 28.9611 27.5693 28.949 27.6177L28.5418 29.3149C28.5136 29.4318 28.3523 29.4399 28.312 29.327L27.6509 27.5532C27.6348 27.5129 27.5985 27.4807 27.5541 27.4766L25.6675 27.2388C25.5304 27.2227 25.5264 27.0251 25.6594 27.0009L27.6227 26.6341C27.667 26.626 27.7033 26.5897 27.7154 26.5454L28.0379 25.332C28.0661 25.2231 28.2112 25.211 28.2636 25.3078L28.9087 26.5938C28.9248 26.6301 28.957 26.6542 28.9973 26.6583L31.0654 26.7349C31.2589 26.7591 31.2508 27.0533 31.0493 27.0775V27.0775Z" fill="url(#paint27_radial_1029_2998)"/>
<path d="M20.451 27.6541L18.4273 27.9524C18.3749 27.9564 18.3305 27.9887 18.3185 28.037L17.7863 29.6979C17.75 29.8108 17.5888 29.8108 17.5565 29.6939L17.0244 27.8758C17.0123 27.8314 16.976 27.7992 16.9317 27.7911L15.0692 27.4162C14.9322 27.388 14.9443 27.1945 15.0813 27.1784L17.0647 26.9526C17.1091 26.9486 17.1494 26.9163 17.1655 26.872L17.5767 25.6828C17.613 25.5779 17.7621 25.5739 17.8025 25.6747L18.3507 27.001C18.3668 27.0373 18.3951 27.0615 18.4354 27.0736L20.4913 27.2993C20.6848 27.3557 20.6566 27.646 20.451 27.6541V27.6541Z" fill="url(#paint28_radial_1029_2998)"/>
<path d="M25.1878 29.4357C12.7513 29.4357 2.51585 26.2792 1.15731 22.2238C1.10893 22.3971 1.08878 22.5825 1.10087 22.772C1.44756 27.4644 4.14852 45.964 25.2362 45.964C46.3278 45.964 49.0288 27.4604 49.3715 22.772C49.3916 22.5261 49.3513 22.2842 49.2626 22.0625C48.1339 26.1986 37.7896 29.4357 25.1878 29.4357Z" fill="url(#paint29_radial_1029_2998)"/>
<path d="M33.2948 34.7473C33.74 34.7473 34.101 34.3863 34.101 33.941C34.101 33.4957 33.74 33.1348 33.2948 33.1348C32.8495 33.1348 32.4885 33.4957 32.4885 33.941C32.4885 34.3863 32.8495 34.7473 33.2948 34.7473Z" fill="#A93023"/>
<path d="M17.1051 34.6848C17.5503 34.6848 17.9113 34.3238 17.9113 33.8785C17.9113 33.4332 17.5503 33.0723 17.1051 33.0723C16.6598 33.0723 16.2988 33.4332 16.2988 33.8785C16.2988 34.3238 16.6598 34.6848 17.1051 34.6848Z" fill="#BE3A26"/>
<path d="M25.1676 35.1184C25.6129 35.1184 25.9739 34.7574 25.9739 34.3121C25.9739 33.8668 25.6129 33.5059 25.1676 33.5059C24.7223 33.5059 24.3614 33.8668 24.3614 34.3121C24.3614 34.7574 24.7223 35.1184 25.1676 35.1184Z" fill="#BE3A26"/>
<path d="M40.0672 33.6574C40.4012 33.6574 40.6719 33.2965 40.6719 32.8512C40.6719 32.4059 40.4012 32.0449 40.0672 32.0449C39.7333 32.0449 39.4626 32.4059 39.4626 32.8512C39.4626 33.2965 39.7333 33.6574 40.0672 33.6574Z" fill="#8D372A"/>
<path d="M10.1954 33.591C10.5294 33.591 10.8001 33.2301 10.8001 32.7848C10.8001 32.3395 10.5294 31.9785 10.1954 31.9785C9.86143 31.9785 9.5907 32.3395 9.5907 32.7848C9.5907 33.2301 9.86143 33.591 10.1954 33.591Z" fill="#BE3A26"/>
<path d="M45.6506 31.7942C45.8732 31.7942 46.0537 31.4332 46.0537 30.9879C46.0537 30.5426 45.8732 30.1816 45.6506 30.1816C45.428 30.1816 45.2475 30.5426 45.2475 30.9879C45.2475 31.4332 45.428 31.7942 45.6506 31.7942Z" fill="#8D372A"/>
<path d="M4.5154 31.7297C4.73804 31.7297 4.91853 31.3687 4.91853 30.9234C4.91853 30.4782 4.73804 30.1172 4.5154 30.1172C4.29276 30.1172 4.11227 30.4782 4.11227 30.9234C4.11227 31.3687 4.29276 31.7297 4.5154 31.7297Z" fill="#BE3A26"/>
<path d="M1.58859 27.5215C1.58859 27.5215 7.23239 32.7622 25.3772 32.7622C43.522 32.7622 49.0247 27.5215 49.0247 27.5215" stroke="#BE3A26" stroke-width="1.20311" stroke-miterlimit="10" stroke-linecap="round" stroke-linejoin="round"/>
<path d="M1.58859 30.5449C1.58859 30.5449 7.23239 35.7856 25.3772 35.7856C43.522 35.7856 49.0247 30.5449 49.0247 30.5449" stroke="#BE3A26" stroke-width="1.20311" stroke-miterlimit="10" stroke-linecap="round" stroke-linejoin="round"/>
<path d="M25.1393 13.6133C11.8079 13.6133 1 17.2455 1 21.7283C1 26.211 11.8079 29.8432 25.1393 29.8432C38.4708 29.8432 49.2787 26.211 49.2787 21.7283C49.2746 17.2455 38.4667 13.6133 25.1393 13.6133V13.6133ZM25.1393 28.7306C12.5416 28.7306 2.33032 25.4975 2.33032 21.5106C2.33032 17.5236 12.5416 14.2905 25.1393 14.2905C37.7371 14.2905 47.9483 17.5236 47.9483 21.5106C47.9483 25.4975 37.7371 28.7306 25.1393 28.7306Z" fill="url(#paint30_radial_1029_2998)"/>
<g opacity="0.2">
<path d="M25.1877 14.3852C31.5209 14.3852 37.459 15.2075 41.9055 16.7032C45.7674 18.0012 48.166 19.7669 48.166 21.3069C48.166 21.3754 48.166 21.5004 48.1701 21.6455C48.1741 21.9156 48.1781 22.5445 48.1701 22.6856C48.0088 24.8665 47.2872 30.474 44.0703 35.4768C40.1075 41.6366 33.7703 44.7609 25.2401 44.7609C16.7099 44.7609 10.3728 41.6366 6.41001 35.4768C3.18902 30.474 2.46742 24.8665 2.30617 22.6856C2.30214 22.6453 2.2981 22.5687 2.29004 22.4679C2.26988 22.2059 2.20942 21.5044 2.20942 21.3069C2.20942 19.7669 4.60803 18.0012 8.47 16.7032C12.9165 15.2116 18.8546 14.3852 25.1877 14.3852M25.1877 13.1758C11.8281 13.1758 1.00003 16.816 1.00003 21.3069C1.00003 21.6173 1.08872 22.5848 1.10081 22.7743C1.4475 27.4667 4.14846 45.9662 25.2361 45.9662C46.3278 45.9662 49.0287 27.4626 49.3714 22.7743C49.3916 22.5284 49.3714 21.5649 49.3714 21.3069C49.3754 16.816 38.5474 13.1758 25.1877 13.1758Z" fill="#434343"/>
</g>
<path d="M51 3.22503L18.3385 3.37418C17.6693 3.37822 17.1211 2.84205 17.109 2.17286C17.0969 1.50367 17.629 0.947352 18.2982 0.927195L50.9436 0L51 3.22503Z" fill="url(#paint31_linear_1029_2998)"/>
<g opacity="0.2">
<path d="M50.1495 0.826413L50.1777 2.41877L18.3306 2.56793C18.1048 2.56793 17.9153 2.38249 17.9113 2.15674C17.9073 1.93098 18.0927 1.73748 18.3185 1.73345L50.1495 0.826413ZM50.9396 0L18.2943 0.927195C17.6251 0.947352 17.093 1.50367 17.1051 2.17286C17.1172 2.84205 17.6614 3.37418 18.3306 3.37418H18.3346L50.9961 3.22503L50.9396 0Z" fill="#434343"/>
</g>
<path d="M21.3741 0.642284C19.6769 0.110154 19.2496 1.49288 19.2496 3.40371C19.2496 12.1073 20.205 18.001 19.1488 24.6647C19.1286 24.7816 19.9591 25.2371 20.6323 24.5317C21.8014 23.3102 20.9508 6.64486 20.9508 2.29108C20.9508 1.0696 21.8014 0.751128 21.8014 0.751128L21.3741 0.642284V0.642284Z" fill="url(#paint32_linear_1029_2998)"/>
<path d="M24.5508 0.497423C23.9501 1.21499 24.1557 2.89604 24.1316 3.73454C24.059 6.113 24.0791 8.49952 24.0993 10.878C24.1356 15.0544 24.2847 19.2268 24.3009 23.4032C24.3049 24.1127 25.478 23.8265 25.474 23.1532C25.4619 19.4041 25.3288 15.6591 25.2885 11.91C25.2603 9.5154 25.2402 7.11679 25.2885 4.71818C25.3047 3.96433 25.0829 1.56571 25.5062 1.0618C26.0061 0.461141 25.0063 -0.0427692 24.5508 0.497423V0.497423Z" fill="url(#paint33_linear_1029_2998)"/>
<path d="M50.9719 5.86365L18.3104 5.72659C17.6412 5.72255 17.093 6.25871 17.0809 6.92791C17.0688 7.5971 17.6009 8.15342 18.2701 8.17357L50.9154 9.08868L50.9719 5.86365Z" fill="url(#paint34_linear_1029_2998)"/>
<g opacity="0.2">
<path d="M18.3023 5.72852V6.53477L50.1494 6.6678L50.1212 8.26016L18.2902 7.36925C18.0604 7.36119 17.879 7.17172 17.883 6.94596C17.887 6.72021 18.0725 6.53477 18.3023 6.53477V5.72852ZM18.3023 5.72852C17.6371 5.72852 17.0888 6.26468 17.0767 6.92984C17.0646 7.59903 17.5968 8.15535 18.266 8.1755L50.9113 9.09061L50.9677 5.86558L18.3063 5.72852H18.3023Z" fill="#434343"/>
</g>
<path d="M25.4538 1.25327C26.0021 2.12 25.8408 3.68817 25.861 4.65165C25.9093 6.94948 25.8247 9.25537 25.7441 11.5492C25.5909 15.9836 25.3248 20.4301 25.3974 24.8685C25.4095 25.6829 26.9172 25.1225 26.9051 24.3727C26.8244 19.5351 27.155 14.6936 27.2961 9.8641C27.3566 7.84442 27.417 5.81669 27.3566 3.79298C27.3243 2.78113 27.4211 1.35406 26.8527 0.455079C26.4334 -0.214114 25.0346 0.588112 25.4538 1.25327V1.25327Z" fill="url(#paint35_linear_1029_2998)"/>
<path d="M23.0188 0.429688C21.2128 1.01422 21.6925 8.02059 21.7449 11.6286C21.7973 15.2648 21.2974 20.8885 21.2128 24.5287C21.2007 25.1334 22.6882 25.1294 22.8575 24.4763C23.6557 21.3964 22.1722 1.46573 23.9218 1.18757C24.6998 1.0626 24.1355 0.381312 23.4945 0.486125L23.0188 0.429688Z" fill="url(#paint36_linear_1029_2998)"/>
<path d="M6.9381 14.8421C6.51079 15.2815 5.78515 14.8098 6.01494 14.2414C6.76476 12.3911 7.29689 9.9199 6.2286 7.65028C4.87408 4.76792 6.07138 2.97399 7.17192 2.02664C7.54279 1.70817 8.10314 1.98633 8.09911 2.47411C8.08702 3.49806 8.43774 5.27586 9.88094 8.30738C10.8122 10.2545 8.77637 12.9514 6.9381 14.8421Z" fill="#E1F3F7"/>
<path d="M14.1298 18.6077C13.7025 19.0471 12.9769 18.5755 13.2066 18.0071C13.9565 16.1567 14.4886 13.6855 13.4203 11.4159C12.0658 8.53354 13.2631 6.73962 14.3636 5.79227C14.7345 5.4738 15.2949 5.75195 15.2908 6.23974C15.2787 7.26369 15.6295 9.04148 17.0727 12.073C18.0039 14.0201 15.9681 16.713 14.1298 18.6077Z" fill="#E1F3F7"/>
<defs>
<linearGradient id="paint0_linear_1029_2998" x1="40.4179" y1="22.6482" x2="44.7072" y2="22.6482" gradientUnits="userSpaceOnUse">
<stop offset="0.225" stop-color="#8BC249"/>
<stop offset="0.9398" stop-color="#7CB342"/>
</linearGradient>
<radialGradient id="paint1_radial_1029_2998" cx="0" cy="0" r="1" gradientUnits="userSpaceOnUse" gradientTransform="translate(16.0109 20.3769) scale(31.2433 31.2433)">
<stop offset="0.3451" stop-color="#F5F5F5"/>
<stop offset="0.8524" stop-color="#E0E0E0"/>
</radialGradient>
<radialGradient id="paint2_radial_1029_2998" cx="0" cy="0" r="1" gradientUnits="userSpaceOnUse" gradientTransform="translate(19.4794 46.8306) scale(7.51955 7.51955)">
<stop stop-color="#BDBDBD"/>
<stop offset="0.884" stop-color="#9D9D9D"/>
</radialGradient>
<radialGradient id="paint3_radial_1029_2998" cx="0" cy="0" r="1" gradientUnits="userSpaceOnUse" gradientTransform="translate(25.3667 23.908) scale(22.2164 7.40028)">
<stop offset="0.0785" stop-color="#F78C1E"/>
<stop offset="0.9285" stop-color="#F9A01B"/>
</radialGradient>
<radialGradient id="paint4_radial_1029_2998" cx="0" cy="0" r="1" gradientUnits="userSpaceOnUse" gradientTransform="translate(7.78288 21.1773) rotate(9.92921) scale(9.78713 6.16171)">
<stop offset="0.4485" stop-color="#FFF3E1"/>
<stop offset="1" stop-color="#FFE0B2"/>
</radialGradient>
<radialGradient id="paint5_radial_1029_2998" cx="0" cy="0" r="1" gradientUnits="userSpaceOnUse" gradientTransform="translate(8.50825 22.7617) rotate(9.92921) scale(2.78727 1.75479)">
<stop stop-color="#F36E21"/>
<stop offset="1" stop-color="#FAAA43"/>
</radialGradient>
<radialGradient id="paint6_radial_1029_2998" cx="0" cy="0" r="1" gradientUnits="userSpaceOnUse" gradientTransform="translate(29.2371 19.7225) rotate(-19.0256) scale(7.97532 4.17404)">
<stop offset="0.1407" stop-color="#733619"/>
<stop offset="0.9247" stop-color="#8D401E"/>
</radialGradient>
<radialGradient id="paint7_radial_1029_2998" cx="0" cy="0" r="1" gradientUnits="userSpaceOnUse" gradientTransform="translate(29.1994 19.3367) rotate(-19.0256) scale(7.97532 4.17404)">
<stop offset="0.3514" stop-color="#BB5B27"/>
<stop offset="1" stop-color="#8D401E"/>
</radialGradient>
<linearGradient id="paint8_linear_1029_2998" x1="34.2198" y1="15.4263" x2="29.7242" y2="22.5089" gradientUnits="userSpaceOnUse">
<stop offset="0.1326" stop-color="#C55833"/>
<stop offset="0.1631" stop-color="#CF6947"/>
<stop offset="0.1954" stop-color="#C65935"/>
<stop offset="0.4201" stop-color="#C55733"/>
<stop offset="0.4302" stop-color="#D67456"/>
<stop offset="0.4771" stop-color="#C3532E"/>
<stop offset="0.6515" stop-color="#C65A35"/>
<stop offset="0.7114" stop-color="#D67456"/>
<stop offset="0.7948" stop-color="#C55733"/>
<stop offset="0.9201" stop-color="#C55732"/>
<stop offset="0.9663" stop-color="#D06C4B"/>
<stop offset="1" stop-color="#C55732"/>
</linearGradient>
<radialGradient id="paint9_radial_1029_2998" cx="0" cy="0" r="1" gradientUnits="userSpaceOnUse" gradientTransform="translate(34.4912 22.4315) rotate(-21.4801) scale(7.97516 4.17447)">
<stop offset="0.1407" stop-color="#733619"/>
<stop offset="0.9247" stop-color="#8D401E"/>
</radialGradient>
<radialGradient id="paint10_radial_1029_2998" cx="0" cy="0" r="1" gradientUnits="userSpaceOnUse" gradientTransform="translate(34.437 22.0482) rotate(-21.4801) scale(7.97516 4.17447)">
<stop offset="0.3514" stop-color="#BB5B27"/>
<stop offset="1" stop-color="#8D401E"/>
</radialGradient>
<linearGradient id="paint11_linear_1029_2998" x1="39.2839" y1="17.9263" x2="35.0959" y2="25.1951" gradientUnits="userSpaceOnUse">
<stop offset="0.1326" stop-color="#C55833"/>
<stop offset="0.1631" stop-color="#CF6947"/>
<stop offset="0.1954" stop-color="#C65935"/>
<stop offset="0.4201" stop-color="#C55733"/>
<stop offset="0.4302" stop-color="#D67456"/>
<stop offset="0.4771" stop-color="#C3532E"/>
<stop offset="0.6515" stop-color="#C65A35"/>
<stop offset="0.7114" stop-color="#D67456"/>
<stop offset="0.7948" stop-color="#C55733"/>
<stop offset="0.9201" stop-color="#C55732"/>
<stop offset="0.9663" stop-color="#D06C4B"/>
<stop offset="1" stop-color="#C55732"/>
</linearGradient>
<radialGradient id="paint12_radial_1029_2998" cx="0" cy="0" r="1" gradientUnits="userSpaceOnUse" gradientTransform="translate(37.6431 24.6842) rotate(-24.6251) scale(7.97549 4.1742)">
<stop offset="0.1407" stop-color="#733619"/>
<stop offset="0.9247" stop-color="#8D401E"/>
</radialGradient>
<radialGradient id="paint13_radial_1029_2998" cx="0" cy="0" r="1" gradientUnits="userSpaceOnUse" gradientTransform="translate(37.5679 24.305) rotate(-24.6251) scale(7.97549 4.1742)">
<stop stop-color="#8D401E"/>
<stop offset="0.6486" stop-color="#BB5B27"/>
</radialGradient>
<linearGradient id="paint14_linear_1029_2998" x1="46.0214" y1="22.2351" x2="33.967" y2="27.4286" gradientUnits="userSpaceOnUse">
<stop offset="0.1326" stop-color="#C55833"/>
<stop offset="0.1631" stop-color="#CF6947"/>
<stop offset="0.1954" stop-color="#C65935"/>
<stop offset="0.4201" stop-color="#C55733"/>
<stop offset="0.4302" stop-color="#D67456"/>
<stop offset="0.4771" stop-color="#C3532E"/>
<stop offset="0.6515" stop-color="#C65A35"/>
<stop offset="0.7114" stop-color="#D67456"/>
<stop offset="0.7948" stop-color="#C55733"/>
<stop offset="0.9201" stop-color="#C55732"/>
<stop offset="0.9663" stop-color="#D06C4B"/>
<stop offset="1" stop-color="#C55732"/>
</linearGradient>
<radialGradient id="paint15_radial_1029_2998" cx="0" cy="0" r="1" gradientUnits="userSpaceOnUse" gradientTransform="translate(32.7189 21.1942) rotate(-24.6251) scale(7.97549 4.1742)">
<stop offset="0.1407" stop-color="#733619"/>
<stop offset="0.9247" stop-color="#8D401E"/>
</radialGradient>
<radialGradient id="paint16_radial_1029_2998" cx="0" cy="0" r="1" gradientUnits="userSpaceOnUse" gradientTransform="translate(32.6437 20.8155) rotate(-24.6251) scale(7.97549 4.1742)">
<stop offset="0.3514" stop-color="#BB5B27"/>
<stop offset="1" stop-color="#8D401E"/>
</radialGradient>
<linearGradient id="paint17_linear_1029_2998" x1="41.0992" y1="18.7451" x2="29.0433" y2="23.9386" gradientUnits="userSpaceOnUse">
<stop offset="0.1326" stop-color="#C55833"/>
<stop offset="0.1631" stop-color="#CF6947"/>
<stop offset="0.1954" stop-color="#C65935"/>
<stop offset="0.4201" stop-color="#C55733"/>
<stop offset="0.4302" stop-color="#D67456"/>
<stop offset="0.4771" stop-color="#C3532E"/>
<stop offset="0.6515" stop-color="#C65A35"/>
<stop offset="0.7114" stop-color="#D67456"/>
<stop offset="0.7948" stop-color="#C55733"/>
<stop offset="0.9201" stop-color="#C55732"/>
<stop offset="0.9663" stop-color="#D06C4B"/>
<stop offset="1" stop-color="#C55732"/>
</linearGradient>
<radialGradient id="paint18_radial_1029_2998" cx="0" cy="0" r="1" gradientUnits="userSpaceOnUse" gradientTransform="translate(37.4908 22.6419) rotate(-14.6908) scale(7.97502 4.17437)">
<stop offset="0.1407" stop-color="#733619"/>
<stop offset="0.9247" stop-color="#8D401E"/>
</radialGradient>
<radialGradient id="paint19_radial_1029_2998" cx="0" cy="0" r="1" gradientUnits="userSpaceOnUse" gradientTransform="translate(37.4823 22.2548) rotate(-14.6908) scale(7.97502 4.17437)">
<stop offset="0.3514" stop-color="#BB5B27"/>
<stop offset="1" stop-color="#8D401E"/>
</radialGradient>
<linearGradient id="paint20_linear_1029_2998" x1="46.1672" y1="21.6717" x2="33.3966" y2="24.7077" gradientUnits="userSpaceOnUse">
<stop offset="0.1326" stop-color="#C55833"/>
<stop offset="0.1631" stop-color="#CF6947"/>
<stop offset="0.1954" stop-color="#C65935"/>
<stop offset="0.4201" stop-color="#C55733"/>
<stop offset="0.4302" stop-color="#D67456"/>
<stop offset="0.4771" stop-color="#C3532E"/>
<stop offset="0.6515" stop-color="#C65A35"/>
<stop offset="0.7114" stop-color="#D67456"/>
<stop offset="0.7948" stop-color="#C55733"/>
<stop offset="0.9201" stop-color="#C55732"/>
<stop offset="0.9663" stop-color="#D06C4B"/>
<stop offset="1" stop-color="#C55732"/>
</linearGradient>
<radialGradient id="paint21_radial_1029_2998" cx="0" cy="0" r="1" gradientUnits="userSpaceOnUse" gradientTransform="translate(9.40987 24.1318) rotate(14.1464) scale(9.98337 8.13689)">
<stop offset="0.4485" stop-color="#FFF3E1"/>
<stop offset="1" stop-color="#FFE0B2"/>
</radialGradient>
<radialGradient id="paint22_radial_1029_2998" cx="0" cy="0" r="1" gradientUnits="userSpaceOnUse" gradientTransform="translate(10.165 26.277) rotate(14.1464) scale(2.84316 2.3173)">
<stop stop-color="#F36E21"/>
<stop offset="1" stop-color="#FAAA43"/>
</radialGradient>
<radialGradient id="paint23_radial_1029_2998" cx="0" cy="0" r="1" gradientUnits="userSpaceOnUse" gradientTransform="translate(17.7205 26.8972) rotate(1.77076) scale(5.58199 3.30285)">
<stop offset="0.1977" stop-color="#8D6E63"/>
<stop offset="0.8299" stop-color="#6D4D42"/>
</radialGradient>
<radialGradient id="paint24_radial_1029_2998" cx="0" cy="0" r="1" gradientUnits="userSpaceOnUse" gradientTransform="translate(37.731 24.4207) scale(2.75502)">
<stop offset="0.3976" stop-color="#8BC249"/>
<stop offset="0.9398" stop-color="#7CB342"/>
</radialGradient>
<radialGradient id="paint25_radial_1029_2998" cx="0" cy="0" r="1" gradientUnits="userSpaceOnUse" gradientTransform="translate(44.7999 21.7469) scale(2.75502)">
<stop offset="0.3976" stop-color="#8BC249"/>
<stop offset="0.9398" stop-color="#7CB342"/>
</radialGradient>
<radialGradient id="paint26_radial_1029_2998" cx="0" cy="0" r="1" gradientUnits="userSpaceOnUse" gradientTransform="translate(28.2694 26.52) rotate(-2.39) scale(5.58195 3.30303)">
<stop offset="0.1977" stop-color="#8D6E63"/>
<stop offset="0.8299" stop-color="#6D4D42"/>
</radialGradient>
<radialGradient id="paint27_radial_1029_2998" cx="0" cy="0" r="1" gradientUnits="userSpaceOnUse" gradientTransform="translate(28.3929 26.9559) rotate(11.6189) scale(2.41069)">
<stop offset="0.1134" stop-color="#FECC81"/>
<stop offset="0.8178" stop-color="#FAA629"/>
</radialGradient>
<radialGradient id="paint28_radial_1029_2998" cx="0" cy="0" r="1" gradientUnits="userSpaceOnUse" gradientTransform="translate(17.8115 27.3421) rotate(15.7833) scale(2.41071)">
<stop offset="0.1134" stop-color="#FECC81"/>
<stop offset="0.8178" stop-color="#FAA629"/>
</radialGradient>
<radialGradient id="paint29_radial_1029_2998" cx="0" cy="0" r="1" gradientUnits="userSpaceOnUse" gradientTransform="translate(17.4719 31.0171) rotate(6.14785) scale(28.8659 20.2754)">
<stop offset="0.2291" stop-color="#F5F5F5"/>
<stop offset="0.8173" stop-color="#BDBDBD"/>
<stop offset="0.9733" stop-color="#E0E0E0"/>
</radialGradient>
<radialGradient id="paint30_radial_1029_2998" cx="0" cy="0" r="1" gradientUnits="userSpaceOnUse" gradientTransform="translate(15.9794 20.7986) scale(31.1784 31.1783)">
<stop offset="0.3451" stop-color="#F5F5F5"/>
<stop offset="0.8524" stop-color="#E0E0E0"/>
</radialGradient>
<linearGradient id="paint31_linear_1029_2998" x1="34.0525" y1="0.360558" x2="34.0525" y2="3.79586" gradientUnits="userSpaceOnUse">
<stop offset="0.3477" stop-color="#795649"/>
<stop offset="0.8524" stop-color="#5D4137"/>
</linearGradient>
<linearGradient id="paint32_linear_1029_2998" x1="20.4723" y1="1.5463" x2="20.4723" y2="20.7092" gradientUnits="userSpaceOnUse">
<stop offset="0.2141" stop-color="#FECC81"/>
<stop offset="1" stop-color="#FAA629"/>
</linearGradient>
<linearGradient id="paint33_linear_1029_2998" x1="24.8604" y1="8.44308" x2="24.8604" y2="21.4549" gradientUnits="userSpaceOnUse">
<stop offset="0.5446" stop-color="#FECC81"/>
<stop offset="1" stop-color="#FAA629"/>
</linearGradient>
<linearGradient id="paint34_linear_1029_2998" x1="34.026" y1="5.37586" x2="34.026" y2="8.55735" gradientUnits="userSpaceOnUse">
<stop offset="0.3477" stop-color="#795649"/>
<stop offset="0.8524" stop-color="#5D4137"/>
</linearGradient>
<linearGradient id="paint35_linear_1029_2998" x1="26.381" y1="8.44508" x2="26.381" y2="21.4569" gradientUnits="userSpaceOnUse">
<stop offset="0.6169" stop-color="#FECC81"/>
<stop offset="1" stop-color="#FAA629"/>
</linearGradient>
<linearGradient id="paint36_linear_1029_2998" x1="22.7584" y1="5.25917" x2="22.7584" y2="22.7936" gradientUnits="userSpaceOnUse">
<stop offset="0.2141" stop-color="#FECC81"/>
<stop offset="1" stop-color="#FAA629"/>
</linearGradient>
</defs>
</svg>
