<svg width="50" height="54" viewBox="0 0 50 54" fill="none" xmlns="http://www.w3.org/2000/svg">
<path d="M42.831 33.5343C44.7793 26.1483 39.9483 17.9254 31.8892 11.6597C26.425 7.4088 20.8501 7.34238 17.8036 7.21397C14.425 7.07227 11.0376 8.10843 8.16377 10.2782C3.6693 13.6745 1.66339 19.0811 0.667082 29.2258C0.295126 33.0162 -0.253952 36.9173 0.131288 40.659C0.48996 44.1217 1.91136 47.0797 4.14753 49.5107C6.95048 52.5572 11.5822 53.6642 15.7667 52.9557C19.7254 52.2871 23.4627 50.135 27.0671 48.2265L28.1431 47.6553C37.1498 42.8863 41.3963 38.9852 42.831 33.5343V33.5343Z" fill="url(#paint0_radial_1029_1421)"/>
<path opacity="0.2" d="M17.1881 8.52763C17.3741 8.52763 17.5601 8.53206 17.7461 8.54092L18.1047 8.5542C21.1158 8.67376 26.1505 8.87745 31.0745 12.7077C39.3239 19.124 43.2383 26.7845 41.5468 33.1963C40.2538 38.0981 36.3217 41.8221 27.5188 46.4849L26.7527 46.8878L26.4428 47.0516C26.1018 47.2332 25.7564 47.4192 25.411 47.6007C22.2184 49.31 18.9151 51.0767 15.5453 51.6435C14.8103 51.7675 14.0575 51.8295 13.3047 51.8295C9.99255 51.8295 7.01248 50.6561 5.12613 48.6059C3.00509 46.3033 1.76967 43.5801 1.45527 40.5158C1.14088 37.4826 1.48184 34.2369 1.81395 31.1018C1.87594 30.5173 1.93793 29.9284 1.9955 29.3483C2.96967 19.4339 4.92686 14.3815 8.96967 11.3306C11.3962 9.49738 14.2435 8.52763 17.1881 8.52763M17.1881 7.19922C14.0132 7.19922 10.8604 8.23981 8.16377 10.2767C3.6693 13.673 1.66339 19.0797 0.667082 29.2243C0.295126 33.0147 -0.253952 36.9158 0.131288 40.6575C0.48996 44.1203 1.91136 47.0782 4.14753 49.5092C6.41026 51.9668 9.85971 53.1624 13.3047 53.1624C14.1328 53.1624 14.9564 53.0915 15.7667 52.9587C19.7254 52.29 23.4627 50.138 27.0671 48.2295L28.1431 47.6583C37.1542 42.8893 41.3963 38.9837 42.8354 33.5372C44.7837 26.1513 39.9527 17.9284 31.8937 11.6627C26.425 7.40734 20.8501 7.34092 17.8036 7.2125C17.5999 7.20365 17.3918 7.19922 17.1881 7.19922V7.19922Z" fill="#424242"/>
<path d="M9.16014 19.3184C9.68315 18.6846 9.80591 17.9222 9.43432 17.6156C9.06273 17.3089 8.33751 17.5741 7.81449 18.2079C7.29148 18.8417 7.16873 19.6041 7.54032 19.9107C7.91191 20.2174 8.63713 19.9522 9.16014 19.3184Z" fill="#603813"/>
<path d="M16.7505 22.0466C16.789 21.2258 16.43 20.5422 15.9488 20.5196C15.4676 20.4971 15.0463 21.1442 15.0078 21.965C14.9693 22.7858 15.3283 23.4694 15.8095 23.492C16.2908 23.5145 16.7121 22.8674 16.7505 22.0466Z" fill="#603813"/>
<path d="M27.1258 26.3834C27.4922 25.6478 27.4395 24.8774 27.0082 24.6626C26.5769 24.4478 25.9303 24.87 25.564 25.6056C25.1977 26.3412 25.2504 27.1116 25.6817 27.3264C26.1129 27.5412 26.7595 27.119 27.1258 26.3834Z" fill="#603813"/>
<path d="M13.227 27.1212C13.3157 26.3042 12.9993 25.5998 12.5203 25.5478C12.0413 25.4959 11.5812 26.116 11.4925 26.9329C11.4038 27.7499 11.7203 28.4543 12.1992 28.5062C12.6782 28.5582 13.1384 27.9381 13.227 27.1212Z" fill="#603813"/>
<path d="M6.53321 29.6238C6.61283 28.8059 6.28866 28.1051 5.80915 28.0584C5.32965 28.0117 4.87638 28.6369 4.79676 29.4547C4.71714 30.2726 5.04131 30.9734 5.52081 31.0201C6.00032 31.0668 6.45359 30.4416 6.53321 29.6238Z" fill="#603813"/>
<path d="M11.7674 35.7896C12.1338 35.054 12.0811 34.2836 11.6498 34.0688C11.2185 33.8541 10.5719 34.2763 10.2056 35.0119C9.83931 35.7474 9.89198 36.5179 10.3233 36.7326C10.7545 36.9474 11.4011 36.5252 11.7674 35.7896Z" fill="#603813"/>
<path d="M18.4299 40.6314C18.7962 39.8958 18.7435 39.1254 18.3122 38.9106C17.8809 38.6959 17.2344 39.1181 16.868 39.8536C16.5017 40.5892 16.5544 41.3597 16.9857 41.5744C17.417 41.7892 18.0635 41.367 18.4299 40.6314Z" fill="#603813"/>
<path d="M23.4264 45.8384C24.164 45.4763 24.5899 44.8322 24.3777 44.3998C24.1654 43.9673 23.3953 43.9102 22.6577 44.2722C21.9201 44.6342 21.4942 45.2783 21.7064 45.7108C21.9187 46.1433 22.6888 46.2004 23.4264 45.8384Z" fill="#603813"/>
<path d="M24.7156 40.2231C25.4532 39.8611 25.8791 39.217 25.6669 38.7845C25.4546 38.352 24.6845 38.2949 23.9469 38.657C23.2092 39.019 22.7833 39.6631 22.9956 40.0956C23.2079 40.5281 23.9779 40.5852 24.7156 40.2231Z" fill="#603813"/>
<path d="M9.54815 46.6703C9.99518 46.4907 10.1092 45.727 9.80292 44.9645C9.49659 44.2021 8.88586 43.7296 8.43883 43.9092C7.99179 44.0888 7.87772 44.8525 8.18406 45.6149C8.49039 46.3774 9.10111 46.8499 9.54815 46.6703Z" fill="#603813"/>
<path d="M15.0241 47.6615C15.7357 47.2506 16.1172 46.5794 15.8764 46.1621C15.6355 45.7449 14.8633 45.7398 14.1517 46.1506C13.4401 46.5615 13.0586 47.2328 13.2994 47.65C13.5403 48.0672 14.3125 48.0723 15.0241 47.6615Z" fill="#603813"/>
<path d="M5.72263 39.0502C6.18687 38.9214 6.38515 38.1751 6.16551 37.3833C5.94587 36.5915 5.39148 36.0541 4.92724 36.1828C4.46301 36.3116 4.26472 37.0579 4.48437 37.8497C4.70401 38.6415 5.2584 39.179 5.72263 39.0502Z" fill="#603813"/>
<path d="M19.0189 31.7798C19.3852 31.0443 19.3326 30.2738 18.9013 30.0591C18.47 29.8443 17.8234 30.2665 17.4571 31.0021C17.0908 31.7377 17.1434 32.5081 17.5747 32.7229C18.006 32.9376 18.6526 32.5154 19.0189 31.7798Z" fill="#603813"/>
<path d="M24.6942 33.1543C25.2753 32.5732 25.4701 31.8261 25.1295 31.4854C24.7888 31.1447 24.0416 31.3396 23.4606 31.9206C22.8796 32.5016 22.6847 33.2488 23.0254 33.5895C23.3661 33.9301 24.1132 33.7353 24.6942 33.1543Z" fill="#603813"/>
<path d="M30.8996 37.5762C31.2461 36.8311 31.1729 36.0625 30.7361 35.8593C30.2993 35.6561 29.6642 36.0954 29.3177 36.8404C28.9712 37.5855 29.0444 38.3541 29.4812 38.5573C29.9181 38.7605 30.5531 38.3212 30.8996 37.5762Z" fill="#603813"/>
<path d="M35.0566 32.7042C35.5412 32.0406 35.6186 31.2723 35.2295 30.9882C34.8404 30.7041 34.1322 31.0118 33.6476 31.6754C33.1631 32.339 33.0857 33.1073 33.4748 33.3914C33.8638 33.6755 34.5721 33.3678 35.0566 32.7042Z" fill="#603813"/>
<path d="M34.9313 32.5515C35.207 32.0306 35.1818 31.4766 34.8749 31.3141C34.5679 31.1517 34.0956 31.4422 33.8198 31.9631C33.544 32.484 33.5693 33.038 33.8762 33.2005C34.1831 33.3629 34.6555 33.0724 34.9313 32.5515Z" fill="#FFFDE7"/>
<path d="M30.5957 37.2898C30.8715 36.7689 30.8463 36.2149 30.5394 36.0524C30.2324 35.8899 29.7601 36.1805 29.4843 36.7014C29.2085 37.2223 29.2338 37.7763 29.5407 37.9387C29.8476 38.1012 30.32 37.8107 30.5957 37.2898Z" fill="#FFFDE7"/>
<path d="M37.6324 20.3638C35.4095 21.5506 32.456 22.0509 30.5165 20.4435C29.166 19.3277 28.6568 17.3572 29.1217 15.6657C29.5867 13.9742 30.9328 12.597 32.5446 11.9018C33.5011 11.49 34.5239 11.3129 35.5512 11.2022C36.4678 11.1048 37.38 11.1845 38.3011 11.0871C39.6295 10.9498 40.9269 10.569 42.1225 9.97121C43.1055 9.4797 43.9468 8.72693 44.9298 8.22656C44.8324 8.27527 44.8103 9.80295 44.7837 9.99778C44.6952 10.6133 44.5712 11.2199 44.4118 11.8177C44.0841 13.0443 43.6103 14.2266 43.0036 15.338C42.4324 16.383 41.7461 17.4812 40.8472 18.2827C39.8952 19.1506 38.7571 19.7616 37.6324 20.3638V20.3638Z" fill="url(#paint1_linear_1029_1421)"/>
<path opacity="0.2" d="M43.287 10.8538C43.2428 11.0664 43.1896 11.2789 43.1321 11.4915C42.8354 12.6118 42.4014 13.7011 41.8435 14.7151C41.3874 15.552 40.7586 16.597 39.9704 17.3055C39.1158 18.0715 38.0442 18.6428 37.0081 19.1963C35.8701 19.8029 34.6568 20.1394 33.5896 20.1394C32.6863 20.1394 31.938 19.9003 31.3623 19.4265C30.4546 18.6738 30.0605 17.2789 30.4014 16.0302C30.7379 14.8081 31.7608 13.6966 33.0671 13.1343C33.9306 12.7623 34.8782 12.625 35.6929 12.5365C36.087 12.4922 36.5033 12.4922 36.9416 12.4878C37.4199 12.4833 37.9158 12.4789 38.4383 12.4258C39.935 12.2708 41.3741 11.8501 42.7158 11.1771C42.9151 11.0664 43.1011 10.9601 43.287 10.8538ZM44.9298 8.23242C43.9468 8.73279 43.1055 9.48113 42.1225 9.97707C40.9313 10.5749 39.6295 10.9557 38.3011 11.0929C37.38 11.1904 36.4678 11.1107 35.5512 11.2081C34.5239 11.3188 33.4966 11.4959 32.5446 11.9077C30.9328 12.5985 29.5867 13.98 29.1217 15.6715C28.6568 17.3631 29.166 19.3291 30.5165 20.4494C31.3889 21.1712 32.4649 21.4679 33.5896 21.4679C34.9667 21.4679 36.4103 21.0251 37.6324 20.3697C38.7616 19.7675 39.8952 19.1564 40.8516 18.2974C41.7461 17.4959 42.4324 16.4022 43.0081 15.3527C43.6191 14.2413 44.0929 13.0546 44.4162 11.8324C44.5756 11.2346 44.6996 10.6236 44.7881 10.0125C44.8147 9.80881 44.8324 8.28556 44.9298 8.23242V8.23242Z" fill="#424242"/>
<path d="M25.8804 12.1947C26.2125 14.3069 27.3859 16.5608 29.4671 17.0567C30.9151 17.4021 32.5092 16.7379 33.4125 15.5556C34.3202 14.3733 34.5638 12.7571 34.2095 11.3136C33.997 10.4545 33.594 9.67076 33.1424 8.91799C32.7394 8.24936 32.2169 7.66928 31.814 6.99622C31.2295 6.02648 30.8221 4.95046 30.614 3.83902C30.4457 2.92241 30.521 1.96596 30.3571 1.04492C30.3748 1.13791 29.352 1.93053 29.2324 2.05009C28.8604 2.42205 28.5106 2.82057 28.1874 3.23238C27.5232 4.07813 26.9652 5.00802 26.5224 5.99105C26.1062 6.91651 25.7165 7.93939 25.6324 8.95784C25.5438 10.0383 25.7121 11.1232 25.8804 12.1947V12.1947Z" fill="url(#paint2_linear_1029_1421)"/>
<path opacity="0.2" d="M29.2944 3.97629C29.2988 4.01171 29.3077 4.04271 29.3121 4.07814C29.5468 5.35341 30.0073 6.5667 30.6804 7.68257C30.9151 8.07223 31.1675 8.41319 31.4154 8.7453C31.6368 9.04198 31.8405 9.32094 32.0088 9.59991C32.3586 10.1844 32.7394 10.8796 32.9254 11.628C33.1999 12.7438 32.9874 13.9394 32.3675 14.7453C31.8671 15.3962 31.039 15.8169 30.2597 15.8169C30.0959 15.8169 29.9365 15.7992 29.7815 15.7638C28.2582 15.4007 27.439 13.5054 27.1999 11.9866C27.0449 11.0125 26.8855 10.0073 26.9652 9.06412C27.0361 8.19622 27.4169 7.25747 27.7446 6.5357C28.1431 5.65009 28.6479 4.81762 29.2413 4.05157C29.2545 4.025 29.2722 4.00286 29.2944 3.97629M30.3615 1.04492C30.3793 1.13791 29.3564 1.93053 29.2368 2.05009C28.8649 2.42205 28.5151 2.82057 28.1918 3.23238C27.5276 4.07813 26.9697 5.00802 26.5269 5.99105C26.1106 6.91651 25.721 7.93939 25.6368 8.95784C25.5483 10.0471 25.7121 11.1276 25.8848 12.1992C26.2169 14.3114 27.3903 16.5652 29.4715 17.0612C29.7283 17.1232 29.994 17.1497 30.2553 17.1497C31.4641 17.1497 32.673 16.5298 33.4169 15.5601C34.3247 14.3778 34.5682 12.7615 34.2139 11.318C34.0014 10.459 33.5985 9.67519 33.1468 8.92242C32.7438 8.25378 32.2213 7.67371 31.8184 7.00065C31.2339 6.0309 30.8265 4.95489 30.6184 3.84345C30.4501 2.91799 30.5254 1.96153 30.3615 1.04492V1.04492Z" fill="#424242"/>
<path d="M27.7357 8.00603C29.3697 9.68869 30.5785 12.2038 29.6442 14.3559C28.9933 15.8525 27.3638 16.8178 25.7298 16.8356C24.0959 16.8533 22.515 16.0075 21.4789 14.7411C20.8634 13.9928 20.4427 13.1204 20.0752 12.2304C19.7519 11.4378 19.5881 10.5964 19.2649 9.79939C18.7999 8.6481 18.1224 7.58094 17.2811 6.66876C16.5859 5.91599 15.6958 5.35363 14.9962 4.60529C15.0671 4.68057 16.4353 4.30418 16.6213 4.27761C17.1925 4.19791 17.7682 4.1492 18.3482 4.14035C19.5305 4.11378 20.7128 4.23333 21.8641 4.49459C22.949 4.73813 24.1091 5.07023 25.0567 5.66359C26.0619 6.29238 26.9032 7.15142 27.7357 8.00603V8.00603Z" fill="url(#paint3_linear_1029_1421)"/>
<path opacity="0.2" d="M18.6494 5.45927C19.6324 5.45927 20.6154 5.56997 21.5719 5.78252C22.4309 5.97293 23.5202 6.26075 24.3483 6.77883C25.2428 7.34119 26.0265 8.1471 26.7881 8.92644C27.9881 10.1619 29.1394 12.1855 28.4309 13.8194C28.0059 14.7936 26.89 15.4888 25.7166 15.5021H25.6767C24.5343 15.5021 23.321 14.8866 22.5062 13.8947C21.9571 13.2261 21.594 12.4202 21.3062 11.725C21.1689 11.3884 21.0582 11.0165 20.9431 10.6268C20.8147 10.1973 20.6819 9.75448 20.4959 9.29396C19.9645 7.98326 19.2118 6.79654 18.2553 5.76038C18.1623 5.66296 18.0693 5.56555 17.9763 5.47256C18.1092 5.4637 18.242 5.45927 18.3748 5.45927H18.6494ZM18.6494 4.13086C18.5475 4.13086 18.4457 4.13086 18.3439 4.13529C17.7682 4.14857 17.1881 4.19285 16.6169 4.27256C16.4486 4.2947 15.3018 4.60909 15.0405 4.60909C15.014 4.60909 14.9962 4.60466 14.9918 4.60023C15.6915 5.353 16.5815 5.91093 17.2767 6.6637C18.118 7.57588 18.7955 8.64304 19.2605 9.79433C19.5837 10.5958 19.7475 11.4327 20.0708 12.2253C20.4339 13.1154 20.859 13.9877 21.4745 14.736C22.4974 15.9847 24.056 16.8305 25.6723 16.8305H25.7254C27.3594 16.8128 28.9889 15.8475 29.6398 14.3508C30.5741 12.1988 29.3653 9.68363 27.7313 8.00097C26.9033 7.14636 26.0619 6.28732 25.0479 5.65411C24.1003 5.06075 22.9402 4.72865 21.8553 4.4851C20.8058 4.25042 19.7254 4.13086 18.6494 4.13086V4.13086Z" fill="#424242"/>
<path d="M36.0561 24.1364C33.6384 23.3438 31.2118 21.5416 31.0258 19.0043C30.8974 17.2375 31.9779 15.4929 33.5321 14.6515C35.0864 13.8102 37.0347 13.8279 38.6642 14.5187C39.6295 14.9261 40.4753 15.5504 41.2768 16.2235C41.9897 16.8213 42.5653 17.5431 43.2827 18.1497C44.31 19.022 45.4967 19.7039 46.7676 20.1556C47.8126 20.5276 48.9506 20.6161 50 20.9836C49.8938 20.9482 48.769 21.9977 48.6052 22.1172C48.096 22.4848 47.5646 22.8169 47.02 23.1224C45.8997 23.7423 44.7041 24.225 43.4687 24.5571C42.3041 24.8715 41.0288 25.1372 39.8155 25.0442C38.5225 24.9379 37.2827 24.5394 36.0561 24.1364V24.1364Z" fill="url(#paint4_linear_1029_1421)"/>
<path opacity="0.2" d="M36.1711 15.3382C36.8398 15.3382 37.5261 15.4799 38.146 15.7411C39.0228 16.1131 39.7888 16.7064 40.4176 17.2378C40.7232 17.4946 41.0198 17.7957 41.3298 18.1146C41.6663 18.46 42.0162 18.8186 42.4191 19.1596C43.5793 20.1382 44.89 20.8954 46.3158 21.4046C46.5328 21.4843 46.7542 21.5463 46.9667 21.6083C46.7719 21.7279 46.5726 21.8474 46.3689 21.9581C45.3416 22.5249 44.2479 22.9677 43.1143 23.2732C42.3217 23.4858 41.2855 23.7338 40.3158 23.7338C40.1785 23.7338 40.0412 23.7293 39.9128 23.7205C38.7571 23.6319 37.5925 23.2511 36.4634 22.8791C34.6523 22.2858 32.4914 20.891 32.3453 18.9116C32.2567 17.7205 33.0051 16.4496 34.1608 15.8253C34.7453 15.5064 35.4405 15.3382 36.1711 15.3382M36.1711 14.0098C35.2545 14.0098 34.3379 14.2135 33.532 14.6518C31.9733 15.4932 30.8929 17.2378 31.0257 19.0046C31.2117 21.5419 33.6383 23.3441 36.056 24.1367C37.2826 24.5397 38.5224 24.9382 39.8154 25.04C39.9837 25.0533 40.1519 25.0577 40.3202 25.0577C41.3741 25.0577 42.4634 24.8231 43.4641 24.5529C44.6996 24.2208 45.8951 23.7382 47.0154 23.1183C47.5645 22.8172 48.0959 22.4806 48.6007 22.1131C48.7601 21.998 49.8494 20.9795 49.9866 20.9795H49.9911C48.9416 20.612 47.8036 20.5234 46.7586 20.1515C45.4877 19.6998 44.3055 19.0179 43.2737 18.1456C42.5608 17.5433 41.9807 16.8171 41.2678 16.2194C40.4708 15.5463 39.625 14.9219 38.6553 14.5146C37.8804 14.1869 37.0257 14.0098 36.1711 14.0098V14.0098Z" fill="#424242"/>
<path d="M33.997 0.162949C33.997 0.162949 36.1623 -0.461406 36.9239 0.734167C37.6856 1.92974 36.8354 8.24414 35.6088 11.3748C34.3822 14.5054 32.1638 16.3563 31.0523 17.1844C29.9409 18.0124 28.7586 15.5504 28.7586 15.5504C28.7586 15.5504 31.8228 12.7076 32.704 10.4272C33.5852 8.14672 33.5896 3.44856 33.5143 1.92088C33.4391 0.393208 33.997 0.162949 33.997 0.162949V0.162949Z" fill="url(#paint5_linear_1029_1421)"/>
<path opacity="0.2" d="M35.2147 1.32841C35.5557 1.32841 35.7372 1.39484 35.7903 1.43469C35.9055 1.80664 35.9719 3.14834 35.6664 5.39336C35.3874 7.46569 34.8915 9.57344 34.3734 10.8886C33.6206 12.8103 32.3409 14.4886 30.5608 15.8878C30.5254 15.848 30.4855 15.8037 30.4457 15.7506C31.4907 14.679 33.2398 12.7085 33.9394 10.9019C35.0996 7.89964 34.8383 1.91292 34.8383 1.85092C34.8295 1.62952 34.8339 1.46568 34.8472 1.34613C34.9667 1.33727 35.0907 1.32841 35.2147 1.32841M35.2147 0C34.5593 0 33.997 0.163838 33.997 0.163838C33.997 0.163838 33.4391 0.394096 33.5143 1.92177C33.5896 3.44945 33.5852 8.14318 32.704 10.4281C31.8228 12.7085 28.7586 15.5513 28.7586 15.5513C28.7586 15.5513 29.6265 17.3535 30.5741 17.3535C30.7335 17.3535 30.8929 17.3004 31.0523 17.1853C32.1638 16.3572 34.3822 14.5063 35.6088 11.3757C36.8354 8.24503 37.6856 1.93063 36.9239 0.735056C36.552 0.150554 35.8435 0 35.2147 0V0Z" fill="#424242"/>
<path d="M21.9305 20.794C24.7866 21.0907 28.121 20.3423 29.4759 17.8139C30.4235 16.0516 30.1091 13.7534 28.887 12.1726C27.6649 10.5874 25.6501 9.71503 23.6531 9.67518C22.4663 9.65304 21.3106 9.90544 20.177 10.2331C19.1674 10.5254 18.2376 11.0036 17.2235 11.2958C15.7623 11.7209 14.2257 11.8803 12.7113 11.7652C11.4626 11.6678 10.2494 11.2383 8.99622 11.1364C9.12463 11.1453 9.79769 12.7482 9.91282 12.9431C10.2671 13.5542 10.6612 14.1431 11.0907 14.7054C11.963 15.8567 12.9726 16.9062 14.0973 17.8139C15.1556 18.673 16.3512 19.532 17.6398 19.9925C19.0169 20.4885 20.4826 20.6435 21.9305 20.794V20.794Z" fill="url(#paint6_linear_1029_1421)"/>
<path opacity="0.2" d="M23.5113 10.9989H23.6309C25.3091 11.0299 26.9209 11.7871 27.8375 12.9782C28.7851 14.2048 28.9755 15.9317 28.3069 17.1804C27.5187 18.6461 25.5748 19.5229 23.1084 19.5229C22.763 19.5229 22.4132 19.5051 22.0678 19.4697C20.7261 19.3324 19.3357 19.1863 18.087 18.7435C16.9224 18.3273 15.7888 17.4815 14.9342 16.7863C13.8936 15.945 12.9593 14.9752 12.1534 13.9081C11.9143 13.5937 11.6884 13.266 11.4715 12.9339C11.8434 13.0003 12.2198 13.0579 12.6139 13.0889C12.9681 13.1155 13.3268 13.1287 13.6811 13.1287C15.0095 13.1287 16.3246 12.9428 17.5999 12.5708C18.1667 12.407 18.6848 12.1989 19.1895 11.9996C19.6589 11.8136 20.1017 11.6365 20.549 11.5081C21.3681 11.269 22.4442 10.9989 23.5113 10.9989M23.5113 9.67044C22.3777 9.67044 21.2663 9.91841 20.1814 10.2284C19.1718 10.5206 18.2419 10.9989 17.2279 11.2911C16.0766 11.6276 14.8811 11.7959 13.6811 11.7959C13.3578 11.7959 13.0346 11.7826 12.7157 11.7605C11.467 11.6631 10.2537 11.2335 9.00061 11.1317C9.12902 11.1406 9.80209 12.7435 9.91722 12.9383C10.2715 13.5494 10.6656 14.1383 11.0951 14.7007C11.9674 15.852 12.977 16.9014 14.1017 17.8092C15.16 18.6682 16.3556 19.5273 17.6442 19.9878C19.0257 20.4793 20.487 20.6343 21.9349 20.7848C22.3202 20.8247 22.7143 20.8468 23.1128 20.8468C25.6545 20.8468 28.3069 19.9922 29.4803 17.8048C30.4279 16.0424 30.1135 13.7442 28.8914 12.1634C27.6693 10.5782 25.6545 9.70587 23.6574 9.66602C23.6087 9.67044 23.56 9.67044 23.5113 9.67044V9.67044Z" fill="#424242"/>
<path d="M28.6656 25.2659C27.2929 22.7419 26.6951 19.381 28.5062 17.1537C29.7682 15.6039 32.0043 15.0017 33.9394 15.5198C35.87 16.0334 37.4553 17.5567 38.2612 19.3855C38.7394 20.4703 38.952 21.6393 39.0848 22.8083C39.2044 23.8489 39.1202 24.894 39.2398 25.9434C39.4125 27.4534 39.8553 28.9368 40.5505 30.2873C41.1217 31.4032 41.9852 32.3596 42.5652 33.4711C42.5077 33.3604 40.7675 33.3515 40.5416 33.3205C39.842 33.2275 39.1468 33.0903 38.4604 32.9176C37.0612 32.5589 35.7062 32.0275 34.4309 31.3456C33.2309 30.7036 31.9778 29.9286 31.0567 28.919C30.0693 27.8342 29.3608 26.5456 28.6656 25.2659V25.2659Z" fill="url(#paint7_linear_1029_1421)"/>
<path opacity="0.2" d="M32.5401 16.6683C32.9032 16.6683 33.2575 16.7125 33.594 16.8055C35.0464 17.1908 36.366 18.3863 37.0435 19.9229C37.4863 20.9325 37.6634 22.0793 37.7652 22.9649C37.8184 23.4255 37.8272 23.9037 37.8361 24.4085C37.8449 24.9487 37.8538 25.5111 37.9202 26.0956C38.1106 27.7782 38.5977 29.3945 39.3682 30.8956C39.5497 31.2454 39.749 31.5731 39.9527 31.8875C39.563 31.8166 39.1734 31.7325 38.7925 31.6351C37.4951 31.303 36.242 30.8114 35.0597 30.1782C34.09 29.6557 32.8722 28.9428 32.0398 28.0262C31.1453 27.0432 30.4767 25.8166 29.8302 24.6343C28.7763 22.6993 28.0678 19.8033 29.5335 17.9967C30.211 17.1598 31.3313 16.6683 32.5401 16.6683M32.5401 15.3398C31.008 15.3398 29.4715 15.9686 28.5062 17.1553C26.6951 19.3827 27.2929 22.748 28.6656 25.2675C29.3608 26.5472 30.0693 27.8358 31.0567 28.9207C31.9778 29.9347 33.2353 30.7052 34.4309 31.3472C35.7062 32.0292 37.0612 32.5605 38.4604 32.9192C39.1468 33.0963 39.842 33.2292 40.5416 33.3221C40.7675 33.3531 42.5077 33.3576 42.5652 33.4727C41.9852 32.3568 41.1217 31.4048 40.5505 30.2889C39.8553 28.934 39.4125 27.455 39.2398 25.945C39.1202 24.8956 39.2044 23.855 39.0848 22.81C38.9475 21.641 38.735 20.472 38.2612 19.3871C37.4553 17.5583 35.87 16.035 33.9394 15.5214C33.4833 15.3974 33.0095 15.3398 32.5401 15.3398V15.3398Z" fill="#424242"/>
<path d="M8.81296 18.9891C9.1881 18.5345 9.27508 17.9868 9.00723 17.7657C8.73938 17.5447 8.21814 17.734 7.843 18.1886C7.46787 18.6432 7.38089 19.1909 7.64874 19.4119C7.91658 19.633 8.43783 19.4436 8.81296 18.9891Z" fill="#FFFDE7"/>
<path d="M6.1654 29.4804C6.24453 28.9408 6.05172 28.4657 5.73475 28.4193C5.41778 28.3728 5.09668 28.7725 5.01755 29.3121C4.93842 29.8517 5.13122 30.3267 5.44819 30.3732C5.76516 30.4197 6.08627 30.02 6.1654 29.4804Z" fill="#FFFDE7"/>
<path d="M15.8598 22.8843C16.2071 22.8843 16.4886 22.4065 16.4886 21.8172C16.4886 21.2278 16.2071 20.75 15.8598 20.75C15.5125 20.75 15.231 21.2278 15.231 21.8172C15.231 22.4065 15.5125 22.8843 15.8598 22.8843Z" fill="#FFFDE7"/>
<path d="M12.8591 27.0292C12.9605 26.4859 12.7835 25.9971 12.4638 25.9374C12.144 25.8778 11.8027 26.2699 11.7013 26.8131C11.5999 27.3564 11.777 27.8452 12.0967 27.9049C12.4164 27.9645 12.7578 27.5725 12.8591 27.0292Z" fill="#FFFDE7"/>
<path d="M11.5487 35.6273C11.7644 35.0789 11.6773 34.5312 11.3541 34.4041C11.0309 34.277 10.5941 34.6186 10.3784 35.1671C10.1627 35.7155 10.2498 36.2632 10.5729 36.3903C10.8961 36.5174 11.333 36.1758 11.5487 35.6273Z" fill="#FFFDE7"/>
<path d="M18.8161 31.5551C19.0318 31.0066 18.9447 30.4589 18.6215 30.3318C18.2983 30.2047 17.8615 30.5463 17.6458 31.0948C17.4301 31.6433 17.5172 32.1909 17.8403 32.318C18.1635 32.4451 18.6003 32.1035 18.8161 31.5551Z" fill="#FFFDE7"/>
<path d="M18.1784 40.5082C18.3941 39.9597 18.307 39.4121 17.9839 39.285C17.6607 39.1579 17.2238 39.4994 17.0081 40.0479C16.7924 40.5964 16.8795 41.1441 17.2027 41.2711C17.5259 41.3982 17.9627 41.0567 18.1784 40.5082Z" fill="#FFFDE7"/>
<path d="M14.91 47.3948C15.3674 47.0232 15.5607 46.5034 15.3417 46.2339C15.1227 45.9644 14.5744 46.0472 14.117 46.4188C13.6596 46.7905 13.4663 47.3103 13.6853 47.5798C13.9043 47.8493 14.4526 47.7665 14.91 47.3948Z" fill="#FFFDE7"/>
<path d="M23.3737 45.5081C23.8312 45.1365 24.0244 44.6167 23.8055 44.3472C23.5865 44.0777 23.0381 44.1605 22.5807 44.5321C22.1233 44.9038 21.93 45.4236 22.149 45.6931C22.368 45.9626 22.9163 45.8798 23.3737 45.5081Z" fill="#FFFDE7"/>
<path d="M24.5677 39.8641C25.0781 39.5694 25.3511 39.0867 25.1775 38.786C25.0039 38.4852 24.4493 38.4803 23.9389 38.775C23.4285 39.0697 23.1555 39.5524 23.3292 39.8531C23.5028 40.1539 24.0573 40.1588 24.5677 39.8641Z" fill="#FFFDE7"/>
<path d="M24.5211 32.8456C24.9378 32.4288 25.0766 31.8919 24.831 31.6464C24.5855 31.4008 24.0486 31.5396 23.6318 31.9563C23.2151 32.3731 23.0763 32.91 23.3219 33.1555C23.5674 33.4011 24.1043 33.2623 24.5211 32.8456Z" fill="#FFFDE7"/>
<path d="M26.8431 26.1824C27.1189 25.6615 27.0936 25.1075 26.7867 24.945C26.4798 24.7825 26.0075 25.0731 25.7317 25.594C25.4559 26.1148 25.4812 26.6688 25.7881 26.8313C26.095 26.9938 26.5674 26.7033 26.8431 26.1824Z" fill="#FFFDE7"/>
<path d="M9.1278 46.3507C9.46506 46.2679 9.62457 45.7368 9.48406 45.1644C9.34355 44.592 8.95624 44.195 8.61897 44.2778C8.28171 44.3606 8.1222 44.8918 8.26271 45.4642C8.40322 46.0366 8.79053 46.4335 9.1278 46.3507Z" fill="#FFFDE7"/>
<path d="M5.64939 38.2748C5.9547 38.1626 6.04837 37.6529 5.85859 37.1364C5.66881 36.6199 5.26745 36.2921 4.96213 36.4043C4.65681 36.5165 4.56315 37.0261 4.75293 37.5427C4.94271 38.0592 5.34407 38.387 5.64939 38.2748Z" fill="#FFFDE7"/>
<defs>
<radialGradient id="paint0_radial_1029_1421" cx="0" cy="0" r="1" gradientUnits="userSpaceOnUse" gradientTransform="translate(13.8772 20.1049) rotate(58.5285) scale(27.2827 40.1859)">
<stop stop-color="#FF9E96"/>
<stop offset="0.3108" stop-color="#FF574A"/>
<stop offset="0.4276" stop-color="#FA4E43"/>
<stop offset="0.6133" stop-color="#EB3732"/>
<stop offset="0.7689" stop-color="#DB1F1F"/>
<stop offset="0.996" stop-color="#ED2121"/>
</radialGradient>
<linearGradient id="paint1_linear_1029_1421" x1="44.7217" y1="10.5092" x2="30.1508" y2="19.008" gradientUnits="userSpaceOnUse">
<stop offset="0.00729" stop-color="#AED581"/>
<stop offset="0.3315" stop-color="#8EBD60"/>
<stop offset="0.6783" stop-color="#73A743"/>
<stop offset="0.8765" stop-color="#689F38"/>
</linearGradient>
<linearGradient id="paint2_linear_1029_1421" x1="29.4343" y1="1.05798" x2="30.3447" y2="17.6005" gradientUnits="userSpaceOnUse">
<stop offset="0.00729" stop-color="#AED581"/>
<stop offset="0.3315" stop-color="#8EBD60"/>
<stop offset="0.6783" stop-color="#73A743"/>
<stop offset="0.8765" stop-color="#689F38"/>
</linearGradient>
<linearGradient id="paint3_linear_1029_1421" x1="15.7725" y1="4.51274" x2="29.8869" y2="15.3641" gradientUnits="userSpaceOnUse">
<stop offset="0.00729" stop-color="#AED581"/>
<stop offset="0.3315" stop-color="#8EBD60"/>
<stop offset="0.6783" stop-color="#73A743"/>
<stop offset="0.8765" stop-color="#689F38"/>
</linearGradient>
<linearGradient id="paint4_linear_1029_1421" x1="31.5988" y1="16.5359" x2="48.1582" y2="24.7067" gradientUnits="userSpaceOnUse">
<stop offset="0.1235" stop-color="#689F38"/>
<stop offset="0.3217" stop-color="#73A743"/>
<stop offset="0.6685" stop-color="#8EBD60"/>
<stop offset="0.9927" stop-color="#AED581"/>
</linearGradient>
<linearGradient id="paint5_linear_1029_1421" x1="28.7626" y1="8.67764" x2="37.2179" y2="8.67764" gradientUnits="userSpaceOnUse">
<stop offset="0.1235" stop-color="#689F38"/>
<stop offset="0.3217" stop-color="#73A743"/>
<stop offset="0.6685" stop-color="#8EBD60"/>
<stop offset="0.9927" stop-color="#AED581"/>
</linearGradient>
<linearGradient id="paint6_linear_1029_1421" x1="9.92345" y1="11.9366" x2="28.7422" y2="16.869" gradientUnits="userSpaceOnUse">
<stop offset="0.00729" stop-color="#AED581"/>
<stop offset="0.3315" stop-color="#8EBD60"/>
<stop offset="0.6783" stop-color="#73A743"/>
<stop offset="0.8765" stop-color="#689F38"/>
</linearGradient>
<linearGradient id="paint7_linear_1029_1421" x1="27.59" y1="18.3769" x2="44.4391" y2="30.9722" gradientUnits="userSpaceOnUse">
<stop offset="0.1235" stop-color="#689F38"/>
<stop offset="0.3217" stop-color="#73A743"/>
<stop offset="0.6685" stop-color="#8EBD60"/>
<stop offset="0.9927" stop-color="#AED581"/>
</linearGradient>
</defs>
</svg>
