<svg width="50" height="50" viewBox="0 0 50 50" fill="none" xmlns="http://www.w3.org/2000/svg">
<path d="M49.996 31.7024L42.5 25.0516C42.5079 25.0119 42.5159 24.9722 42.5238 24.9325L50 18.3095L40.1468 16.2897L40.119 16.2421L43.2937 6.69841L33.7619 9.88095L33.7143 9.84921L31.6905 0L25.004 7.55159H24.996L18.2976 0.00396825L16.2817 9.87698C16.2738 9.88095 16.2659 9.88492 16.2579 9.88889L6.70635 6.69841L9.88095 16.2421C9.86508 16.2579 9.85318 16.2778 9.8373 16.2937L0.00396825 18.2976L7.54365 24.9921L7.53968 25.0119L0 31.6905L9.87698 33.7183L9.88492 33.7341L6.70238 43.3016L16.246 40.1151L16.2857 40.1468L18.3095 50L24.9921 42.4563H25.0119L31.7064 49.996L33.7183 40.131L33.746 40.1151L43.3056 43.2976L40.123 33.7619L40.1508 33.7143L49.996 31.7024Z" fill="#FFB300"/>
<path d="M49.996 31.7024L42.5 25.0516C42.5079 25.0119 42.5159 24.9722 42.5238 24.9325L50 18.3095L40.1468 16.2897L40.119 16.2421L43.2937 6.69841L33.7619 9.88095L33.7143 9.84921L31.6905 0L25.004 7.55159H24.996L18.2976 0.00396825L16.2817 9.87698C16.2738 9.88095 16.2659 9.88492 16.2579 9.88889L6.70635 6.69841L9.88095 16.2421C9.86508 16.2579 9.85318 16.2778 9.8373 16.2937L0.00396825 18.2976L7.54365 24.9921L7.53968 25.0119L0 31.6905L9.87698 33.7183L9.88492 33.7341L6.70238 43.3016L16.246 40.1151L16.2857 40.1468L18.3095 50L24.9921 42.4563H25.0119L31.7064 49.996L33.7183 40.131L33.746 40.1151L43.3056 43.2976L40.123 33.7619L40.1508 33.7143L49.996 31.7024Z" fill="url(#paint0_radial_1029_1280)"/>
<path d="M25 41.8488C34.3055 41.8488 41.8492 34.3052 41.8492 24.9996C41.8492 15.694 34.3055 8.15039 25 8.15039C15.6944 8.15039 8.15076 15.694 8.15076 24.9996C8.15076 34.3052 15.6944 41.8488 25 41.8488Z" fill="#FFB300"/>
<path d="M25 41.8488C34.3055 41.8488 41.8492 34.3052 41.8492 24.9996C41.8492 15.694 34.3055 8.15039 25 8.15039C15.6944 8.15039 8.15076 15.694 8.15076 24.9996C8.15076 34.3052 15.6944 41.8488 25 41.8488Z" fill="url(#paint1_radial_1029_1280)"/>
<path d="M18.1746 23.596C19.3252 23.596 20.258 22.4999 20.258 21.1476C20.258 19.7954 19.3252 18.6992 18.1746 18.6992C17.024 18.6992 16.0913 19.7954 16.0913 21.1476C16.0913 22.4999 17.024 23.596 18.1746 23.596Z" fill="#5D4037"/>
<path d="M31.8254 23.596C32.976 23.596 33.9087 22.4999 33.9087 21.1476C33.9087 19.7954 32.976 18.6992 31.8254 18.6992C30.6748 18.6992 29.7421 19.7954 29.7421 21.1476C29.7421 22.4999 30.6748 23.596 31.8254 23.596Z" fill="#5D4037"/>
<path d="M29.6865 29.6319C29.0119 30.0724 27.5794 31.1081 24.9961 31.1081C22.4127 31.1081 20.8691 30.1002 20.2381 29.5803C19.9484 29.3383 19.5794 29.1438 19.3096 29.3462C19.0397 29.5486 18.9881 29.9613 19.1786 30.2549C19.9088 31.3859 21.8413 33.0843 24.9921 33.1398C28.1429 33.0843 30.0754 31.3859 30.8056 30.2549C30.9643 30.0089 30.9802 29.6557 30.7937 29.4652C30.5516 29.2113 30.0992 29.3621 29.6865 29.6319V29.6319Z" fill="#5D4037"/>
<path d="M22.9721 27.1907C22.4205 26.6272 22.9285 26.3296 23.5356 26.5002C24.3015 26.7145 25.5237 26.6113 25.8412 25.9843C26.4444 24.778 25.6904 24.0954 24.7539 22.0081C23.7777 19.8256 25.0039 17.4486 26.4205 17.3256C27.5555 17.2304 27.1785 17.77 26.8213 18.0002C26.1269 18.4526 25.3928 19.9566 26.5158 21.6391C28.4285 24.5002 28.4285 25.8534 27.4404 27.2185C26.8015 28.0994 24.5237 28.782 22.9721 27.1907V27.1907Z" fill="#DE7321"/>
<path opacity="0.65" d="M19.5952 28.1304C18.9484 29.6899 16.7976 30.2812 14.7857 29.4518C12.7778 28.6225 11.6706 26.682 12.3175 25.1225C12.9643 23.5629 15.1151 22.9717 17.127 23.801C19.1349 24.6304 20.2421 26.5709 19.5952 28.1304Z" fill="url(#paint2_radial_1029_1280)"/>
<path opacity="0.65" d="M30.4049 28.1304C31.0517 29.6899 33.2025 30.2812 35.2144 29.4518C37.2223 28.6225 38.3295 26.682 37.6826 25.1225C37.0358 23.5629 34.885 22.9717 32.8731 23.801C30.8652 24.6304 29.758 26.5709 30.4049 28.1304Z" fill="url(#paint3_radial_1029_1280)"/>
<defs>
<radialGradient id="paint0_radial_1029_1280" cx="0" cy="0" r="1" gradientUnits="userSpaceOnUse" gradientTransform="translate(25 25) scale(29.9526)">
<stop offset="0.5558" stop-color="#FFB604"/>
<stop offset="0.6908" stop-color="#FEC61B"/>
<stop offset="0.8224" stop-color="#FDD835"/>
</radialGradient>
<radialGradient id="paint1_radial_1029_1280" cx="0" cy="0" r="1" gradientUnits="userSpaceOnUse" gradientTransform="translate(25.8521 39.6507) scale(26.4166 28.7307)">
<stop offset="0.6937" stop-color="#FFB604"/>
<stop offset="0.8488" stop-color="#FEC61B"/>
<stop offset="1" stop-color="#FDD835"/>
</radialGradient>
<radialGradient id="paint2_radial_1029_1280" cx="0" cy="0" r="1" gradientUnits="userSpaceOnUse" gradientTransform="translate(16.6194 24.2862) rotate(-156.799) scale(4.99157 4.92411)">
<stop stop-color="#EF6C00"/>
<stop offset="1" stop-color="#EF6C00" stop-opacity="0"/>
</radialGradient>
<radialGradient id="paint3_radial_1029_1280" cx="0" cy="0" r="1" gradientUnits="userSpaceOnUse" gradientTransform="translate(33.3769 24.3119) rotate(-23.2014) scale(4.99157 4.92411)">
<stop stop-color="#EF6C00"/>
<stop offset="1" stop-color="#EF6C00" stop-opacity="0"/>
</radialGradient>
</defs>
</svg>
