<svg width="50" height="62" viewBox="0 0 50 62" fill="none" xmlns="http://www.w3.org/2000/svg">
<path d="M18.3578 26.6704C18.0141 26.5575 18.0962 26.7114 17.6447 26.8192C17.4446 26.8654 17.1726 26.7781 16.9058 26.8448C16.6904 26.9013 16.439 26.8961 16.1876 26.968C15.9669 27.0295 15.7874 27.2861 15.5462 27.3579C15.3256 27.4246 15.0896 27.4862 14.8536 27.5631C14.633 27.635 14.3456 27.5477 14.1096 27.6298C13.889 27.7068 13.6479 27.7735 13.417 27.8556C13.1964 27.9377 13.1348 28.4559 12.909 28.5431C12.6884 28.6303 12.3908 28.5277 12.1651 28.62C11.9445 28.7124 11.7803 28.9279 11.5545 29.0305C11.3391 29.128 10.9799 28.9279 10.7593 29.0356C10.5438 29.1382 10.4668 29.5282 10.2514 29.6359C10.0359 29.7437 9.74854 29.7129 9.53819 29.8309C9.32783 29.9489 9.01999 29.9078 8.81476 30.031C8.60953 30.1541 8.63519 30.6415 8.44022 30.7698C8.24013 30.9032 7.80402 30.6928 7.61418 30.8314C7.41922 30.975 7.43974 31.3855 7.26016 31.5343C7.07546 31.6882 6.97285 31.9139 6.7984 32.073C6.61883 32.2372 6.24942 32.1859 6.08524 32.35C5.91593 32.5194 5.74661 32.6887 5.59269 32.8631C5.43364 33.0427 5.29511 33.2377 5.14632 33.4224C4.99753 33.6122 4.9411 33.8636 4.80257 34.0534C4.66404 34.2484 4.31002 34.3048 4.18689 34.4998C4.05862 34.705 4.32028 35.1411 4.20228 35.3412C4.08427 35.5516 3.55581 35.5362 3.44807 35.7414C3.34032 35.9569 3.5199 36.3109 3.42755 36.5213C3.33006 36.747 3.09918 36.9061 3.01709 37.1165C2.92987 37.3473 3.16075 37.6706 3.08892 37.8861C3.01709 38.1067 2.54507 38.2811 2.56559 38.5274C2.58098 38.748 2.83239 38.9686 2.92474 39.2046C3.0017 39.415 3.23258 39.5484 3.37111 39.7588C3.48911 39.9486 3.34032 40.3642 3.50451 40.554C3.6533 40.7233 4.08427 40.6412 4.26898 40.8054C4.43829 40.9542 4.53064 41.2107 4.73074 41.3544C4.91544 41.4878 5.13606 41.5801 5.34642 41.7084C5.54139 41.8315 5.69018 42.0419 5.90566 42.1548C6.10576 42.2625 6.41873 42.1599 6.64448 42.2625C6.85484 42.36 6.98824 42.6319 7.21912 42.7243C7.43461 42.8115 7.58853 43.0937 7.81428 43.1758C8.0349 43.2527 8.34787 43.0732 8.57875 43.145C8.79937 43.2117 9.06103 43.1604 9.29705 43.222C9.5228 43.2784 9.7075 43.3554 9.94351 43.3451C10.1693 43.3348 10.3232 43.1399 10.5541 43.068C10.7644 43.0013 11.021 43.0988 11.2364 42.986C11.4314 42.8833 11.6572 42.8218 11.8573 42.6884C12.042 42.5652 12.0779 42.242 12.2626 42.0932C12.437 41.9547 12.8988 42.1343 13.0732 41.9752C13.2374 41.8213 13.3605 41.6058 13.5247 41.4365C13.6838 41.2723 13.848 41.103 14.007 40.9286C14.1558 40.7592 14.3559 40.6156 14.5047 40.436C14.6483 40.2616 14.479 39.8255 14.6227 39.6407C14.7664 39.4612 15.0793 39.415 15.2179 39.2252C15.3564 39.0405 15.5154 38.8711 15.6488 38.6813C15.7822 38.4966 16.0285 38.3837 16.1568 38.1888C16.285 37.9989 16.1003 37.5936 16.2286 37.3986C16.3569 37.2037 16.8751 37.2652 16.9982 37.0703C17.1213 36.8753 16.8391 36.4238 16.9623 36.2288C17.0854 36.0288 17.1983 35.8287 17.3163 35.6337C17.4343 35.4336 17.8909 35.4336 18.0089 35.2386C18.1269 35.0385 18.2398 34.8333 18.3578 34.6332C18.4758 34.428 18.2655 34.0483 18.3784 33.8482C18.4912 33.643 18.9427 33.6276 19.0505 33.4275C19.1633 33.2223 19.0556 32.899 19.1633 32.6938C19.2762 32.4834 19.2352 32.2013 19.3378 32.0012C19.4507 31.7908 19.8714 31.7498 19.974 31.5497C20.0817 31.3342 20.015 31.0417 20.1125 30.8416C20.2203 30.621 20.5127 30.5081 20.6102 30.3132C20.7179 30.0874 20.5127 29.7283 20.5999 29.5384C20.7128 29.2973 21.2105 29.2768 21.2926 29.1023C21.4773 28.7021 21.8056 28.4713 21.5748 28.2147C21.3439 27.9582 21.0771 28.225 20.7744 28.0557C20.4717 27.8864 20.5178 27.8043 20.2151 27.635C19.9124 27.4656 19.9689 27.3682 19.6662 27.1988C19.3634 27.0295 19.1172 27.4349 18.8247 27.245C18.5323 27.0398 18.6862 26.7833 18.3578 26.6704V26.6704Z" fill="url(#paint0_linear_1029_2835)"/>
<path d="M4.49487 40.8671C4.27425 40.9543 4.14598 41.2724 3.90997 41.4109C3.70475 41.5341 3.28403 41.3853 3.07367 41.5443C2.87871 41.6931 2.73505 41.9497 2.54008 42.1241C2.36051 42.2934 2.3092 42.6064 2.13476 42.7962C1.97057 42.9809 1.76022 43.14 1.6063 43.3452C1.45751 43.5453 1.39594 43.807 1.26254 44.0276C1.12914 44.2379 1.03166 44.4688 0.918784 44.6997C0.805909 44.9255 0.590421 45.105 0.503199 45.3462C0.415978 45.5822 0.400586 45.8438 0.333887 46.0901C0.267188 46.3313 0.349279 46.5981 0.303103 46.8495C0.262058 47.0957 0.0363076 47.3163 0.0209156 47.5729C0.00552353 47.8192 0.0260461 48.0757 0.0363075 48.3374C0.0465688 48.5836 0.0465689 48.8453 0.0824837 49.0967C0.118398 49.343 0.467285 49.5225 0.528853 49.7739C0.590421 50.0254 0.636598 50.2562 0.703297 50.4871C0.775126 50.7334 0.590421 51.0464 0.667382 51.2721C0.754603 51.5133 0.836694 51.7493 0.934177 51.9648C1.03679 52.2008 1.00601 52.4983 1.11888 52.7087C1.24202 52.9344 1.31898 53.2012 1.45238 53.4013C1.59603 53.6117 1.91927 53.6938 2.07832 53.8734C2.2425 54.0632 2.40668 54.253 2.58626 54.4172C2.76583 54.5814 2.85305 54.8892 3.05315 55.038C3.24811 55.1817 3.4636 55.3459 3.67909 55.4741C3.88432 55.5973 4.34095 55.2843 4.5667 55.4023C4.78219 55.51 4.90532 55.8128 5.1362 55.9154C5.35682 56.0129 5.63388 55.9769 5.86989 56.0693C6.09564 56.1565 6.19826 56.5772 6.4394 56.6645C6.66515 56.7465 7.01403 56.5208 7.25518 56.608C7.4758 56.6901 7.6605 56.921 7.9119 56.9826C8.14278 57.0339 8.3634 57.275 8.61994 57.3109C8.85595 57.3417 9.1484 56.9107 9.3998 56.9261C9.64094 56.9415 9.88208 57.3981 10.1335 57.393C10.3746 57.3879 10.6106 57.0236 10.862 57.0082C11.1032 56.9928 11.3341 56.8594 11.5803 56.8286C11.8215 56.7979 12.1139 57.0698 12.3602 57.0287C12.6013 56.9877 12.8527 56.9466 13.0939 56.8902C13.335 56.8338 13.571 56.7517 13.8122 56.685C14.0482 56.6183 14.2534 56.4336 14.4894 56.3515C14.7254 56.2745 15.0589 56.4438 15.2898 56.3515C15.5207 56.2591 15.5566 55.7204 15.7824 55.6178C16.0081 55.5152 16.4545 55.8538 16.67 55.7409C16.8906 55.6229 16.9419 55.2073 17.1523 55.0739C17.3626 54.9457 17.6602 54.9457 17.8603 54.8071C18.0655 54.6686 18.0655 54.2428 18.2605 54.0991C18.4606 53.9503 18.9531 54.1812 19.143 54.0273C19.3379 53.8682 19.3892 53.545 19.5739 53.3808C19.7638 53.2166 19.8356 52.9344 20.0152 52.7651C20.1999 52.5907 20.6565 52.7036 20.8258 52.5291C21.0054 52.3496 20.8977 51.8981 21.0567 51.7236C21.2312 51.5338 21.5031 51.4466 21.657 51.267C21.8263 51.072 21.9392 50.8463 22.088 50.6616C22.2573 50.4563 22.4984 50.3281 22.6318 50.1485C22.8011 49.9227 22.7498 49.579 22.8678 49.4045C23.1346 49.0249 23.4733 49.2609 23.4527 48.8966C23.4271 48.5169 23.5707 48.4656 23.4733 48.0962C23.3758 47.7319 23.0987 47.8038 23.0012 47.4395C22.9038 47.0752 22.7755 47.106 22.678 46.7417C22.5805 46.3723 22.6421 46.3569 22.5395 45.9926C22.442 45.6284 22.2727 45.6694 22.1752 45.3051C22.0777 44.9357 22.2676 44.8844 22.1649 44.5201C22.0675 44.1507 22.129 44.1353 22.0264 43.7659C21.9289 43.3965 21.6827 43.4632 21.5852 43.0989C21.4877 42.7295 21.9443 42.6064 21.8417 42.237C21.7442 41.8676 21.6673 41.8881 21.5698 41.5187C21.4723 41.1493 21.5595 41.0672 21.3594 40.7388C21.1593 40.4156 20.9797 40.5746 20.4975 40.5233C20.282 40.4977 19.9844 40.9081 19.6919 40.8773C19.4611 40.8517 19.2302 40.5952 18.9583 40.5695C18.7171 40.549 18.4657 40.4977 18.1989 40.472C17.9578 40.4515 17.7115 40.2873 17.4498 40.2668C17.2036 40.2463 16.9214 40.6362 16.6597 40.6157C16.4134 40.6003 16.1928 40.0821 15.9312 40.0667C15.6798 40.0513 15.3976 40.549 15.141 40.5336C14.8896 40.5182 14.6382 40.5182 14.3817 40.5028C14.1303 40.4925 13.8943 40.0667 13.6377 40.0564C13.3863 40.0462 13.1298 40.041 12.8733 40.0359C12.6219 40.0308 12.3551 40.4207 12.1037 40.4156C11.8471 40.4105 11.5957 40 11.3443 40C11.0878 40 10.8364 40.2668 10.5799 40.2719C10.3233 40.2771 10.0771 40.4618 9.82565 40.472C9.56911 40.4823 9.30232 40.1129 9.05092 40.1231C8.79438 40.1385 8.55324 40.3643 8.30184 40.3797C8.04017 40.4002 7.76824 40.2001 7.52197 40.2257C7.26031 40.2514 7.05508 40.6516 6.81394 40.6875C6.55227 40.7234 6.22391 40.3027 5.98277 40.354C5.7211 40.4053 5.44918 40.4258 5.21316 40.4925C4.93611 40.5695 4.71549 40.7799 4.49487 40.8671V40.8671Z" fill="url(#paint1_linear_1029_2835)"/>
<path d="M18.25 28.6876C18.014 28.9543 18.0705 28.8876 17.8447 29.2827C17.7472 29.4572 17.6446 29.6778 17.5163 29.9189C17.4137 30.1088 17.1675 30.2524 17.0546 30.4833C16.952 30.6834 17.0238 30.9861 16.9161 31.2118C16.8186 31.4171 16.598 31.5813 16.5005 31.807C16.4081 32.0174 16.6647 32.3868 16.5723 32.6125C16.4851 32.828 16.1465 32.946 16.0592 33.1718C15.9771 33.3873 15.9566 33.6335 15.8745 33.8644C15.7976 34.085 15.5154 34.2441 15.4384 34.4698C15.3666 34.6905 15.4641 34.9778 15.3974 35.2086C15.3307 35.4344 15.4333 35.7063 15.3717 35.9372C15.3102 36.163 15.1254 36.3631 15.069 36.5939C15.0177 36.8248 15.1049 37.0813 15.0587 37.3174C15.0126 37.5482 14.6893 37.7329 14.6534 37.969C14.6175 38.205 14.4995 38.4307 14.4687 38.6719C14.4379 38.9079 14.7663 39.1798 14.7458 39.4209C14.7253 39.6569 14.6021 39.8827 14.5919 40.1238C14.5816 40.3599 14.5405 40.5959 14.5405 40.837C14.5405 41.073 14.4687 41.3142 14.479 41.5553C14.4892 41.7913 14.3815 42.0478 14.402 42.2839C14.4277 42.5199 14.4277 42.7713 14.4636 43.0073C14.4995 43.2433 14.9459 43.4023 14.9972 43.6384C15.0485 43.8692 14.9767 44.1258 15.0382 44.3567C15.0998 44.5824 14.9664 44.8492 15.0228 45.0749C15.0741 45.3007 15.3358 45.4751 15.3922 45.7009C15.4487 45.9215 15.1819 46.2396 15.2537 46.4654C15.3204 46.6809 15.4897 46.8861 15.5821 47.1067C15.6642 47.3119 15.9207 47.4607 16.0336 47.6711C16.1362 47.866 16.208 48.0969 16.3465 48.297C16.4697 48.4817 16.6852 48.61 16.8391 48.7998C16.9828 48.9691 17.1469 49.1231 17.3162 49.2975C17.4702 49.4565 17.5574 49.6977 17.7421 49.8619C17.9063 50.0107 18.1269 50.1081 18.3219 50.2569C18.4963 50.3955 18.758 50.4262 18.9529 50.5648C19.1376 50.693 19.2249 50.9752 19.425 51.1035C19.6148 51.2266 19.8251 51.3292 20.0304 51.4524C20.2356 51.5755 20.4306 51.7089 20.6358 51.8218C20.8462 51.9347 21.1848 51.7859 21.3951 51.8885C21.6106 51.9962 21.8107 52.0989 22.0262 52.1963C22.2468 52.2938 22.3648 52.6171 22.5803 52.6991C22.8009 52.7864 23.0267 52.8685 23.2473 52.9454C23.4731 53.0224 23.6578 53.2379 23.8835 53.2994C24.1144 53.3661 24.335 53.4944 24.5608 53.5457C24.7917 53.6021 25.0738 53.4585 25.3047 53.4995C25.5407 53.5457 25.7716 53.5919 26.0076 53.6227C26.2436 53.6534 26.4643 53.8535 26.7003 53.8741C26.9363 53.8946 27.1825 53.9254 27.4186 53.9356C27.6546 53.9459 27.8957 53.4841 28.1317 53.4841C28.3677 53.479 28.6089 53.6791 28.8449 53.6637C29.0809 53.6483 29.3015 53.4944 29.5375 53.4687C29.7735 53.4431 30.0557 53.7355 30.2866 53.6996C30.5226 53.6586 30.6971 53.3097 30.9279 53.2584C31.1588 53.2071 31.4256 53.3148 31.6565 53.2533C31.8874 53.1917 32.1696 53.3046 32.3953 53.2276C32.6211 53.1558 32.7032 52.6735 32.9238 52.5914C33.1444 52.5093 33.5241 52.812 33.7396 52.7197C33.9602 52.6273 34.0371 52.222 34.2475 52.1194C34.463 52.0168 34.6169 51.8167 34.8221 51.7038C35.0325 51.5909 35.3814 51.7294 35.5815 51.6063C35.7867 51.4832 35.9919 51.36 36.1869 51.2318C36.3819 51.0984 36.5717 50.9444 36.7564 50.8059C36.9462 50.6623 37.0694 50.4314 37.2489 50.2826C37.4336 50.1338 37.7877 50.1748 37.9621 50.0158C38.1417 49.8567 38.0032 49.3642 38.1673 49.2C38.3367 49.0307 38.8395 49.1898 38.9985 49.0204C39.1627 48.846 39.0806 48.4561 39.2294 48.2714C39.3833 48.0867 39.6501 47.9943 39.7886 47.8096C39.9323 47.6198 39.7989 47.2401 39.9272 47.0451C40.0606 46.845 40.5736 46.8861 40.6865 46.6809C40.8045 46.4756 40.7429 46.1627 40.8507 45.9574C40.9584 45.7419 40.9174 45.47 41.0046 45.2545C41.097 45.0339 41.5331 44.9364 41.5998 44.7158C41.6716 44.4849 41.3843 44.1566 41.4356 43.9308C41.4869 43.6948 41.6613 43.4947 41.6921 43.2638C41.7229 43.0278 41.6819 42.7867 41.6819 42.5558C41.6819 42.3146 41.7793 42.0735 41.7486 41.8426C41.7178 41.6066 41.4458 41.427 41.3843 41.2013C41.3278 40.9961 41.4664 40.719 41.4151 40.4779C41.3689 40.2624 41.5382 40.0007 41.492 39.7647C41.451 39.5492 41.1534 39.3645 41.1124 39.1285C41.0764 38.9079 40.9225 38.6975 40.8866 38.4615C40.8558 38.2409 40.8815 38.0049 40.8456 37.7689C40.8148 37.5431 40.6198 37.343 40.5839 37.1121C40.5531 36.8864 40.7019 36.635 40.666 36.4041C40.6301 36.1783 40.6557 35.9423 40.6198 35.7115C40.5839 35.4857 40.312 35.301 40.276 35.0753C40.235 34.8495 40.6352 34.5468 40.589 34.3159C40.548 34.0902 40.43 33.8747 40.3838 33.6489C40.3376 33.4232 40.2966 33.1923 40.2453 32.9717C40.194 32.7459 40.194 32.5048 40.1375 32.2842C40.0811 32.0584 39.6245 31.9404 39.5629 31.7198C39.5013 31.4992 39.6501 31.217 39.5834 30.9964C39.5167 30.7757 39.4705 30.5449 39.3936 30.3294C39.3166 30.1088 39.3679 29.842 39.2858 29.6265C39.2037 29.411 38.7625 29.3443 38.6701 29.1339C38.5778 28.9236 38.9062 28.5131 38.8035 28.3079C38.7009 28.0975 38.1673 28.118 38.0596 27.9179C37.9467 27.7179 37.8287 27.5331 37.7056 27.3382C37.5773 27.1381 37.7723 26.7276 37.6337 26.5429C37.4952 26.3531 37.3362 26.1633 37.1822 25.9888C37.0283 25.8144 36.6025 25.8965 36.4332 25.7374C36.2639 25.5732 36.3459 25.132 36.1664 24.9832C35.9868 24.8344 35.643 24.896 35.4532 24.7626C35.2582 24.6292 34.9863 24.66 34.7811 24.5471C34.5759 24.4342 34.5348 24.0135 34.3193 23.916C34.109 23.8237 33.8165 23.916 33.5959 23.8391C33.3753 23.7621 33.2162 23.4953 32.9853 23.4337C32.7596 23.3773 32.4672 23.6646 32.2311 23.6236C32.0054 23.5825 31.8309 23.1156 31.5949 23.09C31.3641 23.0695 31.1178 23.013 30.8818 23.0079C30.6509 23.0028 30.4097 23.2644 30.1737 23.2747C29.9429 23.2849 29.7017 23.2029 29.4657 23.2285C29.2348 23.249 28.9834 23.1669 28.7474 23.2029C28.5217 23.2388 28.3729 23.7211 28.142 23.7724C27.9162 23.8185 27.634 23.6133 27.4083 23.6749C27.1877 23.7313 27.0235 24.0032 26.7977 24.0699C26.5771 24.1366 26.3616 24.1931 26.1359 24.27C25.9204 24.347 25.6074 24.1726 25.3868 24.2598C25.1713 24.3419 24.9969 24.5368 24.7814 24.6292C24.571 24.7215 24.3812 24.8652 24.1708 24.9678C23.9656 25.0653 23.7501 25.1628 23.5398 25.2705C23.3345 25.3783 23.0216 25.291 22.8163 25.409C22.6162 25.5219 22.4777 25.7579 22.2725 25.8811C22.0724 25.9991 22.0108 26.3377 21.8107 26.466C21.6158 26.5891 21.1437 26.2864 20.9488 26.4147C20.7538 26.5429 20.7281 26.9226 20.5332 27.056C20.3433 27.1843 20.1535 27.3228 19.9585 27.4613C19.7687 27.5947 19.6969 27.8872 19.507 28.0308C19.3223 28.1694 19.0299 28.1694 18.8452 28.3181C18.6759 28.4618 18.4347 28.5388 18.25 28.6876V28.6876Z" fill="url(#paint2_linear_1029_2835)"/>
<path d="M39.7631 49.8638C39.6759 49.6483 39.2911 49.3097 39.1885 49.0994C39.0859 48.889 39.0705 48.6427 38.9576 48.4375C38.8448 48.2374 38.9474 47.8834 38.8191 47.6884C38.6908 47.4935 38.2496 47.5242 38.1008 47.3395C37.9572 47.1548 37.8597 46.9393 37.7006 46.77C37.5364 46.6007 37.5929 46.1903 37.4133 46.0363C37.2337 45.8876 36.9823 45.7901 36.7874 45.6567C36.5975 45.5284 36.4026 45.3488 36.1922 45.2411C35.987 45.1334 35.5919 45.4309 35.3713 45.3437C35.1558 45.2616 35.0327 44.9127 34.8018 44.8512C34.5812 44.7947 34.3349 44.7793 34.0989 44.7434C33.8731 44.7075 33.632 44.7485 33.3908 44.7332C33.1651 44.7229 32.924 44.5946 32.6828 44.5998C32.4571 44.61 32.2467 44.9076 32.0056 44.9384C31.7798 44.964 31.5028 44.7024 31.2667 44.7434C31.0307 44.7845 30.8614 45.1128 30.6459 45.1641C30.415 45.2154 30.1996 45.2821 29.9841 45.3437C29.7532 45.4104 29.4915 45.3181 29.2812 45.395C29.0605 45.4771 28.8143 45.4874 28.609 45.5848C28.3936 45.6823 28.1781 45.7798 27.9831 45.8978C27.783 46.021 27.6547 46.2416 27.4752 46.3852C27.2956 46.5289 27.234 46.7803 27.0801 46.9547C26.9262 47.1241 26.5363 47.1087 26.408 47.3036C26.2848 47.4883 26.1874 47.7192 26.0796 47.9347C25.977 48.1348 26.2233 48.4837 26.1361 48.7094C26.0591 48.9198 25.5563 48.9968 25.4947 49.2276C25.4332 49.4431 25.7051 49.5252 25.6538 49.7612C25.8128 49.5919 25.9719 49.7612 26.1463 49.6073C26.3208 49.4534 26.3208 49.0942 26.5106 48.9557C26.6953 48.8223 26.8697 48.6376 27.0698 48.5145C27.2648 48.3965 27.5008 48.3195 27.7112 48.2169C27.9164 48.1143 28.1729 48.1091 28.3936 48.0219C28.609 47.9347 28.8143 47.8116 29.0349 47.7397C29.2555 47.6679 29.5377 47.8218 29.7635 47.7705C29.9892 47.7141 30.1944 47.6012 30.4202 47.5602C30.6459 47.5191 30.8768 47.555 31.1128 47.5294C31.3437 47.5037 31.5541 47.2831 31.7849 47.2677C32.0158 47.2575 32.2518 47.1856 32.4827 47.1856C32.7136 47.1856 32.9393 47.3652 33.1754 47.3806C33.4062 47.396 33.6371 47.396 33.868 47.4216C34.0989 47.4473 34.3657 47.2421 34.5966 47.2831C34.8223 47.3241 34.966 47.791 35.1917 47.8423C35.4175 47.8937 35.7304 47.6063 35.9562 47.673C36.1768 47.7397 36.3153 48.0681 36.5308 48.1502C36.7463 48.2272 36.9105 48.417 37.126 48.5042C37.3363 48.5966 37.6288 48.4991 37.8391 48.6017C38.0444 48.7043 38.2753 48.771 38.4754 48.889C38.6754 49.0019 38.8704 49.1353 39.0654 49.2635C39.2398 49.3969 39.5733 49.7202 39.7631 49.8638V49.8638Z" fill="#E09E5E"/>
<path d="M38.8808 48.8738C38.691 48.7301 38.8192 48.2068 38.6243 48.0785C38.4242 47.9451 38.0599 48.0734 37.8598 47.9554C37.6546 47.8323 37.4493 47.7245 37.2441 47.6168C37.0338 47.509 36.7464 47.5809 36.531 47.4885C36.3155 47.391 36.1718 47.1448 35.9512 47.0627C35.7306 46.9806 35.5561 46.7548 35.3304 46.6881C35.1046 46.6214 34.8173 46.7959 34.5864 46.7394C34.3555 46.6881 34.1862 46.3392 33.9554 46.3033C33.7245 46.2674 33.4731 46.2982 33.2422 46.2725C33.0062 46.252 32.7599 46.5393 32.5239 46.5342C32.2879 46.5291 32.0519 46.2879 31.821 46.3033C31.585 46.3187 31.3438 46.3136 31.113 46.3444C30.8821 46.3751 30.6768 46.565 30.446 46.6112C30.2151 46.6573 29.9945 46.7086 29.7687 46.7753C29.543 46.842 29.2864 46.8061 29.0658 46.8882C28.8452 46.9703 28.6502 47.1088 28.4347 47.2063C28.2244 47.3038 28.1218 47.5963 27.9165 47.7143C27.7113 47.8271 27.4137 47.7758 27.2188 47.9092C27.0238 48.0375 26.9622 48.3351 26.7775 48.4787C26.5928 48.6224 26.2234 48.5352 26.0438 48.6942C25.8694 48.8481 25.7668 49.079 25.5975 49.2483C25.5256 49.4228 25.2537 49.5767 25.1254 49.8538C25.028 50.059 25.1716 50.4079 25.0587 50.649C24.9561 50.8645 24.7817 51.0595 24.6739 51.2955C24.5713 51.5212 24.5919 51.8034 24.4944 52.0343C24.3969 52.2703 23.971 52.378 23.889 52.6089C23.8017 52.8603 23.9351 53.1733 23.8736 53.3991C23.8017 53.671 23.7915 53.9172 23.7812 54.1327C23.7709 54.3739 23.7915 54.6048 23.8017 54.8305C23.812 55.0717 23.7094 55.3128 23.735 55.5385C23.7607 55.7797 23.6632 56.0362 23.7094 56.262C23.7556 56.498 24.0839 56.657 24.1506 56.8777C24.2224 57.1085 24.0737 57.4112 24.1609 57.6165C24.2532 57.8371 24.3456 58.0731 24.4585 58.2681C24.5765 58.4733 24.8843 58.5554 25.0228 58.7401C25.1665 58.9248 25.3307 59.0838 25.4897 59.248C25.6539 59.4122 25.8797 59.4943 26.0592 59.638C26.2439 59.7816 26.2234 60.2229 26.4184 60.346C26.6133 60.4691 26.9468 60.3665 27.1572 60.4691C27.3624 60.5717 27.66 60.4486 27.8806 60.5307C28.0961 60.6128 28.2346 60.895 28.4604 60.9668C28.681 61.0335 28.9222 61.013 29.153 61.0643C29.3788 61.1156 29.6199 61.0438 29.8508 61.0848C30.0817 61.1259 30.2869 61.2541 30.5178 61.2798C30.7487 61.3106 30.9744 61.3311 31.2053 61.3516C31.4362 61.3721 31.6465 61.7672 31.8774 61.7775C32.1134 61.7877 32.3597 61.2952 32.5906 61.2952C32.8163 61.3003 33.0472 61.5312 33.2884 61.5055C33.5141 61.4799 33.6937 61.2131 33.9297 61.1618C34.1555 61.1156 34.5043 61.5261 34.7352 61.4542C34.9558 61.3875 35.0431 60.9206 35.2637 60.8334C35.4792 60.7462 35.8383 60.9771 36.0538 60.8745C36.259 60.7718 36.4181 60.5512 36.6233 60.4281C36.8234 60.3101 37.0184 60.1716 37.2133 60.0382C37.4032 59.9048 37.5981 59.7611 37.7777 59.6123C37.9573 59.4635 38.0548 59.2172 38.2241 59.0582C38.3934 58.8991 38.5935 58.7709 38.7525 58.5964C38.9116 58.422 39.0912 58.2681 39.2348 58.0834C39.3785 57.8987 39.4914 57.6883 39.6145 57.4933C39.7428 57.2984 39.7017 57.0111 39.8095 56.8058C39.9172 56.6006 40.2712 56.5082 40.3636 56.2876C40.4508 56.0721 40.3328 55.7797 40.3995 55.5539C40.4662 55.3333 40.5431 55.1178 40.5842 54.8818C40.6252 54.6561 40.7432 54.4355 40.7638 54.1994C40.7792 53.9686 40.9844 53.7274 40.9793 53.4914C40.9741 53.2605 40.7484 53.0296 40.7176 52.7936C40.6919 52.5679 40.7022 52.3216 40.6509 52.0907C40.6047 51.865 40.6612 51.5982 40.5945 51.3673C40.5278 51.1467 40.3482 50.9517 40.261 50.7311C40.1789 50.5207 40.1994 50.2386 40.0968 50.0231C39.9736 49.7717 39.7274 49.5767 39.5888 49.3458C39.4554 49.0944 39.0399 49.0893 38.8808 48.8738V48.8738Z" fill="#D88E47"/>
<path d="M35.474 25.6882C35.2533 25.7805 35.1353 26.1089 34.9558 26.2474C34.7762 26.3911 34.6787 26.6168 34.535 26.8066C34.4017 26.9862 34.14 27.1145 34.0425 27.3351C33.9553 27.5403 33.9655 27.802 33.9091 28.038C33.8578 28.2535 33.7808 28.4792 33.7552 28.7204C33.7295 28.941 33.7449 29.177 33.7398 29.4182C33.7347 29.6439 33.8527 29.8697 33.8681 30.1108C33.8835 30.3366 33.6474 30.5931 33.6731 30.8291C33.6987 31.0548 33.9553 31.2549 34.0015 31.4858C34.0425 31.7116 34.1656 31.9168 34.2169 32.1477C34.2683 32.3683 34.2529 32.6094 34.3144 32.8352C34.3709 33.0558 34.5607 33.2405 34.6274 33.4663C34.6941 33.6869 34.5607 33.9691 34.6377 34.1948C34.7095 34.4103 34.5915 34.7079 34.6736 34.9285C34.7557 35.144 35.1918 35.2261 35.279 35.4416C35.3662 35.6571 35.474 35.8572 35.5714 36.0727C35.6638 36.283 35.6638 36.5344 35.7613 36.7499C35.8588 36.9603 35.7356 37.2835 35.8331 37.5041C35.9306 37.7196 36.3872 37.776 36.4847 37.9967C36.5822 38.2121 36.5258 38.4943 36.6232 38.715C36.7207 38.9304 36.9516 39.0895 37.0542 39.305C37.1517 39.5205 37.2543 39.736 37.3518 39.9514C37.4493 40.1669 37.3723 40.4645 37.4749 40.6851C37.5775 40.9006 37.7776 41.0699 37.8854 41.2854C37.988 41.5009 38.0342 41.7421 38.1419 41.9575C38.2497 42.173 38.3164 42.4039 38.4292 42.6143C38.5421 42.8246 38.7063 43.0093 38.8192 43.2146C38.9372 43.4249 39.0911 43.6096 39.2142 43.8097C39.3425 44.0149 39.5888 44.133 39.7222 44.3279C39.8607 44.528 39.6914 44.9385 39.835 45.1232C39.9838 45.3181 40.3892 45.2925 40.5379 45.4721C40.697 45.6568 40.697 45.98 40.8612 46.1391C41.0356 46.3084 41.1947 46.4982 41.3794 46.6419C41.5692 46.7906 41.6667 47.1087 41.8668 47.2268C42.072 47.3499 42.5133 47.001 42.7339 47.0882C42.9545 47.1754 43.0571 47.6423 43.288 47.6885C43.5189 47.7347 43.7857 47.7552 44.0268 47.7603C44.2577 47.7655 44.504 47.6269 44.7451 47.591C44.9709 47.5551 45.2171 47.5397 45.4583 47.4628C45.6789 47.3961 45.8995 47.2883 46.1253 47.1857C46.3407 47.0882 46.6332 47.1036 46.8384 46.9805C47.0385 46.8573 47.136 46.5546 47.3207 46.4058C47.5054 46.2622 47.7773 46.2006 47.9467 46.0313C48.116 45.8671 47.9877 45.4361 48.1416 45.2514C48.2904 45.0667 48.6444 45.0462 48.7727 44.8461C48.901 44.6512 48.9677 44.41 49.0754 44.1997C49.1831 43.9893 49.4807 43.861 49.5731 43.6353C49.6603 43.4147 49.5679 43.1273 49.6346 42.8965C49.7013 42.6707 49.5833 42.409 49.6295 42.173C49.6706 41.9422 49.8347 41.7369 49.8553 41.4958C49.8758 41.2649 49.7424 41.0289 49.7424 40.7878C49.7424 40.5517 50.0143 40.3055 49.9938 40.0643C49.9733 39.8334 50.0194 39.5718 49.9733 39.3358C49.9322 39.1049 49.532 38.9561 49.4705 38.7201C49.4089 38.4943 49.4397 38.2429 49.3576 38.0172C49.2755 37.7966 49.2242 37.5657 49.1216 37.3502C49.0241 37.1398 48.9882 36.8884 48.8702 36.6781C48.7573 36.4728 48.7419 36.1958 48.6136 35.9957C48.4854 35.8007 48.3725 35.575 48.2288 35.38C48.0903 35.1953 47.6183 35.2569 47.4644 35.0722C47.3156 34.8926 47.2591 34.6361 47.095 34.4565C46.9359 34.2872 46.9051 33.9793 46.7307 33.8152C46.5562 33.6458 46.233 33.6304 46.0688 33.4663C45.8944 33.297 45.9662 32.8916 45.7969 32.7223C45.6276 32.5479 45.3916 32.4453 45.2274 32.2759C45.0581 32.1015 44.7708 32.0451 44.6066 31.8758C44.4373 31.7013 44.3141 31.4858 44.1499 31.3165C43.9806 31.1369 43.7498 31.0292 43.5907 30.8548C43.4214 30.6752 43.2418 30.5161 43.0828 30.3417C42.9135 30.1621 42.8365 29.9056 42.6774 29.7363C42.5081 29.5567 42.2978 29.4284 42.1387 29.2591C41.9694 29.0795 41.7129 28.9974 41.5487 28.8281C41.3794 28.6486 41.3435 28.351 41.1741 28.1868C40.9997 28.0124 40.8099 27.8584 40.6406 27.6994C40.461 27.5301 40.2968 27.3505 40.1224 27.1966C39.9325 27.0324 39.5734 27.1094 39.3887 26.9708C39.1937 26.8169 39.0193 26.6835 38.8294 26.5552C38.6191 26.4218 38.5472 26.0883 38.342 25.9909C38.1163 25.8831 37.8956 25.7959 37.6699 25.7343C37.4339 25.6728 37.203 25.4829 36.967 25.4778C36.731 25.4675 36.4437 25.4265 36.2025 25.4727C35.987 25.524 35.7048 25.5907 35.474 25.6882V25.6882Z" fill="url(#paint3_linear_1029_2835)"/>
<path d="M9.13293 50.021C9.17397 50.2621 8.861 50.5443 8.87639 50.7803C8.89692 51.0266 9.11753 51.2523 9.10727 51.4883C9.09701 51.7346 9.10214 51.9809 9.06623 52.2118C9.02518 52.458 8.98927 52.7043 8.92257 52.9249C8.85074 53.1661 8.65577 53.3508 8.55316 53.556C8.44029 53.7818 8.21454 53.8946 8.06575 54.0691C7.90669 54.264 7.91696 54.6181 7.72199 54.7463C7.51676 54.8797 7.21405 54.7515 6.97804 54.7976C6.74203 54.8438 6.56246 54.8182 6.32645 54.772C6.1007 54.7309 5.82877 54.8387 5.61328 54.7207C5.41318 54.6129 5.20283 54.4795 5.01812 54.3102C4.84881 54.1563 4.61793 54.028 4.46401 53.8279C4.32548 53.6484 4.49992 53.2533 4.38192 53.0378C4.26904 52.8377 3.95094 52.7402 3.85859 52.5145C3.77137 52.299 3.47379 52.1348 3.40709 51.9039C3.34039 51.6782 3.49944 51.3857 3.45326 51.1446C3.41222 50.9034 3.29934 50.6674 3.28395 50.4314C3.26343 50.1851 3.14542 49.9286 3.15055 49.6977C3.16081 49.4515 3.27882 49.2001 3.31473 48.9692C3.35578 48.7229 3.41222 48.4715 3.47892 48.2509C3.55075 48.0097 3.98172 47.9379 4.08434 47.7276C4.19721 47.5018 3.92016 47.0349 4.06381 46.8605C4.22287 46.6655 4.58714 46.6552 4.77698 46.5321C4.98221 46.3987 5.15665 46.0857 5.39266 46.0344C5.62867 45.9882 5.86468 46.4603 6.10069 46.5013C6.32644 46.5424 6.6702 46.2499 6.88569 46.3731C7.08579 46.4808 7.07039 46.9015 7.2551 47.0708C7.42441 47.2247 7.65529 47.3017 7.80408 47.4967C7.94261 47.6762 8.07601 47.861 8.19914 48.0764C8.31202 48.2765 8.41463 48.4818 8.50698 48.7075C8.59421 48.923 8.78917 49.1077 8.85587 49.3386C8.9277 49.5643 9.09188 49.785 9.13293 50.021V50.021Z" fill="#8C4621"/>
<path d="M3.41221 46.7839C3.21212 46.9019 2.85297 46.7377 2.63235 46.6402C2.44251 46.553 2.08337 46.4812 1.96536 46.2605C1.84735 46.0399 2.0731 45.7013 2.09363 45.4858C2.11928 45.2395 2.16033 45.0035 2.35529 44.8855C2.55539 44.7675 2.72983 44.9266 2.94532 45.0292C3.13516 45.1164 3.46865 45.0702 3.59179 45.2908C3.70979 45.5115 3.6944 45.8039 3.66875 46.0194C3.64309 46.2657 3.60718 46.6659 3.41221 46.7839Z" fill="#8C4621"/>
<path d="M5.02842 44.9533C4.78728 44.9943 4.40247 45.0661 4.2229 44.8199C4.08437 44.6352 4.18699 44.2606 4.14081 43.9784C4.09976 43.6911 4.14594 43.45 4.2229 43.2242C4.32551 42.9369 4.43839 42.6239 4.6744 42.588C4.91554 42.547 5.22851 42.7214 5.40809 42.9677C5.54662 43.1524 5.55175 43.4551 5.59279 43.7373C5.63384 44.0246 5.65436 44.2914 5.5774 44.5172C5.48505 44.8096 5.26956 44.9174 5.02842 44.9533V44.9533Z" fill="#8C4621"/>
<path d="M7.49615 45.0397C7.26014 44.9832 6.98821 45.0191 6.90612 44.7267C6.84455 44.5009 6.83429 44.2034 6.89586 43.9212C6.95743 43.639 6.94203 43.2593 7.09082 43.0849C7.28579 42.854 7.72703 42.8283 7.96304 42.8848C8.19905 42.9412 8.26575 43.2439 8.34784 43.5415C8.40941 43.7673 8.65055 44.0494 8.58898 44.3316C8.52741 44.6138 8.14774 44.7216 7.99895 44.896C7.79886 45.1269 7.73216 45.0961 7.49615 45.0397V45.0397Z" fill="#8C4621"/>
<path d="M36.8181 55.7041C36.8181 55.9401 36.5565 56.1351 36.5206 56.3608C36.4898 56.5917 36.4898 56.8021 36.4231 57.0176C36.3564 57.2433 36.3051 57.4434 36.2076 57.6486C36.1101 57.859 36.1358 58.1258 36.0075 58.3208C35.8792 58.5157 35.8484 58.7979 35.6945 58.9672C35.5355 59.1365 35.3251 59.2751 35.1455 59.4187C34.966 59.5624 34.771 59.7214 34.5658 59.8343C34.3657 59.9472 34.1297 60.0293 33.909 60.1062C33.6936 60.1832 33.4062 59.9831 33.1754 60.0241C32.9496 60.0652 32.7495 60.4551 32.5135 60.4551C32.2775 60.4551 32.0671 60.1268 31.8414 60.0908C31.6105 60.0498 31.4514 59.8651 31.236 59.7881C31.0153 59.7112 30.7639 59.7676 30.5638 59.6547C30.3637 59.5419 30.1021 59.5213 29.9174 59.3777C29.7378 59.234 29.6352 59.0031 29.4813 58.8338C29.3273 58.6645 29.2658 58.4388 29.1375 58.2438C29.0092 58.054 28.7784 57.9308 28.6809 57.7205C28.5834 57.5152 28.2602 57.3716 28.1935 57.1458C28.1268 56.9252 28.2858 56.6328 28.2499 56.4019C28.2191 56.1761 28.3628 55.9401 28.3628 55.7041C28.3628 55.4681 28.019 55.2064 28.0498 54.9807C28.0806 54.7498 28.1832 54.5035 28.2499 54.2829C28.3166 54.0572 28.373 53.8006 28.4705 53.5903C28.568 53.3799 28.7373 53.1747 28.8656 52.9797C28.9938 52.7847 29.3684 52.7796 29.5274 52.6103C29.6865 52.441 29.6403 52.0408 29.8199 51.8971C29.9995 51.7535 30.3586 51.851 30.5638 51.7381C30.7639 51.6252 30.9332 51.4559 31.1539 51.3738C31.3694 51.2968 31.5695 51.0968 31.8003 51.0608C32.0261 51.0198 32.2826 50.9941 32.5186 50.9941C32.7546 50.9941 32.9907 51.1275 33.2164 51.1635C33.4473 51.2045 33.6833 51.2558 33.8988 51.3328C34.1194 51.4097 34.2169 51.7227 34.417 51.8356C34.6171 51.9484 34.8326 52.0049 35.0121 52.1485C35.1917 52.2922 35.5303 52.2717 35.6894 52.441C35.8433 52.6103 35.7458 52.9797 35.8741 53.1695C36.0024 53.3594 36.459 53.3748 36.5616 53.5851C36.6591 53.7904 36.4436 54.1341 36.5103 54.3547C36.577 54.5754 36.5154 54.8011 36.5513 55.032C36.577 55.268 36.8181 55.4681 36.8181 55.7041V55.7041Z" fill="#8C4621"/>
<path d="M26.9158 50.0299C27.08 49.8041 27.5059 49.9119 27.788 49.9016C28.0446 49.8914 28.1831 50.0299 28.4242 50.2043C28.6654 50.3788 29.1374 50.3788 29.2092 50.6251C29.2913 50.897 29.2554 51.3639 29.0912 51.5948C28.9271 51.8256 28.4909 51.8102 28.2036 51.8256C27.9471 51.8359 27.552 51.9334 27.3109 51.7589C27.0697 51.5845 27.0082 51.1843 26.9363 50.938C26.8594 50.6661 26.7516 50.2608 26.9158 50.0299V50.0299Z" fill="#8C4621"/>
<path d="M32.2157 47.9668C32.4158 47.9668 32.4774 48.3003 32.6364 48.4183C32.7904 48.5312 32.9443 48.562 33.0315 48.7467C33.1085 48.916 33.3188 49.0699 33.3188 49.2751C33.3188 49.4803 33.3599 49.7471 33.2829 49.9216C33.1957 50.1114 32.8263 50.0755 32.6775 50.1884C32.5184 50.3064 32.421 50.2705 32.2157 50.2705C32.0156 50.2705 31.9438 50.2653 31.7847 50.1473C31.6308 50.0345 31.5231 49.978 31.4359 49.7882C31.3589 49.6189 31.0049 49.4803 31.0049 49.2751C31.0049 49.0699 31.2768 48.8954 31.3538 48.7261C31.441 48.5363 31.4615 48.29 31.6154 48.1772C31.7745 48.0591 32.0105 47.9668 32.2157 47.9668V47.9668Z" fill="#8C4621"/>
<path d="M37.0029 50.3324C37.2183 50.512 37.3004 50.7429 37.2902 51.0302C37.2799 51.2868 37.2543 51.5741 37.0644 51.7998C36.8746 52.0256 36.6129 52.1795 36.3615 52.2308C36.0845 52.2924 35.8279 52.1795 35.6124 51.9999C35.397 51.8203 35.1199 51.5843 35.1302 51.297C35.1404 51.0405 35.3456 50.748 35.5355 50.5172C35.7253 50.2914 36.0383 50.3119 36.2897 50.2555C36.5616 50.199 36.7874 50.1529 37.0029 50.3324V50.3324Z" fill="#8C4621"/>
<path d="M19.2456 5.45388C19.3687 5.63858 19.2712 5.95155 19.3636 6.14652C19.4559 6.34662 19.7689 6.46975 19.8356 6.67498C19.9023 6.88534 19.9433 7.12648 19.9741 7.34197C20.01 7.55746 19.9793 7.7986 19.9844 8.01922C19.9895 8.23471 19.9793 8.47072 19.9587 8.68621C19.9382 8.9017 19.8612 9.12232 19.8151 9.3378C19.7689 9.54816 19.6201 9.738 19.5534 9.94836C19.4867 10.1536 19.2097 10.2665 19.1224 10.4666C19.0352 10.6615 19.0865 10.9181 18.9736 11.113C18.8659 11.2977 18.712 11.4516 18.5837 11.6312C18.4554 11.8057 18.4606 12.0878 18.3169 12.252C18.1733 12.4162 18.0604 12.6214 17.9013 12.7702C17.7423 12.919 17.5781 13.0832 17.4088 13.2166C17.2395 13.35 16.9881 13.391 16.8034 13.509C16.6187 13.6322 16.3467 13.586 16.1569 13.6886C15.9619 13.7912 15.9106 14.1966 15.7105 14.2786C15.5053 14.3659 15.2949 14.4787 15.0897 14.5403C14.8794 14.607 14.6433 14.6532 14.433 14.6942C14.2175 14.7404 13.9507 14.5198 13.7352 14.5454C13.5146 14.5711 13.3094 14.8789 13.0887 14.8789C12.8681 14.8841 12.6526 14.5608 12.4372 14.5403C12.2165 14.5198 11.9497 14.7866 11.7343 14.7404C11.5188 14.6942 11.2879 14.6173 11.0827 14.5454C10.8723 14.4736 10.7492 14.176 10.5491 14.0786C10.3541 13.9862 10.2617 13.7245 10.0822 13.6065C9.89747 13.4885 9.75381 13.3654 9.58963 13.2217C9.42544 13.0781 9.30744 12.9293 9.16378 12.7651C9.02012 12.6009 8.70202 12.5907 8.57888 12.406C8.45574 12.2212 8.28643 12.0571 8.19408 11.8621C8.10173 11.662 8.10686 11.4209 8.04529 11.2105C7.97859 11.0001 8.0812 10.7641 8.04529 10.5486C8.00938 10.3332 7.70666 10.1485 7.6964 9.92783C7.69127 9.71234 7.74258 9.48146 7.7631 9.26084C7.78362 9.04536 7.98372 8.85552 8.0299 8.64003C8.07607 8.42967 7.95807 8.16801 8.02477 7.96278C8.09147 7.75755 8.27104 7.58824 8.36339 7.38815C8.45061 7.19318 8.46088 6.94178 8.56862 6.75194C8.67636 6.56724 8.91238 6.45436 9.04064 6.27479C9.16891 6.10034 9.42031 6.03878 9.56397 5.86946C9.70763 5.70528 9.64093 5.35126 9.80511 5.19734C9.96416 5.04855 10.2771 5.08447 10.4516 4.94594C10.6209 4.81254 10.6979 4.55088 10.8826 4.43287C11.0673 4.30974 11.3135 4.30974 11.5034 4.20712C11.6983 4.10451 11.9395 4.14042 12.1396 4.0532C12.3448 3.96598 12.4577 3.67866 12.6629 3.61196C12.8733 3.54526 13.099 3.56066 13.3094 3.51448C13.5249 3.4683 13.7301 3.39134 13.9456 3.36569C14.1662 3.34004 14.3817 3.44265 14.5972 3.44265C14.8178 3.43752 15.0128 3.49909 15.2282 3.51961C15.4489 3.54013 15.7157 3.19638 15.9311 3.24255C16.1466 3.28873 16.3159 3.54013 16.5212 3.60683C16.7315 3.67866 16.9573 3.70432 17.1522 3.79667C17.3472 3.88902 17.4909 4.08399 17.6704 4.20199C17.8552 4.32 18.0912 4.36104 18.2605 4.5047C18.4247 4.64836 18.6504 4.74584 18.7941 4.91003C18.9377 5.11012 19.1224 5.26917 19.2456 5.45388V5.45388Z" fill="url(#paint4_linear_1029_2835)"/>
<path d="M16.139 11.4065C17.7186 9.89711 17.9865 7.6139 16.7375 6.30684C15.4884 4.99977 13.1954 5.16381 11.6159 6.67322C10.0363 8.18263 9.7684 10.4658 11.0174 11.7729C12.2665 13.08 14.5595 12.9159 16.139 11.4065Z" fill="#6E371A"/>
<path d="M27.7316 4.79618C27.7111 5.01167 27.4032 5.22203 27.4135 5.43752C27.4237 5.653 27.3827 5.89928 27.4186 6.10964C27.4545 6.31999 27.5366 6.55087 27.6033 6.7561C27.67 6.96133 27.8034 7.16142 27.8958 7.36152C27.9881 7.55649 28.3575 7.60266 28.4704 7.78737C28.5833 7.97207 28.5217 8.26965 28.6551 8.43896C28.7885 8.60828 29.0296 8.68011 29.1836 8.83403C29.3324 8.98795 29.553 9.04439 29.7223 9.18291C29.8865 9.32144 29.8762 9.68572 30.0558 9.80886C30.2353 9.92686 30.3841 10.1321 30.574 10.2347C30.7638 10.3373 31.1281 10.0808 31.3282 10.1629C31.5232 10.245 31.7232 10.286 31.9285 10.3476C32.1337 10.4091 32.2774 10.6708 32.4928 10.7119C32.7032 10.758 32.9392 10.5887 33.1547 10.6144C33.3702 10.64 33.56 10.8299 33.7704 10.835C33.9859 10.8401 34.1962 10.835 34.4066 10.8196C34.6221 10.8042 34.8735 11.0146 35.0787 10.9787C35.2891 10.9427 35.5097 10.8453 35.7098 10.7888C35.915 10.7324 36.1305 10.64 36.3255 10.5631C36.5256 10.4861 36.6641 10.2552 36.8539 10.1629C37.0438 10.0654 37.1464 9.83451 37.3208 9.7165C37.5004 9.5985 37.6851 9.51128 37.8441 9.37275C38.0083 9.23422 38.1366 9.0803 38.2803 8.92638C38.4239 8.76733 38.5676 8.6288 38.6907 8.45436C38.8138 8.27991 39.1473 8.23374 39.2448 8.0439C39.3423 7.8592 39.1063 7.52057 39.1781 7.32048C39.25 7.12038 39.5937 7.0075 39.6399 6.80228C39.6861 6.59705 39.8554 6.38669 39.8759 6.1712C39.8964 5.95571 39.7528 5.71457 39.7425 5.49908C39.7322 5.2836 39.5834 5.07837 39.5475 4.86801C39.5116 4.65765 39.5475 4.42164 39.486 4.21641C39.4193 4.01119 39.4193 3.76491 39.3269 3.56995C39.2346 3.37498 39.0139 3.24158 38.9011 3.05688C38.7882 2.87218 38.4752 2.84652 38.3418 2.67208C38.2084 2.50277 38.2289 2.21545 38.0802 2.06153C37.9314 1.90761 37.8698 1.64594 37.7056 1.50741C37.5414 1.36889 37.1669 1.52281 36.9822 1.39967C36.8026 1.28166 36.659 1.14314 36.4691 1.04052C36.2793 0.937908 36.0843 0.891732 35.8842 0.80451C35.6893 0.722419 35.5148 0.609544 35.3096 0.547976C35.1044 0.486408 34.971 0.163175 34.7555 0.116999C34.5451 0.0708227 34.2886 0.337618 34.0731 0.317095C33.8576 0.291442 33.6729 0.00925437 33.4625 0.00412368C33.2471 -0.001007 33.0316 0.0862146 32.8263 0.101607C32.6109 0.116999 32.4261 0.27605 32.2158 0.311965C32.0054 0.347879 31.8105 0.399186 31.6104 0.455624C31.4051 0.512061 31.1794 0.476147 30.9793 0.553107C30.7792 0.630067 30.5945 0.72755 30.4047 0.825033C30.2148 0.922516 29.907 0.835294 29.7325 0.9533C29.553 1.07131 29.4144 1.26627 29.2503 1.4048C29.0861 1.54333 29.0963 1.86143 28.9578 2.01535C28.8142 2.1744 28.4499 2.15388 28.3267 2.32832C28.2036 2.50277 28.414 2.87731 28.3113 3.06714C28.2139 3.25185 27.8445 3.31341 27.7726 3.51351C27.7008 3.71361 27.5366 3.90344 27.4853 4.1138C27.4289 4.3139 27.7521 4.58069 27.7316 4.79618V4.79618Z" fill="url(#paint5_linear_1029_2835)"/>
<path d="M37.1766 6.96788C37.8423 5.30843 36.7808 3.32093 34.8058 2.52867C32.8308 1.7364 30.6901 2.43938 30.0244 4.09883C29.3587 5.75827 30.4202 7.74577 32.3952 8.53804C34.3702 9.33031 36.5109 8.62732 37.1766 6.96788Z" fill="#6E371A"/>
<path d="M40.5326 14.7955C40.6044 15.0212 41.0354 15.1444 41.0867 15.3701C41.1431 15.601 41.2098 15.837 41.2457 16.0679C41.2816 16.2988 41.2047 16.5553 41.2201 16.7862C41.2355 17.0222 40.9994 17.2582 40.9943 17.4942C40.9943 17.7302 41.374 17.9868 41.3483 18.2176C41.3278 18.4485 41.1328 18.6743 41.0969 18.9051C41.0559 19.136 41.1585 19.4028 41.1021 19.6337C41.0456 19.8595 40.9841 20.1006 40.9122 20.3263C40.8404 20.547 40.5736 20.7111 40.4864 20.9266C40.3992 21.1421 40.4094 21.4089 40.3068 21.6193C40.2093 21.8296 40.04 22.0143 39.9271 22.2196C39.8143 22.4248 39.6552 22.6044 39.5321 22.8045C39.4089 23.0046 39.3217 23.2303 39.1883 23.4201C39.0549 23.61 38.942 23.8255 38.7984 24.0102C38.6547 24.1949 38.6137 24.4719 38.4598 24.6515C38.311 24.8311 37.8749 24.7593 37.7107 24.9286C37.5516 25.0979 37.6235 25.4981 37.4541 25.6623C37.29 25.8264 36.9616 25.8264 36.7872 25.9855C36.6127 26.1445 36.4177 26.2677 36.233 26.4216C36.0535 26.5704 35.7508 26.555 35.5609 26.6987C35.3762 26.8423 35.4942 27.3913 35.2993 27.5298C35.1094 27.6632 34.6784 27.458 34.4835 27.5863C34.2885 27.7145 34.0987 27.8428 33.8986 27.9659C33.6985 28.0891 33.56 28.3097 33.3547 28.4226C33.1495 28.5354 32.9289 28.6124 32.7185 28.7201C32.5082 28.8279 32.3132 28.9459 32.0977 29.0485C31.8874 29.146 31.6154 29.1049 31.3999 29.1973C31.1845 29.2896 31.0459 29.5564 30.8253 29.6437C30.6047 29.7258 30.343 29.6847 30.1224 29.7617C29.9018 29.8386 29.794 30.2747 29.5683 30.3414C29.3425 30.4081 29.0398 30.2132 28.8141 30.2747C28.5883 30.3363 28.3728 30.4543 28.1471 30.5056C27.9162 30.5569 27.6494 30.3876 27.4185 30.4338C27.1877 30.4748 26.9876 30.6903 26.7567 30.7211C26.5207 30.757 26.3052 30.9571 26.0692 30.9828C25.8332 31.0084 25.5766 30.9007 25.3457 30.9212C25.1046 30.9417 24.8788 31.1059 24.648 31.1213C24.4068 31.1367 24.1554 30.8648 23.9245 30.875C23.6834 30.8853 23.4525 30.8083 23.2165 30.8083C22.9754 30.8083 22.7393 31.1623 22.5033 31.1572C22.2622 31.1521 22.0262 31.0341 21.7953 31.0187C21.5542 31.0033 21.3233 30.952 21.0873 30.9263C20.8461 30.9058 20.6255 30.7981 20.3895 30.7673C20.1535 30.7365 19.9431 30.5723 19.7122 30.5313C19.4762 30.4902 19.2607 30.4133 19.0299 30.362C18.7939 30.3107 18.4655 30.6493 18.2397 30.5877C18.0089 30.521 17.8139 30.326 17.5933 30.2542C17.3675 30.1773 17.2136 29.9207 16.9981 29.8335C16.7775 29.7463 16.4748 29.8489 16.2644 29.7463C16.0489 29.6437 15.9976 29.2435 15.7924 29.1255C15.5821 29.0126 15.3409 28.9767 15.1459 28.8535C14.9458 28.7253 14.6585 28.7355 14.4687 28.5919C14.2789 28.4533 14.1301 28.2584 13.9505 28.1096C13.7709 27.9557 13.5349 27.8633 13.3656 27.6991C13.1963 27.535 13.0167 27.3759 12.8577 27.2015C12.6986 27.027 12.637 26.7705 12.4934 26.5806C12.3497 26.3959 12.1548 26.2472 12.0214 26.0471C11.888 25.8521 11.6519 25.7187 11.5288 25.5135C11.4108 25.3134 11.4519 25.0107 11.3441 24.8003C11.2364 24.5951 11.1132 24.3898 11.0157 24.1744C10.9183 23.9589 10.8464 23.7382 10.7592 23.5125C10.672 23.297 10.318 23.1687 10.241 22.943C10.1641 22.7224 10.1025 22.4812 10.0358 22.2503C9.96908 22.0246 10.1538 21.727 10.0974 21.4961C10.0409 21.2704 9.99474 21.0446 9.95369 20.8189C9.90752 20.5931 10.0204 20.3417 9.98961 20.116C9.95882 19.8851 9.99987 19.6594 9.97935 19.4285C9.95882 19.1976 9.74847 18.9872 9.74333 18.7564C9.7382 18.5255 9.74847 18.2946 9.7536 18.0637C9.75873 17.8328 9.9383 17.6173 9.95882 17.3865C9.97422 17.1556 10.0153 16.9401 10.046 16.7092C10.0768 16.4783 9.65611 16.1808 9.69716 15.9499C9.7382 15.7241 9.99474 15.5343 10.0512 15.3085C10.1076 15.0828 10.0409 14.8211 10.1076 14.6005C10.1743 14.3799 10.5591 14.267 10.6412 14.0464C10.7182 13.8309 10.5129 13.5025 10.6053 13.2871C10.6976 13.0767 10.9439 12.933 11.0465 12.7227C11.1491 12.5174 11.4211 12.4046 11.5339 12.2045C11.6468 12.0044 11.4005 11.5888 11.5237 11.3887C11.6468 11.1937 12.1291 11.2399 12.2625 11.0501C12.3959 10.8602 12.2625 10.4806 12.4062 10.2959C12.5498 10.1163 12.6216 9.86489 12.7704 9.69044C12.9192 9.516 13.2938 9.54165 13.4579 9.37234C13.617 9.20816 13.7863 9.05424 13.9505 8.89006C14.1147 8.73101 14.2686 8.56169 14.4482 8.40777C14.6226 8.25898 14.7304 8.0281 14.9099 7.87931C15.0895 7.73565 15.4281 7.80235 15.6128 7.66382C15.7975 7.53043 15.7257 7.02762 15.9207 6.89422C16.1105 6.76595 16.562 7.03788 16.757 6.91474C16.9519 6.79161 16.9879 6.40168 17.188 6.2888C17.388 6.17593 17.6651 6.19645 17.8703 6.0887C18.0756 5.98096 18.1371 5.5859 18.3475 5.48841C18.5527 5.39093 18.9529 5.70903 19.1684 5.61668C19.3788 5.52433 19.5122 5.2524 19.7276 5.16518C19.938 5.08309 20.1073 4.86247 20.3279 4.78038C20.5434 4.70342 20.882 4.98048 21.1078 4.90865C21.3284 4.83682 21.4362 4.42123 21.6619 4.35453C21.8877 4.28784 22.1493 4.35966 22.3751 4.30323C22.6008 4.24679 22.8214 4.14931 23.0472 4.10826C23.2781 4.06722 23.5243 4.13392 23.7501 4.10313C23.981 4.07235 24.1913 3.81581 24.4222 3.80042C24.6531 3.7799 24.8994 3.9646 25.1354 3.95947C25.3663 3.95434 25.5971 4.1647 25.828 4.16983C26.0589 4.17496 26.3 3.9133 26.5309 3.93382C26.7618 3.94921 27.0081 3.8466 27.239 3.87738C27.4698 3.90303 27.6956 3.99539 27.9265 4.0313C28.1573 4.06722 28.4241 3.95434 28.6499 4.00052C28.8756 4.04669 29.0706 4.2827 29.2964 4.33914C29.5221 4.39558 29.7325 4.51872 29.9531 4.58541C30.1737 4.65211 30.4764 4.50332 30.6919 4.58028C30.9125 4.65724 30.9741 5.15492 31.1896 5.24214C31.4051 5.32936 31.6411 5.34989 31.8514 5.44737C32.0618 5.54485 32.267 5.64747 32.4723 5.75008C32.6826 5.85269 32.8519 6.00661 33.0571 6.11949C33.2624 6.23236 33.6677 5.99122 33.8678 6.11436C34.0679 6.23236 34.15 6.54533 34.345 6.6736C34.5399 6.80187 34.7144 6.95579 34.9042 7.08919C35.094 7.22259 35.1966 7.46886 35.3762 7.61252C35.5609 7.75618 35.9816 7.60739 36.1612 7.75618C36.3408 7.90497 36.2023 8.4129 36.3767 8.56682C36.546 8.72587 37.0488 8.53604 37.213 8.70022C37.3772 8.8644 37.5516 9.03372 37.7107 9.20303C37.8697 9.37234 37.7312 9.80845 37.88 9.98289C38.0288 10.1625 38.1724 10.3369 38.3161 10.5165C38.4598 10.7012 38.8959 10.6704 39.0293 10.8602C39.1627 11.0501 38.9728 11.4605 39.1011 11.6555C39.2294 11.8505 39.5577 11.9172 39.6757 12.1224C39.7937 12.3225 40.0554 12.4559 40.158 12.6611C40.2658 12.8715 40.0451 13.2357 40.1375 13.4461C40.2298 13.6616 40.5018 13.8001 40.5839 14.0156C40.6865 14.2516 40.4607 14.5749 40.5326 14.7955V14.7955Z" fill="url(#paint6_radial_1029_2835)"/>
<path d="M32.0926 19.7835C32.1491 20.0093 32.1747 20.2299 32.1952 20.4608C32.2209 20.6916 32.3799 20.9174 32.3697 21.1483C32.3594 21.3792 32.0567 21.569 32.0157 21.7999C31.9746 22.0256 32.3594 22.3642 32.2927 22.5849C32.226 22.8004 31.8874 22.9389 31.7899 23.1492C31.6924 23.3545 31.7745 23.6777 31.6514 23.8778C31.5334 24.0728 31.2101 24.1446 31.0665 24.3293C30.928 24.5089 30.928 24.8321 30.7638 25.0014C30.6047 25.1656 30.2251 25.104 30.0455 25.2579C29.871 25.4067 29.8762 25.7915 29.6863 25.9301C29.5016 26.0635 29.2913 26.1866 29.086 26.3097C28.8911 26.4277 28.6961 26.5868 28.4858 26.6894C28.2857 26.792 27.8957 26.515 27.6802 26.6073C27.4699 26.6945 27.28 26.8177 27.0594 26.8998C26.8439 26.9767 26.6438 27.0845 26.413 27.1512C26.1975 27.2179 25.9768 27.2743 25.746 27.3307C25.5048 27.3872 25.2945 27.5308 25.0636 27.5719C24.8224 27.6181 24.5813 27.6232 24.3453 27.654C24.099 27.6848 23.8733 27.9413 23.6424 27.9516C23.3961 27.9618 23.1447 27.7771 22.9087 27.772C22.6624 27.7669 22.4008 27.9156 22.1699 27.89C21.9236 27.8643 21.6927 27.7155 21.4619 27.6694C21.2207 27.6181 20.9847 27.536 20.7589 27.4693C20.5229 27.3974 20.2715 27.3615 20.056 27.264C19.8303 27.1666 19.6456 26.9819 19.4404 26.8639C19.23 26.7407 19.0504 26.5714 18.8606 26.4277C18.6656 26.279 18.5374 26.0737 18.3681 25.9044C18.1987 25.7351 17.896 25.6684 17.7524 25.4837C17.6087 25.2887 17.4856 25.063 17.3727 24.8578C17.2547 24.6474 17.306 24.3549 17.2188 24.1343C17.1316 23.9137 17.1726 23.6674 17.1162 23.4314C17.0597 23.1954 16.875 23.0056 16.8494 22.7696C16.8288 22.5336 16.757 22.2975 16.7724 22.0615C16.7878 21.8255 16.9776 21.6203 17.0289 21.3894C17.0802 21.1585 16.952 20.8815 17.0341 20.6557C17.1162 20.4351 17.3984 20.312 17.5164 20.1016C17.6292 19.8964 17.6395 19.6347 17.7832 19.4398C17.9217 19.2551 17.9576 18.9626 18.1218 18.783C18.2808 18.6137 18.5835 18.5778 18.7682 18.4188C18.9427 18.27 19.0556 18.0186 19.2557 17.8749C19.4455 17.7415 19.6148 17.5465 19.82 17.4234C20.0201 17.3054 20.3228 17.3516 20.5435 17.2438C20.7487 17.1412 21.0617 17.2643 21.2823 17.1669C21.4978 17.0796 21.6414 16.8128 21.8672 16.7308C22.0878 16.6538 22.2417 16.346 22.4777 16.2741C22.7035 16.2074 23.0267 16.505 23.2679 16.4486C23.5039 16.3921 23.7245 16.3152 23.9502 16.269C24.1914 16.2228 24.3658 15.838 24.5967 15.8072C24.8378 15.7713 25.0841 15.72 25.315 15.6995C25.5561 15.679 25.8127 15.8072 26.0435 15.8072C26.2898 15.8021 26.5207 16.0176 26.7516 16.033C26.9979 16.0484 27.2133 16.1151 27.4442 16.1459C27.6854 16.1818 27.9316 16.0997 28.1574 16.1561C28.3934 16.2126 28.6294 16.2382 28.85 16.3152C29.0809 16.3973 29.3272 16.4229 29.5375 16.5255C29.7582 16.6333 29.8659 16.9103 30.0557 17.0386C30.2558 17.172 30.5124 17.213 30.6868 17.367C30.8664 17.526 31.0921 17.6491 31.2409 17.8287C31.3948 18.0134 31.4205 18.2854 31.5385 18.4854C31.6616 18.6907 31.6719 18.9267 31.7643 19.1473C31.872 19.3731 32.0362 19.5526 32.0926 19.7835V19.7835Z" fill="#E6C190"/>
<path d="M19.451 15.5853C19.4869 15.7392 19.4817 15.888 19.4766 16.0368C19.4715 16.1907 19.4766 16.3446 19.4304 16.4883C19.3843 16.6371 19.3073 16.7654 19.2252 16.8936C19.1431 17.0219 19.0867 17.1758 18.9738 17.2784C18.8661 17.381 18.7173 17.4426 18.5787 17.5196C18.4453 17.5914 18.3068 17.653 18.158 17.694C18.0041 17.7299 17.8553 17.7197 17.7014 17.7145C17.5475 17.7094 17.3936 17.7145 17.2499 17.6735C17.1011 17.6325 16.9472 17.5914 16.8189 17.5144C16.6855 17.4375 16.5778 17.3246 16.47 17.2169C16.3623 17.1091 16.2545 16.9962 16.1827 16.8577C16.1109 16.7295 16.0904 16.5704 16.0544 16.4165C16.0185 16.2626 16.0134 16.1189 16.0185 15.965C16.0237 15.8111 16.0031 15.652 16.0442 15.5083C16.0904 15.3596 16.1673 15.2262 16.2494 15.0979C16.3315 14.9696 16.429 14.8516 16.5419 14.749C16.6496 14.6464 16.783 14.5643 16.9164 14.4925C17.0498 14.4206 17.1935 14.3847 17.3422 14.3488C17.4962 14.3129 17.6398 14.3026 17.7886 14.3026C17.9425 14.3078 18.1016 14.2719 18.2452 14.3129C18.394 14.3539 18.5326 14.436 18.6608 14.513C18.7942 14.59 18.8968 14.7028 18.9995 14.8157C19.1072 14.9235 19.2201 15.0312 19.2919 15.1646C19.374 15.2826 19.415 15.4314 19.451 15.5853V15.5853Z" fill="#240800"/>
<path d="M29.9329 13.2162C29.9688 13.3701 29.9637 13.5189 29.9585 13.6677C29.9534 13.8216 29.9585 13.9755 29.9124 14.1192C29.8662 14.268 29.7892 14.3962 29.7071 14.5245C29.625 14.6528 29.5686 14.8067 29.4557 14.9093C29.348 15.0119 29.1992 15.0735 29.0607 15.1504C28.9273 15.2223 28.7887 15.2838 28.64 15.3249C28.486 15.3608 28.3372 15.3505 28.1833 15.3454C28.0294 15.3403 27.8755 15.3454 27.7318 15.3044C27.583 15.2633 27.4291 15.2223 27.3008 15.1453C27.1675 15.0683 27.0597 14.9555 26.952 14.8477C26.8442 14.74 26.7365 14.6271 26.6646 14.4886C26.5928 14.3603 26.5723 14.2013 26.5364 14.0473C26.5005 13.8934 26.4953 13.7498 26.5005 13.5958C26.5056 13.4419 26.4851 13.2829 26.5261 13.1392C26.5723 12.9904 26.6493 12.857 26.7313 12.7288C26.8134 12.6005 26.9109 12.4825 27.0238 12.3799C27.1315 12.2773 27.2649 12.1952 27.3983 12.1233C27.5317 12.0515 27.6754 12.0156 27.8242 11.9797C27.9781 11.9438 28.1218 11.9335 28.2705 11.9335C28.4245 11.9386 28.5835 11.9027 28.7272 11.9438C28.876 11.9848 29.0145 12.0669 29.1428 12.1439C29.2762 12.2208 29.3788 12.3337 29.4814 12.4466C29.5891 12.5543 29.702 12.6621 29.7738 12.7955C29.8559 12.9135 29.897 13.0622 29.9329 13.2162Z" fill="#240800"/>
<path d="M23.4783 19.5664C23.94 20.9979 24.3813 23.0758 24.843 24.5073" stroke="#240800" stroke-width="0.623465" stroke-miterlimit="10" stroke-linecap="round" stroke-linejoin="round"/>
<path d="M17.8345 22.4324C18.2808 22.9044 18.7836 23.3046 19.3429 23.6124C19.8919 23.9305 20.4819 24.1717 21.0925 24.3256C22.3084 24.6335 23.5962 24.6694 24.8071 24.3615C26.0179 24.0639 27.1364 23.4329 28.0651 22.5863C28.5319 22.1605 28.9424 21.673 29.2759 21.1343C29.6248 20.6007 29.8762 20.0107 30.0506 19.3848C29.9942 20.0312 29.7838 20.6674 29.4965 21.2575C29.1938 21.8424 28.8039 22.3862 28.3472 22.8685C27.434 23.8331 26.2334 24.5308 24.9353 24.8643C23.6321 25.1824 22.2469 25.126 20.9847 24.7053C20.3536 24.4949 19.7533 24.2025 19.2146 23.8279C18.6759 23.4329 18.1936 22.9762 17.8345 22.4324V22.4324Z" fill="#240800"/>
<path d="M26.0024 18.2599C26.0281 18.3625 25.9665 18.4805 25.9306 18.6139C25.9049 18.7165 25.8588 18.8242 25.8023 18.9422C25.751 19.0448 25.7664 19.1885 25.6997 19.2963C25.6381 19.3937 25.5663 19.4963 25.4945 19.599C25.4278 19.6964 25.2995 19.7529 25.2226 19.8452C25.1456 19.9427 25.0789 20.0402 25.0019 20.1274C24.9199 20.2198 24.8737 20.3378 24.7967 20.425C24.7146 20.5225 24.5864 20.5687 24.5094 20.6508C24.417 20.7482 24.3863 20.8868 24.3144 20.9637C24.1605 21.1228 24.2016 21.1228 24.0271 21.1638C23.8527 21.2049 23.8886 21.1843 23.6782 21.1125C23.5807 21.0817 23.4833 20.9842 23.355 20.9432C23.2472 20.9073 23.1139 20.9278 22.9907 20.8816C22.883 20.8406 22.7906 20.7431 22.6777 20.6969C22.57 20.6508 22.4725 20.5738 22.3596 20.5225C22.2519 20.4712 22.098 20.502 21.9954 20.4455C21.8876 20.3891 21.7747 20.3275 21.6773 20.2711C21.5695 20.2044 21.5233 20.0607 21.431 19.994C21.3284 19.9171 21.236 19.8504 21.1642 19.7683C21.0718 19.6657 20.9436 19.599 20.9231 19.4963C20.8923 19.3732 20.9538 19.2501 20.9692 19.1269C20.9846 19.0089 20.959 18.8755 21.0103 18.7575C21.0564 18.6498 21.1591 18.5677 21.236 18.4599C21.3079 18.3625 21.3386 18.2291 21.431 18.1367C21.5182 18.0546 21.6567 18.0238 21.7594 17.9469C21.8568 17.8751 21.9235 17.7468 22.0313 17.6852C22.1339 17.6236 22.2776 17.6236 22.3904 17.5723C22.5033 17.521 22.6059 17.4492 22.7239 17.4082C22.8368 17.3671 22.9599 17.3363 23.0831 17.3055C23.2062 17.2748 23.3345 17.2953 23.4576 17.2799C23.5807 17.2594 23.7039 17.2337 23.8219 17.2235C23.9502 17.2183 24.0682 17.2029 24.1913 17.2081C24.3196 17.2132 24.4376 17.2388 24.5556 17.2594C24.6838 17.2799 24.8172 17.2491 24.9301 17.285C25.0532 17.3209 25.161 17.3979 25.2687 17.4492C25.3816 17.5056 25.4996 17.5621 25.592 17.639C25.6895 17.7211 25.8023 17.7981 25.869 17.8956C25.9357 18.0085 25.9716 18.1418 26.0024 18.2599V18.2599Z" fill="#4F1100"/>
<path d="M23.2065 18.8908C23.6222 18.7895 23.907 18.4931 23.8426 18.2288C23.7781 17.9645 23.3889 17.8324 22.9732 17.9337C22.5575 18.0351 22.2727 18.3314 22.3371 18.5957C22.4015 18.86 22.7907 18.9922 23.2065 18.8908Z" fill="#E6B17F"/>
<path d="M17.051 16.617C17.3043 16.5553 17.4569 16.2888 17.3918 16.0217C17.3267 15.7547 17.0686 15.5882 16.8153 15.6499C16.562 15.7117 16.4095 15.9782 16.4745 16.2453C16.5396 16.5123 16.7977 16.6788 17.051 16.617Z" fill="white"/>
<path d="M27.697 14.2244C27.9503 14.1627 28.1029 13.8962 28.0378 13.6291C27.9727 13.3621 27.7146 13.1956 27.4613 13.2574C27.208 13.3191 27.0554 13.5856 27.1205 13.8527C27.1856 14.1197 27.4437 14.2862 27.697 14.2244Z" fill="white"/>
<path opacity="0.2" d="M33.2113 1.33398C33.3857 1.44172 33.6166 1.54947 33.9142 1.58538C33.9706 1.59051 34.0271 1.59564 34.0887 1.59564C34.2272 1.59564 34.3554 1.57512 34.4683 1.54947C34.5915 1.63669 34.7402 1.71365 34.9147 1.77008C34.9403 1.78035 35.0173 1.81626 35.0737 1.84705C35.1712 1.89835 35.2687 1.94453 35.3765 1.98557C35.4739 2.02662 35.5663 2.06253 35.6638 2.09332C35.7407 2.11897 35.8177 2.14976 35.8485 2.16515C35.8741 2.18054 35.9408 2.23185 35.9973 2.27289C36.0794 2.33446 36.1666 2.40116 36.2538 2.46273C36.5052 2.63204 36.7617 2.69361 36.9516 2.71926C36.9618 2.73465 36.9721 2.75004 36.9875 2.76544C37.0337 2.93988 37.1209 3.20668 37.321 3.46321C37.5365 3.74027 37.8033 3.88906 37.9777 3.97628C38.0393 4.04811 38.1008 4.10968 38.1522 4.16098C38.1727 4.26873 38.1932 4.39699 38.2342 4.54065V4.61248C38.2342 4.73562 38.2394 4.90493 38.2753 5.09477C38.3163 5.32052 38.3933 5.51035 38.4446 5.63349C38.4497 5.64375 38.4549 5.65914 38.46 5.6694C38.4754 5.82332 38.5113 5.95672 38.5421 6.0696C38.5318 6.09525 38.5164 6.12603 38.5062 6.15169C38.3369 6.29535 38.106 6.5211 37.9726 6.87511C37.8956 7.08034 37.8751 7.27531 37.8751 7.44975C37.793 7.52158 37.7109 7.6088 37.6391 7.71141C37.5929 7.77811 37.5159 7.8602 37.4287 7.95256L37.3312 8.05517L37.2389 8.15778C37.1619 8.23987 37.0952 8.3117 37.0388 8.36814C37.0234 8.3784 37.0131 8.38866 37.0029 8.39892C36.6437 8.68624 36.4693 9.14287 36.536 9.59437V9.66107C36.5411 9.92274 36.5565 10.4102 36.9208 10.8411C37.0593 11.0053 37.1927 11.1644 37.321 11.3337C37.4698 11.5235 37.6391 11.6569 37.8084 11.7441C37.834 11.9391 37.9007 12.1597 38.0393 12.3701C38.2548 12.7036 38.537 12.8831 38.7217 12.9909C38.7678 13.0525 38.814 13.1038 38.8602 13.1499C38.8397 13.3859 38.8499 13.6784 38.9885 13.9862C39.0654 14.1607 39.168 14.3043 39.2604 14.4172C39.2296 14.6276 39.2245 14.8944 39.3117 15.1766C39.4451 15.5921 39.717 15.8487 39.9274 16.0129C39.9479 16.0898 39.9633 16.1565 39.9735 16.2181C39.9735 16.254 39.9684 16.2899 39.9633 16.3258C39.953 16.4079 39.9428 16.5105 39.9428 16.6234C39.8504 16.8081 39.7221 17.1006 39.717 17.4751C39.7119 17.8189 39.8248 18.0959 39.9428 18.3063C39.9017 18.4191 39.8607 18.5474 39.8401 18.6859C39.794 18.9681 39.8196 19.2144 39.835 19.3735C39.835 19.3888 39.8401 19.3991 39.8401 19.4145C39.8094 19.5274 39.7786 19.6556 39.7427 19.7788C39.6195 19.9122 39.4246 20.1328 39.3014 20.4458C39.2142 20.6664 39.1783 20.8716 39.1526 21.0204C39.1475 21.0461 39.1424 21.0717 39.1424 21.0922C39.1218 21.123 39.0859 21.1743 39.0603 21.2102C38.9885 21.3129 38.8961 21.4462 38.814 21.6002C38.7884 21.6412 38.737 21.7182 38.6806 21.79C38.6036 21.8977 38.5216 22.0055 38.4549 22.1184C38.3728 22.2518 38.3061 22.3749 38.2548 22.4878C38.2189 22.5596 38.1727 22.6468 38.1522 22.6827C38.0855 22.7802 38.0188 22.888 37.9521 22.9906C37.8956 23.0829 37.8443 23.1702 37.7981 23.2215C37.7006 23.3497 37.6288 23.478 37.5724 23.596C37.3312 23.6627 37.0439 23.7858 36.7925 24.0526C36.459 24.4067 36.3821 24.8222 36.3462 25.0531C36.2128 25.3097 36.1666 25.6021 36.223 25.8894C36.3 26.2947 36.5668 26.6334 36.9362 26.8129C37.0388 26.8642 37.1825 26.9258 37.3518 26.972C37.4236 26.9925 37.5006 27.0182 37.5878 27.049C37.7007 27.2183 37.8751 27.4491 38.1573 27.6287C38.2702 27.7006 38.383 27.7878 38.5267 27.9006L38.6293 27.9776C38.932 28.2085 39.2552 28.2854 39.4759 28.3214L39.5426 28.3881C39.6195 28.465 39.7016 28.5471 39.7837 28.6241C39.8607 28.701 39.9428 28.7729 40.03 28.8447C40.0864 28.896 40.148 28.9473 40.2044 28.9986C40.2763 29.1679 40.3994 29.4501 40.6508 29.7066C40.8458 29.9067 41.051 30.035 41.1895 30.1171C41.2152 30.1325 41.2408 30.1479 41.2613 30.1633C41.3896 30.2915 41.5127 30.3942 41.6154 30.4762C41.6564 30.5122 41.7077 30.5532 41.7385 30.5789C41.7539 30.6045 41.7641 30.625 41.7795 30.6507C41.8616 30.7995 41.9796 30.9996 42.1643 31.2048C42.2567 31.3074 42.3593 31.4049 42.4568 31.5024L42.6723 31.7179C42.8365 31.8923 43.0058 32.0206 43.134 32.1078C43.17 32.1335 43.211 32.1591 43.2367 32.1848C43.2674 32.2155 43.3136 32.2822 43.3649 32.3489C43.4521 32.467 43.5599 32.6106 43.6984 32.7543C43.9344 33.0005 44.191 33.1288 44.3603 33.216C44.3757 33.2212 44.3859 33.2263 44.4013 33.2366C44.5142 33.3443 44.6271 33.4264 44.7246 33.4931C44.781 33.7445 44.8939 34.0831 45.1863 34.3704C45.4018 34.5859 45.6429 34.7039 45.8276 34.7809C45.8943 34.9245 45.9867 35.1041 46.1406 35.2786L46.1714 35.3401C46.2381 35.4787 46.3407 35.6839 46.51 35.8891C46.7922 36.2277 47.1411 36.3611 47.4079 36.433L47.531 36.6331C47.5413 36.6587 47.5464 36.6844 47.5516 36.71C47.5926 36.8639 47.6542 37.0743 47.7722 37.2847C47.7824 37.3103 47.8081 37.3821 47.8235 37.4335C47.8645 37.5566 47.9107 37.7156 47.9877 37.8849C48.0184 37.9516 48.0492 38.0491 48.0851 38.1569C48.1108 38.2441 48.1416 38.3313 48.1724 38.4185C48.1775 38.4493 48.1775 38.475 48.1775 38.5058C48.1878 38.6494 48.2032 38.8444 48.2647 39.065C48.3622 39.419 48.5623 39.6653 48.7367 39.8346V39.9013C48.6341 40.0911 48.4905 40.4041 48.4956 40.794C48.4956 41.0352 48.5418 41.2404 48.5828 41.3841C48.5213 41.5175 48.4443 41.7073 48.4033 41.9331C48.3468 42.2358 48.3776 42.4923 48.3981 42.6616V42.677C48.3673 42.8309 48.3571 42.9695 48.3571 43.0875C48.2288 43.2106 48.0852 43.3748 47.9671 43.5954C47.9004 43.7237 47.8491 43.8417 47.8081 43.9443C47.6234 44.0315 47.3822 44.1752 47.177 44.4266C46.9667 44.6882 46.8743 44.9653 46.8333 45.1962C46.746 45.2475 46.6486 45.3039 46.5562 45.3809C46.3612 45.5348 46.2278 45.7041 46.1304 45.8426C45.9867 45.8734 45.8071 45.9145 45.6224 46.0017L45.5249 46.0479C45.3659 46.1197 45.212 46.1915 45.0991 46.2274C45.0324 46.248 44.9093 46.2634 44.7861 46.2787C44.7143 46.289 44.6425 46.2993 44.5706 46.3095C44.3654 46.3403 44.191 46.3967 44.0678 46.4378C44.0422 46.4481 44.0216 46.4532 43.996 46.4634H43.9549C43.8062 46.2634 43.5804 46.0273 43.2367 45.8837C43.0622 45.8119 42.8724 45.7759 42.6774 45.7759C42.5799 45.7759 42.4876 45.7862 42.4004 45.8016C42.3439 45.74 42.2772 45.6785 42.2054 45.622C42.149 45.5758 42.072 45.4938 41.9848 45.4065C41.954 45.3706 41.9181 45.3398 41.8873 45.3039C41.6461 44.9653 41.2562 44.7703 40.8458 44.7703C40.7739 44.7703 40.697 44.7755 40.6251 44.7908C40.1275 44.8781 39.7221 45.2526 39.599 45.7452C39.3579 45.8478 39.0859 46.0222 38.8858 46.3249C38.7011 46.602 38.6396 46.8842 38.619 47.1099C38.5113 47.192 38.3882 47.2998 38.2702 47.4383C37.9674 47.8026 37.9059 48.2181 37.8751 48.4388V48.4439C37.7622 48.6902 37.7314 48.9724 37.793 49.2443C37.87 49.5932 38.0906 49.8959 38.3984 50.0806C38.5062 50.1421 38.6088 50.1883 38.6909 50.2242C38.7576 50.3115 38.8243 50.3833 38.8807 50.45C38.9012 50.4756 38.9269 50.5013 38.9474 50.5269C38.9474 50.5372 38.9474 50.5475 38.9525 50.5526C38.9731 50.7117 39.0038 50.9271 39.1013 51.1683C39.1834 51.3786 39.286 51.5428 39.363 51.666C39.3681 51.6762 39.3784 51.6865 39.3835 51.7019V51.7275C39.3835 51.8815 39.3835 52.0918 39.4348 52.3278C39.4451 52.374 39.4502 52.4715 39.4553 52.5638C39.4605 52.6818 39.4707 52.7998 39.4861 52.9178C39.5169 53.1539 39.5887 53.354 39.6606 53.5079C39.6041 53.6515 39.5477 53.8311 39.5272 54.0415C39.5169 54.0825 39.5015 54.1184 39.4913 54.1543C39.4502 54.2775 39.3989 54.4314 39.363 54.6212C39.3476 54.7136 39.3117 54.8265 39.2706 54.9547C39.2501 55.0214 39.2296 55.0933 39.2091 55.1651C39.1578 55.3447 39.1424 55.514 39.1372 55.6628C38.9936 55.7859 38.8345 55.9552 38.7165 56.181C38.5729 56.458 38.5318 56.7197 38.501 56.889C38.4805 56.9198 38.46 56.9557 38.4395 56.9865C38.3728 57.0942 38.3112 57.1968 38.2599 57.2687C38.224 57.32 38.1521 57.3918 38.0752 57.4636C37.9982 57.5406 37.9213 57.6176 37.8443 57.6996C37.8187 57.7253 37.7417 57.7869 37.6801 57.8382C37.5775 57.9203 37.48 58.0023 37.3825 58.0896C37.1978 58.264 37.0798 58.4385 36.9926 58.5719C36.9824 58.5924 36.967 58.6078 36.9567 58.6232C36.813 58.736 36.6643 58.8489 36.5155 58.9515L36.4385 59.008C36.2846 59.1157 36.1358 59.2183 36.0024 59.2953C35.8793 59.3671 35.7715 59.4492 35.6843 59.521C35.6022 59.5108 35.5099 59.5005 35.4124 59.5005C35.202 59.5005 35.0019 59.5364 34.8121 59.6134C34.6325 59.6852 34.4888 59.7827 34.3657 59.8904C34.2528 59.8648 34.1297 59.8443 34.0014 59.8443C33.8937 59.8443 33.7911 59.8545 33.6885 59.8802C33.4832 59.9264 33.3139 60.0033 33.1754 60.0803C33.0215 60.029 32.8368 59.9879 32.6213 59.9828C32.3237 59.9828 32.0774 60.07 31.8773 60.188C31.7234 60.1162 31.549 60.0598 31.3437 60.0444C31.1385 60.029 30.9384 60.0084 30.7383 59.9828C30.7075 59.9725 30.6767 59.9623 30.6408 59.9469C30.5074 59.8956 30.3279 59.8289 30.1021 59.793C29.979 59.7724 29.8558 59.7622 29.7224 59.7622C29.6403 59.7622 29.5583 59.7673 29.4762 59.7724C29.4556 59.7724 29.4351 59.7776 29.4095 59.7776C29.2555 59.7468 29.117 59.7314 29.0093 59.7263C28.8707 59.5929 28.6655 59.4236 28.3782 59.3158C28.173 59.2388 27.9524 59.1978 27.7112 59.1978C27.6496 59.1978 27.5881 59.2029 27.5265 59.2029C27.4598 59.1824 27.3931 59.167 27.3264 59.1516C27.2341 58.9669 27.0955 58.772 26.8852 58.6026C26.7415 58.4898 26.603 58.4077 26.5004 58.3461C26.4696 58.3256 26.4388 58.3102 26.408 58.2897L26.4029 58.2845C26.2695 58.1511 26.1566 58.0383 26.0694 57.9254C25.8847 57.6894 25.6795 57.5457 25.5255 57.4482C25.505 57.4021 25.4845 57.3508 25.4588 57.2994C25.4845 57.0994 25.505 56.8069 25.4024 56.4734C25.3152 56.1912 25.1715 55.986 25.0381 55.8321C25.0484 55.7192 25.0535 55.5858 25.0433 55.437C25.0484 55.4114 25.0535 55.3857 25.0587 55.3652C25.0843 55.2164 25.1202 55.0112 25.1151 54.7649C25.1151 54.6931 25.11 54.6161 25.1048 54.5443C25.0997 54.4057 25.0894 54.2723 25.0946 54.1543C25.0997 54.0004 25.11 53.8465 25.1459 53.6977C25.1869 53.5335 25.1921 53.395 25.1921 53.3437C25.2228 52.7793 24.8791 52.2663 24.3557 52.0713H24.3506C24.3352 52.061 24.3198 52.0508 24.3044 52.0354C24.1659 51.9379 23.9556 51.7942 23.6785 51.7019C23.54 51.6557 23.4066 51.6044 23.268 51.5531C23.1295 51.3838 22.9089 51.1478 22.56 50.9938C22.4369 50.9374 22.3137 50.8758 22.1957 50.8194L21.9802 50.7117C21.7494 50.5988 21.4928 50.5423 21.2055 50.5423C21.1183 50.5423 21.0311 50.5475 20.9387 50.5526L20.9028 50.5577C20.3795 50.5936 19.9331 50.9477 19.774 51.4453V51.4505C19.5637 51.512 19.3379 51.6249 19.1276 51.8199C18.907 52.0302 18.7736 52.256 18.6915 52.4048C18.6812 52.4253 18.671 52.4407 18.6607 52.4612C18.5632 52.5536 18.4863 52.6511 18.4247 52.7434C18.0655 52.7537 17.7526 52.8563 17.4909 53.0512C17.2087 53.2616 17.0497 53.5284 16.9522 53.749C16.8085 53.7952 16.6443 53.8568 16.4802 53.9594C16.3108 54.062 16.1826 54.1851 16.08 54.3083C16.0133 54.298 15.9466 54.298 15.8799 54.298C15.6541 54.298 15.4386 54.3442 15.2385 54.4365C14.9153 54.5853 14.7101 54.8111 14.5715 55.0317C14.3971 55.0368 14.2278 55.0676 14.0739 55.1189C13.8379 55.201 13.6531 55.3087 13.5146 55.3857C13.4838 55.4062 13.4531 55.4216 13.4223 55.437C13.3402 55.4627 13.2632 55.4832 13.1811 55.5088C13.0529 55.5499 12.9297 55.5858 12.8015 55.6166C12.6681 55.6474 12.5295 55.673 12.391 55.6987C12.2114 55.6217 11.9446 55.5242 11.6163 55.5242C11.5496 55.5242 11.4829 55.5294 11.4162 55.5345C11.1699 55.5653 10.9749 55.632 10.8261 55.6782C10.7954 55.6884 10.7594 55.7038 10.7287 55.7089C10.5234 55.7295 10.349 55.7859 10.1951 55.8577C10.0001 55.7397 9.75896 55.6422 9.46651 55.6268H9.38442C9.05606 55.6268 8.78413 55.7295 8.57377 55.8475C8.49681 55.8116 8.41472 55.7756 8.32237 55.75C8.31211 55.7449 8.30185 55.7346 8.29159 55.7295C8.15819 55.632 7.95809 55.4883 7.68616 55.3908C7.51172 55.3293 7.32189 55.2985 7.12692 55.2985C7.07048 55.2985 7.01404 55.3036 6.96274 55.3036C6.81908 55.1446 6.61898 54.9752 6.35219 54.8675C6.12131 54.7752 5.90582 54.7392 5.74677 54.7187C5.6185 54.5751 5.42866 54.3852 5.15674 54.2416C4.94125 54.1338 4.70524 54.0774 4.45384 54.0774C4.28965 54.0774 4.14599 54.0979 4.01773 54.1287C3.99207 54.1082 3.96129 54.0876 3.93564 54.0671L3.93051 54.062L3.91511 54.0312C3.82789 53.8824 3.69449 53.6567 3.46874 53.4566C3.34048 53.3386 3.20195 53.1846 3.06342 53.0205C2.86332 52.7896 2.63757 52.6511 2.47852 52.5536C2.46826 52.5279 2.458 52.5023 2.44774 52.4817C2.41182 52.3945 2.36565 52.2868 2.30921 52.1739C2.30921 52.1585 2.30408 52.138 2.30408 52.1226C2.27843 51.9533 2.24251 51.7019 2.12964 51.4351C2.07833 51.3222 2.03215 51.1939 1.97572 51.04C2.01676 50.8194 2.06294 50.4859 1.95519 50.1114C1.91928 49.978 1.88849 49.8446 1.85258 49.706C1.83206 49.6239 1.81667 49.5419 1.79614 49.4546C1.70892 49.0852 1.50369 48.8184 1.3549 48.6491C1.34977 48.5876 1.34977 48.5209 1.34977 48.4593L1.34464 48.2694L1.33951 48.1053C1.33438 47.9873 1.32925 47.8744 1.32925 47.7718C1.41647 47.6127 1.54474 47.3664 1.60118 47.0483C1.64222 46.7969 1.63196 46.5763 1.62683 46.4173C1.62683 46.3916 1.6217 46.366 1.6217 46.3403C1.65248 46.2069 1.67814 46.0838 1.69353 45.9812C1.70379 45.9299 1.71405 45.858 1.72431 45.817C1.73971 45.7965 1.76023 45.7708 1.77562 45.7503C1.86797 45.6323 1.99624 45.4681 2.09885 45.2526L2.19121 45.0679C2.26303 44.9191 2.3246 44.7908 2.38617 44.6882C2.49391 44.5087 2.56575 44.3445 2.62731 44.2111C2.64271 44.17 2.66323 44.129 2.68375 44.0879C2.71966 44.0469 2.78636 43.9853 2.8428 43.9238C2.94028 43.8314 3.03777 43.7339 3.12499 43.6364C3.33535 43.4004 3.44822 43.1542 3.52518 42.9951C3.53031 42.9848 3.53544 42.9695 3.54057 42.9592C3.61753 42.8771 3.68423 42.8001 3.7458 42.7283C3.99207 42.7181 4.29478 42.677 4.59749 42.4974C4.89507 42.323 5.08491 42.0972 5.20805 41.9536C5.22344 41.9331 5.23883 41.9177 5.25422 41.8971C5.77242 41.461 5.86477 40.6966 5.45945 40.1527C5.36197 40.0244 5.26961 39.9167 5.167 39.8243C5.01308 39.6858 4.85403 39.5986 4.70011 39.5319C4.66419 39.3728 4.60262 39.2035 4.49488 39.0394C4.38714 38.87 4.264 38.7366 4.17165 38.6392C4.24348 38.5263 4.31018 38.398 4.36148 38.2492C4.4641 37.9363 4.44357 37.6489 4.40253 37.4283C4.48462 37.3154 4.57697 37.182 4.6488 37.0127C4.72576 36.8434 4.76168 36.6741 4.77707 36.5253C4.98743 36.4073 5.20291 36.2277 5.36197 35.9507C5.52615 35.6582 5.56719 35.3658 5.55693 35.1195C5.66981 35.0323 5.78268 34.9194 5.88529 34.7758C6.02382 34.5808 6.10591 34.3961 6.16748 34.2576C6.18287 34.2268 6.19314 34.196 6.20853 34.1652C6.2547 34.1088 6.30088 34.0472 6.34706 33.9856C6.42402 33.883 6.50098 33.7804 6.5882 33.6829C6.67029 33.5906 6.75751 33.4982 6.84986 33.4059C7.07561 33.3546 7.40911 33.2519 7.70156 32.9851C7.876 32.8261 7.99401 32.667 8.08123 32.549C8.10175 32.5234 8.11714 32.4926 8.1428 32.467C8.29159 32.3387 8.39933 32.195 8.48142 32.0565C8.74309 32.0308 8.9791 31.9436 9.18946 31.8051C9.4973 31.5999 9.66661 31.3331 9.76922 31.0919C9.87183 31.0663 9.98471 31.0252 10.1027 30.9688C10.1181 30.9688 10.1335 30.9637 10.1489 30.9637C10.3285 30.9329 10.5953 30.8918 10.8826 30.743C11.1186 30.625 11.2879 30.4609 11.4162 30.3069H11.4521C11.6932 30.3069 11.9241 30.2608 12.1293 30.1684C12.3602 30.0658 12.5347 29.9324 12.6629 29.8349H12.6988C12.8733 29.8349 13.1401 29.8195 13.4274 29.7066C13.9251 29.5117 14.1713 29.1166 14.3099 28.8447C14.6075 28.6446 14.8127 28.3214 14.864 27.9571C14.9307 27.4748 14.7203 26.9976 14.3201 26.7257L14.2791 26.6949C14.238 26.6539 14.197 26.618 14.156 26.5769C14.0687 26.4948 13.9866 26.4179 13.9199 26.3461C13.9097 26.3204 13.8943 26.2999 13.884 26.2742C13.8173 26.1357 13.725 25.951 13.5711 25.756C13.4633 25.6175 13.3556 25.5097 13.2683 25.4174C13.2222 25.3712 13.1657 25.3097 13.1503 25.2891C13.0169 25.0942 12.8733 24.9556 12.7604 24.853C12.7348 24.6734 12.6834 24.4323 12.5501 24.1758C12.509 24.0988 12.468 24.0167 12.4218 23.9398C12.3551 23.8218 12.2986 23.7089 12.2525 23.6114C12.2114 23.5242 12.1704 23.4113 12.1293 23.2882C12.0934 23.1958 12.0626 23.1035 12.0267 23.0111C11.8831 22.6468 11.6317 22.4108 11.4572 22.2672C11.4418 22.2056 11.4213 22.144 11.4059 22.0825L11.4008 22.0722C11.447 21.8618 11.5085 21.5335 11.4162 21.1589C11.3751 20.9845 11.3392 20.81 11.3033 20.6407C11.3033 20.6305 11.3084 20.6202 11.3084 20.6099C11.3341 20.4458 11.37 20.1995 11.3289 19.907C11.3289 19.8814 11.3289 19.8096 11.3341 19.7531C11.3392 19.6249 11.3443 19.4658 11.3289 19.2811C11.2982 18.9425 11.175 18.6808 11.0929 18.5166C11.0929 18.4191 11.0981 18.3268 11.0981 18.2293V18.1831C11.1648 18.0292 11.2776 17.7675 11.3033 17.4443C11.3136 17.3212 11.3289 17.2032 11.3495 17.0852C11.3597 17.0031 11.3751 16.921 11.3854 16.8389C11.4316 16.4849 11.3443 16.1822 11.2315 15.9513C11.2828 15.8435 11.3341 15.7204 11.37 15.5819C11.411 15.4228 11.4213 15.274 11.4264 15.1509C11.5085 15.0791 11.5906 14.997 11.6727 14.8995C11.8882 14.6276 11.9805 14.2838 11.9395 13.9401C11.8985 13.6117 11.7291 13.3141 11.4675 13.1038C11.4367 13.0781 11.4008 13.0473 11.3597 13.0165C11.2571 12.8831 11.0981 12.6779 10.8364 12.5035C10.7235 12.4316 10.6209 12.3444 10.4824 12.2213C10.4259 12.1751 10.3644 12.1033 10.2823 12.0058L10.1848 11.8929C9.96419 11.6415 9.70765 11.5081 9.52808 11.4312C9.50756 11.4055 9.49217 11.385 9.47164 11.3645C9.45625 11.3439 9.44086 11.3285 9.42547 11.308C9.42547 11.2926 9.42033 11.2824 9.42033 11.267C9.41007 11.1849 9.39468 11.0823 9.3639 10.9694C9.37929 10.8155 9.40494 10.5897 9.3639 10.3178C9.31259 10.0151 9.18432 9.77908 9.06119 9.60977C9.06632 9.58411 9.06632 9.55846 9.07145 9.53281C9.14841 9.39428 9.27155 9.17366 9.33311 8.88634C9.38442 8.65546 9.37416 8.4451 9.35877 8.28605C9.4306 8.18344 9.51269 8.05517 9.57939 7.90125C9.66148 7.72168 9.70765 7.55236 9.73844 7.4241C9.82053 7.35227 9.92314 7.25991 10.0258 7.14191C10.1592 7.05982 10.3798 6.92642 10.5799 6.70067C10.7338 6.52623 10.8261 6.34665 10.8826 6.17734C11.016 6.12603 11.1545 6.04907 11.293 5.94133C11.4777 5.79767 11.606 5.63349 11.6932 5.50522C11.7907 5.47957 11.9138 5.43852 12.0421 5.38208H12.0575C12.2063 5.36156 12.432 5.33591 12.6886 5.22816C12.9502 5.11529 13.1452 4.95111 13.2735 4.81771C13.3761 4.80745 13.4941 4.79206 13.6275 4.7664C13.7352 4.74588 13.8379 4.7151 13.9405 4.68944C13.9815 4.67918 14.0328 4.66379 14.0739 4.65353C14.079 4.65353 14.0841 4.65866 14.0944 4.65866C14.2227 4.68431 14.4125 4.72536 14.6588 4.72536C14.6844 4.72536 14.7614 4.74075 14.8127 4.75101C14.9256 4.77153 15.0384 4.78693 15.1564 4.80232C15.1975 4.80745 15.2539 4.80745 15.295 4.80745C15.5105 4.80745 15.7003 4.76127 15.8645 4.6997C15.9517 4.74588 16.0492 4.79206 16.162 4.82797C16.2749 4.86389 16.3929 4.89467 16.5109 4.92545C16.5417 4.93058 16.5776 4.94085 16.6033 4.95111L16.6289 4.97676C16.7213 5.05885 16.8496 5.17686 17.0137 5.2846C17.1933 5.40261 17.3626 5.46931 17.4806 5.52061C17.496 5.52574 17.5114 5.53087 17.5268 5.54114C17.6294 5.62323 17.732 5.68993 17.8141 5.74636C17.8398 5.76689 17.8706 5.78228 17.8962 5.8028C17.9527 5.86437 18.0142 5.92594 18.0758 5.99264C18.0963 6.01829 18.1271 6.04394 18.1528 6.07473C18.2913 6.39283 18.5581 6.6391 18.8864 6.76224C19.0301 6.81354 19.1789 6.8392 19.3277 6.8392C19.5996 6.8392 19.8715 6.75198 20.0922 6.58779C20.2307 6.48518 20.3384 6.37744 20.4103 6.30048L20.4154 6.29535C20.5026 6.24917 20.5796 6.20299 20.6514 6.15682C20.7797 6.1876 20.9233 6.21325 21.0824 6.21325C21.2466 6.21325 21.4107 6.1876 21.5647 6.13629C21.9135 6.02342 22.1496 5.80793 22.3086 5.6181C22.4266 5.61297 22.5703 5.6027 22.7293 5.56166C22.8832 5.52574 23.0269 5.47957 23.1398 5.43852C23.1962 5.418 23.2629 5.39748 23.304 5.38722C23.3296 5.38722 23.3553 5.39235 23.386 5.39235C23.4835 5.39748 23.581 5.40261 23.6785 5.40261C23.7862 5.40261 23.8837 5.39748 23.9812 5.38208C24.248 5.34617 24.4635 5.25382 24.6277 5.16147C24.7405 5.19738 24.8791 5.22816 25.0279 5.23843C25.2023 5.32052 25.4896 5.44365 25.8642 5.45391H25.8898C26.2798 5.45391 26.5927 5.31026 26.7774 5.21277C26.9211 5.20251 27.0442 5.18199 27.1366 5.1666C27.152 5.16147 27.1725 5.16147 27.1879 5.15633C27.2033 5.16147 27.2238 5.1666 27.2495 5.17173C27.3521 5.19738 27.4598 5.21277 27.5624 5.21277C28.055 5.21277 28.5167 4.92545 28.7322 4.46882C28.7476 4.43804 28.7681 4.40726 28.7835 4.37647C28.7989 4.35082 28.8143 4.32516 28.8297 4.29438C29.0247 4.17637 29.2863 3.98141 29.4659 3.64278C29.5634 3.45808 29.6147 3.27337 29.6352 3.10406C29.7327 3.03736 29.8302 2.9604 29.9225 2.85779C30.1483 2.61152 30.256 2.33959 30.3125 2.16002C30.3227 2.14976 30.333 2.13949 30.3433 2.1241C30.528 2.10871 30.7691 2.06253 31.0154 1.93427C31.1488 1.86244 31.2719 1.80087 31.395 1.74956H31.4258C31.5541 1.7393 31.7491 1.72904 31.9697 1.66747C32.1698 1.61103 32.3134 1.58025 32.452 1.5546C32.7136 1.50842 32.9189 1.41607 33.0523 1.34937C33.0574 1.34937 33.0625 1.34424 33.0625 1.34424C33.0933 1.3545 33.1549 1.34424 33.2113 1.33398M33.4268 0C33.2164 0 33.0112 0.0820907 32.806 0.0974827C32.5905 0.112875 32.4058 0.271926 32.1954 0.307841C31.9851 0.343756 31.7901 0.395062 31.59 0.4515C31.3848 0.507937 31.159 0.472023 30.9589 0.548983C30.7588 0.625943 30.5741 0.723426 30.3843 0.820909C30.1945 0.918392 29.8866 0.83117 29.7122 0.949176C29.5326 1.06718 29.3941 1.26215 29.2299 1.40068C29.0657 1.5392 29.076 1.85731 28.9374 2.01123C28.7938 2.17028 28.4295 2.14976 28.3064 2.3242C28.1832 2.49864 28.3936 2.87318 28.291 3.06302C28.1935 3.24772 27.8241 3.30929 27.7523 3.50939C27.6958 3.65818 27.5932 3.80183 27.5214 3.95062C27.429 3.92497 27.3418 3.90445 27.2495 3.89419C27.2238 3.88906 27.193 3.88906 27.1674 3.88906C26.9775 3.88906 26.7826 3.95576 26.5927 3.95576H26.5414H26.5209C26.2951 3.95576 26.0694 4.1969 25.8436 4.1969H25.8385C25.6128 4.19177 25.387 3.98654 25.1561 3.98654H25.1459H25.1305C24.915 3.98654 24.6841 3.82749 24.4686 3.82749H24.4327C24.2018 3.84801 23.9915 4.09941 23.7606 4.1302C23.7144 4.13533 23.6734 4.14046 23.6272 4.14046C23.4938 4.14046 23.3604 4.11994 23.227 4.11994C23.1706 4.11994 23.109 4.12507 23.0526 4.13533C22.8268 4.17637 22.6062 4.27899 22.3804 4.33029C22.3035 4.34569 22.2265 4.35082 22.1444 4.35082C22.0726 4.35082 22.0059 4.34569 21.9341 4.34569C21.8417 4.34569 21.7494 4.35082 21.6673 4.37647C21.4415 4.44317 21.3338 4.85876 21.1132 4.93058C21.0875 4.94085 21.0619 4.94085 21.0311 4.94085C20.8464 4.94085 20.6052 4.78693 20.4205 4.78693C20.3897 4.78693 20.3641 4.79206 20.3333 4.80232C20.1127 4.87928 19.9485 5.0999 19.733 5.18712C19.5534 5.25895 19.4252 5.45391 19.2661 5.57192C19.2559 5.53087 19.2456 5.4847 19.2251 5.44878C19.1019 5.26408 18.9172 5.10503 18.7736 4.94085C18.6299 4.77666 18.4042 4.67405 18.24 4.53552C18.0758 4.39186 17.8347 4.35082 17.6499 4.23281C17.4652 4.11481 17.3267 3.91984 17.1318 3.82749C16.9368 3.73514 16.711 3.70948 16.5007 3.63765C16.2954 3.57095 16.1261 3.31442 15.9106 3.27337C15.8953 3.26824 15.885 3.26824 15.8696 3.26824C15.6695 3.26824 15.4284 3.55043 15.2283 3.55043H15.2077C14.9974 3.52991 14.8024 3.47347 14.5869 3.47347H14.5715H14.5613C14.3714 3.47347 14.1816 3.39651 13.9918 3.39651C13.9661 3.39651 13.9456 3.39651 13.9199 3.40164C13.7045 3.4273 13.4992 3.50426 13.2837 3.55043C13.0734 3.59661 12.8476 3.58122 12.6373 3.64791C12.432 3.71461 12.314 4.00193 12.1139 4.08915C11.9138 4.17124 11.6727 4.13533 11.4777 4.24307C11.2879 4.34569 11.0416 4.34569 10.8569 4.46882C10.6722 4.59196 10.5953 4.84849 10.4259 4.98189C10.2515 5.12042 9.93853 5.08451 9.77948 5.23329C9.62043 5.38722 9.682 5.74123 9.53834 5.90541C9.39468 6.0696 9.13815 6.1363 9.01501 6.31074C8.88675 6.49031 8.65073 6.59806 8.54299 6.78789C8.43011 6.97773 8.42498 7.224 8.33776 7.4241C8.24541 7.62419 8.06583 7.7935 7.99914 7.99873C7.93244 8.20909 8.04531 8.46562 8.00427 8.67598C7.95809 8.89147 7.75799 9.08131 7.73747 9.29679C7.71695 9.51741 7.66564 9.74316 7.67077 9.96378C7.6759 10.1844 7.98374 10.3691 8.01966 10.5846C8.05557 10.8001 7.95296 11.0361 8.01966 11.2465C8.08123 11.4517 8.0761 11.698 8.16845 11.898C8.2608 12.093 8.43524 12.2572 8.55325 12.4419C8.67639 12.6266 8.99449 12.6369 9.13815 12.8011C9.28181 12.9652 9.39981 13.114 9.56399 13.2577C9.72818 13.4013 9.87697 13.5245 10.0565 13.6425C10.2412 13.7605 10.3285 14.0222 10.5234 14.1145C10.544 14.1248 10.5645 14.1453 10.585 14.1607C10.4516 14.3249 10.1592 14.4377 10.1027 14.6276C10.036 14.8482 10.1027 15.1099 10.0463 15.3356C9.98984 15.5614 9.73844 15.7461 9.69226 15.9769C9.65122 16.2027 10.0668 16.5054 10.0411 16.7363C10.0104 16.9672 9.96932 17.1827 9.95393 17.4135C9.93853 17.6444 9.75383 17.8599 9.7487 18.0908C9.74357 18.3217 9.73331 18.5525 9.73844 18.7834C9.74357 19.0143 9.95906 19.2247 9.97445 19.4555C9.99497 19.6864 9.95393 19.9122 9.98471 20.1431C10.0155 20.3688 9.90775 20.6202 9.9488 20.846C9.98984 21.0717 10.036 21.2975 10.0925 21.5232C10.1489 21.7541 9.96419 22.0517 10.0309 22.2774C10.0976 22.5083 10.1592 22.7494 10.2361 22.9701C10.3131 23.1958 10.6671 23.3241 10.7543 23.5396C10.8415 23.7602 10.9134 23.9859 11.0108 24.2014C11.1083 24.4169 11.2315 24.6221 11.3392 24.8274C11.447 25.0377 11.4059 25.3353 11.5239 25.5405C11.6471 25.7458 11.8831 25.8792 12.0165 26.0741C12.1499 26.2691 12.3448 26.423 12.4885 26.6077C12.6321 26.7924 12.6988 27.049 12.8528 27.2285C13.0118 27.403 13.1914 27.562 13.3607 27.7262C13.4069 27.7724 13.4633 27.8032 13.5197 27.8391C13.4787 27.8545 13.4377 27.8647 13.3966 27.8801C13.176 27.9622 13.1144 28.4804 12.8887 28.5676C12.8117 28.5984 12.7194 28.6035 12.627 28.6035C12.5603 28.6035 12.4885 28.5984 12.4218 28.5984C12.3243 28.5984 12.2268 28.6035 12.1447 28.6395C11.9241 28.7318 11.7599 28.9473 11.5342 29.0499C11.488 29.0704 11.4367 29.0756 11.3803 29.0756C11.2315 29.0756 11.0519 29.0191 10.9031 29.0191C10.8415 29.0191 10.7902 29.0294 10.7389 29.0499C10.5234 29.1525 10.4465 29.5425 10.231 29.6502C10.0155 29.758 9.72818 29.7272 9.51782 29.8452C9.30746 29.9632 8.99962 29.9221 8.79439 30.0453C8.58916 30.1684 8.61482 30.6558 8.41985 30.7841C8.36855 30.82 8.29672 30.8303 8.22489 30.8303C8.09149 30.8303 7.92731 30.7943 7.79391 30.7943C7.71695 30.7943 7.64512 30.8046 7.59894 30.8457C7.40398 30.9893 7.4245 31.3998 7.24493 31.5486C7.06022 31.7025 6.95761 31.9282 6.78316 32.0873C6.60359 32.2515 6.23418 32.2002 6.07 32.3643C5.90069 32.5336 5.73138 32.703 5.57745 32.8774C5.4184 33.057 5.27987 33.2519 5.13109 33.4366C4.9823 33.6265 4.92586 33.8779 4.78733 34.0677C4.6488 34.2627 4.29478 34.3191 4.17165 34.5141C4.04338 34.7193 4.30505 35.1554 4.18704 35.3555C4.06903 35.5659 3.54057 35.5505 3.43283 35.7557C3.32509 35.9712 3.50466 36.3252 3.41231 36.5356C3.31482 36.7613 3.08394 36.9204 3.00185 37.1307C2.91463 37.3616 3.14551 37.6849 3.07368 37.9003C3.00185 38.121 2.52983 38.2954 2.55035 38.5417C2.56574 38.7623 2.81715 38.9829 2.9095 39.2189C2.98646 39.4293 3.21734 39.5627 3.35587 39.773C3.47387 39.9629 3.32509 40.3785 3.48927 40.5683C3.63806 40.7376 4.06903 40.6555 4.25374 40.8197C4.29991 40.8607 4.33583 40.9069 4.37688 40.9582C4.21269 41.0865 4.08956 41.3174 3.89459 41.4354C3.81763 41.4816 3.70476 41.4918 3.58675 41.4918H3.4277C3.28917 41.4918 3.15064 41.5021 3.05829 41.5739C2.86332 41.7227 2.71967 41.9792 2.5247 42.1537C2.34513 42.323 2.29382 42.636 2.11937 42.8258C1.95519 43.0105 1.74484 43.1695 1.59092 43.3748C1.44213 43.5749 1.38056 43.8365 1.24716 44.0572C1.11376 44.2675 1.01628 44.4984 0.903404 44.7293C0.790529 44.955 0.57504 45.1346 0.487819 45.3757C0.400597 45.6118 0.385205 45.8734 0.318506 46.1197C0.251807 46.3608 0.333898 46.6276 0.287722 46.879C0.246676 47.1253 0.0209268 47.3459 0.00553472 47.6025C-0.00985733 47.8487 0.0106653 48.1053 0.0209266 48.3669C0.031188 48.6132 0.0311881 48.8749 0.0671028 49.1263C0.103018 49.3725 0.451904 49.5521 0.513472 49.8035C0.57504 50.0549 0.621216 50.2858 0.687915 50.5167C0.759745 50.763 0.57504 51.0759 0.652 51.3017C0.739222 51.5428 0.821312 51.7788 0.918795 51.9943C1.02141 52.2303 0.990625 52.5279 1.1035 52.7383C1.22664 52.964 1.3036 53.2308 1.43699 53.4309C1.58065 53.6413 1.90389 53.7234 2.06294 53.9029C2.22712 54.0928 2.3913 54.2826 2.57088 54.4468C2.75045 54.611 2.83767 54.9188 3.03777 55.0676C3.23273 55.2113 3.44822 55.3754 3.66371 55.5037C3.69962 55.5242 3.74067 55.5345 3.79198 55.5345C3.97668 55.5345 4.23835 55.4062 4.42818 55.4062C4.47436 55.4062 4.5154 55.4114 4.55132 55.4319C4.76681 55.5396 4.88994 55.8423 5.12082 55.9449C5.34144 56.0424 5.6185 56.0065 5.85451 56.0989C6.08026 56.1861 6.18287 56.6068 6.42402 56.694C6.45993 56.7094 6.50098 56.7145 6.54202 56.7145C6.71647 56.7145 6.93195 56.6171 7.11153 56.6171C7.1577 56.6171 7.19875 56.6222 7.23466 56.6376C7.45528 56.7197 7.63999 56.9506 7.89139 57.0121C8.12227 57.0634 8.34289 57.3046 8.59943 57.3405H8.62508C8.85596 57.3405 9.12789 56.9506 9.36903 56.9506H9.37929C9.62043 56.966 9.85644 57.4175 10.1078 57.4175H10.113C10.3541 57.4123 10.5901 57.048 10.8415 57.0327C11.0827 57.0173 11.3136 56.8839 11.5598 56.8531H11.6009C11.8164 56.8531 12.0626 57.0583 12.2833 57.0583C12.3038 57.0583 12.3192 57.0583 12.3397 57.0532C12.5808 57.0121 12.8322 56.9711 13.0734 56.9146C13.3145 56.8582 13.5505 56.7761 13.7917 56.7094C14.0277 56.6427 14.2329 56.458 14.4689 56.3759C14.5151 56.3605 14.5664 56.3554 14.6177 56.3554C14.7716 56.3554 14.9461 56.4067 15.1 56.4067C15.1616 56.4067 15.2129 56.4016 15.2642 56.3811C15.4951 56.2887 15.531 55.75 15.7567 55.6474C15.7875 55.632 15.8234 55.6268 15.8593 55.6268C16.0594 55.6268 16.3365 55.791 16.5366 55.791C16.5776 55.791 16.6135 55.7859 16.6495 55.7654C16.8701 55.6474 16.9214 55.2318 17.1318 55.0984C17.3421 54.9701 17.6397 54.9701 17.8398 54.8316C18.045 54.6931 18.045 54.2672 18.24 54.1236C18.2913 54.0825 18.3682 54.0723 18.4503 54.0723C18.594 54.0723 18.7684 54.1082 18.9121 54.1082C18.9942 54.1082 19.0711 54.0928 19.1225 54.0517C19.3174 53.8927 19.3687 53.5694 19.5534 53.4053C19.7433 53.2411 19.8151 52.9589 19.9947 52.7896C20.1794 52.6151 20.636 52.728 20.8053 52.5536C20.949 52.4048 20.9131 52.0867 20.9798 51.8763C21.0516 51.8712 21.1183 51.8661 21.185 51.8661C21.2619 51.8661 21.3338 51.8763 21.3953 51.9071C21.6108 52.0148 21.8109 52.1175 22.0264 52.2149C22.247 52.3124 22.365 52.6357 22.5805 52.7178C22.8012 52.805 23.0269 52.8871 23.2475 52.964C23.4733 53.041 23.658 53.2565 23.8837 53.318C23.8889 53.318 23.8889 53.318 23.894 53.3232C23.894 53.3591 23.894 53.395 23.8837 53.4258C23.8119 53.6977 23.8016 53.944 23.7914 54.1595C23.7811 54.4006 23.8016 54.6315 23.8119 54.8572C23.8222 55.0984 23.7195 55.3395 23.7452 55.5653C23.7709 55.8064 23.6734 56.063 23.7195 56.2887C23.7657 56.5247 24.0941 56.6838 24.1608 56.9044C24.2326 57.1353 24.0838 57.438 24.171 57.6432C24.2634 57.8638 24.3557 58.0998 24.4686 58.2948C24.5866 58.5 24.8945 58.5821 25.033 58.7668C25.1767 58.9515 25.3408 59.1106 25.4999 59.2748C25.6641 59.4389 25.8898 59.521 26.0694 59.6647C26.2541 59.8083 26.2336 60.2496 26.4285 60.3727C26.6235 60.4959 26.957 60.3932 27.1674 60.4959C27.2341 60.5318 27.3162 60.5369 27.3982 60.5369C27.4906 60.5369 27.5881 60.5266 27.6804 60.5266C27.7523 60.5266 27.8241 60.5318 27.8857 60.5574C28.1011 60.6395 28.2397 60.9217 28.4654 60.9935C28.686 61.0602 28.9272 61.0397 29.1581 61.091C29.2196 61.1064 29.2863 61.1115 29.353 61.1115C29.4659 61.1115 29.5788 61.0962 29.6968 61.0962C29.7532 61.0962 29.8045 61.1013 29.861 61.1064C30.0919 61.1475 30.2971 61.2757 30.528 61.3014C30.7588 61.3322 30.9846 61.3527 31.2155 61.3732C31.4464 61.3937 31.6567 61.7888 31.8876 61.7991H31.8927C32.1236 61.7991 32.3699 61.3168 32.5956 61.3168C32.8111 61.3219 33.0266 61.5271 33.2524 61.5271H33.2934C33.5191 61.5015 33.6987 61.2347 33.9347 61.1834C33.945 61.1782 33.9604 61.1782 33.9758 61.1782C34.181 61.1782 34.4735 61.481 34.6838 61.481C34.7043 61.481 34.7249 61.4758 34.7402 61.4707C34.9609 61.404 35.0481 60.9371 35.2687 60.8499C35.3046 60.8345 35.3457 60.8294 35.3867 60.8294C35.5509 60.8294 35.7561 60.9166 35.9203 60.9166C35.9716 60.9166 36.0178 60.9063 36.0588 60.8909C36.2641 60.7883 36.4231 60.5677 36.6283 60.4446C36.8284 60.3266 37.0234 60.188 37.2184 60.0546C37.4082 59.9212 37.6032 59.7776 37.7827 59.6288C37.9623 59.48 38.0598 59.2337 38.2291 59.0747C38.3984 58.9156 38.5985 58.7873 38.7576 58.6129C38.9166 58.4385 39.0962 58.2845 39.2399 58.0998C39.3835 57.9151 39.4964 57.7048 39.6195 57.5098C39.7478 57.3148 39.7067 57.0275 39.8145 56.8223C39.9222 56.6171 40.2763 56.5247 40.3686 56.3041C40.4558 56.0886 40.3378 55.7962 40.4045 55.5704C40.4712 55.3498 40.5482 55.1343 40.5892 54.8983C40.6303 54.6725 40.7483 54.4519 40.7688 54.2159C40.7842 53.985 40.9894 53.7439 40.9843 53.5079C40.9792 53.277 40.7534 53.0461 40.7226 52.8101C40.697 52.5844 40.7072 52.3381 40.6559 52.1072C40.6097 51.8814 40.6662 51.6147 40.5995 51.3838C40.5328 51.1632 40.3532 50.9682 40.266 50.7476C40.1839 50.5372 40.2044 50.255 40.1018 50.0395C39.9787 49.7881 39.7324 49.5932 39.5939 49.3623C39.481 49.1776 39.2091 49.1314 39.0192 49.0185C39.1526 48.8338 39.0911 48.4747 39.2347 48.3054C39.3886 48.1207 39.6554 48.0283 39.794 47.8436C39.9376 47.6538 39.8042 47.2741 39.9325 47.0791C40.0659 46.879 40.579 46.9201 40.6918 46.7149C40.7945 46.5404 40.7688 46.2993 40.8201 46.0992C40.8355 46.1248 40.8458 46.1505 40.8663 46.171C41.0407 46.3403 41.1998 46.5301 41.3845 46.6738C41.5743 46.8226 41.6718 47.1407 41.8719 47.2587C41.9027 47.2792 41.9437 47.2844 41.9848 47.2844C42.1797 47.2844 42.4619 47.1048 42.6569 47.1048C42.6877 47.1048 42.7133 47.1099 42.739 47.1202C42.9596 47.2074 43.0622 47.6743 43.2931 47.7205C43.524 47.7666 43.7908 47.7872 44.0319 47.7923H44.0422C44.2731 47.7923 44.5091 47.6589 44.7502 47.623C44.976 47.5871 45.2222 47.5717 45.4634 47.4947C45.684 47.428 45.9046 47.3203 46.1304 47.2177C46.3459 47.1202 46.6383 47.1356 46.8435 47.0124C47.0436 46.8893 47.1411 46.5866 47.3258 46.4378C47.5105 46.2941 47.7824 46.2274 47.9518 46.0633C48.1211 45.8991 47.9928 45.4681 48.1467 45.2834C48.2955 45.0987 48.6495 45.0782 48.7778 44.8781C48.9061 44.6831 48.9728 44.442 49.0805 44.2316C49.1882 44.0212 49.4858 43.893 49.5782 43.6672C49.6654 43.4466 49.573 43.1593 49.6397 42.9284C49.7064 42.7027 49.5884 42.441 49.6346 42.205C49.6757 41.9741 49.8398 41.7689 49.8604 41.5277C49.8809 41.2969 49.7475 41.0608 49.7475 40.8197C49.7475 40.5837 50.0194 40.3374 49.9989 40.0963C49.9784 39.8654 50.0245 39.6037 49.9784 39.3677C49.9373 39.1368 49.5371 38.988 49.4756 38.752C49.414 38.5263 49.4448 38.2749 49.3627 38.0491C49.2806 37.8285 49.2293 37.5976 49.1267 37.3821C49.0292 37.1718 48.9933 36.9204 48.8753 36.71C48.7624 36.5048 48.747 36.2277 48.6187 36.0276C48.4905 35.8327 48.3776 35.6069 48.2339 35.412C48.0954 35.2273 47.6234 35.2888 47.4695 35.1041C47.3207 34.9245 47.2642 34.668 47.1001 34.4884C46.941 34.3191 46.9102 34.0113 46.7358 33.8471C46.5613 33.6778 46.2381 33.6624 46.0739 33.4982C45.8995 33.3289 45.9713 32.9236 45.802 32.7543C45.6327 32.5798 45.3967 32.4772 45.2325 32.3079C45.0632 32.1335 44.7759 32.077 44.6117 31.9077C44.4424 31.7333 44.3192 31.5178 44.155 31.3485C43.9857 31.1689 43.7549 31.0611 43.5958 30.8867C43.4265 30.7071 43.2469 30.5481 43.0879 30.3736C42.9186 30.1941 42.8416 29.9375 42.6825 29.7682C42.5132 29.5886 42.3029 29.4604 42.1438 29.2911C41.9745 29.1115 41.718 29.0294 41.5538 28.8601C41.3845 28.6805 41.3486 28.3829 41.1793 28.2187C41.0048 28.0443 40.815 27.8904 40.6457 27.7313C40.4661 27.562 40.3019 27.3824 40.1275 27.2285C39.9428 27.0643 39.5785 27.1413 39.3938 27.0028C39.1988 26.8489 39.0244 26.7155 38.8345 26.5872C38.6242 26.4538 38.5523 26.1203 38.3471 26.0228C38.1214 25.9151 37.9007 25.8279 37.675 25.7663C37.6083 25.7458 37.5365 25.7201 37.4698 25.6842C37.6288 25.5149 37.5621 25.1249 37.7212 24.9608C37.8802 24.7863 38.3163 24.8582 38.4703 24.6837C38.6242 24.5041 38.6652 24.2271 38.8089 24.0424C38.9525 23.8577 39.0654 23.6422 39.1988 23.4523C39.3322 23.2574 39.4194 23.0316 39.5426 22.8367C39.6657 22.6366 39.8248 22.457 39.9376 22.2518C40.0505 22.0465 40.2198 21.8618 40.3173 21.6515C40.4199 21.436 40.4097 21.1743 40.4969 20.9588C40.5841 20.7382 40.8509 20.5792 40.9227 20.3585C40.9945 20.1328 41.0561 19.8917 41.1126 19.6659C41.169 19.4402 41.0715 19.1682 41.1074 18.9373C41.1485 18.7065 41.3383 18.4858 41.3588 18.2498C41.3793 18.019 40.9997 17.7624 41.0048 17.5264C41.0048 17.2904 41.246 17.0544 41.2306 16.8184C41.2152 16.5875 41.287 16.331 41.2562 16.1001C41.2203 15.8692 41.1485 15.6332 41.0972 15.4023C41.0459 15.1766 40.6149 15.0534 40.543 14.8277C40.4712 14.6071 40.697 14.2889 40.6149 14.0683C40.5328 13.8528 40.2609 13.7143 40.1685 13.4988C40.0762 13.2885 40.2916 12.9191 40.189 12.7138C40.0864 12.5086 39.8196 12.3752 39.7067 12.1751C39.5939 11.975 39.2604 11.9083 39.1321 11.7082C39.009 11.5132 39.1988 11.1028 39.0603 10.913C38.9269 10.7231 38.4908 10.7539 38.3471 10.5692C38.2035 10.3845 38.0598 10.2101 37.911 10.0356C37.7981 9.90222 37.8494 9.62516 37.8135 9.42506C37.8238 9.4148 37.8392 9.40967 37.8494 9.39941C38.0136 9.26088 38.1419 9.10696 38.2855 8.95304C38.4292 8.79399 38.5729 8.65546 38.696 8.48102C38.8191 8.30657 39.1526 8.2604 39.2501 8.07056C39.3476 7.88586 39.1116 7.54723 39.1834 7.34714C39.2552 7.14704 39.599 7.03416 39.6452 6.82894C39.6914 6.62371 39.8607 6.41335 39.8812 6.19786C39.9017 5.98237 39.7581 5.74123 39.7478 5.52574C39.7375 5.31025 39.5887 5.10503 39.5528 4.89467C39.5169 4.68431 39.5528 4.4483 39.4913 4.24307C39.4246 4.03785 39.4246 3.79157 39.3322 3.59661C39.2399 3.40164 39.0192 3.26824 38.9064 3.08354C38.7935 2.89884 38.4805 2.87318 38.3471 2.69874C38.2137 2.52943 38.2342 2.24211 38.0855 2.08819C37.9367 1.93427 37.8751 1.6726 37.7109 1.53407C37.6493 1.48277 37.557 1.47251 37.4595 1.47251C37.3825 1.47251 37.3056 1.47764 37.2286 1.47764C37.1363 1.47764 37.0491 1.46737 36.9875 1.42633C36.8079 1.30832 36.6643 1.1698 36.4744 1.06718C36.2846 0.964568 36.0896 0.918392 35.8895 0.83117C35.6946 0.749079 35.5201 0.636204 35.3149 0.574636C35.1097 0.513068 34.9763 0.189835 34.7608 0.143659C34.7454 0.138528 34.73 0.138528 34.7146 0.138528C34.5248 0.138528 34.3041 0.343755 34.1092 0.343755H34.0784C33.8629 0.318102 33.6782 0.0359147 33.4678 0.0307841C33.4422 -2.86699e-08 33.4319 0 33.4268 0V0Z" fill="#424242"/>
<defs>
<linearGradient id="paint0_linear_1029_2835" x1="2.93376" y1="34.0846" x2="21.0687" y2="35.5687" gradientUnits="userSpaceOnUse">
<stop stop-color="#DE9D5D"/>
<stop offset="0.2251" stop-color="#DD9A59"/>
<stop offset="0.4291" stop-color="#D88F4E"/>
<stop offset="0.6248" stop-color="#D17E3C"/>
<stop offset="0.8143" stop-color="#C76522"/>
<stop offset="0.9957" stop-color="#BA4702"/>
</linearGradient>
<linearGradient id="paint1_linear_1029_2835" x1="9.92364" y1="42.0882" x2="14.9568" y2="59.8968" gradientUnits="userSpaceOnUse">
<stop stop-color="#D88E47"/>
<stop offset="0.2523" stop-color="#D68A44"/>
<stop offset="0.4808" stop-color="#D27F39"/>
<stop offset="0.7002" stop-color="#CA6D27"/>
<stop offset="0.9128" stop-color="#BF530E"/>
<stop offset="0.9957" stop-color="#BA4702"/>
</linearGradient>
<linearGradient id="paint2_linear_1029_2835" x1="15.735" y1="29.627" x2="42.295" y2="48.157" gradientUnits="userSpaceOnUse">
<stop stop-color="#E0944A"/>
<stop offset="0.2431" stop-color="#DE9047"/>
<stop offset="0.4633" stop-color="#D9853C"/>
<stop offset="0.6747" stop-color="#D0732B"/>
<stop offset="0.8794" stop-color="#C35913"/>
<stop offset="0.9957" stop-color="#BA4702"/>
</linearGradient>
<linearGradient id="paint3_linear_1029_2835" x1="35.1082" y1="40.6992" x2="48.5212" y2="30.4243" gradientUnits="userSpaceOnUse">
<stop stop-color="#E3954B"/>
<stop offset="0.2416" stop-color="#E19148"/>
<stop offset="0.4605" stop-color="#DB863D"/>
<stop offset="0.6706" stop-color="#D2742C"/>
<stop offset="0.8742" stop-color="#C45A14"/>
<stop offset="0.9957" stop-color="#BA4702"/>
</linearGradient>
<linearGradient id="paint4_linear_1029_2835" x1="10.7804" y1="-3.94093" x2="16.2451" y2="18.481" gradientUnits="userSpaceOnUse">
<stop stop-color="#E6A96E"/>
<stop offset="0.2081" stop-color="#E5A66A"/>
<stop offset="0.3965" stop-color="#E09C5F"/>
<stop offset="0.5775" stop-color="#D98B4D"/>
<stop offset="0.7539" stop-color="#CE7333"/>
<stop offset="0.9253" stop-color="#C05512"/>
<stop offset="0.9957" stop-color="#BA4702"/>
</linearGradient>
<linearGradient id="paint5_linear_1029_2835" x1="30.3116" y1="-7.72828" x2="35.6715" y2="14.2634" gradientUnits="userSpaceOnUse">
<stop stop-color="#E6A96E"/>
<stop offset="0.2081" stop-color="#E5A66A"/>
<stop offset="0.3965" stop-color="#E09C5F"/>
<stop offset="0.5775" stop-color="#D98B4D"/>
<stop offset="0.7539" stop-color="#CE7333"/>
<stop offset="0.9253" stop-color="#C05512"/>
<stop offset="0.9957" stop-color="#BA4702"/>
</linearGradient>
<radialGradient id="paint6_radial_1029_2835" cx="0" cy="0" r="1" gradientUnits="userSpaceOnUse" gradientTransform="translate(21.7858 12.8045) rotate(-13.6972) scale(24.5667 24.5667)">
<stop stop-color="#E6974B"/>
<stop offset="0.2388" stop-color="#E49348"/>
<stop offset="0.4552" stop-color="#DE883E"/>
<stop offset="0.6629" stop-color="#D4762D"/>
<stop offset="0.8641" stop-color="#C65C15"/>
<stop offset="0.9957" stop-color="#BA4702"/>
</radialGradient>
</defs>
</svg>
