<svg width="50" height="96" viewBox="0 0 50 96" fill="none" xmlns="http://www.w3.org/2000/svg">
<path d="M30.9397 1C30.9397 1 30.8613 2.01924 30.6261 3.50889C30.4693 4.21451 30.3125 5.07694 30.0773 6.01778C29.842 6.95861 29.45 7.89944 29.2148 8.84027C28.0388 12.682 26.7843 16.5237 26.7843 16.5237H26.7059C26.7059 16.5237 27.5684 12.6036 28.5092 8.68347C28.7444 7.74264 28.9796 6.7234 29.1364 5.78257C29.3716 4.84173 29.6852 4.05771 29.9204 3.35208C30.4693 1.94083 30.9397 1 30.9397 1V1Z" fill="#736357"/>
<path d="M30.6261 2.33203L18.8657 4.05689L21.6882 5.86015L26.6275 8.05543L31.1749 9.38828L35.5654 10.0939L39.172 9.62349L30.6261 2.33203Z" fill="url(#paint0_linear_1029_1804)"/>
<path d="M18.0032 4.05689L30.4692 2.33203" stroke="#FF3F7B" stroke-width="4.30744" stroke-miterlimit="10"/>
<path d="M21.1393 6.56578L30.5476 2.33203" stroke="#FF3F7B" stroke-width="4.30744" stroke-miterlimit="10"/>
<path d="M26.0785 8.99627L30.5474 2.33203" stroke="#FF3F7B" stroke-width="4.30744" stroke-miterlimit="10"/>
<path d="M31.3317 10.2521L30.6261 2.49023" stroke="#FF3F7B" stroke-width="4.30744" stroke-miterlimit="10"/>
<path d="M36.2711 10.7211L30.6261 2.33203" stroke="#FF3F7B" stroke-width="4.30744" stroke-miterlimit="10"/>
<path d="M39.564 10.4081L30.6261 2.17578" stroke="#FF3F7B" stroke-width="4.30744" stroke-miterlimit="10"/>
<path opacity="0.2" d="M30.5475 2.88167L37.055 8.76187L37.3686 8.99708L35.9573 9.23229C35.8789 9.23229 35.8005 9.31069 35.7221 9.31069H35.6437L31.6452 8.68347C31.5668 8.68347 31.5668 8.68347 31.4884 8.68347H31.41C31.3315 8.68347 31.3316 8.60507 31.2531 8.60507L29.4499 8.05625C29.3715 8.05625 29.2931 8.05625 29.2147 8.05625C29.1363 8.05625 29.0579 8.05625 29.0579 8.05625C28.9795 7.97784 28.8227 7.89944 28.7443 7.82104L27.333 7.50743C27.2546 7.50743 27.1762 7.58583 27.0978 7.58583C27.0194 7.58583 27.0194 7.35062 26.941 7.35062L22.8641 5.46896C22.6288 5.46896 22.5504 5.31215 22.3936 5.31215C22.3152 5.31215 22.2368 5.23375 22.1584 5.15535H22.08L20.6688 4.21451L30.5475 2.88167ZM30.8611 1C30.8611 1 30.6259 1.39201 30.3123 2.09764L17.9247 3.8225L18.0031 4.29292L19.0223 4.13611L21.688 5.86097L21.8448 5.93937L20.9824 6.33139L21.1392 6.8018L22.3936 6.25298L26.4706 8.05625L25.8434 8.91868L26.2354 9.15389L26.8626 8.13465L28.2738 8.60507V8.68347C27.333 12.6036 26.4706 16.5237 26.4706 16.5237H26.549C26.549 16.5237 27.8034 12.682 28.9795 8.84027C28.9795 8.84027 28.9795 8.84027 28.9795 8.76187L30.7827 9.31069L30.8611 10.2515L31.3316 10.1731L31.2531 9.38909L35.2517 10.0163L35.8005 10.8003L36.1925 10.5651L36.0357 10.0163L38.3878 9.70271L39.3286 10.5651L39.6422 10.2515L38.9366 9.6243H39.015L37.5254 8.21305L30.8611 2.09764C30.9395 1.39201 31.0179 1 31.0179 1H30.8611Z" fill="#424242"/>
<path d="M18.3951 6.9598L2.47938 26.4821C2.47938 26.4821 -3.63603 18.1714 3.34181 10.4879C10.3197 2.80446 18.3951 6.9598 18.3951 6.9598V6.9598Z" fill="#057A64"/>
<path d="M18.2384 7.19485L2.71468 26.2467C2.71468 26.2467 -2.77351 18.8769 4.20433 11.115C11.1822 3.35311 18.2384 7.19485 18.2384 7.19485V7.19485Z" fill="url(#paint1_linear_1029_1804)"/>
<path d="M13.848 9.15448C14.5536 8.29205 15.808 8.13524 16.6705 8.84086L12.6719 13.8586C12.6719 13.8586 13.2208 10.0169 13.848 9.15448V9.15448Z" fill="#F1F41C"/>
<path d="M3.65537 21.9333C4.36099 21.0709 7.96752 19.8164 7.96752 19.8164L3.89058 24.7558C3.02815 24.0502 2.87134 22.7957 3.65537 21.9333V21.9333Z" fill="#F1F41C"/>
<path d="M4.5177 14.0922C3.65527 13.3866 3.49846 12.1321 4.20408 11.2697C4.90971 10.4073 6.16415 10.2505 7.02658 10.9561C7.88901 11.6617 9.22186 15.2682 9.22186 15.2682C9.22186 15.2682 5.38013 14.7978 4.5177 14.0922Z" fill="#F1F41C"/>
<path d="M4.12601 15.5052C3.02837 15.662 2.24434 16.6028 2.40114 17.7004C2.55795 18.7981 3.49878 19.5821 4.59642 19.4253C5.69406 19.2685 8.75177 16.9164 8.75177 16.9164C8.75177 16.9164 5.22364 15.3484 4.12601 15.5052V15.5052Z" fill="#F1F41C"/>
<path d="M8.28139 10.3296C8.12459 9.23195 8.90862 8.21272 10.0063 8.13431C11.1039 8.05591 12.1231 8.83994 12.2015 9.85917C12.2799 10.8784 10.7119 14.4065 10.7119 14.4065C10.7119 14.4065 8.3598 11.4272 8.28139 10.3296V10.3296Z" fill="#F1F41C"/>
<path d="M4.12601 15.5052C3.02837 15.662 2.24434 16.6028 2.40114 17.7004C2.55795 18.7981 3.49878 19.5821 4.59642 19.4253C5.69406 19.2685 8.75177 16.9164 8.75177 16.9164C8.75177 16.9164 5.22364 15.3484 4.12601 15.5052V15.5052Z" fill="#F1F41C"/>
<path opacity="0.2" d="M13.142 7.35126C14.1613 7.35126 15.1021 7.50806 15.8077 7.66487L6.71301 18.8765C6.63461 18.9549 6.63461 19.0333 6.5562 19.0333L5.06655 20.8365L2.71447 23.7374C1.53843 21.1501 0.205581 16.2108 4.51773 11.5066C7.02662 8.76251 9.92752 7.35126 13.142 7.35126M13.142 5.7832C10.3195 5.7832 6.71301 6.72404 3.42009 10.409C-3.63615 18.0924 2.55766 26.4031 2.55766 26.4031L2.79287 26.1679L6.321 21.7774L7.96745 19.7389L18.2382 7.11605L18.4734 6.88084C18.395 6.95924 16.1997 5.7832 13.142 5.7832V5.7832Z" fill="#424242"/>
<path d="M35.8791 91.8685C35.8791 93.8286 28.9796 95.3966 20.5121 95.3966C12.0446 95.3966 5.1452 93.8286 5.1452 91.8685C5.1452 89.9084 12.0446 87.0859 20.5121 87.0859C28.9796 87.0859 35.8791 89.83 35.8791 91.8685Z" fill="url(#paint2_linear_1029_1804)"/>
<path d="M34.703 39.6525C31.8021 29.0681 32.9781 15.3477 32.9781 15.3477C32.9781 15.3477 27.4115 16.8373 20.4337 16.8373C13.6127 16.8373 8.04605 16.2885 7.81085 15.3477C7.88925 16.2101 8.98689 29.7738 6.16439 39.9661C3.26349 50.5505 -0.107828 57.9203 9.61411 66.5447C19.3361 75.169 18.6304 73.9145 18.552 77.9914C18.4736 82.0684 17.8464 86.851 17.4544 88.2622C17.0624 89.6735 19.1792 90.0655 20.4337 90.0655C21.6881 90.0655 23.805 89.6735 23.413 88.2622C23.021 86.851 22.3938 82.0684 22.3154 77.9914C22.2369 73.9145 21.5313 75.0122 31.2533 66.3878C40.9752 57.7635 37.6039 50.2369 34.703 39.6525V39.6525Z" fill="url(#paint3_linear_1029_1804)"/>
<path opacity="0.8" d="M20.4336 13.7793C13.4558 13.7793 7.81079 14.5633 7.81079 15.5042V15.5826C7.9676 16.5234 13.5342 17.3074 20.4336 17.3074C27.4115 17.3074 33.0565 16.5234 33.0565 15.5826C33.0565 14.5633 27.4115 13.7793 20.4336 13.7793V13.7793Z" fill="#D0D6D2"/>
<path opacity="0.2" d="M20.4338 15.3474C26.1572 15.3474 29.9205 15.8962 31.3318 16.2882C31.0966 19.7379 30.6261 31.0279 33.135 40.1226C33.3702 41.0635 33.6838 42.0043 33.9191 42.9451C36.5063 52.0398 38.2312 58.0768 30.1557 65.2899C29.1365 66.2307 28.1956 67.0148 27.4116 67.7204C20.9042 73.4438 20.5122 73.7574 20.669 77.3639V78.0695C20.7474 81.5193 21.2178 85.361 21.6098 87.4779C21.7666 88.1835 22.3154 88.7323 23.0211 88.7323C29.1365 89.1243 32.9782 90.8492 33.9975 91.7116C32.6646 92.4956 28.0388 93.7501 20.4338 93.7501C12.8287 93.7501 8.12455 92.4956 6.87011 91.7116C7.96774 90.8492 11.7311 89.1243 17.7681 88.7323C18.4737 88.6539 19.1009 88.1835 19.1793 87.3995C19.5713 85.361 19.9634 81.5193 20.0418 77.9911C20.0418 77.7559 20.0418 77.5207 20.0418 77.2855C20.1986 73.8358 19.7282 73.3654 14.0048 68.426C13.0639 67.5636 11.8879 66.5443 10.555 65.3683C2.47955 58.2337 4.20441 52.275 6.7917 43.2587C7.02691 42.3179 7.34052 41.3771 7.57573 40.3578C10.0846 31.2631 9.6142 19.8947 9.37899 16.2098C10.8686 15.8962 14.7104 15.3474 20.4338 15.3474M20.4338 13.7793C13.6911 13.7793 8.28135 14.4849 7.88934 15.4258C7.88934 15.4258 7.88934 15.4258 7.88934 15.3474V15.4258V15.5042C7.88934 15.5042 7.88934 15.5042 7.88934 15.5826C8.04615 17.5426 8.90857 30.2439 6.24288 39.9658C3.34198 50.5502 -0.0293366 57.92 9.6926 66.5443C19.4145 75.1686 18.7089 73.9142 18.6305 77.9911C18.5521 81.2841 18.1601 85.1258 17.7681 87.1643C10.6334 87.7131 5.14524 90.0652 5.14524 91.79C5.14524 93.7501 12.0447 95.3182 20.5122 95.3182C28.9797 95.3182 35.8791 93.7501 35.8791 91.79C35.8791 90.0652 30.3909 87.6347 23.1779 87.1643C22.7859 85.1258 22.3938 81.3625 22.3154 77.9911C22.237 73.9926 21.5314 75.0902 31.2534 66.4659C40.9753 57.8416 37.604 50.315 34.7031 39.7306C32.0374 30.0087 32.8214 17.6994 32.9782 15.661C33.0566 15.5826 33.0566 15.5042 33.0566 15.5042C33.0566 14.5633 27.4116 13.7793 20.4338 13.7793V13.7793Z" fill="#424242"/>
<path d="M31.2531 20.0519C30.8611 19.2678 26.157 18.6406 20.4336 18.6406C14.7102 18.6406 10.0844 19.3462 9.69238 20.0519V20.1303C9.69238 20.9143 14.5534 21.6199 20.512 21.6199C26.4706 21.6199 31.2531 20.9927 31.2531 20.2087C31.2531 20.1303 31.2531 20.1303 31.2531 20.0519Z" fill="#FFFA99"/>
<path d="M27.0195 13.5449C26.0002 14.721 25.6082 15.8186 25.6082 15.8186L25.0594 17.1514C26.157 17.073 27.1763 16.9946 28.1171 16.9162C28.3523 16.3674 28.6659 15.9754 28.9795 15.5834C28.1955 15.113 27.3331 14.4858 27.0195 13.5449V13.5449Z" fill="#FF6815"/>
<path d="M28.8228 12.1328C28.5092 12.2896 28.1956 12.5248 27.882 12.76C28.3524 13.6225 28.7444 14.5633 29.6068 15.0337C29.842 14.8769 30.0772 14.7201 30.234 14.5633C29.5284 13.9361 29.058 12.9952 28.8228 12.1328V12.1328Z" fill="#FF6815"/>
<path d="M28.8226 12.1328C29.0578 13.0736 29.5282 13.9361 30.3122 14.5633C30.5474 14.4065 30.861 14.2497 31.0178 14.1713C30.3906 13.5441 29.9986 12.5248 29.9202 11.584C29.5282 11.7408 29.1362 11.8976 28.8226 12.1328Z" fill="#C75110"/>
<path d="M30.7045 11.2701C30.8613 12.2893 31.1749 13.0733 31.8022 13.779C31.959 13.7006 32.0374 13.7006 32.1158 13.7006C32.1942 13.7006 32.1942 13.7006 32.1942 13.7006H32.351C31.8022 12.9949 31.7238 12.0541 31.4886 11.1133C31.2533 11.1133 30.9397 11.1917 30.7045 11.2701V11.2701Z" fill="#C75110"/>
<path d="M49.9913 10.9566C49.9913 10.9566 50.1481 8.83974 49.1289 8.91814C46.5416 9.23175 36.7412 10.1726 32.1155 10.9566C31.9587 10.9566 31.7235 11.035 31.5667 11.035C31.8019 11.9758 31.8803 12.9167 32.4291 13.6223L49.4425 11.6622C49.7561 11.6622 49.9913 11.3486 49.9913 10.9566V10.9566Z" fill="url(#paint4_linear_1029_1804)"/>
<path d="M29.9205 11.5829C30.0773 12.5237 30.3909 13.4645 31.0182 14.1702C31.3318 14.0133 31.6454 13.9349 31.8022 13.8565C31.175 13.1509 30.783 12.3669 30.7046 11.3477C30.3909 11.3477 30.1557 11.4261 29.9205 11.5829V11.5829Z" fill="#FF6815"/>
<path d="M27.8818 12.6816C27.5682 12.9953 27.2546 13.2305 26.941 13.5441C27.333 14.4065 28.117 15.1121 28.9794 15.5041C29.1363 15.2689 29.3715 15.1121 29.6067 14.9553C28.7442 14.5633 28.3522 13.5441 27.8818 12.6816V12.6816Z" fill="#C75110"/>
<path d="M25.0593 17.1512L24.4321 18.7977L24.0401 19.8169C23.8833 20.2089 24.1185 20.6009 24.5105 20.6793C25.1377 20.8362 25.9217 20.8362 26.549 20.6009C26.7058 20.5225 26.8626 20.3657 26.941 20.2089C27.0978 19.7385 27.2546 19.3465 27.4114 19.0329C27.725 18.0921 27.8818 17.5432 28.117 16.9944C28.117 16.9944 28.117 16.9944 28.117 16.916C27.2546 16.9944 26.2354 17.0728 25.0593 17.1512V17.1512Z" fill="#FF9961"/>
<path opacity="0.2" d="M49.0505 9.78012C49.1289 10.0153 49.2073 10.4857 49.2073 10.9562L32.3508 12.9162H32.1939C32.1155 12.9162 32.0371 12.9162 31.9587 12.9946C31.8803 12.9946 31.8019 13.073 31.5667 13.1514C31.2531 13.2298 31.0179 13.3866 30.7043 13.5435C30.3907 13.7003 30.1555 13.8571 29.9203 14.0139C29.6067 14.1707 29.3715 14.3275 29.2146 14.4843C28.9794 14.7195 28.7442 14.8763 28.509 15.1115C28.1954 15.5035 27.8818 15.8955 27.6466 16.2875C27.1762 16.366 26.7842 16.366 26.3137 16.4444L26.3921 16.2091C26.3921 16.2091 26.3921 16.2091 26.3921 16.1307C26.3921 16.1307 26.7058 15.1899 27.5682 14.1707C27.8034 13.9355 28.117 13.6219 28.3522 13.3866C28.5874 13.2298 28.901 12.9946 29.2146 12.8378C29.5283 12.681 29.8419 12.5242 30.2339 12.3674C30.4691 12.289 30.7043 12.2106 30.9395 12.1322C31.1747 12.0538 31.4099 11.9754 31.7235 11.897C31.8803 11.897 32.0371 11.8186 32.2724 11.8186C36.6629 11.113 45.836 10.1721 48.8153 9.85852L49.0505 9.78012ZM49.2073 8.99609C46.5417 9.2313 36.7413 10.1721 32.1155 10.9562C31.9587 10.9562 31.7235 11.0346 31.5667 11.0346C31.2531 11.113 31.0179 11.1914 30.7043 11.2698C30.4691 11.3482 30.1555 11.4266 29.9203 11.5834C29.5283 11.7402 29.1362 11.897 28.8226 12.1322C28.509 12.289 28.1954 12.5242 27.8818 12.7594C27.5682 13.073 27.2546 13.3082 26.941 13.6219C25.9217 14.7979 25.5297 15.8955 25.5297 15.8955L24.9809 17.2284C26.0785 17.15 27.0978 17.0716 28.0386 16.9932C28.2738 16.4444 28.5874 16.0523 28.901 15.6603C29.0578 15.4251 29.293 15.2683 29.5283 15.1115C29.7635 14.9547 29.9987 14.7979 30.1555 14.6411C30.3907 14.4843 30.7043 14.3275 30.8611 14.2491C31.1747 14.0923 31.4883 14.0139 31.6451 13.9355C31.8019 13.8571 31.8803 13.8571 31.9587 13.8571C32.0371 13.8571 32.0371 13.8571 32.0371 13.8571H32.1939L49.2073 11.897C49.521 11.897 49.8346 11.505 49.7562 11.1914C49.9914 10.9562 50.0698 8.99609 49.2073 8.99609Z" fill="#424242"/>
<path d="M26.5488 21.2282C25.608 21.3066 24.5887 21.385 23.4127 21.385C22.4719 21.385 21.531 21.4634 20.5118 21.4634C14.318 21.4634 10.241 20.9146 9.69223 20.209C9.69223 20.209 10.0842 32.1262 7.57535 41.1425C5.69368 47.8068 2.63598 55.0982 7.10494 61.6056C10.0842 65.9178 15.886 69.0539 21.2174 68.8187C23.8831 68.6619 26.5488 67.4074 28.8225 66.0746C31.0178 64.8201 32.821 63.0953 34.1539 60.9C37.9956 54.7062 35.3299 47.5715 33.3699 41.1425C30.5474 31.7342 31.1746 20.4442 31.0962 20.5226C30.3906 20.8362 29.6065 20.993 26.5488 21.2282V21.2282Z" fill="url(#paint5_linear_1029_1804)"/>
<path d="M11.4173 16.7578C11.4173 16.7578 13.9262 29.2239 11.5741 36.2017C9.22201 43.1795 4.83145 54.94 8.12437 60.1929C11.4173 65.4459 14.9454 65.9947 14.9454 65.9947C14.9454 65.9947 11.6525 59.6441 13.2205 49.1381C14.7886 38.7106 16.3567 23.3436 14.9454 17.0714L11.4173 16.7578Z" fill="url(#paint6_linear_1029_1804)"/>
<defs>
<linearGradient id="paint0_linear_1029_1804" x1="30.4408" y1="2.29816" x2="28.4392" y2="8.69159" gradientUnits="userSpaceOnUse">
<stop stop-color="#FF3776"/>
<stop offset="1" stop-color="#FFDEE7"/>
</linearGradient>
<linearGradient id="paint1_linear_1029_1804" x1="4.17995" y1="10.6709" x2="10.5635" y2="16.8044" gradientUnits="userSpaceOnUse">
<stop stop-color="#93D919"/>
<stop offset="1" stop-color="#F2F45D"/>
</linearGradient>
<linearGradient id="paint2_linear_1029_1804" x1="20.5121" y1="87.086" x2="20.5121" y2="95.5535" gradientUnits="userSpaceOnUse">
<stop stop-color="white"/>
<stop offset="0.1315" stop-color="#F3F3F3"/>
<stop offset="0.4543" stop-color="#DBDBDB"/>
<stop offset="0.7523" stop-color="#CCCCCC"/>
<stop offset="1" stop-color="#C7C7C7"/>
</linearGradient>
<linearGradient id="paint3_linear_1029_1804" x1="20.4337" y1="15.6417" x2="20.4337" y2="90.2537" gradientUnits="userSpaceOnUse">
<stop stop-color="#F6F9FE"/>
<stop offset="0.9949" stop-color="#C5CFD0"/>
</linearGradient>
<linearGradient id="paint4_linear_1029_1804" x1="33.0727" y1="12.1205" x2="49.5984" y2="10.2725" gradientUnits="userSpaceOnUse">
<stop stop-color="#FF6815"/>
<stop offset="0.9949" stop-color="#FF9147"/>
</linearGradient>
<linearGradient id="paint5_linear_1029_1804" x1="20.4521" y1="21.7842" x2="20.4521" y2="68.6706" gradientUnits="userSpaceOnUse">
<stop stop-color="#FFE12E"/>
<stop offset="0.5452" stop-color="#FF7300"/>
<stop offset="0.9967" stop-color="#FF0000"/>
</linearGradient>
<linearGradient id="paint6_linear_1029_1804" x1="11.2193" y1="16.7579" x2="11.2193" y2="65.9948" gradientUnits="userSpaceOnUse">
<stop stop-color="#F6F9FE"/>
<stop offset="0.9948" stop-color="white" stop-opacity="0"/>
</linearGradient>
</defs>
</svg>
