<svg width="50" height="40" viewBox="0 0 50 40" fill="none" xmlns="http://www.w3.org/2000/svg">
<path d="M45.3527 14.3324C45.3527 14.3324 47.0104 13.4026 47.4269 13.167C47.8434 12.9314 49.3622 11.9806 49.9133 12.8136C50.2373 13.3016 49.6188 14.6816 48.6301 16.1205C47.7298 17.4373 45.6346 20.1425 45.5168 20.6769C45.399 21.2112 45.9838 23.3526 46.1605 24.1815C46.3372 25.0103 46.8926 27.0045 46.6527 27.7744C46.4129 28.5443 45.2097 30.6563 42.13 30.6185C39.6814 30.589 38.9704 29.8696 38.8905 29.432C38.8316 29.1165 38.6549 28.0689 38.6549 28.0689C38.6549 28.0689 36.6396 29.3142 35.693 29.7854C34.7464 30.2567 32.1968 31.5609 32.1968 31.5609C32.1968 31.5609 32.689 33.8117 32.769 34.7205C32.8489 35.6292 33.1308 36.9293 32.6512 37.8002C32.2178 38.5911 30.8631 39.9122 27.6741 39.8911C25.1834 39.8743 24.5565 39.1002 24.1611 38.629C23.7656 38.1536 23.6856 35.9027 23.6856 35.4315C23.6856 34.9603 23.6057 33.2985 23.6057 33.2985C23.6057 33.2985 20.2315 33.1302 18.1952 32.9829C16.3525 32.8483 13.9207 32.5664 13.9207 32.5664C13.9207 32.5664 14.0091 33.5467 14.0974 34.2535C14.1774 34.8846 14.1942 36.2056 13.5337 36.8493C12.6459 37.716 10.353 37.7791 9.09087 37.6571C7.82871 37.5393 6.0701 36.8872 5.55682 35.7428C5.04354 34.5985 5.71669 33.0965 5.99016 32.2298C6.23418 31.4683 6.66331 30.3745 6.50344 30.0589C6.34357 29.7434 4.80373 29.3479 2.59495 27.1349C0.381964 24.9219 -2.50838 17.2396 3.97491 11.8922C10.4919 6.52384 22.4067 12.355 23.0377 12.7505C23.6856 13.1544 45.3527 14.3324 45.3527 14.3324V14.3324Z" fill="#BDCF47"/>
<path d="M25.8103 0.0569325C19.9497 0.317779 15.5532 3.22075 13.3696 6.39297C12.0654 8.28621 11.4133 9.64935 11.4133 9.64935C11.4133 9.64935 13.4369 9.70825 15.2629 10.6843C17.3665 11.8076 19.8066 13.0235 21.4096 18.312C22.617 22.3088 23.084 26.1079 26.2226 26.9451C29.7777 27.8918 38.0701 27.4206 42.0375 23.571C46.0049 19.7214 46.7748 16.8184 45.7693 13.0277C44.7637 9.23704 40.2284 2.48869 33.9218 0.709048C31.1997 -0.0608695 28.4735 -0.0608691 25.8103 0.0569325V0.0569325Z" fill="#6E823A"/>
<path d="M45.0288 11.0125C44.8521 10.596 44.4818 9.9607 44.4818 9.9607C44.4818 9.9607 44.4524 10.8232 44.3766 11.2775C44.2588 12.018 43.8508 13.5579 43.6151 13.3307C43.1944 12.9226 41.2044 10.4193 40.2578 9.0267C39.5384 7.96648 37.0603 5.19394 37.0014 4.28939C36.972 3.84343 37.5357 2.33304 37.5357 2.33304C37.5357 2.33304 37.0225 2.03854 36.5471 1.76928C36.1768 1.56313 35.6383 1.33594 35.6383 1.33594C35.6383 1.33594 35.3143 3.39746 34.9567 3.78453C34.6412 4.12531 32.7185 4.8784 31.2249 5.44216C29.4201 6.12373 27.6699 7.01145 27.0177 7.12925C26.4456 7.23443 23.1934 6.53604 21.9691 6.30043C20.4293 6.00593 18.1069 5.34961 17.5726 4.96675C16.9499 4.52079 16.281 3.37643 16.281 3.37643C16.281 3.37643 15.9065 3.63307 15.5321 3.92757C15.1619 4.21787 14.6822 4.79426 14.6822 4.79426C14.6822 4.79426 15.6541 5.77033 15.7088 6.13215C15.7845 6.63701 15.1745 7.32278 14.6738 7.9749C14.3709 8.36617 13.5168 10.0154 13.5168 10.0154C13.5168 10.0154 13.9249 10.0533 14.4214 10.2804C14.9389 10.5203 15.4227 10.7685 15.4227 10.7685C15.4227 10.7685 16.6722 7.86551 17.4842 7.60046C18.1784 7.37327 20.1348 8.01697 21.5568 8.31147C23.5721 8.72799 25.6125 9.09822 26.0417 9.64516C26.4876 10.2089 26.9084 12.4556 27.3165 14.353C27.7624 16.4314 28.9194 21.825 28.6501 22.2373C28.3851 22.6538 26.252 22.5024 25.0362 22.3551C24.0054 22.2289 22.3393 21.6146 22.3393 21.6146C22.3393 21.6146 22.5834 22.5024 22.6633 22.738C22.7811 23.0787 23.1513 24.0254 23.1513 24.0254C23.1513 24.0254 25.5368 25.0772 32.5839 24.425C39.6309 23.7729 43.1145 18.9725 44.1032 16.8437C45.4242 13.9912 45.5925 12.4724 45.5925 12.4724C45.5925 12.4724 45.2055 11.429 45.0288 11.0125V11.0125ZM38.6002 20.2221C36.8163 21.3454 32.2052 22.5318 31.3722 22.0858C30.7075 21.7282 29.7146 16.221 29.2391 13.764C28.9362 12.1905 28.2084 9.80082 28.6459 9.05615C28.9404 8.55128 30.6612 7.7982 31.9318 7.20498C33.1392 6.64542 34.8642 5.88813 35.369 5.94703C36.0843 6.03117 37.6199 8.52183 39.1597 10.6549C40.6996 12.7879 42.3866 15.0093 42.4161 15.7793C42.454 16.5534 40.4387 19.0693 38.6002 20.2221Z" fill="#484E23"/>
<path d="M15.2629 17.1281C15.4732 18.3187 14.8632 19.5472 13.5505 19.6608C12.4735 19.7534 11.6194 19.0003 11.4091 17.8097C11.1987 16.619 11.8887 15.4999 12.9573 15.3106C14.0175 15.1213 15.0525 15.9333 15.2629 17.1281V17.1281Z" fill="#2A2B28"/>
<path d="M7.53843 17.234C7.56788 18.4289 6.52029 19.6279 5.22447 19.3839C4.16005 19.182 3.5458 18.2353 3.6636 17.0489C3.78561 15.8625 4.75326 14.9874 5.83031 15.0926C6.90735 15.1977 7.50898 15.9887 7.53843 17.234V17.234Z" fill="#2A2B28"/>
<path d="M10.8832 21.6424C11.3713 21.31 12.1875 20.519 12.7176 21.1964C13.2519 21.878 12.3305 22.5006 11.8004 22.8835C11.2661 23.2706 10.0839 24.2172 9.22558 24.2172C8.42622 24.2172 7.21034 23.2411 6.44042 22.589C5.81355 22.0589 5.52325 21.3731 5.87665 20.9608C6.23006 20.5485 6.77699 20.7 7.23979 21.108C7.7741 21.5835 8.80486 22.5301 9.22558 22.5301C9.63789 22.5343 10.2311 22.0883 10.8832 21.6424V21.6424Z" fill="#2A2B28"/>
</svg>
