<svg width="50" height="53" viewBox="0 0 50 53" fill="none" xmlns="http://www.w3.org/2000/svg">
<path d="M19.4339 8.67951C19.4339 8.67951 14.4817 7.54745 10.4586 9.23878C6.68801 10.8264 6.1513 13.8528 6.48956 15.5892C6.82783 17.3256 7.91931 18.8456 10.1068 18.9854C11.5997 19.0801 12.1048 18.2232 11.8973 17.8624C11.7891 17.6774 10.206 16.6762 10.9321 15.4268C11.541 14.385 13.5932 15.3456 14.1795 16.2522C14.7298 17.1001 15.4514 18.3269 15.4514 18.3269C15.4514 18.3269 21.6755 15.6614 21.5447 15.49C21.4139 15.3186 19.4339 8.67951 19.4339 8.67951V8.67951Z" fill="#E74B8C"/>
<path d="M19.1363 12.1505L17.1879 10.4141L13.9946 14.2884L15.8123 17.1208L20.4488 15.0912L19.1363 12.1505Z" fill="#FCD817"/>
<path d="M9.40314 13.8424C9.15959 14.5596 9.37608 15.7097 8.47403 15.8089C7.54492 15.9126 6.8729 14.7896 7.43668 12.9945C7.92378 11.4475 9.84514 10.5274 10.5893 11.7903C11.1351 12.7194 9.84514 12.53 9.40314 13.8424V13.8424Z" fill="#EF7FAD"/>
<path d="M13.9088 6.96484C13.7825 7.17682 11.5815 10.4152 11.5815 10.4152L13.6968 13.7798L16.2361 12.4899L16.7638 9.92807L13.9088 6.96484Z" fill="#BBD047"/>
<path d="M11.4957 4.48828L9.56982 6.9193L11.4551 10.2028L13.2096 9.33228L14.0169 7.02754L11.4957 4.48828Z" fill="#62A5A8"/>
<path d="M8.8708 1.8418L7.54028 3.23997L9.50675 6.776L10.6298 5.95062L11.4101 4.38106L8.8708 1.8418Z" fill="#38B2E8"/>
<path d="M6.33158 0.0863844C5.87604 0.541918 7.53581 3.221 7.53581 3.221C7.53581 3.221 8.7626 1.82283 8.7626 1.74164C8.76711 1.65144 6.85928 -0.445824 6.33158 0.0863844V0.0863844Z" fill="#A37BCB"/>
<path d="M16.7683 9.75539C17.3816 9.584 17.8056 10.7296 17.2554 11.8932C16.7637 12.9306 16.0511 13.7334 15.095 14.2656C14.6214 14.5272 13.9088 14.8159 13.6336 14.3062C13.336 13.7605 13.6742 13.4808 14.2696 13.0569C14.8153 12.6645 15.3701 12.0827 15.6858 11.5324C16.0015 10.9822 16.3082 9.88167 16.7683 9.75539V9.75539Z" fill="#A364B2"/>
<path d="M13.8456 6.68983C14.3418 6.5455 14.7116 7.53776 14.2651 8.53452C13.8682 9.42304 13.3766 10.1311 12.6098 10.5867C12.231 10.8122 11.6537 11.0603 11.4326 10.6228C11.1936 10.1537 11.4191 9.82445 11.8972 9.45912C12.3392 9.12536 12.7226 8.51197 12.9752 8.0429C13.2322 7.57384 13.4758 6.79808 13.8456 6.68983Z" fill="#A364B2"/>
<path d="M11.3154 3.98322C11.7258 4.09598 12.0145 4.82212 11.6446 5.56631C11.3154 6.22932 10.9952 6.58112 10.3547 6.91939C10.0345 7.08626 9.66464 7.29825 9.46167 7.04567C9.20459 6.72996 9.10988 6.27893 9.51129 6.00832C9.88113 5.76025 10.2961 5.45807 10.5712 4.93037C10.7561 4.56504 10.9365 3.87949 11.3154 3.98322Z" fill="#A364B2"/>
<path d="M8.60019 1.47606C8.87983 1.40841 9.22261 1.99474 8.97454 2.46381C8.75354 2.88326 8.4694 3.14936 8.03641 3.36585C7.82443 3.4741 7.58539 3.53724 7.4591 3.33428C7.3238 3.11328 7.19751 2.95993 7.46812 2.78854C7.71619 2.63068 8.06348 2.27438 8.2078 2.04886C8.35213 1.82786 8.39272 1.53019 8.60019 1.47606Z" fill="#A364B2"/>
<path d="M19.0684 51.5652C18.6129 51.263 20.8725 43.4061 21.761 41.3134C22.6496 39.2161 23.1773 37.4616 23.1773 37.4616C23.1773 37.4616 18.9241 38.1156 16.1729 38.1382C14.0756 38.1562 11.0312 37.8856 11.0312 37.8856L4.93335 29.8845C4.93335 29.8845 6.64724 26.7724 7.66204 25.505C8.67685 24.2331 11.7258 20.1063 13.2502 18.6494C14.7747 17.1881 16.8674 15.6637 17.7605 15.2848C18.649 14.906 19.2218 14.6489 19.2218 14.6489C19.2218 14.6489 18.7753 11.9202 18.9692 10.2063C19.1586 8.49239 21.5897 3.70703 21.973 3.70703C22.4827 3.70703 24.6837 6.96793 25.1257 9.18697C25.5722 11.406 30.3982 17.6301 30.3982 17.6301L44.4926 44.2992C44.4926 44.2992 44.7452 51.4118 44.6821 51.6644C44.6189 51.917 36.8072 52.9994 32.0444 52.9994C27.2816 52.9994 19.4518 51.8222 19.0684 51.5652V51.5652Z" fill="#DFDFDF"/>
<path d="M28.6708 28.7794C28.2018 28.7569 26.8622 31.4405 25.5182 33.416C24.3861 35.0757 23.0601 35.874 21.6439 36.6137C20.1826 37.376 18.0131 37.8721 18.7528 38.0209C19.4925 38.1698 23.908 37.6781 25.3874 37.0557C26.2218 36.7084 27.3854 34.99 27.9808 33.8489C28.5761 32.7079 29.645 28.82 28.6708 28.7794V28.7794Z" fill="#B0B0B0"/>
<path d="M20.6515 23.6202C20.7462 25.0184 20.2366 26.2226 18.7798 26.3173C17.7514 26.385 16.9802 25.3431 16.8494 24.0712C16.7457 23.079 17.1606 21.7981 18.5182 21.6086C19.7946 21.4282 20.5613 22.3438 20.6515 23.6202V23.6202Z" fill="#303030"/>
<path d="M25.0627 9.20651C25.0627 9.20651 28.8919 10.9294 30.3668 10.6047C31.5079 10.3521 31.9048 9.52674 31.9544 8.70136C32.0175 7.59184 31.0343 7.71813 30.8764 7.27162C30.7186 6.8251 31.8912 6.0313 33.2579 6.28838C34.6245 6.54096 36.2526 7.80382 36.2211 9.83343C36.1895 11.863 34.9402 12.9545 34.9402 12.9545C34.9402 12.9545 38.2326 12.7967 40.4336 15.0518C42.9098 17.591 42.3685 21.7495 42.3685 21.7495C42.3685 21.7495 43.672 21.9389 44.1456 21.2714C44.6191 20.6039 44.4929 19.8417 44.1771 19.3996C43.8614 18.9531 44.7815 18.669 45.3814 18.9216C45.9857 19.1741 48.7731 21.1722 47.2576 24.397C46.3195 26.3995 43.9516 26.7017 43.9516 26.7017C43.9516 26.7017 47.9206 28.4562 49.3729 32.8807C50.9696 37.7518 49.2241 40.9902 47.4155 44.0977C45.6069 47.2098 45.7693 47.3947 45.67 48.414C45.5437 49.6859 45.1604 51.2735 44.6868 51.2374C44.2087 51.2058 43.6404 49.8708 43.3518 48.414C43.0676 46.9527 41.2861 45.5229 39.8608 44.224C38.4356 42.925 34.8545 39.4928 33.8261 36.3536C32.5227 32.3846 33.1902 26.8596 33.1902 26.8596C33.1902 26.8596 29.2528 25.051 27.0608 21.4293C24.6884 17.5099 24.9004 14.6368 24.9004 14.6368C24.9004 14.6368 25.5048 12.9229 25.5363 11.7458C25.5679 10.5686 25.0627 9.20651 25.0627 9.20651V9.20651Z" fill="#E74B8C"/>
<path d="M31.2552 11.9407C31.5304 13.1224 33.6998 12.5135 34.1147 10.5109C34.5297 8.50838 33.3841 7.61986 32.7165 8.00323C32.049 8.38209 32.8744 9.4014 32.4324 10.2583C31.9904 11.1153 31.0297 10.9845 31.2552 11.9407V11.9407Z" fill="#F081AF"/>
<path d="M42.2603 23.468C41.8815 24.6226 43.8615 25.024 45.413 23.7792C47.0051 22.4983 46.5541 20.604 45.634 20.6987C44.4658 20.8205 44.962 22.142 44.1366 22.6426C43.3112 23.1478 42.567 22.5434 42.2603 23.468Z" fill="#F081AF"/>
<path d="M28.7476 13.4285C27.2232 13.2391 27.0112 16.2114 27.9538 18.2545C29.4467 21.4929 31.9228 20.8885 33.6367 22.9857C34.9627 24.6094 34.6515 26.7022 36.0181 26.6706C37.3847 26.639 37.732 24.3523 35.6393 21.5605C33.542 18.7687 30.908 18.7687 30.1142 17.0864C29.3159 15.3995 30.5247 13.6541 28.7476 13.4285V13.4285Z" fill="#F081AF"/>
<path d="M36.4917 27.8125C34.7463 28.8093 35.9911 31.0689 36.9383 31.2719C38.2733 31.556 38.8732 30.6675 39.0355 29.779C39.1979 28.8905 38.2688 26.7977 36.4917 27.8125Z" fill="#F081AF"/>
<path d="M37.8268 33.1796C36.4467 33.4051 36.6 34.7898 36.8436 36.197C37.2585 38.6099 38.5259 40.9282 40.0188 42.164C41.4621 43.3592 42.2739 42.9894 42.6843 42.5113C43.1714 41.952 42.7159 40.9553 42.1431 40.2878C41.5703 39.6202 40.8306 38.7633 40.3345 38.0326C39.7301 37.1441 39.658 35.9895 39.5407 35.3355C39.3197 34.0681 39.1889 32.9541 37.8268 33.1796V33.1796Z" fill="#F081AF"/>
<path d="M1.50565 39.5607C2.90382 42.1992 6.17375 41.5271 6.17375 41.5271C6.17375 41.5271 9.25424 40.129 9.25424 40.0342C9.25424 39.9395 11.2838 37.3687 11.2838 37.3687C11.2838 37.3687 10.7426 35.0504 8.64987 32.5112C6.99461 30.5086 5.25366 29.5254 5.25366 29.5254L1.44251 32.9532C1.44251 32.9532 -0.460813 35.8442 1.50565 39.5607V39.5607Z" fill="white"/>
<path d="M4.01326 32.6049C3.79225 33.4303 4.52291 33.746 4.77549 34.0346C5.02806 34.3188 4.4282 35.5275 5.28514 35.8432C6.14209 36.159 7.12532 34.7337 6.8096 33.4934C6.46683 32.1674 4.34701 31.3691 4.01326 32.6049V32.6049Z" fill="#90909B"/>
<path d="M5.63254 29.4213C5.41154 28.9973 4.92443 29.2093 4.44635 29.6558C3.96826 30.1023 1.27114 32.0688 0.508911 33.8684C-0.0503586 35.1899 -0.45177 37.7381 1.00053 39.8128C2.50695 41.9687 3.86002 42.1762 5.9212 42.0048C8.93854 41.7523 10.6073 39.2761 10.9276 38.8612C11.2478 38.4462 11.9424 37.5487 11.5635 37.1067C11.1846 36.6602 10.8283 37.3052 10.3367 37.9727C9.70078 38.8296 9.19563 39.3483 8.55968 39.9211C8.18985 40.2549 7.12994 40.8322 6.68794 40.9269C6.24142 41.0216 7.56743 40.2594 8.08611 39.3708C8.43791 38.771 9.16406 37.3412 9.16406 37.3412L7.92374 36.9624C7.92374 36.9624 7.31937 38.2749 6.84579 38.8477C6.36771 39.4205 4.87933 40.7104 4.43282 40.8051C3.9863 40.8998 2.30399 40.1511 1.55529 38.8071C0.833648 37.5171 0.720892 35.6634 1.45155 34.2021C2.18221 32.7408 4.02239 31.2479 4.59519 30.8059C5.15897 30.3504 5.91669 29.9625 5.63254 29.4213V29.4213Z" fill="#AFAFAF"/>
<path d="M9.25429 36.1104C8.91151 35.8128 8.34322 36.0247 8.05005 36.4262C7.75238 36.8276 7.64864 37.2921 8.23948 37.6123C8.83032 37.9281 9.21369 37.5898 9.48882 37.2109C9.75943 36.8276 9.57 36.3856 9.25429 36.1104V36.1104Z" fill="#90909B"/>
</svg>
