<svg width="50" height="50" viewBox="0 0 50 50" fill="none" xmlns="http://www.w3.org/2000/svg">
<path d="M35.1301 0C35.1342 0 35.1592 0.282603 35.2257 0.436373C37.1748 5.05361 29.6152 6.45 27.0135 8.34511C23.107 11.1878 23.0239 15.3562 23.2774 18.5354C23.402 20.123 25.8956 20.1396 25.7709 18.5354C25.6005 16.3661 26.2613 12.1852 27.9611 10.7472C29.6443 9.32175 31.9009 8.77317 33.8085 7.73003C36.5763 6.20896 38.912 3.32474 37.7151 0H35.1301Z" fill="#504F4F"/>
<path d="M48.0509 21.5147C46.6586 16.1411 38.9328 13.3982 33.663 15.9832C30.1845 17.6913 28.7383 18.3479 24.8608 18.3479C20.9833 18.3479 19.5911 17.7328 16.1333 16.0705C10.8304 13.5229 3.11279 16.3198 1.78289 21.7142C0.253512 27.9066 0 35.8652 0 43.2461C0 49.8623 6.9695 52.2853 11.6865 46.7662C14.633 43.3168 19.882 41.9162 24.6945 41.9162C29.5071 41.9162 35.1342 43.217 38.2013 46.7662C42.9682 52.2853 50 49.8623 50 43.2461C49.9958 35.7363 49.6592 27.7154 48.0509 21.5147V21.5147Z" fill="url(#paint0_linear_1029_1292)"/>
<path d="M18.2113 41.87C20.9266 41.87 23.1277 39.6689 23.1277 36.9536C23.1277 34.2383 20.9266 32.0371 18.2113 32.0371C15.496 32.0371 13.2948 34.2383 13.2948 36.9536C13.2948 39.6689 15.496 41.87 18.2113 41.87Z" fill="#424242"/>
<path d="M18.2113 40.7288C20.2954 40.7288 21.9849 39.0393 21.9849 36.9552C21.9849 34.8711 20.2954 33.1816 18.2113 33.1816C16.1272 33.1816 14.4377 34.8711 14.4377 36.9552C14.4377 39.0393 16.1272 40.7288 18.2113 40.7288Z" fill="#757575"/>
<path d="M31.5102 41.87C34.2255 41.87 36.4267 39.6689 36.4267 36.9536C36.4267 34.2383 34.2255 32.0371 31.5102 32.0371C28.7949 32.0371 26.5938 34.2383 26.5938 36.9536C26.5938 39.6689 28.7949 41.87 31.5102 41.87Z" fill="#424242"/>
<path d="M31.5103 40.7288C33.5944 40.7288 35.2839 39.0393 35.2839 36.9552C35.2839 34.8711 33.5944 33.1816 31.5103 33.1816C29.4262 33.1816 27.7367 34.8711 27.7367 36.9552C27.7367 39.0393 29.4262 40.7288 31.5103 40.7288Z" fill="#757575"/>
<path d="M11.4247 33.7663C16.0152 33.7663 19.7365 30.045 19.7365 25.4544C19.7365 20.8639 16.0152 17.1426 11.4247 17.1426C6.83414 17.1426 3.11279 20.8639 3.11279 25.4544C3.11279 30.045 6.83414 33.7663 11.4247 33.7663Z" fill="#757575"/>
<path d="M11.4246 32.1037C15.097 32.1037 18.0741 29.1266 18.0741 25.4542C18.0741 21.7818 15.097 18.8047 11.4246 18.8047C7.75222 18.8047 4.77515 21.7818 4.77515 25.4542C4.77515 29.1266 7.75222 32.1037 11.4246 32.1037Z" fill="#424242"/>
<path opacity="0.2" d="M11.4246 19.6359C14.633 19.6359 17.2429 22.2458 17.2429 25.4542C17.2429 28.6626 14.633 31.2725 11.4246 31.2725C8.21626 31.2725 5.60633 28.6626 5.60633 25.4542C5.60633 22.2458 8.21626 19.6359 11.4246 19.6359ZM11.4246 18.8047C7.75079 18.8047 4.77515 21.7803 4.77515 25.4542C4.77515 29.128 7.75079 32.1037 11.4246 32.1037C15.0985 32.1037 18.0741 29.128 18.0741 25.4542C18.0741 21.7803 15.0985 18.8047 11.4246 18.8047Z" fill="#EEEEEE"/>
<path d="M15.4808 23.6887H13.1908V21.4071C13.1908 20.3639 12.3638 19.5078 11.3207 19.5078C10.2775 19.5078 9.4505 20.3639 9.4505 21.4071V23.6887H7.36423C6.32109 23.6887 5.46497 24.5157 5.46497 25.5588C5.46497 26.602 6.32109 27.429 7.36423 27.429H9.4505V29.5236C9.4505 30.5667 10.2775 31.4229 11.3207 31.4229C12.3638 31.4229 13.1908 30.5667 13.1908 29.5236V27.429H15.4808C16.5239 27.429 17.38 26.602 17.38 25.5588C17.38 24.5157 16.5239 23.6887 15.4808 23.6887V23.6887Z" fill="#9E9E9E"/>
<path opacity="0.2" d="M11.3207 19.9234C12.1435 19.9234 12.7752 20.605 12.7752 21.4071V23.6305C12.7752 23.8591 13.0163 24.1043 13.249 24.1043H15.4808C16.287 24.1043 16.9644 24.736 16.9644 25.5588C16.9644 26.3817 16.2829 27.0134 15.4808 27.0134H13.249C13.0163 27.0134 12.7752 27.2628 12.7752 27.4914V29.5236C12.7752 30.3299 12.1435 31.0073 11.3207 31.0073C10.4978 31.0073 9.8661 30.3257 9.8661 29.5236V27.4914C9.8661 27.2628 9.61674 27.0134 9.38816 27.0134H7.36423C6.55798 27.0134 5.88056 26.3817 5.88056 25.5588C5.88056 24.736 6.56213 24.1043 7.36423 24.1043H9.38816C9.61674 24.1043 9.8661 23.8632 9.8661 23.6305V21.4071C9.8661 20.605 10.4978 19.9234 11.3207 19.9234ZM11.3207 19.5078C10.2775 19.5078 9.4505 20.3639 9.4505 21.4071V23.6887H7.36423C6.32109 23.6887 5.46497 24.5157 5.46497 25.5588C5.46497 26.602 6.32109 27.429 7.36423 27.429H9.4505V29.5236C9.4505 30.5667 10.2775 31.4229 11.3207 31.4229C12.3638 31.4229 13.1908 30.5667 13.1908 29.5236V27.429H15.4808C16.5239 27.429 17.38 26.602 17.38 25.5588C17.38 24.5157 16.5239 23.6887 15.4808 23.6887H13.1908V21.4071C13.1908 20.3639 12.3638 19.5078 11.3207 19.5078V19.5078Z" fill="#424242"/>
<path d="M38.6585 23.0399C40.0356 23.0399 41.152 21.9234 41.152 20.5463C41.152 19.1691 40.0356 18.0527 38.6585 18.0527C37.2813 18.0527 36.1649 19.1691 36.1649 20.5463C36.1649 21.9234 37.2813 23.0399 38.6585 23.0399Z" fill="#FFD54F"/>
<path d="M38.6585 33.5848C40.0356 33.5848 41.152 32.4684 41.152 31.0912C41.152 29.7141 40.0356 28.5977 38.6585 28.5977C37.2813 28.5977 36.1649 29.7141 36.1649 31.0912C36.1649 32.4684 37.2813 33.5848 38.6585 33.5848Z" fill="#4CAF50"/>
<path d="M33.5924 28.3094C34.9696 28.3094 36.086 27.193 36.086 25.8158C36.086 24.4387 34.9696 23.3223 33.5924 23.3223C32.2153 23.3223 31.0989 24.4387 31.0989 25.8158C31.0989 27.193 32.2153 28.3094 33.5924 28.3094Z" fill="#2196F3"/>
<path d="M43.7245 28.3094C45.1017 28.3094 46.2181 27.193 46.2181 25.8158C46.2181 24.4387 45.1017 23.3223 43.7245 23.3223C42.3474 23.3223 41.231 24.4387 41.231 25.8158C41.231 27.193 42.3474 28.3094 43.7245 28.3094Z" fill="#F44336"/>
<g opacity="0.2">
<path d="M38.6584 18.8859C39.5768 18.8859 40.3207 19.6298 40.3207 20.5482C40.3207 21.4667 39.5768 22.2106 38.6584 22.2106C37.7399 22.2106 36.996 21.4667 36.996 20.5482C36.996 19.6298 37.744 18.8859 38.6584 18.8859ZM38.6584 18.0547C37.2827 18.0547 36.1648 19.1726 36.1648 20.5482C36.1648 21.9239 37.2827 23.0418 38.6584 23.0418C40.034 23.0418 41.1519 21.9239 41.1519 20.5482C41.1519 19.1726 40.034 18.0547 38.6584 18.0547Z" fill="#424242"/>
<path d="M38.6584 29.4288C39.5768 29.4288 40.3207 30.1728 40.3207 31.0912C40.3207 32.0097 39.5768 32.7536 38.6584 32.7536C37.7399 32.7536 36.996 32.0097 36.996 31.0912C36.996 30.1728 37.744 29.4288 38.6584 29.4288ZM38.6584 28.5977C37.2827 28.5977 36.1648 29.7156 36.1648 31.0912C36.1648 32.4668 37.2827 33.5848 38.6584 33.5848C40.034 33.5848 41.1519 32.4668 41.1519 31.0912C41.1519 29.7156 40.034 28.5977 38.6584 28.5977Z" fill="#424242"/>
<path d="M33.5923 24.1554C34.5108 24.1554 35.2547 24.8993 35.2547 25.8178C35.2547 26.7362 34.5108 27.4802 33.5923 27.4802C32.6739 27.4802 31.9299 26.7362 31.9299 25.8178C31.9299 24.8993 32.678 24.1554 33.5923 24.1554M33.5923 23.3242C32.2167 23.3242 31.0988 24.4422 31.0988 25.8178C31.0988 27.1934 32.2167 28.3113 33.5923 28.3113C34.9679 28.3113 36.0859 27.1934 36.0859 25.8178C36.0859 24.4422 34.9721 23.3242 33.5923 23.3242Z" fill="#424242"/>
<path d="M43.7244 24.1554C44.6429 24.1554 45.3868 24.8993 45.3868 25.8178C45.3868 26.7362 44.6429 27.4802 43.7244 27.4802C42.8059 27.4802 42.062 26.7362 42.062 25.8178C42.062 24.8993 42.8059 24.1554 43.7244 24.1554M43.7244 23.3242C42.3488 23.3242 41.2308 24.4422 41.2308 25.8178C41.2308 27.1934 42.3488 28.3113 43.7244 28.3113C45.1 28.3113 46.218 27.1934 46.218 25.8178C46.218 24.4422 45.1 23.3242 43.7244 23.3242Z" fill="#424242"/>
</g>
<path opacity="0.2" d="M18.2112 34.0089C19.8362 34.0089 21.1536 35.3305 21.1536 36.9513C21.1536 38.5763 19.832 39.8937 18.2112 39.8937C16.5862 39.8937 15.2688 38.5721 15.2688 36.9513C15.2688 35.3305 16.5904 34.0089 18.2112 34.0089ZM18.2112 33.1777C16.1249 33.1777 14.4376 34.8692 14.4376 36.9513C14.4376 39.0376 16.1291 40.7249 18.2112 40.7249C20.2975 40.7249 21.9848 39.0334 21.9848 36.9513C21.9889 34.8692 20.2975 33.1777 18.2112 33.1777Z" fill="#424242"/>
<path opacity="0.2" d="M31.5102 34.0089C33.1351 34.0089 34.4526 35.3305 34.4526 36.9513C34.4526 38.5763 33.131 39.8937 31.5102 39.8937C29.8893 39.8937 28.5678 38.5763 28.5678 36.9555C28.5678 35.3305 29.8893 34.0089 31.5102 34.0089M31.5102 33.1777C29.4239 33.1777 27.7366 34.8692 27.7366 36.9513C27.7366 39.0376 29.428 40.7249 31.5102 40.7249C33.5923 40.7249 35.2837 39.0334 35.2837 36.9513C35.2879 34.8692 33.5964 33.1777 31.5102 33.1777Z" fill="#424242"/>
<defs>
<linearGradient id="paint0_linear_1029_1292" x1="25" y1="13.4265" x2="25" y2="46.6166" gradientUnits="userSpaceOnUse">
<stop offset="0.2493" stop-color="#757575"/>
<stop offset="0.8025" stop-color="#444444"/>
</linearGradient>
</defs>
</svg>
