<svg width="50" height="51" viewBox="0 0 50 51" fill="none" xmlns="http://www.w3.org/2000/svg">
<path d="M39.9917 25.5821C39.8671 24.0455 37.1263 21.3877 32.6828 24.1701C24.6263 29.195 27.7409 39.9508 31.0632 42.9824C35.1745 46.7199 40.6977 48.5472 50 47.0937L49.8339 36.4625C49.8339 36.4625 48.1313 39.9093 41.5283 39.9093C36.8356 39.9508 31.9768 37.0023 31.9768 32.5173C31.9768 27.0771 36.2542 25.8728 37.8323 26.3711C38.7459 26.6618 37.9984 26.8279 37.9568 27.7831V27.8246C38.7043 28.1984 40.1994 27.7415 39.9917 25.5821V25.5821Z" fill="url(#paint0_linear_1029_1659)"/>
<path d="M40.2823 20.5982C42.4832 22.467 43.6045 25.8723 40.7806 27.9903C40.0746 28.5301 38.8288 28.5717 38.0397 28.1564C38.2474 29.2361 39.3686 29.859 41.1543 29.9006C43.646 29.9421 46.0962 26.3707 45.1826 23.7129C43.8122 19.7677 39.867 17.6082 35.2989 18.3142C34.3022 18.4803 33.3886 18.7295 32.5165 19.0617C35.8387 18.1065 38.8703 19.4354 40.2823 20.5982V20.5982Z" fill="#E1F5FE"/>
<path d="M31.3538 42.8142C27.99 39.7827 24.5847 30.1896 32.392 24.7494C35.5066 22.59 39.5764 23.4621 39.701 26.1199C39.784 27.8225 38.7043 28.1963 37.9983 27.781C37.9983 27.9056 37.9983 28.0302 38.0398 28.1548C38.8289 28.57 40.1578 28.5285 40.9053 28.0302C43.6877 26.2029 42.7325 22.5069 41.196 20.7212C40.0332 19.3093 36.6279 17.5235 32.5581 19.0186C24.0033 22.2578 22.3006 32.8059 15.0332 36.585C6.64451 40.9454 0 35.879 0 35.879L0.0830563 49.874H49.8338V47.0501C40.5315 48.5036 35.4651 46.5518 31.3538 42.8142Z" fill="url(#paint1_linear_1029_1659)"/>
<path opacity="0.2" d="M37.0432 19.4353C40.3239 19.4353 43.0232 21.221 44.0199 24.128C44.3106 25.0416 44.0614 26.2459 43.3554 27.2841C42.7325 28.1562 41.902 28.6546 41.1129 28.6546C41.0299 28.6546 40.9468 28.6546 40.9053 28.6546C39.3687 28.4884 39.3272 28.0732 39.2857 27.8655C39.2857 27.824 39.3272 27.6579 39.3687 27.5748C39.4933 27.2426 39.7425 26.5782 39.3687 25.9552C38.9535 25.2492 38.1644 25.1662 37.9153 25.1247C37.7076 25.0831 37.5415 25.0831 37.2923 25.0831C35.0498 25.0831 30.8139 26.6612 30.8139 32.5582C30.8139 37.9154 36.4202 41.2376 41.6113 41.2376C45.0166 41.2376 47.2591 40.3655 48.7126 39.4519L48.7956 46.7193C48.7126 46.8854 48.6711 47.0516 48.6711 47.2592V48.8788H1.3289L1.24585 38.123C2.78239 38.829 5.10797 39.618 7.93189 39.618C10.5066 39.618 13.0814 38.9536 15.5731 37.6662C19.2276 35.7559 21.5531 32.3506 23.7957 29.0698C26.3289 25.3323 28.7375 21.7609 32.9734 20.1828C33.7624 19.8921 34.6345 19.6429 35.5066 19.5184C36.005 19.4768 36.5033 19.4353 37.0432 19.4353M37.0016 18.1895C36.4618 18.1895 35.8804 18.231 35.2574 18.314C34.2608 18.4802 33.3471 18.7293 32.4751 19.0615C24.0033 22.2592 22.3006 32.8074 15.0332 36.5864C12.4585 37.9154 10.0498 38.3722 7.97342 38.3722C3.19767 38.3722 0 36.0051 0 36.0051L0.0830563 50.0831H49.8338V47.2177C49.8754 47.2177 49.9169 47.0931 49.9584 47.0931L49.8338 36.4619C49.8338 36.4619 48.1312 39.9087 41.4867 39.9087C36.8355 39.9502 31.9767 37.0017 31.9767 32.5167C31.9767 27.4918 35.382 26.2875 37.2093 26.2875C37.3754 26.2875 37.5415 26.2875 37.6661 26.329C38.8704 26.4951 37.7907 27.118 37.9568 28.0732C38.0814 28.7376 38.3721 29.6512 40.6976 29.9004C40.8222 29.9004 40.9468 29.9419 41.0714 29.9419C43.8123 29.9419 46.0548 26.329 45.1827 23.7542C43.9784 20.2659 40.8222 18.1895 37.0016 18.1895V18.1895Z" fill="#424242"/>
<path d="M31.686 10.7142C31.0215 6.60292 23.9202 3.48831 17.5664 7.01821C5.77239 13.6212 7.5581 29.568 13.0814 36.171C19.4352 43.8122 38.9119 48.1727 47.2175 38.2889C45.2242 40.0331 41.6943 41.6527 35.4235 41.6527C27.2009 41.6527 16.8189 34.6345 16.8189 23.5049C16.8189 13.289 26.0382 7.93183 28.779 8.84545C29.7342 9.17767 29.4019 9.46837 28.9867 10.0913C29.8172 9.59295 30.98 9.38531 31.686 10.7142V10.7142Z" fill="url(#paint2_linear_1029_1659)"/>
<path d="M31.7276 10.7567C31.6861 10.7152 31.6861 10.7567 31.7276 10.7567V10.7567Z" fill="url(#paint3_linear_1029_1659)"/>
<path d="M20.5981 0.538842C23.1313 0.621898 25.7061 0.3312 28.0316 1.32788C29.6928 2.03386 31.3124 2.86442 32.6413 4.02721C33.9702 5.19 35.0084 7.34947 35.216 9.05212C35.5067 11.5023 33.2642 14.3262 30.6895 14.2432C29.8174 14.2016 29.0283 13.8694 28.4885 13.288C28.9037 14.9076 30.2326 16.6103 33.1811 16.6103C35.6728 16.6103 38.6629 14.1601 38.123 10.298C37.3755 4.19332 31.3539 0.0820312 21.5532 0.0820312C18.3971 0.0820312 15.4071 0.871067 12.7493 2.28303C15.324 1.24482 18.8954 0.497313 20.5981 0.538842V0.538842Z" fill="#E1F5FE"/>
<path d="M49.8338 33.9278C49.8338 33.9694 49.5847 36.2119 47.2591 38.2883C38.9535 48.2135 19.4767 43.8116 13.1229 36.1704C7.59966 29.5258 5.77242 13.6205 17.608 7.01756C23.9618 3.44613 31.0631 6.56075 31.7276 10.7136C31.7276 10.7136 31.7276 10.7136 31.7691 10.7551V10.7136C31.0631 9.38467 29.9003 9.55078 29.0282 10.1322C28.7375 10.589 28.4053 11.1704 28.4053 12.084C28.4053 12.4578 28.4468 12.873 28.5714 13.2883C29.0697 13.8697 30.0249 14.991 31.3953 14.9494C35.3405 14.8249 36.005 12.2501 35.6727 9.21855C35.299 5.8963 28.2807 -4.56881 12.7076 2.28334C5.64784 5.97935 0.581395 13.9528 0 23.2966V49.8747L49.9584 49.9162L49.8338 33.9278Z" fill="url(#paint4_linear_1029_1659)"/>
<path d="M31.686 10.7145C31.3538 5.68954 23.9202 3.48855 17.5664 7.01845C5.77239 13.6214 7.5581 29.5683 13.0814 36.1712C19.4352 43.8124 38.9119 48.1729 47.2175 38.2892C45.2242 40.0334 41.6943 41.653 35.4235 41.653C27.2009 41.653 16.8189 34.6347 16.8189 23.5051C16.8189 13.2892 26.0382 7.93207 28.779 8.84569C29.7342 9.17791 29.4019 9.46861 28.9867 10.0915C29.8172 9.5932 30.98 9.38555 31.686 10.7145V10.7145Z" fill="url(#paint5_linear_1029_1659)"/>
<path opacity="0.2" d="M22.3837 1.24585C23.505 1.24585 24.5847 1.37043 25.6229 1.57807H25.706C32.2259 2.57475 36.3372 5.81395 36.9601 10.5066C37.1677 12.2508 36.5448 13.3721 35.9634 14.0365C35.2159 14.8671 34.1777 15.3654 33.2226 15.3654C30.6893 15.3654 29.9418 13.6628 29.6927 12.9568C29.6927 12.9153 29.6511 12.8737 29.6511 12.8322C29.5266 12.5 29.6511 11.4203 29.8173 11.0465C29.9003 10.9634 29.9418 10.9219 30.0249 10.8389C30.0664 10.7973 30.1079 10.7143 30.1495 10.6727C30.4402 10.2575 30.8555 9.63454 30.6063 8.88704C30.3156 8.098 29.5266 7.8073 29.2359 7.72425C28.9036 7.59966 28.5299 7.55813 28.1146 7.55813C25.8721 7.55813 22.7575 9.26079 20.3488 11.7525C17.3173 14.9502 15.6561 19.103 15.6561 23.5465C15.6561 28.9867 18.0232 34.0116 22.3006 37.7076C26.0382 40.9468 30.98 42.8986 35.5066 42.8986C41.0714 42.8986 45.3488 41.6528 48.1312 39.2026C48.3388 39.0365 48.5049 38.8704 48.7126 38.6628L48.7956 48.6295H1.24585V23.3389C1.82724 14.6179 6.43687 6.97674 13.289 3.40531C15.5315 2.24252 17.9402 1.53654 20.3903 1.37043H20.4319C21.0963 1.28737 21.7608 1.24585 22.3837 1.24585M22.3837 0C21.7193 0 21.0133 0.0415281 20.3073 0.124585C17.608 0.290697 15.0747 1.0382 12.7076 2.28405C5.64784 5.98006 0.581395 13.9535 0 23.2973V49.8754L49.9584 49.9169L49.8338 33.9285C49.8338 33.9701 49.5847 36.2126 47.2591 38.289C45.2657 40.0332 41.7358 41.6528 35.4651 41.6528C27.2425 41.6528 16.8605 34.6345 16.8605 23.505C16.8605 14.0365 24.7508 8.76245 28.1146 8.76245C28.4053 8.76245 28.6129 8.80398 28.8206 8.84551C29.7757 9.17773 29.4435 9.46843 29.0282 10.0914C28.5299 10.4236 28.1977 12.4169 28.5714 13.289C28.9867 14.701 30.3156 16.6113 33.2641 16.6113C35.7558 16.6113 38.7458 14.1611 38.206 10.299C37.5415 5.10797 33.1395 1.37043 25.9136 0.332226C24.8339 0.124585 23.6711 0 22.3837 0V0Z" fill="#424242"/>
<defs>
<linearGradient id="paint0_linear_1029_1659" x1="35.7091" y1="24.7476" x2="41.6406" y2="46.9834" gradientUnits="userSpaceOnUse">
<stop offset="0.1502" stop-color="#039BE5"/>
<stop offset="0.8024" stop-color="#81D4FA"/>
</linearGradient>
<linearGradient id="paint1_linear_1029_1659" x1="24.1203" y1="44.1415" x2="40.0887" y2="18.786" gradientUnits="userSpaceOnUse">
<stop offset="0.1502" stop-color="#039BE5"/>
<stop offset="0.8024" stop-color="#81D4FA"/>
</linearGradient>
<linearGradient id="paint2_linear_1029_1659" x1="33.4703" y1="46.3296" x2="20.2798" y2="13.9915" gradientUnits="userSpaceOnUse">
<stop offset="0.1969" stop-color="#81D4FA"/>
<stop offset="0.614" stop-color="#29B6F6"/>
</linearGradient>
<linearGradient id="paint3_linear_1029_1659" x1="18.7381" y1="52.846" x2="33.5844" y2="4.67323" gradientUnits="userSpaceOnUse">
<stop offset="0.1005" stop-color="#039BE5"/>
<stop offset="0.6066" stop-color="#81D4FA"/>
</linearGradient>
<linearGradient id="paint4_linear_1029_1659" x1="20.2168" y1="40.076" x2="40.3393" y2="10.7184" gradientUnits="userSpaceOnUse">
<stop offset="0.3611" stop-color="#4FC3F7"/>
<stop offset="0.725" stop-color="#B3E5FC"/>
</linearGradient>
<linearGradient id="paint5_linear_1029_1659" x1="5.39116" y1="41.6256" x2="44.3239" y2="14.6339" gradientUnits="userSpaceOnUse">
<stop offset="0.2551" stop-color="#81D4FA"/>
<stop offset="0.6586" stop-color="#29B6F6"/>
</linearGradient>
</defs>
</svg>
