<svg width="50" height="43" viewBox="0 0 50 43" fill="none" xmlns="http://www.w3.org/2000/svg">
<path d="M1.50936 13.9207C1.7888 13.7751 2.08398 13.5586 2.39885 13.5626C2.60351 13.5665 2.80817 13.6413 3.00889 13.7121C2.90656 14.4127 2.81997 15.1251 2.757 15.8414C2.09579 16.0263 1.69434 16.5616 1.08823 16.8529C0.765501 17.0103 0.395538 17.0811 0.0334473 17.0733C0.0806765 16.0972 0.171199 15.1408 0.289272 14.2159C0.423089 14.2552 0.556905 14.2828 0.68285 14.2789C0.962289 14.2671 1.2496 14.0585 1.50936 13.9207V13.9207Z" fill="url(#paint0_linear_1029_2331)"/>
<path d="M2.92226 7.82124C3.23318 7.88421 3.51656 8.10462 3.80781 8.23056C3.92982 8.28173 4.04002 8.31321 4.15022 8.33683C3.98098 8.94294 3.81568 9.56872 3.66612 10.2142C3.46146 10.1748 3.25286 10.1512 3.04033 10.1827C2.35157 10.285 1.88715 10.7809 1.24956 11.0092C1.1118 11.0564 0.96618 11.0919 0.820557 11.1115C1.03702 10.0568 1.27711 9.07282 1.50932 8.18333C1.67068 8.1361 1.83205 8.06919 1.98555 8.02197C2.28466 7.92357 2.61133 7.7622 2.92226 7.82124V7.82124Z" fill="url(#paint1_linear_1029_2331)"/>
<path d="M4.69351 2.31851C5.37046 2.60582 5.83095 2.42871 6.45674 2.22799C6.22059 2.64124 6.00019 3.09385 5.8034 3.5504C5.64597 3.91643 5.45705 4.39266 5.24845 4.94367C4.88636 4.79411 4.53608 4.60519 4.13463 4.59732C3.49704 4.58158 2.98932 4.92005 2.39502 5.06568C2.43438 4.9358 2.4698 4.80592 2.50522 4.68784C2.85157 3.4835 3.26876 2.5822 3.7135 1.90919C3.74499 1.90919 3.77648 1.90525 3.80796 1.91312C4.11495 1.97216 4.39833 2.19256 4.69351 2.31851V2.31851Z" fill="url(#paint2_linear_1029_2331)"/>
<path d="M0.899258 20.1666C1.17083 20.1233 1.43059 19.8872 1.67461 19.7179C1.93437 19.5408 2.20593 19.2929 2.51686 19.2653C2.56015 19.2614 2.60345 19.2653 2.65068 19.2692C2.6861 20.4815 2.80811 21.6897 3.03245 22.8823C2.98128 22.9846 2.92618 23.083 2.85927 23.1775C2.54835 23.6261 2.05244 23.9804 1.53292 24.0906C1.22986 24.1575 0.90713 24.2086 0.62769 24.3424C0.293149 22.9098 0.112104 21.4654 0.0412598 20.0406C0.328571 20.1154 0.631626 20.2099 0.899258 20.1666V20.1666Z" fill="url(#paint3_linear_1029_2331)"/>
<path d="M2.95386 26.7198C3.00109 26.6805 3.05225 26.6411 3.11523 26.6096C3.37499 26.4797 3.72921 26.4325 4.02045 26.3184C4.39042 27.2433 4.84303 28.1446 5.39404 29.0104C5.20119 29.1285 4.99259 29.2151 4.77612 29.2623C4.26841 29.3765 3.70953 29.4394 3.38286 29.9078C3.27659 30.0613 3.19001 30.2187 3.10736 30.3683C2.63506 29.6244 2.22968 28.8609 1.87939 28.0855C2.18638 27.5975 2.52093 27.137 2.91057 26.7592C2.92631 26.7474 2.93812 26.7316 2.95386 26.7198V26.7198Z" fill="url(#paint4_linear_1029_2331)"/>
<path d="M18.4688 38.8342C18.516 38.7948 18.5672 38.7554 18.6302 38.724C18.9883 38.5468 19.5197 38.5232 19.8345 38.2753C20.051 38.106 20.1612 37.7676 20.2911 37.5039C20.3462 37.3937 20.3973 37.2717 20.4564 37.1575C21.6489 37.1339 22.9005 36.9883 24.2308 36.7285C23.9199 37.2953 23.79 37.8384 23.0304 38.3619C22.7588 38.5508 22.5423 38.7948 22.4243 39.1057C22.1055 39.9362 22.2511 40.5226 21.3734 41.1012C21.3144 41.1405 21.2514 41.1799 21.1924 41.2192C19.9487 40.9398 18.6892 40.5934 17.418 40.1723C17.721 39.6961 18.0477 39.2435 18.4295 38.8735L18.4688 38.8342Z" fill="url(#paint5_linear_1029_2331)"/>
<path d="M6.20483 31.8918C6.25206 31.8525 6.30323 31.8131 6.3662 31.7816C6.6417 31.6439 7.0156 31.5966 7.31865 31.4707C7.9838 32.1713 8.7316 32.8404 9.57385 33.4661C9.35345 33.5567 9.15272 33.6826 9.00317 33.8991C8.72373 34.3045 8.59384 34.7059 8.22388 35.0523C8.07432 35.1939 7.89328 35.2805 7.70436 35.3396C6.77945 34.6311 5.95688 33.8833 5.22876 33.104C5.5082 32.675 5.81519 32.2657 6.16154 31.9273C6.17728 31.9194 6.18909 31.9036 6.20483 31.8918V31.8918Z" fill="url(#paint6_linear_1029_2331)"/>
<path d="M11.8213 35.8819C11.8685 35.8426 11.9196 35.8032 11.9826 35.7717C12.2424 35.6418 12.5966 35.5946 12.8878 35.4805C13.1673 35.6182 13.4467 35.7599 13.7262 35.8898C14.4504 36.185 15.1667 36.4211 15.8869 36.61C15.8003 36.6769 15.7216 36.7517 15.6547 36.8501C15.3753 37.2555 15.2454 37.657 14.8754 38.0033C14.5763 38.2906 14.1512 38.3418 13.7734 38.448C13.6435 38.4835 13.4822 38.5228 13.3129 38.5661C12.6871 38.2827 12.0613 37.9876 11.4316 37.6688C11.1915 37.5468 10.9554 37.4208 10.7192 37.2909C11.0341 36.7871 11.3765 36.307 11.778 35.9173C11.7937 35.9055 11.8055 35.8937 11.8213 35.8819V35.8819Z" fill="url(#paint7_linear_1029_2331)"/>
<path d="M42.0834 35.3778C42.107 35.3187 42.1385 35.2636 42.1778 35.2085C42.4179 34.8897 42.8863 34.6339 43.0555 34.2718C43.1736 34.0239 43.1224 33.6736 43.1224 33.3784C43.1224 33.0635 43.0712 32.7014 43.2208 32.4259C43.3743 32.1504 43.6734 31.9497 43.882 31.7096C44.4055 31.1035 44.3268 30.5761 44.3386 29.8205C44.3543 28.927 45.2517 28.3996 45.3894 27.5495C45.4721 27.03 45.2832 24.3261 44.7479 23.5547C45.7436 22.1614 46.4363 21.0043 46.8142 20.3431C46.8102 20.3392 46.8063 20.3392 46.7984 20.3352C46.7866 20.3313 46.9598 20.0322 47.1841 19.6583C47.4872 19.1506 47.8847 18.5012 48.0421 18.2217C48.0894 18.143 48.113 18.0919 48.113 18.084C48.5066 18.2886 48.8253 18.5366 49.0772 18.8318C48.8057 19.4969 48.479 20.1463 48.231 20.8193C48.113 21.1381 48.0106 21.4727 48.0579 21.8072C48.1366 22.3543 48.6128 22.8266 48.5498 23.3776C48.4829 23.9837 47.9949 24.4796 47.9516 25.1093C47.9044 25.806 48.2901 26.3609 48.3727 27.0339C48.4396 27.5731 48.3058 28.1714 47.991 28.6004C47.6879 29.0215 47.314 29.4426 47.3849 30.0094C47.4478 30.4974 47.6171 30.8831 47.5738 31.3869C47.5423 31.8001 47.2589 32.1229 47.0464 32.4535C46.7748 32.8786 46.2041 33.5988 46.1372 34.0475C46.0624 34.5473 46.3143 34.9803 46.3379 35.4722C45.0273 36.8734 43.4255 38.0974 41.5796 39.0971C41.674 37.9163 41.6622 36.5506 42.0598 35.4289C42.0716 35.4132 42.0755 35.3974 42.0834 35.3778V35.3778Z" fill="url(#paint8_linear_1029_2331)"/>
<path d="M32.9052 41.4757C32.9052 41.2671 33.6924 39.5039 33.6885 39.2992C33.6806 38.9804 33.6806 38.6577 33.7317 38.3428C33.8301 37.7446 34.3536 37.3707 34.7708 36.9811C35.3218 36.4655 35.5343 35.5878 35.5894 34.6865C35.6367 33.9269 35.5698 33.1555 35.5068 32.5651C37.8407 31.1089 39.8519 29.3142 41.5128 27.5273C41.5679 27.9524 41.7214 28.3814 41.5639 28.771C41.3357 29.3378 40.7374 29.6841 40.5288 30.2824C40.2966 30.9397 40.521 31.5812 40.4226 32.2503C40.3438 32.7895 40.0565 33.3287 39.6393 33.6593C39.234 33.9859 38.7617 34.2929 38.679 34.8558C38.6082 35.3438 38.6711 35.761 38.494 36.2333C38.3523 36.6229 37.9942 36.8591 37.7029 37.1228C37.329 37.4612 36.5891 38.0044 36.4002 38.4176C36.1208 39.0474 36.4632 39.7164 35.9869 40.3658C35.7705 40.661 35.4517 40.9286 35.432 41.2986C35.432 41.3222 35.432 41.3458 35.4359 41.3734C34.3418 41.6213 33.2044 41.8103 32.0315 41.9283C32.488 41.8378 32.9013 41.7079 32.9052 41.4757V41.4757Z" fill="url(#paint9_linear_1029_2331)"/>
<path d="M26.9307 38.1422C27.9855 37.5754 28.0642 37.111 28.2177 36.0011C28.2335 35.8988 28.2413 35.7847 28.2099 35.6863C29.241 35.3596 30.3273 34.9857 31.4766 34.5488C31.4962 34.6 31.5159 34.6512 31.5356 34.6984C32.6612 37.2763 30.4729 37.1071 29.9101 39.0002C29.8353 39.2678 29.792 39.5512 29.7645 39.8267C29.7409 40.0668 29.0797 41.6017 28.9183 42.0858H28.8396C27.8714 42.0858 26.8835 42.0425 25.8799 41.952C26.5372 40.7949 25.5139 38.9057 26.9307 38.1422Z" fill="url(#paint10_linear_1029_2331)"/>
<path d="M43.5552 19.8996C43.5906 19.8485 43.626 19.7934 43.6614 19.7422C43.63 19.7934 43.5906 19.8445 43.5552 19.8996Z" fill="url(#paint11_linear_1029_2331)"/>
<path d="M40.9854 23.512C41.1074 23.3703 41.253 23.1775 41.4222 22.9531C41.2569 23.1775 41.1074 23.3703 40.9854 23.512Z" fill="url(#paint12_linear_1029_2331)"/>
<path d="M41.5835 22.7374C41.6229 22.6863 41.6543 22.6391 41.6937 22.5879C41.6543 22.6391 41.6229 22.6863 41.5835 22.7374Z" fill="url(#paint13_linear_1029_2331)"/>
<path d="M42.2485 21.8073L42.3076 21.7246L42.2485 21.8073Z" fill="url(#paint14_linear_1029_2331)"/>
<path d="M42.9138 20.8445C42.9335 20.813 42.9571 20.7815 42.9768 20.75C42.9571 20.7854 42.9335 20.813 42.9138 20.8445Z" fill="url(#paint15_linear_1029_2331)"/>
<path d="M41.918 22.2762C41.9416 22.2407 41.9652 22.2093 41.9927 22.1738C41.9652 22.2093 41.9416 22.2407 41.918 22.2762Z" fill="url(#paint16_linear_1029_2331)"/>
<path d="M47.188 19.6592C47.3297 19.3916 47.6642 18.8052 48.046 18.2227C47.8846 18.506 47.491 19.1515 47.188 19.6592Z" fill="url(#paint17_linear_1029_2331)"/>
<path d="M22.424 39.1057C22.5421 38.7948 22.7585 38.5508 23.0301 38.3618C23.7897 37.8384 23.9196 37.2992 24.2305 36.7285C25.4703 36.4845 26.7927 36.1381 28.2135 35.6895C28.245 35.7839 28.2371 35.902 28.2214 36.0043C28.064 37.1142 27.9892 37.5786 26.9344 38.1454C25.5175 38.9089 26.5408 40.7981 25.8875 41.9552C24.3565 41.8214 22.79 41.5774 21.196 41.2192C21.2551 41.1799 21.3181 41.1405 21.3771 41.1011C22.2508 40.5226 22.1052 39.9362 22.424 39.1057V39.1057Z" fill="#768349"/>
<path d="M35.9907 40.3644C36.467 39.715 36.1246 39.0459 36.404 38.4162C36.589 38.0029 37.3289 37.4598 37.7067 37.1213C37.998 36.8576 38.3561 36.6214 38.4978 36.2318C38.6749 35.7595 38.612 35.3423 38.6828 34.8543C38.7655 34.2915 39.2377 33.9845 39.6431 33.6578C40.0603 33.3272 40.3476 32.788 40.4263 32.2488C40.5247 31.5797 40.3004 30.9382 40.5326 30.2809C40.7412 29.6866 41.3394 29.3363 41.5677 28.7696C41.7252 28.3799 41.5717 27.9509 41.5166 27.5259C42.8075 26.1405 43.8938 24.759 44.7518 23.5547C45.287 24.3261 45.4799 27.03 45.3933 27.5495C45.2555 28.3996 44.3582 28.927 44.3424 29.8204C44.3306 30.5761 44.4094 31.1035 43.8859 31.7096C43.6773 31.9497 43.3782 32.1504 43.2247 32.4259C43.0751 32.7014 43.1263 33.0635 43.1263 33.3784C43.1263 33.6736 43.1775 34.0238 43.0594 34.2718C42.8901 34.6339 42.4218 34.8897 42.1817 35.2085C42.1423 35.2636 42.1109 35.3226 42.0872 35.3777C42.0794 35.3935 42.0754 35.4132 42.0676 35.4289C41.6701 36.5506 41.6858 37.9163 41.5874 39.097C39.7573 40.0849 37.6871 40.8563 35.4397 41.3641C35.4397 41.3404 35.4358 41.3168 35.4358 41.2893C35.4555 40.9272 35.7703 40.6596 35.9907 40.3644V40.3644Z" fill="#768349"/>
<path d="M2.75707 15.8418C2.65868 16.9753 2.61538 18.1245 2.6508 19.2699C2.60751 19.2699 2.56028 19.262 2.51699 19.2659C2.20606 19.2974 1.93449 19.5414 1.67473 19.7185C1.43071 19.8838 1.17095 20.1239 0.899385 20.1672C0.631753 20.2105 0.328698 20.1121 0.0335155 20.0413C-0.0137138 19.0416 -0.009778 18.0498 0.0374513 17.0776C0.399542 17.0855 0.769505 17.0107 1.09224 16.8572C1.69441 16.562 2.09586 16.0268 2.75707 15.8418V15.8418Z" fill="#768349"/>
<path d="M3.04041 10.1806C3.25294 10.1491 3.46154 10.1727 3.6662 10.2121C3.61897 10.4089 3.57568 10.6057 3.53238 10.8025C3.33166 11.7431 3.15061 12.7192 3.00499 13.711C2.80426 13.6401 2.5996 13.5693 2.39494 13.5614C2.08008 13.5575 1.7849 13.774 1.50546 13.9196C1.2457 14.0573 0.958388 14.2659 0.682884 14.2777C0.556939 14.2856 0.423123 14.2581 0.289307 14.2148C0.430994 13.1285 0.61204 12.0855 0.812764 11.1055C0.958388 11.0819 1.10401 11.0504 1.24176 11.0032C1.88723 10.7788 2.34772 10.2829 3.04041 10.1806V10.1806Z" fill="#768349"/>
<path d="M5.24826 4.94258C4.90191 5.8793 4.50834 7.04822 4.15018 8.33128C4.03998 8.30767 3.92978 8.27618 3.80777 8.22502C3.51652 8.09907 3.23315 7.87867 2.92222 7.8157C2.61129 7.7606 2.28462 7.92196 1.98551 8.02036C1.83201 8.07152 1.67064 8.13449 1.50928 8.18172C1.83595 6.93802 2.15868 5.8793 2.39876 5.06459C2.99306 4.91897 3.49684 4.58049 4.13837 4.59623C4.53195 4.60804 4.88617 4.79696 5.24826 4.94258V4.94258Z" fill="#768349"/>
<path d="M7.28312 1.0233C7.00368 1.3421 6.72031 1.75929 6.45661 2.22765C5.83082 2.42837 5.37034 2.60548 4.69339 2.31817C4.40214 2.19222 4.11876 1.97182 3.80784 1.90885C3.77635 1.90491 3.74487 1.90885 3.71338 1.90491C4.72487 0.362091 5.88593 0 6.73999 0C7.47598 0 7.99156 0.263697 7.99156 0.263697L8.28675 0.393577C7.97976 0.385706 7.63341 0.621852 7.28312 1.0233V1.0233Z" fill="#768349"/>
<path d="M9.19995 1.97908C9.22357 1.95153 9.24718 1.92791 9.2708 1.9043C9.24324 1.92791 9.22357 1.95153 9.19995 1.97908Z" fill="#768349"/>
<path d="M9.44786 1.71875C9.42031 1.74236 9.39669 1.76598 9.36914 1.79353C9.39669 1.76598 9.42031 1.74236 9.44786 1.71875Z" fill="#768349"/>
<path d="M9.86914 1.3774C9.90063 1.35378 9.92818 1.33804 9.95966 1.31836C9.92818 1.3341 9.90063 1.35378 9.86914 1.3774Z" fill="#768349"/>
<path d="M10.0107 1.27971C10.0422 1.26003 10.0698 1.24429 10.0973 1.22461C10.0698 1.24429 10.0422 1.26397 10.0107 1.27971Z" fill="#768349"/>
<path d="M9.03467 2.18413C9.05041 2.16051 9.07009 2.1369 9.08977 2.11328C9.07009 2.14083 9.05435 2.16051 9.03467 2.18413Z" fill="#768349"/>
<path d="M9.70752 1.4966C9.73901 1.47298 9.76656 1.4533 9.79411 1.42969C9.76656 1.44937 9.73901 1.47298 9.70752 1.4966Z" fill="#768349"/>
<path d="M9.54224 1.63334L9.62489 1.5625L9.54224 1.63334Z" fill="#768349"/>
<path d="M8.29076 0.396907L8.31438 0.408714C7.95228 0.459879 7.602 0.696026 7.2832 1.02269C7.63349 0.621246 7.97983 0.3851 8.29076 0.396907V0.396907Z" fill="#768349"/>
<path d="M14.8752 38.0065C15.2452 37.6602 15.3712 37.2587 15.6545 36.8534C15.7214 36.755 15.8002 36.6802 15.8867 36.6133C17.3705 37.0069 18.8661 37.1918 20.4562 37.1604C20.3971 37.2784 20.346 37.3965 20.2909 37.5067C20.161 37.7704 20.0508 38.1089 19.8343 38.2781C19.5234 38.5261 18.9881 38.5497 18.63 38.7268C18.567 38.7583 18.5158 38.7976 18.4686 38.837C18.4529 38.8488 18.4411 38.8645 18.4292 38.8763C18.0475 39.2463 17.7208 39.6989 17.4178 40.1752C16.0599 39.7265 14.6903 39.1912 13.3127 38.5694C13.482 38.5261 13.6433 38.4906 13.7732 38.4513C14.1471 38.345 14.5761 38.2899 14.8752 38.0065V38.0065Z" fill="#768349"/>
<path d="M9.00315 33.8978C9.15271 33.6813 9.35343 33.5554 9.57384 33.4648C10.4791 34.1379 11.4827 34.7715 12.6123 35.3461C12.7028 35.3934 12.7933 35.4327 12.8838 35.48C12.5886 35.5902 12.2384 35.6413 11.9786 35.7712C11.9156 35.8027 11.8645 35.842 11.8172 35.8814C11.8015 35.8932 11.7897 35.909 11.7779 35.9208C11.3764 36.3104 11.034 36.7906 10.7191 37.2943C9.60926 36.6882 8.60957 36.0349 7.70435 35.3422C7.89326 35.2792 8.07431 35.1966 8.22387 35.0549C8.59383 34.7046 8.72371 34.3032 9.00315 33.8978V33.8978Z" fill="#768349"/>
<path d="M4.78007 29.2636C4.9926 29.2164 5.20119 29.1298 5.39798 29.0117C5.94112 29.8658 6.57871 30.6884 7.31864 31.4676C7.01558 31.5936 6.63775 31.6408 6.36618 31.7786C6.30321 31.8101 6.25204 31.8494 6.20482 31.8888C6.18907 31.9006 6.17726 31.9163 6.16546 31.9281C5.81517 32.2666 5.51212 32.672 5.23268 33.1049C4.41404 32.2312 3.71347 31.3141 3.11523 30.3696C3.20182 30.22 3.28447 30.0626 3.39074 29.9091C3.71347 29.4447 4.27235 29.3777 4.78007 29.2636V29.2636Z" fill="#768349"/>
<path d="M2.85951 23.178C2.92642 23.0835 2.98152 22.9812 3.03269 22.8828C3.25309 24.0517 3.57582 25.201 4.0245 26.3187C3.72932 26.4329 3.37903 26.4801 3.11927 26.61C3.0563 26.6415 3.00514 26.6808 2.95791 26.7202C2.94216 26.732 2.93036 26.7477 2.91855 26.7595C2.52891 27.1374 2.19437 27.6018 1.88738 28.0859C1.33243 26.8619 0.923113 25.6064 0.62793 24.343C0.907369 24.2131 1.2301 24.1619 1.53316 24.0911C2.05268 23.9809 2.54859 23.6267 2.85951 23.178Z" fill="#768349"/>
<path d="M46.1413 34.0516C46.2121 33.603 46.7828 32.8866 47.0504 32.4576C47.263 32.127 47.5424 31.8043 47.5778 31.391C47.625 30.8873 47.4519 30.5016 47.3889 30.0135C47.3181 29.4507 47.692 29.0257 47.995 28.6045C48.3099 28.1755 48.4437 27.5773 48.3768 27.0381C48.2941 26.3651 47.9084 25.8101 47.9556 25.1135C47.9989 24.4838 48.483 23.9879 48.5539 23.3818C48.6169 22.8307 48.1406 22.3624 48.0619 21.8114C48.0147 21.4768 48.117 21.1384 48.2351 20.8235C48.487 20.1465 48.8097 19.5011 49.0813 18.8359C50.4076 20.4063 49.9078 23.1889 49.9078 26.3218C49.9078 30.2103 49.1246 31.2769 49.1246 31.2769C48.4673 32.804 47.5266 34.2169 46.3459 35.4803C46.3184 34.9844 46.0665 34.5515 46.1413 34.0516V34.0516Z" fill="#768349"/>
<path d="M45.5273 16.9284C45.5312 16.9284 45.5312 16.9245 45.5273 16.9284L10.125 1.21289C10.1171 1.21683 10.1092 1.2247 10.1014 1.22863C10.0738 1.24438 10.0463 1.26406 10.0148 1.28373C9.99511 1.29554 9.97937 1.30735 9.95969 1.31916C9.93214 1.33883 9.90065 1.35851 9.86917 1.37819C9.84555 1.39394 9.82194 1.41361 9.79832 1.42936C9.77077 1.44904 9.73929 1.47265 9.71174 1.49627C9.68419 1.51594 9.65664 1.5435 9.62908 1.56317L9.54643 1.63402C9.51495 1.66157 9.48346 1.69305 9.45197 1.7206C9.42442 1.74422 9.40081 1.76783 9.37326 1.79538C9.33784 1.83081 9.30635 1.86623 9.27093 1.90559C9.24732 1.9292 9.2237 1.95282 9.20009 1.98037C9.16073 2.02366 9.12531 2.07089 9.08988 2.11812C9.07021 2.14173 9.05446 2.16141 9.03478 2.18896C8.98362 2.26374 8.93245 2.33852 8.88129 2.42117C8.86948 2.44085 8.85374 2.4684 8.84193 2.48808C8.52707 3.03122 8.20434 3.74359 7.88947 4.57404C7.4959 5.60521 7.11413 6.82136 6.76384 8.12411C6.693 8.39567 6.61822 8.67118 6.55131 8.95062C6.50408 9.14741 6.45292 9.34419 6.40569 9.54492C6.13412 10.6981 5.8901 11.9379 5.70512 13.2052C5.60673 13.8743 5.52801 14.5512 5.47291 15.2282C5.37452 16.3971 5.3509 17.5582 5.41781 18.672C5.44929 19.1954 5.50046 19.711 5.57918 20.2069C5.58705 20.2542 5.59492 20.2974 5.60279 20.3447C5.81532 21.6553 6.11444 22.899 6.51195 24.064C6.78746 24.8669 7.11413 25.6304 7.48802 26.3507C8.06265 27.4527 8.75928 28.4524 9.5976 29.33C10.3454 30.1172 11.2034 30.8099 12.1913 31.3885C12.7777 31.7348 13.4074 32.0418 14.0883 32.3094C14.6354 32.522 15.1982 32.7069 15.7728 32.8604C16.9772 33.1832 18.2287 33.3721 19.5118 33.439C21.3262 33.5335 23.1996 33.3839 25.0731 33.0061C30.9492 31.8214 36.8292 28.4248 40.9854 23.5169C41.1074 23.3752 41.253 23.1824 41.4223 22.958C41.4734 22.8911 41.5285 22.8163 41.5797 22.7416C41.619 22.6904 41.6505 22.6432 41.6899 22.592C41.7607 22.4936 41.8355 22.3873 41.9142 22.2811C41.9378 22.2457 41.9614 22.2142 41.989 22.1787C42.0717 22.0607 42.1582 21.9387 42.2448 21.8127L42.3039 21.7301C42.5007 21.4506 42.7053 21.1515 42.91 20.8485C42.9297 20.817 42.9533 20.7855 42.9729 20.754C43.1658 20.4706 43.3586 20.1833 43.5515 19.8999C43.5869 19.8488 43.6223 19.7937 43.6578 19.7425C44.4528 18.5657 45.1809 17.4598 45.5273 16.9284V16.9284ZM15.0959 13.4531C14.3441 13.9609 13.2067 14.2678 12.4983 13.5082C11.7859 12.7486 12.4432 11.7608 13.2657 11.4065C13.9112 11.1232 14.6944 11.0917 15.3202 11.2609C16.7332 11.6387 15.8752 12.9257 15.0959 13.4531V13.4531ZM18.7443 18.4634C18.3232 19.2702 17.4731 20.081 16.4852 19.7504C15.4973 19.4198 15.6036 18.239 16.1585 17.5345C16.5915 16.9835 17.2724 16.5821 17.8981 16.4286C19.3229 16.0862 19.1773 17.6251 18.7443 18.4634ZM24.8487 23.0407C23.8805 23.4303 23.1957 22.4621 23.1603 21.5687C23.1288 20.8681 23.3767 20.1243 23.7585 19.6008C24.6165 18.4161 25.5139 19.6795 25.7264 20.5966C25.9311 21.4782 25.809 22.651 24.8487 23.0407ZM32.1023 21.5569C31.4411 22.3598 30.3745 21.8363 29.918 21.0689C29.5598 20.4667 29.426 19.6913 29.5126 19.0537C29.7015 17.6014 31.0908 18.2863 31.7127 18.9908C32.3109 19.6677 32.7636 20.754 32.1023 21.5569V21.5569Z" fill="url(#paint18_linear_1029_2331)"/>
<path d="M24.8486 23.0402C23.8804 23.4298 23.1956 22.4616 23.1602 21.5682C23.1287 20.8676 23.3766 20.1238 23.7584 19.6003C24.6164 18.4156 25.5137 19.679 25.7263 20.5961C25.9309 21.4777 25.8089 22.6505 24.8486 23.0402Z" fill="#242424"/>
<path d="M29.9179 21.0688C29.5598 20.4666 29.426 19.6912 29.5125 19.0536C29.7015 17.6013 31.0908 18.2862 31.7126 18.9907C32.3109 19.6676 32.7635 20.7539 32.1023 21.5568C31.4411 22.3597 30.3745 21.8362 29.9179 21.0688V21.0688Z" fill="#242424"/>
<path d="M15.0956 13.4519C14.3438 13.9597 13.2064 14.2666 12.4979 13.507C11.7856 12.7474 12.4428 11.7596 13.2654 11.4053C13.9109 11.122 14.6941 11.0905 15.3199 11.2597C16.7328 11.6375 15.8748 12.9245 15.0956 13.4519Z" fill="#242424"/>
<path d="M16.4851 19.7496C15.4972 19.419 15.6035 18.2383 16.1584 17.5338C16.5914 16.9827 17.2723 16.5813 17.8981 16.4278C19.3228 16.0854 19.1772 17.6243 18.7442 18.4626C18.3231 19.2694 17.473 20.0802 16.4851 19.7496Z" fill="#242424"/>
<path d="M29.7644 39.8299C29.792 39.5544 29.8352 39.271 29.91 39.0034C30.4728 37.1103 32.6651 37.2795 31.5355 34.7016C31.5158 34.6543 31.4922 34.6032 31.4765 34.552C31.5434 34.5284 31.6024 34.5048 31.6693 34.4812C32.606 34.127 33.5034 33.7019 34.3614 33.2296C34.7117 33.0367 35.062 32.84 35.4004 32.6314C35.4359 32.6077 35.4713 32.5881 35.5067 32.5645C35.5697 33.1548 35.6326 33.9262 35.5893 34.6858C35.5342 35.5871 35.3257 36.4648 34.7707 36.9804C34.3535 37.37 33.8301 37.7439 33.7317 38.3422C33.6805 38.657 33.6805 38.9798 33.6884 39.2986C33.6923 39.5032 32.9051 41.2664 32.9051 41.475C32.9012 41.7073 32.488 41.8371 32.0314 41.9237C31.0199 42.026 29.9809 42.0851 28.9182 42.089C29.0796 41.6049 29.7408 40.07 29.7644 39.8299Z" fill="#768349"/>
<path d="M2.75703 15.8423C2.82 15.126 2.90265 14.4136 3.00892 13.713C3.15454 12.7212 3.33165 11.7491 3.53631 10.8045C3.57961 10.6077 3.6229 10.407 3.67013 10.2141C3.81969 9.5726 3.98106 8.94288 4.15423 8.33677C4.51632 7.05371 4.90596 5.88479 5.25231 4.94807C5.45697 4.39313 5.64589 3.92083 5.80725 3.55481C6.00404 3.09826 6.22838 2.64565 6.46059 2.23239C6.72429 1.76403 7.00766 1.34684 7.2871 1.02804C7.6059 0.701374 7.95619 0.465228 8.31828 0.414062L10.1287 1.21696C10.1209 1.2209 10.113 1.22877 10.1051 1.2327C10.0776 1.24845 10.05 1.26812 10.0185 1.2878C9.99885 1.29961 9.98311 1.31142 9.96343 1.32323C9.93588 1.3429 9.90439 1.36258 9.87291 1.38226C9.84929 1.39801 9.82568 1.41768 9.80206 1.43343C9.77451 1.45311 9.74303 1.47672 9.71548 1.50034C9.68792 1.52001 9.66037 1.54756 9.63282 1.56724C9.60527 1.59086 9.57772 1.61054 9.55017 1.63809C9.51869 1.66564 9.4872 1.69712 9.45571 1.72467C9.42816 1.74829 9.40455 1.7719 9.377 1.79945C9.34158 1.83488 9.31009 1.8703 9.27467 1.90966C9.25105 1.93327 9.22744 1.95688 9.20383 1.98444C9.16447 2.02773 9.12905 2.07496 9.09362 2.12219C9.07394 2.1458 9.0582 2.16548 9.03852 2.19303C8.98736 2.26781 8.93619 2.34259 8.88503 2.42524C8.87322 2.44492 8.85748 2.47247 8.84567 2.49215C8.53081 3.03529 8.20808 3.74766 7.89321 4.57811C7.49964 5.60928 7.11787 6.82543 6.76758 8.12817C6.69674 8.39974 6.62196 8.67525 6.55505 8.95469C6.50782 9.15147 6.45666 9.34826 6.40943 9.54899C6.13786 10.7022 5.89384 11.9419 5.70886 13.2093C5.61047 13.8783 5.53175 14.5553 5.47665 15.2322C5.37825 16.4012 5.35464 17.5622 5.42155 18.676C5.45303 19.1995 5.5042 19.7151 5.58292 20.211C5.59079 20.2582 5.59866 20.3015 5.60653 20.3487C5.81906 21.6594 6.11818 22.9031 6.51569 24.068C6.7912 24.8709 7.11787 25.6345 7.49176 26.3547C8.06639 27.4568 8.76302 28.4564 9.60134 29.3341C10.3491 30.1213 11.2071 30.814 12.195 31.3925C12.7814 31.7389 13.4112 32.0459 14.0921 32.3135C14.6391 32.526 15.2019 32.711 15.7766 32.8645C16.9809 33.1872 18.2325 33.3761 19.5155 33.4431C21.3299 33.5375 23.2034 33.388 25.0768 33.0101C30.9529 31.8255 36.8329 28.4289 40.9891 23.521C41.1111 23.3793 41.2567 23.1864 41.426 22.9621C41.4772 22.8952 41.5323 22.8204 41.5834 22.7456C41.6228 22.6945 41.6543 22.6472 41.6936 22.5961C41.7645 22.4977 41.8392 22.3914 41.918 22.2851C41.9416 22.2497 41.9652 22.2182 41.9927 22.1828C42.0754 22.0647 42.162 21.9427 42.2486 21.8168L42.3076 21.7341C42.5044 21.4547 42.709 21.1556 42.9137 20.8525C42.9334 20.821 42.957 20.7896 42.9767 20.7581C43.1695 20.4747 43.3624 20.1874 43.5552 19.904C43.5907 19.8528 43.6261 19.7977 43.6615 19.7466C44.4526 18.5737 45.1807 17.4678 45.5271 16.9364C45.5271 16.9364 45.5271 16.9325 45.531 16.9325L47.7626 17.9243C47.8413 17.9558 47.9043 17.9952 47.9751 18.0266C48.0223 18.0503 48.0696 18.0699 48.1129 18.0935C48.1129 18.1014 48.0893 18.1526 48.042 18.2313C47.6603 18.8177 47.3257 19.4002 47.184 19.6679C46.9597 20.0418 46.7865 20.3369 46.7983 20.3448C46.8023 20.3448 46.8062 20.3487 46.8141 20.3527C46.4362 21.0139 45.7435 22.171 44.7478 23.5643C43.8898 24.7686 42.8074 26.1461 41.5126 27.5355C39.8517 29.3184 37.8405 31.117 35.5066 32.5733C35.4712 32.5969 35.4357 32.6165 35.4003 32.6402C35.0618 32.8488 34.7155 33.0455 34.3613 33.2384C33.5033 33.7107 32.6059 34.1358 31.6692 34.49C31.6023 34.5136 31.5433 34.5372 31.4764 34.5608C30.3232 34.9938 29.2408 35.3716 28.2097 35.6983C26.7889 36.1469 25.4704 36.4933 24.2267 36.7373C22.8924 36.9971 21.6448 37.1427 20.4523 37.1663C18.8622 37.1978 17.3666 37.0167 15.8828 36.6192C15.1626 36.4264 14.4463 36.1902 13.7221 35.899C13.4427 35.7652 13.1632 35.6274 12.8838 35.4897C12.7932 35.4464 12.7027 35.4031 12.6122 35.3558C11.4826 34.7812 10.479 34.1515 9.57379 33.4745C8.73153 32.8488 7.98374 32.1797 7.31859 31.4791C6.57867 30.6959 5.93713 29.8772 5.39793 29.0232C4.84693 28.1534 4.39431 27.256 4.02435 26.3311C3.57961 25.2134 3.25294 24.0641 3.03254 22.8952C2.8082 21.7027 2.68619 20.4944 2.65077 19.2822C2.61928 18.1211 2.65864 16.9758 2.75703 15.8423V15.8423Z" fill="url(#paint19_linear_1029_2331)"/>
<defs>
<linearGradient id="paint0_linear_1029_2331" x1="49.998" y1="15.3199" x2="-0.00197575" y2="15.3199" gradientUnits="userSpaceOnUse">
<stop stop-color="#87B053"/>
<stop offset="1" stop-color="#768349"/>
</linearGradient>
<linearGradient id="paint1_linear_1029_2331" x1="49.9979" y1="9.45931" x2="-0.0020197" y2="9.45931" gradientUnits="userSpaceOnUse">
<stop stop-color="#87B053"/>
<stop offset="1" stop-color="#768349"/>
</linearGradient>
<linearGradient id="paint2_linear_1029_2331" x1="49.9981" y1="3.48625" x2="-0.00186605" y2="3.48625" gradientUnits="userSpaceOnUse">
<stop stop-color="#87B053"/>
<stop offset="1" stop-color="#768349"/>
</linearGradient>
<linearGradient id="paint3_linear_1029_2331" x1="49.9979" y1="21.8039" x2="-0.00203404" y2="21.8039" gradientUnits="userSpaceOnUse">
<stop stop-color="#87B053"/>
<stop offset="1" stop-color="#768349"/>
</linearGradient>
<linearGradient id="paint4_linear_1029_2331" x1="49.9981" y1="28.3445" x2="-0.00190536" y2="28.3445" gradientUnits="userSpaceOnUse">
<stop stop-color="#87B053"/>
<stop offset="1" stop-color="#768349"/>
</linearGradient>
<linearGradient id="paint5_linear_1029_2331" x1="49.9982" y1="38.9758" x2="-0.00175389" y2="38.9758" gradientUnits="userSpaceOnUse">
<stop stop-color="#87B053"/>
<stop offset="1" stop-color="#768349"/>
</linearGradient>
<linearGradient id="paint6_linear_1029_2331" x1="49.9981" y1="33.4059" x2="-0.00188056" y2="33.4059" gradientUnits="userSpaceOnUse">
<stop stop-color="#87B053"/>
<stop offset="1" stop-color="#768349"/>
</linearGradient>
<linearGradient id="paint7_linear_1029_2331" x1="49.9982" y1="37.0233" x2="-0.00180178" y2="37.0233" gradientUnits="userSpaceOnUse">
<stop stop-color="#87B053"/>
<stop offset="1" stop-color="#768349"/>
</linearGradient>
<linearGradient id="paint8_linear_1029_2331" x1="49.9981" y1="28.5917" x2="-0.00184479" y2="28.5917" gradientUnits="userSpaceOnUse">
<stop stop-color="#87B053"/>
<stop offset="1" stop-color="#768349"/>
</linearGradient>
<linearGradient id="paint9_linear_1029_2331" x1="49.9982" y1="34.7259" x2="-0.00174375" y2="34.7259" gradientUnits="userSpaceOnUse">
<stop stop-color="#87B053"/>
<stop offset="1" stop-color="#768349"/>
</linearGradient>
<linearGradient id="paint10_linear_1029_2331" x1="49.9982" y1="38.3232" x2="-0.00175642" y2="38.3232" gradientUnits="userSpaceOnUse">
<stop stop-color="#87B053"/>
<stop offset="1" stop-color="#768349"/>
</linearGradient>
<linearGradient id="paint11_linear_1029_2331" x1="49.9979" y1="19.8193" x2="-0.00147013" y2="19.8193" gradientUnits="userSpaceOnUse">
<stop stop-color="#87B053"/>
<stop offset="1" stop-color="#768349"/>
</linearGradient>
<linearGradient id="paint12_linear_1029_2331" x1="49.9982" y1="23.2318" x2="-0.00179262" y2="23.2318" gradientUnits="userSpaceOnUse">
<stop stop-color="#87B053"/>
<stop offset="1" stop-color="#768349"/>
</linearGradient>
<linearGradient id="paint13_linear_1029_2331" x1="49.9981" y1="22.6619" x2="-0.00168541" y2="22.6619" gradientUnits="userSpaceOnUse">
<stop stop-color="#87B053"/>
<stop offset="1" stop-color="#768349"/>
</linearGradient>
<linearGradient id="paint14_linear_1029_2331" x1="49.9981" y1="21.7655" x2="-0.0024037" y2="21.7655" gradientUnits="userSpaceOnUse">
<stop stop-color="#87B053"/>
<stop offset="1" stop-color="#768349"/>
</linearGradient>
<linearGradient id="paint15_linear_1029_2331" x1="49.9983" y1="20.7996" x2="-0.00282127" y2="20.7996" gradientUnits="userSpaceOnUse">
<stop stop-color="#87B053"/>
<stop offset="1" stop-color="#768349"/>
</linearGradient>
<linearGradient id="paint16_linear_1029_2331" x1="49.9981" y1="22.2242" x2="-0.00247781" y2="22.2242" gradientUnits="userSpaceOnUse">
<stop stop-color="#87B053"/>
<stop offset="1" stop-color="#768349"/>
</linearGradient>
<linearGradient id="paint17_linear_1029_2331" x1="49.9981" y1="18.9421" x2="-0.00192362" y2="18.9421" gradientUnits="userSpaceOnUse">
<stop stop-color="#87B053"/>
<stop offset="1" stop-color="#768349"/>
</linearGradient>
<linearGradient id="paint18_linear_1029_2331" x1="45.5296" y1="17.3385" x2="5.38239" y2="17.3385" gradientUnits="userSpaceOnUse">
<stop stop-color="#EE736F"/>
<stop offset="1" stop-color="#FF1744"/>
</linearGradient>
<linearGradient id="paint19_linear_1029_2331" x1="48.1151" y1="18.787" x2="2.63896" y2="18.787" gradientUnits="userSpaceOnUse">
<stop stop-color="#FFF9C4"/>
<stop offset="1" stop-color="#DCD9B3"/>
</linearGradient>
</defs>
</svg>
