<svg width="50" height="48" viewBox="0 0 50 48" fill="none" xmlns="http://www.w3.org/2000/svg">
<path d="M26.6882 1.04641L32.2969 13.8388C32.7261 14.818 33.6553 15.4888 34.722 15.5847L48.3852 16.8098C49.9312 17.0348 50.5479 18.9307 49.427 20.0224L39.1347 28.6687C38.3014 29.3688 37.9222 30.4688 38.1514 31.5314L41.1432 45.5363C41.4057 47.0739 39.7931 48.2489 38.4097 47.5197L26.4841 40.536C25.5674 39.9985 24.434 39.9985 23.5172 40.536L11.5916 47.5156C10.2124 48.2406 8.59562 47.0697 8.85813 45.5321L11.85 31.5272C12.075 30.4646 11.6999 29.3646 10.8666 28.6646L0.570191 20.0266C-0.546536 18.939 0.0701639 17.0389 1.61191 16.8139L15.2751 15.5889C16.3419 15.493 17.2711 14.8221 17.7003 13.8429L23.3089 1.05058C24.0048 -0.349497 25.9965 -0.349497 26.6882 1.04641V1.04641Z" fill="#FDD835"/>
<path d="M26.28 14.6064L25.33 5.18094C25.2925 4.65591 25.1841 3.75586 26.0259 3.75586C26.6926 3.75586 27.0551 5.14343 27.0551 5.14343L29.9052 12.7105C30.9803 15.5898 30.5386 16.5774 29.501 17.1607C28.3093 17.8274 26.5509 17.3066 26.28 14.6064V14.6064Z" fill="#FFFF8D"/>
<path d="M38.0345 27.8309L46.2099 21.4514C46.6141 21.1139 47.3433 20.5763 46.7599 19.9638C46.2974 19.4804 45.0473 20.1763 45.0473 20.1763L37.8928 22.9723C35.7593 23.7098 34.3426 24.8016 34.2176 26.1766C34.0551 28.0101 35.701 29.4226 38.0345 27.8309Z" fill="#F4B400"/>
</svg>
