<svg width="50" height="94" viewBox="0 0 50 94" fill="none" xmlns="http://www.w3.org/2000/svg">
<path d="M41.044 5.49023H9.01817C9.01817 5.49023 0 20.07 0 36.615C0 59.1643 23.6756 59.4672 24.9417 59.4672H24.9961C24.9961 59.4672 25.0117 59.4672 25.0505 59.4672C26.3244 59.4672 50 59.1643 50 36.615C49.9922 20.07 41.044 5.49023 41.044 5.49023V5.49023Z" fill="url(#paint0_linear_1029_2867)"/>
<path d="M32.0881 84.3096C29.7811 83.3231 27.2022 81.9638 27.1945 79.0975C27.1945 78.3052 27.1945 60.1912 27.311 59.43C27.3188 59.3989 27.3187 59.3678 27.3187 59.3368C26.0915 59.4533 25.2526 59.461 25.0428 59.461H24.9885C24.9885 59.461 24.9729 59.461 24.9341 59.461C24.6467 59.461 23.1631 59.4377 21.0736 59.1426C21.0969 59.2902 21.1124 59.43 21.1124 59.5543V78.546C21.1124 79.4393 20.794 80.2316 20.2891 80.9384C18.9064 82.857 16.4674 83.6416 14.409 84.5737C13.0186 85.2029 9.5931 86.6632 9.79506 88.6051C10.0359 90.9586 14.1449 91.9451 15.9159 92.349C18.0908 92.8462 20.3124 93.0171 22.5417 93.0171C24.5302 93.0171 26.5109 92.8772 28.4761 92.7297C30.2471 92.5898 32.0647 92.318 33.7814 91.8675C35.032 91.549 38.0458 90.78 38.4575 89.3042C39.2187 86.5933 33.7736 85.0397 32.0881 84.3096V84.3096Z" fill="url(#paint1_linear_1029_2867)"/>
<path d="M42.6753 31.5449C38.3798 33.1295 34.0998 32.881 29.7966 31.4906C25.6409 30.139 21.6562 28.3602 17.2908 27.8942C14.4867 27.5912 11.6204 27.8942 8.97945 28.9816C7.04532 29.7739 5.09565 30.2633 4.00819 32.1974C3.10715 33.7975 3.54213 36.6871 3.76739 38.4503C4.21015 41.837 5.41412 45.0994 7.5036 47.7559C10.7272 51.8339 15.5974 54.0476 20.4833 54.972C21.9669 55.2516 23.4738 55.4303 24.9807 55.438C26.2546 55.4613 27.5518 55.2905 28.7946 55.0807C33.5328 54.304 38.2944 52.3543 41.6577 48.688C43.8249 46.3267 45.2386 43.3517 45.9144 40.1747C46.3493 38.0775 46.4892 35.9025 46.396 33.7587C46.3649 32.78 46.2251 32.2207 45.5104 31.5061C44.9279 30.9701 43.6695 31.1798 42.6753 31.5449V31.5449Z" fill="url(#paint2_linear_1029_2867)"/>
<path d="M40.6322 32.1721C25.5165 34.9218 12.9796 39.5047 5.95768 35.9471C0.916508 33.3916 5.39841 29.4068 9.95798 28.1096C20.9724 24.956 36.8261 32.4828 40.6322 32.1721V32.1721Z" fill="#8F261B"/>
<path d="M25.0274 0C16.0481 0 8.7854 2.43902 8.7854 6.79664C8.7854 11.162 16.0559 13.5855 25.0274 13.5855C33.999 13.5855 41.2772 11.162 41.2772 6.79664C41.2772 2.43126 34.0068 0 25.0274 0V0Z" fill="#B8D0D0"/>
<path d="M24.965 1.70117C17.4149 1.70117 11.3018 3.52656 11.3018 6.79671C11.3018 10.0669 17.4226 11.8845 24.965 11.8845C32.5073 11.8845 38.6359 10.0669 38.6359 6.79671C38.6359 3.52656 32.5151 1.70117 24.965 1.70117V1.70117Z" fill="url(#paint3_linear_1029_2867)"/>
<path opacity="0.6" d="M15.1624 88.668C15.1624 88.668 19.5433 90.6254 26.0681 89.9962" stroke="white" stroke-width="2.35489" stroke-miterlimit="10" stroke-linecap="round"/>
<path opacity="0.6" d="M11.263 10.6562C9.42989 14.3536 5.95778 22.3931 5.64708 30.7666C5.60047 31.9705 6.40053 33.0425 7.55791 33.3687L9.81051 33.9435C11.3174 34.3629 12.8554 33.3765 13.0962 31.8307C13.7875 27.2401 15.4342 18.3306 18.316 13.0642C15.3954 12.5826 12.9486 11.7748 11.263 10.6562V10.6562Z" fill="white"/>
<defs>
<linearGradient id="paint0_linear_1029_2867" x1="-0.00155352" y1="32.4826" x2="49.993" y2="32.4826" gradientUnits="userSpaceOnUse">
<stop stop-color="#BDD4D6"/>
<stop offset="0.5074" stop-color="#D4E9EC"/>
<stop offset="1" stop-color="#B8D0D2"/>
</linearGradient>
<linearGradient id="paint1_linear_1029_2867" x1="24.162" y1="93.0404" x2="24.162" y2="59.1566" gradientUnits="userSpaceOnUse">
<stop stop-color="#D4E9EC"/>
<stop offset="1" stop-color="#B8D0D2"/>
</linearGradient>
<linearGradient id="paint2_linear_1029_2867" x1="24.9457" y1="55.4489" x2="24.9457" y2="27.7862" gradientUnits="userSpaceOnUse">
<stop stop-color="#94271D"/>
<stop offset="0.0083422" stop-color="#95281E"/>
<stop offset="0.1701" stop-color="#A93127"/>
<stop offset="0.356" stop-color="#B7372D"/>
<stop offset="0.5874" stop-color="#BF3B31"/>
<stop offset="1" stop-color="#C13C32"/>
</linearGradient>
<linearGradient id="paint3_linear_1029_2867" x1="24.9681" y1="11.8814" x2="24.9681" y2="1.69939" gradientUnits="userSpaceOnUse">
<stop stop-color="#D4E9EC"/>
<stop offset="1" stop-color="#B8D0D2"/>
</linearGradient>
</defs>
</svg>
