<svg width="50" height="70" viewBox="0 0 50 70" fill="none" xmlns="http://www.w3.org/2000/svg">
<path d="M24.2317 3.45212C22.6358 1.04075 19.7468 -0.263948 16.6947 0.0447532C13.6427 0.353454 11.0741 2.21731 9.99068 4.90243C9.33251 6.53913 9.11118 8.49618 9.32668 10.8959C9.52472 13.1558 9.4257 13.7499 7.89967 14.8799C5.64557 16.5632 4.73111 18.8755 5.5116 20.9199C6.25132 22.8653 8.33068 24.0477 10.911 24.0477C11.1614 24.0477 11.4177 24.0361 11.6798 24.0128C17.1316 23.5352 21.1272 21.0539 23.5619 16.6389C23.626 16.5282 23.6726 16.4409 23.7075 16.3768C25.8335 12.952 26.7479 7.25555 24.2317 3.45212V3.45212Z" fill="#543930"/>
<path d="M25.5944 11.0527C25.4022 13.1845 24.2315 15.5435 23.7015 16.3822C23.6665 16.4463 23.6199 16.5336 23.5558 16.6443C21.1212 21.0593 17.1255 23.5406 11.6738 24.0182C11.4175 24.0415 11.1612 24.0531 10.9107 24.0531C8.32463 24.0531 6.16955 22.8999 5.51137 20.9254C4.61439 18.2344 6.32099 16.0851 7.36358 15.3221C8.96533 14.1514 9.60603 13.5864 9.37888 11.309C10.6836 19.9527 25.2217 13.2428 25.5362 11.443C25.5595 11.3148 25.5828 11.1809 25.5944 11.0527V11.0527Z" fill="url(#paint0_radial_1029_1958)"/>
<path d="M26.4393 16.8965C25.3851 17.5372 24.0396 17.776 22.9853 17.776C22.63 17.776 22.3039 17.7469 22.0418 17.7003C20.9759 17.5022 19.9973 17.4207 19.1004 17.4207C14.0446 17.4207 11.5692 20.0476 11.5692 20.0476L15.0115 25.4062C16.6773 25.9187 18.4131 26.2041 19.9216 26.2041C20.6788 26.2041 21.3778 26.1342 21.9893 25.9828C25.4491 25.1266 27.0975 22.523 27.0975 22.523L26.4393 16.8965Z" fill="url(#paint1_linear_1029_1958)"/>
<path d="M36.038 13.4867H36.0438C34.8148 9.78814 32.9102 7.73207 31.7045 4.83144C31.687 4.77902 31.6696 4.74408 31.6521 4.69165C31.8967 4.47032 32.1588 4.22569 32.4792 3.92281C32.4792 3.92281 34.1508 2.1172 35.3973 1.17945C35.6535 0.981415 35.5312 0.486328 35.1643 0.486328H35.1293C34.2615 0.65524 32.2054 2.41425 32.2054 2.41425C32.1122 2.14633 31.92 2.04731 31.7103 2.04731C31.39 2.04731 31.0114 2.26864 30.7784 2.4725L29.0019 4.0393C28.5126 4.47032 28.4952 5.04113 28.7282 5.45467C28.7456 5.53622 28.7689 5.62358 28.8039 5.7226L30.7726 11.6753C30.9706 12.2985 31.1512 12.9334 31.3143 13.5683C29.1883 15.071 24.2782 17.9425 24.2782 17.9425C24.2782 17.9425 25.6528 22.2876 26.1362 22.2876H26.1654C26.7944 22.2876 27.9011 21.9265 28.3903 21.5421C31.1279 19.4161 33.9994 17.0747 35.339 15.968L35.3332 15.9738C35.6768 15.7117 35.9448 15.3622 36.0846 14.9196C36.2418 14.4303 36.2069 13.9352 36.038 13.4867V13.4867Z" fill="url(#paint2_linear_1029_1958)"/>
<path d="M14.3881 34.7766C14.3823 34.7592 14.3707 34.7475 14.359 34.7301L14.1202 34.9048C14.1144 34.899 14.1144 34.899 14.1144 34.8931L14.359 34.7301C14.3415 34.7009 14.3241 34.6776 14.3008 34.6485C14.2775 34.6136 14.2483 34.5844 14.2192 34.5553C14.1843 34.5087 14.1552 34.4738 14.1086 34.4213L9.86245 29.8083C9.58287 29.4996 9.32077 29.1793 9.05284 28.8589C11.1206 27.0242 15.0871 24.0012 15.0871 24.0012C15.0871 24.0012 13.2057 19.959 12.7107 19.959H12.699C12.0758 19.959 11.0099 20.5007 10.5672 20.9492C8.12091 23.4071 5.57558 26.0748 4.38737 27.3445L4.3932 27.327C4.09032 27.6299 3.86899 28.0085 3.78162 28.4628C3.65348 29.1618 3.88064 29.8316 4.3233 30.315H4.31748L4.38155 30.3791C4.38737 30.3849 4.3932 30.3966 4.40485 30.4024C7.01425 33.1982 9.46056 34.2408 11.7321 36.3726C11.8137 36.4541 11.8952 36.5182 11.9826 36.5706C11.9127 36.9084 11.837 37.287 11.7554 37.7472C11.7554 37.7472 11.4759 40.1877 11.0274 41.6846C10.9516 41.9292 11.173 42.1797 11.4118 42.1797C11.4933 42.1797 11.5749 42.1505 11.6448 42.0865C12.2447 41.4399 12.8621 38.8014 12.8621 38.8014C12.9728 38.8771 13.0834 38.9121 13.1824 38.9121C13.6018 38.9121 13.893 38.318 13.9804 37.9103L14.4871 35.5979C14.5163 35.4523 14.5221 35.3183 14.5104 35.196C14.5221 35.0679 14.4813 34.9281 14.3881 34.7766V34.7766Z" fill="url(#paint3_linear_1029_1958)"/>
<path d="M41.3557 36.2969L41.3674 36.524C41.5071 36.4017 41.5072 36.3085 41.3557 36.2969Z" fill="url(#paint4_linear_1029_1958)"/>
<path d="M41.3675 36.5243C40.6278 37.1941 35.9449 38.8833 29.9223 35.5341C27.5925 34.2411 26.148 32.4005 25.8393 30.2862C25.5306 28.1719 26.9168 26.809 27.0624 24.8985C27.109 24.2694 27.0508 23.7452 26.9168 23.3026C27.8138 22.8716 28.8448 22.0212 28.8506 21.8115C28.8913 20.9553 28.4545 20.1515 27.9944 19.4351C27.4993 18.6604 26.9401 17.9149 26.2004 17.3732C26.0082 17.2334 25.5772 16.9771 25.3442 17.047C23.3988 17.6295 23.0318 17.5887 21.3311 17.5887L20.8069 17.5246C21.7271 18.5905 23.9114 23.2735 21.797 24.2578C19.6827 25.2421 15.0639 18.0488 15.0639 18.0488C13.631 18.4449 10.643 20.1631 9.22184 21.8173C9.13447 21.9163 9.27426 22.0794 9.33833 22.1959C10.0664 23.5763 11.3478 24.9393 12.571 25.912C12.6991 26.0168 12.8389 26.1217 12.9961 26.1508C13.1359 26.1799 13.631 25.8596 13.9805 25.6091C14.7785 26.5294 15.5007 27.4031 15.9317 28.003C16.421 28.6087 17.714 30.9211 17.2422 32.8257C13.8174 40.0249 17.0908 41.4228 17.4578 43.9331C18.2091 49.0879 12.1924 61.7563 1.99939 61.7563L6.80465 64.5229L15.9317 63.923L20.9758 59.5837L27.907 58.5469L30.3533 53.532L32.7821 46.7522L41.618 40.9277L41.3675 36.5243Z" fill="url(#paint5_linear_1029_1958)"/>
<path d="M17.5743 53.4922C16.7588 53.9698 15.9026 54.861 15.0231 56.3462C14.2601 57.6334 12.4428 60.901 11.0391 61.1689C9.72859 61.4194 7.89968 60.8137 7.2415 59.6138L6.96192 59.1071L5.94263 59.6662L6.22221 60.1788C7.00852 61.6174 8.73841 62.2698 10.2936 62.2698C10.6256 62.2698 10.9459 62.2407 11.2488 62.1824C13.2524 61.798 14.7843 58.676 15.5415 57.3655C16.1006 56.3986 16.6656 55.723 17.2423 55.2629C17.1898 54.6979 17.3122 54.0863 17.5743 53.4922V53.4922Z" fill="#FF8F00"/>
<path d="M29.6719 38.2133C30.9359 38.1434 32.0775 38.522 32.0775 38.522L31.6406 38.2308C30.9592 37.9046 29.4914 37.1649 28.1925 37.2581C28.6235 37.7823 29.1943 37.9803 29.6719 38.2133Z" fill="#FF8F00"/>
<path d="M24.8725 46.7519C26.0432 49.4836 28.1808 54.2306 26.2296 55.5878C25.8394 55.8615 24.9831 55.7217 23.8532 55.1276C22.9853 54.6733 22.0301 53.9278 20.9991 53.456C21.1389 53.9161 21.2671 54.3821 21.3137 54.8364C22.1349 55.1626 22.9154 55.6227 23.6318 56.0013C24.9249 56.6828 25.9617 57.0381 26.9518 56.1877C29.4564 54.0384 27.0567 50.3864 25.8918 47.4625C24.7676 44.6492 24.8666 42.5932 25.7578 40.9856C25.2802 40.8516 24.8317 40.6885 24.4007 40.5371C23.6784 42.4184 23.9813 44.6725 24.8725 46.7519V46.7519Z" fill="#FF8F00"/>
<path d="M27.6391 38.8887C28.2332 38.4285 28.9729 38.2538 29.6719 38.213C29.1885 37.9801 28.6235 37.782 28.1983 37.2578C27.8779 37.2811 27.5634 37.351 27.278 37.4966C25.7927 38.248 24.8841 39.3139 24.4065 40.537C24.8317 40.6885 25.286 40.8516 25.7636 40.9855C26.2063 40.1876 26.847 39.5003 27.6391 38.8887V38.8887Z" fill="#FFB600"/>
<path d="M17.574 53.491C17.3061 54.0851 17.1896 54.7025 17.2362 55.2617C18.6108 54.1609 20.0087 54.3181 21.3134 54.8365C21.261 54.3822 21.1387 53.9162 20.9989 53.4561C19.9388 52.9668 18.7972 52.7746 17.574 53.491Z" fill="#FFB600"/>
<path d="M36.0846 40.5256V40.2402C37.8727 39.9082 37.3194 37.5551 37.2553 37.1648L38.3678 36.9668C38.4028 37.1823 38.7522 39.0753 37.7795 40.1062C37.5 40.4033 36.0846 40.5431 36.0846 40.5256Z" fill="#FF8F00"/>
<path d="M43.6041 34.7539C46.8367 34.3578 49.3413 37.8002 48.1647 40.858C47.7745 41.8657 47.0581 42.4714 46.2776 42.7743C46.2717 42.7801 46.2601 42.7801 46.2543 42.786C45.6543 43.0306 45.7242 43.9276 46.3475 44.1081C46.8192 44.2479 47.5939 43.7703 48.3919 44.213C49.3005 44.7139 50.0227 45.4944 49.9995 46.9156C49.9703 48.5232 49.2947 50.0841 47.8094 50.4802C45.5903 51.0627 45.1185 53.0721 45.0428 55.5709C45.0136 56.5727 44.7574 58.1453 43.4993 59.0132C39.1949 61.9895 36.4108 57.8774 33.1199 59.6422C27.4293 62.6885 30.9473 69.0198 16.6131 64.7737C13.1999 63.766 7.54429 70.8894 2.64002 67.9131C-1.26243 65.5425 -0.0916991 62.636 1.42268 61.6109C4.4631 59.5665 4.96401 63.7369 11.7613 63.3583C15.2909 63.1603 14.4406 57.2134 19.1876 55.7864C22.9328 54.6622 24.4763 60.0266 27.3419 57.5337C31.856 53.6022 25.3033 47.4864 27.0507 43.118C28.1341 40.4037 30.3998 38.8952 32.7297 39.4776C35.0595 40.0601 34.8673 41.854 36.37 42.2909C38.0183 42.7743 39.026 41.1551 39.3813 39.9611C39.9754 37.9632 40.4006 35.15 43.6041 34.7539V34.7539Z" fill="url(#paint6_radial_1029_1958)"/>
<path d="M44.9553 64.5694C45.8989 65.1635 47.7453 67.004 48.252 67.9942C48.3976 68.2796 48.5316 68.9727 48.3394 69.2232C48.1763 69.4329 44.5243 69.6484 41.9032 68.1631C41.6761 68.035 41.3849 67.5574 41.2917 67.371C41.1169 67.0215 40.8548 66.9807 40.814 67.3477C40.4704 67.3302 40.2258 67.3593 39.8821 67.3419C39.6375 64.9596 39.2298 65.2217 39.2705 63.5501C39.3055 62.193 40.2374 61.9017 40.6044 61.7619C40.6626 61.7386 43.5632 63.5443 44.9553 64.5694V64.5694Z" fill="#DD2C00"/>
<path d="M44.9787 63.4334C44.4661 62.2102 43.9478 60.9812 43.4352 59.7581C41.3966 54.9004 40.4589 52.7919 38.1815 48.0391C37.9659 47.5673 37.5641 47.3867 37.0923 47.3867C36.4283 47.3867 35.6186 47.742 34.9546 48.1497C33.7723 48.8778 32.7064 49.5593 33.5276 50.864C35.176 53.4676 38.8746 57.6962 40.1502 60.5036C40.8491 62.0413 40.8491 63.6663 41.9732 64.9186C42.4741 65.4778 42.8353 65.8564 43.575 65.9845C43.8254 66.0311 44.0817 66.0602 44.3205 66.0602C44.8564 66.0602 45.3049 65.903 45.3981 65.3904C45.4854 64.9186 45.1651 63.876 44.9787 63.4334V63.4334Z" fill="url(#paint7_linear_1029_1958)"/>
<path d="M21.5757 67.9298C21.3311 66.4503 20.0847 64.0215 18.7392 64.0215C17.3937 64.0215 16.0366 66.4503 15.792 67.9298C15.757 68.1278 15.7454 68.7685 15.7454 68.9258C15.7454 68.9316 15.7512 68.9374 15.7512 68.9374C15.7628 69.1587 16.0016 69.4616 16.3395 69.4616C17.1549 69.4616 17.9179 69.4616 18.6751 69.4674C19.4323 69.4674 20.1953 69.4616 21.0108 69.4616C21.3661 69.4616 21.6107 69.1296 21.599 68.9083V68.9025C21.599 68.751 21.6049 68.122 21.5757 67.9298V67.9298Z" fill="#B41301"/>
<path d="M20.0962 59.9277C19.3915 59.9277 18.7624 60.0908 18.6692 60.4403C18.4537 61.2616 17.813 63.4108 17.5975 64.5932C17.2655 65.7581 17.6732 66.195 18.8614 66.4163C18.9896 66.4396 19.1061 66.4512 19.2167 66.4512C19.9914 66.4512 20.3176 65.863 20.5797 64.9718L22.1989 60.9878C22.4086 60.3063 21.168 59.9277 20.0962 59.9277V59.9277Z" fill="#EDA600"/>
<path d="M20.1312 16.5391L16.6714 16.8419L16.8403 18.7407C16.9102 19.5504 17.5975 20.1619 18.4071 20.1619C18.4537 20.1619 18.5003 20.1619 18.5469 20.1561L18.8614 20.127C19.7293 20.0513 20.37 19.2941 20.2943 18.432L20.1312 16.5391Z" fill="#E59600"/>
<path d="M24.1441 9.64327C23.7131 4.77977 20.8125 2.57227 17.7371 2.57227C17.5507 2.57227 17.3585 2.57809 17.1663 2.59556C13.8929 2.88097 11.0738 5.58356 11.5281 10.7441C11.8893 14.897 14.6792 17.122 16.9857 17.7161C17.4109 17.8268 17.8187 17.8792 18.1914 17.8792C18.2963 17.8792 18.4011 17.8734 18.506 17.8675C18.9603 17.8268 19.467 17.687 19.9854 17.454C22.1521 16.4696 24.5052 13.7904 24.1441 9.64327V9.64327Z" fill="#FFCA28"/>
<path d="M17.3121 12.5617C17.3296 12.55 17.3529 12.5442 17.3704 12.5384L18.6984 12.4219C18.7217 12.4219 18.7392 12.4277 18.7625 12.4335C18.8848 12.4743 18.9663 12.5908 18.9197 12.7306C18.8731 12.8704 18.6401 13.2664 18.1101 13.313C17.5743 13.3596 17.2772 13.0102 17.2131 12.882C17.1374 12.7539 17.1957 12.6199 17.3121 12.5617V12.5617Z" fill="#E59600"/>
<path d="M21.0599 11.439C21.5726 11.3941 21.9507 10.9291 21.9044 10.4003C21.8582 9.87158 21.405 9.47932 20.8923 9.5242C20.3795 9.56909 20.0014 10.0341 20.0477 10.5629C20.094 11.0916 20.5471 11.4839 21.0599 11.439Z" fill="#404040"/>
<path d="M14.8742 11.982C15.3869 11.9371 15.7651 11.4721 15.7188 10.9433C15.6725 10.4146 15.2193 10.0223 14.7066 10.0672C14.1939 10.1121 13.8157 10.5771 13.862 11.1058C13.9083 11.6346 14.3615 12.0269 14.8742 11.982Z" fill="#404040"/>
<path d="M19.4498 8.88109C19.607 8.63064 19.9856 8.25787 20.7778 8.18797C21.5699 8.11808 22.0067 8.42096 22.2048 8.64229C22.2921 8.74131 22.2805 8.8578 22.2339 8.93934C22.1873 9.00924 22.0475 9.08495 21.8786 9.04418C21.7097 9.00341 21.3777 8.86362 20.8418 8.91022C20.306 8.96264 20.0031 9.15485 19.84 9.22474C19.6827 9.29464 19.5255 9.24804 19.4731 9.18397C19.409 9.10825 19.3799 8.99176 19.4498 8.88109Z" fill="#6D4C41"/>
<path d="M13.264 9.42211C13.4213 9.17166 13.7999 8.79888 14.592 8.72899C15.3841 8.65909 15.821 8.96197 16.019 9.18331C16.1064 9.28232 16.0947 9.39881 16.0481 9.48036C16.0015 9.55025 15.8617 9.62597 15.6928 9.5852C15.5239 9.54443 15.1919 9.40464 14.6561 9.45123C14.1202 9.50365 13.8173 9.69587 13.6542 9.76576C13.497 9.83566 13.3397 9.78906 13.2873 9.72499C13.229 9.64927 13.1941 9.52695 13.264 9.42211Z" fill="#6D4C41"/>
<path d="M16.5898 14.1742C17.2189 14.4771 19.1817 14.3081 19.7525 13.9004C20.0787 13.6674 20.4573 13.947 20.3408 14.2732C20.2302 14.5936 19.2167 15.3973 18.2906 15.4789C17.3645 15.5604 16.2462 14.9372 16.0773 14.646C15.9083 14.3431 16.2287 13.9994 16.5898 14.1742V14.1742Z" fill="#795548"/>
<path d="M10.2061 13.2838C10.4798 10.3657 10.1012 9.36386 10.1828 8.29796C10.2527 7.39516 10.5439 1.45412 17.0092 0.889134C24.4005 0.242609 24.8257 7.02821 24.8257 7.02821L25.0063 9.4454C25.0063 9.4454 24.9539 10.8899 24.3132 12.6373C23.6666 14.3904 23.1599 15.0428 23.3346 14.1633C23.5268 13.1906 23.6958 11.8626 23.5851 10.5987C23.5385 10.0453 23.5327 7.97179 22.3503 7.81453C18.011 7.23207 15.4074 5.18183 15.4074 5.18183C14.9007 6.60302 13.0601 8.11158 12.4019 8.67656C11.8603 9.14252 12.0932 10.8491 12.169 11.5772L12.7223 14.8914C11.9884 14.5069 10.6429 14.0177 10.2061 13.2838V13.2838Z" fill="#543930"/>
<path d="M25.6003 11.024C25.6003 11.0357 25.6003 11.0415 25.5945 11.0532C25.5828 11.1813 25.5595 11.3153 25.5362 11.4434C25.2217 13.2432 10.6836 19.9531 9.37891 11.3094C9.35561 11.1755 9.33814 11.0357 9.32649 10.8959C9.32066 10.8435 9.31484 10.7911 9.31484 10.7445C9.30319 10.6454 9.29736 10.5522 9.29736 10.4591C9.12263 8.2632 9.37308 6.44011 9.99631 4.90243C11.0739 2.21731 13.6425 0.353454 16.6945 0.0447532C19.7466 -0.263948 22.6298 1.04075 24.2315 3.45212C25.6644 5.61885 25.9847 8.39716 25.6003 11.024V11.024Z" fill="url(#paint8_radial_1029_1958)"/>
<defs>
<radialGradient id="paint0_radial_1029_1958" cx="0" cy="0" r="1" gradientUnits="userSpaceOnUse" gradientTransform="translate(15.8948 15.4599) rotate(147.181) scale(11.8051 7.56106)">
<stop offset="0.7816" stop-color="#6D4C41" stop-opacity="0"/>
<stop offset="1" stop-color="#6D4C41"/>
</radialGradient>
<linearGradient id="paint1_linear_1029_1958" x1="19.7979" y1="26.3466" x2="19.0258" y2="17.9349" gradientUnits="userSpaceOnUse">
<stop offset="0.0739" stop-color="#FFCA28"/>
<stop offset="1" stop-color="#FFB300"/>
</linearGradient>
<linearGradient id="paint2_linear_1029_1958" x1="30.7267" y1="11.2387" x2="26.0129" y2="14.3813" gradientUnits="userSpaceOnUse">
<stop offset="0.2315" stop-color="#FFCA28"/>
<stop offset="1" stop-color="#FFB300"/>
</linearGradient>
<linearGradient id="paint3_linear_1029_1958" x1="8.2833" y1="34.2933" x2="14.7851" y2="27.8999" gradientUnits="userSpaceOnUse">
<stop offset="0.2315" stop-color="#FFCA28"/>
<stop offset="1" stop-color="#FFB300"/>
</linearGradient>
<linearGradient id="paint4_linear_1029_1958" x1="41.5231" y1="36.3045" x2="41.1327" y2="36.5643" gradientUnits="userSpaceOnUse">
<stop stop-color="#BC1B00"/>
<stop offset="0.2898" stop-color="#E31C00"/>
<stop offset="0.6929" stop-color="#BC1B00"/>
<stop offset="0.914" stop-color="#DD1C00"/>
</linearGradient>
<linearGradient id="paint5_linear_1029_1958" x1="16.0347" y1="20.505" x2="20.7314" y2="44.3124" gradientUnits="userSpaceOnUse">
<stop stop-color="#BC1B00"/>
<stop offset="0.2126" stop-color="#E31C00"/>
<stop offset="0.5068" stop-color="#BC1B00"/>
<stop offset="0.8748" stop-color="#DD1C00"/>
</linearGradient>
<radialGradient id="paint6_radial_1029_1958" cx="0" cy="0" r="1" gradientUnits="userSpaceOnUse" gradientTransform="translate(25.7431 55.0199) scale(27.5822)">
<stop stop-color="#892002"/>
<stop offset="0.5369" stop-color="#B42002"/>
<stop offset="1" stop-color="#892002"/>
</radialGradient>
<linearGradient id="paint7_linear_1029_1958" x1="35.1764" y1="48.1797" x2="42.1116" y2="61.2375" gradientUnits="userSpaceOnUse">
<stop stop-color="#FFB300"/>
<stop offset="0.4007" stop-color="#FFCA28"/>
</linearGradient>
<radialGradient id="paint8_radial_1029_1958" cx="0" cy="0" r="1" gradientUnits="userSpaceOnUse" gradientTransform="translate(17.2584 10.1587) rotate(90) scale(10.3332 9.47758)">
<stop offset="0.8687" stop-color="#6D4C41" stop-opacity="0"/>
<stop offset="1" stop-color="#6D4C41"/>
</radialGradient>
</defs>
</svg>
