<svg width="50" height="51" viewBox="0 0 50 51" fill="none" xmlns="http://www.w3.org/2000/svg">
<path d="M25.0112 14.3701C25.0112 14.3701 27.7098 15.3183 31.8831 15.9867C37.2093 16.8389 45.2049 16.8389 46.5375 13.9481C47.632 11.5754 42.5397 0.00390625 39.3147 0.00390625C36.9754 0.00390625 35.9268 1.5955 32.7478 5.15049C29.5688 8.70547 25.0112 14.3701 25.0112 14.3701V14.3701Z" fill="url(#paint0_radial_1029_922)"/>
<path d="M30.9473 11.2832C30.9473 11.2832 35.6677 4.66619 38.3705 2.66102C39.699 1.67933 41.0065 2.9994 40.0791 4.47402C39.1935 5.89435 30.9473 11.2832 30.9473 11.2832Z" fill="#FBC02D"/>
<path d="M24.9609 14.3703C24.9609 14.3703 22.2623 15.3186 18.0891 15.987C12.7629 16.8392 4.7673 16.8392 3.4347 13.9484C2.34857 11.5715 7.43667 0 10.6616 0C13.001 0 14.0495 1.5916 17.2285 5.14658C20.4076 8.70157 24.9609 14.3703 24.9609 14.3703V14.3703Z" fill="url(#paint1_radial_1029_922)"/>
<path d="M19.0291 11.2832C19.0291 11.2832 14.3086 4.66619 11.6058 2.66102C10.2774 1.67933 8.96985 2.9994 9.89723 4.47402C10.7828 5.89435 19.0291 11.2832 19.0291 11.2832Z" fill="#FBC02D"/>
<path opacity="0.2" d="M39.3147 1.25323C39.5278 1.25323 40.3591 1.65844 41.6332 3.50485C44.2399 7.29377 45.7563 12.478 45.397 13.4179C45.0127 14.2492 42.8697 15.2225 38.0866 15.2225C36.1399 15.2225 34.0094 15.0512 32.0794 14.7463C30.0241 14.4163 28.3281 14.0152 27.1626 13.7019C28.725 11.7887 31.5322 8.3799 33.6794 5.98206C34.1013 5.51002 34.4856 5.07556 34.8407 4.67453C37.1759 2.01769 37.9111 1.25323 39.3147 1.25323M39.3147 0C36.9754 0 35.9268 1.5916 32.7478 5.14658C29.5688 8.70156 25.0112 14.3703 25.0112 14.3703C25.0112 14.3703 27.7098 15.3186 31.8831 15.987C33.7546 16.2878 35.9602 16.4799 38.0866 16.4799C42.0091 16.4799 45.6727 15.8199 46.5375 13.9484C47.6278 11.5715 42.5397 0 39.3147 0V0Z" fill="#424242"/>
<path opacity="0.2" d="M10.6617 1.25323C12.0653 1.25323 12.8005 2.01769 15.1357 4.67035C15.4908 5.07139 15.8751 5.51002 16.297 5.97789C18.4442 8.37573 21.2515 11.7845 22.8138 13.6978C21.6483 14.0111 19.9523 14.4121 17.897 14.7421C15.967 15.0512 13.8365 15.2183 11.8899 15.2183C7.10672 15.2183 4.9637 14.245 4.57938 13.4179C4.22012 12.4738 5.73235 7.28542 8.34323 3.50068C9.61317 1.65844 10.4487 1.25323 10.6617 1.25323M10.6617 0C7.43673 0 2.34864 11.5715 3.43894 13.9442C4.30367 15.8199 7.96726 16.4757 11.8899 16.4757C14.0162 16.4757 16.2177 16.2836 18.0933 15.9828C22.2666 15.3186 24.9652 14.3661 24.9652 14.3661C24.9652 14.3661 20.4118 8.69739 17.2328 5.1424C14.0538 1.58742 13.0011 0 10.6617 0V0Z" fill="#424242"/>
<path d="M25.0112 8.41406C21.4019 8.41406 18.4693 11.7017 18.3022 14.9935H31.7243C31.553 11.7017 28.6163 8.41406 25.0112 8.41406V8.41406Z" fill="#FBC02D"/>
<path opacity="0.2" d="M25.0112 9.66729C27.4717 9.66729 29.5144 11.6223 30.2162 13.7403H19.8061C20.5079 11.6223 22.5507 9.66729 25.0112 9.66729M25.0112 8.41406C21.4019 8.41406 18.4693 11.7017 18.3022 14.9935H31.7243C31.553 11.7017 28.6163 8.41406 25.0112 8.41406Z" fill="#424242"/>
<path d="M45.0669 50.0873H4.8885L3.21753 19.6465H46.7379L45.0669 50.0873Z" fill="url(#paint2_linear_1029_922)"/>
<path opacity="0.2" d="M45.4136 20.8997L43.8805 48.8383H6.07488L4.54177 20.8997H45.4136ZM46.7379 19.6465H3.21753L4.8885 50.0915H45.0711L46.7379 19.6465Z" fill="#424242"/>
<path d="M49.1608 23.1051H1.12465C0.970085 23.1051 0.83223 23.009 0.786279 22.8712C-0.287318 19.7507 -0.258076 16.3753 0.86565 13.2715H49.1608C50.2511 16.3795 50.2803 19.7423 49.2402 22.8712L49.1608 23.1051Z" fill="#2196F3"/>
<path opacity="0.2" d="M48.2418 14.5247C48.9186 16.9351 48.9186 19.4415 48.2418 21.8519H1.77639C1.08294 19.4624 1.08294 16.91 1.77639 14.5247H48.2418ZM49.1609 13.2715H0.865712C-0.262191 16.3753 -0.287255 19.7507 0.786341 22.8712C0.83647 23.0132 0.970148 23.1051 1.12471 23.1051H49.1609L49.2402 22.867C50.2804 19.7423 50.2512 16.3795 49.1609 13.2715Z" fill="#424242"/>
<path d="M19.635 13.2715H30.4963V50.2249H19.635V13.2715Z" fill="url(#paint3_linear_1029_922)"/>
<path opacity="0.2" d="M29.2431 14.5247V48.9717H20.8882V14.5247H29.2431ZM30.4963 13.2715H19.635V50.2249H30.4963V13.2715Z" fill="#424242"/>
<defs>
<radialGradient id="paint0_radial_1029_922" cx="0" cy="0" r="1" gradientUnits="userSpaceOnUse" gradientTransform="translate(40.7643 3.87289) rotate(180) scale(14.3386 15.8456)">
<stop offset="0.2562" stop-color="#FFEB3B"/>
<stop offset="1" stop-color="#FBC02D"/>
</radialGradient>
<radialGradient id="paint1_radial_1029_922" cx="0" cy="0" r="1" gradientUnits="userSpaceOnUse" gradientTransform="translate(9.20789 3.87316) scale(14.3386 15.8456)">
<stop offset="0.2562" stop-color="#FFEB3B"/>
<stop offset="1" stop-color="#FBC02D"/>
</radialGradient>
<linearGradient id="paint2_linear_1029_922" x1="24.9777" y1="39.6496" x2="24.9777" y2="15.3099" gradientUnits="userSpaceOnUse">
<stop offset="0.3754" stop-color="#2196F3"/>
<stop offset="0.8273" stop-color="#1976D2"/>
</linearGradient>
<linearGradient id="paint3_linear_1029_922" x1="19.4892" y1="22.6222" x2="32.9635" y2="44.669" gradientUnits="userSpaceOnUse">
<stop offset="0.252" stop-color="#FFEB3B"/>
<stop offset="1" stop-color="#FBC02D"/>
</linearGradient>
</defs>
</svg>
